<svg width="38" height="66" viewBox="0 0 38 66" fill="none" xmlns="http://www.w3.org/2000/svg">
<circle cx="19" cy="19" r="17.5" stroke="#AB80E3" stroke-width="3"/>
<path d="M19.006 62.1811C18.1644 62.1776 17.4453 61.9556 16.8487 61.5153C16.2521 61.0749 15.7958 60.4339 15.4797 59.5923C15.1637 58.7507 15.0056 57.7369 15.0056 56.5508C15.0056 55.3683 15.1637 54.358 15.4797 53.5199C15.7993 52.6818 16.2574 52.0426 16.854 51.6023C17.4541 51.1619 18.1715 50.9418 19.006 50.9418C19.8405 50.9418 20.5561 51.1637 21.1527 51.6076C21.7492 52.0479 22.2056 52.6871 22.5216 53.5252C22.8412 54.3597 23.001 55.3683 23.001 56.5508C23.001 57.7404 22.843 58.756 22.5269 59.5977C22.2109 60.4357 21.7546 61.0767 21.158 61.5206C20.5614 61.9609 19.8441 62.1811 19.006 62.1811ZM19.006 60.7589C19.7446 60.7589 20.3217 60.3984 20.7372 59.6776C21.1562 58.9567 21.3657 57.9144 21.3657 56.5508C21.3657 55.6452 21.2698 54.88 21.0781 54.255C20.8899 53.6264 20.6182 53.1506 20.2631 52.8274C19.9115 52.5007 19.4925 52.3374 19.006 52.3374C18.2709 52.3374 17.6938 52.6996 17.2748 53.424C16.8558 54.1484 16.6445 55.1907 16.6409 56.5508C16.6409 57.4599 16.735 58.2287 16.9233 58.8572C17.115 59.4822 17.3867 59.9563 17.7382 60.2795C18.0898 60.5991 18.5124 60.7589 19.006 60.7589Z" fill="black"/>
</svg>
