<svg width="38" height="66" viewBox="0 0 38 66" fill="none" xmlns="http://www.w3.org/2000/svg">
<circle cx="19" cy="19" r="17.5" fill="#AB80E3" stroke="#AB80E3" stroke-width="3"/>
<path d="M15.4498 62V60.8068L19.1412 56.9822C19.5353 56.5668 19.8603 56.2028 20.1159 55.8903C20.3752 55.5742 20.5687 55.2741 20.6966 54.9901C20.8244 54.706 20.8883 54.4041 20.8883 54.0845C20.8883 53.7223 20.8031 53.4098 20.6326 53.147C20.4622 52.8807 20.2296 52.6765 19.9348 52.5344C19.6401 52.3888 19.3081 52.3161 18.9387 52.3161C18.5481 52.3161 18.2072 52.396 17.916 52.5558C17.6248 52.7156 17.4011 52.9411 17.2449 53.2322C17.0886 53.5234 17.0105 53.8643 17.0105 54.255H15.4391C15.4391 53.5909 15.5918 53.0103 15.8972 52.5131C16.2026 52.016 16.6216 51.6307 17.1543 51.3572C17.687 51.0803 18.2924 50.9418 18.9707 50.9418C19.6561 50.9418 20.2598 51.0785 20.7818 51.3519C21.3074 51.6218 21.7175 51.9911 22.0123 52.4599C22.307 52.9251 22.4544 53.4506 22.4544 54.0366C22.4544 54.4414 22.378 54.8374 22.2253 55.2244C22.0762 55.6115 21.8152 56.043 21.4423 56.5188C21.0694 56.9911 20.551 57.5646 19.8869 58.2393L17.7189 60.5085V60.5884H22.6301V62H15.4498Z" fill="black"/>
</svg>
