<svg width="38" height="66" viewBox="0 0 38 66" fill="none" xmlns="http://www.w3.org/2000/svg">
<circle cx="19" cy="19" r="17.5" fill="#AB80E3" stroke="#AB80E3" stroke-width="3"/>
<path d="M19.0133 62.1491C18.2818 62.1491 17.6284 62.0231 17.0531 61.771C16.4814 61.5188 16.0286 61.169 15.6948 60.7216C15.3645 60.2706 15.187 59.7486 15.1621 59.1555H16.8347C16.856 59.4787 16.9643 59.7592 17.1596 59.9972C17.3585 60.2315 17.6177 60.4126 17.9373 60.5405C18.2569 60.6683 18.612 60.7322 19.0027 60.7322C19.4324 60.7322 19.8123 60.6577 20.1426 60.5085C20.4764 60.3594 20.7374 60.1516 20.9256 59.8853C21.1138 59.6154 21.2079 59.3047 21.2079 58.9531C21.2079 58.5874 21.1138 58.266 20.9256 57.989C20.7409 57.7085 20.4693 57.4883 20.1106 57.3285C19.7555 57.1687 19.3258 57.0888 18.8216 57.0888H17.9V55.7464H18.8216C19.2264 55.7464 19.5815 55.6737 19.8869 55.5281C20.1958 55.3825 20.4373 55.18 20.6113 54.9208C20.7853 54.658 20.8723 54.3509 20.8723 53.9993C20.8723 53.6619 20.796 53.369 20.6433 53.1204C20.4941 52.8683 20.2811 52.6712 20.0041 52.5291C19.7306 52.3871 19.4075 52.3161 19.0346 52.3161C18.6795 52.3161 18.3475 52.3817 18.0385 52.5131C17.7331 52.641 17.4846 52.8256 17.2928 53.0671C17.101 53.305 16.998 53.5909 16.9838 53.9247H15.3912C15.4089 53.3352 15.5829 52.8168 15.9132 52.3693C16.247 51.9219 16.6873 51.5721 17.2342 51.32C17.7811 51.0678 18.3883 50.9418 19.0559 50.9418C19.7555 50.9418 20.3592 51.0785 20.867 51.3519C21.3784 51.6218 21.7725 51.9822 22.0495 52.4332C22.3301 52.8842 22.4686 53.3778 22.465 53.9141C22.4686 54.5249 22.2981 55.0433 21.9537 55.4695C21.6127 55.8956 21.1582 56.1815 20.59 56.3271V56.4123C21.3145 56.5224 21.8755 56.81 22.2733 57.2752C22.6745 57.7404 22.8734 58.3175 22.8699 59.0064C22.8734 59.6065 22.7065 60.1445 22.3691 60.6204C22.0353 61.0962 21.579 61.4709 21.0002 61.7443C20.4213 62.0142 19.7591 62.1491 19.0133 62.1491Z" fill="black"/>
</svg>
