<svg width="38" height="66" viewBox="0 0 38 66" fill="none" xmlns="http://www.w3.org/2000/svg">
<circle cx="19" cy="19" r="17.5" fill="#AB80E3" stroke="#AB80E3" stroke-width="3"/>
<path d="M18.9993 62.1491C18.3317 62.1491 17.7316 62.0213 17.1989 61.7656C16.6698 61.5064 16.2472 61.1513 15.9312 60.7003C15.6151 60.2493 15.4464 59.7344 15.4251 59.1555H17.0231C17.0622 59.6243 17.2699 60.0096 17.6464 60.3114C18.0228 60.6133 18.4738 60.7642 18.9993 60.7642C19.4184 60.7642 19.7895 60.6683 20.1126 60.4766C20.4393 60.2812 20.695 60.0131 20.8797 59.6722C21.0679 59.3313 21.162 58.9425 21.162 58.5057C21.162 58.0618 21.0661 57.6658 20.8743 57.3178C20.6826 56.9698 20.418 56.6964 20.0807 56.4975C19.7468 56.2987 19.3633 56.1974 18.9301 56.1939C18.5998 56.1939 18.2678 56.2507 17.934 56.3643C17.6002 56.478 17.3303 56.6271 17.1243 56.8118L15.6169 56.5881L16.2294 51.0909H22.2273V52.5025H17.5984L17.2522 55.5547H17.3161C17.5292 55.3487 17.8115 55.1765 18.163 55.038C18.5182 54.8995 18.8981 54.8303 19.303 54.8303C19.967 54.8303 20.5583 54.9883 21.0767 55.3043C21.5988 55.6204 22.0089 56.0518 22.3072 56.5987C22.6091 57.142 22.7582 57.767 22.7547 58.4737C22.7582 59.1804 22.5984 59.8107 22.2753 60.3647C21.9557 60.9187 21.5118 61.3555 20.9436 61.6751C20.379 61.9911 19.7309 62.1491 18.9993 62.1491Z" fill="black"/>
</svg>
