<svg width="304" height="437" viewBox="0 0 304 437" fill="none" xmlns="http://www.w3.org/2000/svg">
<g filter="url(#filter0_d_347_659)">
<rect x="4" width="296" height="429" rx="5" fill="#F9F9F9"/>
</g>
<path d="M35.348 55V50.016C35.348 49.568 35.2267 49.246 34.984 49.05C34.7413 48.854 34.368 48.756 33.864 48.756C33.3787 48.756 32.9027 48.8307 32.436 48.98C31.9787 49.12 31.582 49.288 31.246 49.484V47.748C31.5167 47.6173 31.8993 47.4867 32.394 47.356C32.8887 47.216 33.458 47.146 34.102 47.146C34.5967 47.146 35.04 47.2067 35.432 47.328C35.8333 47.4493 36.1227 47.6873 36.3 48.042C36.692 48.1633 36.972 48.4013 37.14 48.756C37.3173 49.1013 37.406 49.5493 37.406 50.1V55H35.348ZM33.052 55.14C32.2493 55.14 31.6287 54.9487 31.19 54.566C30.7607 54.1833 30.546 53.6467 30.546 52.956C30.546 52.2093 30.812 51.612 31.344 51.164C31.8853 50.716 32.7347 50.4453 33.892 50.352L35.684 50.212V51.724L34.13 51.878C33.57 51.934 33.178 52.046 32.954 52.214C32.7393 52.382 32.632 52.606 32.632 52.886C32.632 53.166 32.7207 53.376 32.898 53.516C33.0847 53.656 33.3227 53.726 33.612 53.726C33.724 53.726 33.836 53.7167 33.948 53.698C34.06 53.67 34.1627 53.642 34.256 53.614L34.438 54.93C34.2607 54.9953 34.0507 55.0467 33.808 55.084C33.5653 55.1213 33.3133 55.14 33.052 55.14ZM36.258 48.854L35.11 47.888C35.4367 47.776 35.6933 47.636 35.88 47.468C36.0667 47.2907 36.1647 47.076 36.174 46.824H38.008C38.008 47.1133 37.9473 47.3933 37.826 47.664C37.714 47.9253 37.5273 48.1587 37.266 48.364C37.014 48.5693 36.678 48.7327 36.258 48.854ZM41.4319 55V49.932C41.4319 49.54 41.3385 49.2553 41.1519 49.078C40.9745 48.9007 40.6805 48.812 40.2699 48.812C39.9619 48.812 39.6772 48.854 39.4159 48.938C39.1639 49.022 38.9259 49.1247 38.7019 49.246V47.566C38.9072 47.4727 39.1965 47.3793 39.5699 47.286C39.9432 47.1927 40.3819 47.146 40.8859 47.146C41.3992 47.146 41.8519 47.2207 42.2439 47.37C42.6452 47.5193 42.9579 47.7713 43.1819 48.126C43.4152 48.4713 43.5319 48.9473 43.5319 49.554V55H41.4319ZM48.1179 55.182C47.5672 55.182 47.0119 55.1213 46.4519 55C45.9012 54.8787 45.4112 54.706 44.9819 54.482L45.5699 52.816C45.7565 52.9187 45.9805 53.026 46.2419 53.138C46.5032 53.25 46.7879 53.3433 47.0959 53.418C47.4039 53.4927 47.7165 53.53 48.0339 53.53C48.4072 53.53 48.6872 53.4787 48.8739 53.376C49.0699 53.264 49.1679 53.096 49.1679 52.872C49.1679 52.704 49.1025 52.5687 48.9719 52.466C48.8505 52.354 48.6685 52.2513 48.4259 52.158C48.1832 52.0553 47.8939 51.948 47.5579 51.836C47.0632 51.6587 46.6385 51.4673 46.2839 51.262C45.9292 51.0567 45.6539 50.8047 45.4579 50.506C45.2712 50.2073 45.1779 49.834 45.1779 49.386C45.1779 48.8727 45.3085 48.4527 45.5699 48.126C45.8312 47.7993 46.1999 47.5567 46.6759 47.398C47.1519 47.23 47.7072 47.146 48.3419 47.146C48.8645 47.146 49.3359 47.188 49.7559 47.272C50.1759 47.356 50.5025 47.4633 50.7359 47.594V49.246C50.5772 49.1713 50.3672 49.0967 50.1059 49.022C49.8539 48.9473 49.5785 48.8867 49.2799 48.84C48.9905 48.784 48.7105 48.756 48.4399 48.756C48.0572 48.756 47.7679 48.8073 47.5719 48.91C47.3759 49.0127 47.2779 49.1573 47.2779 49.344C47.2779 49.4933 47.3432 49.6193 47.4739 49.722C47.6139 49.8247 47.8145 49.9227 48.0759 50.016C48.3372 50.1 48.6499 50.2073 49.0139 50.338C49.4992 50.506 49.9099 50.6927 50.2459 50.898C50.5819 51.1033 50.8339 51.3553 51.0019 51.654C51.1792 51.9527 51.2679 52.3213 51.2679 52.76C51.2679 53.18 51.1699 53.5767 50.9739 53.95C50.7872 54.314 50.4652 54.6127 50.0079 54.846C49.5505 55.07 48.9205 55.182 48.1179 55.182ZM56.19 55.182C54.9766 55.182 54.0946 54.902 53.544 54.342C53.0026 53.7727 52.732 52.9513 52.732 51.878V47.328H54.832V51.99C54.832 52.4847 54.9393 52.8627 55.154 53.124C55.378 53.376 55.7233 53.502 56.19 53.502C56.6566 53.502 56.9973 53.376 57.212 53.124C57.436 52.8627 57.548 52.4847 57.548 51.99V47.328H59.648V51.878C59.648 52.9513 59.3726 53.7727 58.822 54.342C58.2806 54.902 57.4033 55.182 56.19 55.182ZM57.6117 46.264C57.1731 46.264 56.8277 46.1987 56.5757 46.068C56.3237 45.9373 56.1464 45.774 56.0437 45.578C55.9317 45.3727 55.8757 45.158 55.8757 44.934C55.8757 44.7753 55.8991 44.6073 55.9457 44.43C55.9924 44.2433 56.0624 44.0707 56.1557 43.912L57.6817 44.108C57.6631 44.1733 57.6491 44.2433 57.6397 44.318C57.6211 44.3833 57.6117 44.444 57.6117 44.5C57.6117 44.6307 57.6537 44.7333 57.7377 44.808C57.8124 44.8733 57.9431 44.906 58.1297 44.906H61.1397V46.264H57.6117ZM68.983 57.744C68.563 57.744 68.143 57.702 67.723 57.618C67.303 57.5433 66.9157 57.4267 66.561 57.268V55.49C66.8037 55.6393 67.1117 55.77 67.485 55.882C67.8677 56.0033 68.269 56.064 68.689 56.064C69.0903 56.064 69.431 56.0033 69.711 55.882C70.0003 55.7607 70.2197 55.574 70.369 55.322C70.5277 55.07 70.607 54.748 70.607 54.356V53.95H70.509C70.3317 54.2113 70.075 54.4353 69.739 54.622C69.4123 54.8087 68.9877 54.902 68.465 54.902C67.9983 54.902 67.5877 54.818 67.233 54.65C66.8877 54.482 66.617 54.2207 66.421 53.866C66.225 53.502 66.127 53.0353 66.127 52.466V50.114C66.127 49.7873 66.0663 49.5307 65.945 49.344C65.833 49.148 65.679 49.008 65.483 48.924C65.287 48.84 65.063 48.798 64.811 48.798C64.4563 48.798 64.1623 48.8773 63.929 49.036C63.6957 49.1853 63.5697 49.414 63.551 49.722L64.769 50.31L64.629 51.22C64.2837 51.2293 64.0223 51.3133 63.845 51.472C63.6677 51.6213 63.579 51.8873 63.579 52.27V53.124C63.579 53.3293 63.621 53.4787 63.705 53.572C63.7983 53.656 63.943 53.698 64.139 53.698C64.223 53.698 64.307 53.6933 64.391 53.684C64.4843 53.6653 64.5637 53.642 64.629 53.614L64.825 54.86C64.6477 54.9533 64.447 55.0233 64.223 55.07C63.999 55.1167 63.761 55.14 63.509 55.14C63.1077 55.14 62.7577 55.0747 62.459 54.944C62.1697 54.8133 61.941 54.6173 61.773 54.356C61.6143 54.0853 61.535 53.7493 61.535 53.348V52.438C61.535 51.8873 61.6563 51.4813 61.899 51.22C62.1417 50.9587 62.4777 50.7627 62.907 50.632L62.921 50.576L61.395 50.03V49.666C61.395 49.19 61.5257 48.7653 61.787 48.392C62.0577 48.0093 62.4497 47.706 62.963 47.482C63.4763 47.258 64.1017 47.146 64.839 47.146C65.5297 47.146 66.1223 47.2533 66.617 47.468C67.121 47.6733 67.5083 47.986 67.779 48.406C68.0497 48.8167 68.185 49.3347 68.185 49.96V51.836C68.185 52.284 68.283 52.606 68.479 52.802C68.675 52.998 68.9177 53.096 69.207 53.096C69.4777 53.096 69.711 53.0213 69.907 52.872C70.103 52.7133 70.257 52.4987 70.369 52.228C70.481 51.948 70.537 51.6213 70.537 51.248V47.328H72.637V54.062C72.637 54.8927 72.497 55.5787 72.217 56.12C71.9463 56.6707 71.5403 57.0767 70.999 57.338C70.4577 57.6087 69.7857 57.744 68.983 57.744Z" fill="black"/>
<circle cx="144" cy="413" r="4.5" stroke="#D9D9D9" stroke-opacity="0.65"/>
<circle cx="160" cy="413" r="5" fill="#D9D9D9" fill-opacity="0.65"/>
<defs>
<filter id="filter0_d_347_659" x="0" y="0" width="304" height="437" filterUnits="userSpaceOnUse" color-interpolation-filters="sRGB">
<feFlood flood-opacity="0" result="BackgroundImageFix"/>
<feColorMatrix in="SourceAlpha" type="matrix" values="0 0 0 0 0 0 0 0 0 0 0 0 0 0 0 0 0 0 127 0" result="hardAlpha"/>
<feOffset dy="4"/>
<feGaussianBlur stdDeviation="2"/>
<feComposite in2="hardAlpha" operator="out"/>
<feColorMatrix type="matrix" values="0 0 0 0 0 0 0 0 0 0 0 0 0 0 0 0 0 0 0.25 0"/>
<feBlend mode="normal" in2="BackgroundImageFix" result="effect1_dropShadow_347_659"/>
<feBlend mode="normal" in="SourceGraphic" in2="effect1_dropShadow_347_659" result="shape"/>
</filter>
</defs>
</svg>
