<svg width="150" height="42" viewBox="0 0 150 42" fill="none" xmlns="http://www.w3.org/2000/svg">
<rect x="1" y="1" width="148" height="40" rx="20" stroke="#6B2DBC" stroke-width="2"/>
<path d="M59.2632 26.234C58.2492 26.234 57.3732 25.988 56.6352 25.496C55.9032 24.998 55.3362 24.299 54.9342 23.399C54.5322 22.493 54.3312 21.431 54.3312 20.213C54.3312 18.929 54.5442 17.852 54.9702 16.982C55.3962 16.106 55.9812 15.446 56.7252 15.002C57.4752 14.552 58.3212 14.327 59.2632 14.327C60.5292 14.327 61.5372 14.642 62.2872 15.272C63.0372 15.896 63.5352 16.709 63.7812 17.711L61.9542 18.062C61.7382 17.396 61.3962 16.865 60.9282 16.469C60.4602 16.067 59.9052 15.866 59.2632 15.866C58.6992 15.866 58.1832 16.028 57.7152 16.352C57.2472 16.676 56.8722 17.162 56.5902 17.81C56.3082 18.452 56.1672 19.253 56.1672 20.213C56.1672 21.101 56.2842 21.881 56.5182 22.553C56.7522 23.219 57.0972 23.738 57.5532 24.11C58.0092 24.482 58.5792 24.668 59.2632 24.668C60.0972 24.668 60.7542 24.446 61.2342 24.002C61.7142 23.552 61.9542 22.967 61.9542 22.247H63.7992C63.7992 23.087 63.6102 23.804 63.2322 24.398C62.8602 24.986 62.3352 25.439 61.6572 25.757C60.9792 26.075 60.1812 26.234 59.2632 26.234ZM66.7348 26V13.697H68.4448V26H66.7348ZM75.4205 26.234C74.6765 26.234 74.0045 26.042 73.4045 25.658C72.8045 25.274 72.3275 24.74 71.9735 24.056C71.6255 23.372 71.4515 22.58 71.4515 21.68C71.4515 20.726 71.6255 19.91 71.9735 19.232C72.3215 18.548 72.7955 18.023 73.3955 17.657C73.9955 17.291 74.6705 17.108 75.4205 17.108C76.0925 17.108 76.6685 17.246 77.1485 17.522C77.6285 17.792 78.0155 18.158 78.3095 18.62C78.6035 19.076 78.8045 19.595 78.9125 20.177C79.0265 20.759 79.0475 21.359 78.9755 21.977H72.8195V20.987H77.8055L77.3915 21.257C77.4095 20.933 77.3915 20.609 77.3375 20.285C77.2895 19.961 77.1935 19.664 77.0495 19.394C76.9055 19.118 76.7015 18.899 76.4375 18.737C76.1795 18.569 75.8495 18.485 75.4475 18.485C74.9435 18.485 74.5205 18.611 74.1785 18.863C73.8425 19.115 73.5875 19.454 73.4135 19.88C73.2395 20.3 73.1525 20.762 73.1525 21.266V21.959C73.1525 22.517 73.2365 23.012 73.4045 23.444C73.5725 23.876 73.8215 24.218 74.1515 24.47C74.4875 24.716 74.9105 24.839 75.4205 24.839C75.9185 24.839 76.3295 24.722 76.6535 24.488C76.9835 24.254 77.1875 23.903 77.2655 23.435H79.0115C78.9215 23.999 78.7145 24.491 78.3905 24.911C78.0665 25.331 77.6495 25.658 77.1395 25.892C76.6355 26.12 76.0625 26.234 75.4205 26.234ZM87.4717 26L87.2557 24.011V20.402C87.2557 19.694 87.1087 19.181 86.8147 18.863C86.5207 18.539 86.0557 18.377 85.4197 18.377C85.0597 18.377 84.7387 18.431 84.4567 18.539C84.1807 18.641 83.9617 18.797 83.7997 19.007C83.6437 19.217 83.5657 19.481 83.5657 19.799H81.6757C81.6757 19.163 81.8317 18.647 82.1437 18.251C82.4557 17.855 82.8907 17.567 83.4487 17.387C84.0127 17.201 84.6697 17.108 85.4197 17.108C86.1217 17.108 86.7397 17.225 87.2737 17.459C87.8077 17.687 88.2217 18.047 88.5157 18.539C88.8157 19.031 88.9657 19.667 88.9657 20.447V26H87.4717ZM84.5737 26.234C83.8477 26.234 83.2447 26.108 82.7647 25.856C82.2847 25.598 81.9247 25.262 81.6847 24.848C81.4507 24.434 81.3337 23.993 81.3337 23.525C81.3337 22.955 81.4777 22.487 81.7657 22.121C82.0597 21.749 82.4647 21.473 82.9807 21.293C83.4967 21.113 84.0907 21.023 84.7627 21.023C85.2247 21.023 85.6747 21.065 86.1127 21.149C86.5507 21.233 86.9827 21.344 87.4087 21.482V22.517C87.0607 22.391 86.6737 22.292 86.2477 22.22C85.8277 22.142 85.4347 22.103 85.0687 22.103C84.5227 22.103 84.0667 22.211 83.7007 22.427C83.3347 22.643 83.1517 23.009 83.1517 23.525C83.1517 23.903 83.2957 24.23 83.5837 24.506C83.8717 24.776 84.3277 24.911 84.9517 24.911C85.4077 24.911 85.8097 24.809 86.1577 24.605C86.5057 24.395 86.7757 24.134 86.9677 23.822C87.1597 23.51 87.2557 23.198 87.2557 22.886H87.6697C87.6697 23.486 87.5467 24.041 87.3007 24.551C87.0607 25.055 86.7097 25.463 86.2477 25.775C85.7857 26.081 85.2277 26.234 84.5737 26.234ZM92.5824 26V17.315H94.2924V26H92.5824ZM93.8244 22.13C93.8244 21.02 93.9384 20.099 94.1664 19.367C94.4004 18.629 94.7244 18.08 95.1384 17.72C95.5584 17.36 96.0504 17.18 96.6144 17.18C96.7824 17.18 96.9384 17.192 97.0824 17.216C97.2324 17.24 97.3794 17.273 97.5234 17.315L97.4604 19.016C97.2984 18.974 97.1214 18.938 96.9294 18.908C96.7434 18.872 96.5724 18.854 96.4164 18.854C95.9244 18.854 95.5224 18.986 95.2104 19.25C94.8984 19.508 94.6674 19.883 94.5174 20.375C94.3674 20.861 94.2924 21.446 94.2924 22.13H93.8244Z" fill="#6B2DBC"/>
</svg>
