<svg width="150" height="42" viewBox="0 0 150 42" fill="none" xmlns="http://www.w3.org/2000/svg">
<rect width="150" height="42" rx="21" fill="#6B2DBC"/>
<path d="M46.0148 26.234C45.0008 26.234 44.1248 25.988 43.3868 25.496C42.6548 24.998 42.0878 24.299 41.6858 23.399C41.2838 22.493 41.0828 21.431 41.0828 20.213C41.0828 18.929 41.2958 17.852 41.7218 16.982C42.1478 16.106 42.7328 15.446 43.4768 15.002C44.2268 14.552 45.0728 14.327 46.0148 14.327C47.2808 14.327 48.2888 14.642 49.0388 15.272C49.7888 15.896 50.2868 16.709 50.5328 17.711L48.7058 18.062C48.4898 17.396 48.1478 16.865 47.6798 16.469C47.2118 16.067 46.6568 15.866 46.0148 15.866C45.4508 15.866 44.9348 16.028 44.4668 16.352C43.9988 16.676 43.6238 17.162 43.3418 17.81C43.0598 18.452 42.9188 19.253 42.9188 20.213C42.9188 21.101 43.0358 21.881 43.2698 22.553C43.5038 23.219 43.8488 23.738 44.3048 24.11C44.7608 24.482 45.3308 24.668 46.0148 24.668C46.8488 24.668 47.5058 24.446 47.9858 24.002C48.4658 23.552 48.7058 22.967 48.7058 22.247H50.5508C50.5508 23.087 50.3618 23.804 49.9838 24.398C49.6118 24.986 49.0868 25.439 48.4088 25.757C47.7308 26.075 46.9328 26.234 46.0148 26.234ZM56.7445 26.234C55.9585 26.234 55.2535 26.063 54.6295 25.721C54.0115 25.379 53.5225 24.869 53.1625 24.191C52.8025 23.513 52.6225 22.676 52.6225 21.68C52.6225 20.666 52.8025 19.823 53.1625 19.151C53.5225 18.473 54.0115 17.963 54.6295 17.621C55.2535 17.279 55.9585 17.108 56.7445 17.108C57.5185 17.108 58.2145 17.279 58.8325 17.621C59.4505 17.963 59.9365 18.473 60.2905 19.151C60.6505 19.823 60.8305 20.666 60.8305 21.68C60.8305 22.676 60.6505 23.513 60.2905 24.191C59.9365 24.869 59.4505 25.379 58.8325 25.721C58.2145 26.063 57.5185 26.234 56.7445 26.234ZM56.6905 24.74C57.1885 24.74 57.6175 24.62 57.9775 24.38C58.3435 24.14 58.6225 23.792 58.8145 23.336C59.0125 22.874 59.1115 22.322 59.1115 21.68C59.1115 20.696 58.9105 19.934 58.5085 19.394C58.1125 18.854 57.5395 18.584 56.7895 18.584C56.2855 18.584 55.8505 18.707 55.4845 18.953C55.1245 19.193 54.8455 19.544 54.6475 20.006C54.4555 20.462 54.3595 21.02 54.3595 21.68C54.3595 22.646 54.5605 23.399 54.9625 23.939C55.3645 24.473 55.9405 24.74 56.6905 24.74ZM69.8969 26V20.924C69.8969 20.174 69.7169 19.607 69.3569 19.223C69.0029 18.833 68.5229 18.638 67.9169 18.638C67.4369 18.638 67.0169 18.77 66.6569 19.034C66.3029 19.292 66.0269 19.673 65.8289 20.177C65.6369 20.675 65.5409 21.284 65.5409 22.004H64.9289C64.9289 20.942 65.0639 20.048 65.3339 19.322C65.6099 18.596 66.0029 18.047 66.5129 17.675C67.0229 17.297 67.6349 17.108 68.3489 17.108C69.0449 17.108 69.6329 17.264 70.1129 17.576C70.5989 17.888 70.9679 18.332 71.2199 18.908C71.4719 19.478 71.5979 20.15 71.5979 20.924V26H69.8969ZM63.8309 26V17.342H65.3159L65.5409 19.214V26H63.8309ZM75.6983 26V16.127C75.6983 15.527 75.8123 15.041 76.0403 14.669C76.2743 14.291 76.5833 14.012 76.9673 13.832C77.3513 13.652 77.7743 13.562 78.2363 13.562C78.5003 13.562 78.7703 13.58 79.0463 13.616C79.3283 13.652 79.6043 13.706 79.8743 13.778L79.5503 15.11C79.3823 15.05 79.2113 15.002 79.0373 14.966C78.8693 14.93 78.7073 14.912 78.5513 14.912C78.3653 14.912 78.1853 14.948 78.0113 15.02C77.8373 15.086 77.6933 15.209 77.5793 15.389C77.4713 15.569 77.4173 15.824 77.4173 16.154V26H75.6983ZM74.3393 18.503V17.342H79.1183V18.503H74.3393ZM82.5563 15.497C82.2143 15.497 81.9443 15.404 81.7463 15.218C81.5543 15.026 81.4583 14.768 81.4583 14.444C81.4583 14.132 81.5543 13.886 81.7463 13.706C81.9443 13.52 82.2143 13.427 82.5563 13.427C82.8923 13.427 83.1563 13.52 83.3483 13.706C83.5463 13.886 83.6453 14.132 83.6453 14.444C83.6453 14.768 83.5463 15.026 83.3483 15.218C83.1563 15.404 82.8923 15.497 82.5563 15.497ZM81.7013 26V17.315H83.4113V26H81.7013ZM87.5255 26V17.315H89.2355V26H87.5255ZM88.7675 22.13C88.7675 21.02 88.8815 20.099 89.1095 19.367C89.3435 18.629 89.6675 18.08 90.0815 17.72C90.5015 17.36 90.9935 17.18 91.5575 17.18C91.7255 17.18 91.8815 17.192 92.0255 17.216C92.1755 17.24 92.3225 17.273 92.4665 17.315L92.4035 19.016C92.2415 18.974 92.0645 18.938 91.8725 18.908C91.6865 18.872 91.5155 18.854 91.3595 18.854C90.8675 18.854 90.4655 18.986 90.1535 19.25C89.8415 19.508 89.6105 19.883 89.4605 20.375C89.3105 20.861 89.2355 21.446 89.2355 22.13H88.7675ZM106.615 26V20.924C106.615 20.174 106.435 19.607 106.075 19.223C105.721 18.833 105.244 18.638 104.644 18.638C103.924 18.638 103.366 18.92 102.97 19.484C102.58 20.048 102.385 20.858 102.385 21.914H101.638C101.638 21.08 101.719 20.36 101.881 19.754C102.043 19.148 102.274 18.65 102.574 18.26C102.88 17.87 103.243 17.582 103.663 17.396C104.089 17.204 104.563 17.108 105.085 17.108C105.781 17.108 106.369 17.264 106.849 17.576C107.335 17.888 107.704 18.332 107.956 18.908C108.208 19.478 108.334 20.15 108.334 20.924V26H106.615ZM94.6179 26V17.342H96.1029L96.2919 18.971C96.5679 18.365 96.9459 17.903 97.4259 17.585C97.9119 17.267 98.4819 17.108 99.1359 17.108C99.8319 17.108 100.42 17.264 100.9 17.576C101.386 17.888 101.755 18.332 102.007 18.908C102.259 19.478 102.385 20.15 102.385 20.924V26H100.684V20.924C100.684 20.174 100.504 19.607 100.144 19.223C99.7899 18.833 99.3099 18.638 98.7039 18.638C98.2239 18.638 97.8039 18.77 97.4439 19.034C97.0899 19.292 96.8139 19.673 96.6159 20.177C96.4239 20.675 96.3279 21.284 96.3279 22.004V26H94.6179Z" fill="#FBFBFB"/>
</svg>
