<svg width="36" height="35" viewBox="0 0 36 35" fill="none" xmlns="http://www.w3.org/2000/svg">
<path d="M12.54 32.4302H9.02667C5.14594 32.4302 2 29.2842 2 25.4036V14.3499C2 11.8928 3.28344 9.61422 5.38473 8.34071L14.1681 3.01748C16.4066 1.66084 19.2134 1.66084 21.4519 3.01748L30.2353 8.34071C32.3366 9.61422 33.62 11.8928 33.62 14.3499V25.4036C33.62 29.2842 30.474 32.4302 26.5933 32.4302H23.08M12.54 32.4302V25.4036C12.54 22.493 14.8994 20.1336 17.81 20.1336C20.7206 20.1336 23.08 22.493 23.08 25.4036V32.4302M12.54 32.4302H23.08" stroke="#252525" stroke-width="3.5" stroke-linecap="round" stroke-linejoin="round"/>
</svg>
