<svg width="437" height="599" viewBox="0 0 437 599" fill="none" xmlns="http://www.w3.org/2000/svg">
<g filter="url(#filter0_d_906_3185)">
<rect x="20" y="16" width="397" height="559" rx="55" fill="#FBFBFB"/>
</g>
<path d="M121.877 114V109.992C121.877 108.984 122.077 108.208 122.477 107.664C122.877 107.12 123.445 106.736 124.181 106.512L124.205 106.416L121.637 105.48V104.856C121.637 104.072 121.869 103.352 122.333 102.696C122.797 102.04 123.477 101.52 124.373 101.136C125.285 100.736 126.389 100.536 127.685 100.536C128.901 100.536 129.949 100.728 130.829 101.112C131.709 101.48 132.389 102.04 132.869 102.792C133.365 103.528 133.613 104.464 133.613 105.6V114H130.013V105.816C130.013 105.016 129.797 104.416 129.365 104.016C128.949 103.616 128.357 103.416 127.589 103.416C126.853 103.416 126.301 103.576 125.933 103.896C125.565 104.2 125.365 104.576 125.333 105.024L127.469 106.008L127.205 107.568C126.629 107.6 126.197 107.808 125.909 108.192C125.621 108.576 125.477 109.096 125.477 109.752V114H121.877ZM141.174 114V105.312C141.174 104.64 141.014 104.152 140.694 103.848C140.39 103.544 139.886 103.392 139.182 103.392C138.654 103.392 138.166 103.464 137.718 103.608C137.286 103.752 136.878 103.928 136.494 104.136V101.256C136.846 101.096 137.342 100.936 137.982 100.776C138.622 100.616 139.374 100.536 140.238 100.536C141.118 100.536 141.894 100.664 142.566 100.92C143.254 101.176 143.79 101.608 144.174 102.216C144.574 102.808 144.774 103.624 144.774 104.664V114H141.174ZM153.356 114.312C152.412 114.312 151.46 114.208 150.5 114C149.556 113.792 148.716 113.496 147.98 113.112L148.988 110.256C149.308 110.432 149.692 110.616 150.14 110.808C150.588 111 151.076 111.16 151.604 111.288C152.132 111.416 152.668 111.48 153.212 111.48C153.852 111.48 154.332 111.392 154.652 111.216C154.988 111.024 155.156 110.736 155.156 110.352C155.156 110.064 155.044 109.832 154.82 109.656C154.612 109.464 154.3 109.288 153.884 109.128C153.468 108.952 152.972 108.768 152.396 108.576C151.548 108.272 150.82 107.944 150.212 107.592C149.604 107.24 149.132 106.808 148.796 106.296C148.476 105.784 148.316 105.144 148.316 104.376C148.316 103.496 148.54 102.776 148.988 102.216C149.436 101.656 150.068 101.24 150.884 100.968C151.7 100.68 152.652 100.536 153.74 100.536C154.636 100.536 155.444 100.608 156.164 100.752C156.884 100.896 157.444 101.08 157.844 101.304V104.136C157.572 104.008 157.212 103.88 156.764 103.752C156.332 103.624 155.86 103.52 155.348 103.44C154.852 103.344 154.372 103.296 153.908 103.296C153.252 103.296 152.756 103.384 152.42 103.56C152.084 103.736 151.916 103.984 151.916 104.304C151.916 104.56 152.028 104.776 152.252 104.952C152.492 105.128 152.836 105.296 153.284 105.456C153.732 105.6 154.268 105.784 154.892 106.008C155.724 106.296 156.428 106.616 157.004 106.968C157.58 107.32 158.012 107.752 158.3 108.264C158.604 108.776 158.756 109.408 158.756 110.16C158.756 110.88 158.588 111.56 158.252 112.2C157.932 112.824 157.38 113.336 156.596 113.736C155.812 114.12 154.732 114.312 153.356 114.312ZM163.066 114V108.48H161.698V106.272H166.306V111.264H166.474C167.002 111.264 167.45 111.12 167.818 110.832C168.202 110.544 168.49 110.12 168.682 109.56C168.874 108.984 168.97 108.264 168.97 107.4C168.97 106.408 168.826 105.624 168.538 105.048C168.266 104.456 167.858 104.032 167.314 103.776C166.77 103.52 166.098 103.392 165.298 103.392C164.466 103.392 163.714 103.512 163.042 103.752C162.37 103.976 161.77 104.248 161.242 104.568V101.568C161.77 101.296 162.434 101.056 163.234 100.848C164.034 100.64 164.954 100.536 165.994 100.536C167.546 100.536 168.802 100.784 169.762 101.28C170.738 101.776 171.458 102.528 171.922 103.536C172.386 104.544 172.618 105.808 172.618 107.328C172.618 108.752 172.402 109.968 171.97 110.976C171.554 111.968 170.866 112.72 169.906 113.232C168.962 113.744 167.698 114 166.114 114H163.066ZM169.196 99.024C168.444 99.024 167.852 98.912 167.42 98.688C166.988 98.464 166.684 98.184 166.508 97.848C166.316 97.496 166.22 97.128 166.22 96.744C166.22 96.472 166.26 96.184 166.34 95.88C166.42 95.56 166.54 95.264 166.7 94.992L169.316 95.328C169.284 95.44 169.26 95.56 169.244 95.688C169.212 95.8 169.196 95.904 169.196 96C169.196 96.224 169.268 96.4 169.412 96.528C169.54 96.64 169.764 96.696 170.084 96.696H175.244V99.024H169.196ZM181.56 114.24C180.264 114.24 179.232 113.96 178.464 113.4C177.696 112.824 177.144 112.04 176.808 111.048C176.472 110.04 176.304 108.888 176.304 107.592C176.304 106.2 176.456 105.048 176.76 104.136C177.08 103.208 177.528 102.488 178.104 101.976C178.68 101.448 179.36 101.08 180.144 100.872C180.944 100.648 181.816 100.536 182.76 100.536C184.2 100.536 185.352 100.736 186.216 101.136C187.08 101.536 187.704 102.104 188.088 102.84C188.488 103.576 188.688 104.44 188.688 105.432V114H185.088V105.72C185.088 104.968 184.904 104.4 184.536 104.016C184.184 103.616 183.592 103.416 182.76 103.416C182.2 103.416 181.704 103.536 181.272 103.776C180.856 104 180.528 104.408 180.288 105C180.064 105.592 179.952 106.44 179.952 107.544C179.952 108.296 180.024 108.96 180.168 109.536C180.312 110.112 180.544 110.56 180.864 110.88C181.2 111.2 181.648 111.36 182.208 111.36C182.384 111.36 182.552 111.352 182.712 111.336C182.888 111.304 183.04 111.272 183.168 111.24L183.504 113.928C183.248 114.04 182.936 114.12 182.568 114.168C182.216 114.216 181.88 114.24 181.56 114.24ZM192.643 114V109.992C192.643 108.984 192.843 108.208 193.243 107.664C193.643 107.12 194.211 106.736 194.947 106.512L194.971 106.416L192.403 105.48V104.856C192.403 104.072 192.635 103.352 193.099 102.696C193.563 102.04 194.243 101.52 195.139 101.136C196.051 100.736 197.155 100.536 198.451 100.536C199.667 100.536 200.715 100.728 201.595 101.112C202.475 101.48 203.155 102.04 203.635 102.792C204.131 103.528 204.379 104.464 204.379 105.6V114H200.779V105.816C200.779 105.016 200.563 104.416 200.131 104.016C199.715 103.616 199.123 103.416 198.355 103.416C197.619 103.416 197.067 103.576 196.699 103.896C196.331 104.2 196.131 104.576 196.099 105.024L198.235 106.008L197.971 107.568C197.395 107.6 196.963 107.808 196.675 108.192C196.387 108.576 196.243 109.096 196.243 109.752V114H192.643ZM215.947 114V105.456C215.947 104.688 215.739 104.136 215.323 103.8C214.907 103.464 214.267 103.296 213.403 103.296C212.571 103.296 211.755 103.424 210.955 103.68C210.171 103.92 209.491 104.208 208.915 104.544V101.568C209.379 101.344 210.035 101.12 210.883 100.896C211.731 100.656 212.715 100.536 213.835 100.536C214.651 100.536 215.395 100.624 216.067 100.8C216.755 100.96 217.355 101.24 217.867 101.64C218.379 102.024 218.771 102.544 219.043 103.2C219.331 103.84 219.475 104.64 219.475 105.6V114H215.947ZM212.011 114.24C210.635 114.24 209.571 113.912 208.819 113.256C208.083 112.6 207.715 111.68 207.715 110.496C207.715 109.216 208.171 108.192 209.083 107.424C210.011 106.656 211.467 106.192 213.451 106.032L216.523 105.792V108.384L213.859 108.648C212.899 108.744 212.227 108.936 211.843 109.224C211.475 109.512 211.291 109.896 211.291 110.376C211.291 110.856 211.443 111.216 211.747 111.456C212.067 111.696 212.475 111.816 212.971 111.816C213.163 111.816 213.355 111.8 213.547 111.768C213.739 111.72 213.915 111.672 214.075 111.624L214.387 113.88C214.083 113.992 213.723 114.08 213.307 114.144C212.891 114.208 212.459 114.24 212.011 114.24ZM217.133 120.264V118.128C217.133 117.728 216.957 117.528 216.605 117.528C216.525 117.528 216.445 117.536 216.365 117.552C216.285 117.568 216.205 117.592 216.125 117.624L215.957 115.896C216.181 115.816 216.493 115.736 216.893 115.656C217.277 115.576 217.669 115.536 218.069 115.536C218.853 115.536 219.405 115.688 219.725 115.992C220.045 116.312 220.205 116.744 220.205 117.288V120.264H217.133ZM217.235 99.024V93.576H220.547V99.024H217.235ZM232.739 114.24C231.603 114.24 230.683 114.024 229.979 113.592C229.291 113.16 228.803 112.608 228.515 111.936H228.323L227.939 114H225.203V100.848H228.803V107.136C228.803 108.048 228.907 108.8 229.115 109.392C229.323 109.968 229.627 110.4 230.027 110.688C230.427 110.976 230.907 111.12 231.467 111.12C232.139 111.12 232.651 110.92 233.003 110.52C233.355 110.12 233.531 109.48 233.531 108.6V100.848H237.131V109.392C237.131 110.432 236.963 111.312 236.627 112.032C236.307 112.752 235.819 113.304 235.163 113.688C234.507 114.056 233.699 114.24 232.739 114.24ZM241.438 114V100.848H244.99V105.768H245.086L249.166 100.848H253.126V100.968L244.99 109.992V114H241.438ZM249.478 114V109.656C249.478 108.808 249.23 108.2 248.734 107.832C248.254 107.448 247.55 107.256 246.622 107.256L248.734 104.76C249.694 104.76 250.494 104.952 251.134 105.336C251.774 105.72 252.254 106.24 252.574 106.896C252.91 107.536 253.078 108.272 253.078 109.104V114H249.478ZM261.36 114.24C260.384 114.24 259.56 114.056 258.888 113.688C258.232 113.304 257.728 112.736 257.376 111.984C257.04 111.232 256.872 110.312 256.872 109.224V100.848H260.472V108.6C260.472 109.48 260.648 110.12 261 110.52C261.352 110.92 261.864 111.12 262.536 111.12C263.384 111.12 264.04 110.8 264.504 110.16C264.968 109.504 265.2 108.496 265.2 107.136V100.848H268.8V114H266.064L265.68 111.984H265.464C265.192 112.624 264.72 113.16 264.048 113.592C263.392 114.024 262.496 114.24 261.36 114.24ZM266.027 99.024C265.275 99.024 264.683 98.912 264.251 98.688C263.819 98.464 263.515 98.184 263.339 97.848C263.147 97.496 263.051 97.128 263.051 96.744C263.051 96.472 263.091 96.184 263.171 95.88C263.251 95.56 263.371 95.264 263.531 94.992L266.147 95.328C266.115 95.44 266.091 95.56 266.075 95.688C266.043 95.8 266.027 95.904 266.027 96C266.027 96.224 266.099 96.4 266.243 96.528C266.371 96.64 266.595 96.696 266.915 96.696H272.075V99.024H266.027ZM276.083 114L272.267 100.848H275.891L278.795 111.096H278.939C279.195 111.096 279.435 111.024 279.659 110.88C279.883 110.736 280.075 110.544 280.235 110.304C280.555 109.856 280.795 109.328 280.955 108.72C281.115 108.096 281.195 107.48 281.195 106.872C281.195 105.8 280.987 104.976 280.571 104.4C280.171 103.824 279.611 103.536 278.891 103.536C278.747 103.536 278.611 103.544 278.483 103.56C278.371 103.576 278.267 103.608 278.171 103.656L277.499 100.896C277.867 100.784 278.211 100.72 278.531 100.704C278.867 100.672 279.139 100.656 279.347 100.656C280.195 100.656 280.931 100.768 281.555 100.992C282.179 101.216 282.715 101.552 283.163 102C283.723 102.544 284.139 103.224 284.411 104.04C284.699 104.856 284.843 105.776 284.843 106.8C284.843 108.096 284.635 109.232 284.219 110.208C283.819 111.168 283.331 111.928 282.755 112.488C282.275 112.952 281.667 113.32 280.931 113.592C280.211 113.864 279.219 114 277.955 114H276.083ZM295.746 114V105.456C295.746 104.688 295.538 104.136 295.122 103.8C294.706 103.464 294.066 103.296 293.202 103.296C292.37 103.296 291.554 103.424 290.754 103.68C289.97 103.92 289.29 104.208 288.714 104.544V101.568C289.178 101.344 289.834 101.12 290.682 100.896C291.53 100.656 292.506 100.536 293.61 100.536C294.458 100.536 295.218 100.64 295.89 100.848C296.578 101.056 297.074 101.464 297.378 102.072C298.05 102.28 298.53 102.688 298.818 103.296C299.122 103.888 299.274 104.656 299.274 105.6V114H295.746ZM291.81 114.24C290.434 114.24 289.37 113.912 288.618 113.256C287.882 112.6 287.514 111.68 287.514 110.496C287.514 109.216 287.97 108.192 288.882 107.424C289.81 106.656 291.266 106.192 293.25 106.032L296.322 105.792V108.384L293.658 108.648C292.698 108.744 292.026 108.936 291.642 109.224C291.274 109.512 291.09 109.896 291.09 110.376C291.09 110.856 291.242 111.216 291.546 111.456C291.866 111.696 292.274 111.816 292.77 111.816C292.962 111.816 293.154 111.8 293.346 111.768C293.538 111.72 293.714 111.672 293.874 111.624L294.186 113.88C293.882 113.992 293.522 114.08 293.106 114.144C292.69 114.208 292.258 114.24 291.81 114.24ZM297.306 103.464L295.338 101.808C295.898 101.616 296.338 101.376 296.658 101.088C296.978 100.784 297.146 100.416 297.162 99.984H300.306C300.306 100.48 300.202 100.96 299.994 101.424C299.802 101.872 299.482 102.272 299.034 102.624C298.602 102.976 298.026 103.256 297.306 103.464ZM289.036 99.024V97.512L291.46 96.504H300.028V99.024H289.036ZM294.076 97.56V94.848H296.356V97.56H294.076ZM297.772 97.56V94.848H300.028V97.56H297.772ZM309.368 114.312C307.416 114.312 305.968 113.84 305.024 112.896C304.08 111.936 303.608 110.52 303.608 108.648C303.608 108.328 303.616 107.944 303.632 107.496C303.664 107.032 303.704 106.624 303.752 106.272H309.512V108.552H307.136V108.888C307.136 109.528 307.216 110.056 307.376 110.472C307.536 110.872 307.776 111.168 308.096 111.36C308.432 111.552 308.848 111.648 309.344 111.648C309.888 111.648 310.344 111.528 310.712 111.288C311.096 111.048 311.384 110.64 311.576 110.064C311.784 109.488 311.888 108.696 311.888 107.688C311.888 106.744 311.776 105.96 311.552 105.336C311.344 104.696 310.984 104.216 310.472 103.896C309.976 103.576 309.288 103.416 308.408 103.416C307.928 103.416 307.432 103.472 306.92 103.584C306.408 103.68 305.92 103.808 305.456 103.968C305.008 104.128 304.616 104.304 304.28 104.496V101.496C304.632 101.304 305.064 101.136 305.576 100.992C306.104 100.848 306.672 100.736 307.28 100.656C307.888 100.576 308.488 100.536 309.08 100.536C310.632 100.536 311.88 100.824 312.824 101.4C313.784 101.96 314.48 102.76 314.912 103.8C315.36 104.84 315.584 106.072 315.584 107.496C315.584 108.952 315.368 110.192 314.936 111.216C314.52 112.224 313.856 112.992 312.944 113.52C312.032 114.048 310.84 114.312 309.368 114.312Z" fill="#252525"/>
<path d="M134.894 170V162.88C134.894 162.24 134.721 161.78 134.374 161.5C134.027 161.22 133.494 161.08 132.774 161.08C132.081 161.08 131.401 161.187 130.734 161.4C130.081 161.6 129.514 161.84 129.034 162.12V159.64C129.421 159.453 129.967 159.267 130.674 159.08C131.381 158.88 132.194 158.78 133.114 158.78C133.821 158.78 134.454 158.867 135.014 159.04C135.587 159.213 136.001 159.553 136.254 160.06C136.814 160.233 137.214 160.573 137.454 161.08C137.707 161.573 137.834 162.213 137.834 163V170H134.894ZM131.614 170.2C130.467 170.2 129.581 169.927 128.954 169.38C128.341 168.833 128.034 168.067 128.034 167.08C128.034 166.013 128.414 165.16 129.174 164.52C129.947 163.88 131.161 163.493 132.814 163.36L135.374 163.16V165.32L133.154 165.54C132.354 165.62 131.794 165.78 131.474 166.02C131.167 166.26 131.014 166.58 131.014 166.98C131.014 167.38 131.141 167.68 131.394 167.88C131.661 168.08 132.001 168.18 132.414 168.18C132.574 168.18 132.734 168.167 132.894 168.14C133.054 168.1 133.201 168.06 133.334 168.02L133.594 169.9C133.341 169.993 133.041 170.067 132.694 170.12C132.347 170.173 131.987 170.2 131.614 170.2ZM136.194 161.22L134.554 159.84C135.021 159.68 135.387 159.48 135.654 159.24C135.921 158.987 136.061 158.68 136.074 158.32H138.694C138.694 158.733 138.607 159.133 138.434 159.52C138.274 159.893 138.007 160.227 137.634 160.52C137.274 160.813 136.794 161.047 136.194 161.22ZM136.402 157.96C135.642 157.96 135.035 157.787 134.582 157.44C134.129 157.093 133.902 156.607 133.902 155.98C133.902 155.353 134.129 154.867 134.582 154.52C135.035 154.173 135.642 154 136.402 154C137.162 154 137.775 154.173 138.242 154.52C138.695 154.867 138.922 155.353 138.922 155.98C138.922 156.607 138.695 157.093 138.242 157.44C137.775 157.787 137.162 157.96 136.402 157.96ZM136.402 156.8C136.695 156.8 136.922 156.727 137.082 156.58C137.242 156.433 137.322 156.233 137.322 155.98C137.322 155.727 137.242 155.527 137.082 155.38C136.922 155.233 136.695 155.16 136.402 155.16C136.122 155.16 135.902 155.233 135.742 155.38C135.582 155.527 135.502 155.727 135.502 155.98C135.502 156.233 135.582 156.433 135.742 156.58C135.902 156.727 136.122 156.8 136.402 156.8ZM144.785 170V162.76C144.785 162.2 144.652 161.793 144.385 161.54C144.132 161.287 143.712 161.16 143.125 161.16C142.685 161.16 142.278 161.22 141.905 161.34C141.545 161.46 141.205 161.607 140.885 161.78V159.38C141.178 159.247 141.592 159.113 142.125 158.98C142.658 158.847 143.285 158.78 144.005 158.78C144.738 158.78 145.385 158.887 145.945 159.1C146.518 159.313 146.965 159.673 147.285 160.18C147.618 160.673 147.785 161.353 147.785 162.22V170H144.785ZM151.357 170V159.04H154.317V163.14H154.397L157.797 159.04H161.097V159.14L154.317 166.66V170H151.357ZM158.057 170V166.38C158.057 165.673 157.85 165.167 157.437 164.86C157.037 164.54 156.45 164.38 155.677 164.38L157.437 162.3C158.237 162.3 158.903 162.46 159.437 162.78C159.97 163.1 160.37 163.533 160.637 164.08C160.917 164.613 161.057 165.227 161.057 165.92V170H158.057ZM167.978 170.26C167.191 170.26 166.398 170.173 165.598 170C164.811 169.827 164.111 169.58 163.498 169.26L164.338 166.88C164.605 167.027 164.925 167.18 165.298 167.34C165.671 167.5 166.078 167.633 166.518 167.74C166.958 167.847 167.405 167.9 167.858 167.9C168.391 167.9 168.791 167.827 169.058 167.68C169.338 167.52 169.478 167.28 169.478 166.96C169.478 166.72 169.385 166.527 169.198 166.38C169.025 166.22 168.765 166.073 168.418 165.94C168.071 165.793 167.658 165.64 167.178 165.48C166.471 165.227 165.865 164.953 165.358 164.66C164.851 164.367 164.458 164.007 164.178 163.58C163.911 163.153 163.778 162.62 163.778 161.98C163.778 161.247 163.965 160.647 164.338 160.18C164.711 159.713 165.238 159.367 165.918 159.14C166.598 158.9 167.391 158.78 168.298 158.78C169.045 158.78 169.718 158.84 170.318 158.96C170.918 159.08 171.385 159.233 171.718 159.42V161.78C171.491 161.673 171.191 161.567 170.818 161.46C170.458 161.353 170.065 161.267 169.638 161.2C169.225 161.12 168.825 161.08 168.438 161.08C167.891 161.08 167.478 161.153 167.198 161.3C166.918 161.447 166.778 161.653 166.778 161.92C166.778 162.133 166.871 162.313 167.058 162.46C167.258 162.607 167.545 162.747 167.918 162.88C168.291 163 168.738 163.153 169.258 163.34C169.951 163.58 170.538 163.847 171.018 164.14C171.498 164.433 171.858 164.793 172.098 165.22C172.351 165.647 172.478 166.173 172.478 166.8C172.478 167.4 172.338 167.967 172.058 168.5C171.791 169.02 171.331 169.447 170.678 169.78C170.025 170.1 169.125 170.26 167.978 170.26ZM169.504 157.52C168.877 157.52 168.384 157.427 168.024 157.24C167.664 157.053 167.411 156.82 167.264 156.54C167.104 156.247 167.024 155.94 167.024 155.62C167.024 155.393 167.057 155.153 167.124 154.9C167.191 154.633 167.291 154.387 167.424 154.16L169.604 154.44C169.577 154.533 169.557 154.633 169.544 154.74C169.517 154.833 169.504 154.92 169.504 155C169.504 155.187 169.564 155.333 169.684 155.44C169.791 155.533 169.977 155.58 170.244 155.58H174.544V157.52H169.504ZM180.71 170.26C178.976 170.26 177.716 169.86 176.93 169.06C176.156 168.247 175.77 167.073 175.77 165.54V159.04H178.77V165.7C178.77 166.407 178.923 166.947 179.23 167.32C179.55 167.68 180.043 167.86 180.71 167.86C181.376 167.86 181.863 167.68 182.17 167.32C182.49 166.947 182.65 166.407 182.65 165.7V159.04H185.65V165.54C185.65 167.073 185.256 168.247 184.47 169.06C183.696 169.86 182.443 170.26 180.71 170.26ZM189.225 170V159.04H192.185V163.14H192.265L195.665 159.04H198.965V159.14L192.185 166.66V170H189.225ZM195.925 170V166.38C195.925 165.673 195.719 165.167 195.305 164.86C194.905 164.54 194.319 164.38 193.545 164.38L195.305 162.3C196.105 162.3 196.772 162.46 197.305 162.78C197.839 163.1 198.239 163.533 198.505 164.08C198.785 164.613 198.925 165.227 198.925 165.92V170H195.925ZM205.827 170.2C205.013 170.2 204.327 170.047 203.767 169.74C203.22 169.42 202.8 168.947 202.507 168.32C202.227 167.693 202.087 166.927 202.087 166.02V159.04H205.087V165.5C205.087 166.233 205.233 166.767 205.527 167.1C205.82 167.433 206.247 167.6 206.807 167.6C207.513 167.6 208.06 167.333 208.447 166.8C208.833 166.253 209.027 165.413 209.027 164.28V159.04H212.027V170H209.747L209.427 168.32H209.247C209.02 168.853 208.627 169.3 208.067 169.66C207.52 170.02 206.773 170.2 205.827 170.2ZM209.716 157.52C209.09 157.52 208.596 157.427 208.236 157.24C207.876 157.053 207.623 156.82 207.476 156.54C207.316 156.247 207.236 155.94 207.236 155.62C207.236 155.393 207.27 155.153 207.336 154.9C207.403 154.633 207.503 154.387 207.636 154.16L209.816 154.44C209.79 154.533 209.77 154.633 209.756 154.74C209.73 154.833 209.716 154.92 209.716 155C209.716 155.187 209.776 155.333 209.896 155.44C210.003 155.533 210.19 155.58 210.456 155.58H214.756V157.52H209.716ZM218.096 170L214.916 159.04H217.936L220.356 167.58H220.476C220.69 167.58 220.89 167.52 221.076 167.4C221.263 167.28 221.423 167.12 221.556 166.92C221.823 166.547 222.023 166.107 222.156 165.6C222.29 165.08 222.356 164.567 222.356 164.06C222.356 163.167 222.183 162.48 221.836 162C221.503 161.52 221.036 161.28 220.436 161.28C220.316 161.28 220.203 161.287 220.096 161.3C220.003 161.313 219.916 161.34 219.836 161.38L219.276 159.08C219.583 158.987 219.87 158.933 220.136 158.92C220.416 158.893 220.643 158.88 220.816 158.88C221.523 158.88 222.136 158.973 222.656 159.16C223.176 159.347 223.623 159.627 223.996 160C224.463 160.453 224.81 161.02 225.036 161.7C225.276 162.38 225.396 163.147 225.396 164C225.396 165.08 225.223 166.027 224.876 166.84C224.543 167.64 224.136 168.273 223.656 168.74C223.256 169.127 222.75 169.433 222.136 169.66C221.536 169.887 220.71 170 219.656 170H218.096ZM234.482 170V162.88C234.482 162.24 234.309 161.78 233.962 161.5C233.616 161.22 233.082 161.08 232.362 161.08C231.669 161.08 230.989 161.187 230.322 161.4C229.669 161.6 229.102 161.84 228.622 162.12V159.64C229.009 159.453 229.556 159.267 230.262 159.08C230.969 158.88 231.782 158.78 232.702 158.78C233.409 158.78 234.042 158.867 234.602 159.04C235.176 159.213 235.589 159.553 235.842 160.06C236.402 160.233 236.802 160.573 237.042 161.08C237.296 161.573 237.422 162.213 237.422 163V170H234.482ZM231.202 170.2C230.056 170.2 229.169 169.927 228.542 169.38C227.929 168.833 227.622 168.067 227.622 167.08C227.622 166.013 228.002 165.16 228.762 164.52C229.536 163.88 230.749 163.493 232.402 163.36L234.962 163.16V165.32L232.742 165.54C231.942 165.62 231.382 165.78 231.062 166.02C230.756 166.26 230.602 166.58 230.602 166.98C230.602 167.38 230.729 167.68 230.982 167.88C231.249 168.08 231.589 168.18 232.002 168.18C232.162 168.18 232.322 168.167 232.482 168.14C232.642 168.1 232.789 168.06 232.922 168.02L233.182 169.9C232.929 169.993 232.629 170.067 232.282 170.12C231.936 170.173 231.576 170.2 231.202 170.2ZM235.782 161.22L234.142 159.84C234.609 159.68 234.976 159.48 235.242 159.24C235.509 158.987 235.649 158.68 235.662 158.32H238.282C238.282 158.733 238.196 159.133 238.022 159.52C237.862 159.893 237.596 160.227 237.222 160.52C236.862 160.813 236.382 161.047 235.782 161.22ZM228.89 157.52V156.26L230.91 155.42H238.05V157.52H228.89ZM233.09 156.3V154.04H234.99V156.3H233.09ZM236.17 156.3V154.04H238.05V156.3H236.17ZM245.833 170.26C244.207 170.26 243 169.867 242.213 169.08C241.427 168.28 241.033 167.1 241.033 165.54C241.033 165.273 241.04 164.953 241.053 164.58C241.08 164.193 241.113 163.853 241.153 163.56H245.953V165.46H243.973V165.74C243.973 166.273 244.04 166.713 244.173 167.06C244.307 167.393 244.507 167.64 244.773 167.8C245.053 167.96 245.4 168.04 245.813 168.04C246.267 168.04 246.647 167.94 246.953 167.74C247.273 167.54 247.513 167.2 247.673 166.72C247.847 166.24 247.933 165.58 247.933 164.74C247.933 163.953 247.84 163.3 247.653 162.78C247.48 162.247 247.18 161.847 246.753 161.58C246.34 161.313 245.767 161.18 245.033 161.18C244.633 161.18 244.22 161.227 243.793 161.32C243.367 161.4 242.96 161.507 242.573 161.64C242.2 161.773 241.873 161.92 241.593 162.08V159.58C241.887 159.42 242.247 159.28 242.673 159.16C243.113 159.04 243.587 158.947 244.093 158.88C244.6 158.813 245.1 158.78 245.593 158.78C246.887 158.78 247.927 159.02 248.713 159.5C249.513 159.967 250.093 160.633 250.453 161.5C250.827 162.367 251.013 163.393 251.013 164.58C251.013 165.793 250.833 166.827 250.473 167.68C250.127 168.52 249.573 169.16 248.813 169.6C248.053 170.04 247.06 170.26 245.833 170.26ZM257.009 170.2C256.409 170.2 255.902 170.107 255.489 169.92C255.076 169.733 254.762 169.453 254.549 169.08C254.336 168.693 254.229 168.213 254.229 167.64V159.04H257.229V167.28C257.229 167.533 257.282 167.72 257.389 167.84C257.509 167.96 257.689 168.02 257.929 168.02C258.036 168.02 258.149 168.007 258.269 167.98C258.389 167.953 258.502 167.92 258.609 167.88L258.889 169.8C258.636 169.933 258.349 170.033 258.029 170.1C257.709 170.167 257.369 170.2 257.009 170.2ZM264.968 170.2C264.155 170.2 263.468 170.047 262.908 169.74C262.361 169.42 261.941 168.947 261.648 168.32C261.368 167.693 261.228 166.927 261.228 166.02V159.04H264.228V165.5C264.228 166.233 264.375 166.767 264.668 167.1C264.961 167.433 265.388 167.6 265.948 167.6C266.655 167.6 267.201 167.333 267.588 166.8C267.975 166.253 268.168 165.413 268.168 164.28V159.04H271.168V170H268.888L268.568 168.32H268.388C268.161 168.853 267.768 169.3 267.208 169.66C266.661 170.02 265.915 170.2 264.968 170.2ZM262.638 157.52V156.26L264.658 155.42H271.798V157.52H262.638ZM266.838 156.3V154.04H268.738V156.3H266.838ZM269.918 156.3V154.04H271.798V156.3H269.918ZM267.641 152.98V152.16C267.775 152.12 267.941 152.06 268.141 151.98C268.328 151.9 268.495 151.793 268.641 151.66C268.788 151.527 268.861 151.36 268.861 151.16C268.861 151.013 268.821 150.9 268.741 150.82C268.648 150.727 268.535 150.68 268.401 150.68C268.308 150.68 268.208 150.7 268.101 150.74C267.981 150.767 267.888 150.813 267.821 150.88L267.461 149.72C267.701 149.533 268.001 149.413 268.361 149.36C268.708 149.293 269.008 149.26 269.261 149.26C269.768 149.26 270.181 149.367 270.501 149.58C270.808 149.78 270.961 150.113 270.961 150.58C270.961 150.78 270.921 150.987 270.841 151.2C270.748 151.413 270.568 151.587 270.301 151.72L270.161 151.3H273.141V152.98H267.641ZM280.318 170.26C278.691 170.26 277.484 169.867 276.698 169.08C275.911 168.28 275.518 167.1 275.518 165.54C275.518 165.273 275.524 164.953 275.538 164.58C275.564 164.193 275.598 163.853 275.638 163.56H280.438V165.46H278.458V165.74C278.458 166.273 278.524 166.713 278.658 167.06C278.791 167.393 278.991 167.64 279.258 167.8C279.538 167.96 279.884 168.04 280.298 168.04C280.751 168.04 281.131 167.94 281.438 167.74C281.758 167.54 281.998 167.2 282.158 166.72C282.331 166.24 282.418 165.58 282.418 164.74C282.418 163.953 282.324 163.3 282.138 162.78C281.964 162.247 281.664 161.847 281.238 161.58C280.824 161.313 280.251 161.18 279.518 161.18C279.118 161.18 278.704 161.227 278.278 161.32C277.851 161.4 277.444 161.507 277.058 161.64C276.684 161.773 276.358 161.92 276.078 162.08V159.58C276.371 159.42 276.731 159.28 277.158 159.16C277.598 159.04 278.071 158.947 278.578 158.88C279.084 158.813 279.584 158.78 280.078 158.78C281.371 158.78 282.411 159.02 283.198 159.5C283.998 159.967 284.578 160.633 284.938 161.5C285.311 162.367 285.498 163.393 285.498 164.58C285.498 165.793 285.318 166.827 284.958 167.68C284.611 168.52 284.058 169.16 283.298 169.6C282.538 170.04 281.544 170.26 280.318 170.26ZM288.593 170V159.04H291.553V163.14H291.633L295.033 159.04H298.333V159.14L291.553 166.66V170H288.593ZM295.293 170V166.38C295.293 165.673 295.087 165.167 294.673 164.86C294.273 164.54 293.687 164.38 292.913 164.38L294.673 162.3C295.473 162.3 296.14 162.46 296.673 162.78C297.207 163.1 297.607 163.533 297.873 164.08C298.153 164.613 298.293 165.227 298.293 165.92V170H295.293ZM304.355 170V162.76C304.355 162.2 304.221 161.793 303.955 161.54C303.701 161.287 303.281 161.16 302.695 161.16C302.255 161.16 301.848 161.22 301.475 161.34C301.115 161.46 300.775 161.607 300.455 161.78V159.38C300.748 159.247 301.161 159.113 301.695 158.98C302.228 158.847 302.855 158.78 303.575 158.78C304.308 158.78 304.955 158.887 305.515 159.1C306.088 159.313 306.535 159.673 306.855 160.18C307.188 160.673 307.355 161.353 307.355 162.22V170H304.355Z" fill="#252525"/>
<path d="M115 276C115 270.477 119.477 266 125 266H198V349H115V276Z" fill="#FEB800"/>
<path d="M115 349H198V432H125C119.477 432 115 427.523 115 422V349Z" fill="#7EB900"/>
<path d="M198 266H271C276.523 266 281 270.477 281 276V349H198V266Z" fill="#00A3EE"/>
<path d="M198 349H281V422C281 427.523 276.523 432 271 432H198V349Z" fill="#F14F21"/>
<path d="M198 250V447" stroke="black" stroke-width="3" stroke-linecap="round"/>
<path d="M100 349H297" stroke="black" stroke-width="3" stroke-linecap="round"/>
<path d="M156.352 236V230.4C156.352 229.323 156.64 228.501 157.216 227.936C157.792 227.36 158.71 227.072 159.968 227.072C161.238 227.072 162.155 227.36 162.72 227.936C163.296 228.501 163.584 229.323 163.584 230.4V236H162.16V230.4C162.16 229.685 161.974 229.152 161.6 228.8C161.227 228.437 160.678 228.256 159.952 228.256C159.238 228.256 158.694 228.437 158.32 228.8C157.958 229.152 157.776 229.685 157.776 230.4V232.176L157.824 232.192C158.059 231.776 158.347 231.504 158.688 231.376C159.03 231.237 159.51 231.168 160.128 231.168H160.656V232.336H160.128C159.478 232.336 158.982 232.427 158.64 232.608C158.31 232.789 158.08 233.029 157.952 233.328C157.835 233.616 157.776 233.941 157.776 234.304V236H156.352ZM168.26 236.16C167.844 236.16 167.439 236.117 167.044 236.032C166.66 235.947 166.25 235.787 165.812 235.552L166.26 234.464C166.495 234.603 166.762 234.725 167.06 234.832C167.359 234.928 167.706 234.976 168.1 234.976C168.89 234.976 169.503 234.688 169.94 234.112C170.388 233.525 170.612 232.683 170.612 231.584C170.612 230.507 170.383 229.685 169.924 229.12C169.476 228.544 168.783 228.256 167.844 228.256C167.503 228.256 167.156 228.293 166.804 228.368C166.452 228.443 166.143 228.555 165.876 228.704V227.504C166.186 227.344 166.522 227.232 166.884 227.168C167.258 227.104 167.631 227.072 168.004 227.072C168.964 227.072 169.743 227.264 170.34 227.648C170.938 228.021 171.375 228.544 171.652 229.216C171.93 229.888 172.068 230.677 172.068 231.584C172.068 232.992 171.748 234.107 171.108 234.928C170.479 235.749 169.53 236.16 168.26 236.16ZM177.175 236V229.776C177.175 229.253 177.053 228.869 176.807 228.624C176.573 228.379 176.173 228.256 175.607 228.256C175.223 228.256 174.861 228.309 174.519 228.416C174.189 228.512 173.869 228.651 173.559 228.832V227.552C173.773 227.445 174.077 227.339 174.471 227.232C174.866 227.125 175.335 227.072 175.879 227.072C176.434 227.072 176.914 227.152 177.319 227.312C177.725 227.472 178.039 227.739 178.263 228.112C178.487 228.475 178.599 228.96 178.599 229.568V236H177.175ZM185.739 236.16C185.057 236.16 184.465 236.027 183.963 235.76C183.473 235.483 183.137 235.099 182.955 234.608H182.891L182.811 236H181.643V227.232H183.067V232.304C183.067 232.837 183.158 233.307 183.339 233.712C183.531 234.107 183.803 234.416 184.155 234.64C184.518 234.853 184.95 234.96 185.451 234.96C186.081 234.96 186.55 234.795 186.859 234.464C187.169 234.133 187.323 233.648 187.323 233.008V227.232H188.747V233.104C188.747 233.808 188.625 234.384 188.379 234.832C188.145 235.28 187.803 235.616 187.355 235.84C186.907 236.053 186.369 236.16 185.739 236.16ZM196.8 236V230.16C196.8 229.467 196.64 228.976 196.32 228.688C196.01 228.389 195.488 228.24 194.752 228.24C194.218 228.24 193.706 228.315 193.216 228.464C192.736 228.603 192.277 228.8 191.84 229.056V227.728C192.149 227.568 192.565 227.419 193.088 227.28C193.621 227.141 194.218 227.072 194.88 227.072C195.445 227.072 195.936 227.136 196.352 227.264C196.768 227.381 197.109 227.563 197.376 227.808C197.653 228.053 197.861 228.368 198 228.752C198.138 229.125 198.208 229.568 198.208 230.08V236H196.8ZM194.048 236.16C193.109 236.16 192.389 235.947 191.888 235.52C191.397 235.083 191.152 234.459 191.152 233.648C191.152 232.763 191.472 232.08 192.112 231.6C192.762 231.12 193.813 230.837 195.264 230.752L197.088 230.64V231.824L195.456 231.936C194.368 232.011 193.616 232.181 193.2 232.448C192.794 232.715 192.592 233.104 192.592 233.616C192.592 234.096 192.741 234.448 193.04 234.672C193.349 234.896 193.776 235.008 194.32 235.008C194.501 235.008 194.666 234.997 194.816 234.976C194.965 234.944 195.109 234.907 195.248 234.864L195.472 235.936C195.269 236.011 195.045 236.064 194.8 236.096C194.565 236.139 194.314 236.16 194.048 236.16ZM202.276 230.496C201.839 230.496 201.481 230.432 201.204 230.304C200.937 230.165 200.745 229.995 200.628 229.792C200.511 229.579 200.452 229.355 200.452 229.12C200.452 228.96 200.473 228.795 200.516 228.624C200.569 228.453 200.633 228.309 200.708 228.192L201.908 228.384C201.887 228.437 201.86 228.512 201.828 228.608C201.807 228.704 201.796 228.8 201.796 228.896C201.796 229.035 201.833 229.152 201.908 229.248C201.983 229.333 202.121 229.376 202.324 229.376H204.612V230.496H202.276ZM202.276 234.976C201.839 234.976 201.481 234.912 201.204 234.784C200.937 234.645 200.745 234.475 200.628 234.272C200.511 234.059 200.452 233.835 200.452 233.6C200.452 233.44 200.473 233.275 200.516 233.104C200.569 232.933 200.633 232.789 200.708 232.672L201.908 232.864C201.887 232.917 201.86 232.992 201.828 233.088C201.807 233.184 201.796 233.28 201.796 233.376C201.796 233.515 201.833 233.632 201.908 233.728C201.983 233.813 202.121 233.856 202.324 233.856H204.612V234.976H202.276ZM208.834 236.16C208.546 236.16 208.269 236.112 208.002 236.016C207.736 235.92 207.517 235.749 207.346 235.504C207.176 235.259 207.09 234.917 207.09 234.48V227.232H208.514V234.304C208.514 234.549 208.568 234.725 208.674 234.832C208.781 234.939 208.952 234.992 209.186 234.992C209.282 234.992 209.384 234.981 209.49 234.96C209.597 234.939 209.698 234.912 209.794 234.88L209.986 235.92C209.784 236.016 209.586 236.08 209.394 236.112C209.202 236.144 209.016 236.16 208.834 236.16ZM214.837 236.16C213.685 236.16 212.821 235.861 212.245 235.264C211.68 234.656 211.397 233.707 211.397 232.416C211.397 232.203 211.402 231.973 211.413 231.728C211.434 231.472 211.456 231.221 211.477 230.976H214.837V232.096H212.821V232.416C212.821 233.088 212.896 233.616 213.045 234C213.194 234.373 213.413 234.635 213.701 234.784C214 234.933 214.368 235.008 214.805 235.008C215.285 235.008 215.701 234.917 216.053 234.736C216.405 234.555 216.677 234.224 216.869 233.744C217.061 233.264 217.157 232.576 217.157 231.68C217.157 230.891 217.072 230.245 216.901 229.744C216.73 229.243 216.448 228.869 216.053 228.624C215.669 228.379 215.146 228.256 214.485 228.256C214.144 228.256 213.813 228.288 213.493 228.352C213.173 228.405 212.864 228.491 212.565 228.608C212.266 228.715 211.973 228.853 211.685 229.024V227.696C211.898 227.579 212.16 227.477 212.469 227.392C212.778 227.296 213.12 227.221 213.493 227.168C213.866 227.104 214.256 227.072 214.661 227.072C215.6 227.072 216.357 227.264 216.933 227.648C217.52 228.021 217.946 228.555 218.213 229.248C218.48 229.931 218.613 230.741 218.613 231.68C218.613 232.619 218.49 233.424 218.245 234.096C218 234.768 217.6 235.28 217.045 235.632C216.501 235.984 215.765 236.16 214.837 236.16ZM211.564 225.84V225.216L212.732 224.704H218.364V225.84H211.564ZM217.036 225.216V223.408H218.38V225.216H217.036ZM224.936 236.144C224.072 236.144 223.379 236.032 222.856 235.808C222.344 235.584 221.971 235.269 221.736 234.864C221.512 234.459 221.4 233.979 221.4 233.424C221.4 232.933 221.47 232.544 221.608 232.256C221.758 231.957 221.939 231.739 222.152 231.6C222.376 231.461 222.606 231.371 222.84 231.328V231.264C222.627 231.2 222.403 231.093 222.168 230.944C221.934 230.795 221.736 230.587 221.576 230.32C221.427 230.053 221.352 229.717 221.352 229.312C221.352 228.939 221.438 228.587 221.608 228.256C221.779 227.925 222.056 227.653 222.44 227.44C222.824 227.227 223.331 227.12 223.96 227.12C224.216 227.12 224.483 227.141 224.76 227.184C225.038 227.216 225.251 227.275 225.4 227.36L225.144 228.464C225.027 228.421 224.872 228.384 224.68 228.352C224.499 228.309 224.307 228.288 224.104 228.288C223.656 228.288 223.326 228.395 223.112 228.608C222.899 228.811 222.792 229.083 222.792 229.424C222.792 229.797 222.883 230.08 223.064 230.272C223.256 230.464 223.496 230.597 223.784 230.672C224.083 230.736 224.392 230.768 224.712 230.768H225.016V231.808H224.712C224.072 231.808 223.598 231.925 223.288 232.16C222.99 232.384 222.84 232.763 222.84 233.296C222.84 233.605 222.899 233.888 223.016 234.144C223.144 234.4 223.358 234.603 223.656 234.752C223.966 234.901 224.392 234.976 224.936 234.976C225.48 234.976 225.902 234.901 226.2 234.752C226.51 234.603 226.728 234.389 226.856 234.112C226.984 233.824 227.048 233.483 227.048 233.088V227.232H228.472V232.992C228.472 234.112 228.184 234.917 227.608 235.408C227.043 235.899 226.152 236.144 224.936 236.144ZM234.372 236.16C233.519 236.16 232.847 235.963 232.356 235.568C231.876 235.163 231.535 234.619 231.332 233.936C231.14 233.253 231.044 232.501 231.044 231.68C231.044 230.773 231.135 230.027 231.316 229.44C231.508 228.843 231.775 228.373 232.116 228.032C232.468 227.68 232.884 227.435 233.364 227.296C233.855 227.147 234.394 227.072 234.98 227.072C235.834 227.072 236.527 227.2 237.06 227.456C237.604 227.701 238.004 228.053 238.26 228.512C238.516 228.971 238.644 229.52 238.644 230.16V236H237.236V230.288C237.236 229.627 237.071 229.125 236.74 228.784C236.41 228.432 235.839 228.256 235.028 228.256C234.538 228.256 234.095 228.347 233.7 228.528C233.316 228.709 233.012 229.045 232.788 229.536C232.575 230.027 232.468 230.747 232.468 231.696C232.468 232.315 232.527 232.875 232.644 233.376C232.772 233.867 232.991 234.256 233.3 234.544C233.61 234.832 234.042 234.976 234.596 234.976C234.756 234.976 234.906 234.965 235.044 234.944C235.183 234.923 235.316 234.891 235.444 234.848L235.588 235.952C235.418 236.027 235.22 236.08 234.996 236.112C234.783 236.144 234.575 236.16 234.372 236.16Z" fill="#252525"/>
<path d="M313.296 354V348.4C313.296 347.323 313.584 346.501 314.16 345.936C314.736 345.36 315.653 345.072 316.912 345.072C318.181 345.072 319.099 345.36 319.664 345.936C320.24 346.501 320.528 347.323 320.528 348.4V354H319.104V348.4C319.104 347.685 318.917 347.152 318.544 346.8C318.171 346.437 317.621 346.256 316.896 346.256C316.181 346.256 315.637 346.437 315.264 346.8C314.901 347.152 314.72 347.685 314.72 348.4V350.176L314.768 350.192C315.003 349.776 315.291 349.504 315.632 349.376C315.973 349.237 316.453 349.168 317.072 349.168H317.6V350.336H317.072C316.421 350.336 315.925 350.427 315.584 350.608C315.253 350.789 315.024 351.029 314.896 351.328C314.779 351.616 314.72 351.941 314.72 352.304V354H313.296ZM325.204 354.16C324.788 354.16 324.383 354.117 323.988 354.032C323.604 353.947 323.193 353.787 322.756 353.552L323.204 352.464C323.439 352.603 323.705 352.725 324.004 352.832C324.303 352.928 324.649 352.976 325.044 352.976C325.833 352.976 326.447 352.688 326.884 352.112C327.332 351.525 327.556 350.683 327.556 349.584C327.556 348.507 327.327 347.685 326.868 347.12C326.42 346.544 325.727 346.256 324.788 346.256C324.447 346.256 324.1 346.293 323.748 346.368C323.396 346.443 323.087 346.555 322.82 346.704V345.504C323.129 345.344 323.465 345.232 323.828 345.168C324.201 345.104 324.575 345.072 324.948 345.072C325.908 345.072 326.687 345.264 327.284 345.648C327.881 346.021 328.319 346.544 328.596 347.216C328.873 347.888 329.012 348.677 329.012 349.584C329.012 350.992 328.692 352.107 328.052 352.928C327.423 353.749 326.473 354.16 325.204 354.16ZM334.119 354V347.776C334.119 347.253 333.996 346.869 333.751 346.624C333.516 346.379 333.116 346.256 332.551 346.256C332.167 346.256 331.804 346.309 331.463 346.416C331.132 346.512 330.812 346.651 330.503 346.832V345.552C330.716 345.445 331.02 345.339 331.415 345.232C331.81 345.125 332.279 345.072 332.823 345.072C333.378 345.072 333.858 345.152 334.263 345.312C334.668 345.472 334.983 345.739 335.207 346.112C335.431 346.475 335.543 346.96 335.543 347.568V354H334.119ZM342.683 354.16C342 354.16 341.408 354.027 340.907 353.76C340.416 353.483 340.08 353.099 339.899 352.608H339.835L339.755 354H338.587V345.232H340.011V350.304C340.011 350.837 340.102 351.307 340.283 351.712C340.475 352.107 340.747 352.416 341.099 352.64C341.462 352.853 341.894 352.96 342.395 352.96C343.024 352.96 343.494 352.795 343.803 352.464C344.112 352.133 344.267 351.648 344.267 351.008V345.232H345.691V351.104C345.691 351.808 345.568 352.384 345.323 352.832C345.088 353.28 344.747 353.616 344.299 353.84C343.851 354.053 343.312 354.16 342.683 354.16ZM348.607 354V348.4C348.607 347.323 348.895 346.501 349.471 345.936C350.047 345.36 350.965 345.072 352.223 345.072C353.493 345.072 354.41 345.36 354.975 345.936C355.551 346.501 355.839 347.323 355.839 348.4V354H354.415V348.4C354.415 347.685 354.229 347.152 353.855 346.8C353.482 346.437 352.933 346.256 352.207 346.256C351.493 346.256 350.949 346.437 350.575 346.8C350.213 347.152 350.031 347.685 350.031 348.4V350.176L350.079 350.192C350.314 349.776 350.602 349.504 350.943 349.376C351.285 349.237 351.765 349.168 352.383 349.168H352.911V350.336H352.383C351.733 350.336 351.237 350.427 350.895 350.608C350.565 350.789 350.335 351.029 350.207 351.328C350.09 351.616 350.031 351.941 350.031 352.304V354H348.607ZM361.219 354.16C360.59 354.16 360.003 354.101 359.459 353.984C358.926 353.856 358.473 353.707 358.099 353.536L358.515 352.384C358.739 352.469 358.995 352.56 359.283 352.656C359.571 352.752 359.881 352.832 360.211 352.896C360.553 352.949 360.899 352.976 361.251 352.976C361.817 352.976 362.286 352.869 362.659 352.656C363.033 352.443 363.219 352.133 363.219 351.728C363.219 351.483 363.15 351.275 363.011 351.104C362.883 350.923 362.681 350.757 362.403 350.608C362.126 350.459 361.769 350.315 361.331 350.176C360.659 349.963 360.089 349.739 359.619 349.504C359.161 349.259 358.809 348.971 358.563 348.64C358.329 348.299 358.211 347.877 358.211 347.376C358.211 346.928 358.329 346.533 358.563 346.192C358.809 345.84 359.182 345.568 359.683 345.376C360.195 345.173 360.846 345.072 361.635 345.072C362.147 345.072 362.627 345.12 363.075 345.216C363.534 345.301 363.891 345.424 364.147 345.584V346.784C363.966 346.699 363.737 346.613 363.459 346.528C363.193 346.443 362.899 346.373 362.579 346.32C362.259 346.267 361.929 346.24 361.587 346.24C360.873 346.24 360.366 346.352 360.067 346.576C359.779 346.789 359.635 347.035 359.635 347.312C359.635 347.547 359.699 347.744 359.827 347.904C359.966 348.064 360.195 348.219 360.515 348.368C360.846 348.517 361.289 348.688 361.843 348.88C362.355 349.051 362.825 349.248 363.251 349.472C363.678 349.696 364.014 349.979 364.259 350.32C364.515 350.651 364.643 351.077 364.643 351.6C364.643 352.048 364.531 352.469 364.307 352.864C364.094 353.248 363.737 353.563 363.235 353.808C362.734 354.043 362.062 354.16 361.219 354.16ZM370.408 354.16C369.149 354.16 368.248 353.872 367.704 353.296C367.16 352.72 366.888 351.899 366.888 350.832V345.232H368.312V350.848C368.312 351.563 368.483 352.096 368.824 352.448C369.165 352.8 369.693 352.976 370.408 352.976C371.133 352.976 371.667 352.8 372.008 352.448C372.36 352.096 372.536 351.563 372.536 350.848V345.232H373.96V350.832C373.96 351.899 373.683 352.72 373.128 353.296C372.584 353.872 371.677 354.16 370.408 354.16Z" fill="#252525"/>
<defs>
<filter id="filter0_d_906_3185" x="0" y="0" width="437" height="599" filterUnits="userSpaceOnUse" color-interpolation-filters="sRGB">
<feFlood flood-opacity="0" result="BackgroundImageFix"/>
<feColorMatrix in="SourceAlpha" type="matrix" values="0 0 0 0 0 0 0 0 0 0 0 0 0 0 0 0 0 0 127 0" result="hardAlpha"/>
<feOffset dy="4"/>
<feGaussianBlur stdDeviation="10"/>
<feComposite in2="hardAlpha" operator="out"/>
<feColorMatrix type="matrix" values="0 0 0 0 0 0 0 0 0 0 0 0 0 0 0 0 0 0 0.25 0"/>
<feBlend mode="normal" in2="BackgroundImageFix" result="effect1_dropShadow_906_3185"/>
<feBlend mode="normal" in="SourceGraphic" in2="effect1_dropShadow_906_3185" result="shape"/>
</filter>
</defs>
</svg>
