<svg width="437" height="599" viewBox="0 0 437 599" fill="none" xmlns="http://www.w3.org/2000/svg">
<g filter="url(#filter0_d_906_3701)">
<rect x="20" y="16" width="397" height="559" rx="55" fill="#FBFBFB"/>
</g>
<path d="M121.877 112V107.992C121.877 106.984 122.077 106.208 122.477 105.664C122.877 105.12 123.445 104.736 124.181 104.512L124.205 104.416L121.637 103.48V102.856C121.637 102.072 121.869 101.352 122.333 100.696C122.797 100.04 123.477 99.52 124.373 99.136C125.285 98.736 126.389 98.536 127.685 98.536C128.901 98.536 129.949 98.728 130.829 99.112C131.709 99.48 132.389 100.04 132.869 100.792C133.365 101.528 133.613 102.464 133.613 103.6V112H130.013V103.816C130.013 103.016 129.797 102.416 129.365 102.016C128.949 101.616 128.357 101.416 127.589 101.416C126.853 101.416 126.301 101.576 125.933 101.896C125.565 102.2 125.365 102.576 125.333 103.024L127.469 104.008L127.205 105.568C126.629 105.6 126.197 105.808 125.909 106.192C125.621 106.576 125.477 107.096 125.477 107.752V112H121.877ZM141.174 112V103.312C141.174 102.64 141.014 102.152 140.694 101.848C140.39 101.544 139.886 101.392 139.182 101.392C138.654 101.392 138.166 101.464 137.718 101.608C137.286 101.752 136.878 101.928 136.494 102.136V99.256C136.846 99.096 137.342 98.936 137.982 98.776C138.622 98.616 139.374 98.536 140.238 98.536C141.118 98.536 141.894 98.664 142.566 98.92C143.254 99.176 143.79 99.608 144.174 100.216C144.574 100.808 144.774 101.624 144.774 102.664V112H141.174ZM153.356 112.312C152.412 112.312 151.46 112.208 150.5 112C149.556 111.792 148.716 111.496 147.98 111.112L148.988 108.256C149.308 108.432 149.692 108.616 150.14 108.808C150.588 109 151.076 109.16 151.604 109.288C152.132 109.416 152.668 109.48 153.212 109.48C153.852 109.48 154.332 109.392 154.652 109.216C154.988 109.024 155.156 108.736 155.156 108.352C155.156 108.064 155.044 107.832 154.82 107.656C154.612 107.464 154.3 107.288 153.884 107.128C153.468 106.952 152.972 106.768 152.396 106.576C151.548 106.272 150.82 105.944 150.212 105.592C149.604 105.24 149.132 104.808 148.796 104.296C148.476 103.784 148.316 103.144 148.316 102.376C148.316 101.496 148.54 100.776 148.988 100.216C149.436 99.656 150.068 99.24 150.884 98.968C151.7 98.68 152.652 98.536 153.74 98.536C154.636 98.536 155.444 98.608 156.164 98.752C156.884 98.896 157.444 99.08 157.844 99.304V102.136C157.572 102.008 157.212 101.88 156.764 101.752C156.332 101.624 155.86 101.52 155.348 101.44C154.852 101.344 154.372 101.296 153.908 101.296C153.252 101.296 152.756 101.384 152.42 101.56C152.084 101.736 151.916 101.984 151.916 102.304C151.916 102.56 152.028 102.776 152.252 102.952C152.492 103.128 152.836 103.296 153.284 103.456C153.732 103.6 154.268 103.784 154.892 104.008C155.724 104.296 156.428 104.616 157.004 104.968C157.58 105.32 158.012 105.752 158.3 106.264C158.604 106.776 158.756 107.408 158.756 108.16C158.756 108.88 158.588 109.56 158.252 110.2C157.932 110.824 157.38 111.336 156.596 111.736C155.812 112.12 154.732 112.312 153.356 112.312ZM163.066 112V106.48H161.698V104.272H166.306V109.264H166.474C167.002 109.264 167.45 109.12 167.818 108.832C168.202 108.544 168.49 108.12 168.682 107.56C168.874 106.984 168.97 106.264 168.97 105.4C168.97 104.408 168.826 103.624 168.538 103.048C168.266 102.456 167.858 102.032 167.314 101.776C166.77 101.52 166.098 101.392 165.298 101.392C164.466 101.392 163.714 101.512 163.042 101.752C162.37 101.976 161.77 102.248 161.242 102.568V99.568C161.77 99.296 162.434 99.056 163.234 98.848C164.034 98.64 164.954 98.536 165.994 98.536C167.546 98.536 168.802 98.784 169.762 99.28C170.738 99.776 171.458 100.528 171.922 101.536C172.386 102.544 172.618 103.808 172.618 105.328C172.618 106.752 172.402 107.968 171.97 108.976C171.554 109.968 170.866 110.72 169.906 111.232C168.962 111.744 167.698 112 166.114 112H163.066ZM169.196 97.024C168.444 97.024 167.852 96.912 167.42 96.688C166.988 96.464 166.684 96.184 166.508 95.848C166.316 95.496 166.22 95.128 166.22 94.744C166.22 94.472 166.26 94.184 166.34 93.88C166.42 93.56 166.54 93.264 166.7 92.992L169.316 93.328C169.284 93.44 169.26 93.56 169.244 93.688C169.212 93.8 169.196 93.904 169.196 94C169.196 94.224 169.268 94.4 169.412 94.528C169.54 94.64 169.764 94.696 170.084 94.696H175.244V97.024H169.196ZM181.56 112.24C180.264 112.24 179.232 111.96 178.464 111.4C177.696 110.824 177.144 110.04 176.808 109.048C176.472 108.04 176.304 106.888 176.304 105.592C176.304 104.2 176.456 103.048 176.76 102.136C177.08 101.208 177.528 100.488 178.104 99.976C178.68 99.448 179.36 99.08 180.144 98.872C180.944 98.648 181.816 98.536 182.76 98.536C184.2 98.536 185.352 98.736 186.216 99.136C187.08 99.536 187.704 100.104 188.088 100.84C188.488 101.576 188.688 102.44 188.688 103.432V112H185.088V103.72C185.088 102.968 184.904 102.4 184.536 102.016C184.184 101.616 183.592 101.416 182.76 101.416C182.2 101.416 181.704 101.536 181.272 101.776C180.856 102 180.528 102.408 180.288 103C180.064 103.592 179.952 104.44 179.952 105.544C179.952 106.296 180.024 106.96 180.168 107.536C180.312 108.112 180.544 108.56 180.864 108.88C181.2 109.2 181.648 109.36 182.208 109.36C182.384 109.36 182.552 109.352 182.712 109.336C182.888 109.304 183.04 109.272 183.168 109.24L183.504 111.928C183.248 112.04 182.936 112.12 182.568 112.168C182.216 112.216 181.88 112.24 181.56 112.24ZM192.643 112V107.992C192.643 106.984 192.843 106.208 193.243 105.664C193.643 105.12 194.211 104.736 194.947 104.512L194.971 104.416L192.403 103.48V102.856C192.403 102.072 192.635 101.352 193.099 100.696C193.563 100.04 194.243 99.52 195.139 99.136C196.051 98.736 197.155 98.536 198.451 98.536C199.667 98.536 200.715 98.728 201.595 99.112C202.475 99.48 203.155 100.04 203.635 100.792C204.131 101.528 204.379 102.464 204.379 103.6V112H200.779V103.816C200.779 103.016 200.563 102.416 200.131 102.016C199.715 101.616 199.123 101.416 198.355 101.416C197.619 101.416 197.067 101.576 196.699 101.896C196.331 102.2 196.131 102.576 196.099 103.024L198.235 104.008L197.971 105.568C197.395 105.6 196.963 105.808 196.675 106.192C196.387 106.576 196.243 107.096 196.243 107.752V112H192.643ZM215.947 112V103.456C215.947 102.688 215.739 102.136 215.323 101.8C214.907 101.464 214.267 101.296 213.403 101.296C212.571 101.296 211.755 101.424 210.955 101.68C210.171 101.92 209.491 102.208 208.915 102.544V99.568C209.379 99.344 210.035 99.12 210.883 98.896C211.731 98.656 212.715 98.536 213.835 98.536C214.651 98.536 215.395 98.624 216.067 98.8C216.755 98.96 217.355 99.24 217.867 99.64C218.379 100.024 218.771 100.544 219.043 101.2C219.331 101.84 219.475 102.64 219.475 103.6V112H215.947ZM212.011 112.24C210.635 112.24 209.571 111.912 208.819 111.256C208.083 110.6 207.715 109.68 207.715 108.496C207.715 107.216 208.171 106.192 209.083 105.424C210.011 104.656 211.467 104.192 213.451 104.032L216.523 103.792V106.384L213.859 106.648C212.899 106.744 212.227 106.936 211.843 107.224C211.475 107.512 211.291 107.896 211.291 108.376C211.291 108.856 211.443 109.216 211.747 109.456C212.067 109.696 212.475 109.816 212.971 109.816C213.163 109.816 213.355 109.8 213.547 109.768C213.739 109.72 213.915 109.672 214.075 109.624L214.387 111.88C214.083 111.992 213.723 112.08 213.307 112.144C212.891 112.208 212.459 112.24 212.011 112.24ZM217.133 118.264V116.128C217.133 115.728 216.957 115.528 216.605 115.528C216.525 115.528 216.445 115.536 216.365 115.552C216.285 115.568 216.205 115.592 216.125 115.624L215.957 113.896C216.181 113.816 216.493 113.736 216.893 113.656C217.277 113.576 217.669 113.536 218.069 113.536C218.853 113.536 219.405 113.688 219.725 113.992C220.045 114.312 220.205 114.744 220.205 115.288V118.264H217.133ZM217.235 97.024V91.576H220.547V97.024H217.235ZM232.739 112.24C231.603 112.24 230.683 112.024 229.979 111.592C229.291 111.16 228.803 110.608 228.515 109.936H228.323L227.939 112H225.203V98.848H228.803V105.136C228.803 106.048 228.907 106.8 229.115 107.392C229.323 107.968 229.627 108.4 230.027 108.688C230.427 108.976 230.907 109.12 231.467 109.12C232.139 109.12 232.651 108.92 233.003 108.52C233.355 108.12 233.531 107.48 233.531 106.6V98.848H237.131V107.392C237.131 108.432 236.963 109.312 236.627 110.032C236.307 110.752 235.819 111.304 235.163 111.688C234.507 112.056 233.699 112.24 232.739 112.24ZM241.438 112V98.848H244.99V103.768H245.086L249.166 98.848H253.126V98.968L244.99 107.992V112H241.438ZM249.478 112V107.656C249.478 106.808 249.23 106.2 248.734 105.832C248.254 105.448 247.55 105.256 246.622 105.256L248.734 102.76C249.694 102.76 250.494 102.952 251.134 103.336C251.774 103.72 252.254 104.24 252.574 104.896C252.91 105.536 253.078 106.272 253.078 107.104V112H249.478ZM261.36 112.24C260.384 112.24 259.56 112.056 258.888 111.688C258.232 111.304 257.728 110.736 257.376 109.984C257.04 109.232 256.872 108.312 256.872 107.224V98.848H260.472V106.6C260.472 107.48 260.648 108.12 261 108.52C261.352 108.92 261.864 109.12 262.536 109.12C263.384 109.12 264.04 108.8 264.504 108.16C264.968 107.504 265.2 106.496 265.2 105.136V98.848H268.8V112H266.064L265.68 109.984H265.464C265.192 110.624 264.72 111.16 264.048 111.592C263.392 112.024 262.496 112.24 261.36 112.24ZM266.027 97.024C265.275 97.024 264.683 96.912 264.251 96.688C263.819 96.464 263.515 96.184 263.339 95.848C263.147 95.496 263.051 95.128 263.051 94.744C263.051 94.472 263.091 94.184 263.171 93.88C263.251 93.56 263.371 93.264 263.531 92.992L266.147 93.328C266.115 93.44 266.091 93.56 266.075 93.688C266.043 93.8 266.027 93.904 266.027 94C266.027 94.224 266.099 94.4 266.243 94.528C266.371 94.64 266.595 94.696 266.915 94.696H272.075V97.024H266.027ZM276.083 112L272.267 98.848H275.891L278.795 109.096H278.939C279.195 109.096 279.435 109.024 279.659 108.88C279.883 108.736 280.075 108.544 280.235 108.304C280.555 107.856 280.795 107.328 280.955 106.72C281.115 106.096 281.195 105.48 281.195 104.872C281.195 103.8 280.987 102.976 280.571 102.4C280.171 101.824 279.611 101.536 278.891 101.536C278.747 101.536 278.611 101.544 278.483 101.56C278.371 101.576 278.267 101.608 278.171 101.656L277.499 98.896C277.867 98.784 278.211 98.72 278.531 98.704C278.867 98.672 279.139 98.656 279.347 98.656C280.195 98.656 280.931 98.768 281.555 98.992C282.179 99.216 282.715 99.552 283.163 100C283.723 100.544 284.139 101.224 284.411 102.04C284.699 102.856 284.843 103.776 284.843 104.8C284.843 106.096 284.635 107.232 284.219 108.208C283.819 109.168 283.331 109.928 282.755 110.488C282.275 110.952 281.667 111.32 280.931 111.592C280.211 111.864 279.219 112 277.955 112H276.083ZM295.746 112V103.456C295.746 102.688 295.538 102.136 295.122 101.8C294.706 101.464 294.066 101.296 293.202 101.296C292.37 101.296 291.554 101.424 290.754 101.68C289.97 101.92 289.29 102.208 288.714 102.544V99.568C289.178 99.344 289.834 99.12 290.682 98.896C291.53 98.656 292.506 98.536 293.61 98.536C294.458 98.536 295.218 98.64 295.89 98.848C296.578 99.056 297.074 99.464 297.378 100.072C298.05 100.28 298.53 100.688 298.818 101.296C299.122 101.888 299.274 102.656 299.274 103.6V112H295.746ZM291.81 112.24C290.434 112.24 289.37 111.912 288.618 111.256C287.882 110.6 287.514 109.68 287.514 108.496C287.514 107.216 287.97 106.192 288.882 105.424C289.81 104.656 291.266 104.192 293.25 104.032L296.322 103.792V106.384L293.658 106.648C292.698 106.744 292.026 106.936 291.642 107.224C291.274 107.512 291.09 107.896 291.09 108.376C291.09 108.856 291.242 109.216 291.546 109.456C291.866 109.696 292.274 109.816 292.77 109.816C292.962 109.816 293.154 109.8 293.346 109.768C293.538 109.72 293.714 109.672 293.874 109.624L294.186 111.88C293.882 111.992 293.522 112.08 293.106 112.144C292.69 112.208 292.258 112.24 291.81 112.24ZM297.306 101.464L295.338 99.808C295.898 99.616 296.338 99.376 296.658 99.088C296.978 98.784 297.146 98.416 297.162 97.984H300.306C300.306 98.48 300.202 98.96 299.994 99.424C299.802 99.872 299.482 100.272 299.034 100.624C298.602 100.976 298.026 101.256 297.306 101.464ZM289.036 97.024V95.512L291.46 94.504H300.028V97.024H289.036ZM294.076 95.56V92.848H296.356V95.56H294.076ZM297.772 95.56V92.848H300.028V95.56H297.772ZM309.368 112.312C307.416 112.312 305.968 111.84 305.024 110.896C304.08 109.936 303.608 108.52 303.608 106.648C303.608 106.328 303.616 105.944 303.632 105.496C303.664 105.032 303.704 104.624 303.752 104.272H309.512V106.552H307.136V106.888C307.136 107.528 307.216 108.056 307.376 108.472C307.536 108.872 307.776 109.168 308.096 109.36C308.432 109.552 308.848 109.648 309.344 109.648C309.888 109.648 310.344 109.528 310.712 109.288C311.096 109.048 311.384 108.64 311.576 108.064C311.784 107.488 311.888 106.696 311.888 105.688C311.888 104.744 311.776 103.96 311.552 103.336C311.344 102.696 310.984 102.216 310.472 101.896C309.976 101.576 309.288 101.416 308.408 101.416C307.928 101.416 307.432 101.472 306.92 101.584C306.408 101.68 305.92 101.808 305.456 101.968C305.008 102.128 304.616 102.304 304.28 102.496V99.496C304.632 99.304 305.064 99.136 305.576 98.992C306.104 98.848 306.672 98.736 307.28 98.656C307.888 98.576 308.488 98.536 309.08 98.536C310.632 98.536 311.88 98.824 312.824 99.4C313.784 99.96 314.48 100.76 314.912 101.8C315.36 102.84 315.584 104.072 315.584 105.496C315.584 106.952 315.368 108.192 314.936 109.216C314.52 110.224 313.856 110.992 312.944 111.52C312.032 112.048 310.84 112.312 309.368 112.312Z" fill="#252525"/>
<path d="M140.642 170V162.88C140.642 162.24 140.469 161.78 140.122 161.5C139.776 161.22 139.242 161.08 138.522 161.08C137.829 161.08 137.149 161.187 136.482 161.4C135.829 161.6 135.262 161.84 134.782 162.12V159.64C135.169 159.453 135.716 159.267 136.422 159.08C137.129 158.88 137.942 158.78 138.862 158.78C139.569 158.78 140.202 158.867 140.762 159.04C141.336 159.213 141.749 159.553 142.002 160.06C142.562 160.233 142.962 160.573 143.202 161.08C143.456 161.573 143.582 162.213 143.582 163V170H140.642ZM137.362 170.2C136.216 170.2 135.329 169.927 134.702 169.38C134.089 168.833 133.782 168.067 133.782 167.08C133.782 166.013 134.162 165.16 134.922 164.52C135.696 163.88 136.909 163.493 138.562 163.36L141.122 163.16V165.32L138.902 165.54C138.102 165.62 137.542 165.78 137.222 166.02C136.916 166.26 136.762 166.58 136.762 166.98C136.762 167.38 136.889 167.68 137.142 167.88C137.409 168.08 137.749 168.18 138.162 168.18C138.322 168.18 138.482 168.167 138.642 168.14C138.802 168.1 138.949 168.06 139.082 168.02L139.342 169.9C139.089 169.993 138.789 170.067 138.442 170.12C138.096 170.173 137.736 170.2 137.362 170.2ZM141.942 161.22L140.302 159.84C140.769 159.68 141.136 159.48 141.402 159.24C141.669 158.987 141.809 158.68 141.822 158.32H144.442C144.442 158.733 144.356 159.133 144.182 159.52C144.022 159.893 143.756 160.227 143.382 160.52C143.022 160.813 142.542 161.047 141.942 161.22ZM142.15 157.96C141.39 157.96 140.784 157.787 140.33 157.44C139.877 157.093 139.65 156.607 139.65 155.98C139.65 155.353 139.877 154.867 140.33 154.52C140.784 154.173 141.39 154 142.15 154C142.91 154 143.524 154.173 143.99 154.52C144.444 154.867 144.67 155.353 144.67 155.98C144.67 156.607 144.444 157.093 143.99 157.44C143.524 157.787 142.91 157.96 142.15 157.96ZM142.15 156.8C142.444 156.8 142.67 156.727 142.83 156.58C142.99 156.433 143.07 156.233 143.07 155.98C143.07 155.727 142.99 155.527 142.83 155.38C142.67 155.233 142.444 155.16 142.15 155.16C141.87 155.16 141.65 155.233 141.49 155.38C141.33 155.527 141.25 155.727 141.25 155.98C141.25 156.233 141.33 156.433 141.49 156.58C141.65 156.727 141.87 156.8 142.15 156.8ZM150.534 170V162.76C150.534 162.2 150.4 161.793 150.134 161.54C149.88 161.287 149.46 161.16 148.874 161.16C148.434 161.16 148.027 161.22 147.654 161.34C147.294 161.46 146.954 161.607 146.634 161.78V159.38C146.927 159.247 147.34 159.113 147.874 158.98C148.407 158.847 149.034 158.78 149.754 158.78C150.487 158.78 151.134 158.887 151.694 159.1C152.267 159.313 152.714 159.673 153.034 160.18C153.367 160.673 153.534 161.353 153.534 162.22V170H150.534ZM157.105 170V159.04H160.065V163.14H160.145L163.545 159.04H166.845V159.14L160.065 166.66V170H157.105ZM163.805 170V166.38C163.805 165.673 163.598 165.167 163.185 164.86C162.785 164.54 162.198 164.38 161.425 164.38L163.185 162.3C163.985 162.3 164.652 162.46 165.185 162.78C165.718 163.1 166.118 163.533 166.385 164.08C166.665 164.613 166.805 165.227 166.805 165.92V170H163.805ZM173.726 170.26C172.94 170.26 172.146 170.173 171.346 170C170.56 169.827 169.86 169.58 169.246 169.26L170.086 166.88C170.353 167.027 170.673 167.18 171.046 167.34C171.42 167.5 171.826 167.633 172.266 167.74C172.706 167.847 173.153 167.9 173.606 167.9C174.14 167.9 174.54 167.827 174.806 167.68C175.086 167.52 175.226 167.28 175.226 166.96C175.226 166.72 175.133 166.527 174.946 166.38C174.773 166.22 174.513 166.073 174.166 165.94C173.82 165.793 173.406 165.64 172.926 165.48C172.22 165.227 171.613 164.953 171.106 164.66C170.6 164.367 170.206 164.007 169.926 163.58C169.66 163.153 169.526 162.62 169.526 161.98C169.526 161.247 169.713 160.647 170.086 160.18C170.46 159.713 170.986 159.367 171.666 159.14C172.346 158.9 173.14 158.78 174.046 158.78C174.793 158.78 175.466 158.84 176.066 158.96C176.666 159.08 177.133 159.233 177.466 159.42V161.78C177.24 161.673 176.94 161.567 176.566 161.46C176.206 161.353 175.813 161.267 175.386 161.2C174.973 161.12 174.573 161.08 174.186 161.08C173.64 161.08 173.226 161.153 172.946 161.3C172.666 161.447 172.526 161.653 172.526 161.92C172.526 162.133 172.62 162.313 172.806 162.46C173.006 162.607 173.293 162.747 173.666 162.88C174.04 163 174.486 163.153 175.006 163.34C175.7 163.58 176.286 163.847 176.766 164.14C177.246 164.433 177.606 164.793 177.846 165.22C178.1 165.647 178.226 166.173 178.226 166.8C178.226 167.4 178.086 167.967 177.806 168.5C177.54 169.02 177.08 169.447 176.426 169.78C175.773 170.1 174.873 170.26 173.726 170.26ZM175.252 157.52C174.626 157.52 174.132 157.427 173.772 157.24C173.412 157.053 173.159 156.82 173.012 156.54C172.852 156.247 172.772 155.94 172.772 155.62C172.772 155.393 172.806 155.153 172.872 154.9C172.939 154.633 173.039 154.387 173.172 154.16L175.352 154.44C175.326 154.533 175.306 154.633 175.292 154.74C175.266 154.833 175.252 154.92 175.252 155C175.252 155.187 175.312 155.333 175.432 155.44C175.539 155.533 175.726 155.58 175.992 155.58H180.292V157.52H175.252ZM186.458 170.26C184.725 170.26 183.465 169.86 182.678 169.06C181.905 168.247 181.518 167.073 181.518 165.54V159.04H184.518V165.7C184.518 166.407 184.671 166.947 184.978 167.32C185.298 167.68 185.791 167.86 186.458 167.86C187.125 167.86 187.611 167.68 187.918 167.32C188.238 166.947 188.398 166.407 188.398 165.7V159.04H191.398V165.54C191.398 167.073 191.005 168.247 190.218 169.06C189.445 169.86 188.191 170.26 186.458 170.26ZM194.974 170V159.04H197.934V163.14H198.014L201.414 159.04H204.714V159.14L197.934 166.66V170H194.974ZM201.674 170V166.38C201.674 165.673 201.467 165.167 201.054 164.86C200.654 164.54 200.067 164.38 199.294 164.38L201.054 162.3C201.854 162.3 202.52 162.46 203.054 162.78C203.587 163.1 203.987 163.533 204.254 164.08C204.534 164.613 204.674 165.227 204.674 165.92V170H201.674ZM211.575 170.2C210.762 170.2 210.075 170.047 209.515 169.74C208.968 169.42 208.548 168.947 208.255 168.32C207.975 167.693 207.835 166.927 207.835 166.02V159.04H210.835V165.5C210.835 166.233 210.982 166.767 211.275 167.1C211.568 167.433 211.995 167.6 212.555 167.6C213.262 167.6 213.808 167.333 214.195 166.8C214.582 166.253 214.775 165.413 214.775 164.28V159.04H217.775V170H215.495L215.175 168.32H214.995C214.768 168.853 214.375 169.3 213.815 169.66C213.268 170.02 212.522 170.2 211.575 170.2ZM215.465 157.52C214.838 157.52 214.345 157.427 213.985 157.24C213.625 157.053 213.372 156.82 213.225 156.54C213.065 156.247 212.985 155.94 212.985 155.62C212.985 155.393 213.018 155.153 213.085 154.9C213.152 154.633 213.252 154.387 213.385 154.16L215.565 154.44C215.538 154.533 215.518 154.633 215.505 154.74C215.478 154.833 215.465 154.92 215.465 155C215.465 155.187 215.525 155.333 215.645 155.44C215.752 155.533 215.938 155.58 216.205 155.58H220.505V157.52H215.465ZM223.845 170L220.665 159.04H223.685L226.105 167.58H226.225C226.438 167.58 226.638 167.52 226.825 167.4C227.012 167.28 227.172 167.12 227.305 166.92C227.572 166.547 227.772 166.107 227.905 165.6C228.038 165.08 228.105 164.567 228.105 164.06C228.105 163.167 227.932 162.48 227.585 162C227.252 161.52 226.785 161.28 226.185 161.28C226.065 161.28 225.952 161.287 225.845 161.3C225.752 161.313 225.665 161.34 225.585 161.38L225.025 159.08C225.332 158.987 225.618 158.933 225.885 158.92C226.165 158.893 226.392 158.88 226.565 158.88C227.272 158.88 227.885 158.973 228.405 159.16C228.925 159.347 229.372 159.627 229.745 160C230.212 160.453 230.558 161.02 230.785 161.7C231.025 162.38 231.145 163.147 231.145 164C231.145 165.08 230.972 166.027 230.625 166.84C230.292 167.64 229.885 168.273 229.405 168.74C229.005 169.127 228.498 169.433 227.885 169.66C227.285 169.887 226.458 170 225.405 170H223.845ZM240.231 170V162.88C240.231 162.24 240.057 161.78 239.711 161.5C239.364 161.22 238.831 161.08 238.111 161.08C237.417 161.08 236.737 161.187 236.071 161.4C235.417 161.6 234.851 161.84 234.371 162.12V159.64C234.757 159.453 235.304 159.267 236.011 159.08C236.717 158.88 237.531 158.78 238.451 158.78C239.157 158.78 239.791 158.867 240.351 159.04C240.924 159.213 241.337 159.553 241.591 160.06C242.151 160.233 242.551 160.573 242.791 161.08C243.044 161.573 243.171 162.213 243.171 163V170H240.231ZM236.951 170.2C235.804 170.2 234.917 169.927 234.291 169.38C233.677 168.833 233.371 168.067 233.371 167.08C233.371 166.013 233.751 165.16 234.511 164.52C235.284 163.88 236.497 163.493 238.151 163.36L240.711 163.16V165.32L238.491 165.54C237.691 165.62 237.131 165.78 236.811 166.02C236.504 166.26 236.351 166.58 236.351 166.98C236.351 167.38 236.477 167.68 236.731 167.88C236.997 168.08 237.337 168.18 237.751 168.18C237.911 168.18 238.071 168.167 238.231 168.14C238.391 168.1 238.537 168.06 238.671 168.02L238.931 169.9C238.677 169.993 238.377 170.067 238.031 170.12C237.684 170.173 237.324 170.2 236.951 170.2ZM241.531 161.22L239.891 159.84C240.357 159.68 240.724 159.48 240.991 159.24C241.257 158.987 241.397 158.68 241.411 158.32H244.031C244.031 158.733 243.944 159.133 243.771 159.52C243.611 159.893 243.344 160.227 242.971 160.52C242.611 160.813 242.131 161.047 241.531 161.22ZM234.639 157.52V156.26L236.659 155.42H243.799V157.52H234.639ZM238.839 156.3V154.04H240.739V156.3H238.839ZM241.919 156.3V154.04H243.799V156.3H241.919ZM251.582 170.26C249.955 170.26 248.749 169.867 247.962 169.08C247.175 168.28 246.782 167.1 246.782 165.54C246.782 165.273 246.789 164.953 246.802 164.58C246.829 164.193 246.862 163.853 246.902 163.56H251.702V165.46H249.722V165.74C249.722 166.273 249.789 166.713 249.922 167.06C250.055 167.393 250.255 167.64 250.522 167.8C250.802 167.96 251.149 168.04 251.562 168.04C252.015 168.04 252.395 167.94 252.702 167.74C253.022 167.54 253.262 167.2 253.422 166.72C253.595 166.24 253.682 165.58 253.682 164.74C253.682 163.953 253.589 163.3 253.402 162.78C253.229 162.247 252.929 161.847 252.502 161.58C252.089 161.313 251.515 161.18 250.782 161.18C250.382 161.18 249.969 161.227 249.542 161.32C249.115 161.4 248.709 161.507 248.322 161.64C247.949 161.773 247.622 161.92 247.342 162.08V159.58C247.635 159.42 247.995 159.28 248.422 159.16C248.862 159.04 249.335 158.947 249.842 158.88C250.349 158.813 250.849 158.78 251.342 158.78C252.635 158.78 253.675 159.02 254.462 159.5C255.262 159.967 255.842 160.633 256.202 161.5C256.575 162.367 256.762 163.393 256.762 164.58C256.762 165.793 256.582 166.827 256.222 167.68C255.875 168.52 255.322 169.16 254.562 169.6C253.802 170.04 252.809 170.26 251.582 170.26ZM260.357 161.04V157.78C260.357 156.98 260.211 156.407 259.917 156.06C259.624 155.713 259.184 155.54 258.597 155.54V154.34L260.617 153.38H265.717V155.54H262.357L262.337 155.62C262.684 155.833 262.937 156.14 263.097 156.54C263.271 156.94 263.357 157.467 263.357 158.12V161.04H260.357ZM263.137 170.2C262.537 170.2 262.031 170.107 261.617 169.92C261.204 169.733 260.891 169.453 260.677 169.08C260.464 168.693 260.357 168.213 260.357 167.64V159.04H263.357V167.28C263.357 167.533 263.411 167.72 263.517 167.84C263.637 167.96 263.817 168.02 264.057 168.02C264.164 168.02 264.277 168.007 264.397 167.98C264.517 167.953 264.631 167.92 264.737 167.88L265.017 169.8C264.764 169.933 264.477 170.033 264.157 170.1C263.837 170.167 263.497 170.2 263.137 170.2ZM268.013 170V165.4H266.873V163.56H270.713V167.72H270.853C271.293 167.72 271.667 167.6 271.973 167.36C272.293 167.12 272.533 166.767 272.693 166.3C272.853 165.82 272.933 165.22 272.933 164.5C272.933 163.673 272.813 163.02 272.573 162.54C272.347 162.047 272.007 161.693 271.553 161.48C271.1 161.267 270.54 161.16 269.873 161.16C269.18 161.16 268.553 161.26 267.993 161.46C267.433 161.647 266.933 161.873 266.493 162.14V159.64C266.933 159.413 267.487 159.213 268.153 159.04C268.82 158.867 269.587 158.78 270.453 158.78C271.747 158.78 272.793 158.987 273.593 159.4C274.407 159.813 275.007 160.44 275.393 161.28C275.78 162.12 275.973 163.173 275.973 164.44C275.973 165.627 275.793 166.64 275.433 167.48C275.087 168.307 274.513 168.933 273.713 169.36C272.927 169.787 271.873 170 270.553 170H268.013ZM279.025 170V159.04H281.225L281.625 160.76H281.785C282.012 160.213 282.405 159.76 282.965 159.4C283.525 159.027 284.252 158.84 285.145 158.84C285.999 158.84 286.705 158.993 287.265 159.3C287.825 159.593 288.245 160.047 288.525 160.66C288.819 161.26 288.965 162.02 288.965 162.94V170H285.965V163.54C285.965 162.793 285.812 162.26 285.505 161.94C285.212 161.607 284.779 161.44 284.205 161.44C283.739 161.44 283.339 161.567 283.005 161.82C282.685 162.073 282.439 162.447 282.265 162.94C282.105 163.42 282.025 164.027 282.025 164.76V170H279.025ZM296.996 170.26C295.796 170.26 294.836 170.12 294.116 169.84C293.396 169.547 292.87 169.14 292.536 168.62C292.216 168.1 292.056 167.5 292.056 166.82C292.056 166.233 292.143 165.76 292.316 165.4C292.503 165.04 292.736 164.767 293.016 164.58C293.31 164.38 293.603 164.247 293.896 164.18V164.06C293.59 163.953 293.296 163.807 293.016 163.62C292.736 163.433 292.503 163.18 292.316 162.86C292.143 162.54 292.056 162.14 292.056 161.66C292.056 161.167 292.17 160.707 292.396 160.28C292.636 159.853 293.016 159.513 293.536 159.26C294.056 158.993 294.743 158.86 295.596 158.86C296.01 158.86 296.41 158.893 296.796 158.96C297.183 159.013 297.483 159.093 297.696 159.2L297.236 161.22C297.13 161.193 296.983 161.167 296.796 161.14C296.623 161.1 296.443 161.08 296.256 161.08C295.843 161.08 295.536 161.18 295.336 161.38C295.136 161.567 295.036 161.813 295.036 162.12C295.036 162.44 295.123 162.687 295.296 162.86C295.47 163.033 295.69 163.153 295.956 163.22C296.236 163.287 296.523 163.32 296.816 163.32H297.236V165.18H296.816C296.243 165.18 295.81 165.28 295.516 165.48C295.236 165.68 295.096 166.007 295.096 166.46C295.096 166.7 295.15 166.94 295.256 167.18C295.376 167.407 295.576 167.6 295.856 167.76C296.136 167.907 296.536 167.98 297.056 167.98C297.55 167.98 297.936 167.907 298.216 167.76C298.496 167.613 298.696 167.42 298.816 167.18C298.936 166.927 298.996 166.647 298.996 166.34V159.04H301.996V166.24C301.996 167.613 301.59 168.627 300.776 169.28C299.976 169.933 298.716 170.26 296.996 170.26ZM298.854 157.96C298.747 157.773 298.661 157.533 298.594 157.24C298.514 156.947 298.474 156.653 298.474 156.36C298.474 155.987 298.547 155.647 298.694 155.34C298.827 155.033 299.074 154.793 299.434 154.62C299.781 154.433 300.261 154.34 300.874 154.34H303.774V156.36H301.854C301.601 156.36 301.407 156.407 301.274 156.5C301.127 156.58 301.054 156.733 301.054 156.96C301.054 157.053 301.067 157.153 301.094 157.26C301.121 157.353 301.161 157.453 301.214 157.56L298.854 157.96Z" fill="#252525"/>
<path d="M168 236C168 230.477 172.477 226 178 226H224V282H168V236Z" fill="#B4B4B4"/>
<path d="M158 282H224V348H168C162.477 348 158 343.523 158 338V282Z" fill="#7EB900"/>
<path d="M224 226H270C275.523 226 280 230.477 280 236V282H224V226Z" fill="#B4B4B4"/>
<path d="M224 282H280V328C280 333.523 275.523 338 270 338H224V282Z" fill="#B4B4B4"/>
<path d="M223.789 216V348.25" stroke="black" stroke-width="3" stroke-linecap="round"/>
<path d="M158 282.46H290.25" stroke="black" stroke-width="3" stroke-linecap="round"/>
<path d="M61 409.864C60.5417 409.864 60.1231 409.752 59.7443 409.528C59.3655 409.301 59.0625 408.998 58.8352 408.619C58.6117 408.241 58.5 407.822 58.5 407.364C58.5 406.902 58.6117 406.483 58.8352 406.108C59.0625 405.729 59.3655 405.428 59.7443 405.205C60.1231 404.977 60.5417 404.864 61 404.864C61.4621 404.864 61.8807 404.977 62.2557 405.205C62.6345 405.428 62.9356 405.729 63.1591 406.108C63.3864 406.483 63.5 406.902 63.5 407.364C63.5 407.822 63.3864 408.241 63.1591 408.619C62.9356 408.998 62.6345 409.301 62.2557 409.528C61.8807 409.752 61.4621 409.864 61 409.864ZM74.424 412V403.232H75.848V407.024H75.896L79.544 403.232H81.208V403.28L75.848 408.704V412H74.424ZM79.864 412V408.912C79.864 408.283 79.672 407.792 79.288 407.44C78.904 407.088 78.2693 406.912 77.384 406.912L78.216 405.872C78.888 405.872 79.448 405.995 79.896 406.24C80.3547 406.475 80.7013 406.816 80.936 407.264C81.1707 407.712 81.288 408.251 81.288 408.88V412H79.864ZM87.1906 412.16C86.5613 412.16 86.0173 412.053 85.5586 411.84C85.1106 411.616 84.764 411.28 84.5186 410.832C84.284 410.384 84.1666 409.803 84.1666 409.088V403.232H85.5906V409.008C85.5906 409.648 85.7506 410.133 86.0706 410.464C86.4013 410.795 86.876 410.96 87.4946 410.96C88.2413 410.96 88.8173 410.72 89.2226 410.24C89.6386 409.76 89.8466 409.115 89.8466 408.304V403.232H91.2706V412H90.0866L90.0226 410.704H89.9426C89.7506 411.131 89.4146 411.483 88.9346 411.76C88.4653 412.027 87.884 412.16 87.1906 412.16ZM89.7071 401.84C89.2591 401.84 88.9018 401.776 88.6351 401.648C88.3685 401.52 88.1765 401.355 88.0591 401.152C87.9311 400.949 87.8671 400.736 87.8671 400.512C87.8671 400.352 87.8938 400.181 87.9471 400C87.9898 399.808 88.0485 399.653 88.1231 399.536L89.3231 399.744C89.3018 399.787 89.2805 399.861 89.2591 399.968C89.2378 400.064 89.2271 400.155 89.2271 400.24C89.2271 400.379 89.2698 400.501 89.3551 400.608C89.4405 400.704 89.5845 400.752 89.7871 400.752H93.8351V401.84H89.7071ZM96.3791 412L93.6431 403.232H95.0831L97.4511 410.768H97.6431C97.8991 410.768 98.1498 410.709 98.3951 410.592C98.6405 410.464 98.8485 410.304 99.0191 410.112C99.3391 409.76 99.5738 409.317 99.7231 408.784C99.8725 408.24 99.9471 407.707 99.9471 407.184C99.9471 406.299 99.7445 405.605 99.3391 405.104C98.9445 404.592 98.3951 404.336 97.6911 404.336C97.5525 404.336 97.4138 404.347 97.2751 404.368C97.1471 404.389 97.0405 404.416 96.9551 404.448L96.6031 403.312C96.8271 403.248 97.0351 403.205 97.2271 403.184C97.4298 403.163 97.6111 403.152 97.7711 403.152C98.3045 403.152 98.7791 403.232 99.1951 403.392C99.6218 403.541 99.9845 403.765 100.283 404.064C100.656 404.427 100.928 404.88 101.099 405.424C101.28 405.968 101.371 406.571 101.371 407.232C101.371 408.064 101.243 408.805 100.987 409.456C100.731 410.096 100.411 410.608 100.027 410.992C99.7178 411.301 99.3391 411.547 98.8911 411.728C98.4431 411.909 97.8725 412 97.1791 412H96.3791ZM109.149 412V406.16C109.149 405.467 108.989 404.976 108.669 404.688C108.36 404.389 107.837 404.24 107.101 404.24C106.568 404.24 106.056 404.315 105.565 404.464C105.085 404.603 104.626 404.8 104.189 405.056V403.728C104.498 403.568 104.914 403.419 105.437 403.28C105.97 403.141 106.568 403.072 107.229 403.072C107.794 403.072 108.274 403.136 108.669 403.264C109.074 403.392 109.373 403.627 109.565 403.968C109.938 404.139 110.194 404.405 110.333 404.768C110.482 405.131 110.557 405.568 110.557 406.08V412H109.149ZM106.397 412.16C105.458 412.16 104.738 411.947 104.237 411.52C103.746 411.083 103.501 410.459 103.501 409.648C103.501 408.763 103.821 408.08 104.461 407.6C105.112 407.12 106.162 406.837 107.613 406.752L109.437 406.64V407.824L107.805 407.936C106.717 408.011 105.965 408.181 105.549 408.448C105.144 408.715 104.941 409.104 104.941 409.616C104.941 410.096 105.09 410.448 105.389 410.672C105.698 410.896 106.125 411.008 106.669 411.008C106.85 411.008 107.016 410.997 107.165 410.976C107.314 410.944 107.458 410.907 107.597 410.864L107.821 411.936C107.618 412.011 107.394 412.064 107.149 412.096C106.914 412.139 106.664 412.16 106.397 412.16ZM109.517 404.464L108.717 403.712C108.994 403.669 109.256 403.563 109.501 403.392C109.746 403.221 109.869 402.976 109.869 402.656H111.261C111.261 402.987 111.181 403.28 111.021 403.536C110.872 403.781 110.664 403.984 110.397 404.144C110.13 404.293 109.837 404.4 109.517 404.464ZM104.239 401.84V401.216L105.407 400.704H111.039V401.84H104.239ZM107.535 401.216V399.408H108.719V401.216H107.535ZM109.871 401.216V399.408H111.039V401.216H109.871ZM117.233 412.16C116.081 412.16 115.217 411.861 114.641 411.264C114.076 410.656 113.793 409.707 113.793 408.416C113.793 408.203 113.798 407.973 113.809 407.728C113.83 407.472 113.852 407.221 113.873 406.976H117.233V408.096H115.217V408.416C115.217 409.088 115.292 409.616 115.441 410C115.59 410.373 115.809 410.635 116.097 410.784C116.396 410.933 116.764 411.008 117.201 411.008C117.681 411.008 118.097 410.917 118.449 410.736C118.801 410.555 119.073 410.224 119.265 409.744C119.457 409.264 119.553 408.576 119.553 407.68C119.553 406.891 119.468 406.245 119.297 405.744C119.126 405.243 118.844 404.869 118.449 404.624C118.065 404.379 117.542 404.256 116.881 404.256C116.54 404.256 116.209 404.288 115.889 404.352C115.569 404.405 115.26 404.491 114.961 404.608C114.662 404.715 114.369 404.853 114.081 405.024V403.696C114.294 403.579 114.556 403.477 114.865 403.392C115.174 403.296 115.516 403.221 115.889 403.168C116.262 403.104 116.652 403.072 117.057 403.072C117.996 403.072 118.753 403.264 119.329 403.648C119.916 404.021 120.342 404.555 120.609 405.248C120.876 405.931 121.009 406.741 121.009 407.68C121.009 408.619 120.886 409.424 120.641 410.096C120.396 410.768 119.996 411.28 119.441 411.632C118.897 411.984 118.161 412.16 117.233 412.16ZM123.845 412V403.232H124.837L125.093 404.624H125.157C125.338 404.144 125.669 403.765 126.149 403.488C126.629 403.211 127.21 403.072 127.893 403.072C128.533 403.072 129.077 403.184 129.525 403.408C129.983 403.621 130.335 403.952 130.581 404.4C130.826 404.848 130.949 405.429 130.949 406.144V412H129.525V406.224C129.525 405.584 129.365 405.099 129.045 404.768C128.725 404.437 128.25 404.272 127.621 404.272C127.119 404.272 126.693 404.389 126.341 404.624C125.989 404.859 125.722 405.179 125.541 405.584C125.359 405.979 125.269 406.427 125.269 406.928V412H123.845ZM124.46 401.84V401.216L125.628 400.704H131.26V401.84H124.46ZM129.932 401.216V399.408H131.276V401.216H129.932ZM130.396 398.464V395.856H131.756V398.464H130.396ZM139.211 412.16C138.528 412.16 137.936 412.027 137.435 411.76C136.944 411.483 136.608 411.099 136.427 410.608H136.363L136.283 412H135.115V403.232H136.539V408.304C136.539 408.837 136.629 409.307 136.811 409.712C137.003 410.107 137.275 410.416 137.627 410.64C137.989 410.853 138.421 410.96 138.923 410.96C139.552 410.96 140.021 410.795 140.331 410.464C140.64 410.133 140.795 409.648 140.795 409.008V403.232H142.219V409.104C142.219 409.808 142.096 410.384 141.851 410.832C141.616 411.28 141.275 411.616 140.827 411.84C140.379 412.053 139.84 412.16 139.211 412.16ZM135.9 401.84V401.216L137.068 400.704H142.7V401.84H135.9ZM141.372 401.216V399.408H142.716V401.216H141.372ZM146.239 404.832V401.696C146.239 401.056 146.084 400.597 145.775 400.32C145.476 400.043 145.092 399.904 144.623 399.904V399.296L145.807 398.784H150.079V399.904H146.831L146.815 399.968C147.049 400.128 147.247 400.373 147.407 400.704C147.577 401.024 147.663 401.445 147.663 401.968V404.832H146.239ZM147.983 412.16C147.695 412.16 147.417 412.112 147.151 412.016C146.884 411.92 146.665 411.749 146.495 411.504C146.324 411.259 146.239 410.917 146.239 410.48V403.232H147.663V410.304C147.663 410.549 147.716 410.725 147.823 410.832C147.929 410.939 148.1 410.992 148.335 410.992C148.431 410.992 148.532 410.981 148.639 410.96C148.745 410.939 148.847 410.912 148.943 410.88L149.135 411.92C148.932 412.016 148.735 412.08 148.543 412.112C148.351 412.144 148.164 412.16 147.983 412.16ZM151.764 412V408.096H150.548V406.976H153.124V410.848H153.332C153.812 410.848 154.212 410.741 154.532 410.528C154.852 410.315 155.092 409.968 155.252 409.488C155.412 409.008 155.492 408.373 155.492 407.584C155.492 406.795 155.401 406.155 155.22 405.664C155.049 405.173 154.767 404.816 154.372 404.592C153.988 404.368 153.465 404.256 152.804 404.256C152.303 404.256 151.817 404.325 151.348 404.464C150.889 404.592 150.447 404.795 150.02 405.072V403.744C150.34 403.552 150.761 403.392 151.284 403.264C151.807 403.136 152.372 403.072 152.98 403.072C153.951 403.072 154.724 403.253 155.3 403.616C155.887 403.968 156.308 404.48 156.564 405.152C156.82 405.824 156.948 406.64 156.948 407.6C156.948 408.528 156.82 409.323 156.564 409.984C156.319 410.635 155.913 411.136 155.348 411.488C154.793 411.829 154.047 412 153.108 412H151.764ZM159.752 412V403.232H160.744L161 404.624H161.064C161.245 404.144 161.576 403.765 162.056 403.488C162.536 403.211 163.117 403.072 163.8 403.072C164.44 403.072 164.984 403.184 165.432 403.408C165.89 403.621 166.242 403.952 166.488 404.4C166.733 404.848 166.856 405.429 166.856 406.144V412H165.432V406.224C165.432 405.584 165.272 405.099 164.952 404.768C164.632 404.437 164.157 404.272 163.528 404.272C163.026 404.272 162.6 404.389 162.248 404.624C161.896 404.859 161.629 405.179 161.448 405.584C161.266 405.979 161.176 406.427 161.176 406.928V412H159.752ZM173.309 412.144C172.445 412.144 171.752 412.032 171.229 411.808C170.717 411.584 170.344 411.269 170.109 410.864C169.885 410.459 169.773 409.979 169.773 409.424C169.773 408.933 169.843 408.544 169.981 408.256C170.131 407.957 170.312 407.739 170.525 407.6C170.749 407.461 170.979 407.371 171.213 407.328V407.264C171 407.2 170.776 407.093 170.541 406.944C170.307 406.795 170.109 406.587 169.949 406.32C169.8 406.053 169.725 405.717 169.725 405.312C169.725 404.939 169.811 404.587 169.981 404.256C170.152 403.925 170.429 403.653 170.813 403.44C171.197 403.227 171.704 403.12 172.333 403.12C172.589 403.12 172.856 403.141 173.133 403.184C173.411 403.216 173.624 403.275 173.773 403.36L173.517 404.464C173.4 404.421 173.245 404.384 173.053 404.352C172.872 404.309 172.68 404.288 172.477 404.288C172.029 404.288 171.699 404.395 171.485 404.608C171.272 404.811 171.165 405.083 171.165 405.424C171.165 405.797 171.256 406.08 171.437 406.272C171.629 406.464 171.869 406.597 172.157 406.672C172.456 406.736 172.765 406.768 173.085 406.768H173.389V407.808H173.085C172.445 407.808 171.971 407.925 171.661 408.16C171.363 408.384 171.213 408.763 171.213 409.296C171.213 409.605 171.272 409.888 171.389 410.144C171.517 410.4 171.731 410.603 172.029 410.752C172.339 410.901 172.765 410.976 173.309 410.976C173.853 410.976 174.275 410.901 174.573 410.752C174.883 410.603 175.101 410.389 175.229 410.112C175.357 409.824 175.421 409.483 175.421 409.088V403.232H176.845V408.992C176.845 410.112 176.557 410.917 175.981 411.408C175.416 411.899 174.525 412.144 173.309 412.144ZM174.694 402.304C174.62 402.187 174.561 402.037 174.518 401.856C174.465 401.664 174.438 401.477 174.438 401.296C174.438 401.072 174.486 400.864 174.582 400.672C174.678 400.469 174.849 400.304 175.094 400.176C175.34 400.048 175.681 399.984 176.118 399.984H178.31V401.088H176.486C176.273 401.088 176.102 401.131 175.974 401.216C175.846 401.291 175.782 401.424 175.782 401.616C175.782 401.691 175.798 401.771 175.83 401.856C175.852 401.941 175.884 402.027 175.926 402.112L174.694 402.304ZM180.858 404.832V401.968C180.858 401.563 180.895 401.237 180.97 400.992C181.044 400.736 181.146 400.528 181.274 400.368C181.402 400.208 181.54 400.075 181.69 399.968L181.674 399.904H178.89L179.258 398.784H183.77V399.904C183.375 399.904 183.028 400.032 182.73 400.288C182.431 400.544 182.282 401.013 182.282 401.696V404.832H180.858ZM182.602 412.16C182.314 412.16 182.036 412.112 181.77 412.016C181.503 411.92 181.284 411.749 181.114 411.504C180.943 411.259 180.858 410.917 180.858 410.48V403.232H182.282V410.304C182.282 410.549 182.335 410.725 182.442 410.832C182.548 410.939 182.719 410.992 182.954 410.992C183.05 410.992 183.151 410.981 183.258 410.96C183.364 410.939 183.466 410.912 183.562 410.88L183.754 411.92C183.551 412.016 183.354 412.08 183.162 412.112C182.97 412.144 182.783 412.16 182.602 412.16ZM189.957 412.16C189.274 412.16 188.682 412.027 188.181 411.76C187.69 411.483 187.354 411.099 187.173 410.608H187.109L187.029 412H185.861V403.232H187.285V408.304C187.285 408.837 187.376 409.307 187.557 409.712C187.749 410.107 188.021 410.416 188.373 410.64C188.736 410.853 189.168 410.96 189.669 410.96C190.298 410.96 190.768 410.795 191.077 410.464C191.386 410.133 191.541 409.648 191.541 409.008V403.232H192.965V409.104C192.965 409.808 192.842 410.384 192.597 410.832C192.362 411.28 192.021 411.616 191.573 411.84C191.125 412.053 190.586 412.16 189.957 412.16ZM192.022 401.84V398.464H193.43V401.84H192.022ZM196.649 412V403.232H198.073V407.024H198.121L201.769 403.232H203.433V403.28L198.073 408.704V412H196.649ZM202.089 412V408.912C202.089 408.283 201.897 407.792 201.513 407.44C201.129 407.088 200.494 406.912 199.609 406.912L200.441 405.872C201.113 405.872 201.673 405.995 202.121 406.24C202.58 406.475 202.926 406.816 203.161 407.264C203.396 407.712 203.513 408.251 203.513 408.88V412H202.089ZM211.528 412V406.16C211.528 405.467 211.368 404.976 211.048 404.688C210.738 404.389 210.216 404.24 209.48 404.24C208.946 404.24 208.434 404.315 207.944 404.464C207.464 404.603 207.005 404.8 206.568 405.056V403.728C206.877 403.568 207.293 403.419 207.816 403.28C208.349 403.141 208.946 403.072 209.608 403.072C210.173 403.072 210.664 403.136 211.08 403.264C211.496 403.381 211.837 403.563 212.104 403.808C212.381 404.053 212.589 404.368 212.728 404.752C212.866 405.125 212.936 405.568 212.936 406.08V412H211.528ZM208.776 412.16C207.837 412.16 207.117 411.947 206.616 411.52C206.125 411.083 205.88 410.459 205.88 409.648C205.88 408.763 206.2 408.08 206.84 407.6C207.49 407.12 208.541 406.837 209.992 406.752L211.816 406.64V407.824L210.184 407.936C209.096 408.011 208.344 408.181 207.928 408.448C207.522 408.715 207.32 409.104 207.32 409.616C207.32 410.096 207.469 410.448 207.768 410.672C208.077 410.896 208.504 411.008 209.048 411.008C209.229 411.008 209.394 410.997 209.544 410.976C209.693 410.944 209.837 410.907 209.976 410.864L210.2 411.936C209.997 412.011 209.773 412.064 209.528 412.096C209.293 412.139 209.042 412.16 208.776 412.16ZM218.492 412V405.776C218.492 405.253 218.37 404.869 218.124 404.624C217.89 404.379 217.49 404.256 216.924 404.256C216.54 404.256 216.178 404.309 215.836 404.416C215.506 404.512 215.186 404.651 214.876 404.832V403.552C215.09 403.445 215.394 403.339 215.788 403.232C216.183 403.125 216.652 403.072 217.196 403.072C217.751 403.072 218.231 403.152 218.636 403.312C219.042 403.472 219.356 403.739 219.58 404.112C219.804 404.475 219.916 404.96 219.916 405.568V412H218.492ZM222.912 412V408.96C222.912 408.288 223.062 407.803 223.36 407.504C223.659 407.195 224.038 406.981 224.496 406.864L224.512 406.816L222.752 406.144V405.616C222.752 405.179 222.896 404.768 223.184 404.384C223.472 403.989 223.883 403.675 224.416 403.44C224.96 403.195 225.606 403.072 226.352 403.072C227.003 403.072 227.606 403.179 228.16 403.392C228.715 403.595 229.158 403.92 229.488 404.368C229.83 404.805 230 405.381 230 406.096V412H228.576V406.24C228.576 405.525 228.358 405.019 227.92 404.72C227.494 404.411 226.966 404.256 226.336 404.256C225.686 404.256 225.168 404.395 224.784 404.672C224.4 404.939 224.208 405.28 224.208 405.696L225.936 406.56L225.808 407.328C225.414 407.328 225.067 407.461 224.768 407.728C224.48 407.984 224.336 408.395 224.336 408.96V412H222.912ZM233.194 412V403.232H234.618V407.024H234.666L238.314 403.232H239.978V403.28L234.618 408.704V412H233.194ZM238.634 412V408.912C238.634 408.283 238.442 407.792 238.058 407.44C237.674 407.088 237.039 406.912 236.154 406.912L236.986 405.872C237.658 405.872 238.218 405.995 238.666 406.24C239.125 406.475 239.471 406.816 239.706 407.264C239.941 407.712 240.058 408.251 240.058 408.88V412H238.634ZM248.073 412V406.16C248.073 405.467 247.913 404.976 247.593 404.688C247.283 404.389 246.761 404.24 246.025 404.24C245.491 404.24 244.979 404.315 244.489 404.464C244.009 404.603 243.55 404.8 243.113 405.056V403.728C243.422 403.568 243.838 403.419 244.361 403.28C244.894 403.141 245.491 403.072 246.153 403.072C246.718 403.072 247.209 403.136 247.625 403.264C248.041 403.381 248.382 403.563 248.649 403.808C248.926 404.053 249.134 404.368 249.273 404.752C249.411 405.125 249.481 405.568 249.481 406.08V412H248.073ZM245.321 412.16C244.382 412.16 243.662 411.947 243.161 411.52C242.67 411.083 242.425 410.459 242.425 409.648C242.425 408.763 242.745 408.08 243.385 407.6C244.035 407.12 245.086 406.837 246.537 406.752L248.361 406.64V407.824L246.729 407.936C245.641 408.011 244.889 408.181 244.473 408.448C244.067 408.715 243.865 409.104 243.865 409.616C243.865 410.096 244.014 410.448 244.313 410.672C244.622 410.896 245.049 411.008 245.593 411.008C245.774 411.008 245.939 410.997 246.089 410.976C246.238 410.944 246.382 410.907 246.521 410.864L246.745 411.936C246.542 412.011 246.318 412.064 246.073 412.096C245.838 412.139 245.587 412.16 245.321 412.16ZM255.037 412V405.776C255.037 405.253 254.915 404.869 254.669 404.624C254.435 404.379 254.035 404.256 253.469 404.256C253.085 404.256 252.723 404.309 252.381 404.416C252.051 404.512 251.731 404.651 251.421 404.832V403.552C251.635 403.445 251.939 403.339 252.333 403.232C252.728 403.125 253.197 403.072 253.741 403.072C254.296 403.072 254.776 403.152 255.181 403.312C255.587 403.472 255.901 403.739 256.125 404.112C256.349 404.475 256.461 404.96 256.461 405.568V412H255.037ZM262.913 412.144C262.049 412.144 261.356 412.032 260.833 411.808C260.321 411.584 259.948 411.269 259.713 410.864C259.489 410.459 259.377 409.979 259.377 409.424C259.377 408.933 259.447 408.544 259.585 408.256C259.735 407.957 259.916 407.739 260.129 407.6C260.353 407.461 260.583 407.371 260.817 407.328V407.264C260.604 407.2 260.38 407.093 260.145 406.944C259.911 406.795 259.713 406.587 259.553 406.32C259.404 406.053 259.329 405.717 259.329 405.312C259.329 404.939 259.415 404.587 259.585 404.256C259.756 403.925 260.033 403.653 260.417 403.44C260.801 403.227 261.308 403.12 261.937 403.12C262.193 403.12 262.46 403.141 262.737 403.184C263.015 403.216 263.228 403.275 263.377 403.36L263.121 404.464C263.004 404.421 262.849 404.384 262.657 404.352C262.476 404.309 262.284 404.288 262.081 404.288C261.633 404.288 261.303 404.395 261.089 404.608C260.876 404.811 260.769 405.083 260.769 405.424C260.769 405.797 260.86 406.08 261.041 406.272C261.233 406.464 261.473 406.597 261.761 406.672C262.06 406.736 262.369 406.768 262.689 406.768H262.993V407.808H262.689C262.049 407.808 261.575 407.925 261.265 408.16C260.967 408.384 260.817 408.763 260.817 409.296C260.817 409.605 260.876 409.888 260.993 410.144C261.121 410.4 261.335 410.603 261.633 410.752C261.943 410.901 262.369 410.976 262.913 410.976C263.457 410.976 263.879 410.901 264.177 410.752C264.487 410.603 264.705 410.389 264.833 410.112C264.961 409.824 265.025 409.483 265.025 409.088V403.232H266.449V408.992C266.449 410.112 266.161 410.917 265.585 411.408C265.02 411.899 264.129 412.144 262.913 412.144ZM271.501 412.16C271.213 412.16 270.936 412.112 270.669 412.016C270.403 411.92 270.184 411.749 270.013 411.504C269.843 411.259 269.757 410.917 269.757 410.48V403.232H271.181V410.304C271.181 410.549 271.235 410.725 271.341 410.832C271.448 410.939 271.619 410.992 271.853 410.992C271.949 410.992 272.051 410.981 272.157 410.96C272.264 410.939 272.365 410.912 272.461 410.88L272.653 411.92C272.451 412.016 272.253 412.08 272.061 412.112C271.869 412.144 271.683 412.16 271.501 412.16ZM275.869 412.16C275.581 412.16 275.304 412.112 275.037 412.016C274.771 411.92 274.552 411.749 274.381 411.504C274.211 411.259 274.125 410.917 274.125 410.48V403.232H275.549V410.304C275.549 410.549 275.603 410.725 275.709 410.832C275.816 410.939 275.987 410.992 276.221 410.992C276.317 410.992 276.419 410.981 276.525 410.96C276.632 410.939 276.733 410.912 276.829 410.88L277.021 411.92C276.819 412.016 276.621 412.08 276.429 412.112C276.237 412.144 276.051 412.16 275.869 412.16ZM284.071 412V406.16C284.071 405.467 283.911 404.976 283.591 404.688C283.281 404.389 282.759 404.24 282.023 404.24C281.489 404.24 280.977 404.315 280.487 404.464C280.007 404.603 279.548 404.8 279.111 405.056V403.728C279.42 403.568 279.836 403.419 280.359 403.28C280.892 403.141 281.489 403.072 282.151 403.072C282.716 403.072 283.207 403.136 283.623 403.264C284.039 403.381 284.38 403.563 284.647 403.808C284.924 404.053 285.132 404.368 285.271 404.752C285.409 405.125 285.479 405.568 285.479 406.08V412H284.071ZM281.319 412.16C280.38 412.16 279.66 411.947 279.159 411.52C278.668 411.083 278.423 410.459 278.423 409.648C278.423 408.763 278.743 408.08 279.383 407.6C280.033 407.12 281.084 406.837 282.535 406.752L284.359 406.64V407.824L282.727 407.936C281.639 408.011 280.887 408.181 280.471 408.448C280.065 408.715 279.863 409.104 279.863 409.616C279.863 410.096 280.012 410.448 280.311 410.672C280.62 410.896 281.047 411.008 281.591 411.008C281.772 411.008 281.937 410.997 282.087 410.976C282.236 410.944 282.38 410.907 282.519 410.864L282.743 411.936C282.54 412.011 282.316 412.064 282.071 412.096C281.836 412.139 281.585 412.16 281.319 412.16ZM289.707 406.496C289.27 406.496 288.913 406.432 288.635 406.304C288.369 406.165 288.177 405.995 288.059 405.792C287.942 405.579 287.883 405.355 287.883 405.12C287.883 404.96 287.905 404.795 287.947 404.624C288.001 404.453 288.065 404.309 288.139 404.192L289.339 404.384C289.318 404.437 289.291 404.512 289.259 404.608C289.238 404.704 289.227 404.8 289.227 404.896C289.227 405.035 289.265 405.152 289.339 405.248C289.414 405.333 289.553 405.376 289.755 405.376H292.043V406.496H289.707ZM289.707 410.976C289.27 410.976 288.913 410.912 288.635 410.784C288.369 410.645 288.177 410.475 288.059 410.272C287.942 410.059 287.883 409.835 287.883 409.6C287.883 409.44 287.905 409.275 287.947 409.104C288.001 408.933 288.065 408.789 288.139 408.672L289.339 408.864C289.318 408.917 289.291 408.992 289.259 409.088C289.238 409.184 289.227 409.28 289.227 409.376C289.227 409.515 289.265 409.632 289.339 409.728C289.414 409.813 289.553 409.856 289.755 409.856H292.043V410.976H289.707ZM294.906 404.832V401.968C294.906 401.563 294.943 401.237 295.018 400.992C295.092 400.736 295.194 400.528 295.322 400.368C295.45 400.208 295.588 400.075 295.738 399.968L295.722 399.904H292.938L293.306 398.784H297.818V399.904C297.423 399.904 297.076 400.032 296.778 400.288C296.479 400.544 296.33 401.013 296.33 401.696V404.832H294.906ZM296.65 412.16C296.362 412.16 296.084 412.112 295.818 412.016C295.551 411.92 295.332 411.749 295.162 411.504C294.991 411.259 294.906 410.917 294.906 410.48V403.232H296.33V410.304C296.33 410.549 296.383 410.725 296.49 410.832C296.596 410.939 296.767 410.992 297.002 410.992C297.098 410.992 297.199 410.981 297.306 410.96C297.412 410.939 297.514 410.912 297.61 410.88L297.802 411.92C297.599 412.016 297.402 412.08 297.21 412.112C297.018 412.144 296.831 412.16 296.65 412.16ZM304.005 412.16C303.322 412.16 302.73 412.027 302.229 411.76C301.738 411.483 301.402 411.099 301.221 410.608H301.157L301.077 412H299.909V403.232H301.333V408.304C301.333 408.837 301.424 409.307 301.605 409.712C301.797 410.107 302.069 410.416 302.421 410.64C302.784 410.853 303.216 410.96 303.717 410.96C304.346 410.96 304.816 410.795 305.125 410.464C305.434 410.133 305.589 409.648 305.589 409.008V403.232H307.013V409.104C307.013 409.808 306.89 410.384 306.645 410.832C306.41 411.28 306.069 411.616 305.621 411.84C305.173 412.053 304.634 412.16 304.005 412.16ZM306.07 401.84V398.464H307.478V401.84H306.07ZM313.945 412.144C313.081 412.144 312.388 412.032 311.865 411.808C311.353 411.584 310.98 411.269 310.745 410.864C310.521 410.459 310.409 409.979 310.409 409.424C310.409 408.933 310.478 408.544 310.617 408.256C310.766 407.957 310.948 407.739 311.161 407.6C311.385 407.461 311.614 407.371 311.849 407.328V407.264C311.636 407.2 311.412 407.093 311.177 406.944C310.942 406.795 310.745 406.587 310.585 406.32C310.436 406.053 310.361 405.717 310.361 405.312C310.361 404.939 310.446 404.587 310.617 404.256C310.788 403.925 311.065 403.653 311.449 403.44C311.833 403.227 312.34 403.12 312.969 403.12C313.225 403.12 313.492 403.141 313.769 403.184C314.046 403.216 314.26 403.275 314.409 403.36L314.153 404.464C314.036 404.421 313.881 404.384 313.689 404.352C313.508 404.309 313.316 404.288 313.113 404.288C312.665 404.288 312.334 404.395 312.121 404.608C311.908 404.811 311.801 405.083 311.801 405.424C311.801 405.797 311.892 406.08 312.073 406.272C312.265 406.464 312.505 406.597 312.793 406.672C313.092 406.736 313.401 406.768 313.721 406.768H314.025V407.808H313.721C313.081 407.808 312.606 407.925 312.297 408.16C311.998 408.384 311.849 408.763 311.849 409.296C311.849 409.605 311.908 409.888 312.025 410.144C312.153 410.4 312.366 410.603 312.665 410.752C312.974 410.901 313.401 410.976 313.945 410.976C314.489 410.976 314.91 410.901 315.209 410.752C315.518 410.603 315.737 410.389 315.865 410.112C315.993 409.824 316.057 409.483 316.057 409.088V403.232H317.481V408.992C317.481 410.112 317.193 410.917 316.617 411.408C316.052 411.899 315.161 412.144 313.945 412.144ZM323.029 412V405.776C323.029 405.253 322.906 404.869 322.661 404.624C322.426 404.379 322.026 404.256 321.461 404.256C321.077 404.256 320.714 404.309 320.373 404.416C320.042 404.512 319.722 404.651 319.413 404.832V403.552C319.626 403.445 319.93 403.339 320.325 403.232C320.72 403.125 321.189 403.072 321.733 403.072C322.288 403.072 322.768 403.152 323.173 403.312C323.578 403.472 323.893 403.739 324.117 404.112C324.341 404.475 324.453 404.96 324.453 405.568V412H323.029ZM327.449 412V408.96C327.449 408.288 327.598 407.803 327.897 407.504C328.196 407.195 328.574 406.981 329.033 406.864L329.049 406.816L327.289 406.144V405.616C327.289 405.179 327.433 404.768 327.721 404.384C328.009 403.989 328.42 403.675 328.953 403.44C329.497 403.195 330.142 403.072 330.889 403.072C331.54 403.072 332.142 403.179 332.697 403.392C333.252 403.595 333.694 403.92 334.025 404.368C334.366 404.805 334.537 405.381 334.537 406.096V412H333.113V406.24C333.113 405.525 332.894 405.019 332.457 404.72C332.03 404.411 331.502 404.256 330.873 404.256C330.222 404.256 329.705 404.395 329.321 404.672C328.937 404.939 328.745 405.28 328.745 405.696L330.473 406.56L330.345 407.328C329.95 407.328 329.604 407.461 329.305 407.728C329.017 407.984 328.873 408.395 328.873 408.96V412H327.449Z" fill="black"/>
<defs>
<filter id="filter0_d_906_3701" x="0" y="0" width="437" height="599" filterUnits="userSpaceOnUse" color-interpolation-filters="sRGB">
<feFlood flood-opacity="0" result="BackgroundImageFix"/>
<feColorMatrix in="SourceAlpha" type="matrix" values="0 0 0 0 0 0 0 0 0 0 0 0 0 0 0 0 0 0 127 0" result="hardAlpha"/>
<feOffset dy="4"/>
<feGaussianBlur stdDeviation="10"/>
<feComposite in2="hardAlpha" operator="out"/>
<feColorMatrix type="matrix" values="0 0 0 0 0 0 0 0 0 0 0 0 0 0 0 0 0 0 0.25 0"/>
<feBlend mode="normal" in2="BackgroundImageFix" result="effect1_dropShadow_906_3701"/>
<feBlend mode="normal" in="SourceGraphic" in2="effect1_dropShadow_906_3701" result="shape"/>
</filter>
</defs>
</svg>
