<svg width="437" height="599" viewBox="0 0 437 599" fill="none" xmlns="http://www.w3.org/2000/svg">
<g filter="url(#filter0_d_906_3633)">
<rect x="20" y="16" width="397" height="559" rx="55" fill="#FBFBFB"/>
</g>
<path d="M121.877 112V107.992C121.877 106.984 122.077 106.208 122.477 105.664C122.877 105.12 123.445 104.736 124.181 104.512L124.205 104.416L121.637 103.48V102.856C121.637 102.072 121.869 101.352 122.333 100.696C122.797 100.04 123.477 99.52 124.373 99.136C125.285 98.736 126.389 98.536 127.685 98.536C128.901 98.536 129.949 98.728 130.829 99.112C131.709 99.48 132.389 100.04 132.869 100.792C133.365 101.528 133.613 102.464 133.613 103.6V112H130.013V103.816C130.013 103.016 129.797 102.416 129.365 102.016C128.949 101.616 128.357 101.416 127.589 101.416C126.853 101.416 126.301 101.576 125.933 101.896C125.565 102.2 125.365 102.576 125.333 103.024L127.469 104.008L127.205 105.568C126.629 105.6 126.197 105.808 125.909 106.192C125.621 106.576 125.477 107.096 125.477 107.752V112H121.877ZM141.174 112V103.312C141.174 102.64 141.014 102.152 140.694 101.848C140.39 101.544 139.886 101.392 139.182 101.392C138.654 101.392 138.166 101.464 137.718 101.608C137.286 101.752 136.878 101.928 136.494 102.136V99.256C136.846 99.096 137.342 98.936 137.982 98.776C138.622 98.616 139.374 98.536 140.238 98.536C141.118 98.536 141.894 98.664 142.566 98.92C143.254 99.176 143.79 99.608 144.174 100.216C144.574 100.808 144.774 101.624 144.774 102.664V112H141.174ZM153.356 112.312C152.412 112.312 151.46 112.208 150.5 112C149.556 111.792 148.716 111.496 147.98 111.112L148.988 108.256C149.308 108.432 149.692 108.616 150.14 108.808C150.588 109 151.076 109.16 151.604 109.288C152.132 109.416 152.668 109.48 153.212 109.48C153.852 109.48 154.332 109.392 154.652 109.216C154.988 109.024 155.156 108.736 155.156 108.352C155.156 108.064 155.044 107.832 154.82 107.656C154.612 107.464 154.3 107.288 153.884 107.128C153.468 106.952 152.972 106.768 152.396 106.576C151.548 106.272 150.82 105.944 150.212 105.592C149.604 105.24 149.132 104.808 148.796 104.296C148.476 103.784 148.316 103.144 148.316 102.376C148.316 101.496 148.54 100.776 148.988 100.216C149.436 99.656 150.068 99.24 150.884 98.968C151.7 98.68 152.652 98.536 153.74 98.536C154.636 98.536 155.444 98.608 156.164 98.752C156.884 98.896 157.444 99.08 157.844 99.304V102.136C157.572 102.008 157.212 101.88 156.764 101.752C156.332 101.624 155.86 101.52 155.348 101.44C154.852 101.344 154.372 101.296 153.908 101.296C153.252 101.296 152.756 101.384 152.42 101.56C152.084 101.736 151.916 101.984 151.916 102.304C151.916 102.56 152.028 102.776 152.252 102.952C152.492 103.128 152.836 103.296 153.284 103.456C153.732 103.6 154.268 103.784 154.892 104.008C155.724 104.296 156.428 104.616 157.004 104.968C157.58 105.32 158.012 105.752 158.3 106.264C158.604 106.776 158.756 107.408 158.756 108.16C158.756 108.88 158.588 109.56 158.252 110.2C157.932 110.824 157.38 111.336 156.596 111.736C155.812 112.12 154.732 112.312 153.356 112.312ZM163.066 112V106.48H161.698V104.272H166.306V109.264H166.474C167.002 109.264 167.45 109.12 167.818 108.832C168.202 108.544 168.49 108.12 168.682 107.56C168.874 106.984 168.97 106.264 168.97 105.4C168.97 104.408 168.826 103.624 168.538 103.048C168.266 102.456 167.858 102.032 167.314 101.776C166.77 101.52 166.098 101.392 165.298 101.392C164.466 101.392 163.714 101.512 163.042 101.752C162.37 101.976 161.77 102.248 161.242 102.568V99.568C161.77 99.296 162.434 99.056 163.234 98.848C164.034 98.64 164.954 98.536 165.994 98.536C167.546 98.536 168.802 98.784 169.762 99.28C170.738 99.776 171.458 100.528 171.922 101.536C172.386 102.544 172.618 103.808 172.618 105.328C172.618 106.752 172.402 107.968 171.97 108.976C171.554 109.968 170.866 110.72 169.906 111.232C168.962 111.744 167.698 112 166.114 112H163.066ZM169.196 97.024C168.444 97.024 167.852 96.912 167.42 96.688C166.988 96.464 166.684 96.184 166.508 95.848C166.316 95.496 166.22 95.128 166.22 94.744C166.22 94.472 166.26 94.184 166.34 93.88C166.42 93.56 166.54 93.264 166.7 92.992L169.316 93.328C169.284 93.44 169.26 93.56 169.244 93.688C169.212 93.8 169.196 93.904 169.196 94C169.196 94.224 169.268 94.4 169.412 94.528C169.54 94.64 169.764 94.696 170.084 94.696H175.244V97.024H169.196ZM181.56 112.24C180.264 112.24 179.232 111.96 178.464 111.4C177.696 110.824 177.144 110.04 176.808 109.048C176.472 108.04 176.304 106.888 176.304 105.592C176.304 104.2 176.456 103.048 176.76 102.136C177.08 101.208 177.528 100.488 178.104 99.976C178.68 99.448 179.36 99.08 180.144 98.872C180.944 98.648 181.816 98.536 182.76 98.536C184.2 98.536 185.352 98.736 186.216 99.136C187.08 99.536 187.704 100.104 188.088 100.84C188.488 101.576 188.688 102.44 188.688 103.432V112H185.088V103.72C185.088 102.968 184.904 102.4 184.536 102.016C184.184 101.616 183.592 101.416 182.76 101.416C182.2 101.416 181.704 101.536 181.272 101.776C180.856 102 180.528 102.408 180.288 103C180.064 103.592 179.952 104.44 179.952 105.544C179.952 106.296 180.024 106.96 180.168 107.536C180.312 108.112 180.544 108.56 180.864 108.88C181.2 109.2 181.648 109.36 182.208 109.36C182.384 109.36 182.552 109.352 182.712 109.336C182.888 109.304 183.04 109.272 183.168 109.24L183.504 111.928C183.248 112.04 182.936 112.12 182.568 112.168C182.216 112.216 181.88 112.24 181.56 112.24ZM192.643 112V107.992C192.643 106.984 192.843 106.208 193.243 105.664C193.643 105.12 194.211 104.736 194.947 104.512L194.971 104.416L192.403 103.48V102.856C192.403 102.072 192.635 101.352 193.099 100.696C193.563 100.04 194.243 99.52 195.139 99.136C196.051 98.736 197.155 98.536 198.451 98.536C199.667 98.536 200.715 98.728 201.595 99.112C202.475 99.48 203.155 100.04 203.635 100.792C204.131 101.528 204.379 102.464 204.379 103.6V112H200.779V103.816C200.779 103.016 200.563 102.416 200.131 102.016C199.715 101.616 199.123 101.416 198.355 101.416C197.619 101.416 197.067 101.576 196.699 101.896C196.331 102.2 196.131 102.576 196.099 103.024L198.235 104.008L197.971 105.568C197.395 105.6 196.963 105.808 196.675 106.192C196.387 106.576 196.243 107.096 196.243 107.752V112H192.643ZM215.947 112V103.456C215.947 102.688 215.739 102.136 215.323 101.8C214.907 101.464 214.267 101.296 213.403 101.296C212.571 101.296 211.755 101.424 210.955 101.68C210.171 101.92 209.491 102.208 208.915 102.544V99.568C209.379 99.344 210.035 99.12 210.883 98.896C211.731 98.656 212.715 98.536 213.835 98.536C214.651 98.536 215.395 98.624 216.067 98.8C216.755 98.96 217.355 99.24 217.867 99.64C218.379 100.024 218.771 100.544 219.043 101.2C219.331 101.84 219.475 102.64 219.475 103.6V112H215.947ZM212.011 112.24C210.635 112.24 209.571 111.912 208.819 111.256C208.083 110.6 207.715 109.68 207.715 108.496C207.715 107.216 208.171 106.192 209.083 105.424C210.011 104.656 211.467 104.192 213.451 104.032L216.523 103.792V106.384L213.859 106.648C212.899 106.744 212.227 106.936 211.843 107.224C211.475 107.512 211.291 107.896 211.291 108.376C211.291 108.856 211.443 109.216 211.747 109.456C212.067 109.696 212.475 109.816 212.971 109.816C213.163 109.816 213.355 109.8 213.547 109.768C213.739 109.72 213.915 109.672 214.075 109.624L214.387 111.88C214.083 111.992 213.723 112.08 213.307 112.144C212.891 112.208 212.459 112.24 212.011 112.24ZM217.133 118.264V116.128C217.133 115.728 216.957 115.528 216.605 115.528C216.525 115.528 216.445 115.536 216.365 115.552C216.285 115.568 216.205 115.592 216.125 115.624L215.957 113.896C216.181 113.816 216.493 113.736 216.893 113.656C217.277 113.576 217.669 113.536 218.069 113.536C218.853 113.536 219.405 113.688 219.725 113.992C220.045 114.312 220.205 114.744 220.205 115.288V118.264H217.133ZM217.235 97.024V91.576H220.547V97.024H217.235ZM232.739 112.24C231.603 112.24 230.683 112.024 229.979 111.592C229.291 111.16 228.803 110.608 228.515 109.936H228.323L227.939 112H225.203V98.848H228.803V105.136C228.803 106.048 228.907 106.8 229.115 107.392C229.323 107.968 229.627 108.4 230.027 108.688C230.427 108.976 230.907 109.12 231.467 109.12C232.139 109.12 232.651 108.92 233.003 108.52C233.355 108.12 233.531 107.48 233.531 106.6V98.848H237.131V107.392C237.131 108.432 236.963 109.312 236.627 110.032C236.307 110.752 235.819 111.304 235.163 111.688C234.507 112.056 233.699 112.24 232.739 112.24ZM241.438 112V98.848H244.99V103.768H245.086L249.166 98.848H253.126V98.968L244.99 107.992V112H241.438ZM249.478 112V107.656C249.478 106.808 249.23 106.2 248.734 105.832C248.254 105.448 247.55 105.256 246.622 105.256L248.734 102.76C249.694 102.76 250.494 102.952 251.134 103.336C251.774 103.72 252.254 104.24 252.574 104.896C252.91 105.536 253.078 106.272 253.078 107.104V112H249.478ZM261.36 112.24C260.384 112.24 259.56 112.056 258.888 111.688C258.232 111.304 257.728 110.736 257.376 109.984C257.04 109.232 256.872 108.312 256.872 107.224V98.848H260.472V106.6C260.472 107.48 260.648 108.12 261 108.52C261.352 108.92 261.864 109.12 262.536 109.12C263.384 109.12 264.04 108.8 264.504 108.16C264.968 107.504 265.2 106.496 265.2 105.136V98.848H268.8V112H266.064L265.68 109.984H265.464C265.192 110.624 264.72 111.16 264.048 111.592C263.392 112.024 262.496 112.24 261.36 112.24ZM266.027 97.024C265.275 97.024 264.683 96.912 264.251 96.688C263.819 96.464 263.515 96.184 263.339 95.848C263.147 95.496 263.051 95.128 263.051 94.744C263.051 94.472 263.091 94.184 263.171 93.88C263.251 93.56 263.371 93.264 263.531 92.992L266.147 93.328C266.115 93.44 266.091 93.56 266.075 93.688C266.043 93.8 266.027 93.904 266.027 94C266.027 94.224 266.099 94.4 266.243 94.528C266.371 94.64 266.595 94.696 266.915 94.696H272.075V97.024H266.027ZM276.083 112L272.267 98.848H275.891L278.795 109.096H278.939C279.195 109.096 279.435 109.024 279.659 108.88C279.883 108.736 280.075 108.544 280.235 108.304C280.555 107.856 280.795 107.328 280.955 106.72C281.115 106.096 281.195 105.48 281.195 104.872C281.195 103.8 280.987 102.976 280.571 102.4C280.171 101.824 279.611 101.536 278.891 101.536C278.747 101.536 278.611 101.544 278.483 101.56C278.371 101.576 278.267 101.608 278.171 101.656L277.499 98.896C277.867 98.784 278.211 98.72 278.531 98.704C278.867 98.672 279.139 98.656 279.347 98.656C280.195 98.656 280.931 98.768 281.555 98.992C282.179 99.216 282.715 99.552 283.163 100C283.723 100.544 284.139 101.224 284.411 102.04C284.699 102.856 284.843 103.776 284.843 104.8C284.843 106.096 284.635 107.232 284.219 108.208C283.819 109.168 283.331 109.928 282.755 110.488C282.275 110.952 281.667 111.32 280.931 111.592C280.211 111.864 279.219 112 277.955 112H276.083ZM295.746 112V103.456C295.746 102.688 295.538 102.136 295.122 101.8C294.706 101.464 294.066 101.296 293.202 101.296C292.37 101.296 291.554 101.424 290.754 101.68C289.97 101.92 289.29 102.208 288.714 102.544V99.568C289.178 99.344 289.834 99.12 290.682 98.896C291.53 98.656 292.506 98.536 293.61 98.536C294.458 98.536 295.218 98.64 295.89 98.848C296.578 99.056 297.074 99.464 297.378 100.072C298.05 100.28 298.53 100.688 298.818 101.296C299.122 101.888 299.274 102.656 299.274 103.6V112H295.746ZM291.81 112.24C290.434 112.24 289.37 111.912 288.618 111.256C287.882 110.6 287.514 109.68 287.514 108.496C287.514 107.216 287.97 106.192 288.882 105.424C289.81 104.656 291.266 104.192 293.25 104.032L296.322 103.792V106.384L293.658 106.648C292.698 106.744 292.026 106.936 291.642 107.224C291.274 107.512 291.09 107.896 291.09 108.376C291.09 108.856 291.242 109.216 291.546 109.456C291.866 109.696 292.274 109.816 292.77 109.816C292.962 109.816 293.154 109.8 293.346 109.768C293.538 109.72 293.714 109.672 293.874 109.624L294.186 111.88C293.882 111.992 293.522 112.08 293.106 112.144C292.69 112.208 292.258 112.24 291.81 112.24ZM297.306 101.464L295.338 99.808C295.898 99.616 296.338 99.376 296.658 99.088C296.978 98.784 297.146 98.416 297.162 97.984H300.306C300.306 98.48 300.202 98.96 299.994 99.424C299.802 99.872 299.482 100.272 299.034 100.624C298.602 100.976 298.026 101.256 297.306 101.464ZM289.036 97.024V95.512L291.46 94.504H300.028V97.024H289.036ZM294.076 95.56V92.848H296.356V95.56H294.076ZM297.772 95.56V92.848H300.028V95.56H297.772ZM309.368 112.312C307.416 112.312 305.968 111.84 305.024 110.896C304.08 109.936 303.608 108.52 303.608 106.648C303.608 106.328 303.616 105.944 303.632 105.496C303.664 105.032 303.704 104.624 303.752 104.272H309.512V106.552H307.136V106.888C307.136 107.528 307.216 108.056 307.376 108.472C307.536 108.872 307.776 109.168 308.096 109.36C308.432 109.552 308.848 109.648 309.344 109.648C309.888 109.648 310.344 109.528 310.712 109.288C311.096 109.048 311.384 108.64 311.576 108.064C311.784 107.488 311.888 106.696 311.888 105.688C311.888 104.744 311.776 103.96 311.552 103.336C311.344 102.696 310.984 102.216 310.472 101.896C309.976 101.576 309.288 101.416 308.408 101.416C307.928 101.416 307.432 101.472 306.92 101.584C306.408 101.68 305.92 101.808 305.456 101.968C305.008 102.128 304.616 102.304 304.28 102.496V99.496C304.632 99.304 305.064 99.136 305.576 98.992C306.104 98.848 306.672 98.736 307.28 98.656C307.888 98.576 308.488 98.536 309.08 98.536C310.632 98.536 311.88 98.824 312.824 99.4C313.784 99.96 314.48 100.76 314.912 101.8C315.36 102.84 315.584 104.072 315.584 105.496C315.584 106.952 315.368 108.192 314.936 109.216C314.52 110.224 313.856 110.992 312.944 111.52C312.032 112.048 310.84 112.312 309.368 112.312Z" fill="#252525"/>
<path d="M140.642 170V162.88C140.642 162.24 140.469 161.78 140.122 161.5C139.776 161.22 139.242 161.08 138.522 161.08C137.829 161.08 137.149 161.187 136.482 161.4C135.829 161.6 135.262 161.84 134.782 162.12V159.64C135.169 159.453 135.716 159.267 136.422 159.08C137.129 158.88 137.942 158.78 138.862 158.78C139.569 158.78 140.202 158.867 140.762 159.04C141.336 159.213 141.749 159.553 142.002 160.06C142.562 160.233 142.962 160.573 143.202 161.08C143.456 161.573 143.582 162.213 143.582 163V170H140.642ZM137.362 170.2C136.216 170.2 135.329 169.927 134.702 169.38C134.089 168.833 133.782 168.067 133.782 167.08C133.782 166.013 134.162 165.16 134.922 164.52C135.696 163.88 136.909 163.493 138.562 163.36L141.122 163.16V165.32L138.902 165.54C138.102 165.62 137.542 165.78 137.222 166.02C136.916 166.26 136.762 166.58 136.762 166.98C136.762 167.38 136.889 167.68 137.142 167.88C137.409 168.08 137.749 168.18 138.162 168.18C138.322 168.18 138.482 168.167 138.642 168.14C138.802 168.1 138.949 168.06 139.082 168.02L139.342 169.9C139.089 169.993 138.789 170.067 138.442 170.12C138.096 170.173 137.736 170.2 137.362 170.2ZM141.942 161.22L140.302 159.84C140.769 159.68 141.136 159.48 141.402 159.24C141.669 158.987 141.809 158.68 141.822 158.32H144.442C144.442 158.733 144.356 159.133 144.182 159.52C144.022 159.893 143.756 160.227 143.382 160.52C143.022 160.813 142.542 161.047 141.942 161.22ZM142.15 157.96C141.39 157.96 140.784 157.787 140.33 157.44C139.877 157.093 139.65 156.607 139.65 155.98C139.65 155.353 139.877 154.867 140.33 154.52C140.784 154.173 141.39 154 142.15 154C142.91 154 143.524 154.173 143.99 154.52C144.444 154.867 144.67 155.353 144.67 155.98C144.67 156.607 144.444 157.093 143.99 157.44C143.524 157.787 142.91 157.96 142.15 157.96ZM142.15 156.8C142.444 156.8 142.67 156.727 142.83 156.58C142.99 156.433 143.07 156.233 143.07 155.98C143.07 155.727 142.99 155.527 142.83 155.38C142.67 155.233 142.444 155.16 142.15 155.16C141.87 155.16 141.65 155.233 141.49 155.38C141.33 155.527 141.25 155.727 141.25 155.98C141.25 156.233 141.33 156.433 141.49 156.58C141.65 156.727 141.87 156.8 142.15 156.8ZM150.534 170V162.76C150.534 162.2 150.4 161.793 150.134 161.54C149.88 161.287 149.46 161.16 148.874 161.16C148.434 161.16 148.027 161.22 147.654 161.34C147.294 161.46 146.954 161.607 146.634 161.78V159.38C146.927 159.247 147.34 159.113 147.874 158.98C148.407 158.847 149.034 158.78 149.754 158.78C150.487 158.78 151.134 158.887 151.694 159.1C152.267 159.313 152.714 159.673 153.034 160.18C153.367 160.673 153.534 161.353 153.534 162.22V170H150.534ZM157.105 170V159.04H160.065V163.14H160.145L163.545 159.04H166.845V159.14L160.065 166.66V170H157.105ZM163.805 170V166.38C163.805 165.673 163.598 165.167 163.185 164.86C162.785 164.54 162.198 164.38 161.425 164.38L163.185 162.3C163.985 162.3 164.652 162.46 165.185 162.78C165.718 163.1 166.118 163.533 166.385 164.08C166.665 164.613 166.805 165.227 166.805 165.92V170H163.805ZM173.726 170.26C172.94 170.26 172.146 170.173 171.346 170C170.56 169.827 169.86 169.58 169.246 169.26L170.086 166.88C170.353 167.027 170.673 167.18 171.046 167.34C171.42 167.5 171.826 167.633 172.266 167.74C172.706 167.847 173.153 167.9 173.606 167.9C174.14 167.9 174.54 167.827 174.806 167.68C175.086 167.52 175.226 167.28 175.226 166.96C175.226 166.72 175.133 166.527 174.946 166.38C174.773 166.22 174.513 166.073 174.166 165.94C173.82 165.793 173.406 165.64 172.926 165.48C172.22 165.227 171.613 164.953 171.106 164.66C170.6 164.367 170.206 164.007 169.926 163.58C169.66 163.153 169.526 162.62 169.526 161.98C169.526 161.247 169.713 160.647 170.086 160.18C170.46 159.713 170.986 159.367 171.666 159.14C172.346 158.9 173.14 158.78 174.046 158.78C174.793 158.78 175.466 158.84 176.066 158.96C176.666 159.08 177.133 159.233 177.466 159.42V161.78C177.24 161.673 176.94 161.567 176.566 161.46C176.206 161.353 175.813 161.267 175.386 161.2C174.973 161.12 174.573 161.08 174.186 161.08C173.64 161.08 173.226 161.153 172.946 161.3C172.666 161.447 172.526 161.653 172.526 161.92C172.526 162.133 172.62 162.313 172.806 162.46C173.006 162.607 173.293 162.747 173.666 162.88C174.04 163 174.486 163.153 175.006 163.34C175.7 163.58 176.286 163.847 176.766 164.14C177.246 164.433 177.606 164.793 177.846 165.22C178.1 165.647 178.226 166.173 178.226 166.8C178.226 167.4 178.086 167.967 177.806 168.5C177.54 169.02 177.08 169.447 176.426 169.78C175.773 170.1 174.873 170.26 173.726 170.26ZM175.252 157.52C174.626 157.52 174.132 157.427 173.772 157.24C173.412 157.053 173.159 156.82 173.012 156.54C172.852 156.247 172.772 155.94 172.772 155.62C172.772 155.393 172.806 155.153 172.872 154.9C172.939 154.633 173.039 154.387 173.172 154.16L175.352 154.44C175.326 154.533 175.306 154.633 175.292 154.74C175.266 154.833 175.252 154.92 175.252 155C175.252 155.187 175.312 155.333 175.432 155.44C175.539 155.533 175.726 155.58 175.992 155.58H180.292V157.52H175.252ZM186.458 170.26C184.725 170.26 183.465 169.86 182.678 169.06C181.905 168.247 181.518 167.073 181.518 165.54V159.04H184.518V165.7C184.518 166.407 184.671 166.947 184.978 167.32C185.298 167.68 185.791 167.86 186.458 167.86C187.125 167.86 187.611 167.68 187.918 167.32C188.238 166.947 188.398 166.407 188.398 165.7V159.04H191.398V165.54C191.398 167.073 191.005 168.247 190.218 169.06C189.445 169.86 188.191 170.26 186.458 170.26ZM194.974 170V159.04H197.934V163.14H198.014L201.414 159.04H204.714V159.14L197.934 166.66V170H194.974ZM201.674 170V166.38C201.674 165.673 201.467 165.167 201.054 164.86C200.654 164.54 200.067 164.38 199.294 164.38L201.054 162.3C201.854 162.3 202.52 162.46 203.054 162.78C203.587 163.1 203.987 163.533 204.254 164.08C204.534 164.613 204.674 165.227 204.674 165.92V170H201.674ZM211.575 170.2C210.762 170.2 210.075 170.047 209.515 169.74C208.968 169.42 208.548 168.947 208.255 168.32C207.975 167.693 207.835 166.927 207.835 166.02V159.04H210.835V165.5C210.835 166.233 210.982 166.767 211.275 167.1C211.568 167.433 211.995 167.6 212.555 167.6C213.262 167.6 213.808 167.333 214.195 166.8C214.582 166.253 214.775 165.413 214.775 164.28V159.04H217.775V170H215.495L215.175 168.32H214.995C214.768 168.853 214.375 169.3 213.815 169.66C213.268 170.02 212.522 170.2 211.575 170.2ZM215.465 157.52C214.838 157.52 214.345 157.427 213.985 157.24C213.625 157.053 213.372 156.82 213.225 156.54C213.065 156.247 212.985 155.94 212.985 155.62C212.985 155.393 213.018 155.153 213.085 154.9C213.152 154.633 213.252 154.387 213.385 154.16L215.565 154.44C215.538 154.533 215.518 154.633 215.505 154.74C215.478 154.833 215.465 154.92 215.465 155C215.465 155.187 215.525 155.333 215.645 155.44C215.752 155.533 215.938 155.58 216.205 155.58H220.505V157.52H215.465ZM223.845 170L220.665 159.04H223.685L226.105 167.58H226.225C226.438 167.58 226.638 167.52 226.825 167.4C227.012 167.28 227.172 167.12 227.305 166.92C227.572 166.547 227.772 166.107 227.905 165.6C228.038 165.08 228.105 164.567 228.105 164.06C228.105 163.167 227.932 162.48 227.585 162C227.252 161.52 226.785 161.28 226.185 161.28C226.065 161.28 225.952 161.287 225.845 161.3C225.752 161.313 225.665 161.34 225.585 161.38L225.025 159.08C225.332 158.987 225.618 158.933 225.885 158.92C226.165 158.893 226.392 158.88 226.565 158.88C227.272 158.88 227.885 158.973 228.405 159.16C228.925 159.347 229.372 159.627 229.745 160C230.212 160.453 230.558 161.02 230.785 161.7C231.025 162.38 231.145 163.147 231.145 164C231.145 165.08 230.972 166.027 230.625 166.84C230.292 167.64 229.885 168.273 229.405 168.74C229.005 169.127 228.498 169.433 227.885 169.66C227.285 169.887 226.458 170 225.405 170H223.845ZM240.231 170V162.88C240.231 162.24 240.057 161.78 239.711 161.5C239.364 161.22 238.831 161.08 238.111 161.08C237.417 161.08 236.737 161.187 236.071 161.4C235.417 161.6 234.851 161.84 234.371 162.12V159.64C234.757 159.453 235.304 159.267 236.011 159.08C236.717 158.88 237.531 158.78 238.451 158.78C239.157 158.78 239.791 158.867 240.351 159.04C240.924 159.213 241.337 159.553 241.591 160.06C242.151 160.233 242.551 160.573 242.791 161.08C243.044 161.573 243.171 162.213 243.171 163V170H240.231ZM236.951 170.2C235.804 170.2 234.917 169.927 234.291 169.38C233.677 168.833 233.371 168.067 233.371 167.08C233.371 166.013 233.751 165.16 234.511 164.52C235.284 163.88 236.497 163.493 238.151 163.36L240.711 163.16V165.32L238.491 165.54C237.691 165.62 237.131 165.78 236.811 166.02C236.504 166.26 236.351 166.58 236.351 166.98C236.351 167.38 236.477 167.68 236.731 167.88C236.997 168.08 237.337 168.18 237.751 168.18C237.911 168.18 238.071 168.167 238.231 168.14C238.391 168.1 238.537 168.06 238.671 168.02L238.931 169.9C238.677 169.993 238.377 170.067 238.031 170.12C237.684 170.173 237.324 170.2 236.951 170.2ZM241.531 161.22L239.891 159.84C240.357 159.68 240.724 159.48 240.991 159.24C241.257 158.987 241.397 158.68 241.411 158.32H244.031C244.031 158.733 243.944 159.133 243.771 159.52C243.611 159.893 243.344 160.227 242.971 160.52C242.611 160.813 242.131 161.047 241.531 161.22ZM234.639 157.52V156.26L236.659 155.42H243.799V157.52H234.639ZM238.839 156.3V154.04H240.739V156.3H238.839ZM241.919 156.3V154.04H243.799V156.3H241.919ZM251.582 170.26C249.955 170.26 248.749 169.867 247.962 169.08C247.175 168.28 246.782 167.1 246.782 165.54C246.782 165.273 246.789 164.953 246.802 164.58C246.829 164.193 246.862 163.853 246.902 163.56H251.702V165.46H249.722V165.74C249.722 166.273 249.789 166.713 249.922 167.06C250.055 167.393 250.255 167.64 250.522 167.8C250.802 167.96 251.149 168.04 251.562 168.04C252.015 168.04 252.395 167.94 252.702 167.74C253.022 167.54 253.262 167.2 253.422 166.72C253.595 166.24 253.682 165.58 253.682 164.74C253.682 163.953 253.589 163.3 253.402 162.78C253.229 162.247 252.929 161.847 252.502 161.58C252.089 161.313 251.515 161.18 250.782 161.18C250.382 161.18 249.969 161.227 249.542 161.32C249.115 161.4 248.709 161.507 248.322 161.64C247.949 161.773 247.622 161.92 247.342 162.08V159.58C247.635 159.42 247.995 159.28 248.422 159.16C248.862 159.04 249.335 158.947 249.842 158.88C250.349 158.813 250.849 158.78 251.342 158.78C252.635 158.78 253.675 159.02 254.462 159.5C255.262 159.967 255.842 160.633 256.202 161.5C256.575 162.367 256.762 163.393 256.762 164.58C256.762 165.793 256.582 166.827 256.222 167.68C255.875 168.52 255.322 169.16 254.562 169.6C253.802 170.04 252.809 170.26 251.582 170.26ZM260.357 161.04V157.78C260.357 156.98 260.211 156.407 259.917 156.06C259.624 155.713 259.184 155.54 258.597 155.54V154.34L260.617 153.38H265.717V155.54H262.357L262.337 155.62C262.684 155.833 262.937 156.14 263.097 156.54C263.271 156.94 263.357 157.467 263.357 158.12V161.04H260.357ZM263.137 170.2C262.537 170.2 262.031 170.107 261.617 169.92C261.204 169.733 260.891 169.453 260.677 169.08C260.464 168.693 260.357 168.213 260.357 167.64V159.04H263.357V167.28C263.357 167.533 263.411 167.72 263.517 167.84C263.637 167.96 263.817 168.02 264.057 168.02C264.164 168.02 264.277 168.007 264.397 167.98C264.517 167.953 264.631 167.92 264.737 167.88L265.017 169.8C264.764 169.933 264.477 170.033 264.157 170.1C263.837 170.167 263.497 170.2 263.137 170.2ZM268.013 170V165.4H266.873V163.56H270.713V167.72H270.853C271.293 167.72 271.667 167.6 271.973 167.36C272.293 167.12 272.533 166.767 272.693 166.3C272.853 165.82 272.933 165.22 272.933 164.5C272.933 163.673 272.813 163.02 272.573 162.54C272.347 162.047 272.007 161.693 271.553 161.48C271.1 161.267 270.54 161.16 269.873 161.16C269.18 161.16 268.553 161.26 267.993 161.46C267.433 161.647 266.933 161.873 266.493 162.14V159.64C266.933 159.413 267.487 159.213 268.153 159.04C268.82 158.867 269.587 158.78 270.453 158.78C271.747 158.78 272.793 158.987 273.593 159.4C274.407 159.813 275.007 160.44 275.393 161.28C275.78 162.12 275.973 163.173 275.973 164.44C275.973 165.627 275.793 166.64 275.433 167.48C275.087 168.307 274.513 168.933 273.713 169.36C272.927 169.787 271.873 170 270.553 170H268.013ZM279.025 170V159.04H281.225L281.625 160.76H281.785C282.012 160.213 282.405 159.76 282.965 159.4C283.525 159.027 284.252 158.84 285.145 158.84C285.999 158.84 286.705 158.993 287.265 159.3C287.825 159.593 288.245 160.047 288.525 160.66C288.819 161.26 288.965 162.02 288.965 162.94V170H285.965V163.54C285.965 162.793 285.812 162.26 285.505 161.94C285.212 161.607 284.779 161.44 284.205 161.44C283.739 161.44 283.339 161.567 283.005 161.82C282.685 162.073 282.439 162.447 282.265 162.94C282.105 163.42 282.025 164.027 282.025 164.76V170H279.025ZM296.996 170.26C295.796 170.26 294.836 170.12 294.116 169.84C293.396 169.547 292.87 169.14 292.536 168.62C292.216 168.1 292.056 167.5 292.056 166.82C292.056 166.233 292.143 165.76 292.316 165.4C292.503 165.04 292.736 164.767 293.016 164.58C293.31 164.38 293.603 164.247 293.896 164.18V164.06C293.59 163.953 293.296 163.807 293.016 163.62C292.736 163.433 292.503 163.18 292.316 162.86C292.143 162.54 292.056 162.14 292.056 161.66C292.056 161.167 292.17 160.707 292.396 160.28C292.636 159.853 293.016 159.513 293.536 159.26C294.056 158.993 294.743 158.86 295.596 158.86C296.01 158.86 296.41 158.893 296.796 158.96C297.183 159.013 297.483 159.093 297.696 159.2L297.236 161.22C297.13 161.193 296.983 161.167 296.796 161.14C296.623 161.1 296.443 161.08 296.256 161.08C295.843 161.08 295.536 161.18 295.336 161.38C295.136 161.567 295.036 161.813 295.036 162.12C295.036 162.44 295.123 162.687 295.296 162.86C295.47 163.033 295.69 163.153 295.956 163.22C296.236 163.287 296.523 163.32 296.816 163.32H297.236V165.18H296.816C296.243 165.18 295.81 165.28 295.516 165.48C295.236 165.68 295.096 166.007 295.096 166.46C295.096 166.7 295.15 166.94 295.256 167.18C295.376 167.407 295.576 167.6 295.856 167.76C296.136 167.907 296.536 167.98 297.056 167.98C297.55 167.98 297.936 167.907 298.216 167.76C298.496 167.613 298.696 167.42 298.816 167.18C298.936 166.927 298.996 166.647 298.996 166.34V159.04H301.996V166.24C301.996 167.613 301.59 168.627 300.776 169.28C299.976 169.933 298.716 170.26 296.996 170.26ZM298.854 157.96C298.747 157.773 298.661 157.533 298.594 157.24C298.514 156.947 298.474 156.653 298.474 156.36C298.474 155.987 298.547 155.647 298.694 155.34C298.827 155.033 299.074 154.793 299.434 154.62C299.781 154.433 300.261 154.34 300.874 154.34H303.774V156.36H301.854C301.601 156.36 301.407 156.407 301.274 156.5C301.127 156.58 301.054 156.733 301.054 156.96C301.054 157.053 301.067 157.153 301.094 157.26C301.121 157.353 301.161 157.453 301.214 157.56L298.854 157.96Z" fill="#252525"/>
<path d="M158 227C158 221.477 162.477 217 168 217H224V282H158V227Z" fill="#FEB800"/>
<path d="M168 282H224V338H178C172.477 338 168 333.523 168 328V282Z" fill="#B4B4B4"/>
<path d="M224 226H270C275.523 226 280 230.477 280 236V282H224V226Z" fill="#B4B4B4"/>
<path d="M224 282H280V328C280 333.523 275.523 338 270 338H224V282Z" fill="#B4B4B4"/>
<path d="M223.789 216V348.25" stroke="black" stroke-width="3" stroke-linecap="round"/>
<path d="M158 282.46H290.25" stroke="black" stroke-width="3" stroke-linecap="round"/>
<path d="M56 409.864C55.5417 409.864 55.1231 409.752 54.7443 409.528C54.3655 409.301 54.0625 408.998 53.8352 408.619C53.6117 408.241 53.5 407.822 53.5 407.364C53.5 406.902 53.6117 406.483 53.8352 406.108C54.0625 405.729 54.3655 405.428 54.7443 405.205C55.1231 404.977 55.5417 404.864 56 404.864C56.4621 404.864 56.8807 404.977 57.2557 405.205C57.6345 405.428 57.9356 405.729 58.1591 406.108C58.3864 406.483 58.5 406.902 58.5 407.364C58.5 407.822 58.3864 408.241 58.1591 408.619C57.9356 408.998 57.6345 409.301 57.2557 409.528C56.8807 409.752 56.4621 409.864 56 409.864ZM69.424 412V403.232H70.848V407.024H70.896L74.544 403.232H76.208V403.28L70.848 408.704V412H69.424ZM74.864 412V408.912C74.864 408.283 74.672 407.792 74.288 407.44C73.904 407.088 73.2693 406.912 72.384 406.912L73.216 405.872C73.888 405.872 74.448 405.995 74.896 406.24C75.3547 406.475 75.7013 406.816 75.936 407.264C76.1707 407.712 76.288 408.251 76.288 408.88V412H74.864ZM82.1906 412.16C81.5613 412.16 81.0173 412.053 80.5586 411.84C80.1106 411.616 79.764 411.28 79.5186 410.832C79.284 410.384 79.1666 409.803 79.1666 409.088V403.232H80.5906V409.008C80.5906 409.648 80.7506 410.133 81.0706 410.464C81.4013 410.795 81.876 410.96 82.4946 410.96C83.2413 410.96 83.8173 410.72 84.2226 410.24C84.6386 409.76 84.8466 409.115 84.8466 408.304V403.232H86.2706V412H85.0866L85.0226 410.704H84.9426C84.7506 411.131 84.4146 411.483 83.9346 411.76C83.4653 412.027 82.884 412.16 82.1906 412.16ZM84.7071 401.84C84.2591 401.84 83.9018 401.776 83.6351 401.648C83.3685 401.52 83.1765 401.355 83.0591 401.152C82.9311 400.949 82.8671 400.736 82.8671 400.512C82.8671 400.352 82.8938 400.181 82.9471 400C82.9898 399.808 83.0485 399.653 83.1231 399.536L84.3231 399.744C84.3018 399.787 84.2805 399.861 84.2591 399.968C84.2378 400.064 84.2271 400.155 84.2271 400.24C84.2271 400.379 84.2698 400.501 84.3551 400.608C84.4405 400.704 84.5845 400.752 84.7871 400.752H88.8351V401.84H84.7071ZM91.3791 412L88.6431 403.232H90.0831L92.4511 410.768H92.6431C92.8991 410.768 93.1498 410.709 93.3951 410.592C93.6405 410.464 93.8485 410.304 94.0191 410.112C94.3391 409.76 94.5738 409.317 94.7231 408.784C94.8725 408.24 94.9471 407.707 94.9471 407.184C94.9471 406.299 94.7445 405.605 94.3391 405.104C93.9445 404.592 93.3951 404.336 92.6911 404.336C92.5525 404.336 92.4138 404.347 92.2751 404.368C92.1471 404.389 92.0405 404.416 91.9551 404.448L91.6031 403.312C91.8271 403.248 92.0351 403.205 92.2271 403.184C92.4298 403.163 92.6111 403.152 92.7711 403.152C93.3045 403.152 93.7791 403.232 94.1951 403.392C94.6218 403.541 94.9845 403.765 95.2831 404.064C95.6565 404.427 95.9285 404.88 96.0991 405.424C96.2805 405.968 96.3711 406.571 96.3711 407.232C96.3711 408.064 96.2431 408.805 95.9871 409.456C95.7311 410.096 95.4111 410.608 95.0271 410.992C94.7178 411.301 94.3391 411.547 93.8911 411.728C93.4431 411.909 92.8725 412 92.1791 412H91.3791ZM104.149 412V406.16C104.149 405.467 103.989 404.976 103.669 404.688C103.36 404.389 102.837 404.24 102.101 404.24C101.568 404.24 101.056 404.315 100.565 404.464C100.085 404.603 99.6262 404.8 99.1889 405.056V403.728C99.4982 403.568 99.9142 403.419 100.437 403.28C100.97 403.141 101.568 403.072 102.229 403.072C102.794 403.072 103.274 403.136 103.669 403.264C104.074 403.392 104.373 403.627 104.565 403.968C104.938 404.139 105.194 404.405 105.333 404.768C105.482 405.131 105.557 405.568 105.557 406.08V412H104.149ZM101.397 412.16C100.458 412.16 99.7382 411.947 99.2369 411.52C98.7462 411.083 98.5009 410.459 98.5009 409.648C98.5009 408.763 98.8209 408.08 99.4609 407.6C100.112 407.12 101.162 406.837 102.613 406.752L104.437 406.64V407.824L102.805 407.936C101.717 408.011 100.965 408.181 100.549 408.448C100.144 408.715 99.9409 409.104 99.9409 409.616C99.9409 410.096 100.09 410.448 100.389 410.672C100.698 410.896 101.125 411.008 101.669 411.008C101.85 411.008 102.016 410.997 102.165 410.976C102.314 410.944 102.458 410.907 102.597 410.864L102.821 411.936C102.618 412.011 102.394 412.064 102.149 412.096C101.914 412.139 101.664 412.16 101.397 412.16ZM104.517 404.464L103.717 403.712C103.994 403.669 104.256 403.563 104.501 403.392C104.746 403.221 104.869 402.976 104.869 402.656H106.261C106.261 402.987 106.181 403.28 106.021 403.536C105.872 403.781 105.664 403.984 105.397 404.144C105.13 404.293 104.837 404.4 104.517 404.464ZM99.2385 401.84V401.216L100.407 400.704H106.039V401.84H99.2385ZM102.535 401.216V399.408H103.719V401.216H102.535ZM104.871 401.216V399.408H106.039V401.216H104.871ZM112.233 412.16C111.081 412.16 110.217 411.861 109.641 411.264C109.076 410.656 108.793 409.707 108.793 408.416C108.793 408.203 108.798 407.973 108.809 407.728C108.83 407.472 108.852 407.221 108.873 406.976H112.233V408.096H110.217V408.416C110.217 409.088 110.292 409.616 110.441 410C110.59 410.373 110.809 410.635 111.097 410.784C111.396 410.933 111.764 411.008 112.201 411.008C112.681 411.008 113.097 410.917 113.449 410.736C113.801 410.555 114.073 410.224 114.265 409.744C114.457 409.264 114.553 408.576 114.553 407.68C114.553 406.891 114.468 406.245 114.297 405.744C114.126 405.243 113.844 404.869 113.449 404.624C113.065 404.379 112.542 404.256 111.881 404.256C111.54 404.256 111.209 404.288 110.889 404.352C110.569 404.405 110.26 404.491 109.961 404.608C109.662 404.715 109.369 404.853 109.081 405.024V403.696C109.294 403.579 109.556 403.477 109.865 403.392C110.174 403.296 110.516 403.221 110.889 403.168C111.262 403.104 111.652 403.072 112.057 403.072C112.996 403.072 113.753 403.264 114.329 403.648C114.916 404.021 115.342 404.555 115.609 405.248C115.876 405.931 116.009 406.741 116.009 407.68C116.009 408.619 115.886 409.424 115.641 410.096C115.396 410.768 114.996 411.28 114.441 411.632C113.897 411.984 113.161 412.16 112.233 412.16ZM118.845 412V403.232H119.837L120.093 404.624H120.157C120.338 404.144 120.669 403.765 121.149 403.488C121.629 403.211 122.21 403.072 122.893 403.072C123.533 403.072 124.077 403.184 124.525 403.408C124.983 403.621 125.335 403.952 125.581 404.4C125.826 404.848 125.949 405.429 125.949 406.144V412H124.525V406.224C124.525 405.584 124.365 405.099 124.045 404.768C123.725 404.437 123.25 404.272 122.621 404.272C122.119 404.272 121.693 404.389 121.341 404.624C120.989 404.859 120.722 405.179 120.541 405.584C120.359 405.979 120.269 406.427 120.269 406.928V412H118.845ZM119.46 401.84V401.216L120.628 400.704H126.26V401.84H119.46ZM124.932 401.216V399.408H126.276V401.216H124.932ZM125.396 398.464V395.856H126.756V398.464H125.396ZM134.211 412.16C133.528 412.16 132.936 412.027 132.435 411.76C131.944 411.483 131.608 411.099 131.427 410.608H131.363L131.283 412H130.115V403.232H131.539V408.304C131.539 408.837 131.629 409.307 131.811 409.712C132.003 410.107 132.275 410.416 132.627 410.64C132.989 410.853 133.421 410.96 133.923 410.96C134.552 410.96 135.021 410.795 135.331 410.464C135.64 410.133 135.795 409.648 135.795 409.008V403.232H137.219V409.104C137.219 409.808 137.096 410.384 136.851 410.832C136.616 411.28 136.275 411.616 135.827 411.84C135.379 412.053 134.84 412.16 134.211 412.16ZM130.9 401.84V401.216L132.068 400.704H137.7V401.84H130.9ZM136.372 401.216V399.408H137.716V401.216H136.372ZM141.239 404.832V401.696C141.239 401.056 141.084 400.597 140.775 400.32C140.476 400.043 140.092 399.904 139.623 399.904V399.296L140.807 398.784H145.079V399.904H141.831L141.815 399.968C142.049 400.128 142.247 400.373 142.407 400.704C142.577 401.024 142.663 401.445 142.663 401.968V404.832H141.239ZM142.983 412.16C142.695 412.16 142.417 412.112 142.151 412.016C141.884 411.92 141.665 411.749 141.495 411.504C141.324 411.259 141.239 410.917 141.239 410.48V403.232H142.663V410.304C142.663 410.549 142.716 410.725 142.823 410.832C142.929 410.939 143.1 410.992 143.335 410.992C143.431 410.992 143.532 410.981 143.639 410.96C143.745 410.939 143.847 410.912 143.943 410.88L144.135 411.92C143.932 412.016 143.735 412.08 143.543 412.112C143.351 412.144 143.164 412.16 142.983 412.16ZM146.764 412V408.096H145.548V406.976H148.124V410.848H148.332C148.812 410.848 149.212 410.741 149.532 410.528C149.852 410.315 150.092 409.968 150.252 409.488C150.412 409.008 150.492 408.373 150.492 407.584C150.492 406.795 150.401 406.155 150.22 405.664C150.049 405.173 149.767 404.816 149.372 404.592C148.988 404.368 148.465 404.256 147.804 404.256C147.303 404.256 146.817 404.325 146.348 404.464C145.889 404.592 145.447 404.795 145.02 405.072V403.744C145.34 403.552 145.761 403.392 146.284 403.264C146.807 403.136 147.372 403.072 147.98 403.072C148.951 403.072 149.724 403.253 150.3 403.616C150.887 403.968 151.308 404.48 151.564 405.152C151.82 405.824 151.948 406.64 151.948 407.6C151.948 408.528 151.82 409.323 151.564 409.984C151.319 410.635 150.913 411.136 150.348 411.488C149.793 411.829 149.047 412 148.108 412H146.764ZM154.752 412V403.232H155.744L156 404.624H156.064C156.245 404.144 156.576 403.765 157.056 403.488C157.536 403.211 158.117 403.072 158.8 403.072C159.44 403.072 159.984 403.184 160.432 403.408C160.89 403.621 161.242 403.952 161.488 404.4C161.733 404.848 161.856 405.429 161.856 406.144V412H160.432V406.224C160.432 405.584 160.272 405.099 159.952 404.768C159.632 404.437 159.157 404.272 158.528 404.272C158.026 404.272 157.6 404.389 157.248 404.624C156.896 404.859 156.629 405.179 156.448 405.584C156.266 405.979 156.176 406.427 156.176 406.928V412H154.752ZM168.309 412.144C167.445 412.144 166.752 412.032 166.229 411.808C165.717 411.584 165.344 411.269 165.109 410.864C164.885 410.459 164.773 409.979 164.773 409.424C164.773 408.933 164.843 408.544 164.981 408.256C165.131 407.957 165.312 407.739 165.525 407.6C165.749 407.461 165.979 407.371 166.213 407.328V407.264C166 407.2 165.776 407.093 165.541 406.944C165.307 406.795 165.109 406.587 164.949 406.32C164.8 406.053 164.725 405.717 164.725 405.312C164.725 404.939 164.811 404.587 164.981 404.256C165.152 403.925 165.429 403.653 165.813 403.44C166.197 403.227 166.704 403.12 167.333 403.12C167.589 403.12 167.856 403.141 168.133 403.184C168.411 403.216 168.624 403.275 168.773 403.36L168.517 404.464C168.4 404.421 168.245 404.384 168.053 404.352C167.872 404.309 167.68 404.288 167.477 404.288C167.029 404.288 166.699 404.395 166.485 404.608C166.272 404.811 166.165 405.083 166.165 405.424C166.165 405.797 166.256 406.08 166.437 406.272C166.629 406.464 166.869 406.597 167.157 406.672C167.456 406.736 167.765 406.768 168.085 406.768H168.389V407.808H168.085C167.445 407.808 166.971 407.925 166.661 408.16C166.363 408.384 166.213 408.763 166.213 409.296C166.213 409.605 166.272 409.888 166.389 410.144C166.517 410.4 166.731 410.603 167.029 410.752C167.339 410.901 167.765 410.976 168.309 410.976C168.853 410.976 169.275 410.901 169.573 410.752C169.883 410.603 170.101 410.389 170.229 410.112C170.357 409.824 170.421 409.483 170.421 409.088V403.232H171.845V408.992C171.845 410.112 171.557 410.917 170.981 411.408C170.416 411.899 169.525 412.144 168.309 412.144ZM169.694 402.304C169.62 402.187 169.561 402.037 169.518 401.856C169.465 401.664 169.438 401.477 169.438 401.296C169.438 401.072 169.486 400.864 169.582 400.672C169.678 400.469 169.849 400.304 170.094 400.176C170.34 400.048 170.681 399.984 171.118 399.984H173.31V401.088H171.486C171.273 401.088 171.102 401.131 170.974 401.216C170.846 401.291 170.782 401.424 170.782 401.616C170.782 401.691 170.798 401.771 170.83 401.856C170.852 401.941 170.884 402.027 170.926 402.112L169.694 402.304ZM175.522 412V403.232H176.946V407.024H176.994L180.642 403.232H182.306V403.28L176.946 408.704V412H175.522ZM180.962 412V408.912C180.962 408.283 180.77 407.792 180.386 407.44C180.002 407.088 179.367 406.912 178.482 406.912L179.314 405.872C179.986 405.872 180.546 405.995 180.994 406.24C181.452 406.475 181.799 406.816 182.034 407.264C182.268 407.712 182.386 408.251 182.386 408.88V412H180.962ZM190.4 412V406.16C190.4 405.467 190.24 404.976 189.92 404.688C189.611 404.389 189.088 404.24 188.352 404.24C187.819 404.24 187.307 404.315 186.816 404.464C186.336 404.603 185.877 404.8 185.44 405.056V403.728C185.749 403.568 186.165 403.419 186.688 403.28C187.221 403.141 187.819 403.072 188.48 403.072C189.045 403.072 189.536 403.136 189.952 403.264C190.368 403.381 190.709 403.563 190.976 403.808C191.253 404.053 191.461 404.368 191.6 404.752C191.739 405.125 191.808 405.568 191.808 406.08V412H190.4ZM187.648 412.16C186.709 412.16 185.989 411.947 185.488 411.52C184.997 411.083 184.752 410.459 184.752 409.648C184.752 408.763 185.072 408.08 185.712 407.6C186.363 407.12 187.413 406.837 188.864 406.752L190.688 406.64V407.824L189.056 407.936C187.968 408.011 187.216 408.181 186.8 408.448C186.395 408.715 186.192 409.104 186.192 409.616C186.192 410.096 186.341 410.448 186.64 410.672C186.949 410.896 187.376 411.008 187.92 411.008C188.101 411.008 188.267 410.997 188.416 410.976C188.565 410.944 188.709 410.907 188.848 410.864L189.072 411.936C188.869 412.011 188.645 412.064 188.4 412.096C188.165 412.139 187.915 412.16 187.648 412.16ZM197.365 412V405.776C197.365 405.253 197.242 404.869 196.997 404.624C196.762 404.379 196.362 404.256 195.797 404.256C195.413 404.256 195.05 404.309 194.709 404.416C194.378 404.512 194.058 404.651 193.749 404.832V403.552C193.962 403.445 194.266 403.339 194.661 403.232C195.055 403.125 195.525 403.072 196.069 403.072C196.623 403.072 197.103 403.152 197.509 403.312C197.914 403.472 198.229 403.739 198.453 404.112C198.677 404.475 198.789 404.96 198.789 405.568V412H197.365ZM201.785 412V408.96C201.785 408.288 201.934 407.803 202.233 407.504C202.531 407.195 202.91 406.981 203.369 406.864L203.385 406.816L201.625 406.144V405.616C201.625 405.179 201.769 404.768 202.057 404.384C202.345 403.989 202.755 403.675 203.289 403.44C203.833 403.195 204.478 403.072 205.225 403.072C205.875 403.072 206.478 403.179 207.033 403.392C207.587 403.595 208.03 403.92 208.361 404.368C208.702 404.805 208.873 405.381 208.873 406.096V412H207.449V406.24C207.449 405.525 207.23 405.019 206.793 404.72C206.366 404.411 205.838 404.256 205.209 404.256C204.558 404.256 204.041 404.395 203.657 404.672C203.273 404.939 203.081 405.28 203.081 405.696L204.809 406.56L204.681 407.328C204.286 407.328 203.939 407.461 203.641 407.728C203.353 407.984 203.209 408.395 203.209 408.96V412H201.785ZM212.067 412V403.232H213.491V407.024H213.539L217.187 403.232H218.851V403.28L213.491 408.704V412H212.067ZM217.507 412V408.912C217.507 408.283 217.315 407.792 216.931 407.44C216.547 407.088 215.912 406.912 215.027 406.912L215.859 405.872C216.531 405.872 217.091 405.995 217.539 406.24C217.997 406.475 218.344 406.816 218.579 407.264C218.813 407.712 218.931 408.251 218.931 408.88V412H217.507ZM226.945 412V406.16C226.945 405.467 226.785 404.976 226.465 404.688C226.156 404.389 225.633 404.24 224.897 404.24C224.364 404.24 223.852 404.315 223.361 404.464C222.881 404.603 222.422 404.8 221.985 405.056V403.728C222.294 403.568 222.71 403.419 223.233 403.28C223.766 403.141 224.364 403.072 225.025 403.072C225.59 403.072 226.081 403.136 226.497 403.264C226.913 403.381 227.254 403.563 227.521 403.808C227.798 404.053 228.006 404.368 228.145 404.752C228.284 405.125 228.353 405.568 228.353 406.08V412H226.945ZM224.193 412.16C223.254 412.16 222.534 411.947 222.033 411.52C221.542 411.083 221.297 410.459 221.297 409.648C221.297 408.763 221.617 408.08 222.257 407.6C222.908 407.12 223.958 406.837 225.409 406.752L227.233 406.64V407.824L225.601 407.936C224.513 408.011 223.761 408.181 223.345 408.448C222.94 408.715 222.737 409.104 222.737 409.616C222.737 410.096 222.886 410.448 223.185 410.672C223.494 410.896 223.921 411.008 224.465 411.008C224.646 411.008 224.812 410.997 224.961 410.976C225.11 410.944 225.254 410.907 225.393 410.864L225.617 411.936C225.414 412.011 225.19 412.064 224.945 412.096C224.71 412.139 224.46 412.16 224.193 412.16ZM233.91 412V405.776C233.91 405.253 233.787 404.869 233.542 404.624C233.307 404.379 232.907 404.256 232.342 404.256C231.958 404.256 231.595 404.309 231.254 404.416C230.923 404.512 230.603 404.651 230.294 404.832V403.552C230.507 403.445 230.811 403.339 231.206 403.232C231.6 403.125 232.07 403.072 232.614 403.072C233.168 403.072 233.648 403.152 234.054 403.312C234.459 403.472 234.774 403.739 234.998 404.112C235.222 404.475 235.334 404.96 235.334 405.568V412H233.91ZM241.786 412.144C240.922 412.144 240.228 412.032 239.706 411.808C239.194 411.584 238.82 411.269 238.586 410.864C238.362 410.459 238.25 409.979 238.25 409.424C238.25 408.933 238.319 408.544 238.458 408.256C238.607 407.957 238.788 407.739 239.002 407.6C239.226 407.461 239.455 407.371 239.69 407.328V407.264C239.476 407.2 239.252 407.093 239.018 406.944C238.783 406.795 238.586 406.587 238.426 406.32C238.276 406.053 238.202 405.717 238.202 405.312C238.202 404.939 238.287 404.587 238.458 404.256C238.628 403.925 238.906 403.653 239.29 403.44C239.674 403.227 240.18 403.12 240.81 403.12C241.066 403.12 241.332 403.141 241.61 403.184C241.887 403.216 242.1 403.275 242.25 403.36L241.994 404.464C241.876 404.421 241.722 404.384 241.53 404.352C241.348 404.309 241.156 404.288 240.954 404.288C240.506 404.288 240.175 404.395 239.962 404.608C239.748 404.811 239.642 405.083 239.642 405.424C239.642 405.797 239.732 406.08 239.914 406.272C240.106 406.464 240.346 406.597 240.634 406.672C240.932 406.736 241.242 406.768 241.562 406.768H241.866V407.808H241.562C240.922 407.808 240.447 407.925 240.138 408.16C239.839 408.384 239.69 408.763 239.69 409.296C239.69 409.605 239.748 409.888 239.866 410.144C239.994 410.4 240.207 410.603 240.506 410.752C240.815 410.901 241.242 410.976 241.786 410.976C242.33 410.976 242.751 410.901 243.05 410.752C243.359 410.603 243.578 410.389 243.706 410.112C243.834 409.824 243.898 409.483 243.898 409.088V403.232H245.322V408.992C245.322 410.112 245.034 410.917 244.458 411.408C243.892 411.899 243.002 412.144 241.786 412.144ZM250.374 412.16C250.086 412.16 249.808 412.112 249.542 412.016C249.275 411.92 249.056 411.749 248.886 411.504C248.715 411.259 248.63 410.917 248.63 410.48V403.232H250.054V410.304C250.054 410.549 250.107 410.725 250.214 410.832C250.32 410.939 250.491 410.992 250.726 410.992C250.822 410.992 250.923 410.981 251.03 410.96C251.136 410.939 251.238 410.912 251.334 410.88L251.526 411.92C251.323 412.016 251.126 412.08 250.934 412.112C250.742 412.144 250.555 412.16 250.374 412.16ZM254.742 412.16C254.454 412.16 254.176 412.112 253.91 412.016C253.643 411.92 253.424 411.749 253.254 411.504C253.083 411.259 252.998 410.917 252.998 410.48V403.232H254.422V410.304C254.422 410.549 254.475 410.725 254.582 410.832C254.688 410.939 254.859 410.992 255.094 410.992C255.19 410.992 255.291 410.981 255.398 410.96C255.504 410.939 255.606 410.912 255.702 410.88L255.894 411.92C255.691 412.016 255.494 412.08 255.302 412.112C255.11 412.144 254.923 412.16 254.742 412.16ZM262.943 412V406.16C262.943 405.467 262.783 404.976 262.463 404.688C262.154 404.389 261.631 404.24 260.895 404.24C260.362 404.24 259.85 404.315 259.359 404.464C258.879 404.603 258.421 404.8 257.983 405.056V403.728C258.293 403.568 258.709 403.419 259.231 403.28C259.765 403.141 260.362 403.072 261.023 403.072C261.589 403.072 262.079 403.136 262.495 403.264C262.911 403.381 263.253 403.563 263.519 403.808C263.797 404.053 264.005 404.368 264.143 404.752C264.282 405.125 264.351 405.568 264.351 406.08V412H262.943ZM260.191 412.16C259.253 412.16 258.533 411.947 258.031 411.52C257.541 411.083 257.295 410.459 257.295 409.648C257.295 408.763 257.615 408.08 258.255 407.6C258.906 407.12 259.957 406.837 261.407 406.752L263.231 406.64V407.824L261.599 407.936C260.511 408.011 259.759 408.181 259.343 408.448C258.938 408.715 258.735 409.104 258.735 409.616C258.735 410.096 258.885 410.448 259.183 410.672C259.493 410.896 259.919 411.008 260.463 411.008C260.645 411.008 260.81 410.997 260.959 410.976C261.109 410.944 261.253 410.907 261.391 410.864L261.615 411.936C261.413 412.011 261.189 412.064 260.943 412.096C260.709 412.139 260.458 412.16 260.191 412.16ZM268.58 406.496C268.143 406.496 267.785 406.432 267.508 406.304C267.241 406.165 267.049 405.995 266.932 405.792C266.815 405.579 266.756 405.355 266.756 405.12C266.756 404.96 266.777 404.795 266.82 404.624C266.873 404.453 266.937 404.309 267.012 404.192L268.212 404.384C268.191 404.437 268.164 404.512 268.132 404.608C268.111 404.704 268.1 404.8 268.1 404.896C268.1 405.035 268.137 405.152 268.212 405.248C268.287 405.333 268.425 405.376 268.628 405.376H270.916V406.496H268.58ZM268.58 410.976C268.143 410.976 267.785 410.912 267.508 410.784C267.241 410.645 267.049 410.475 266.932 410.272C266.815 410.059 266.756 409.835 266.756 409.6C266.756 409.44 266.777 409.275 266.82 409.104C266.873 408.933 266.937 408.789 267.012 408.672L268.212 408.864C268.191 408.917 268.164 408.992 268.132 409.088C268.111 409.184 268.1 409.28 268.1 409.376C268.1 409.515 268.137 409.632 268.212 409.728C268.287 409.813 268.425 409.856 268.628 409.856H270.916V410.976H268.58ZM273.778 404.832V401.968C273.778 401.563 273.815 401.237 273.89 400.992C273.965 400.736 274.066 400.528 274.194 400.368C274.322 400.208 274.461 400.075 274.61 399.968L274.594 399.904H271.81L272.178 398.784H276.69V399.904C276.295 399.904 275.949 400.032 275.65 400.288C275.351 400.544 275.202 401.013 275.202 401.696V404.832H273.778ZM275.522 412.16C275.234 412.16 274.957 412.112 274.69 412.016C274.423 411.92 274.205 411.749 274.034 411.504C273.863 411.259 273.778 410.917 273.778 410.48V403.232H275.202V410.304C275.202 410.549 275.255 410.725 275.362 410.832C275.469 410.939 275.639 410.992 275.874 410.992C275.97 410.992 276.071 410.981 276.178 410.96C276.285 410.939 276.386 410.912 276.482 410.88L276.674 411.92C276.471 412.016 276.274 412.08 276.082 412.112C275.89 412.144 275.703 412.16 275.522 412.16ZM282.877 412.16C282.195 412.16 281.603 412.027 281.101 411.76C280.611 411.483 280.275 411.099 280.093 410.608H280.029L279.949 412H278.781V403.232H280.205V408.304C280.205 408.837 280.296 409.307 280.477 409.712C280.669 410.107 280.941 410.416 281.293 410.64C281.656 410.853 282.088 410.96 282.589 410.96C283.219 410.96 283.688 410.795 283.997 410.464C284.307 410.133 284.461 409.648 284.461 409.008V403.232H285.885V409.104C285.885 409.808 285.763 410.384 285.517 410.832C285.283 411.28 284.941 411.616 284.493 411.84C284.045 412.053 283.507 412.16 282.877 412.16ZM284.943 401.84V398.464H286.351V401.84H284.943ZM292.818 412.144C291.954 412.144 291.26 412.032 290.738 411.808C290.226 411.584 289.852 411.269 289.618 410.864C289.394 410.459 289.282 409.979 289.282 409.424C289.282 408.933 289.351 408.544 289.49 408.256C289.639 407.957 289.82 407.739 290.034 407.6C290.258 407.461 290.487 407.371 290.722 407.328V407.264C290.508 407.2 290.284 407.093 290.05 406.944C289.815 406.795 289.618 406.587 289.458 406.32C289.308 406.053 289.234 405.717 289.234 405.312C289.234 404.939 289.319 404.587 289.49 404.256C289.66 403.925 289.938 403.653 290.322 403.44C290.706 403.227 291.212 403.12 291.842 403.12C292.098 403.12 292.364 403.141 292.642 403.184C292.919 403.216 293.132 403.275 293.282 403.36L293.026 404.464C292.908 404.421 292.754 404.384 292.562 404.352C292.38 404.309 292.188 404.288 291.986 404.288C291.538 404.288 291.207 404.395 290.994 404.608C290.78 404.811 290.674 405.083 290.674 405.424C290.674 405.797 290.764 406.08 290.946 406.272C291.138 406.464 291.378 406.597 291.666 406.672C291.964 406.736 292.274 406.768 292.594 406.768H292.898V407.808H292.594C291.954 407.808 291.479 407.925 291.17 408.16C290.871 408.384 290.722 408.763 290.722 409.296C290.722 409.605 290.78 409.888 290.898 410.144C291.026 410.4 291.239 410.603 291.538 410.752C291.847 410.901 292.274 410.976 292.818 410.976C293.362 410.976 293.783 410.901 294.082 410.752C294.391 410.603 294.61 410.389 294.738 410.112C294.866 409.824 294.93 409.483 294.93 409.088V403.232H296.354V408.992C296.354 410.112 296.066 410.917 295.49 411.408C294.924 411.899 294.034 412.144 292.818 412.144ZM301.902 412V405.776C301.902 405.253 301.779 404.869 301.534 404.624C301.299 404.379 300.899 404.256 300.334 404.256C299.95 404.256 299.587 404.309 299.246 404.416C298.915 404.512 298.595 404.651 298.286 404.832V403.552C298.499 403.445 298.803 403.339 299.198 403.232C299.592 403.125 300.062 403.072 300.606 403.072C301.16 403.072 301.64 403.152 302.046 403.312C302.451 403.472 302.766 403.739 302.99 404.112C303.214 404.475 303.326 404.96 303.326 405.568V412H301.902ZM306.322 412V408.96C306.322 408.288 306.471 407.803 306.77 407.504C307.068 407.195 307.447 406.981 307.906 406.864L307.922 406.816L306.162 406.144V405.616C306.162 405.179 306.306 404.768 306.594 404.384C306.882 403.989 307.292 403.675 307.826 403.44C308.37 403.195 309.015 403.072 309.762 403.072C310.412 403.072 311.015 403.179 311.57 403.392C312.124 403.595 312.567 403.92 312.898 404.368C313.239 404.805 313.41 405.381 313.41 406.096V412H311.986V406.24C311.986 405.525 311.767 405.019 311.33 404.72C310.903 404.411 310.375 404.256 309.746 404.256C309.095 404.256 308.578 404.395 308.194 404.672C307.81 404.939 307.618 405.28 307.618 405.696L309.346 406.56L309.218 407.328C308.823 407.328 308.476 407.461 308.178 407.728C307.89 407.984 307.746 408.395 307.746 408.96V412H306.322ZM56 441.864C55.5417 441.864 55.1231 441.752 54.7443 441.528C54.3655 441.301 54.0625 440.998 53.8352 440.619C53.6117 440.241 53.5 439.822 53.5 439.364C53.5 438.902 53.6117 438.483 53.8352 438.108C54.0625 437.729 54.3655 437.428 54.7443 437.205C55.1231 436.977 55.5417 436.864 56 436.864C56.4621 436.864 56.8807 436.977 57.2557 437.205C57.6345 437.428 57.9356 437.729 58.1591 438.108C58.3864 438.483 58.5 438.902 58.5 439.364C58.5 439.822 58.3864 440.241 58.1591 440.619C57.9356 440.998 57.6345 441.301 57.2557 441.528C56.8807 441.752 56.4621 441.864 56 441.864ZM71.28 444.16C70.992 444.16 70.7147 444.112 70.448 444.016C70.1813 443.92 69.9627 443.749 69.792 443.504C69.6213 443.259 69.536 442.917 69.536 442.48V435.232H70.96V442.304C70.96 442.549 71.0133 442.725 71.12 442.832C71.2267 442.939 71.3973 442.992 71.632 442.992C71.728 442.992 71.8293 442.981 71.936 442.96C72.0427 442.939 72.144 442.912 72.24 442.88L72.432 443.92C72.2293 444.016 72.032 444.08 71.84 444.112C71.648 444.144 71.4613 444.16 71.28 444.16ZM74.6227 444V435.232H76.0467V439.024H76.0947L79.7427 435.232H81.4067V435.28L76.0467 440.704V444H74.6227ZM80.0627 444V440.912C80.0627 440.283 79.8707 439.792 79.4867 439.44C79.1027 439.088 78.4681 438.912 77.5827 438.912L78.4147 437.872C79.0867 437.872 79.6467 437.995 80.0947 438.24C80.5534 438.475 80.9001 438.816 81.1347 439.264C81.3694 439.712 81.4867 440.251 81.4867 440.88V444H80.0627ZM88.5894 444.16C87.9067 444.16 87.3147 444.027 86.8134 443.76C86.3227 443.483 85.9867 443.099 85.8054 442.608H85.7414L85.6614 444H84.4934V435.232H85.9174V440.304C85.9174 440.837 86.008 441.307 86.1894 441.712C86.3814 442.107 86.6534 442.416 87.0054 442.64C87.368 442.853 87.8 442.96 88.3014 442.96C88.9307 442.96 89.4 442.795 89.7094 442.464C90.0187 442.133 90.1734 441.648 90.1734 441.008V435.232H91.5974V441.104C91.5974 441.808 91.4747 442.384 91.2294 442.832C90.9947 443.28 90.6534 443.616 90.2054 443.84C89.7574 444.053 89.2187 444.16 88.5894 444.16ZM97.1535 444V437.776C97.1535 437.253 97.0308 436.869 96.7855 436.624C96.5508 436.379 96.1508 436.256 95.5855 436.256C95.2015 436.256 94.8388 436.309 94.4975 436.416C94.1668 436.512 93.8468 436.651 93.5375 436.832V435.552C93.7508 435.445 94.0548 435.339 94.4495 435.232C94.8442 435.125 95.3135 435.072 95.8575 435.072C96.4122 435.072 96.8922 435.152 97.2975 435.312C97.7028 435.472 98.0175 435.739 98.2415 436.112C98.4655 436.475 98.5775 436.96 98.5775 437.568V444H97.1535ZM102.805 438.496C102.368 438.496 102.011 438.432 101.733 438.304C101.467 438.165 101.275 437.995 101.157 437.792C101.04 437.579 100.981 437.355 100.981 437.12C100.981 436.96 101.003 436.795 101.045 436.624C101.099 436.453 101.163 436.309 101.237 436.192L102.437 436.384C102.416 436.437 102.389 436.512 102.357 436.608C102.336 436.704 102.325 436.8 102.325 436.896C102.325 437.035 102.363 437.152 102.437 437.248C102.512 437.333 102.651 437.376 102.853 437.376H105.141V438.496H102.805ZM102.805 442.976C102.368 442.976 102.011 442.912 101.733 442.784C101.467 442.645 101.275 442.475 101.157 442.272C101.04 442.059 100.981 441.835 100.981 441.6C100.981 441.44 101.003 441.275 101.045 441.104C101.099 440.933 101.163 440.789 101.237 440.672L102.437 440.864C102.416 440.917 102.389 440.992 102.357 441.088C102.336 441.184 102.325 441.28 102.325 441.376C102.325 441.515 102.363 441.632 102.437 441.728C102.512 441.813 102.651 441.856 102.853 441.856H105.141V442.976H102.805ZM112.676 444V438.16C112.676 437.467 112.516 436.976 112.196 436.688C111.886 436.389 111.364 436.24 110.628 436.24C110.094 436.24 109.582 436.315 109.092 436.464C108.612 436.603 108.153 436.8 107.716 437.056V435.728C108.025 435.568 108.441 435.419 108.964 435.28C109.497 435.141 110.094 435.072 110.756 435.072C111.321 435.072 111.801 435.136 112.196 435.264C112.601 435.392 112.9 435.627 113.092 435.968C113.465 436.139 113.721 436.405 113.86 436.768C114.009 437.131 114.084 437.568 114.084 438.08V444H112.676ZM109.924 444.16C108.985 444.16 108.265 443.947 107.764 443.52C107.273 443.083 107.028 442.459 107.028 441.648C107.028 440.763 107.348 440.08 107.988 439.6C108.638 439.12 109.689 438.837 111.14 438.752L112.964 438.64V439.824L111.332 439.936C110.244 440.011 109.492 440.181 109.076 440.448C108.67 440.715 108.468 441.104 108.468 441.616C108.468 442.096 108.617 442.448 108.916 442.672C109.225 442.896 109.652 443.008 110.196 443.008C110.377 443.008 110.542 442.997 110.692 442.976C110.841 442.944 110.985 442.907 111.124 442.864L111.348 443.936C111.145 444.011 110.921 444.064 110.676 444.096C110.441 444.139 110.19 444.16 109.924 444.16ZM113.044 436.464L112.244 435.712C112.521 435.669 112.782 435.563 113.028 435.392C113.273 435.221 113.396 434.976 113.396 434.656H114.788C114.788 434.987 114.708 435.28 114.548 435.536C114.398 435.781 114.19 435.984 113.924 436.144C113.657 436.293 113.364 436.4 113.044 436.464ZM113.429 434.224C112.896 434.224 112.475 434.101 112.165 433.856C111.856 433.6 111.701 433.243 111.701 432.784C111.701 432.315 111.856 431.957 112.165 431.712C112.475 431.467 112.896 431.344 113.429 431.344C113.963 431.344 114.389 431.467 114.709 431.712C115.029 431.957 115.189 432.315 115.189 432.784C115.189 433.243 115.029 433.6 114.709 433.856C114.389 434.101 113.963 434.224 113.429 434.224ZM113.429 433.472C113.685 433.472 113.883 433.408 114.021 433.28C114.149 433.152 114.213 432.987 114.213 432.784C114.213 432.571 114.149 432.405 114.021 432.288C113.883 432.16 113.685 432.096 113.429 432.096C113.184 432.096 112.997 432.16 112.869 432.288C112.731 432.405 112.661 432.571 112.661 432.784C112.661 432.987 112.731 433.152 112.869 433.28C112.997 433.408 113.184 433.472 113.429 433.472ZM120.136 444V437.776C120.136 437.253 120.013 436.869 119.768 436.624C119.533 436.379 119.133 436.256 118.568 436.256C118.184 436.256 117.821 436.309 117.48 436.416C117.149 436.512 116.829 436.651 116.52 436.832V435.552C116.733 435.445 117.037 435.339 117.432 435.232C117.827 435.125 118.296 435.072 118.84 435.072C119.395 435.072 119.875 435.152 120.28 435.312C120.685 435.472 121 435.739 121.224 436.112C121.448 436.475 121.56 436.96 121.56 437.568V444H120.136ZM124.764 444V435.232H126.188V439.024H126.236L129.884 435.232H131.548V435.28L126.188 440.704V444H124.764ZM130.204 444V440.912C130.204 440.283 130.012 439.792 129.628 439.44C129.244 439.088 128.609 438.912 127.724 438.912L128.556 437.872C129.228 437.872 129.788 437.995 130.236 438.24C130.695 438.475 131.041 438.816 131.276 439.264C131.511 439.712 131.628 440.251 131.628 440.88V444H130.204ZM136.971 444.16C136.341 444.16 135.755 444.101 135.211 443.984C134.677 443.856 134.224 443.707 133.851 443.536L134.267 442.384C134.491 442.469 134.747 442.56 135.035 442.656C135.323 442.752 135.632 442.832 135.963 442.896C136.304 442.949 136.651 442.976 137.003 442.976C137.568 442.976 138.037 442.869 138.411 442.656C138.784 442.443 138.971 442.133 138.971 441.728C138.971 441.483 138.901 441.275 138.763 441.104C138.635 440.923 138.432 440.757 138.155 440.608C137.877 440.459 137.52 440.315 137.083 440.176C136.411 439.963 135.84 439.739 135.371 439.504C134.912 439.259 134.56 438.971 134.315 438.64C134.08 438.299 133.963 437.877 133.963 437.376C133.963 436.928 134.08 436.533 134.315 436.192C134.56 435.84 134.933 435.568 135.435 435.376C135.947 435.173 136.597 435.072 137.387 435.072C137.899 435.072 138.379 435.12 138.827 435.216C139.285 435.301 139.643 435.424 139.899 435.584V436.784C139.717 436.699 139.488 436.613 139.211 436.528C138.944 436.443 138.651 436.373 138.331 436.32C138.011 436.267 137.68 436.24 137.339 436.24C136.624 436.24 136.117 436.352 135.819 436.576C135.531 436.789 135.387 437.035 135.387 437.312C135.387 437.547 135.451 437.744 135.579 437.904C135.717 438.064 135.947 438.219 136.267 438.368C136.597 438.517 137.04 438.688 137.595 438.88C138.107 439.051 138.576 439.248 139.003 439.472C139.429 439.696 139.765 439.979 140.011 440.32C140.267 440.651 140.395 441.077 140.395 441.6C140.395 442.048 140.283 442.469 140.059 442.864C139.845 443.248 139.488 443.563 138.987 443.808C138.485 444.043 137.813 444.16 136.971 444.16ZM138.828 433.84C138.38 433.84 138.023 433.776 137.756 433.648C137.49 433.52 137.298 433.355 137.18 433.152C137.052 432.949 136.988 432.736 136.988 432.512C136.988 432.352 137.015 432.181 137.068 432C137.111 431.808 137.17 431.653 137.244 431.536L138.444 431.744C138.423 431.787 138.402 431.861 138.38 431.968C138.359 432.064 138.348 432.155 138.348 432.24C138.348 432.379 138.391 432.501 138.476 432.608C138.562 432.704 138.706 432.752 138.908 432.752H142.956V433.84H138.828ZM146.799 444.16C145.54 444.16 144.639 443.872 144.095 443.296C143.551 442.72 143.279 441.899 143.279 440.832V435.232H144.703V440.848C144.703 441.563 144.874 442.096 145.215 442.448C145.556 442.8 146.084 442.976 146.799 442.976C147.524 442.976 148.058 442.8 148.399 442.448C148.751 442.096 148.927 441.563 148.927 440.848V435.232H150.351V440.832C150.351 441.899 150.074 442.72 149.519 443.296C148.975 443.872 148.068 444.16 146.799 444.16ZM153.495 444V436.784C153.495 436.325 153.586 435.973 153.767 435.728C153.949 435.483 154.183 435.312 154.471 435.216C154.759 435.12 155.069 435.072 155.399 435.072C155.517 435.072 155.666 435.088 155.847 435.12C156.039 435.152 156.205 435.2 156.343 435.264L156.167 436.336C156.061 436.304 155.954 436.283 155.847 436.272C155.741 436.251 155.655 436.24 155.591 436.24C155.325 436.24 155.138 436.304 155.031 436.432C154.935 436.56 154.887 436.741 154.887 436.976V439.456C154.887 439.787 154.882 440.133 154.871 440.496C154.871 440.848 154.855 441.275 154.823 441.776H154.887C155.101 441.307 155.298 440.917 155.479 440.608C155.661 440.288 155.831 439.989 155.991 439.712L156.839 438.272H157.735L158.583 439.712C158.754 440 158.903 440.256 159.031 440.48C159.159 440.704 159.277 440.923 159.383 441.136C159.49 441.339 159.591 441.552 159.687 441.776H159.751C159.719 441.275 159.698 440.848 159.687 440.496C159.687 440.133 159.687 439.787 159.687 439.456V435.232H161.079V444H159.815L157.335 439.808H157.271L154.759 444H153.495ZM159.486 448.24C158.803 448.24 158.286 448.101 157.934 447.824C157.571 447.557 157.39 447.173 157.39 446.672V446.4C157.39 446.219 157.347 446.107 157.262 446.064C157.166 446.032 157.038 446.037 156.878 446.08L156.782 445.12C156.931 445.077 157.081 445.051 157.23 445.04C157.369 445.029 157.475 445.024 157.55 445.024C157.934 445.024 158.211 445.109 158.382 445.28C158.542 445.451 158.622 445.691 158.622 446V446.544C158.622 446.747 158.686 446.917 158.814 447.056C158.942 447.195 159.161 447.264 159.47 447.264C159.79 447.264 160.014 447.195 160.142 447.056C160.259 446.917 160.318 446.747 160.318 446.544V445.072H161.566V446.624C161.566 447.147 161.39 447.547 161.038 447.824C160.686 448.101 160.169 448.24 159.486 448.24ZM157.582 433.84V433.136C157.795 433.093 158.014 433.035 158.238 432.96C158.462 432.875 158.649 432.768 158.798 432.64C158.947 432.501 159.022 432.336 159.022 432.144C159.022 432.016 158.985 431.909 158.91 431.824C158.825 431.728 158.697 431.68 158.526 431.68C158.419 431.68 158.313 431.701 158.206 431.744C158.089 431.787 157.987 431.824 157.902 431.856L157.582 430.976C157.795 430.805 158.035 430.693 158.302 430.64C158.558 430.587 158.766 430.56 158.926 430.56C159.353 430.56 159.689 430.677 159.934 430.912C160.169 431.147 160.286 431.445 160.286 431.808C160.286 432.107 160.211 432.368 160.062 432.592C159.902 432.805 159.721 432.976 159.518 433.104L159.358 432.72H162.542V433.84H157.582ZM165.278 444V435.232H166.27L166.526 436.624H166.59C166.772 436.144 167.102 435.765 167.582 435.488C168.062 435.211 168.644 435.072 169.326 435.072C169.966 435.072 170.51 435.184 170.958 435.408C171.417 435.621 171.769 435.952 172.014 436.4C172.26 436.848 172.382 437.429 172.382 438.144V444H170.958V438.224C170.958 437.584 170.798 437.099 170.478 436.768C170.158 436.437 169.684 436.272 169.054 436.272C168.553 436.272 168.126 436.389 167.774 436.624C167.422 436.859 167.156 437.179 166.974 437.584C166.793 437.979 166.702 438.427 166.702 438.928V444H165.278ZM165.893 433.84V433.216L167.061 432.704H172.693V433.84H165.893ZM171.365 433.216V431.408H172.709V433.216H171.365ZM171.83 430.464V427.856H173.19V430.464H171.83ZM179.524 444.16C178.372 444.16 177.508 443.861 176.932 443.264C176.367 442.656 176.084 441.707 176.084 440.416C176.084 440.203 176.09 439.973 176.1 439.728C176.122 439.472 176.143 439.221 176.164 438.976H179.524V440.096H177.508V440.416C177.508 441.088 177.583 441.616 177.732 442C177.882 442.373 178.1 442.635 178.388 442.784C178.687 442.933 179.055 443.008 179.492 443.008C179.972 443.008 180.388 442.917 180.74 442.736C181.092 442.555 181.364 442.224 181.556 441.744C181.748 441.264 181.844 440.576 181.844 439.68C181.844 438.891 181.759 438.245 181.588 437.744C181.418 437.243 181.135 436.869 180.74 436.624C180.356 436.379 179.834 436.256 179.172 436.256C178.831 436.256 178.5 436.288 178.18 436.352C177.86 436.405 177.551 436.491 177.252 436.608C176.954 436.715 176.66 436.853 176.372 437.024V435.696C176.586 435.579 176.847 435.477 177.156 435.392C177.466 435.296 177.807 435.221 178.18 435.168C178.554 435.104 178.943 435.072 179.348 435.072C180.287 435.072 181.044 435.264 181.62 435.648C182.207 436.021 182.634 436.555 182.9 437.248C183.167 437.931 183.3 438.741 183.3 439.68C183.3 440.619 183.178 441.424 182.932 442.096C182.687 442.768 182.287 443.28 181.732 443.632C181.188 443.984 180.452 444.16 179.524 444.16ZM189.464 444.144C188.6 444.144 187.907 444.032 187.384 443.808C186.872 443.584 186.499 443.269 186.264 442.864C186.04 442.459 185.928 441.979 185.928 441.424C185.928 440.933 185.997 440.544 186.136 440.256C186.285 439.957 186.467 439.739 186.68 439.6C186.904 439.461 187.133 439.371 187.368 439.328V439.264C187.155 439.2 186.931 439.093 186.696 438.944C186.461 438.795 186.264 438.587 186.104 438.32C185.955 438.053 185.88 437.717 185.88 437.312C185.88 436.939 185.965 436.587 186.136 436.256C186.307 435.925 186.584 435.653 186.968 435.44C187.352 435.227 187.859 435.12 188.488 435.12C188.744 435.12 189.011 435.141 189.288 435.184C189.565 435.216 189.779 435.275 189.928 435.36L189.672 436.464C189.555 436.421 189.4 436.384 189.208 436.352C189.027 436.309 188.835 436.288 188.632 436.288C188.184 436.288 187.853 436.395 187.64 436.608C187.427 436.811 187.32 437.083 187.32 437.424C187.32 437.797 187.411 438.08 187.592 438.272C187.784 438.464 188.024 438.597 188.312 438.672C188.611 438.736 188.92 438.768 189.24 438.768H189.544V439.808H189.24C188.6 439.808 188.125 439.925 187.816 440.16C187.517 440.384 187.368 440.763 187.368 441.296C187.368 441.605 187.427 441.888 187.544 442.144C187.672 442.4 187.885 442.603 188.184 442.752C188.493 442.901 188.92 442.976 189.464 442.976C190.008 442.976 190.429 442.901 190.728 442.752C191.037 442.603 191.256 442.389 191.384 442.112C191.512 441.824 191.576 441.483 191.576 441.088V435.232H193V440.992C193 442.112 192.712 442.917 192.136 443.408C191.571 443.899 190.68 444.144 189.464 444.144ZM198.548 444V437.776C198.548 437.253 198.425 436.869 198.18 436.624C197.945 436.379 197.545 436.256 196.98 436.256C196.596 436.256 196.233 436.309 195.892 436.416C195.561 436.512 195.241 436.651 194.932 436.832V435.552C195.145 435.445 195.449 435.339 195.844 435.232C196.239 435.125 196.708 435.072 197.252 435.072C197.807 435.072 198.287 435.152 198.692 435.312C199.097 435.472 199.412 435.739 199.636 436.112C199.86 436.475 199.972 436.96 199.972 437.568V444H198.548ZM202.968 444V440.96C202.968 440.288 203.117 439.803 203.416 439.504C203.715 439.195 204.093 438.981 204.552 438.864L204.568 438.816L202.808 438.144V437.616C202.808 437.179 202.952 436.768 203.24 436.384C203.528 435.989 203.939 435.675 204.472 435.44C205.016 435.195 205.661 435.072 206.408 435.072C207.059 435.072 207.661 435.179 208.216 435.392C208.771 435.595 209.213 435.92 209.544 436.368C209.885 436.805 210.056 437.381 210.056 438.096V444H208.632V438.24C208.632 437.525 208.413 437.019 207.976 436.72C207.549 436.411 207.021 436.256 206.392 436.256C205.741 436.256 205.224 436.395 204.84 436.672C204.456 436.939 204.264 437.28 204.264 437.696L205.992 438.56L205.864 439.328C205.469 439.328 205.123 439.461 204.824 439.728C204.536 439.984 204.392 440.395 204.392 440.96V444H202.968ZM213.202 444V436.784C213.202 436.325 213.292 435.973 213.474 435.728C213.655 435.483 213.89 435.312 214.178 435.216C214.466 435.12 214.775 435.072 215.106 435.072C215.223 435.072 215.372 435.088 215.554 435.12C215.746 435.152 215.911 435.2 216.05 435.264L215.874 436.336C215.767 436.304 215.66 436.283 215.554 436.272C215.447 436.251 215.362 436.24 215.298 436.24C215.031 436.24 214.844 436.304 214.738 436.432C214.642 436.56 214.594 436.741 214.594 436.976V439.456C214.594 439.787 214.588 440.133 214.578 440.496C214.578 440.848 214.562 441.275 214.53 441.776H214.594C214.807 441.307 215.004 440.917 215.186 440.608C215.367 440.288 215.538 439.989 215.698 439.712L216.546 438.272H217.442L218.29 439.712C218.46 440 218.61 440.256 218.738 440.48C218.866 440.704 218.983 440.923 219.09 441.136C219.196 441.339 219.298 441.552 219.394 441.776H219.458C219.426 441.275 219.404 440.848 219.394 440.496C219.394 440.133 219.394 439.787 219.394 439.456V432.08H220.802V444H219.522L217.042 439.808H216.978L214.466 444H213.202ZM213.215 433.84V433.216L214.367 432.72H216.527L216.319 433.104C216.266 432.987 216.234 432.88 216.223 432.784C216.202 432.677 216.191 432.587 216.191 432.512C216.191 432.096 216.33 431.765 216.607 431.52C216.874 431.264 217.237 431.136 217.695 431.136C218.165 431.136 218.538 431.264 218.815 431.52C219.082 431.776 219.215 432.107 219.215 432.512C219.215 432.896 219.093 433.216 218.847 433.472C218.602 433.717 218.245 433.84 217.775 433.84H213.215ZM217.711 433.152C217.925 433.152 218.09 433.093 218.207 432.976C218.325 432.848 218.383 432.688 218.383 432.496C218.383 432.293 218.325 432.133 218.207 432.016C218.079 431.899 217.909 431.84 217.695 431.84C217.471 431.84 217.301 431.899 217.183 432.016C217.066 432.133 217.007 432.293 217.007 432.496C217.007 432.677 217.066 432.832 217.183 432.96C217.301 433.088 217.477 433.152 217.711 433.152ZM224.439 444V440.96C224.439 440.288 224.588 439.803 224.887 439.504C225.186 439.195 225.564 438.981 226.023 438.864L226.039 438.816L224.279 438.144V437.616C224.279 437.179 224.423 436.768 224.711 436.384C224.999 435.989 225.41 435.675 225.943 435.44C226.487 435.195 227.132 435.072 227.879 435.072C228.53 435.072 229.132 435.179 229.687 435.392C230.242 435.595 230.684 435.92 231.015 436.368C231.356 436.805 231.527 437.381 231.527 438.096V444H230.103V438.24C230.103 437.525 229.884 437.019 229.447 436.72C229.02 436.411 228.492 436.256 227.863 436.256C227.212 436.256 226.695 436.395 226.311 436.672C225.927 436.939 225.735 437.28 225.735 437.696L227.463 438.56L227.335 439.328C226.94 439.328 226.594 439.461 226.295 439.728C226.007 439.984 225.863 440.395 225.863 440.96V444H224.439ZM234.593 444V438.4C234.593 437.323 234.881 436.501 235.457 435.936C236.033 435.36 236.95 435.072 238.209 435.072C239.478 435.072 240.396 435.36 240.961 435.936C241.537 436.501 241.825 437.323 241.825 438.4V444H240.401V438.4C240.401 437.685 240.214 437.152 239.841 436.8C239.468 436.437 238.918 436.256 238.193 436.256C237.478 436.256 236.934 436.437 236.561 436.8C236.198 437.152 236.017 437.685 236.017 438.4V440.176L236.065 440.192C236.3 439.776 236.588 439.504 236.929 439.376C237.27 439.237 237.75 439.168 238.369 439.168H238.897V440.336H238.369C237.718 440.336 237.222 440.427 236.881 440.608C236.55 440.789 236.321 441.029 236.193 441.328C236.076 441.616 236.017 441.941 236.017 442.304V444H234.593ZM246.661 444.16C246.245 444.16 245.84 444.117 245.445 444.032C245.061 443.947 244.65 443.787 244.213 443.552L244.661 442.464C244.896 442.603 245.162 442.725 245.461 442.832C245.76 442.928 246.106 442.976 246.501 442.976C247.29 442.976 247.904 442.688 248.341 442.112C248.789 441.525 249.013 440.683 249.013 439.584C249.013 438.507 248.784 437.685 248.325 437.12C247.877 436.544 247.184 436.256 246.245 436.256C245.904 436.256 245.557 436.293 245.205 436.368C244.853 436.443 244.544 436.555 244.277 436.704V435.504C244.586 435.344 244.922 435.232 245.285 435.168C245.658 435.104 246.032 435.072 246.405 435.072C247.365 435.072 248.144 435.264 248.741 435.648C249.338 436.021 249.776 436.544 250.053 437.216C250.33 437.888 250.469 438.677 250.469 439.584C250.469 440.992 250.149 442.107 249.509 442.928C248.88 443.749 247.93 444.16 246.661 444.16ZM255.736 444V437.776C255.736 437.253 255.613 436.869 255.368 436.624C255.133 436.379 254.733 436.256 254.168 436.256C253.784 436.256 253.421 436.309 253.08 436.416C252.749 436.512 252.429 436.651 252.12 436.832V435.552C252.333 435.445 252.637 435.339 253.032 435.232C253.427 435.125 253.896 435.072 254.44 435.072C254.995 435.072 255.475 435.152 255.88 435.312C256.285 435.472 256.6 435.739 256.824 436.112C257.048 436.475 257.16 436.96 257.16 437.568V444H255.736ZM264.46 444.16C263.777 444.16 263.185 444.027 262.684 443.76C262.193 443.483 261.857 443.099 261.676 442.608H261.612L261.532 444H260.364V435.232H261.788V440.304C261.788 440.837 261.879 441.307 262.06 441.712C262.252 442.107 262.524 442.416 262.876 442.64C263.239 442.853 263.671 442.96 264.172 442.96C264.801 442.96 265.271 442.795 265.58 442.464C265.889 442.133 266.044 441.648 266.044 441.008V435.232H267.468V441.104C267.468 441.808 267.345 442.384 267.1 442.832C266.865 443.28 266.524 443.616 266.076 443.84C265.628 444.053 265.089 444.16 264.46 444.16ZM272.528 444.16C272.24 444.16 271.963 444.112 271.696 444.016C271.429 443.92 271.211 443.749 271.04 443.504C270.869 443.259 270.784 442.917 270.784 442.48V435.232H272.208V442.304C272.208 442.549 272.261 442.725 272.368 442.832C272.475 442.939 272.645 442.992 272.88 442.992C272.976 442.992 273.077 442.981 273.184 442.96C273.291 442.939 273.392 442.912 273.488 442.88L273.68 443.92C273.477 444.016 273.28 444.08 273.088 444.112C272.896 444.144 272.709 444.16 272.528 444.16ZM278.051 444.16C277.421 444.16 276.835 444.101 276.291 443.984C275.757 443.856 275.304 443.707 274.931 443.536L275.347 442.384C275.571 442.469 275.827 442.56 276.115 442.656C276.403 442.752 276.712 442.832 277.043 442.896C277.384 442.949 277.731 442.976 278.083 442.976C278.648 442.976 279.117 442.869 279.491 442.656C279.864 442.443 280.051 442.133 280.051 441.728C280.051 441.483 279.981 441.275 279.843 441.104C279.715 440.923 279.512 440.757 279.235 440.608C278.957 440.459 278.6 440.315 278.163 440.176C277.491 439.963 276.92 439.739 276.451 439.504C275.992 439.259 275.64 438.971 275.395 438.64C275.16 438.299 275.043 437.877 275.043 437.376C275.043 436.928 275.16 436.533 275.395 436.192C275.64 435.84 276.013 435.568 276.515 435.376C277.027 435.173 277.677 435.072 278.467 435.072C278.979 435.072 279.459 435.12 279.907 435.216C280.365 435.301 280.723 435.424 280.979 435.584V436.784C280.797 436.699 280.568 436.613 280.291 436.528C280.024 436.443 279.731 436.373 279.411 436.32C279.091 436.267 278.76 436.24 278.419 436.24C277.704 436.24 277.197 436.352 276.899 436.576C276.611 436.789 276.467 437.035 276.467 437.312C276.467 437.547 276.531 437.744 276.659 437.904C276.797 438.064 277.027 438.219 277.347 438.368C277.677 438.517 278.12 438.688 278.675 438.88C279.187 439.051 279.656 439.248 280.083 439.472C280.509 439.696 280.845 439.979 281.091 440.32C281.347 440.651 281.475 441.077 281.475 441.6C281.475 442.048 281.363 442.469 281.139 442.864C280.925 443.248 280.568 443.563 280.067 443.808C279.565 444.043 278.893 444.16 278.051 444.16ZM280.276 434.08C279.978 434.08 279.722 434.021 279.508 433.904C279.295 433.776 279.13 433.589 279.012 433.344L278.212 434.032C277.615 434.032 277.135 433.883 276.772 433.584C276.399 433.275 276.212 432.832 276.212 432.256C276.212 431.851 276.298 431.515 276.468 431.248C276.639 430.981 276.863 430.784 277.14 430.656C277.418 430.528 277.716 430.464 278.036 430.464H281.764V431.424H278.244C277.999 431.424 277.791 431.499 277.62 431.648C277.439 431.787 277.348 432.011 277.348 432.32C277.348 432.544 277.407 432.731 277.524 432.88C277.642 433.019 277.839 433.088 278.116 433.088L279.012 432.288H279.316C279.359 432.523 279.45 432.725 279.588 432.896C279.716 433.056 279.898 433.136 280.132 433.136C280.335 433.136 280.49 433.077 280.596 432.96C280.692 432.843 280.74 432.688 280.74 432.496V432.288H281.78V432.512C281.78 433.035 281.647 433.429 281.38 433.696C281.103 433.952 280.735 434.08 280.276 434.08ZM286.119 444.16C285.703 444.16 285.298 444.117 284.903 444.032C284.519 443.947 284.108 443.787 283.671 443.552L284.119 442.464C284.354 442.603 284.62 442.725 284.919 442.832C285.218 442.928 285.564 442.976 285.959 442.976C286.748 442.976 287.362 442.688 287.799 442.112C288.247 441.525 288.471 440.683 288.471 439.584C288.471 438.507 288.242 437.685 287.783 437.12C287.335 436.544 286.642 436.256 285.703 436.256C285.362 436.256 285.015 436.293 284.663 436.368C284.311 436.443 284.002 436.555 283.735 436.704V435.504C284.044 435.344 284.38 435.232 284.743 435.168C285.116 435.104 285.49 435.072 285.863 435.072C286.823 435.072 287.602 435.264 288.199 435.648C288.796 436.021 289.234 436.544 289.511 437.216C289.788 437.888 289.927 438.677 289.927 439.584C289.927 440.992 289.607 442.107 288.967 442.928C288.338 443.749 287.388 444.16 286.119 444.16ZM294.554 444.16C294.255 444.16 293.973 444.112 293.706 444.016C293.439 443.92 293.221 443.749 293.05 443.504C292.879 443.259 292.794 442.917 292.794 442.48V436.224C292.794 435.925 292.821 435.685 292.874 435.504C292.927 435.312 293.013 435.125 293.13 434.944C293.258 434.763 293.434 434.533 293.658 434.256C293.925 433.925 294.122 433.653 294.25 433.44C294.378 433.227 294.442 432.992 294.442 432.736C294.442 432.427 294.346 432.197 294.154 432.048C293.973 431.888 293.69 431.808 293.306 431.808C292.975 431.808 292.671 431.856 292.394 431.952C292.127 432.048 291.903 432.144 291.722 432.24V431.024C291.871 430.939 292.095 430.859 292.394 430.784C292.703 430.699 293.066 430.656 293.482 430.656C294.186 430.656 294.751 430.816 295.178 431.136C295.615 431.445 295.834 431.925 295.834 432.576C295.834 433.003 295.754 433.376 295.594 433.696C295.434 434.016 295.247 434.304 295.034 434.56C294.853 434.795 294.698 434.992 294.57 435.152C294.453 435.301 294.362 435.456 294.298 435.616C294.245 435.776 294.218 435.989 294.218 436.256V442.304C294.218 442.549 294.271 442.725 294.378 442.832C294.485 442.939 294.65 442.992 294.874 442.992C294.991 442.992 295.103 442.981 295.21 442.96C295.317 442.939 295.413 442.912 295.498 442.88L295.69 443.92C295.487 444.016 295.29 444.08 295.098 444.112C294.917 444.144 294.735 444.16 294.554 444.16ZM300.749 444.16C300.12 444.16 299.576 444.053 299.117 443.84C298.669 443.616 298.323 443.28 298.077 442.832C297.843 442.384 297.725 441.803 297.725 441.088V435.232H299.149V441.008C299.149 441.648 299.309 442.133 299.629 442.464C299.96 442.795 300.435 442.96 301.053 442.96C301.8 442.96 302.376 442.72 302.781 442.24C303.197 441.76 303.405 441.115 303.405 440.304V435.232H304.829V444H303.645L303.581 442.704H303.501C303.309 443.131 302.973 443.483 302.493 443.76C302.024 444.027 301.443 444.16 300.749 444.16ZM307.938 444V440.96C307.938 440.288 308.087 439.803 308.386 439.504C308.685 439.195 309.063 438.981 309.522 438.864L309.538 438.816L307.778 438.144V437.616C307.778 437.179 307.922 436.768 308.21 436.384C308.498 435.989 308.909 435.675 309.442 435.44C309.986 435.195 310.631 435.072 311.378 435.072C312.029 435.072 312.631 435.179 313.186 435.392C313.741 435.595 314.183 435.92 314.514 436.368C314.855 436.805 315.026 437.381 315.026 438.096V444H313.602V438.24C313.602 437.525 313.383 437.019 312.946 436.72C312.519 436.411 311.991 436.256 311.362 436.256C310.711 436.256 310.194 436.395 309.81 436.672C309.426 436.939 309.234 437.28 309.234 437.696L310.962 438.56L310.834 439.328C310.439 439.328 310.093 439.461 309.794 439.728C309.506 439.984 309.362 440.395 309.362 440.96V444H307.938ZM320.572 444V437.776C320.572 437.253 320.449 436.869 320.204 436.624C319.969 436.379 319.569 436.256 319.004 436.256C318.62 436.256 318.257 436.309 317.916 436.416C317.585 436.512 317.265 436.651 316.956 436.832V435.552C317.169 435.445 317.473 435.339 317.868 435.232C318.262 435.125 318.732 435.072 319.276 435.072C319.83 435.072 320.31 435.152 320.716 435.312C321.121 435.472 321.436 435.739 321.66 436.112C321.884 436.475 321.996 436.96 321.996 437.568V444H320.572ZM327.536 444.16C326.906 444.16 326.32 444.101 325.776 443.984C325.242 443.856 324.789 443.707 324.416 443.536L324.832 442.384C325.056 442.469 325.312 442.56 325.6 442.656C325.888 442.752 326.197 442.832 326.528 442.896C326.869 442.949 327.216 442.976 327.568 442.976C328.133 442.976 328.602 442.869 328.976 442.656C329.349 442.443 329.536 442.133 329.536 441.728C329.536 441.483 329.466 441.275 329.328 441.104C329.2 440.923 328.997 440.757 328.72 440.608C328.442 440.459 328.085 440.315 327.648 440.176C326.976 439.963 326.405 439.739 325.936 439.504C325.477 439.259 325.125 438.971 324.88 438.64C324.645 438.299 324.528 437.877 324.528 437.376C324.528 436.928 324.645 436.533 324.88 436.192C325.125 435.84 325.498 435.568 326 435.376C326.512 435.173 327.162 435.072 327.952 435.072C328.464 435.072 328.944 435.12 329.392 435.216C329.85 435.301 330.208 435.424 330.464 435.584V436.784C330.282 436.699 330.053 436.613 329.776 436.528C329.509 436.443 329.216 436.373 328.896 436.32C328.576 436.267 328.245 436.24 327.904 436.24C327.189 436.24 326.682 436.352 326.384 436.576C326.096 436.789 325.952 437.035 325.952 437.312C325.952 437.547 326.016 437.744 326.144 437.904C326.282 438.064 326.512 438.219 326.832 438.368C327.162 438.517 327.605 438.688 328.16 438.88C328.672 439.051 329.141 439.248 329.568 439.472C329.994 439.696 330.33 439.979 330.576 440.32C330.832 440.651 330.96 441.077 330.96 441.6C330.96 442.048 330.848 442.469 330.624 442.864C330.41 443.248 330.053 443.563 329.552 443.808C329.05 444.043 328.378 444.16 327.536 444.16ZM333.412 444V435.232H334.404L334.66 436.624H334.724C334.905 436.144 335.236 435.765 335.716 435.488C336.196 435.211 336.777 435.072 337.46 435.072C338.1 435.072 338.644 435.184 339.092 435.408C339.551 435.621 339.903 435.952 340.148 436.4C340.393 436.848 340.516 437.429 340.516 438.144V444H339.092V438.224C339.092 437.584 338.932 437.099 338.612 436.768C338.292 436.437 337.817 436.272 337.188 436.272C336.687 436.272 336.26 436.389 335.908 436.624C335.556 436.859 335.289 437.179 335.108 437.584C334.927 437.979 334.836 438.427 334.836 438.928V444H333.412ZM339.691 434.224C339.158 434.224 338.737 434.101 338.427 433.856C338.118 433.6 337.963 433.243 337.963 432.784C337.963 432.315 338.118 431.957 338.427 431.712C338.737 431.467 339.158 431.344 339.691 431.344C340.225 431.344 340.651 431.467 340.971 431.712C341.291 431.957 341.451 432.315 341.451 432.784C341.451 433.243 341.291 433.6 340.971 433.856C340.651 434.101 340.225 434.224 339.691 434.224ZM339.691 433.472C339.947 433.472 340.145 433.408 340.283 433.28C340.411 433.152 340.475 432.987 340.475 432.784C340.475 432.571 340.411 432.405 340.283 432.288C340.145 432.16 339.947 432.096 339.691 432.096C339.446 432.096 339.259 432.16 339.131 432.288C338.993 432.405 338.923 432.571 338.923 432.784C338.923 432.987 338.993 433.152 339.131 433.28C339.259 433.408 339.446 433.472 339.691 433.472ZM346.554 444V437.776C346.554 437.253 346.431 436.869 346.186 436.624C345.951 436.379 345.551 436.256 344.986 436.256C344.602 436.256 344.239 436.309 343.898 436.416C343.567 436.512 343.247 436.651 342.938 436.832V435.552C343.151 435.445 343.455 435.339 343.85 435.232C344.245 435.125 344.714 435.072 345.258 435.072C345.813 435.072 346.293 435.152 346.698 435.312C347.103 435.472 347.418 435.739 347.642 436.112C347.866 436.475 347.978 436.96 347.978 437.568V444H346.554ZM351.518 436.832V433.696C351.518 433.056 351.363 432.597 351.054 432.32C350.755 432.043 350.371 431.904 349.902 431.904V431.296L351.086 430.784H355.358V431.904H352.11L352.094 431.968C352.329 432.128 352.526 432.373 352.686 432.704C352.857 433.024 352.942 433.445 352.942 433.968V436.832H351.518ZM353.262 444.16C352.974 444.16 352.697 444.112 352.43 444.016C352.163 443.92 351.945 443.749 351.774 443.504C351.603 443.259 351.518 442.917 351.518 442.48V435.232H352.942V442.304C352.942 442.549 352.995 442.725 353.102 442.832C353.209 442.939 353.379 442.992 353.614 442.992C353.71 442.992 353.811 442.981 353.918 442.96C354.025 442.939 354.126 442.912 354.222 442.88L354.414 443.92C354.211 444.016 354.014 444.08 353.822 444.112C353.63 444.144 353.443 444.16 353.262 444.16ZM357.043 444V440.096H355.827V438.976H358.403V442.848H358.611C359.091 442.848 359.491 442.741 359.811 442.528C360.131 442.315 360.371 441.968 360.531 441.488C360.691 441.008 360.771 440.373 360.771 439.584C360.771 438.795 360.681 438.155 360.499 437.664C360.329 437.173 360.046 436.816 359.651 436.592C359.267 436.368 358.745 436.256 358.083 436.256C357.582 436.256 357.097 436.325 356.627 436.464C356.169 436.592 355.726 436.795 355.299 437.072V435.744C355.619 435.552 356.041 435.392 356.563 435.264C357.086 435.136 357.651 435.072 358.259 435.072C359.23 435.072 360.003 435.253 360.579 435.616C361.166 435.968 361.587 436.48 361.843 437.152C362.099 437.824 362.227 438.64 362.227 439.6C362.227 440.528 362.099 441.323 361.843 441.984C361.598 442.635 361.193 443.136 360.627 443.488C360.073 443.829 359.326 444 358.387 444H357.043ZM365.031 444V435.232H366.023L366.279 436.624H366.343C366.524 436.144 366.855 435.765 367.335 435.488C367.815 435.211 368.396 435.072 369.079 435.072C369.719 435.072 370.263 435.184 370.711 435.408C371.17 435.621 371.522 435.952 371.767 436.4C372.012 436.848 372.135 437.429 372.135 438.144V444H370.711V438.224C370.711 437.584 370.551 437.099 370.231 436.768C369.911 436.437 369.436 436.272 368.807 436.272C368.306 436.272 367.879 436.389 367.527 436.624C367.175 436.859 366.908 437.179 366.727 437.584C366.546 437.979 366.455 438.427 366.455 438.928V444H365.031ZM378.589 444.144C377.725 444.144 377.032 444.032 376.509 443.808C375.997 443.584 375.624 443.269 375.389 442.864C375.165 442.459 375.053 441.979 375.053 441.424C375.053 440.933 375.122 440.544 375.261 440.256C375.41 439.957 375.592 439.739 375.805 439.6C376.029 439.461 376.258 439.371 376.493 439.328V439.264C376.28 439.2 376.056 439.093 375.821 438.944C375.586 438.795 375.389 438.587 375.229 438.32C375.08 438.053 375.005 437.717 375.005 437.312C375.005 436.939 375.09 436.587 375.261 436.256C375.432 435.925 375.709 435.653 376.093 435.44C376.477 435.227 376.984 435.12 377.613 435.12C377.869 435.12 378.136 435.141 378.413 435.184C378.69 435.216 378.904 435.275 379.053 435.36L378.797 436.464C378.68 436.421 378.525 436.384 378.333 436.352C378.152 436.309 377.96 436.288 377.757 436.288C377.309 436.288 376.978 436.395 376.765 436.608C376.552 436.811 376.445 437.083 376.445 437.424C376.445 437.797 376.536 438.08 376.717 438.272C376.909 438.464 377.149 438.597 377.437 438.672C377.736 438.736 378.045 438.768 378.365 438.768H378.669V439.808H378.365C377.725 439.808 377.25 439.925 376.941 440.16C376.642 440.384 376.493 440.763 376.493 441.296C376.493 441.605 376.552 441.888 376.669 442.144C376.797 442.4 377.01 442.603 377.309 442.752C377.618 442.901 378.045 442.976 378.589 442.976C379.133 442.976 379.554 442.901 379.853 442.752C380.162 442.603 380.381 442.389 380.509 442.112C380.637 441.824 380.701 441.483 380.701 441.088V435.232H382.125V440.992C382.125 442.112 381.837 442.917 381.261 443.408C380.696 443.899 379.805 444.144 378.589 444.144ZM379.974 434.304C379.899 434.187 379.841 434.037 379.798 433.856C379.745 433.664 379.718 433.477 379.718 433.296C379.718 433.072 379.766 432.864 379.862 432.672C379.958 432.469 380.129 432.304 380.374 432.176C380.619 432.048 380.961 431.984 381.398 431.984H383.59V433.088H381.766C381.553 433.088 381.382 433.131 381.254 433.216C381.126 433.291 381.062 433.424 381.062 433.616C381.062 433.691 381.078 433.771 381.11 433.856C381.131 433.941 381.163 434.027 381.206 434.112L379.974 434.304Z" fill="black"/>
<defs>
<filter id="filter0_d_906_3633" x="0" y="0" width="437" height="599" filterUnits="userSpaceOnUse" color-interpolation-filters="sRGB">
<feFlood flood-opacity="0" result="BackgroundImageFix"/>
<feColorMatrix in="SourceAlpha" type="matrix" values="0 0 0 0 0 0 0 0 0 0 0 0 0 0 0 0 0 0 127 0" result="hardAlpha"/>
<feOffset dy="4"/>
<feGaussianBlur stdDeviation="10"/>
<feComposite in2="hardAlpha" operator="out"/>
<feColorMatrix type="matrix" values="0 0 0 0 0 0 0 0 0 0 0 0 0 0 0 0 0 0 0.25 0"/>
<feBlend mode="normal" in2="BackgroundImageFix" result="effect1_dropShadow_906_3633"/>
<feBlend mode="normal" in="SourceGraphic" in2="effect1_dropShadow_906_3633" result="shape"/>
</filter>
</defs>
</svg>
