<svg width="437" height="599" viewBox="0 0 437 599" fill="none" xmlns="http://www.w3.org/2000/svg">
<g filter="url(#filter0_d_906_3667)">
<rect x="20" y="16" width="397" height="559" rx="55" fill="#FBFBFB"/>
</g>
<path d="M121.877 112V107.992C121.877 106.984 122.077 106.208 122.477 105.664C122.877 105.12 123.445 104.736 124.181 104.512L124.205 104.416L121.637 103.48V102.856C121.637 102.072 121.869 101.352 122.333 100.696C122.797 100.04 123.477 99.52 124.373 99.136C125.285 98.736 126.389 98.536 127.685 98.536C128.901 98.536 129.949 98.728 130.829 99.112C131.709 99.48 132.389 100.04 132.869 100.792C133.365 101.528 133.613 102.464 133.613 103.6V112H130.013V103.816C130.013 103.016 129.797 102.416 129.365 102.016C128.949 101.616 128.357 101.416 127.589 101.416C126.853 101.416 126.301 101.576 125.933 101.896C125.565 102.2 125.365 102.576 125.333 103.024L127.469 104.008L127.205 105.568C126.629 105.6 126.197 105.808 125.909 106.192C125.621 106.576 125.477 107.096 125.477 107.752V112H121.877ZM141.174 112V103.312C141.174 102.64 141.014 102.152 140.694 101.848C140.39 101.544 139.886 101.392 139.182 101.392C138.654 101.392 138.166 101.464 137.718 101.608C137.286 101.752 136.878 101.928 136.494 102.136V99.256C136.846 99.096 137.342 98.936 137.982 98.776C138.622 98.616 139.374 98.536 140.238 98.536C141.118 98.536 141.894 98.664 142.566 98.92C143.254 99.176 143.79 99.608 144.174 100.216C144.574 100.808 144.774 101.624 144.774 102.664V112H141.174ZM153.356 112.312C152.412 112.312 151.46 112.208 150.5 112C149.556 111.792 148.716 111.496 147.98 111.112L148.988 108.256C149.308 108.432 149.692 108.616 150.14 108.808C150.588 109 151.076 109.16 151.604 109.288C152.132 109.416 152.668 109.48 153.212 109.48C153.852 109.48 154.332 109.392 154.652 109.216C154.988 109.024 155.156 108.736 155.156 108.352C155.156 108.064 155.044 107.832 154.82 107.656C154.612 107.464 154.3 107.288 153.884 107.128C153.468 106.952 152.972 106.768 152.396 106.576C151.548 106.272 150.82 105.944 150.212 105.592C149.604 105.24 149.132 104.808 148.796 104.296C148.476 103.784 148.316 103.144 148.316 102.376C148.316 101.496 148.54 100.776 148.988 100.216C149.436 99.656 150.068 99.24 150.884 98.968C151.7 98.68 152.652 98.536 153.74 98.536C154.636 98.536 155.444 98.608 156.164 98.752C156.884 98.896 157.444 99.08 157.844 99.304V102.136C157.572 102.008 157.212 101.88 156.764 101.752C156.332 101.624 155.86 101.52 155.348 101.44C154.852 101.344 154.372 101.296 153.908 101.296C153.252 101.296 152.756 101.384 152.42 101.56C152.084 101.736 151.916 101.984 151.916 102.304C151.916 102.56 152.028 102.776 152.252 102.952C152.492 103.128 152.836 103.296 153.284 103.456C153.732 103.6 154.268 103.784 154.892 104.008C155.724 104.296 156.428 104.616 157.004 104.968C157.58 105.32 158.012 105.752 158.3 106.264C158.604 106.776 158.756 107.408 158.756 108.16C158.756 108.88 158.588 109.56 158.252 110.2C157.932 110.824 157.38 111.336 156.596 111.736C155.812 112.12 154.732 112.312 153.356 112.312ZM163.066 112V106.48H161.698V104.272H166.306V109.264H166.474C167.002 109.264 167.45 109.12 167.818 108.832C168.202 108.544 168.49 108.12 168.682 107.56C168.874 106.984 168.97 106.264 168.97 105.4C168.97 104.408 168.826 103.624 168.538 103.048C168.266 102.456 167.858 102.032 167.314 101.776C166.77 101.52 166.098 101.392 165.298 101.392C164.466 101.392 163.714 101.512 163.042 101.752C162.37 101.976 161.77 102.248 161.242 102.568V99.568C161.77 99.296 162.434 99.056 163.234 98.848C164.034 98.64 164.954 98.536 165.994 98.536C167.546 98.536 168.802 98.784 169.762 99.28C170.738 99.776 171.458 100.528 171.922 101.536C172.386 102.544 172.618 103.808 172.618 105.328C172.618 106.752 172.402 107.968 171.97 108.976C171.554 109.968 170.866 110.72 169.906 111.232C168.962 111.744 167.698 112 166.114 112H163.066ZM169.196 97.024C168.444 97.024 167.852 96.912 167.42 96.688C166.988 96.464 166.684 96.184 166.508 95.848C166.316 95.496 166.22 95.128 166.22 94.744C166.22 94.472 166.26 94.184 166.34 93.88C166.42 93.56 166.54 93.264 166.7 92.992L169.316 93.328C169.284 93.44 169.26 93.56 169.244 93.688C169.212 93.8 169.196 93.904 169.196 94C169.196 94.224 169.268 94.4 169.412 94.528C169.54 94.64 169.764 94.696 170.084 94.696H175.244V97.024H169.196ZM181.56 112.24C180.264 112.24 179.232 111.96 178.464 111.4C177.696 110.824 177.144 110.04 176.808 109.048C176.472 108.04 176.304 106.888 176.304 105.592C176.304 104.2 176.456 103.048 176.76 102.136C177.08 101.208 177.528 100.488 178.104 99.976C178.68 99.448 179.36 99.08 180.144 98.872C180.944 98.648 181.816 98.536 182.76 98.536C184.2 98.536 185.352 98.736 186.216 99.136C187.08 99.536 187.704 100.104 188.088 100.84C188.488 101.576 188.688 102.44 188.688 103.432V112H185.088V103.72C185.088 102.968 184.904 102.4 184.536 102.016C184.184 101.616 183.592 101.416 182.76 101.416C182.2 101.416 181.704 101.536 181.272 101.776C180.856 102 180.528 102.408 180.288 103C180.064 103.592 179.952 104.44 179.952 105.544C179.952 106.296 180.024 106.96 180.168 107.536C180.312 108.112 180.544 108.56 180.864 108.88C181.2 109.2 181.648 109.36 182.208 109.36C182.384 109.36 182.552 109.352 182.712 109.336C182.888 109.304 183.04 109.272 183.168 109.24L183.504 111.928C183.248 112.04 182.936 112.12 182.568 112.168C182.216 112.216 181.88 112.24 181.56 112.24ZM192.643 112V107.992C192.643 106.984 192.843 106.208 193.243 105.664C193.643 105.12 194.211 104.736 194.947 104.512L194.971 104.416L192.403 103.48V102.856C192.403 102.072 192.635 101.352 193.099 100.696C193.563 100.04 194.243 99.52 195.139 99.136C196.051 98.736 197.155 98.536 198.451 98.536C199.667 98.536 200.715 98.728 201.595 99.112C202.475 99.48 203.155 100.04 203.635 100.792C204.131 101.528 204.379 102.464 204.379 103.6V112H200.779V103.816C200.779 103.016 200.563 102.416 200.131 102.016C199.715 101.616 199.123 101.416 198.355 101.416C197.619 101.416 197.067 101.576 196.699 101.896C196.331 102.2 196.131 102.576 196.099 103.024L198.235 104.008L197.971 105.568C197.395 105.6 196.963 105.808 196.675 106.192C196.387 106.576 196.243 107.096 196.243 107.752V112H192.643ZM215.947 112V103.456C215.947 102.688 215.739 102.136 215.323 101.8C214.907 101.464 214.267 101.296 213.403 101.296C212.571 101.296 211.755 101.424 210.955 101.68C210.171 101.92 209.491 102.208 208.915 102.544V99.568C209.379 99.344 210.035 99.12 210.883 98.896C211.731 98.656 212.715 98.536 213.835 98.536C214.651 98.536 215.395 98.624 216.067 98.8C216.755 98.96 217.355 99.24 217.867 99.64C218.379 100.024 218.771 100.544 219.043 101.2C219.331 101.84 219.475 102.64 219.475 103.6V112H215.947ZM212.011 112.24C210.635 112.24 209.571 111.912 208.819 111.256C208.083 110.6 207.715 109.68 207.715 108.496C207.715 107.216 208.171 106.192 209.083 105.424C210.011 104.656 211.467 104.192 213.451 104.032L216.523 103.792V106.384L213.859 106.648C212.899 106.744 212.227 106.936 211.843 107.224C211.475 107.512 211.291 107.896 211.291 108.376C211.291 108.856 211.443 109.216 211.747 109.456C212.067 109.696 212.475 109.816 212.971 109.816C213.163 109.816 213.355 109.8 213.547 109.768C213.739 109.72 213.915 109.672 214.075 109.624L214.387 111.88C214.083 111.992 213.723 112.08 213.307 112.144C212.891 112.208 212.459 112.24 212.011 112.24ZM217.133 118.264V116.128C217.133 115.728 216.957 115.528 216.605 115.528C216.525 115.528 216.445 115.536 216.365 115.552C216.285 115.568 216.205 115.592 216.125 115.624L215.957 113.896C216.181 113.816 216.493 113.736 216.893 113.656C217.277 113.576 217.669 113.536 218.069 113.536C218.853 113.536 219.405 113.688 219.725 113.992C220.045 114.312 220.205 114.744 220.205 115.288V118.264H217.133ZM217.235 97.024V91.576H220.547V97.024H217.235ZM232.739 112.24C231.603 112.24 230.683 112.024 229.979 111.592C229.291 111.16 228.803 110.608 228.515 109.936H228.323L227.939 112H225.203V98.848H228.803V105.136C228.803 106.048 228.907 106.8 229.115 107.392C229.323 107.968 229.627 108.4 230.027 108.688C230.427 108.976 230.907 109.12 231.467 109.12C232.139 109.12 232.651 108.92 233.003 108.52C233.355 108.12 233.531 107.48 233.531 106.6V98.848H237.131V107.392C237.131 108.432 236.963 109.312 236.627 110.032C236.307 110.752 235.819 111.304 235.163 111.688C234.507 112.056 233.699 112.24 232.739 112.24ZM241.438 112V98.848H244.99V103.768H245.086L249.166 98.848H253.126V98.968L244.99 107.992V112H241.438ZM249.478 112V107.656C249.478 106.808 249.23 106.2 248.734 105.832C248.254 105.448 247.55 105.256 246.622 105.256L248.734 102.76C249.694 102.76 250.494 102.952 251.134 103.336C251.774 103.72 252.254 104.24 252.574 104.896C252.91 105.536 253.078 106.272 253.078 107.104V112H249.478ZM261.36 112.24C260.384 112.24 259.56 112.056 258.888 111.688C258.232 111.304 257.728 110.736 257.376 109.984C257.04 109.232 256.872 108.312 256.872 107.224V98.848H260.472V106.6C260.472 107.48 260.648 108.12 261 108.52C261.352 108.92 261.864 109.12 262.536 109.12C263.384 109.12 264.04 108.8 264.504 108.16C264.968 107.504 265.2 106.496 265.2 105.136V98.848H268.8V112H266.064L265.68 109.984H265.464C265.192 110.624 264.72 111.16 264.048 111.592C263.392 112.024 262.496 112.24 261.36 112.24ZM266.027 97.024C265.275 97.024 264.683 96.912 264.251 96.688C263.819 96.464 263.515 96.184 263.339 95.848C263.147 95.496 263.051 95.128 263.051 94.744C263.051 94.472 263.091 94.184 263.171 93.88C263.251 93.56 263.371 93.264 263.531 92.992L266.147 93.328C266.115 93.44 266.091 93.56 266.075 93.688C266.043 93.8 266.027 93.904 266.027 94C266.027 94.224 266.099 94.4 266.243 94.528C266.371 94.64 266.595 94.696 266.915 94.696H272.075V97.024H266.027ZM276.083 112L272.267 98.848H275.891L278.795 109.096H278.939C279.195 109.096 279.435 109.024 279.659 108.88C279.883 108.736 280.075 108.544 280.235 108.304C280.555 107.856 280.795 107.328 280.955 106.72C281.115 106.096 281.195 105.48 281.195 104.872C281.195 103.8 280.987 102.976 280.571 102.4C280.171 101.824 279.611 101.536 278.891 101.536C278.747 101.536 278.611 101.544 278.483 101.56C278.371 101.576 278.267 101.608 278.171 101.656L277.499 98.896C277.867 98.784 278.211 98.72 278.531 98.704C278.867 98.672 279.139 98.656 279.347 98.656C280.195 98.656 280.931 98.768 281.555 98.992C282.179 99.216 282.715 99.552 283.163 100C283.723 100.544 284.139 101.224 284.411 102.04C284.699 102.856 284.843 103.776 284.843 104.8C284.843 106.096 284.635 107.232 284.219 108.208C283.819 109.168 283.331 109.928 282.755 110.488C282.275 110.952 281.667 111.32 280.931 111.592C280.211 111.864 279.219 112 277.955 112H276.083ZM295.746 112V103.456C295.746 102.688 295.538 102.136 295.122 101.8C294.706 101.464 294.066 101.296 293.202 101.296C292.37 101.296 291.554 101.424 290.754 101.68C289.97 101.92 289.29 102.208 288.714 102.544V99.568C289.178 99.344 289.834 99.12 290.682 98.896C291.53 98.656 292.506 98.536 293.61 98.536C294.458 98.536 295.218 98.64 295.89 98.848C296.578 99.056 297.074 99.464 297.378 100.072C298.05 100.28 298.53 100.688 298.818 101.296C299.122 101.888 299.274 102.656 299.274 103.6V112H295.746ZM291.81 112.24C290.434 112.24 289.37 111.912 288.618 111.256C287.882 110.6 287.514 109.68 287.514 108.496C287.514 107.216 287.97 106.192 288.882 105.424C289.81 104.656 291.266 104.192 293.25 104.032L296.322 103.792V106.384L293.658 106.648C292.698 106.744 292.026 106.936 291.642 107.224C291.274 107.512 291.09 107.896 291.09 108.376C291.09 108.856 291.242 109.216 291.546 109.456C291.866 109.696 292.274 109.816 292.77 109.816C292.962 109.816 293.154 109.8 293.346 109.768C293.538 109.72 293.714 109.672 293.874 109.624L294.186 111.88C293.882 111.992 293.522 112.08 293.106 112.144C292.69 112.208 292.258 112.24 291.81 112.24ZM297.306 101.464L295.338 99.808C295.898 99.616 296.338 99.376 296.658 99.088C296.978 98.784 297.146 98.416 297.162 97.984H300.306C300.306 98.48 300.202 98.96 299.994 99.424C299.802 99.872 299.482 100.272 299.034 100.624C298.602 100.976 298.026 101.256 297.306 101.464ZM289.036 97.024V95.512L291.46 94.504H300.028V97.024H289.036ZM294.076 95.56V92.848H296.356V95.56H294.076ZM297.772 95.56V92.848H300.028V95.56H297.772ZM309.368 112.312C307.416 112.312 305.968 111.84 305.024 110.896C304.08 109.936 303.608 108.52 303.608 106.648C303.608 106.328 303.616 105.944 303.632 105.496C303.664 105.032 303.704 104.624 303.752 104.272H309.512V106.552H307.136V106.888C307.136 107.528 307.216 108.056 307.376 108.472C307.536 108.872 307.776 109.168 308.096 109.36C308.432 109.552 308.848 109.648 309.344 109.648C309.888 109.648 310.344 109.528 310.712 109.288C311.096 109.048 311.384 108.64 311.576 108.064C311.784 107.488 311.888 106.696 311.888 105.688C311.888 104.744 311.776 103.96 311.552 103.336C311.344 102.696 310.984 102.216 310.472 101.896C309.976 101.576 309.288 101.416 308.408 101.416C307.928 101.416 307.432 101.472 306.92 101.584C306.408 101.68 305.92 101.808 305.456 101.968C305.008 102.128 304.616 102.304 304.28 102.496V99.496C304.632 99.304 305.064 99.136 305.576 98.992C306.104 98.848 306.672 98.736 307.28 98.656C307.888 98.576 308.488 98.536 309.08 98.536C310.632 98.536 311.88 98.824 312.824 99.4C313.784 99.96 314.48 100.76 314.912 101.8C315.36 102.84 315.584 104.072 315.584 105.496C315.584 106.952 315.368 108.192 314.936 109.216C314.52 110.224 313.856 110.992 312.944 111.52C312.032 112.048 310.84 112.312 309.368 112.312Z" fill="#252525"/>
<path d="M140.642 170V162.88C140.642 162.24 140.469 161.78 140.122 161.5C139.776 161.22 139.242 161.08 138.522 161.08C137.829 161.08 137.149 161.187 136.482 161.4C135.829 161.6 135.262 161.84 134.782 162.12V159.64C135.169 159.453 135.716 159.267 136.422 159.08C137.129 158.88 137.942 158.78 138.862 158.78C139.569 158.78 140.202 158.867 140.762 159.04C141.336 159.213 141.749 159.553 142.002 160.06C142.562 160.233 142.962 160.573 143.202 161.08C143.456 161.573 143.582 162.213 143.582 163V170H140.642ZM137.362 170.2C136.216 170.2 135.329 169.927 134.702 169.38C134.089 168.833 133.782 168.067 133.782 167.08C133.782 166.013 134.162 165.16 134.922 164.52C135.696 163.88 136.909 163.493 138.562 163.36L141.122 163.16V165.32L138.902 165.54C138.102 165.62 137.542 165.78 137.222 166.02C136.916 166.26 136.762 166.58 136.762 166.98C136.762 167.38 136.889 167.68 137.142 167.88C137.409 168.08 137.749 168.18 138.162 168.18C138.322 168.18 138.482 168.167 138.642 168.14C138.802 168.1 138.949 168.06 139.082 168.02L139.342 169.9C139.089 169.993 138.789 170.067 138.442 170.12C138.096 170.173 137.736 170.2 137.362 170.2ZM141.942 161.22L140.302 159.84C140.769 159.68 141.136 159.48 141.402 159.24C141.669 158.987 141.809 158.68 141.822 158.32H144.442C144.442 158.733 144.356 159.133 144.182 159.52C144.022 159.893 143.756 160.227 143.382 160.52C143.022 160.813 142.542 161.047 141.942 161.22ZM142.15 157.96C141.39 157.96 140.784 157.787 140.33 157.44C139.877 157.093 139.65 156.607 139.65 155.98C139.65 155.353 139.877 154.867 140.33 154.52C140.784 154.173 141.39 154 142.15 154C142.91 154 143.524 154.173 143.99 154.52C144.444 154.867 144.67 155.353 144.67 155.98C144.67 156.607 144.444 157.093 143.99 157.44C143.524 157.787 142.91 157.96 142.15 157.96ZM142.15 156.8C142.444 156.8 142.67 156.727 142.83 156.58C142.99 156.433 143.07 156.233 143.07 155.98C143.07 155.727 142.99 155.527 142.83 155.38C142.67 155.233 142.444 155.16 142.15 155.16C141.87 155.16 141.65 155.233 141.49 155.38C141.33 155.527 141.25 155.727 141.25 155.98C141.25 156.233 141.33 156.433 141.49 156.58C141.65 156.727 141.87 156.8 142.15 156.8ZM150.534 170V162.76C150.534 162.2 150.4 161.793 150.134 161.54C149.88 161.287 149.46 161.16 148.874 161.16C148.434 161.16 148.027 161.22 147.654 161.34C147.294 161.46 146.954 161.607 146.634 161.78V159.38C146.927 159.247 147.34 159.113 147.874 158.98C148.407 158.847 149.034 158.78 149.754 158.78C150.487 158.78 151.134 158.887 151.694 159.1C152.267 159.313 152.714 159.673 153.034 160.18C153.367 160.673 153.534 161.353 153.534 162.22V170H150.534ZM157.105 170V159.04H160.065V163.14H160.145L163.545 159.04H166.845V159.14L160.065 166.66V170H157.105ZM163.805 170V166.38C163.805 165.673 163.598 165.167 163.185 164.86C162.785 164.54 162.198 164.38 161.425 164.38L163.185 162.3C163.985 162.3 164.652 162.46 165.185 162.78C165.718 163.1 166.118 163.533 166.385 164.08C166.665 164.613 166.805 165.227 166.805 165.92V170H163.805ZM173.726 170.26C172.94 170.26 172.146 170.173 171.346 170C170.56 169.827 169.86 169.58 169.246 169.26L170.086 166.88C170.353 167.027 170.673 167.18 171.046 167.34C171.42 167.5 171.826 167.633 172.266 167.74C172.706 167.847 173.153 167.9 173.606 167.9C174.14 167.9 174.54 167.827 174.806 167.68C175.086 167.52 175.226 167.28 175.226 166.96C175.226 166.72 175.133 166.527 174.946 166.38C174.773 166.22 174.513 166.073 174.166 165.94C173.82 165.793 173.406 165.64 172.926 165.48C172.22 165.227 171.613 164.953 171.106 164.66C170.6 164.367 170.206 164.007 169.926 163.58C169.66 163.153 169.526 162.62 169.526 161.98C169.526 161.247 169.713 160.647 170.086 160.18C170.46 159.713 170.986 159.367 171.666 159.14C172.346 158.9 173.14 158.78 174.046 158.78C174.793 158.78 175.466 158.84 176.066 158.96C176.666 159.08 177.133 159.233 177.466 159.42V161.78C177.24 161.673 176.94 161.567 176.566 161.46C176.206 161.353 175.813 161.267 175.386 161.2C174.973 161.12 174.573 161.08 174.186 161.08C173.64 161.08 173.226 161.153 172.946 161.3C172.666 161.447 172.526 161.653 172.526 161.92C172.526 162.133 172.62 162.313 172.806 162.46C173.006 162.607 173.293 162.747 173.666 162.88C174.04 163 174.486 163.153 175.006 163.34C175.7 163.58 176.286 163.847 176.766 164.14C177.246 164.433 177.606 164.793 177.846 165.22C178.1 165.647 178.226 166.173 178.226 166.8C178.226 167.4 178.086 167.967 177.806 168.5C177.54 169.02 177.08 169.447 176.426 169.78C175.773 170.1 174.873 170.26 173.726 170.26ZM175.252 157.52C174.626 157.52 174.132 157.427 173.772 157.24C173.412 157.053 173.159 156.82 173.012 156.54C172.852 156.247 172.772 155.94 172.772 155.62C172.772 155.393 172.806 155.153 172.872 154.9C172.939 154.633 173.039 154.387 173.172 154.16L175.352 154.44C175.326 154.533 175.306 154.633 175.292 154.74C175.266 154.833 175.252 154.92 175.252 155C175.252 155.187 175.312 155.333 175.432 155.44C175.539 155.533 175.726 155.58 175.992 155.58H180.292V157.52H175.252ZM186.458 170.26C184.725 170.26 183.465 169.86 182.678 169.06C181.905 168.247 181.518 167.073 181.518 165.54V159.04H184.518V165.7C184.518 166.407 184.671 166.947 184.978 167.32C185.298 167.68 185.791 167.86 186.458 167.86C187.125 167.86 187.611 167.68 187.918 167.32C188.238 166.947 188.398 166.407 188.398 165.7V159.04H191.398V165.54C191.398 167.073 191.005 168.247 190.218 169.06C189.445 169.86 188.191 170.26 186.458 170.26ZM194.974 170V159.04H197.934V163.14H198.014L201.414 159.04H204.714V159.14L197.934 166.66V170H194.974ZM201.674 170V166.38C201.674 165.673 201.467 165.167 201.054 164.86C200.654 164.54 200.067 164.38 199.294 164.38L201.054 162.3C201.854 162.3 202.52 162.46 203.054 162.78C203.587 163.1 203.987 163.533 204.254 164.08C204.534 164.613 204.674 165.227 204.674 165.92V170H201.674ZM211.575 170.2C210.762 170.2 210.075 170.047 209.515 169.74C208.968 169.42 208.548 168.947 208.255 168.32C207.975 167.693 207.835 166.927 207.835 166.02V159.04H210.835V165.5C210.835 166.233 210.982 166.767 211.275 167.1C211.568 167.433 211.995 167.6 212.555 167.6C213.262 167.6 213.808 167.333 214.195 166.8C214.582 166.253 214.775 165.413 214.775 164.28V159.04H217.775V170H215.495L215.175 168.32H214.995C214.768 168.853 214.375 169.3 213.815 169.66C213.268 170.02 212.522 170.2 211.575 170.2ZM215.465 157.52C214.838 157.52 214.345 157.427 213.985 157.24C213.625 157.053 213.372 156.82 213.225 156.54C213.065 156.247 212.985 155.94 212.985 155.62C212.985 155.393 213.018 155.153 213.085 154.9C213.152 154.633 213.252 154.387 213.385 154.16L215.565 154.44C215.538 154.533 215.518 154.633 215.505 154.74C215.478 154.833 215.465 154.92 215.465 155C215.465 155.187 215.525 155.333 215.645 155.44C215.752 155.533 215.938 155.58 216.205 155.58H220.505V157.52H215.465ZM223.845 170L220.665 159.04H223.685L226.105 167.58H226.225C226.438 167.58 226.638 167.52 226.825 167.4C227.012 167.28 227.172 167.12 227.305 166.92C227.572 166.547 227.772 166.107 227.905 165.6C228.038 165.08 228.105 164.567 228.105 164.06C228.105 163.167 227.932 162.48 227.585 162C227.252 161.52 226.785 161.28 226.185 161.28C226.065 161.28 225.952 161.287 225.845 161.3C225.752 161.313 225.665 161.34 225.585 161.38L225.025 159.08C225.332 158.987 225.618 158.933 225.885 158.92C226.165 158.893 226.392 158.88 226.565 158.88C227.272 158.88 227.885 158.973 228.405 159.16C228.925 159.347 229.372 159.627 229.745 160C230.212 160.453 230.558 161.02 230.785 161.7C231.025 162.38 231.145 163.147 231.145 164C231.145 165.08 230.972 166.027 230.625 166.84C230.292 167.64 229.885 168.273 229.405 168.74C229.005 169.127 228.498 169.433 227.885 169.66C227.285 169.887 226.458 170 225.405 170H223.845ZM240.231 170V162.88C240.231 162.24 240.057 161.78 239.711 161.5C239.364 161.22 238.831 161.08 238.111 161.08C237.417 161.08 236.737 161.187 236.071 161.4C235.417 161.6 234.851 161.84 234.371 162.12V159.64C234.757 159.453 235.304 159.267 236.011 159.08C236.717 158.88 237.531 158.78 238.451 158.78C239.157 158.78 239.791 158.867 240.351 159.04C240.924 159.213 241.337 159.553 241.591 160.06C242.151 160.233 242.551 160.573 242.791 161.08C243.044 161.573 243.171 162.213 243.171 163V170H240.231ZM236.951 170.2C235.804 170.2 234.917 169.927 234.291 169.38C233.677 168.833 233.371 168.067 233.371 167.08C233.371 166.013 233.751 165.16 234.511 164.52C235.284 163.88 236.497 163.493 238.151 163.36L240.711 163.16V165.32L238.491 165.54C237.691 165.62 237.131 165.78 236.811 166.02C236.504 166.26 236.351 166.58 236.351 166.98C236.351 167.38 236.477 167.68 236.731 167.88C236.997 168.08 237.337 168.18 237.751 168.18C237.911 168.18 238.071 168.167 238.231 168.14C238.391 168.1 238.537 168.06 238.671 168.02L238.931 169.9C238.677 169.993 238.377 170.067 238.031 170.12C237.684 170.173 237.324 170.2 236.951 170.2ZM241.531 161.22L239.891 159.84C240.357 159.68 240.724 159.48 240.991 159.24C241.257 158.987 241.397 158.68 241.411 158.32H244.031C244.031 158.733 243.944 159.133 243.771 159.52C243.611 159.893 243.344 160.227 242.971 160.52C242.611 160.813 242.131 161.047 241.531 161.22ZM234.639 157.52V156.26L236.659 155.42H243.799V157.52H234.639ZM238.839 156.3V154.04H240.739V156.3H238.839ZM241.919 156.3V154.04H243.799V156.3H241.919ZM251.582 170.26C249.955 170.26 248.749 169.867 247.962 169.08C247.175 168.28 246.782 167.1 246.782 165.54C246.782 165.273 246.789 164.953 246.802 164.58C246.829 164.193 246.862 163.853 246.902 163.56H251.702V165.46H249.722V165.74C249.722 166.273 249.789 166.713 249.922 167.06C250.055 167.393 250.255 167.64 250.522 167.8C250.802 167.96 251.149 168.04 251.562 168.04C252.015 168.04 252.395 167.94 252.702 167.74C253.022 167.54 253.262 167.2 253.422 166.72C253.595 166.24 253.682 165.58 253.682 164.74C253.682 163.953 253.589 163.3 253.402 162.78C253.229 162.247 252.929 161.847 252.502 161.58C252.089 161.313 251.515 161.18 250.782 161.18C250.382 161.18 249.969 161.227 249.542 161.32C249.115 161.4 248.709 161.507 248.322 161.64C247.949 161.773 247.622 161.92 247.342 162.08V159.58C247.635 159.42 247.995 159.28 248.422 159.16C248.862 159.04 249.335 158.947 249.842 158.88C250.349 158.813 250.849 158.78 251.342 158.78C252.635 158.78 253.675 159.02 254.462 159.5C255.262 159.967 255.842 160.633 256.202 161.5C256.575 162.367 256.762 163.393 256.762 164.58C256.762 165.793 256.582 166.827 256.222 167.68C255.875 168.52 255.322 169.16 254.562 169.6C253.802 170.04 252.809 170.26 251.582 170.26ZM260.357 161.04V157.78C260.357 156.98 260.211 156.407 259.917 156.06C259.624 155.713 259.184 155.54 258.597 155.54V154.34L260.617 153.38H265.717V155.54H262.357L262.337 155.62C262.684 155.833 262.937 156.14 263.097 156.54C263.271 156.94 263.357 157.467 263.357 158.12V161.04H260.357ZM263.137 170.2C262.537 170.2 262.031 170.107 261.617 169.92C261.204 169.733 260.891 169.453 260.677 169.08C260.464 168.693 260.357 168.213 260.357 167.64V159.04H263.357V167.28C263.357 167.533 263.411 167.72 263.517 167.84C263.637 167.96 263.817 168.02 264.057 168.02C264.164 168.02 264.277 168.007 264.397 167.98C264.517 167.953 264.631 167.92 264.737 167.88L265.017 169.8C264.764 169.933 264.477 170.033 264.157 170.1C263.837 170.167 263.497 170.2 263.137 170.2ZM268.013 170V165.4H266.873V163.56H270.713V167.72H270.853C271.293 167.72 271.667 167.6 271.973 167.36C272.293 167.12 272.533 166.767 272.693 166.3C272.853 165.82 272.933 165.22 272.933 164.5C272.933 163.673 272.813 163.02 272.573 162.54C272.347 162.047 272.007 161.693 271.553 161.48C271.1 161.267 270.54 161.16 269.873 161.16C269.18 161.16 268.553 161.26 267.993 161.46C267.433 161.647 266.933 161.873 266.493 162.14V159.64C266.933 159.413 267.487 159.213 268.153 159.04C268.82 158.867 269.587 158.78 270.453 158.78C271.747 158.78 272.793 158.987 273.593 159.4C274.407 159.813 275.007 160.44 275.393 161.28C275.78 162.12 275.973 163.173 275.973 164.44C275.973 165.627 275.793 166.64 275.433 167.48C275.087 168.307 274.513 168.933 273.713 169.36C272.927 169.787 271.873 170 270.553 170H268.013ZM279.025 170V159.04H281.225L281.625 160.76H281.785C282.012 160.213 282.405 159.76 282.965 159.4C283.525 159.027 284.252 158.84 285.145 158.84C285.999 158.84 286.705 158.993 287.265 159.3C287.825 159.593 288.245 160.047 288.525 160.66C288.819 161.26 288.965 162.02 288.965 162.94V170H285.965V163.54C285.965 162.793 285.812 162.26 285.505 161.94C285.212 161.607 284.779 161.44 284.205 161.44C283.739 161.44 283.339 161.567 283.005 161.82C282.685 162.073 282.439 162.447 282.265 162.94C282.105 163.42 282.025 164.027 282.025 164.76V170H279.025ZM296.996 170.26C295.796 170.26 294.836 170.12 294.116 169.84C293.396 169.547 292.87 169.14 292.536 168.62C292.216 168.1 292.056 167.5 292.056 166.82C292.056 166.233 292.143 165.76 292.316 165.4C292.503 165.04 292.736 164.767 293.016 164.58C293.31 164.38 293.603 164.247 293.896 164.18V164.06C293.59 163.953 293.296 163.807 293.016 163.62C292.736 163.433 292.503 163.18 292.316 162.86C292.143 162.54 292.056 162.14 292.056 161.66C292.056 161.167 292.17 160.707 292.396 160.28C292.636 159.853 293.016 159.513 293.536 159.26C294.056 158.993 294.743 158.86 295.596 158.86C296.01 158.86 296.41 158.893 296.796 158.96C297.183 159.013 297.483 159.093 297.696 159.2L297.236 161.22C297.13 161.193 296.983 161.167 296.796 161.14C296.623 161.1 296.443 161.08 296.256 161.08C295.843 161.08 295.536 161.18 295.336 161.38C295.136 161.567 295.036 161.813 295.036 162.12C295.036 162.44 295.123 162.687 295.296 162.86C295.47 163.033 295.69 163.153 295.956 163.22C296.236 163.287 296.523 163.32 296.816 163.32H297.236V165.18H296.816C296.243 165.18 295.81 165.28 295.516 165.48C295.236 165.68 295.096 166.007 295.096 166.46C295.096 166.7 295.15 166.94 295.256 167.18C295.376 167.407 295.576 167.6 295.856 167.76C296.136 167.907 296.536 167.98 297.056 167.98C297.55 167.98 297.936 167.907 298.216 167.76C298.496 167.613 298.696 167.42 298.816 167.18C298.936 166.927 298.996 166.647 298.996 166.34V159.04H301.996V166.24C301.996 167.613 301.59 168.627 300.776 169.28C299.976 169.933 298.716 170.26 296.996 170.26ZM298.854 157.96C298.747 157.773 298.661 157.533 298.594 157.24C298.514 156.947 298.474 156.653 298.474 156.36C298.474 155.987 298.547 155.647 298.694 155.34C298.827 155.033 299.074 154.793 299.434 154.62C299.781 154.433 300.261 154.34 300.874 154.34H303.774V156.36H301.854C301.601 156.36 301.407 156.407 301.274 156.5C301.127 156.58 301.054 156.733 301.054 156.96C301.054 157.053 301.067 157.153 301.094 157.26C301.121 157.353 301.161 157.453 301.214 157.56L298.854 157.96Z" fill="#252525"/>
<path d="M168 236C168 230.477 172.477 226 178 226H224V282H168V236Z" fill="#B4B4B4"/>
<path d="M168 282H224V338H178C172.477 338 168 333.523 168 328V282Z" fill="#B4B4B4"/>
<path d="M224 216H280C285.523 216 290 220.477 290 226V282H224V216Z" fill="#00A3EE"/>
<path d="M224 282H280V328C280 333.523 275.523 338 270 338H224V282Z" fill="#B4B4B4"/>
<path d="M223.789 216V348.25" stroke="black" stroke-width="3" stroke-linecap="round"/>
<path d="M158 282.46H290.25" stroke="black" stroke-width="3" stroke-linecap="round"/>
<path d="M61 409.864C60.5417 409.864 60.1231 409.752 59.7443 409.528C59.3655 409.301 59.0625 408.998 58.8352 408.619C58.6117 408.241 58.5 407.822 58.5 407.364C58.5 406.902 58.6117 406.483 58.8352 406.108C59.0625 405.729 59.3655 405.428 59.7443 405.205C60.1231 404.977 60.5417 404.864 61 404.864C61.4621 404.864 61.8807 404.977 62.2557 405.205C62.6345 405.428 62.9356 405.729 63.1591 406.108C63.3864 406.483 63.5 406.902 63.5 407.364C63.5 407.822 63.3864 408.241 63.1591 408.619C62.9356 408.998 62.6345 409.301 62.2557 409.528C61.8807 409.752 61.4621 409.864 61 409.864ZM74.424 412V403.232H75.848V407.024H75.896L79.544 403.232H81.208V403.28L75.848 408.704V412H74.424ZM79.864 412V408.912C79.864 408.283 79.672 407.792 79.288 407.44C78.904 407.088 78.2693 406.912 77.384 406.912L78.216 405.872C78.888 405.872 79.448 405.995 79.896 406.24C80.3547 406.475 80.7013 406.816 80.936 407.264C81.1707 407.712 81.288 408.251 81.288 408.88V412H79.864ZM87.1906 412.16C86.5613 412.16 86.0173 412.053 85.5586 411.84C85.1106 411.616 84.764 411.28 84.5186 410.832C84.284 410.384 84.1666 409.803 84.1666 409.088V403.232H85.5906V409.008C85.5906 409.648 85.7506 410.133 86.0706 410.464C86.4013 410.795 86.876 410.96 87.4946 410.96C88.2413 410.96 88.8173 410.72 89.2226 410.24C89.6386 409.76 89.8466 409.115 89.8466 408.304V403.232H91.2706V412H90.0866L90.0226 410.704H89.9426C89.7506 411.131 89.4146 411.483 88.9346 411.76C88.4653 412.027 87.884 412.16 87.1906 412.16ZM89.7071 401.84C89.2591 401.84 88.9018 401.776 88.6351 401.648C88.3685 401.52 88.1765 401.355 88.0591 401.152C87.9311 400.949 87.8671 400.736 87.8671 400.512C87.8671 400.352 87.8938 400.181 87.9471 400C87.9898 399.808 88.0485 399.653 88.1231 399.536L89.3231 399.744C89.3018 399.787 89.2805 399.861 89.2591 399.968C89.2378 400.064 89.2271 400.155 89.2271 400.24C89.2271 400.379 89.2698 400.501 89.3551 400.608C89.4405 400.704 89.5845 400.752 89.7871 400.752H93.8351V401.84H89.7071ZM96.3791 412L93.6431 403.232H95.0831L97.4511 410.768H97.6431C97.8991 410.768 98.1498 410.709 98.3951 410.592C98.6405 410.464 98.8485 410.304 99.0191 410.112C99.3391 409.76 99.5738 409.317 99.7231 408.784C99.8725 408.24 99.9471 407.707 99.9471 407.184C99.9471 406.299 99.7445 405.605 99.3391 405.104C98.9445 404.592 98.3951 404.336 97.6911 404.336C97.5525 404.336 97.4138 404.347 97.2751 404.368C97.1471 404.389 97.0405 404.416 96.9551 404.448L96.6031 403.312C96.8271 403.248 97.0351 403.205 97.2271 403.184C97.4298 403.163 97.6111 403.152 97.7711 403.152C98.3045 403.152 98.7791 403.232 99.1951 403.392C99.6218 403.541 99.9845 403.765 100.283 404.064C100.656 404.427 100.928 404.88 101.099 405.424C101.28 405.968 101.371 406.571 101.371 407.232C101.371 408.064 101.243 408.805 100.987 409.456C100.731 410.096 100.411 410.608 100.027 410.992C99.7178 411.301 99.3391 411.547 98.8911 411.728C98.4431 411.909 97.8725 412 97.1791 412H96.3791ZM109.149 412V406.16C109.149 405.467 108.989 404.976 108.669 404.688C108.36 404.389 107.837 404.24 107.101 404.24C106.568 404.24 106.056 404.315 105.565 404.464C105.085 404.603 104.626 404.8 104.189 405.056V403.728C104.498 403.568 104.914 403.419 105.437 403.28C105.97 403.141 106.568 403.072 107.229 403.072C107.794 403.072 108.274 403.136 108.669 403.264C109.074 403.392 109.373 403.627 109.565 403.968C109.938 404.139 110.194 404.405 110.333 404.768C110.482 405.131 110.557 405.568 110.557 406.08V412H109.149ZM106.397 412.16C105.458 412.16 104.738 411.947 104.237 411.52C103.746 411.083 103.501 410.459 103.501 409.648C103.501 408.763 103.821 408.08 104.461 407.6C105.112 407.12 106.162 406.837 107.613 406.752L109.437 406.64V407.824L107.805 407.936C106.717 408.011 105.965 408.181 105.549 408.448C105.144 408.715 104.941 409.104 104.941 409.616C104.941 410.096 105.09 410.448 105.389 410.672C105.698 410.896 106.125 411.008 106.669 411.008C106.85 411.008 107.016 410.997 107.165 410.976C107.314 410.944 107.458 410.907 107.597 410.864L107.821 411.936C107.618 412.011 107.394 412.064 107.149 412.096C106.914 412.139 106.664 412.16 106.397 412.16ZM109.517 404.464L108.717 403.712C108.994 403.669 109.256 403.563 109.501 403.392C109.746 403.221 109.869 402.976 109.869 402.656H111.261C111.261 402.987 111.181 403.28 111.021 403.536C110.872 403.781 110.664 403.984 110.397 404.144C110.13 404.293 109.837 404.4 109.517 404.464ZM104.239 401.84V401.216L105.407 400.704H111.039V401.84H104.239ZM107.535 401.216V399.408H108.719V401.216H107.535ZM109.871 401.216V399.408H111.039V401.216H109.871ZM117.233 412.16C116.081 412.16 115.217 411.861 114.641 411.264C114.076 410.656 113.793 409.707 113.793 408.416C113.793 408.203 113.798 407.973 113.809 407.728C113.83 407.472 113.852 407.221 113.873 406.976H117.233V408.096H115.217V408.416C115.217 409.088 115.292 409.616 115.441 410C115.59 410.373 115.809 410.635 116.097 410.784C116.396 410.933 116.764 411.008 117.201 411.008C117.681 411.008 118.097 410.917 118.449 410.736C118.801 410.555 119.073 410.224 119.265 409.744C119.457 409.264 119.553 408.576 119.553 407.68C119.553 406.891 119.468 406.245 119.297 405.744C119.126 405.243 118.844 404.869 118.449 404.624C118.065 404.379 117.542 404.256 116.881 404.256C116.54 404.256 116.209 404.288 115.889 404.352C115.569 404.405 115.26 404.491 114.961 404.608C114.662 404.715 114.369 404.853 114.081 405.024V403.696C114.294 403.579 114.556 403.477 114.865 403.392C115.174 403.296 115.516 403.221 115.889 403.168C116.262 403.104 116.652 403.072 117.057 403.072C117.996 403.072 118.753 403.264 119.329 403.648C119.916 404.021 120.342 404.555 120.609 405.248C120.876 405.931 121.009 406.741 121.009 407.68C121.009 408.619 120.886 409.424 120.641 410.096C120.396 410.768 119.996 411.28 119.441 411.632C118.897 411.984 118.161 412.16 117.233 412.16ZM123.845 412V403.232H124.837L125.093 404.624H125.157C125.338 404.144 125.669 403.765 126.149 403.488C126.629 403.211 127.21 403.072 127.893 403.072C128.533 403.072 129.077 403.184 129.525 403.408C129.983 403.621 130.335 403.952 130.581 404.4C130.826 404.848 130.949 405.429 130.949 406.144V412H129.525V406.224C129.525 405.584 129.365 405.099 129.045 404.768C128.725 404.437 128.25 404.272 127.621 404.272C127.119 404.272 126.693 404.389 126.341 404.624C125.989 404.859 125.722 405.179 125.541 405.584C125.359 405.979 125.269 406.427 125.269 406.928V412H123.845ZM124.46 401.84V401.216L125.628 400.704H131.26V401.84H124.46ZM129.932 401.216V399.408H131.276V401.216H129.932ZM130.396 398.464V395.856H131.756V398.464H130.396ZM139.211 412.16C138.528 412.16 137.936 412.027 137.435 411.76C136.944 411.483 136.608 411.099 136.427 410.608H136.363L136.283 412H135.115V403.232H136.539V408.304C136.539 408.837 136.629 409.307 136.811 409.712C137.003 410.107 137.275 410.416 137.627 410.64C137.989 410.853 138.421 410.96 138.923 410.96C139.552 410.96 140.021 410.795 140.331 410.464C140.64 410.133 140.795 409.648 140.795 409.008V403.232H142.219V409.104C142.219 409.808 142.096 410.384 141.851 410.832C141.616 411.28 141.275 411.616 140.827 411.84C140.379 412.053 139.84 412.16 139.211 412.16ZM135.9 401.84V401.216L137.068 400.704H142.7V401.84H135.9ZM141.372 401.216V399.408H142.716V401.216H141.372ZM146.239 404.832V401.696C146.239 401.056 146.084 400.597 145.775 400.32C145.476 400.043 145.092 399.904 144.623 399.904V399.296L145.807 398.784H150.079V399.904H146.831L146.815 399.968C147.049 400.128 147.247 400.373 147.407 400.704C147.577 401.024 147.663 401.445 147.663 401.968V404.832H146.239ZM147.983 412.16C147.695 412.16 147.417 412.112 147.151 412.016C146.884 411.92 146.665 411.749 146.495 411.504C146.324 411.259 146.239 410.917 146.239 410.48V403.232H147.663V410.304C147.663 410.549 147.716 410.725 147.823 410.832C147.929 410.939 148.1 410.992 148.335 410.992C148.431 410.992 148.532 410.981 148.639 410.96C148.745 410.939 148.847 410.912 148.943 410.88L149.135 411.92C148.932 412.016 148.735 412.08 148.543 412.112C148.351 412.144 148.164 412.16 147.983 412.16ZM151.764 412V408.096H150.548V406.976H153.124V410.848H153.332C153.812 410.848 154.212 410.741 154.532 410.528C154.852 410.315 155.092 409.968 155.252 409.488C155.412 409.008 155.492 408.373 155.492 407.584C155.492 406.795 155.401 406.155 155.22 405.664C155.049 405.173 154.767 404.816 154.372 404.592C153.988 404.368 153.465 404.256 152.804 404.256C152.303 404.256 151.817 404.325 151.348 404.464C150.889 404.592 150.447 404.795 150.02 405.072V403.744C150.34 403.552 150.761 403.392 151.284 403.264C151.807 403.136 152.372 403.072 152.98 403.072C153.951 403.072 154.724 403.253 155.3 403.616C155.887 403.968 156.308 404.48 156.564 405.152C156.82 405.824 156.948 406.64 156.948 407.6C156.948 408.528 156.82 409.323 156.564 409.984C156.319 410.635 155.913 411.136 155.348 411.488C154.793 411.829 154.047 412 153.108 412H151.764ZM159.752 412V403.232H160.744L161 404.624H161.064C161.245 404.144 161.576 403.765 162.056 403.488C162.536 403.211 163.117 403.072 163.8 403.072C164.44 403.072 164.984 403.184 165.432 403.408C165.89 403.621 166.242 403.952 166.488 404.4C166.733 404.848 166.856 405.429 166.856 406.144V412H165.432V406.224C165.432 405.584 165.272 405.099 164.952 404.768C164.632 404.437 164.157 404.272 163.528 404.272C163.026 404.272 162.6 404.389 162.248 404.624C161.896 404.859 161.629 405.179 161.448 405.584C161.266 405.979 161.176 406.427 161.176 406.928V412H159.752ZM173.309 412.144C172.445 412.144 171.752 412.032 171.229 411.808C170.717 411.584 170.344 411.269 170.109 410.864C169.885 410.459 169.773 409.979 169.773 409.424C169.773 408.933 169.843 408.544 169.981 408.256C170.131 407.957 170.312 407.739 170.525 407.6C170.749 407.461 170.979 407.371 171.213 407.328V407.264C171 407.2 170.776 407.093 170.541 406.944C170.307 406.795 170.109 406.587 169.949 406.32C169.8 406.053 169.725 405.717 169.725 405.312C169.725 404.939 169.811 404.587 169.981 404.256C170.152 403.925 170.429 403.653 170.813 403.44C171.197 403.227 171.704 403.12 172.333 403.12C172.589 403.12 172.856 403.141 173.133 403.184C173.411 403.216 173.624 403.275 173.773 403.36L173.517 404.464C173.4 404.421 173.245 404.384 173.053 404.352C172.872 404.309 172.68 404.288 172.477 404.288C172.029 404.288 171.699 404.395 171.485 404.608C171.272 404.811 171.165 405.083 171.165 405.424C171.165 405.797 171.256 406.08 171.437 406.272C171.629 406.464 171.869 406.597 172.157 406.672C172.456 406.736 172.765 406.768 173.085 406.768H173.389V407.808H173.085C172.445 407.808 171.971 407.925 171.661 408.16C171.363 408.384 171.213 408.763 171.213 409.296C171.213 409.605 171.272 409.888 171.389 410.144C171.517 410.4 171.731 410.603 172.029 410.752C172.339 410.901 172.765 410.976 173.309 410.976C173.853 410.976 174.275 410.901 174.573 410.752C174.883 410.603 175.101 410.389 175.229 410.112C175.357 409.824 175.421 409.483 175.421 409.088V403.232H176.845V408.992C176.845 410.112 176.557 410.917 175.981 411.408C175.416 411.899 174.525 412.144 173.309 412.144ZM174.694 402.304C174.62 402.187 174.561 402.037 174.518 401.856C174.465 401.664 174.438 401.477 174.438 401.296C174.438 401.072 174.486 400.864 174.582 400.672C174.678 400.469 174.849 400.304 175.094 400.176C175.34 400.048 175.681 399.984 176.118 399.984H178.31V401.088H176.486C176.273 401.088 176.102 401.131 175.974 401.216C175.846 401.291 175.782 401.424 175.782 401.616C175.782 401.691 175.798 401.771 175.83 401.856C175.852 401.941 175.884 402.027 175.926 402.112L174.694 402.304ZM180.522 412V403.232H181.946V407.024H181.994L185.642 403.232H187.306V403.28L181.946 408.704V412H180.522ZM185.962 412V408.912C185.962 408.283 185.77 407.792 185.386 407.44C185.002 407.088 184.367 406.912 183.482 406.912L184.314 405.872C184.986 405.872 185.546 405.995 185.994 406.24C186.452 406.475 186.799 406.816 187.034 407.264C187.268 407.712 187.386 408.251 187.386 408.88V412H185.962ZM195.4 412V406.16C195.4 405.467 195.24 404.976 194.92 404.688C194.611 404.389 194.088 404.24 193.352 404.24C192.819 404.24 192.307 404.315 191.816 404.464C191.336 404.603 190.877 404.8 190.44 405.056V403.728C190.749 403.568 191.165 403.419 191.688 403.28C192.221 403.141 192.819 403.072 193.48 403.072C194.045 403.072 194.536 403.136 194.952 403.264C195.368 403.381 195.709 403.563 195.976 403.808C196.253 404.053 196.461 404.368 196.6 404.752C196.739 405.125 196.808 405.568 196.808 406.08V412H195.4ZM192.648 412.16C191.709 412.16 190.989 411.947 190.488 411.52C189.997 411.083 189.752 410.459 189.752 409.648C189.752 408.763 190.072 408.08 190.712 407.6C191.363 407.12 192.413 406.837 193.864 406.752L195.688 406.64V407.824L194.056 407.936C192.968 408.011 192.216 408.181 191.8 408.448C191.395 408.715 191.192 409.104 191.192 409.616C191.192 410.096 191.341 410.448 191.64 410.672C191.949 410.896 192.376 411.008 192.92 411.008C193.101 411.008 193.267 410.997 193.416 410.976C193.565 410.944 193.709 410.907 193.848 410.864L194.072 411.936C193.869 412.011 193.645 412.064 193.4 412.096C193.165 412.139 192.915 412.16 192.648 412.16ZM202.365 412V405.776C202.365 405.253 202.242 404.869 201.997 404.624C201.762 404.379 201.362 404.256 200.797 404.256C200.413 404.256 200.05 404.309 199.709 404.416C199.378 404.512 199.058 404.651 198.749 404.832V403.552C198.962 403.445 199.266 403.339 199.661 403.232C200.055 403.125 200.525 403.072 201.069 403.072C201.623 403.072 202.103 403.152 202.509 403.312C202.914 403.472 203.229 403.739 203.453 404.112C203.677 404.475 203.789 404.96 203.789 405.568V412H202.365ZM206.785 412V408.96C206.785 408.288 206.934 407.803 207.233 407.504C207.531 407.195 207.91 406.981 208.369 406.864L208.385 406.816L206.625 406.144V405.616C206.625 405.179 206.769 404.768 207.057 404.384C207.345 403.989 207.755 403.675 208.289 403.44C208.833 403.195 209.478 403.072 210.225 403.072C210.875 403.072 211.478 403.179 212.033 403.392C212.587 403.595 213.03 403.92 213.361 404.368C213.702 404.805 213.873 405.381 213.873 406.096V412H212.449V406.24C212.449 405.525 212.23 405.019 211.793 404.72C211.366 404.411 210.838 404.256 210.209 404.256C209.558 404.256 209.041 404.395 208.657 404.672C208.273 404.939 208.081 405.28 208.081 405.696L209.809 406.56L209.681 407.328C209.286 407.328 208.939 407.461 208.641 407.728C208.353 407.984 208.209 408.395 208.209 408.96V412H206.785ZM217.067 412V403.232H218.491V407.024H218.539L222.187 403.232H223.851V403.28L218.491 408.704V412H217.067ZM222.507 412V408.912C222.507 408.283 222.315 407.792 221.931 407.44C221.547 407.088 220.912 406.912 220.027 406.912L220.859 405.872C221.531 405.872 222.091 405.995 222.539 406.24C222.997 406.475 223.344 406.816 223.579 407.264C223.813 407.712 223.931 408.251 223.931 408.88V412H222.507ZM231.945 412V406.16C231.945 405.467 231.785 404.976 231.465 404.688C231.156 404.389 230.633 404.24 229.897 404.24C229.364 404.24 228.852 404.315 228.361 404.464C227.881 404.603 227.422 404.8 226.985 405.056V403.728C227.294 403.568 227.71 403.419 228.233 403.28C228.766 403.141 229.364 403.072 230.025 403.072C230.59 403.072 231.081 403.136 231.497 403.264C231.913 403.381 232.254 403.563 232.521 403.808C232.798 404.053 233.006 404.368 233.145 404.752C233.284 405.125 233.353 405.568 233.353 406.08V412H231.945ZM229.193 412.16C228.254 412.16 227.534 411.947 227.033 411.52C226.542 411.083 226.297 410.459 226.297 409.648C226.297 408.763 226.617 408.08 227.257 407.6C227.908 407.12 228.958 406.837 230.409 406.752L232.233 406.64V407.824L230.601 407.936C229.513 408.011 228.761 408.181 228.345 408.448C227.94 408.715 227.737 409.104 227.737 409.616C227.737 410.096 227.886 410.448 228.185 410.672C228.494 410.896 228.921 411.008 229.465 411.008C229.646 411.008 229.812 410.997 229.961 410.976C230.11 410.944 230.254 410.907 230.393 410.864L230.617 411.936C230.414 412.011 230.19 412.064 229.945 412.096C229.71 412.139 229.46 412.16 229.193 412.16ZM238.91 412V405.776C238.91 405.253 238.787 404.869 238.542 404.624C238.307 404.379 237.907 404.256 237.342 404.256C236.958 404.256 236.595 404.309 236.254 404.416C235.923 404.512 235.603 404.651 235.294 404.832V403.552C235.507 403.445 235.811 403.339 236.206 403.232C236.6 403.125 237.07 403.072 237.614 403.072C238.168 403.072 238.648 403.152 239.054 403.312C239.459 403.472 239.774 403.739 239.998 404.112C240.222 404.475 240.334 404.96 240.334 405.568V412H238.91ZM246.786 412.144C245.922 412.144 245.228 412.032 244.706 411.808C244.194 411.584 243.82 411.269 243.586 410.864C243.362 410.459 243.25 409.979 243.25 409.424C243.25 408.933 243.319 408.544 243.458 408.256C243.607 407.957 243.788 407.739 244.002 407.6C244.226 407.461 244.455 407.371 244.69 407.328V407.264C244.476 407.2 244.252 407.093 244.018 406.944C243.783 406.795 243.586 406.587 243.426 406.32C243.276 406.053 243.202 405.717 243.202 405.312C243.202 404.939 243.287 404.587 243.458 404.256C243.628 403.925 243.906 403.653 244.29 403.44C244.674 403.227 245.18 403.12 245.81 403.12C246.066 403.12 246.332 403.141 246.61 403.184C246.887 403.216 247.1 403.275 247.25 403.36L246.994 404.464C246.876 404.421 246.722 404.384 246.53 404.352C246.348 404.309 246.156 404.288 245.954 404.288C245.506 404.288 245.175 404.395 244.962 404.608C244.748 404.811 244.642 405.083 244.642 405.424C244.642 405.797 244.732 406.08 244.914 406.272C245.106 406.464 245.346 406.597 245.634 406.672C245.932 406.736 246.242 406.768 246.562 406.768H246.866V407.808H246.562C245.922 407.808 245.447 407.925 245.138 408.16C244.839 408.384 244.69 408.763 244.69 409.296C244.69 409.605 244.748 409.888 244.866 410.144C244.994 410.4 245.207 410.603 245.506 410.752C245.815 410.901 246.242 410.976 246.786 410.976C247.33 410.976 247.751 410.901 248.05 410.752C248.359 410.603 248.578 410.389 248.706 410.112C248.834 409.824 248.898 409.483 248.898 409.088V403.232H250.322V408.992C250.322 410.112 250.034 410.917 249.458 411.408C248.892 411.899 248.002 412.144 246.786 412.144ZM255.374 412.16C255.086 412.16 254.808 412.112 254.542 412.016C254.275 411.92 254.056 411.749 253.886 411.504C253.715 411.259 253.63 410.917 253.63 410.48V403.232H255.054V410.304C255.054 410.549 255.107 410.725 255.214 410.832C255.32 410.939 255.491 410.992 255.726 410.992C255.822 410.992 255.923 410.981 256.03 410.96C256.136 410.939 256.238 410.912 256.334 410.88L256.526 411.92C256.323 412.016 256.126 412.08 255.934 412.112C255.742 412.144 255.555 412.16 255.374 412.16ZM259.742 412.16C259.454 412.16 259.176 412.112 258.91 412.016C258.643 411.92 258.424 411.749 258.254 411.504C258.083 411.259 257.998 410.917 257.998 410.48V403.232H259.422V410.304C259.422 410.549 259.475 410.725 259.582 410.832C259.688 410.939 259.859 410.992 260.094 410.992C260.19 410.992 260.291 410.981 260.398 410.96C260.504 410.939 260.606 410.912 260.702 410.88L260.894 411.92C260.691 412.016 260.494 412.08 260.302 412.112C260.11 412.144 259.923 412.16 259.742 412.16ZM267.943 412V406.16C267.943 405.467 267.783 404.976 267.463 404.688C267.154 404.389 266.631 404.24 265.895 404.24C265.362 404.24 264.85 404.315 264.359 404.464C263.879 404.603 263.421 404.8 262.983 405.056V403.728C263.293 403.568 263.709 403.419 264.231 403.28C264.765 403.141 265.362 403.072 266.023 403.072C266.589 403.072 267.079 403.136 267.495 403.264C267.911 403.381 268.253 403.563 268.519 403.808C268.797 404.053 269.005 404.368 269.143 404.752C269.282 405.125 269.351 405.568 269.351 406.08V412H267.943ZM265.191 412.16C264.253 412.16 263.533 411.947 263.031 411.52C262.541 411.083 262.295 410.459 262.295 409.648C262.295 408.763 262.615 408.08 263.255 407.6C263.906 407.12 264.957 406.837 266.407 406.752L268.231 406.64V407.824L266.599 407.936C265.511 408.011 264.759 408.181 264.343 408.448C263.938 408.715 263.735 409.104 263.735 409.616C263.735 410.096 263.885 410.448 264.183 410.672C264.493 410.896 264.919 411.008 265.463 411.008C265.645 411.008 265.81 410.997 265.959 410.976C266.109 410.944 266.253 410.907 266.391 410.864L266.615 411.936C266.413 412.011 266.189 412.064 265.943 412.096C265.709 412.139 265.458 412.16 265.191 412.16ZM273.58 406.496C273.143 406.496 272.785 406.432 272.508 406.304C272.241 406.165 272.049 405.995 271.932 405.792C271.815 405.579 271.756 405.355 271.756 405.12C271.756 404.96 271.777 404.795 271.82 404.624C271.873 404.453 271.937 404.309 272.012 404.192L273.212 404.384C273.191 404.437 273.164 404.512 273.132 404.608C273.111 404.704 273.1 404.8 273.1 404.896C273.1 405.035 273.137 405.152 273.212 405.248C273.287 405.333 273.425 405.376 273.628 405.376H275.916V406.496H273.58ZM273.58 410.976C273.143 410.976 272.785 410.912 272.508 410.784C272.241 410.645 272.049 410.475 271.932 410.272C271.815 410.059 271.756 409.835 271.756 409.6C271.756 409.44 271.777 409.275 271.82 409.104C271.873 408.933 271.937 408.789 272.012 408.672L273.212 408.864C273.191 408.917 273.164 408.992 273.132 409.088C273.111 409.184 273.1 409.28 273.1 409.376C273.1 409.515 273.137 409.632 273.212 409.728C273.287 409.813 273.425 409.856 273.628 409.856H275.916V410.976H273.58ZM281.69 412.144C280.826 412.144 280.133 412.032 279.61 411.808C279.098 411.584 278.725 411.269 278.49 410.864C278.266 410.459 278.154 409.979 278.154 409.424C278.154 408.933 278.223 408.544 278.362 408.256C278.511 407.957 278.693 407.739 278.906 407.6C279.13 407.461 279.359 407.371 279.594 407.328V407.264C279.381 407.2 279.157 407.093 278.922 406.944C278.687 406.795 278.49 406.587 278.33 406.32C278.181 406.053 278.106 405.717 278.106 405.312C278.106 404.939 278.191 404.587 278.362 404.256C278.533 403.925 278.81 403.653 279.194 403.44C279.578 403.227 280.085 403.12 280.714 403.12C280.97 403.12 281.237 403.141 281.514 403.184C281.791 403.216 282.005 403.275 282.154 403.36L281.898 404.464C281.781 404.421 281.626 404.384 281.434 404.352C281.253 404.309 281.061 404.288 280.858 404.288C280.41 404.288 280.079 404.395 279.866 404.608C279.653 404.811 279.546 405.083 279.546 405.424C279.546 405.797 279.637 406.08 279.818 406.272C280.01 406.464 280.25 406.597 280.538 406.672C280.837 406.736 281.146 406.768 281.466 406.768H281.77V407.808H281.466C280.826 407.808 280.351 407.925 280.042 408.16C279.743 408.384 279.594 408.763 279.594 409.296C279.594 409.605 279.653 409.888 279.77 410.144C279.898 410.4 280.111 410.603 280.41 410.752C280.719 410.901 281.146 410.976 281.69 410.976C282.234 410.976 282.655 410.901 282.954 410.752C283.263 410.603 283.482 410.389 283.61 410.112C283.738 409.824 283.802 409.483 283.802 409.088V403.232H285.226V408.992C285.226 410.112 284.938 410.917 284.362 411.408C283.797 411.899 282.906 412.144 281.69 412.144ZM290.774 412V405.776C290.774 405.253 290.651 404.869 290.406 404.624C290.171 404.379 289.771 404.256 289.206 404.256C288.822 404.256 288.459 404.309 288.118 404.416C287.787 404.512 287.467 404.651 287.158 404.832V403.552C287.371 403.445 287.675 403.339 288.07 403.232C288.465 403.125 288.934 403.072 289.478 403.072C290.033 403.072 290.513 403.152 290.918 403.312C291.323 403.472 291.638 403.739 291.862 404.112C292.086 404.475 292.198 404.96 292.198 405.568V412H290.774ZM295.194 412V408.96C295.194 408.288 295.343 407.803 295.642 407.504C295.941 407.195 296.319 406.981 296.778 406.864L296.794 406.816L295.034 406.144V405.616C295.034 405.179 295.178 404.768 295.466 404.384C295.754 403.989 296.165 403.675 296.698 403.44C297.242 403.195 297.887 403.072 298.634 403.072C299.285 403.072 299.887 403.179 300.442 403.392C300.997 403.595 301.439 403.92 301.77 404.368C302.111 404.805 302.282 405.381 302.282 406.096V412H300.858V406.24C300.858 405.525 300.639 405.019 300.202 404.72C299.775 404.411 299.247 404.256 298.618 404.256C297.967 404.256 297.45 404.395 297.066 404.672C296.682 404.939 296.49 405.28 296.49 405.696L298.218 406.56L298.09 407.328C297.695 407.328 297.349 407.461 297.05 407.728C296.762 407.984 296.618 408.395 296.618 408.96V412H295.194ZM61 441.864C60.5417 441.864 60.1231 441.752 59.7443 441.528C59.3655 441.301 59.0625 440.998 58.8352 440.619C58.6117 440.241 58.5 439.822 58.5 439.364C58.5 438.902 58.6117 438.483 58.8352 438.108C59.0625 437.729 59.3655 437.428 59.7443 437.205C60.1231 436.977 60.5417 436.864 61 436.864C61.4621 436.864 61.8807 436.977 62.2557 437.205C62.6345 437.428 62.9356 437.729 63.1591 438.108C63.3864 438.483 63.5 438.902 63.5 439.364C63.5 439.822 63.3864 440.241 63.1591 440.619C62.9356 440.998 62.6345 441.301 62.2557 441.528C61.8807 441.752 61.4621 441.864 61 441.864ZM76.28 444.16C75.992 444.16 75.7147 444.112 75.448 444.016C75.1813 443.92 74.9627 443.749 74.792 443.504C74.6213 443.259 74.536 442.917 74.536 442.48V435.232H75.96V442.304C75.96 442.549 76.0133 442.725 76.12 442.832C76.2267 442.939 76.3973 442.992 76.632 442.992C76.728 442.992 76.8293 442.981 76.936 442.96C77.0427 442.939 77.144 442.912 77.24 442.88L77.432 443.92C77.2293 444.016 77.032 444.08 76.84 444.112C76.648 444.144 76.4613 444.16 76.28 444.16ZM79.6227 444V435.232H81.0467V439.024H81.0947L84.7427 435.232H86.4067V435.28L81.0467 440.704V444H79.6227ZM85.0627 444V440.912C85.0627 440.283 84.8707 439.792 84.4867 439.44C84.1027 439.088 83.4681 438.912 82.5827 438.912L83.4147 437.872C84.0867 437.872 84.6467 437.995 85.0947 438.24C85.5534 438.475 85.9001 438.816 86.1347 439.264C86.3694 439.712 86.4867 440.251 86.4867 440.88V444H85.0627ZM93.5894 444.16C92.9067 444.16 92.3147 444.027 91.8134 443.76C91.3227 443.483 90.9867 443.099 90.8054 442.608H90.7414L90.6614 444H89.4934V435.232H90.9174V440.304C90.9174 440.837 91.008 441.307 91.1894 441.712C91.3814 442.107 91.6534 442.416 92.0054 442.64C92.368 442.853 92.8 442.96 93.3014 442.96C93.9307 442.96 94.4 442.795 94.7094 442.464C95.0187 442.133 95.1734 441.648 95.1734 441.008V435.232H96.5974V441.104C96.5974 441.808 96.4747 442.384 96.2294 442.832C95.9947 443.28 95.6534 443.616 95.2054 443.84C94.7574 444.053 94.2187 444.16 93.5894 444.16ZM102.153 444V437.776C102.153 437.253 102.031 436.869 101.785 436.624C101.551 436.379 101.151 436.256 100.585 436.256C100.201 436.256 99.8388 436.309 99.4975 436.416C99.1668 436.512 98.8468 436.651 98.5375 436.832V435.552C98.7508 435.445 99.0548 435.339 99.4495 435.232C99.8442 435.125 100.313 435.072 100.857 435.072C101.412 435.072 101.892 435.152 102.297 435.312C102.703 435.472 103.017 435.739 103.241 436.112C103.465 436.475 103.577 436.96 103.577 437.568V444H102.153ZM107.805 438.496C107.368 438.496 107.011 438.432 106.733 438.304C106.467 438.165 106.275 437.995 106.157 437.792C106.04 437.579 105.981 437.355 105.981 437.12C105.981 436.96 106.003 436.795 106.045 436.624C106.099 436.453 106.163 436.309 106.237 436.192L107.437 436.384C107.416 436.437 107.389 436.512 107.357 436.608C107.336 436.704 107.325 436.8 107.325 436.896C107.325 437.035 107.363 437.152 107.437 437.248C107.512 437.333 107.651 437.376 107.853 437.376H110.141V438.496H107.805ZM107.805 442.976C107.368 442.976 107.011 442.912 106.733 442.784C106.467 442.645 106.275 442.475 106.157 442.272C106.04 442.059 105.981 441.835 105.981 441.6C105.981 441.44 106.003 441.275 106.045 441.104C106.099 440.933 106.163 440.789 106.237 440.672L107.437 440.864C107.416 440.917 107.389 440.992 107.357 441.088C107.336 441.184 107.325 441.28 107.325 441.376C107.325 441.515 107.363 441.632 107.437 441.728C107.512 441.813 107.651 441.856 107.853 441.856H110.141V442.976H107.805ZM117.676 444V438.16C117.676 437.467 117.516 436.976 117.196 436.688C116.886 436.389 116.364 436.24 115.628 436.24C115.094 436.24 114.582 436.315 114.092 436.464C113.612 436.603 113.153 436.8 112.716 437.056V435.728C113.025 435.568 113.441 435.419 113.964 435.28C114.497 435.141 115.094 435.072 115.756 435.072C116.321 435.072 116.801 435.136 117.196 435.264C117.601 435.392 117.9 435.627 118.092 435.968C118.465 436.139 118.721 436.405 118.86 436.768C119.009 437.131 119.084 437.568 119.084 438.08V444H117.676ZM114.924 444.16C113.985 444.16 113.265 443.947 112.764 443.52C112.273 443.083 112.028 442.459 112.028 441.648C112.028 440.763 112.348 440.08 112.988 439.6C113.638 439.12 114.689 438.837 116.14 438.752L117.964 438.64V439.824L116.332 439.936C115.244 440.011 114.492 440.181 114.076 440.448C113.67 440.715 113.468 441.104 113.468 441.616C113.468 442.096 113.617 442.448 113.916 442.672C114.225 442.896 114.652 443.008 115.196 443.008C115.377 443.008 115.542 442.997 115.692 442.976C115.841 442.944 115.985 442.907 116.124 442.864L116.348 443.936C116.145 444.011 115.921 444.064 115.676 444.096C115.441 444.139 115.19 444.16 114.924 444.16ZM118.044 436.464L117.244 435.712C117.521 435.669 117.782 435.563 118.028 435.392C118.273 435.221 118.396 434.976 118.396 434.656H119.788C119.788 434.987 119.708 435.28 119.548 435.536C119.398 435.781 119.19 435.984 118.924 436.144C118.657 436.293 118.364 436.4 118.044 436.464ZM118.429 434.224C117.896 434.224 117.475 434.101 117.165 433.856C116.856 433.6 116.701 433.243 116.701 432.784C116.701 432.315 116.856 431.957 117.165 431.712C117.475 431.467 117.896 431.344 118.429 431.344C118.963 431.344 119.389 431.467 119.709 431.712C120.029 431.957 120.189 432.315 120.189 432.784C120.189 433.243 120.029 433.6 119.709 433.856C119.389 434.101 118.963 434.224 118.429 434.224ZM118.429 433.472C118.685 433.472 118.883 433.408 119.021 433.28C119.149 433.152 119.213 432.987 119.213 432.784C119.213 432.571 119.149 432.405 119.021 432.288C118.883 432.16 118.685 432.096 118.429 432.096C118.184 432.096 117.997 432.16 117.869 432.288C117.731 432.405 117.661 432.571 117.661 432.784C117.661 432.987 117.731 433.152 117.869 433.28C117.997 433.408 118.184 433.472 118.429 433.472ZM125.136 444V437.776C125.136 437.253 125.013 436.869 124.768 436.624C124.533 436.379 124.133 436.256 123.568 436.256C123.184 436.256 122.821 436.309 122.48 436.416C122.149 436.512 121.829 436.651 121.52 436.832V435.552C121.733 435.445 122.037 435.339 122.432 435.232C122.827 435.125 123.296 435.072 123.84 435.072C124.395 435.072 124.875 435.152 125.28 435.312C125.685 435.472 126 435.739 126.224 436.112C126.448 436.475 126.56 436.96 126.56 437.568V444H125.136ZM129.764 444V435.232H131.188V439.024H131.236L134.884 435.232H136.548V435.28L131.188 440.704V444H129.764ZM135.204 444V440.912C135.204 440.283 135.012 439.792 134.628 439.44C134.244 439.088 133.609 438.912 132.724 438.912L133.556 437.872C134.228 437.872 134.788 437.995 135.236 438.24C135.695 438.475 136.041 438.816 136.276 439.264C136.511 439.712 136.628 440.251 136.628 440.88V444H135.204ZM141.971 444.16C141.341 444.16 140.755 444.101 140.211 443.984C139.677 443.856 139.224 443.707 138.851 443.536L139.267 442.384C139.491 442.469 139.747 442.56 140.035 442.656C140.323 442.752 140.632 442.832 140.963 442.896C141.304 442.949 141.651 442.976 142.003 442.976C142.568 442.976 143.037 442.869 143.411 442.656C143.784 442.443 143.971 442.133 143.971 441.728C143.971 441.483 143.901 441.275 143.763 441.104C143.635 440.923 143.432 440.757 143.155 440.608C142.877 440.459 142.52 440.315 142.083 440.176C141.411 439.963 140.84 439.739 140.371 439.504C139.912 439.259 139.56 438.971 139.315 438.64C139.08 438.299 138.963 437.877 138.963 437.376C138.963 436.928 139.08 436.533 139.315 436.192C139.56 435.84 139.933 435.568 140.435 435.376C140.947 435.173 141.597 435.072 142.387 435.072C142.899 435.072 143.379 435.12 143.827 435.216C144.285 435.301 144.643 435.424 144.899 435.584V436.784C144.717 436.699 144.488 436.613 144.211 436.528C143.944 436.443 143.651 436.373 143.331 436.32C143.011 436.267 142.68 436.24 142.339 436.24C141.624 436.24 141.117 436.352 140.819 436.576C140.531 436.789 140.387 437.035 140.387 437.312C140.387 437.547 140.451 437.744 140.579 437.904C140.717 438.064 140.947 438.219 141.267 438.368C141.597 438.517 142.04 438.688 142.595 438.88C143.107 439.051 143.576 439.248 144.003 439.472C144.429 439.696 144.765 439.979 145.011 440.32C145.267 440.651 145.395 441.077 145.395 441.6C145.395 442.048 145.283 442.469 145.059 442.864C144.845 443.248 144.488 443.563 143.987 443.808C143.485 444.043 142.813 444.16 141.971 444.16ZM143.828 433.84C143.38 433.84 143.023 433.776 142.756 433.648C142.49 433.52 142.298 433.355 142.18 433.152C142.052 432.949 141.988 432.736 141.988 432.512C141.988 432.352 142.015 432.181 142.068 432C142.111 431.808 142.17 431.653 142.244 431.536L143.444 431.744C143.423 431.787 143.402 431.861 143.38 431.968C143.359 432.064 143.348 432.155 143.348 432.24C143.348 432.379 143.391 432.501 143.476 432.608C143.562 432.704 143.706 432.752 143.908 432.752H147.956V433.84H143.828ZM151.799 444.16C150.54 444.16 149.639 443.872 149.095 443.296C148.551 442.72 148.279 441.899 148.279 440.832V435.232H149.703V440.848C149.703 441.563 149.874 442.096 150.215 442.448C150.556 442.8 151.084 442.976 151.799 442.976C152.524 442.976 153.058 442.8 153.399 442.448C153.751 442.096 153.927 441.563 153.927 440.848V435.232H155.351V440.832C155.351 441.899 155.074 442.72 154.519 443.296C153.975 443.872 153.068 444.16 151.799 444.16ZM158.495 444V436.784C158.495 436.325 158.586 435.973 158.767 435.728C158.949 435.483 159.183 435.312 159.471 435.216C159.759 435.12 160.069 435.072 160.399 435.072C160.517 435.072 160.666 435.088 160.847 435.12C161.039 435.152 161.205 435.2 161.343 435.264L161.167 436.336C161.061 436.304 160.954 436.283 160.847 436.272C160.741 436.251 160.655 436.24 160.591 436.24C160.325 436.24 160.138 436.304 160.031 436.432C159.935 436.56 159.887 436.741 159.887 436.976V439.456C159.887 439.787 159.882 440.133 159.871 440.496C159.871 440.848 159.855 441.275 159.823 441.776H159.887C160.101 441.307 160.298 440.917 160.479 440.608C160.661 440.288 160.831 439.989 160.991 439.712L161.839 438.272H162.735L163.583 439.712C163.754 440 163.903 440.256 164.031 440.48C164.159 440.704 164.277 440.923 164.383 441.136C164.49 441.339 164.591 441.552 164.687 441.776H164.751C164.719 441.275 164.698 440.848 164.687 440.496C164.687 440.133 164.687 439.787 164.687 439.456V435.232H166.079V444H164.815L162.335 439.808H162.271L159.759 444H158.495ZM164.486 448.24C163.803 448.24 163.286 448.101 162.934 447.824C162.571 447.557 162.39 447.173 162.39 446.672V446.4C162.39 446.219 162.347 446.107 162.262 446.064C162.166 446.032 162.038 446.037 161.878 446.08L161.782 445.12C161.931 445.077 162.081 445.051 162.23 445.04C162.369 445.029 162.475 445.024 162.55 445.024C162.934 445.024 163.211 445.109 163.382 445.28C163.542 445.451 163.622 445.691 163.622 446V446.544C163.622 446.747 163.686 446.917 163.814 447.056C163.942 447.195 164.161 447.264 164.47 447.264C164.79 447.264 165.014 447.195 165.142 447.056C165.259 446.917 165.318 446.747 165.318 446.544V445.072H166.566V446.624C166.566 447.147 166.39 447.547 166.038 447.824C165.686 448.101 165.169 448.24 164.486 448.24ZM162.582 433.84V433.136C162.795 433.093 163.014 433.035 163.238 432.96C163.462 432.875 163.649 432.768 163.798 432.64C163.947 432.501 164.022 432.336 164.022 432.144C164.022 432.016 163.985 431.909 163.91 431.824C163.825 431.728 163.697 431.68 163.526 431.68C163.419 431.68 163.313 431.701 163.206 431.744C163.089 431.787 162.987 431.824 162.902 431.856L162.582 430.976C162.795 430.805 163.035 430.693 163.302 430.64C163.558 430.587 163.766 430.56 163.926 430.56C164.353 430.56 164.689 430.677 164.934 430.912C165.169 431.147 165.286 431.445 165.286 431.808C165.286 432.107 165.211 432.368 165.062 432.592C164.902 432.805 164.721 432.976 164.518 433.104L164.358 432.72H167.542V433.84H162.582ZM170.278 444V435.232H171.27L171.526 436.624H171.59C171.772 436.144 172.102 435.765 172.582 435.488C173.062 435.211 173.644 435.072 174.326 435.072C174.966 435.072 175.51 435.184 175.958 435.408C176.417 435.621 176.769 435.952 177.014 436.4C177.26 436.848 177.382 437.429 177.382 438.144V444H175.958V438.224C175.958 437.584 175.798 437.099 175.478 436.768C175.158 436.437 174.684 436.272 174.054 436.272C173.553 436.272 173.126 436.389 172.774 436.624C172.422 436.859 172.156 437.179 171.974 437.584C171.793 437.979 171.702 438.427 171.702 438.928V444H170.278ZM170.893 433.84V433.216L172.061 432.704H177.693V433.84H170.893ZM176.365 433.216V431.408H177.709V433.216H176.365ZM176.83 430.464V427.856H178.19V430.464H176.83ZM184.524 444.16C183.628 444.16 182.935 443.957 182.444 443.552C181.954 443.136 181.612 442.576 181.42 441.872C181.228 441.157 181.132 440.347 181.132 439.44C181.132 438.395 181.228 437.552 181.42 436.912C181.623 436.272 181.916 435.808 182.3 435.52C182.684 435.221 183.154 435.072 183.708 435.072C184.082 435.072 184.396 435.136 184.652 435.264C184.919 435.392 185.106 435.605 185.212 435.904H185.276C185.383 435.595 185.575 435.381 185.852 435.264C186.13 435.136 186.455 435.072 186.828 435.072C187.522 435.072 188.055 435.259 188.428 435.632C188.812 435.995 189.004 436.555 189.004 437.312V444H187.58V437.328C187.58 436.912 187.49 436.629 187.308 436.48C187.127 436.331 186.898 436.256 186.62 436.256C186.311 436.256 186.082 436.331 185.932 436.48C185.794 436.629 185.708 436.875 185.676 437.216H184.78C184.738 436.843 184.626 436.592 184.444 436.464C184.263 436.325 184.06 436.256 183.836 436.256C183.41 436.256 183.09 436.507 182.876 437.008C182.663 437.499 182.556 438.315 182.556 439.456C182.556 440.192 182.61 440.821 182.716 441.344C182.834 441.867 183.047 442.272 183.356 442.56C183.666 442.837 184.114 442.976 184.7 442.976C184.914 442.976 185.09 442.965 185.228 442.944C185.367 442.923 185.5 442.896 185.628 442.864L185.772 443.952C185.612 444.027 185.42 444.08 185.196 444.112C184.972 444.144 184.748 444.16 184.524 444.16ZM184.826 433.84V433.136C185.039 433.093 185.258 433.035 185.482 432.96C185.706 432.875 185.892 432.768 186.042 432.64C186.191 432.501 186.266 432.336 186.266 432.144C186.266 432.016 186.228 431.909 186.154 431.824C186.068 431.728 185.94 431.68 185.77 431.68C185.663 431.68 185.556 431.701 185.45 431.744C185.332 431.787 185.231 431.824 185.146 431.856L184.826 430.976C185.039 430.805 185.279 430.693 185.546 430.64C185.802 430.587 186.01 430.56 186.17 430.56C186.596 430.56 186.932 430.677 187.178 430.912C187.412 431.147 187.53 431.445 187.53 431.808C187.53 432.107 187.455 432.368 187.306 432.592C187.146 432.805 186.964 432.976 186.762 433.104L186.602 432.72H189.786V433.84H184.826ZM195.656 444.16C194.504 444.16 193.64 443.861 193.064 443.264C192.499 442.656 192.216 441.707 192.216 440.416C192.216 440.203 192.222 439.973 192.232 439.728C192.254 439.472 192.275 439.221 192.296 438.976H195.656V440.096H193.64V440.416C193.64 441.088 193.715 441.616 193.864 442C194.014 442.373 194.232 442.635 194.52 442.784C194.819 442.933 195.187 443.008 195.624 443.008C196.104 443.008 196.52 442.917 196.872 442.736C197.224 442.555 197.496 442.224 197.688 441.744C197.88 441.264 197.976 440.576 197.976 439.68C197.976 438.891 197.891 438.245 197.72 437.744C197.55 437.243 197.267 436.869 196.872 436.624C196.488 436.379 195.966 436.256 195.304 436.256C194.963 436.256 194.632 436.288 194.312 436.352C193.992 436.405 193.683 436.491 193.384 436.608C193.086 436.715 192.792 436.853 192.504 437.024V435.696C192.718 435.579 192.979 435.477 193.288 435.392C193.598 435.296 193.939 435.221 194.312 435.168C194.686 435.104 195.075 435.072 195.48 435.072C196.419 435.072 197.176 435.264 197.752 435.648C198.339 436.021 198.766 436.555 199.032 437.248C199.299 437.931 199.432 438.741 199.432 439.68C199.432 440.619 199.31 441.424 199.064 442.096C198.819 442.768 198.419 443.28 197.864 443.632C197.32 443.984 196.584 444.16 195.656 444.16ZM203.66 444L200.924 435.232H202.364L204.732 442.768H204.924C205.18 442.768 205.43 442.709 205.676 442.592C205.921 442.464 206.129 442.304 206.3 442.112C206.62 441.76 206.854 441.317 207.004 440.784C207.153 440.24 207.228 439.707 207.228 439.184C207.228 438.299 207.025 437.605 206.62 437.104C206.225 436.592 205.676 436.336 204.972 436.336C204.833 436.336 204.694 436.347 204.556 436.368C204.428 436.389 204.321 436.416 204.236 436.448L203.884 435.312C204.108 435.248 204.316 435.205 204.508 435.184C204.71 435.163 204.892 435.152 205.052 435.152C205.585 435.152 206.06 435.232 206.476 435.392C206.902 435.541 207.265 435.765 207.564 436.064C207.937 436.427 208.209 436.88 208.38 437.424C208.561 437.968 208.652 438.571 208.652 439.232C208.652 440.064 208.524 440.805 208.268 441.456C208.012 442.096 207.692 442.608 207.308 442.992C206.998 443.301 206.62 443.547 206.172 443.728C205.724 443.909 205.153 444 204.46 444H203.66ZM211.213 444V440.96C211.213 440.288 211.363 439.803 211.661 439.504C211.96 439.195 212.339 438.981 212.797 438.864L212.813 438.816L211.053 438.144V437.616C211.053 437.179 211.197 436.768 211.485 436.384C211.773 435.989 212.184 435.675 212.717 435.44C213.261 435.195 213.907 435.072 214.653 435.072C215.304 435.072 215.907 435.179 216.461 435.392C217.016 435.595 217.459 435.92 217.789 436.368C218.131 436.805 218.301 437.381 218.301 438.096V444H216.877V438.24C216.877 437.525 216.659 437.019 216.221 436.72C215.795 436.411 215.267 436.256 214.637 436.256C213.987 436.256 213.469 436.395 213.085 436.672C212.701 436.939 212.509 437.28 212.509 437.696L214.237 438.56L214.109 439.328C213.715 439.328 213.368 439.461 213.069 439.728C212.781 439.984 212.637 440.395 212.637 440.96V444H211.213ZM223.847 444V437.776C223.847 437.253 223.725 436.869 223.479 436.624C223.245 436.379 222.845 436.256 222.279 436.256C221.895 436.256 221.533 436.309 221.191 436.416C220.861 436.512 220.541 436.651 220.231 436.832V435.552C220.445 435.445 220.749 435.339 221.143 435.232C221.538 435.125 222.007 435.072 222.551 435.072C223.106 435.072 223.586 435.152 223.991 435.312C224.397 435.472 224.711 435.739 224.935 436.112C225.159 436.475 225.271 436.96 225.271 437.568V444H223.847ZM230.811 444.16C230.182 444.16 229.595 444.101 229.051 443.984C228.518 443.856 228.065 443.707 227.691 443.536L228.107 442.384C228.331 442.469 228.587 442.56 228.875 442.656C229.163 442.752 229.473 442.832 229.803 442.896C230.145 442.949 230.491 442.976 230.843 442.976C231.409 442.976 231.878 442.869 232.251 442.656C232.625 442.443 232.811 442.133 232.811 441.728C232.811 441.483 232.742 441.275 232.603 441.104C232.475 440.923 232.273 440.757 231.995 440.608C231.718 440.459 231.361 440.315 230.923 440.176C230.251 439.963 229.681 439.739 229.211 439.504C228.753 439.259 228.401 438.971 228.155 438.64C227.921 438.299 227.803 437.877 227.803 437.376C227.803 436.928 227.921 436.533 228.155 436.192C228.401 435.84 228.774 435.568 229.275 435.376C229.787 435.173 230.438 435.072 231.227 435.072C231.739 435.072 232.219 435.12 232.667 435.216C233.126 435.301 233.483 435.424 233.739 435.584V436.784C233.558 436.699 233.329 436.613 233.051 436.528C232.785 436.443 232.491 436.373 232.171 436.32C231.851 436.267 231.521 436.24 231.179 436.24C230.465 436.24 229.958 436.352 229.659 436.576C229.371 436.789 229.227 437.035 229.227 437.312C229.227 437.547 229.291 437.744 229.419 437.904C229.558 438.064 229.787 438.219 230.107 438.368C230.438 438.517 230.881 438.688 231.435 438.88C231.947 439.051 232.417 439.248 232.843 439.472C233.27 439.696 233.606 439.979 233.851 440.32C234.107 440.651 234.235 441.077 234.235 441.6C234.235 442.048 234.123 442.469 233.899 442.864C233.686 443.248 233.329 443.563 232.827 443.808C232.326 444.043 231.654 444.16 230.811 444.16ZM241.776 444V438.16C241.776 437.467 241.616 436.976 241.296 436.688C240.986 436.389 240.464 436.24 239.728 436.24C239.194 436.24 238.682 436.315 238.192 436.464C237.712 436.603 237.253 436.8 236.816 437.056V435.728C237.125 435.568 237.541 435.419 238.064 435.28C238.597 435.141 239.194 435.072 239.856 435.072C240.421 435.072 240.901 435.136 241.296 435.264C241.701 435.392 242 435.627 242.192 435.968C242.565 436.139 242.821 436.405 242.96 436.768C243.109 437.131 243.184 437.568 243.184 438.08V444H241.776ZM239.024 444.16C238.085 444.16 237.365 443.947 236.864 443.52C236.373 443.083 236.128 442.459 236.128 441.648C236.128 440.763 236.448 440.08 237.088 439.6C237.738 439.12 238.789 438.837 240.24 438.752L242.064 438.64V439.824L240.432 439.936C239.344 440.011 238.592 440.181 238.176 440.448C237.77 440.715 237.568 441.104 237.568 441.616C237.568 442.096 237.717 442.448 238.016 442.672C238.325 442.896 238.752 443.008 239.296 443.008C239.477 443.008 239.642 442.997 239.792 442.976C239.941 442.944 240.085 442.907 240.224 442.864L240.448 443.936C240.245 444.011 240.021 444.064 239.776 444.096C239.541 444.139 239.29 444.16 239.024 444.16ZM242.144 436.464L241.344 435.712C241.621 435.669 241.882 435.563 242.128 435.392C242.373 435.221 242.496 434.976 242.496 434.656H243.888C243.888 434.987 243.808 435.28 243.648 435.536C243.498 435.781 243.29 435.984 243.024 436.144C242.757 436.293 242.464 436.4 242.144 436.464ZM249.38 444.16C248.228 444.16 247.364 443.861 246.788 443.264C246.223 442.656 245.94 441.707 245.94 440.416C245.94 440.203 245.945 439.973 245.956 439.728C245.977 439.472 245.999 439.221 246.02 438.976H249.38V440.096H247.364V440.416C247.364 441.088 247.439 441.616 247.588 442C247.737 442.373 247.956 442.635 248.244 442.784C248.543 442.933 248.911 443.008 249.348 443.008C249.828 443.008 250.244 442.917 250.596 442.736C250.948 442.555 251.22 442.224 251.412 441.744C251.604 441.264 251.7 440.576 251.7 439.68C251.7 438.891 251.615 438.245 251.444 437.744C251.273 437.243 250.991 436.869 250.596 436.624C250.212 436.379 249.689 436.256 249.028 436.256C248.687 436.256 248.356 436.288 248.036 436.352C247.716 436.405 247.407 436.491 247.108 436.608C246.809 436.715 246.516 436.853 246.228 437.024V435.696C246.441 435.579 246.703 435.477 247.012 435.392C247.321 435.296 247.663 435.221 248.036 435.168C248.409 435.104 248.799 435.072 249.204 435.072C250.143 435.072 250.9 435.264 251.476 435.648C252.063 436.021 252.489 436.555 252.756 437.248C253.023 437.931 253.156 438.741 253.156 439.68C253.156 440.619 253.033 441.424 252.788 442.096C252.543 442.768 252.143 443.28 251.588 443.632C251.044 443.984 250.308 444.16 249.38 444.16ZM259.464 444.16C258.205 444.16 257.304 443.872 256.76 443.296C256.216 442.72 255.944 441.899 255.944 440.832V435.232H257.368V440.848C257.368 441.563 257.538 442.096 257.88 442.448C258.221 442.8 258.749 442.976 259.464 442.976C260.189 442.976 260.722 442.8 261.064 442.448C261.416 442.096 261.592 441.563 261.592 440.848V435.232H263.016V440.832C263.016 441.899 262.738 442.72 262.184 443.296C261.64 443.872 260.733 444.16 259.464 444.16ZM267.92 444.16C267.621 444.16 267.338 444.112 267.072 444.016C266.805 443.92 266.586 443.749 266.416 443.504C266.245 443.259 266.16 442.917 266.16 442.48V436.224C266.16 435.925 266.186 435.685 266.24 435.504C266.293 435.312 266.378 435.125 266.496 434.944C266.624 434.763 266.8 434.533 267.024 434.256C267.29 433.925 267.488 433.653 267.616 433.44C267.744 433.227 267.808 432.992 267.808 432.736C267.808 432.427 267.712 432.197 267.52 432.048C267.338 431.888 267.056 431.808 266.672 431.808C266.341 431.808 266.037 431.856 265.76 431.952C265.493 432.048 265.269 432.144 265.088 432.24V431.024C265.237 430.939 265.461 430.859 265.76 430.784C266.069 430.699 266.432 430.656 266.848 430.656C267.552 430.656 268.117 430.816 268.544 431.136C268.981 431.445 269.2 431.925 269.2 432.576C269.2 433.003 269.12 433.376 268.96 433.696C268.8 434.016 268.613 434.304 268.4 434.56C268.218 434.795 268.064 434.992 267.936 435.152C267.818 435.301 267.728 435.456 267.664 435.616C267.61 435.776 267.584 435.989 267.584 436.256V442.304C267.584 442.549 267.637 442.725 267.744 442.832C267.85 442.939 268.016 442.992 268.24 442.992C268.357 442.992 268.469 442.981 268.576 442.96C268.682 442.939 268.778 442.912 268.864 442.88L269.056 443.92C268.853 444.016 268.656 444.08 268.464 444.112C268.282 444.144 268.101 444.16 267.92 444.16ZM274.115 444.16C273.486 444.16 272.942 444.053 272.483 443.84C272.035 443.616 271.688 443.28 271.443 442.832C271.208 442.384 271.091 441.803 271.091 441.088V435.232H272.515V441.008C272.515 441.648 272.675 442.133 272.995 442.464C273.326 442.795 273.8 442.96 274.419 442.96C275.166 442.96 275.742 442.72 276.147 442.24C276.563 441.76 276.771 441.115 276.771 440.304V435.232H278.195V444H277.011L276.947 442.704H276.867C276.675 443.131 276.339 443.483 275.859 443.76C275.39 444.027 274.808 444.16 274.115 444.16ZM286.519 444V438.16C286.519 437.467 286.359 436.976 286.039 436.688C285.73 436.389 285.207 436.24 284.471 436.24C283.938 436.24 283.426 436.315 282.935 436.464C282.455 436.603 281.997 436.8 281.559 437.056V435.728C281.869 435.568 282.285 435.419 282.807 435.28C283.341 435.141 283.938 435.072 284.599 435.072C285.165 435.072 285.645 435.136 286.039 435.264C286.445 435.392 286.743 435.627 286.935 435.968C287.309 436.139 287.565 436.405 287.703 436.768C287.853 437.131 287.927 437.568 287.927 438.08V444H286.519ZM283.767 444.16C282.829 444.16 282.109 443.947 281.607 443.52C281.117 443.083 280.871 442.459 280.871 441.648C280.871 440.763 281.191 440.08 281.831 439.6C282.482 439.12 283.533 438.837 284.983 438.752L286.807 438.64V439.824L285.175 439.936C284.087 440.011 283.335 440.181 282.919 440.448C282.514 440.715 282.311 441.104 282.311 441.616C282.311 442.096 282.461 442.448 282.759 442.672C283.069 442.896 283.495 443.008 284.039 443.008C284.221 443.008 284.386 442.997 284.535 442.976C284.685 442.944 284.829 442.907 284.967 442.864L285.191 443.936C284.989 444.011 284.765 444.064 284.519 444.096C284.285 444.139 284.034 444.16 283.767 444.16ZM286.887 436.464L286.087 435.712C286.365 435.669 286.626 435.563 286.871 435.392C287.117 435.221 287.239 434.976 287.239 434.656H288.631C288.631 434.987 288.551 435.28 288.391 435.536C288.242 435.781 288.034 435.984 287.767 436.144C287.501 436.293 287.207 436.4 286.887 436.464ZM294.044 444.16C293.414 444.16 292.87 444.053 292.412 443.84C291.964 443.616 291.617 443.28 291.372 442.832C291.137 442.384 291.02 441.803 291.02 441.088V435.232H292.444V441.008C292.444 441.648 292.604 442.133 292.924 442.464C293.254 442.795 293.729 442.96 294.348 442.96C295.094 442.96 295.67 442.72 296.076 442.24C296.492 441.76 296.7 441.115 296.7 440.304V435.232H298.124V444H296.94L296.876 442.704H296.796C296.604 443.131 296.268 443.483 295.788 443.76C295.318 444.027 294.737 444.16 294.044 444.16ZM303.792 444V437.776C303.792 437.253 303.67 436.869 303.424 436.624C303.19 436.379 302.79 436.256 302.224 436.256C301.84 436.256 301.478 436.309 301.136 436.416C300.806 436.512 300.486 436.651 300.176 436.832V435.552C300.39 435.445 300.694 435.339 301.088 435.232C301.483 435.125 301.952 435.072 302.496 435.072C303.051 435.072 303.531 435.152 303.936 435.312C304.342 435.472 304.656 435.739 304.88 436.112C305.104 436.475 305.216 436.96 305.216 437.568V444H303.792ZM312.516 444.16C311.834 444.16 311.242 444.027 310.74 443.76C310.25 443.483 309.914 443.099 309.732 442.608H309.668L309.588 444H308.42V435.232H309.844V440.304C309.844 440.837 309.935 441.307 310.116 441.712C310.308 442.107 310.58 442.416 310.932 442.64C311.295 442.853 311.727 442.96 312.228 442.96C312.858 442.96 313.327 442.795 313.636 442.464C313.946 442.133 314.1 441.648 314.1 441.008V435.232H315.524V441.104C315.524 441.808 315.402 442.384 315.156 442.832C314.922 443.28 314.58 443.616 314.132 443.84C313.684 444.053 313.146 444.16 312.516 444.16ZM320.584 444.16C320.296 444.16 320.019 444.112 319.752 444.016C319.486 443.92 319.267 443.749 319.096 443.504C318.926 443.259 318.84 442.917 318.84 442.48V435.232H320.264V442.304C320.264 442.549 320.318 442.725 320.424 442.832C320.531 442.939 320.702 442.992 320.936 442.992C321.032 442.992 321.134 442.981 321.24 442.96C321.347 442.939 321.448 442.912 321.544 442.88L321.736 443.92C321.534 444.016 321.336 444.08 321.144 444.112C320.952 444.144 320.766 444.16 320.584 444.16ZM324.952 444.16C324.664 444.16 324.387 444.112 324.12 444.016C323.854 443.92 323.635 443.749 323.464 443.504C323.294 443.259 323.208 442.917 323.208 442.48V435.232H324.632V442.304C324.632 442.549 324.686 442.725 324.792 442.832C324.899 442.939 325.07 442.992 325.304 442.992C325.4 442.992 325.502 442.981 325.608 442.96C325.715 442.939 325.816 442.912 325.912 442.88L326.104 443.92C325.902 444.016 325.704 444.08 325.512 444.112C325.32 444.144 325.134 444.16 324.952 444.16ZM331.075 444.16C330.072 444.16 329.293 443.92 328.739 443.44C328.195 442.949 327.923 442.219 327.923 441.248V440.272C327.923 439.739 327.997 439.317 328.147 439.008C328.296 438.699 328.456 438.432 328.627 438.208C328.808 437.963 328.963 437.749 329.091 437.568C329.229 437.387 329.299 437.168 329.299 436.912C329.299 436.688 329.24 436.528 329.123 436.432C329.016 436.336 328.877 436.288 328.707 436.288C328.579 436.288 328.44 436.309 328.291 436.352C328.152 436.395 328.013 436.448 327.875 436.512L327.555 435.488C327.747 435.36 327.981 435.269 328.259 435.216C328.547 435.163 328.797 435.136 329.011 435.136C329.405 435.136 329.72 435.205 329.955 435.344C330.2 435.483 330.376 435.675 330.483 435.92C330.589 436.155 330.643 436.432 330.643 436.752C330.643 437.147 330.573 437.472 330.435 437.728C330.307 437.984 330.152 438.235 329.971 438.48C329.789 438.747 329.64 439.003 329.523 439.248C329.405 439.493 329.347 439.813 329.347 440.208V441.152C329.347 441.643 329.427 442.021 329.587 442.288C329.747 442.555 329.96 442.741 330.227 442.848C330.493 442.944 330.776 442.992 331.075 442.992C331.608 442.992 332.013 442.869 332.291 442.624C332.579 442.368 332.723 441.979 332.723 441.456V435.232H334.147V441.536C334.147 442.357 333.885 443.003 333.363 443.472C332.851 443.931 332.088 444.16 331.075 444.16ZM333.182 433.84V430.464H334.59V433.84H333.182ZM339.137 444L336.401 435.232H337.841L340.209 442.768H340.401C340.657 442.768 340.907 442.709 341.153 442.592C341.398 442.464 341.606 442.304 341.777 442.112C342.097 441.76 342.331 441.317 342.481 440.784C342.63 440.24 342.705 439.707 342.705 439.184C342.705 438.299 342.502 437.605 342.097 437.104C341.702 436.592 341.153 436.336 340.449 436.336C340.31 436.336 340.171 436.347 340.033 436.368C339.905 436.389 339.798 436.416 339.713 436.448L339.361 435.312C339.585 435.248 339.793 435.205 339.985 435.184C340.187 435.163 340.369 435.152 340.529 435.152C341.062 435.152 341.537 435.232 341.953 435.392C342.379 435.541 342.742 435.765 343.041 436.064C343.414 436.427 343.686 436.88 343.857 437.424C344.038 437.968 344.129 438.571 344.129 439.232C344.129 440.064 344.001 440.805 343.745 441.456C343.489 442.096 343.169 442.608 342.785 442.992C342.475 443.301 342.097 443.547 341.649 443.728C341.201 443.909 340.63 444 339.937 444H339.137ZM349.858 444.16C348.856 444.16 348.077 443.92 347.522 443.44C346.978 442.949 346.706 442.219 346.706 441.248V440.272C346.706 439.739 346.781 439.317 346.93 439.008C347.08 438.699 347.24 438.432 347.41 438.208C347.592 437.963 347.746 437.749 347.874 437.568C348.013 437.387 348.082 437.168 348.082 436.912C348.082 436.688 348.024 436.528 347.906 436.432C347.8 436.336 347.661 436.288 347.49 436.288C347.362 436.288 347.224 436.309 347.074 436.352C346.936 436.395 346.797 436.448 346.658 436.512L346.338 435.488C346.53 435.36 346.765 435.269 347.042 435.216C347.33 435.163 347.581 435.136 347.794 435.136C348.189 435.136 348.504 435.205 348.738 435.344C348.984 435.483 349.16 435.675 349.266 435.92C349.373 436.155 349.426 436.432 349.426 436.752C349.426 437.147 349.357 437.472 349.218 437.728C349.09 437.984 348.936 438.235 348.754 438.48C348.573 438.747 348.424 439.003 348.306 439.248C348.189 439.493 348.13 439.813 348.13 440.208V441.152C348.13 441.643 348.21 442.021 348.37 442.288C348.53 442.555 348.744 442.741 349.01 442.848C349.277 442.944 349.56 442.992 349.858 442.992C350.392 442.992 350.797 442.869 351.074 442.624C351.362 442.368 351.506 441.979 351.506 441.456V435.232H352.93V441.536C352.93 442.357 352.669 443.003 352.146 443.472C351.634 443.931 350.872 444.16 349.858 444.16ZM351.358 433.84C350.91 433.84 350.552 433.776 350.286 433.648C350.019 433.52 349.827 433.355 349.71 433.152C349.582 432.949 349.518 432.736 349.518 432.512C349.518 432.352 349.544 432.181 349.598 432C349.64 431.808 349.699 431.653 349.774 431.536L350.974 431.744C350.952 431.787 350.931 431.861 350.91 431.968C350.888 432.064 350.878 432.155 350.878 432.24C350.878 432.379 350.92 432.501 351.006 432.608C351.091 432.704 351.235 432.752 351.438 432.752H355.486V433.84H351.358ZM359.504 444.16C358.875 444.16 358.331 444.053 357.872 443.84C357.424 443.616 357.078 443.28 356.832 442.832C356.598 442.384 356.48 441.803 356.48 441.088V435.232H357.904V441.008C357.904 441.648 358.064 442.133 358.384 442.464C358.715 442.795 359.19 442.96 359.808 442.96C360.555 442.96 361.131 442.72 361.536 442.24C361.952 441.76 362.16 441.115 362.16 440.304V435.232H363.584V444H362.4L362.336 442.704H362.256C362.064 443.131 361.728 443.483 361.248 443.76C360.779 444.027 360.198 444.16 359.504 444.16Z" fill="black"/>
<defs>
<filter id="filter0_d_906_3667" x="0" y="0" width="437" height="599" filterUnits="userSpaceOnUse" color-interpolation-filters="sRGB">
<feFlood flood-opacity="0" result="BackgroundImageFix"/>
<feColorMatrix in="SourceAlpha" type="matrix" values="0 0 0 0 0 0 0 0 0 0 0 0 0 0 0 0 0 0 127 0" result="hardAlpha"/>
<feOffset dy="4"/>
<feGaussianBlur stdDeviation="10"/>
<feComposite in2="hardAlpha" operator="out"/>
<feColorMatrix type="matrix" values="0 0 0 0 0 0 0 0 0 0 0 0 0 0 0 0 0 0 0.25 0"/>
<feBlend mode="normal" in2="BackgroundImageFix" result="effect1_dropShadow_906_3667"/>
<feBlend mode="normal" in="SourceGraphic" in2="effect1_dropShadow_906_3667" result="shape"/>
</filter>
</defs>
</svg>
