<svg width="437" height="599" viewBox="0 0 437 599" fill="none" xmlns="http://www.w3.org/2000/svg">
<g filter="url(#filter0_d_899_3134)">
<rect x="20" y="16" width="397" height="559" rx="55" fill="#FBFBFB"/>
</g>
<path d="M121.877 114V109.992C121.877 108.984 122.077 108.208 122.477 107.664C122.877 107.12 123.445 106.736 124.181 106.512L124.205 106.416L121.637 105.48V104.856C121.637 104.072 121.869 103.352 122.333 102.696C122.797 102.04 123.477 101.52 124.373 101.136C125.285 100.736 126.389 100.536 127.685 100.536C128.901 100.536 129.949 100.728 130.829 101.112C131.709 101.48 132.389 102.04 132.869 102.792C133.365 103.528 133.613 104.464 133.613 105.6V114H130.013V105.816C130.013 105.016 129.797 104.416 129.365 104.016C128.949 103.616 128.357 103.416 127.589 103.416C126.853 103.416 126.301 103.576 125.933 103.896C125.565 104.2 125.365 104.576 125.333 105.024L127.469 106.008L127.205 107.568C126.629 107.6 126.197 107.808 125.909 108.192C125.621 108.576 125.477 109.096 125.477 109.752V114H121.877ZM141.174 114V105.312C141.174 104.64 141.014 104.152 140.694 103.848C140.39 103.544 139.886 103.392 139.182 103.392C138.654 103.392 138.166 103.464 137.718 103.608C137.286 103.752 136.878 103.928 136.494 104.136V101.256C136.846 101.096 137.342 100.936 137.982 100.776C138.622 100.616 139.374 100.536 140.238 100.536C141.118 100.536 141.894 100.664 142.566 100.92C143.254 101.176 143.79 101.608 144.174 102.216C144.574 102.808 144.774 103.624 144.774 104.664V114H141.174ZM153.356 114.312C152.412 114.312 151.46 114.208 150.5 114C149.556 113.792 148.716 113.496 147.98 113.112L148.988 110.256C149.308 110.432 149.692 110.616 150.14 110.808C150.588 111 151.076 111.16 151.604 111.288C152.132 111.416 152.668 111.48 153.212 111.48C153.852 111.48 154.332 111.392 154.652 111.216C154.988 111.024 155.156 110.736 155.156 110.352C155.156 110.064 155.044 109.832 154.82 109.656C154.612 109.464 154.3 109.288 153.884 109.128C153.468 108.952 152.972 108.768 152.396 108.576C151.548 108.272 150.82 107.944 150.212 107.592C149.604 107.24 149.132 106.808 148.796 106.296C148.476 105.784 148.316 105.144 148.316 104.376C148.316 103.496 148.54 102.776 148.988 102.216C149.436 101.656 150.068 101.24 150.884 100.968C151.7 100.68 152.652 100.536 153.74 100.536C154.636 100.536 155.444 100.608 156.164 100.752C156.884 100.896 157.444 101.08 157.844 101.304V104.136C157.572 104.008 157.212 103.88 156.764 103.752C156.332 103.624 155.86 103.52 155.348 103.44C154.852 103.344 154.372 103.296 153.908 103.296C153.252 103.296 152.756 103.384 152.42 103.56C152.084 103.736 151.916 103.984 151.916 104.304C151.916 104.56 152.028 104.776 152.252 104.952C152.492 105.128 152.836 105.296 153.284 105.456C153.732 105.6 154.268 105.784 154.892 106.008C155.724 106.296 156.428 106.616 157.004 106.968C157.58 107.32 158.012 107.752 158.3 108.264C158.604 108.776 158.756 109.408 158.756 110.16C158.756 110.88 158.588 111.56 158.252 112.2C157.932 112.824 157.38 113.336 156.596 113.736C155.812 114.12 154.732 114.312 153.356 114.312ZM163.066 114V108.48H161.698V106.272H166.306V111.264H166.474C167.002 111.264 167.45 111.12 167.818 110.832C168.202 110.544 168.49 110.12 168.682 109.56C168.874 108.984 168.97 108.264 168.97 107.4C168.97 106.408 168.826 105.624 168.538 105.048C168.266 104.456 167.858 104.032 167.314 103.776C166.77 103.52 166.098 103.392 165.298 103.392C164.466 103.392 163.714 103.512 163.042 103.752C162.37 103.976 161.77 104.248 161.242 104.568V101.568C161.77 101.296 162.434 101.056 163.234 100.848C164.034 100.64 164.954 100.536 165.994 100.536C167.546 100.536 168.802 100.784 169.762 101.28C170.738 101.776 171.458 102.528 171.922 103.536C172.386 104.544 172.618 105.808 172.618 107.328C172.618 108.752 172.402 109.968 171.97 110.976C171.554 111.968 170.866 112.72 169.906 113.232C168.962 113.744 167.698 114 166.114 114H163.066ZM169.196 99.024C168.444 99.024 167.852 98.912 167.42 98.688C166.988 98.464 166.684 98.184 166.508 97.848C166.316 97.496 166.22 97.128 166.22 96.744C166.22 96.472 166.26 96.184 166.34 95.88C166.42 95.56 166.54 95.264 166.7 94.992L169.316 95.328C169.284 95.44 169.26 95.56 169.244 95.688C169.212 95.8 169.196 95.904 169.196 96C169.196 96.224 169.268 96.4 169.412 96.528C169.54 96.64 169.764 96.696 170.084 96.696H175.244V99.024H169.196ZM181.56 114.24C180.264 114.24 179.232 113.96 178.464 113.4C177.696 112.824 177.144 112.04 176.808 111.048C176.472 110.04 176.304 108.888 176.304 107.592C176.304 106.2 176.456 105.048 176.76 104.136C177.08 103.208 177.528 102.488 178.104 101.976C178.68 101.448 179.36 101.08 180.144 100.872C180.944 100.648 181.816 100.536 182.76 100.536C184.2 100.536 185.352 100.736 186.216 101.136C187.08 101.536 187.704 102.104 188.088 102.84C188.488 103.576 188.688 104.44 188.688 105.432V114H185.088V105.72C185.088 104.968 184.904 104.4 184.536 104.016C184.184 103.616 183.592 103.416 182.76 103.416C182.2 103.416 181.704 103.536 181.272 103.776C180.856 104 180.528 104.408 180.288 105C180.064 105.592 179.952 106.44 179.952 107.544C179.952 108.296 180.024 108.96 180.168 109.536C180.312 110.112 180.544 110.56 180.864 110.88C181.2 111.2 181.648 111.36 182.208 111.36C182.384 111.36 182.552 111.352 182.712 111.336C182.888 111.304 183.04 111.272 183.168 111.24L183.504 113.928C183.248 114.04 182.936 114.12 182.568 114.168C182.216 114.216 181.88 114.24 181.56 114.24ZM192.643 114V109.992C192.643 108.984 192.843 108.208 193.243 107.664C193.643 107.12 194.211 106.736 194.947 106.512L194.971 106.416L192.403 105.48V104.856C192.403 104.072 192.635 103.352 193.099 102.696C193.563 102.04 194.243 101.52 195.139 101.136C196.051 100.736 197.155 100.536 198.451 100.536C199.667 100.536 200.715 100.728 201.595 101.112C202.475 101.48 203.155 102.04 203.635 102.792C204.131 103.528 204.379 104.464 204.379 105.6V114H200.779V105.816C200.779 105.016 200.563 104.416 200.131 104.016C199.715 103.616 199.123 103.416 198.355 103.416C197.619 103.416 197.067 103.576 196.699 103.896C196.331 104.2 196.131 104.576 196.099 105.024L198.235 106.008L197.971 107.568C197.395 107.6 196.963 107.808 196.675 108.192C196.387 108.576 196.243 109.096 196.243 109.752V114H192.643ZM215.947 114V105.456C215.947 104.688 215.739 104.136 215.323 103.8C214.907 103.464 214.267 103.296 213.403 103.296C212.571 103.296 211.755 103.424 210.955 103.68C210.171 103.92 209.491 104.208 208.915 104.544V101.568C209.379 101.344 210.035 101.12 210.883 100.896C211.731 100.656 212.715 100.536 213.835 100.536C214.651 100.536 215.395 100.624 216.067 100.8C216.755 100.96 217.355 101.24 217.867 101.64C218.379 102.024 218.771 102.544 219.043 103.2C219.331 103.84 219.475 104.64 219.475 105.6V114H215.947ZM212.011 114.24C210.635 114.24 209.571 113.912 208.819 113.256C208.083 112.6 207.715 111.68 207.715 110.496C207.715 109.216 208.171 108.192 209.083 107.424C210.011 106.656 211.467 106.192 213.451 106.032L216.523 105.792V108.384L213.859 108.648C212.899 108.744 212.227 108.936 211.843 109.224C211.475 109.512 211.291 109.896 211.291 110.376C211.291 110.856 211.443 111.216 211.747 111.456C212.067 111.696 212.475 111.816 212.971 111.816C213.163 111.816 213.355 111.8 213.547 111.768C213.739 111.72 213.915 111.672 214.075 111.624L214.387 113.88C214.083 113.992 213.723 114.08 213.307 114.144C212.891 114.208 212.459 114.24 212.011 114.24ZM217.133 120.264V118.128C217.133 117.728 216.957 117.528 216.605 117.528C216.525 117.528 216.445 117.536 216.365 117.552C216.285 117.568 216.205 117.592 216.125 117.624L215.957 115.896C216.181 115.816 216.493 115.736 216.893 115.656C217.277 115.576 217.669 115.536 218.069 115.536C218.853 115.536 219.405 115.688 219.725 115.992C220.045 116.312 220.205 116.744 220.205 117.288V120.264H217.133ZM217.235 99.024V93.576H220.547V99.024H217.235ZM232.739 114.24C231.603 114.24 230.683 114.024 229.979 113.592C229.291 113.16 228.803 112.608 228.515 111.936H228.323L227.939 114H225.203V100.848H228.803V107.136C228.803 108.048 228.907 108.8 229.115 109.392C229.323 109.968 229.627 110.4 230.027 110.688C230.427 110.976 230.907 111.12 231.467 111.12C232.139 111.12 232.651 110.92 233.003 110.52C233.355 110.12 233.531 109.48 233.531 108.6V100.848H237.131V109.392C237.131 110.432 236.963 111.312 236.627 112.032C236.307 112.752 235.819 113.304 235.163 113.688C234.507 114.056 233.699 114.24 232.739 114.24ZM241.438 114V100.848H244.99V105.768H245.086L249.166 100.848H253.126V100.968L244.99 109.992V114H241.438ZM249.478 114V109.656C249.478 108.808 249.23 108.2 248.734 107.832C248.254 107.448 247.55 107.256 246.622 107.256L248.734 104.76C249.694 104.76 250.494 104.952 251.134 105.336C251.774 105.72 252.254 106.24 252.574 106.896C252.91 107.536 253.078 108.272 253.078 109.104V114H249.478ZM261.36 114.24C260.384 114.24 259.56 114.056 258.888 113.688C258.232 113.304 257.728 112.736 257.376 111.984C257.04 111.232 256.872 110.312 256.872 109.224V100.848H260.472V108.6C260.472 109.48 260.648 110.12 261 110.52C261.352 110.92 261.864 111.12 262.536 111.12C263.384 111.12 264.04 110.8 264.504 110.16C264.968 109.504 265.2 108.496 265.2 107.136V100.848H268.8V114H266.064L265.68 111.984H265.464C265.192 112.624 264.72 113.16 264.048 113.592C263.392 114.024 262.496 114.24 261.36 114.24ZM266.027 99.024C265.275 99.024 264.683 98.912 264.251 98.688C263.819 98.464 263.515 98.184 263.339 97.848C263.147 97.496 263.051 97.128 263.051 96.744C263.051 96.472 263.091 96.184 263.171 95.88C263.251 95.56 263.371 95.264 263.531 94.992L266.147 95.328C266.115 95.44 266.091 95.56 266.075 95.688C266.043 95.8 266.027 95.904 266.027 96C266.027 96.224 266.099 96.4 266.243 96.528C266.371 96.64 266.595 96.696 266.915 96.696H272.075V99.024H266.027ZM276.083 114L272.267 100.848H275.891L278.795 111.096H278.939C279.195 111.096 279.435 111.024 279.659 110.88C279.883 110.736 280.075 110.544 280.235 110.304C280.555 109.856 280.795 109.328 280.955 108.72C281.115 108.096 281.195 107.48 281.195 106.872C281.195 105.8 280.987 104.976 280.571 104.4C280.171 103.824 279.611 103.536 278.891 103.536C278.747 103.536 278.611 103.544 278.483 103.56C278.371 103.576 278.267 103.608 278.171 103.656L277.499 100.896C277.867 100.784 278.211 100.72 278.531 100.704C278.867 100.672 279.139 100.656 279.347 100.656C280.195 100.656 280.931 100.768 281.555 100.992C282.179 101.216 282.715 101.552 283.163 102C283.723 102.544 284.139 103.224 284.411 104.04C284.699 104.856 284.843 105.776 284.843 106.8C284.843 108.096 284.635 109.232 284.219 110.208C283.819 111.168 283.331 111.928 282.755 112.488C282.275 112.952 281.667 113.32 280.931 113.592C280.211 113.864 279.219 114 277.955 114H276.083ZM295.746 114V105.456C295.746 104.688 295.538 104.136 295.122 103.8C294.706 103.464 294.066 103.296 293.202 103.296C292.37 103.296 291.554 103.424 290.754 103.68C289.97 103.92 289.29 104.208 288.714 104.544V101.568C289.178 101.344 289.834 101.12 290.682 100.896C291.53 100.656 292.506 100.536 293.61 100.536C294.458 100.536 295.218 100.64 295.89 100.848C296.578 101.056 297.074 101.464 297.378 102.072C298.05 102.28 298.53 102.688 298.818 103.296C299.122 103.888 299.274 104.656 299.274 105.6V114H295.746ZM291.81 114.24C290.434 114.24 289.37 113.912 288.618 113.256C287.882 112.6 287.514 111.68 287.514 110.496C287.514 109.216 287.97 108.192 288.882 107.424C289.81 106.656 291.266 106.192 293.25 106.032L296.322 105.792V108.384L293.658 108.648C292.698 108.744 292.026 108.936 291.642 109.224C291.274 109.512 291.09 109.896 291.09 110.376C291.09 110.856 291.242 111.216 291.546 111.456C291.866 111.696 292.274 111.816 292.77 111.816C292.962 111.816 293.154 111.8 293.346 111.768C293.538 111.72 293.714 111.672 293.874 111.624L294.186 113.88C293.882 113.992 293.522 114.08 293.106 114.144C292.69 114.208 292.258 114.24 291.81 114.24ZM297.306 103.464L295.338 101.808C295.898 101.616 296.338 101.376 296.658 101.088C296.978 100.784 297.146 100.416 297.162 99.984H300.306C300.306 100.48 300.202 100.96 299.994 101.424C299.802 101.872 299.482 102.272 299.034 102.624C298.602 102.976 298.026 103.256 297.306 103.464ZM289.036 99.024V97.512L291.46 96.504H300.028V99.024H289.036ZM294.076 97.56V94.848H296.356V97.56H294.076ZM297.772 97.56V94.848H300.028V97.56H297.772ZM309.368 114.312C307.416 114.312 305.968 113.84 305.024 112.896C304.08 111.936 303.608 110.52 303.608 108.648C303.608 108.328 303.616 107.944 303.632 107.496C303.664 107.032 303.704 106.624 303.752 106.272H309.512V108.552H307.136V108.888C307.136 109.528 307.216 110.056 307.376 110.472C307.536 110.872 307.776 111.168 308.096 111.36C308.432 111.552 308.848 111.648 309.344 111.648C309.888 111.648 310.344 111.528 310.712 111.288C311.096 111.048 311.384 110.64 311.576 110.064C311.784 109.488 311.888 108.696 311.888 107.688C311.888 106.744 311.776 105.96 311.552 105.336C311.344 104.696 310.984 104.216 310.472 103.896C309.976 103.576 309.288 103.416 308.408 103.416C307.928 103.416 307.432 103.472 306.92 103.584C306.408 103.68 305.92 103.808 305.456 103.968C305.008 104.128 304.616 104.304 304.28 104.496V101.496C304.632 101.304 305.064 101.136 305.576 100.992C306.104 100.848 306.672 100.736 307.28 100.656C307.888 100.576 308.488 100.536 309.08 100.536C310.632 100.536 311.88 100.824 312.824 101.4C313.784 101.96 314.48 102.76 314.912 103.8C315.36 104.84 315.584 106.072 315.584 107.496C315.584 108.952 315.368 110.192 314.936 111.216C314.52 112.224 313.856 112.992 312.944 113.52C312.032 114.048 310.84 114.312 309.368 114.312Z" fill="#252525"/>
<path d="M44.4238 170V165.4H43.2838V163.56H47.1238V167.72H47.2638C47.7038 167.72 48.0772 167.6 48.3838 167.36C48.7038 167.12 48.9438 166.767 49.1038 166.3C49.2638 165.82 49.3438 165.22 49.3438 164.5C49.3438 163.673 49.2238 163.02 48.9838 162.54C48.7572 162.047 48.4172 161.693 47.9638 161.48C47.5105 161.267 46.9505 161.16 46.2838 161.16C45.5905 161.16 44.9638 161.26 44.4038 161.46C43.8438 161.647 43.3438 161.873 42.9038 162.14V159.64C43.3438 159.413 43.8972 159.213 44.5638 159.04C45.2305 158.867 45.9972 158.78 46.8638 158.78C48.1572 158.78 49.2038 158.987 50.0038 159.4C50.8172 159.813 51.4172 160.44 51.8038 161.28C52.1905 162.12 52.3838 163.173 52.3838 164.44C52.3838 165.627 52.2038 166.64 51.8438 167.48C51.4972 168.307 50.9238 168.933 50.1238 169.36C49.3372 169.787 48.2838 170 46.9638 170H44.4238ZM57.1757 163.54C56.5624 163.54 56.0757 163.447 55.7157 163.26C55.3557 163.073 55.0957 162.827 54.9357 162.52C54.7757 162.2 54.6957 161.867 54.6957 161.52C54.6957 161.293 54.729 161.06 54.7957 160.82C54.8624 160.567 54.9624 160.32 55.0957 160.08L57.2757 160.36C57.249 160.453 57.2224 160.553 57.1957 160.66C57.1824 160.767 57.1757 160.88 57.1757 161C57.1757 161.173 57.229 161.313 57.3357 161.42C57.4424 161.513 57.629 161.56 57.8957 161.56H60.1557V163.54H57.1757ZM57.1757 169.14C56.5624 169.14 56.0757 169.047 55.7157 168.86C55.3557 168.673 55.0957 168.427 54.9357 168.12C54.7757 167.8 54.6957 167.467 54.6957 167.12C54.6957 166.893 54.729 166.66 54.7957 166.42C54.8624 166.167 54.9624 165.92 55.0957 165.68L57.2757 165.96C57.249 166.053 57.2224 166.153 57.1957 166.26C57.1824 166.367 57.1757 166.48 57.1757 166.6C57.1757 166.773 57.229 166.913 57.3357 167.02C57.4424 167.113 57.629 167.16 57.8957 167.16H60.1557V169.14H57.1757ZM66.1437 170.2C65.5437 170.2 65.037 170.107 64.6237 169.92C64.2103 169.733 63.897 169.453 63.6837 169.08C63.4703 168.693 63.3637 168.213 63.3637 167.64V159.04H66.3637V167.28C66.3637 167.533 66.417 167.72 66.5237 167.84C66.6437 167.96 66.8237 168.02 67.0637 168.02C67.1703 168.02 67.2837 168.007 67.4037 167.98C67.5237 167.953 67.637 167.92 67.7437 167.88L68.0237 169.8C67.7703 169.933 67.4837 170.033 67.1637 170.1C66.8437 170.167 66.5037 170.2 66.1437 170.2ZM75.2834 170.26C73.55 170.26 72.29 169.86 71.5034 169.06C70.73 168.247 70.3434 167.073 70.3434 165.54V159.04H73.3434V165.7C73.3434 166.407 73.4967 166.947 73.8034 167.32C74.1234 167.68 74.6167 167.86 75.2834 167.86C75.95 167.86 76.4367 167.68 76.7434 167.32C77.0634 166.947 77.2234 166.407 77.2234 165.7V155.1H80.2234V165.54C80.2234 167.073 79.83 168.247 79.0434 169.06C78.27 169.86 77.0167 170.26 75.2834 170.26ZM75.1177 157.7C74.7577 157.7 74.4511 157.627 74.1977 157.48C73.9311 157.333 73.7177 157.107 73.5577 156.8L72.7777 157.64C72.0044 157.64 71.3911 157.44 70.9377 157.04C70.4844 156.627 70.2577 156.033 70.2577 155.26C70.2577 154.447 70.4844 153.847 70.9377 153.46C71.3911 153.06 71.9044 152.86 72.4777 152.86H76.9177V154.32H72.9377C72.7111 154.32 72.5177 154.4 72.3577 154.56C72.1977 154.72 72.1177 154.967 72.1177 155.3C72.1177 155.54 72.1711 155.74 72.2777 155.9C72.3711 156.06 72.5244 156.14 72.7377 156.14L73.4777 155.28H73.8977C73.9111 155.56 73.9777 155.787 74.0977 155.96C74.2044 156.12 74.3644 156.2 74.5777 156.2C74.7511 156.2 74.8911 156.14 74.9977 156.02C75.0911 155.887 75.1377 155.713 75.1377 155.5V155.2H76.9377V155.6C76.9377 156.32 76.7711 156.853 76.4377 157.2C76.1044 157.533 75.6644 157.7 75.1177 157.7ZM87.9787 170.2C87.1653 170.2 86.4787 170.047 85.9187 169.74C85.372 169.42 84.952 168.947 84.6587 168.32C84.3787 167.693 84.2387 166.927 84.2387 166.02V159.04H87.2387V165.5C87.2387 166.233 87.3853 166.767 87.6787 167.1C87.972 167.433 88.3987 167.6 88.9587 167.6C89.6653 167.6 90.212 167.333 90.5987 166.8C90.9853 166.253 91.1787 165.413 91.1787 164.28V159.04H94.1787V170H91.8987L91.5787 168.32H91.3987C91.172 168.853 90.7787 169.3 90.2187 169.66C89.672 170.02 88.9253 170.2 87.9787 170.2ZM97.6684 170V166.66C97.6684 165.82 97.835 165.173 98.1684 164.72C98.5017 164.267 98.975 163.947 99.5884 163.76L99.6084 163.68L97.4684 162.9V162.38C97.4684 161.727 97.6617 161.127 98.0484 160.58C98.435 160.033 99.0017 159.6 99.7484 159.28C100.508 158.947 101.428 158.78 102.508 158.78C103.522 158.78 104.395 158.94 105.128 159.26C105.862 159.567 106.428 160.033 106.828 160.66C107.242 161.273 107.448 162.053 107.448 163V170H104.448V163.18C104.448 162.513 104.268 162.013 103.908 161.68C103.562 161.347 103.068 161.18 102.428 161.18C101.815 161.18 101.355 161.313 101.048 161.58C100.742 161.833 100.575 162.147 100.548 162.52L102.328 163.34L102.108 164.64C101.628 164.667 101.268 164.84 101.028 165.16C100.788 165.48 100.668 165.913 100.668 166.46V170H97.6684ZM113.749 170V162.76C113.749 162.2 113.615 161.793 113.349 161.54C113.095 161.287 112.675 161.16 112.089 161.16C111.649 161.16 111.242 161.22 110.869 161.34C110.509 161.46 110.169 161.607 109.849 161.78V159.38C110.142 159.247 110.555 159.113 111.089 158.98C111.622 158.847 112.249 158.78 112.969 158.78C113.702 158.78 114.349 158.887 114.909 159.1C115.482 159.313 115.929 159.673 116.249 160.18C116.582 160.673 116.749 161.353 116.749 162.22V170H113.749ZM123.9 170.26C123.114 170.26 122.32 170.173 121.52 170C120.734 169.827 120.034 169.58 119.42 169.26L120.26 166.88C120.527 167.027 120.847 167.18 121.22 167.34C121.594 167.5 122 167.633 122.44 167.74C122.88 167.847 123.327 167.9 123.78 167.9C124.314 167.9 124.714 167.827 124.98 167.68C125.26 167.52 125.4 167.28 125.4 166.96C125.4 166.72 125.307 166.527 125.12 166.38C124.947 166.22 124.687 166.073 124.34 165.94C123.994 165.793 123.58 165.64 123.1 165.48C122.394 165.227 121.787 164.953 121.28 164.66C120.774 164.367 120.38 164.007 120.1 163.58C119.834 163.153 119.7 162.62 119.7 161.98C119.7 161.247 119.887 160.647 120.26 160.18C120.634 159.713 121.16 159.367 121.84 159.14C122.52 158.9 123.314 158.78 124.22 158.78C124.967 158.78 125.64 158.84 126.24 158.96C126.84 159.08 127.307 159.233 127.64 159.42V161.78C127.414 161.673 127.114 161.567 126.74 161.46C126.38 161.353 125.987 161.267 125.56 161.2C125.147 161.12 124.747 161.08 124.36 161.08C123.814 161.08 123.4 161.153 123.12 161.3C122.84 161.447 122.7 161.653 122.7 161.92C122.7 162.133 122.794 162.313 122.98 162.46C123.18 162.607 123.467 162.747 123.84 162.88C124.214 163 124.66 163.153 125.18 163.34C125.874 163.58 126.46 163.847 126.94 164.14C127.42 164.433 127.78 164.793 128.02 165.22C128.274 165.647 128.4 166.173 128.4 166.8C128.4 167.4 128.26 167.967 127.98 168.5C127.714 169.02 127.254 169.447 126.6 169.78C125.947 170.1 125.047 170.26 123.9 170.26ZM131.992 170V165.4H130.852V163.56H134.692V167.72H134.832C135.272 167.72 135.645 167.6 135.952 167.36C136.272 167.12 136.512 166.767 136.672 166.3C136.832 165.82 136.912 165.22 136.912 164.5C136.912 163.673 136.792 163.02 136.552 162.54C136.325 162.047 135.985 161.693 135.532 161.48C135.078 161.267 134.518 161.16 133.852 161.16C133.158 161.16 132.532 161.26 131.972 161.46C131.412 161.647 130.912 161.873 130.472 162.14V159.64C130.912 159.413 131.465 159.213 132.132 159.04C132.798 158.867 133.565 158.78 134.432 158.78C135.725 158.78 136.772 158.987 137.572 159.4C138.385 159.813 138.985 160.44 139.372 161.28C139.758 162.12 139.952 163.173 139.952 164.44C139.952 165.627 139.772 166.64 139.412 167.48C139.065 168.307 138.492 168.933 137.692 169.36C136.905 169.787 135.852 170 134.532 170H131.992ZM137.1 157.52C136.474 157.52 135.98 157.427 135.62 157.24C135.26 157.053 135.007 156.82 134.86 156.54C134.7 156.247 134.62 155.94 134.62 155.62C134.62 155.393 134.654 155.153 134.72 154.9C134.787 154.633 134.887 154.387 135.02 154.16L137.2 154.44C137.174 154.533 137.154 154.633 137.14 154.74C137.114 154.833 137.1 154.92 137.1 155C137.1 155.187 137.16 155.333 137.28 155.44C137.387 155.533 137.574 155.58 137.84 155.58H142.14V157.52H137.1ZM147.404 170.2C146.324 170.2 145.464 169.967 144.824 169.5C144.184 169.02 143.724 168.367 143.444 167.54C143.164 166.7 143.024 165.74 143.024 164.66C143.024 163.5 143.15 162.54 143.404 161.78C143.67 161.007 144.044 160.407 144.524 159.98C145.004 159.54 145.57 159.233 146.224 159.06C146.89 158.873 147.617 158.78 148.404 158.78C149.604 158.78 150.564 158.947 151.284 159.28C152.004 159.613 152.524 160.087 152.844 160.7C153.177 161.313 153.344 162.033 153.344 162.86V170H150.344V163.1C150.344 162.473 150.19 162 149.884 161.68C149.59 161.347 149.097 161.18 148.404 161.18C147.937 161.18 147.524 161.28 147.164 161.48C146.817 161.667 146.544 162.007 146.344 162.5C146.157 162.993 146.064 163.7 146.064 164.62C146.064 165.247 146.124 165.8 146.244 166.28C146.364 166.76 146.557 167.133 146.824 167.4C147.104 167.667 147.477 167.8 147.944 167.8C148.09 167.8 148.23 167.793 148.364 167.78C148.51 167.753 148.637 167.727 148.744 167.7L149.024 169.94C148.81 170.033 148.55 170.1 148.244 170.14C147.95 170.18 147.67 170.2 147.404 170.2ZM156.639 170V166.66C156.639 165.82 156.806 165.173 157.139 164.72C157.473 164.267 157.946 163.947 158.559 163.76L158.579 163.68L156.439 162.9V162.38C156.439 161.727 156.633 161.127 157.019 160.58C157.406 160.033 157.973 159.6 158.719 159.28C159.479 158.947 160.399 158.78 161.479 158.78C162.493 158.78 163.366 158.94 164.099 159.26C164.833 159.567 165.399 160.033 165.799 160.66C166.213 161.273 166.419 162.053 166.419 163V170H163.419V163.18C163.419 162.513 163.239 162.013 162.879 161.68C162.533 161.347 162.039 161.18 161.399 161.18C160.786 161.18 160.326 161.313 160.019 161.58C159.713 161.833 159.546 162.147 159.519 162.52L161.299 163.34L161.079 164.64C160.599 164.667 160.239 164.84 159.999 165.16C159.759 165.48 159.639 165.913 159.639 166.46V170H156.639ZM176.06 170V162.88C176.06 162.24 175.887 161.78 175.54 161.5C175.193 161.22 174.66 161.08 173.94 161.08C173.247 161.08 172.567 161.187 171.9 161.4C171.247 161.6 170.68 161.84 170.2 162.12V159.64C170.587 159.453 171.133 159.267 171.84 159.08C172.547 158.88 173.367 158.78 174.3 158.78C174.98 158.78 175.6 158.853 176.16 159C176.733 159.133 177.233 159.367 177.66 159.7C178.087 160.02 178.413 160.453 178.64 161C178.88 161.533 179 162.2 179 163V170H176.06ZM172.78 170.2C171.633 170.2 170.747 169.927 170.12 169.38C169.507 168.833 169.2 168.067 169.2 167.08C169.2 166.013 169.58 165.16 170.34 164.52C171.113 163.88 172.327 163.493 173.98 163.36L176.54 163.16V165.32L174.32 165.54C173.52 165.62 172.96 165.78 172.64 166.02C172.333 166.26 172.18 166.58 172.18 166.98C172.18 167.38 172.307 167.68 172.56 167.88C172.827 168.08 173.167 168.18 173.58 168.18C173.74 168.18 173.9 168.167 174.06 168.14C174.22 168.1 174.367 168.06 174.5 168.02L174.76 169.9C174.507 169.993 174.207 170.067 173.86 170.12C173.513 170.173 173.153 170.2 172.78 170.2ZM177.048 175.22V173.44C177.048 173.107 176.901 172.94 176.608 172.94C176.541 172.94 176.475 172.947 176.408 172.96C176.341 172.973 176.275 172.993 176.208 173.02L176.068 171.58C176.255 171.513 176.515 171.447 176.848 171.38C177.168 171.313 177.495 171.28 177.828 171.28C178.481 171.28 178.941 171.407 179.208 171.66C179.475 171.927 179.608 172.287 179.608 172.74V175.22H177.048ZM177.133 157.52V152.98H179.893V157.52H177.133ZM190.053 170.2C189.106 170.2 188.339 170.02 187.753 169.66C187.179 169.3 186.773 168.84 186.533 168.28H186.373L186.053 170H183.773V159.04H186.773V164.28C186.773 165.04 186.859 165.667 187.033 166.16C187.206 166.64 187.459 167 187.793 167.24C188.126 167.48 188.526 167.6 188.993 167.6C189.553 167.6 189.979 167.433 190.273 167.1C190.566 166.767 190.713 166.233 190.713 165.5V159.04H193.713V166.16C193.713 167.027 193.573 167.76 193.293 168.36C193.026 168.96 192.619 169.42 192.073 169.74C191.526 170.047 190.853 170.2 190.053 170.2ZM197.302 170V159.04H200.262V163.14H200.342L203.742 159.04H207.042V159.14L200.262 166.66V170H197.302ZM204.002 170V166.38C204.002 165.673 203.796 165.167 203.382 164.86C202.982 164.54 202.396 164.38 201.622 164.38L203.382 162.3C204.182 162.3 204.849 162.46 205.382 162.78C205.916 163.1 206.316 163.533 206.582 164.08C206.862 164.613 207.002 165.227 207.002 165.92V170H204.002ZM213.904 170.2C213.09 170.2 212.404 170.047 211.844 169.74C211.297 169.42 210.877 168.947 210.584 168.32C210.304 167.693 210.164 166.927 210.164 166.02V159.04H213.164V165.5C213.164 166.233 213.31 166.767 213.604 167.1C213.897 167.433 214.324 167.6 214.884 167.6C215.59 167.6 216.137 167.333 216.524 166.8C216.91 166.253 217.104 165.413 217.104 164.28V159.04H220.104V170H217.824L217.504 168.32H217.324C217.097 168.853 216.704 169.3 216.144 169.66C215.597 170.02 214.85 170.2 213.904 170.2ZM217.793 157.52C217.167 157.52 216.673 157.427 216.313 157.24C215.953 157.053 215.7 156.82 215.553 156.54C215.393 156.247 215.313 155.94 215.313 155.62C215.313 155.393 215.347 155.153 215.413 154.9C215.48 154.633 215.58 154.387 215.713 154.16L217.893 154.44C217.867 154.533 217.847 154.633 217.833 154.74C217.807 154.833 217.793 154.92 217.793 155C217.793 155.187 217.853 155.333 217.973 155.44C218.08 155.533 218.267 155.58 218.533 155.58H222.833V157.52H217.793ZM226.173 170L222.993 159.04H226.013L228.433 167.58H228.553C228.767 167.58 228.967 167.52 229.153 167.4C229.34 167.28 229.5 167.12 229.633 166.92C229.9 166.547 230.1 166.107 230.233 165.6C230.367 165.08 230.433 164.567 230.433 164.06C230.433 163.167 230.26 162.48 229.913 162C229.58 161.52 229.113 161.28 228.513 161.28C228.393 161.28 228.28 161.287 228.173 161.3C228.08 161.313 227.993 161.34 227.913 161.38L227.353 159.08C227.66 158.987 227.947 158.933 228.213 158.92C228.493 158.893 228.72 158.88 228.893 158.88C229.6 158.88 230.213 158.973 230.733 159.16C231.253 159.347 231.7 159.627 232.073 160C232.54 160.453 232.887 161.02 233.113 161.7C233.353 162.38 233.473 163.147 233.473 164C233.473 165.08 233.3 166.027 232.953 166.84C232.62 167.64 232.213 168.273 231.733 168.74C231.333 169.127 230.827 169.433 230.213 169.66C229.613 169.887 228.787 170 227.733 170H226.173ZM242.559 170V162.88C242.559 162.24 242.386 161.78 242.039 161.5C241.692 161.22 241.159 161.08 240.439 161.08C239.746 161.08 239.066 161.187 238.399 161.4C237.746 161.6 237.179 161.84 236.699 162.12V159.64C237.086 159.453 237.632 159.267 238.339 159.08C239.046 158.88 239.859 158.78 240.779 158.78C241.486 158.78 242.119 158.867 242.679 159.04C243.252 159.213 243.666 159.553 243.919 160.06C244.479 160.233 244.879 160.573 245.119 161.08C245.372 161.573 245.499 162.213 245.499 163V170H242.559ZM239.279 170.2C238.132 170.2 237.246 169.927 236.619 169.38C236.006 168.833 235.699 168.067 235.699 167.08C235.699 166.013 236.079 165.16 236.839 164.52C237.612 163.88 238.826 163.493 240.479 163.36L243.039 163.16V165.32L240.819 165.54C240.019 165.62 239.459 165.78 239.139 166.02C238.832 166.26 238.679 166.58 238.679 166.98C238.679 167.38 238.806 167.68 239.059 167.88C239.326 168.08 239.666 168.18 240.079 168.18C240.239 168.18 240.399 168.167 240.559 168.14C240.719 168.1 240.866 168.06 240.999 168.02L241.259 169.9C241.006 169.993 240.706 170.067 240.359 170.12C240.012 170.173 239.652 170.2 239.279 170.2ZM243.859 161.22L242.219 159.84C242.686 159.68 243.052 159.48 243.319 159.24C243.586 158.987 243.726 158.68 243.739 158.32H246.359C246.359 158.733 246.272 159.133 246.099 159.52C245.939 159.893 245.672 160.227 245.299 160.52C244.939 160.813 244.459 161.047 243.859 161.22ZM236.967 157.52V156.26L238.987 155.42H246.127V157.52H236.967ZM241.167 156.3V154.04H243.067V156.3H241.167ZM244.247 156.3V154.04H246.127V156.3H244.247ZM253.91 170.26C252.284 170.26 251.077 169.867 250.29 169.08C249.504 168.28 249.11 167.1 249.11 165.54C249.11 165.273 249.117 164.953 249.13 164.58C249.157 164.193 249.19 163.853 249.23 163.56H254.03V165.46H252.05V165.74C252.05 166.273 252.117 166.713 252.25 167.06C252.384 167.393 252.584 167.64 252.85 167.8C253.13 167.96 253.477 168.04 253.89 168.04C254.344 168.04 254.724 167.94 255.03 167.74C255.35 167.54 255.59 167.2 255.75 166.72C255.924 166.24 256.01 165.58 256.01 164.74C256.01 163.953 255.917 163.3 255.73 162.78C255.557 162.247 255.257 161.847 254.83 161.58C254.417 161.313 253.844 161.18 253.11 161.18C252.71 161.18 252.297 161.227 251.87 161.32C251.444 161.4 251.037 161.507 250.65 161.64C250.277 161.773 249.95 161.92 249.67 162.08V159.58C249.964 159.42 250.324 159.28 250.75 159.16C251.19 159.04 251.664 158.947 252.17 158.88C252.677 158.813 253.177 158.78 253.67 158.78C254.964 158.78 256.004 159.02 256.79 159.5C257.59 159.967 258.17 160.633 258.53 161.5C258.904 162.367 259.09 163.393 259.09 164.58C259.09 165.793 258.91 166.827 258.55 167.68C258.204 168.52 257.65 169.16 256.89 169.6C256.13 170.04 255.137 170.26 253.91 170.26ZM265.086 170.2C264.486 170.2 263.979 170.107 263.566 169.92C263.153 169.733 262.839 169.453 262.626 169.08C262.413 168.693 262.306 168.213 262.306 167.64V160.24C262.306 159.893 262.326 159.607 262.366 159.38C262.419 159.153 262.513 158.94 262.646 158.74C262.779 158.527 262.973 158.273 263.226 157.98C263.493 157.673 263.713 157.407 263.886 157.18C264.059 156.953 264.146 156.693 264.146 156.4C264.146 156.093 264.033 155.853 263.806 155.68C263.593 155.493 263.253 155.4 262.786 155.4C262.426 155.4 262.106 155.447 261.826 155.54C261.546 155.633 261.293 155.753 261.066 155.9V153.68C261.253 153.573 261.586 153.453 262.066 153.32C262.559 153.173 263.153 153.1 263.846 153.1C264.899 153.1 265.733 153.32 266.346 153.76C266.959 154.2 267.266 154.86 267.266 155.74C267.266 156.273 267.159 156.74 266.946 157.14C266.746 157.54 266.533 157.893 266.306 158.2C266.093 158.493 265.906 158.74 265.746 158.94C265.599 159.127 265.486 159.32 265.406 159.52C265.339 159.72 265.306 159.987 265.306 160.32V167.28C265.306 167.533 265.359 167.72 265.466 167.84C265.586 167.96 265.759 168.02 265.986 168.02C266.093 168.02 266.206 168.007 266.326 167.98C266.459 167.953 266.579 167.92 266.686 167.88L266.966 169.8C266.713 169.933 266.426 170.033 266.106 170.1C265.786 170.167 265.446 170.2 265.086 170.2ZM272.986 170.2C272.173 170.2 271.486 170.047 270.926 169.74C270.38 169.42 269.96 168.947 269.666 168.32C269.386 167.693 269.246 166.927 269.246 166.02V159.04H272.246V165.5C272.246 166.233 272.393 166.767 272.686 167.1C272.98 167.433 273.406 167.6 273.966 167.6C274.673 167.6 275.22 167.333 275.606 166.8C275.993 166.253 276.186 165.413 276.186 164.28V159.04H279.186V170H276.906L276.586 168.32H276.406C276.18 168.853 275.786 169.3 275.226 169.66C274.68 170.02 273.933 170.2 272.986 170.2ZM285.856 170.2C285.256 170.2 284.75 170.107 284.336 169.92C283.923 169.733 283.61 169.453 283.396 169.08C283.183 168.693 283.076 168.213 283.076 167.64V159.04H286.076V167.28C286.076 167.533 286.13 167.72 286.236 167.84C286.356 167.96 286.536 168.02 286.776 168.02C286.883 168.02 286.996 168.007 287.116 167.98C287.236 167.953 287.35 167.92 287.456 167.88L287.736 169.8C287.483 169.933 287.196 170.033 286.876 170.1C286.556 170.167 286.216 170.2 285.856 170.2ZM291.876 170.2C291.276 170.2 290.77 170.107 290.356 169.92C289.943 169.733 289.63 169.453 289.416 169.08C289.203 168.693 289.096 168.213 289.096 167.64V159.04H292.096V167.28C292.096 167.533 292.15 167.72 292.256 167.84C292.376 167.96 292.556 168.02 292.796 168.02C292.903 168.02 293.016 168.007 293.136 167.98C293.256 167.953 293.37 167.92 293.476 167.88L293.756 169.8C293.503 169.933 293.216 170.033 292.896 170.1C292.576 170.167 292.236 170.2 291.876 170.2ZM300.193 170.2C299.006 170.2 298.08 169.96 297.413 169.48C296.76 168.987 296.3 168.307 296.033 167.44C295.78 166.56 295.653 165.54 295.653 164.38C295.653 163.087 295.78 162.033 296.033 161.22C296.286 160.407 296.666 159.807 297.173 159.42C297.693 159.033 298.326 158.84 299.073 158.84C299.54 158.84 299.946 158.933 300.293 159.12C300.653 159.293 300.94 159.62 301.153 160.1H301.233C301.42 159.607 301.726 159.273 302.153 159.1C302.58 158.927 303.04 158.84 303.533 158.84C304.453 158.84 305.14 159.087 305.593 159.58C306.06 160.073 306.293 160.793 306.293 161.74V170H303.293V162.3C303.293 161.887 303.226 161.607 303.093 161.46C302.96 161.313 302.78 161.24 302.553 161.24C302.3 161.24 302.106 161.313 301.973 161.46C301.853 161.607 301.773 161.853 301.733 162.2H300.553C300.5 161.813 300.4 161.56 300.253 161.44C300.106 161.307 299.933 161.24 299.733 161.24C299.4 161.24 299.14 161.48 298.953 161.96C298.78 162.44 298.693 163.253 298.693 164.4C298.693 165.147 298.746 165.787 298.853 166.32C298.973 166.84 299.173 167.24 299.453 167.52C299.733 167.787 300.133 167.92 300.653 167.92C300.813 167.92 300.96 167.913 301.093 167.9C301.226 167.873 301.34 167.84 301.433 167.8L301.733 169.94C301.52 170.033 301.286 170.1 301.033 170.14C300.78 170.18 300.5 170.2 300.193 170.2ZM303.546 157.52V152.98H306.306V157.52H303.546ZM316.539 170V162.88C316.539 162.24 316.365 161.78 316.019 161.5C315.672 161.22 315.139 161.08 314.419 161.08C313.725 161.08 313.045 161.187 312.379 161.4C311.725 161.6 311.159 161.84 310.679 162.12V159.64C311.065 159.453 311.612 159.267 312.319 159.08C313.025 158.88 313.845 158.78 314.779 158.78C315.459 158.78 316.079 158.853 316.639 159C317.212 159.133 317.712 159.367 318.139 159.7C318.565 160.02 318.892 160.453 319.119 161C319.359 161.533 319.479 162.2 319.479 163V170H316.539ZM313.259 170.2C312.112 170.2 311.225 169.927 310.599 169.38C309.985 168.833 309.679 168.067 309.679 167.08C309.679 166.013 310.059 165.16 310.819 164.52C311.592 163.88 312.805 163.493 314.459 163.36L317.019 163.16V165.32L314.799 165.54C313.999 165.62 313.439 165.78 313.119 166.02C312.812 166.26 312.659 166.58 312.659 166.98C312.659 167.38 312.785 167.68 313.039 167.88C313.305 168.08 313.645 168.18 314.059 168.18C314.219 168.18 314.379 168.167 314.539 168.14C314.699 168.1 314.845 168.06 314.979 168.02L315.239 169.9C314.985 169.993 314.685 170.067 314.339 170.12C313.992 170.173 313.632 170.2 313.259 170.2ZM324.751 163.54C324.138 163.54 323.651 163.447 323.291 163.26C322.931 163.073 322.671 162.827 322.511 162.52C322.351 162.2 322.271 161.867 322.271 161.52C322.271 161.293 322.305 161.06 322.371 160.82C322.438 160.567 322.538 160.32 322.671 160.08L324.851 160.36C324.825 160.453 324.798 160.553 324.771 160.66C324.758 160.767 324.751 160.88 324.751 161C324.751 161.173 324.805 161.313 324.911 161.42C325.018 161.513 325.205 161.56 325.471 161.56H327.731V163.54H324.751ZM324.751 169.14C324.138 169.14 323.651 169.047 323.291 168.86C322.931 168.673 322.671 168.427 322.511 168.12C322.351 167.8 322.271 167.467 322.271 167.12C322.271 166.893 322.305 166.66 322.371 166.42C322.438 166.167 322.538 165.92 322.671 165.68L324.851 165.96C324.825 166.053 324.798 166.153 324.771 166.26C324.758 166.367 324.751 166.48 324.751 166.6C324.751 166.773 324.805 166.913 324.911 167.02C325.018 167.113 325.205 167.16 325.471 167.16H327.731V169.14H324.751ZM335.579 170.26C333.846 170.26 332.586 169.86 331.799 169.06C331.026 168.247 330.639 167.073 330.639 165.54V159.04H333.639V165.7C333.639 166.407 333.793 166.947 334.099 167.32C334.419 167.68 334.913 167.86 335.579 167.86C336.246 167.86 336.733 167.68 337.039 167.32C337.359 166.947 337.519 166.407 337.519 165.7V155.1H340.519V165.54C340.519 167.073 340.126 168.247 339.339 169.06C338.566 169.86 337.313 170.26 335.579 170.26ZM347.695 170.26C346.908 170.26 346.115 170.173 345.315 170C344.528 169.827 343.828 169.58 343.215 169.26L344.055 166.88C344.321 167.027 344.641 167.18 345.015 167.34C345.388 167.5 345.795 167.633 346.235 167.74C346.675 167.847 347.121 167.9 347.575 167.9C348.108 167.9 348.508 167.827 348.775 167.68C349.055 167.52 349.195 167.28 349.195 166.96C349.195 166.72 349.101 166.527 348.915 166.38C348.741 166.22 348.481 166.073 348.135 165.94C347.788 165.793 347.375 165.64 346.895 165.48C346.188 165.227 345.581 164.953 345.075 164.66C344.568 164.367 344.175 164.007 343.895 163.58C343.628 163.153 343.495 162.62 343.495 161.98C343.495 161.247 343.681 160.647 344.055 160.18C344.428 159.713 344.955 159.367 345.635 159.14C346.315 158.9 347.108 158.78 348.015 158.78C348.761 158.78 349.435 158.84 350.035 158.96C350.635 159.08 351.101 159.233 351.435 159.42V161.78C351.208 161.673 350.908 161.567 350.535 161.46C350.175 161.353 349.781 161.267 349.355 161.2C348.941 161.12 348.541 161.08 348.155 161.08C347.608 161.08 347.195 161.153 346.915 161.3C346.635 161.447 346.495 161.653 346.495 161.92C346.495 162.133 346.588 162.313 346.775 162.46C346.975 162.607 347.261 162.747 347.635 162.88C348.008 163 348.455 163.153 348.975 163.34C349.668 163.58 350.255 163.847 350.735 164.14C351.215 164.433 351.575 164.793 351.815 165.22C352.068 165.647 352.195 166.173 352.195 166.8C352.195 167.4 352.055 167.967 351.775 168.5C351.508 169.02 351.048 169.447 350.395 169.78C349.741 170.1 348.841 170.26 347.695 170.26ZM356.766 163.54C356.153 163.54 355.666 163.447 355.306 163.26C354.946 163.073 354.686 162.827 354.526 162.52C354.366 162.2 354.286 161.867 354.286 161.52C354.286 161.293 354.32 161.06 354.386 160.82C354.453 160.567 354.553 160.32 354.686 160.08L356.866 160.36C356.84 160.453 356.813 160.553 356.786 160.66C356.773 160.767 356.766 160.88 356.766 161C356.766 161.173 356.82 161.313 356.926 161.42C357.033 161.513 357.22 161.56 357.486 161.56H359.746V163.54H356.766ZM356.766 169.14C356.153 169.14 355.666 169.047 355.306 168.86C354.946 168.673 354.686 168.427 354.526 168.12C354.366 167.8 354.286 167.467 354.286 167.12C354.286 166.893 354.32 166.66 354.386 166.42C354.453 166.167 354.553 165.92 354.686 165.68L356.866 165.96C356.84 166.053 356.813 166.153 356.786 166.26C356.773 166.367 356.766 166.48 356.766 166.6C356.766 166.773 356.82 166.913 356.926 167.02C357.033 167.113 357.22 167.16 357.486 167.16H359.746V169.14H356.766ZM365.734 170.2C365.134 170.2 364.628 170.107 364.214 169.92C363.801 169.733 363.488 169.453 363.274 169.08C363.061 168.693 362.954 168.213 362.954 167.64V159.04H365.954V167.28C365.954 167.533 366.008 167.72 366.114 167.84C366.234 167.96 366.414 168.02 366.654 168.02C366.761 168.02 366.874 168.007 366.994 167.98C367.114 167.953 367.228 167.92 367.334 167.88L367.614 169.8C367.361 169.933 367.074 170.033 366.754 170.1C366.434 170.167 366.094 170.2 365.734 170.2ZM370.951 170.2C370.577 170.2 370.237 170.16 369.931 170.08C369.624 170.013 369.351 169.913 369.111 169.78L369.391 168.12C369.484 168.147 369.571 168.167 369.651 168.18C369.744 168.193 369.831 168.2 369.911 168.2C370.137 168.2 370.297 168.147 370.391 168.04C370.497 167.92 370.551 167.74 370.551 167.5V166.04C370.551 165.387 370.684 164.88 370.951 164.52C371.217 164.147 371.624 163.893 372.171 163.76L372.191 163.68L370.011 162.9V162.38C370.011 161.727 370.197 161.127 370.571 160.58C370.944 160.033 371.504 159.6 372.251 159.28C372.997 158.947 373.917 158.78 375.011 158.78C376.037 158.78 376.924 158.94 377.671 159.26C378.417 159.567 378.991 160.033 379.391 160.66C379.804 161.273 380.011 162.053 380.011 163V170H377.011V163.18C377.011 162.513 376.831 162.013 376.471 161.68C376.124 161.347 375.624 161.18 374.971 161.18C374.357 161.18 373.897 161.313 373.591 161.58C373.284 161.833 373.117 162.147 373.091 162.52L374.831 163.3L374.611 164.6C374.237 164.6 373.951 164.727 373.751 164.98C373.564 165.22 373.471 165.613 373.471 166.16V167.84C373.471 168.693 373.231 169.3 372.751 169.66C372.284 170.02 371.684 170.2 370.951 170.2ZM383.545 170V159.04H385.745L386.145 160.76H386.305C386.532 160.213 386.925 159.76 387.485 159.4C388.045 159.027 388.772 158.84 389.665 158.84C390.518 158.84 391.225 158.993 391.785 159.3C392.345 159.593 392.765 160.047 393.045 160.66C393.338 161.26 393.485 162.02 393.485 162.94V170H390.485V163.54C390.485 162.793 390.332 162.26 390.025 161.94C389.732 161.607 389.298 161.44 388.725 161.44C388.258 161.44 387.858 161.567 387.525 161.82C387.205 162.073 386.958 162.447 386.785 162.94C386.625 163.42 386.545 164.027 386.545 164.76V170H383.545ZM155.714 214.26C154.088 214.26 152.881 213.867 152.094 213.08C151.308 212.28 150.914 211.1 150.914 209.54C150.914 209.273 150.921 208.953 150.934 208.58C150.961 208.193 150.994 207.853 151.034 207.56H155.834V209.46H153.854V209.74C153.854 210.273 153.921 210.713 154.054 211.06C154.188 211.393 154.388 211.64 154.654 211.8C154.934 211.96 155.281 212.04 155.694 212.04C156.148 212.04 156.528 211.94 156.834 211.74C157.154 211.54 157.394 211.2 157.554 210.72C157.728 210.24 157.814 209.58 157.814 208.74C157.814 207.953 157.721 207.3 157.534 206.78C157.361 206.247 157.061 205.847 156.634 205.58C156.221 205.313 155.648 205.18 154.914 205.18C154.514 205.18 154.101 205.227 153.674 205.32C153.248 205.4 152.841 205.507 152.454 205.64C152.081 205.773 151.754 205.92 151.474 206.08V203.58C151.768 203.42 152.128 203.28 152.554 203.16C152.994 203.04 153.468 202.947 153.974 202.88C154.481 202.813 154.981 202.78 155.474 202.78C156.768 202.78 157.808 203.02 158.594 203.5C159.394 203.967 159.974 204.633 160.334 205.5C160.708 206.367 160.894 207.393 160.894 208.58C160.894 209.793 160.714 210.827 160.354 211.68C160.008 212.52 159.454 213.16 158.694 213.6C157.934 214.04 156.941 214.26 155.714 214.26ZM168.17 214.26C166.543 214.26 165.336 213.867 164.55 213.08C163.763 212.28 163.37 211.1 163.37 209.54C163.37 209.273 163.376 208.953 163.39 208.58C163.416 208.193 163.45 207.853 163.49 207.56H168.29V209.46H166.31V209.74C166.31 210.273 166.376 210.713 166.51 211.06C166.643 211.393 166.843 211.64 167.11 211.8C167.39 211.96 167.736 212.04 168.15 212.04C168.603 212.04 168.983 211.94 169.29 211.74C169.61 211.54 169.85 211.2 170.01 210.72C170.183 210.24 170.27 209.58 170.27 208.74C170.27 207.953 170.176 207.3 169.99 206.78C169.816 206.247 169.516 205.847 169.09 205.58C168.676 205.313 168.103 205.18 167.37 205.18C166.97 205.18 166.556 205.227 166.13 205.32C165.703 205.4 165.296 205.507 164.91 205.64C164.536 205.773 164.21 205.92 163.93 206.08V203.58C164.223 203.42 164.583 203.28 165.01 203.16C165.45 203.04 165.923 202.947 166.43 202.88C166.936 202.813 167.436 202.78 167.93 202.78C169.223 202.78 170.263 203.02 171.05 203.5C171.85 203.967 172.43 204.633 172.79 205.5C173.163 206.367 173.35 207.393 173.35 208.58C173.35 209.793 173.17 210.827 172.81 211.68C172.463 212.52 171.91 213.16 171.15 213.6C170.39 214.04 169.396 214.26 168.17 214.26ZM176.165 214V210.66C176.165 209.82 176.332 209.173 176.665 208.72C176.999 208.267 177.472 207.947 178.085 207.76L178.105 207.68L175.965 206.9V206.38C175.965 205.727 176.159 205.127 176.545 204.58C176.932 204.033 177.499 203.6 178.245 203.28C179.005 202.947 179.925 202.78 181.005 202.78C182.019 202.78 182.892 202.94 183.625 203.26C184.359 203.567 184.925 204.033 185.325 204.66C185.739 205.273 185.945 206.053 185.945 207V214H182.945V207.18C182.945 206.513 182.765 206.013 182.405 205.68C182.059 205.347 181.565 205.18 180.925 205.18C180.312 205.18 179.852 205.313 179.545 205.58C179.239 205.833 179.072 206.147 179.045 206.52L180.825 207.34L180.605 208.64C180.125 208.667 179.765 208.84 179.525 209.16C179.285 209.48 179.165 209.913 179.165 210.46V214H176.165ZM192.426 214.2C191.826 214.2 191.319 214.107 190.906 213.92C190.492 213.733 190.179 213.453 189.966 213.08C189.752 212.693 189.646 212.213 189.646 211.64V203.04H192.646V211.28C192.646 211.533 192.699 211.72 192.806 211.84C192.926 211.96 193.106 212.02 193.346 212.02C193.452 212.02 193.566 212.007 193.686 211.98C193.806 211.953 193.919 211.92 194.026 211.88L194.306 213.8C194.052 213.933 193.766 214.033 193.446 214.1C193.126 214.167 192.786 214.2 192.426 214.2ZM201.565 214.26C199.832 214.26 198.572 213.86 197.785 213.06C197.012 212.247 196.625 211.073 196.625 209.54V203.04H199.625V209.7C199.625 210.407 199.779 210.947 200.085 211.32C200.405 211.68 200.899 211.86 201.565 211.86C202.232 211.86 202.719 211.68 203.025 211.32C203.345 210.947 203.505 210.407 203.505 209.7V199.1H206.505V209.54C206.505 211.073 206.112 212.247 205.325 213.06C204.552 213.86 203.299 214.26 201.565 214.26ZM201.4 201.7C201.04 201.7 200.733 201.627 200.48 201.48C200.213 201.333 200 201.107 199.84 200.8L199.06 201.64C198.286 201.64 197.673 201.44 197.22 201.04C196.766 200.627 196.54 200.033 196.54 199.26C196.54 198.447 196.766 197.847 197.22 197.46C197.673 197.06 198.186 196.86 198.76 196.86H203.2V198.32H199.22C198.993 198.32 198.8 198.4 198.64 198.56C198.48 198.72 198.4 198.967 198.4 199.3C198.4 199.54 198.453 199.74 198.56 199.9C198.653 200.06 198.806 200.14 199.02 200.14L199.76 199.28H200.18C200.193 199.56 200.26 199.787 200.38 199.96C200.486 200.12 200.646 200.2 200.86 200.2C201.033 200.2 201.173 200.14 201.28 200.02C201.373 199.887 201.42 199.713 201.42 199.5V199.2H203.22V199.6C203.22 200.32 203.053 200.853 202.72 201.2C202.386 201.533 201.946 201.7 201.4 201.7ZM214.261 214.2C213.447 214.2 212.761 214.047 212.201 213.74C211.654 213.42 211.234 212.947 210.941 212.32C210.661 211.693 210.521 210.927 210.521 210.02V203.04H213.521V209.5C213.521 210.233 213.667 210.767 213.961 211.1C214.254 211.433 214.681 211.6 215.241 211.6C215.947 211.6 216.494 211.333 216.881 210.8C217.267 210.253 217.461 209.413 217.461 208.28V203.04H220.461V214H218.181L217.861 212.32H217.681C217.454 212.853 217.061 213.3 216.501 213.66C215.954 214.02 215.207 214.2 214.261 214.2ZM228.838 211.443V209.021L234.911 199.455H236.999V202.807H235.763L231.935 208.865V208.979H240.564V211.443H228.838ZM235.82 214V210.705L235.876 209.632V199.455H238.76V214H235.82ZM248.563 214V210.66C248.563 209.82 248.73 209.173 249.063 208.72C249.396 208.267 249.87 207.947 250.483 207.76L250.503 207.68L248.363 206.9V206.38C248.363 205.727 248.556 205.127 248.943 204.58C249.33 204.033 249.896 203.6 250.643 203.28C251.403 202.947 252.323 202.78 253.403 202.78C254.416 202.78 255.29 202.94 256.023 203.26C256.756 203.567 257.323 204.033 257.723 204.66C258.136 205.273 258.343 206.053 258.343 207V214H255.343V207.18C255.343 206.513 255.163 206.013 254.803 205.68C254.456 205.347 253.963 205.18 253.323 205.18C252.71 205.18 252.25 205.313 251.943 205.58C251.636 205.833 251.47 206.147 251.443 206.52L253.223 207.34L253.003 208.64C252.523 208.667 252.163 208.84 251.923 209.16C251.683 209.48 251.563 209.913 251.563 210.46V214H248.563ZM267.983 214V206.88C267.983 206.24 267.81 205.78 267.463 205.5C267.117 205.22 266.583 205.08 265.863 205.08C265.17 205.08 264.49 205.187 263.823 205.4C263.17 205.6 262.603 205.84 262.123 206.12V203.64C262.51 203.453 263.057 203.267 263.763 203.08C264.47 202.88 265.29 202.78 266.223 202.78C266.903 202.78 267.523 202.853 268.083 203C268.657 203.133 269.157 203.367 269.583 203.7C270.01 204.02 270.337 204.453 270.563 205C270.803 205.533 270.923 206.2 270.923 207V214H267.983ZM264.703 214.2C263.557 214.2 262.67 213.927 262.043 213.38C261.43 212.833 261.123 212.067 261.123 211.08C261.123 210.013 261.503 209.16 262.263 208.52C263.037 207.88 264.25 207.493 265.903 207.36L268.463 207.16V209.32L266.243 209.54C265.443 209.62 264.883 209.78 264.563 210.02C264.257 210.26 264.103 210.58 264.103 210.98C264.103 211.38 264.23 211.68 264.483 211.88C264.75 212.08 265.09 212.18 265.503 212.18C265.663 212.18 265.823 212.167 265.983 212.14C266.143 212.1 266.29 212.06 266.423 212.02L266.683 213.9C266.43 213.993 266.13 214.067 265.783 214.12C265.437 214.173 265.077 214.2 264.703 214.2ZM268.971 219.22V217.44C268.971 217.107 268.825 216.94 268.531 216.94C268.465 216.94 268.398 216.947 268.331 216.96C268.265 216.973 268.198 216.993 268.131 217.02L267.991 215.58C268.178 215.513 268.438 215.447 268.771 215.38C269.091 215.313 269.418 215.28 269.751 215.28C270.405 215.28 270.865 215.407 271.131 215.66C271.398 215.927 271.531 216.287 271.531 216.74V219.22H268.971ZM269.056 201.52V196.98H271.816V201.52H269.056ZM281.976 214.2C281.029 214.2 280.263 214.02 279.676 213.66C279.103 213.3 278.696 212.84 278.456 212.28H278.296L277.976 214H275.696V203.04H278.696V208.28C278.696 209.04 278.783 209.667 278.956 210.16C279.129 210.64 279.383 211 279.716 211.24C280.049 211.48 280.449 211.6 280.916 211.6C281.476 211.6 281.903 211.433 282.196 211.1C282.489 210.767 282.636 210.233 282.636 209.5V203.04H285.636V210.16C285.636 211.027 285.496 211.76 285.216 212.36C284.949 212.96 284.543 213.42 283.996 213.74C283.449 214.047 282.776 214.2 281.976 214.2Z" fill="#252525"/>
<path d="M135 276C135 270.477 139.477 266 145 266H218V349H135V276Z" fill="#FEB800"/>
<path d="M135 349H218V432H145C139.477 432 135 427.523 135 422V349Z" fill="#7EB900"/>
<path d="M218 266H291C296.523 266 301 270.477 301 276V349H218V266Z" fill="#00A3EE"/>
<path d="M218 349H301V422C301 427.523 296.523 432 291 432H218V349Z" fill="#F14F21"/>
<path d="M218 250V447" stroke="black" stroke-width="3" stroke-linecap="round"/>
<path d="M120 349H317" stroke="black" stroke-width="3" stroke-linecap="round"/>
<defs>
<filter id="filter0_d_899_3134" x="0" y="0" width="437" height="599" filterUnits="userSpaceOnUse" color-interpolation-filters="sRGB">
<feFlood flood-opacity="0" result="BackgroundImageFix"/>
<feColorMatrix in="SourceAlpha" type="matrix" values="0 0 0 0 0 0 0 0 0 0 0 0 0 0 0 0 0 0 127 0" result="hardAlpha"/>
<feOffset dy="4"/>
<feGaussianBlur stdDeviation="10"/>
<feComposite in2="hardAlpha" operator="out"/>
<feColorMatrix type="matrix" values="0 0 0 0 0 0 0 0 0 0 0 0 0 0 0 0 0 0 0.25 0"/>
<feBlend mode="normal" in2="BackgroundImageFix" result="effect1_dropShadow_899_3134"/>
<feBlend mode="normal" in="SourceGraphic" in2="effect1_dropShadow_899_3134" result="shape"/>
</filter>
</defs>
</svg>
