<svg width="437" height="599" viewBox="0 0 437 599" fill="none" xmlns="http://www.w3.org/2000/svg">
<g filter="url(#filter0_d_906_3735)">
<rect x="20" y="16" width="397" height="559" rx="55" fill="#FBFBFB"/>
</g>
<path d="M121.877 113V108.992C121.877 107.984 122.077 107.208 122.477 106.664C122.877 106.12 123.445 105.736 124.181 105.512L124.205 105.416L121.637 104.48V103.856C121.637 103.072 121.869 102.352 122.333 101.696C122.797 101.04 123.477 100.52 124.373 100.136C125.285 99.736 126.389 99.536 127.685 99.536C128.901 99.536 129.949 99.728 130.829 100.112C131.709 100.48 132.389 101.04 132.869 101.792C133.365 102.528 133.613 103.464 133.613 104.6V113H130.013V104.816C130.013 104.016 129.797 103.416 129.365 103.016C128.949 102.616 128.357 102.416 127.589 102.416C126.853 102.416 126.301 102.576 125.933 102.896C125.565 103.2 125.365 103.576 125.333 104.024L127.469 105.008L127.205 106.568C126.629 106.6 126.197 106.808 125.909 107.192C125.621 107.576 125.477 108.096 125.477 108.752V113H121.877ZM141.174 113V104.312C141.174 103.64 141.014 103.152 140.694 102.848C140.39 102.544 139.886 102.392 139.182 102.392C138.654 102.392 138.166 102.464 137.718 102.608C137.286 102.752 136.878 102.928 136.494 103.136V100.256C136.846 100.096 137.342 99.936 137.982 99.776C138.622 99.616 139.374 99.536 140.238 99.536C141.118 99.536 141.894 99.664 142.566 99.92C143.254 100.176 143.79 100.608 144.174 101.216C144.574 101.808 144.774 102.624 144.774 103.664V113H141.174ZM153.356 113.312C152.412 113.312 151.46 113.208 150.5 113C149.556 112.792 148.716 112.496 147.98 112.112L148.988 109.256C149.308 109.432 149.692 109.616 150.14 109.808C150.588 110 151.076 110.16 151.604 110.288C152.132 110.416 152.668 110.48 153.212 110.48C153.852 110.48 154.332 110.392 154.652 110.216C154.988 110.024 155.156 109.736 155.156 109.352C155.156 109.064 155.044 108.832 154.82 108.656C154.612 108.464 154.3 108.288 153.884 108.128C153.468 107.952 152.972 107.768 152.396 107.576C151.548 107.272 150.82 106.944 150.212 106.592C149.604 106.24 149.132 105.808 148.796 105.296C148.476 104.784 148.316 104.144 148.316 103.376C148.316 102.496 148.54 101.776 148.988 101.216C149.436 100.656 150.068 100.24 150.884 99.968C151.7 99.68 152.652 99.536 153.74 99.536C154.636 99.536 155.444 99.608 156.164 99.752C156.884 99.896 157.444 100.08 157.844 100.304V103.136C157.572 103.008 157.212 102.88 156.764 102.752C156.332 102.624 155.86 102.52 155.348 102.44C154.852 102.344 154.372 102.296 153.908 102.296C153.252 102.296 152.756 102.384 152.42 102.56C152.084 102.736 151.916 102.984 151.916 103.304C151.916 103.56 152.028 103.776 152.252 103.952C152.492 104.128 152.836 104.296 153.284 104.456C153.732 104.6 154.268 104.784 154.892 105.008C155.724 105.296 156.428 105.616 157.004 105.968C157.58 106.32 158.012 106.752 158.3 107.264C158.604 107.776 158.756 108.408 158.756 109.16C158.756 109.88 158.588 110.56 158.252 111.2C157.932 111.824 157.38 112.336 156.596 112.736C155.812 113.12 154.732 113.312 153.356 113.312ZM163.066 113V107.48H161.698V105.272H166.306V110.264H166.474C167.002 110.264 167.45 110.12 167.818 109.832C168.202 109.544 168.49 109.12 168.682 108.56C168.874 107.984 168.97 107.264 168.97 106.4C168.97 105.408 168.826 104.624 168.538 104.048C168.266 103.456 167.858 103.032 167.314 102.776C166.77 102.52 166.098 102.392 165.298 102.392C164.466 102.392 163.714 102.512 163.042 102.752C162.37 102.976 161.77 103.248 161.242 103.568V100.568C161.77 100.296 162.434 100.056 163.234 99.848C164.034 99.64 164.954 99.536 165.994 99.536C167.546 99.536 168.802 99.784 169.762 100.28C170.738 100.776 171.458 101.528 171.922 102.536C172.386 103.544 172.618 104.808 172.618 106.328C172.618 107.752 172.402 108.968 171.97 109.976C171.554 110.968 170.866 111.72 169.906 112.232C168.962 112.744 167.698 113 166.114 113H163.066ZM169.196 98.024C168.444 98.024 167.852 97.912 167.42 97.688C166.988 97.464 166.684 97.184 166.508 96.848C166.316 96.496 166.22 96.128 166.22 95.744C166.22 95.472 166.26 95.184 166.34 94.88C166.42 94.56 166.54 94.264 166.7 93.992L169.316 94.328C169.284 94.44 169.26 94.56 169.244 94.688C169.212 94.8 169.196 94.904 169.196 95C169.196 95.224 169.268 95.4 169.412 95.528C169.54 95.64 169.764 95.696 170.084 95.696H175.244V98.024H169.196ZM181.56 113.24C180.264 113.24 179.232 112.96 178.464 112.4C177.696 111.824 177.144 111.04 176.808 110.048C176.472 109.04 176.304 107.888 176.304 106.592C176.304 105.2 176.456 104.048 176.76 103.136C177.08 102.208 177.528 101.488 178.104 100.976C178.68 100.448 179.36 100.08 180.144 99.872C180.944 99.648 181.816 99.536 182.76 99.536C184.2 99.536 185.352 99.736 186.216 100.136C187.08 100.536 187.704 101.104 188.088 101.84C188.488 102.576 188.688 103.44 188.688 104.432V113H185.088V104.72C185.088 103.968 184.904 103.4 184.536 103.016C184.184 102.616 183.592 102.416 182.76 102.416C182.2 102.416 181.704 102.536 181.272 102.776C180.856 103 180.528 103.408 180.288 104C180.064 104.592 179.952 105.44 179.952 106.544C179.952 107.296 180.024 107.96 180.168 108.536C180.312 109.112 180.544 109.56 180.864 109.88C181.2 110.2 181.648 110.36 182.208 110.36C182.384 110.36 182.552 110.352 182.712 110.336C182.888 110.304 183.04 110.272 183.168 110.24L183.504 112.928C183.248 113.04 182.936 113.12 182.568 113.168C182.216 113.216 181.88 113.24 181.56 113.24ZM192.643 113V108.992C192.643 107.984 192.843 107.208 193.243 106.664C193.643 106.12 194.211 105.736 194.947 105.512L194.971 105.416L192.403 104.48V103.856C192.403 103.072 192.635 102.352 193.099 101.696C193.563 101.04 194.243 100.52 195.139 100.136C196.051 99.736 197.155 99.536 198.451 99.536C199.667 99.536 200.715 99.728 201.595 100.112C202.475 100.48 203.155 101.04 203.635 101.792C204.131 102.528 204.379 103.464 204.379 104.6V113H200.779V104.816C200.779 104.016 200.563 103.416 200.131 103.016C199.715 102.616 199.123 102.416 198.355 102.416C197.619 102.416 197.067 102.576 196.699 102.896C196.331 103.2 196.131 103.576 196.099 104.024L198.235 105.008L197.971 106.568C197.395 106.6 196.963 106.808 196.675 107.192C196.387 107.576 196.243 108.096 196.243 108.752V113H192.643ZM215.947 113V104.456C215.947 103.688 215.739 103.136 215.323 102.8C214.907 102.464 214.267 102.296 213.403 102.296C212.571 102.296 211.755 102.424 210.955 102.68C210.171 102.92 209.491 103.208 208.915 103.544V100.568C209.379 100.344 210.035 100.12 210.883 99.896C211.731 99.656 212.715 99.536 213.835 99.536C214.651 99.536 215.395 99.624 216.067 99.8C216.755 99.96 217.355 100.24 217.867 100.64C218.379 101.024 218.771 101.544 219.043 102.2C219.331 102.84 219.475 103.64 219.475 104.6V113H215.947ZM212.011 113.24C210.635 113.24 209.571 112.912 208.819 112.256C208.083 111.6 207.715 110.68 207.715 109.496C207.715 108.216 208.171 107.192 209.083 106.424C210.011 105.656 211.467 105.192 213.451 105.032L216.523 104.792V107.384L213.859 107.648C212.899 107.744 212.227 107.936 211.843 108.224C211.475 108.512 211.291 108.896 211.291 109.376C211.291 109.856 211.443 110.216 211.747 110.456C212.067 110.696 212.475 110.816 212.971 110.816C213.163 110.816 213.355 110.8 213.547 110.768C213.739 110.72 213.915 110.672 214.075 110.624L214.387 112.88C214.083 112.992 213.723 113.08 213.307 113.144C212.891 113.208 212.459 113.24 212.011 113.24ZM217.133 119.264V117.128C217.133 116.728 216.957 116.528 216.605 116.528C216.525 116.528 216.445 116.536 216.365 116.552C216.285 116.568 216.205 116.592 216.125 116.624L215.957 114.896C216.181 114.816 216.493 114.736 216.893 114.656C217.277 114.576 217.669 114.536 218.069 114.536C218.853 114.536 219.405 114.688 219.725 114.992C220.045 115.312 220.205 115.744 220.205 116.288V119.264H217.133ZM217.235 98.024V92.576H220.547V98.024H217.235ZM232.739 113.24C231.603 113.24 230.683 113.024 229.979 112.592C229.291 112.16 228.803 111.608 228.515 110.936H228.323L227.939 113H225.203V99.848H228.803V106.136C228.803 107.048 228.907 107.8 229.115 108.392C229.323 108.968 229.627 109.4 230.027 109.688C230.427 109.976 230.907 110.12 231.467 110.12C232.139 110.12 232.651 109.92 233.003 109.52C233.355 109.12 233.531 108.48 233.531 107.6V99.848H237.131V108.392C237.131 109.432 236.963 110.312 236.627 111.032C236.307 111.752 235.819 112.304 235.163 112.688C234.507 113.056 233.699 113.24 232.739 113.24ZM241.438 113V99.848H244.99V104.768H245.086L249.166 99.848H253.126V99.968L244.99 108.992V113H241.438ZM249.478 113V108.656C249.478 107.808 249.23 107.2 248.734 106.832C248.254 106.448 247.55 106.256 246.622 106.256L248.734 103.76C249.694 103.76 250.494 103.952 251.134 104.336C251.774 104.72 252.254 105.24 252.574 105.896C252.91 106.536 253.078 107.272 253.078 108.104V113H249.478ZM261.36 113.24C260.384 113.24 259.56 113.056 258.888 112.688C258.232 112.304 257.728 111.736 257.376 110.984C257.04 110.232 256.872 109.312 256.872 108.224V99.848H260.472V107.6C260.472 108.48 260.648 109.12 261 109.52C261.352 109.92 261.864 110.12 262.536 110.12C263.384 110.12 264.04 109.8 264.504 109.16C264.968 108.504 265.2 107.496 265.2 106.136V99.848H268.8V113H266.064L265.68 110.984H265.464C265.192 111.624 264.72 112.16 264.048 112.592C263.392 113.024 262.496 113.24 261.36 113.24ZM266.027 98.024C265.275 98.024 264.683 97.912 264.251 97.688C263.819 97.464 263.515 97.184 263.339 96.848C263.147 96.496 263.051 96.128 263.051 95.744C263.051 95.472 263.091 95.184 263.171 94.88C263.251 94.56 263.371 94.264 263.531 93.992L266.147 94.328C266.115 94.44 266.091 94.56 266.075 94.688C266.043 94.8 266.027 94.904 266.027 95C266.027 95.224 266.099 95.4 266.243 95.528C266.371 95.64 266.595 95.696 266.915 95.696H272.075V98.024H266.027ZM276.083 113L272.267 99.848H275.891L278.795 110.096H278.939C279.195 110.096 279.435 110.024 279.659 109.88C279.883 109.736 280.075 109.544 280.235 109.304C280.555 108.856 280.795 108.328 280.955 107.72C281.115 107.096 281.195 106.48 281.195 105.872C281.195 104.8 280.987 103.976 280.571 103.4C280.171 102.824 279.611 102.536 278.891 102.536C278.747 102.536 278.611 102.544 278.483 102.56C278.371 102.576 278.267 102.608 278.171 102.656L277.499 99.896C277.867 99.784 278.211 99.72 278.531 99.704C278.867 99.672 279.139 99.656 279.347 99.656C280.195 99.656 280.931 99.768 281.555 99.992C282.179 100.216 282.715 100.552 283.163 101C283.723 101.544 284.139 102.224 284.411 103.04C284.699 103.856 284.843 104.776 284.843 105.8C284.843 107.096 284.635 108.232 284.219 109.208C283.819 110.168 283.331 110.928 282.755 111.488C282.275 111.952 281.667 112.32 280.931 112.592C280.211 112.864 279.219 113 277.955 113H276.083ZM295.746 113V104.456C295.746 103.688 295.538 103.136 295.122 102.8C294.706 102.464 294.066 102.296 293.202 102.296C292.37 102.296 291.554 102.424 290.754 102.68C289.97 102.92 289.29 103.208 288.714 103.544V100.568C289.178 100.344 289.834 100.12 290.682 99.896C291.53 99.656 292.506 99.536 293.61 99.536C294.458 99.536 295.218 99.64 295.89 99.848C296.578 100.056 297.074 100.464 297.378 101.072C298.05 101.28 298.53 101.688 298.818 102.296C299.122 102.888 299.274 103.656 299.274 104.6V113H295.746ZM291.81 113.24C290.434 113.24 289.37 112.912 288.618 112.256C287.882 111.6 287.514 110.68 287.514 109.496C287.514 108.216 287.97 107.192 288.882 106.424C289.81 105.656 291.266 105.192 293.25 105.032L296.322 104.792V107.384L293.658 107.648C292.698 107.744 292.026 107.936 291.642 108.224C291.274 108.512 291.09 108.896 291.09 109.376C291.09 109.856 291.242 110.216 291.546 110.456C291.866 110.696 292.274 110.816 292.77 110.816C292.962 110.816 293.154 110.8 293.346 110.768C293.538 110.72 293.714 110.672 293.874 110.624L294.186 112.88C293.882 112.992 293.522 113.08 293.106 113.144C292.69 113.208 292.258 113.24 291.81 113.24ZM297.306 102.464L295.338 100.808C295.898 100.616 296.338 100.376 296.658 100.088C296.978 99.784 297.146 99.416 297.162 98.984H300.306C300.306 99.48 300.202 99.96 299.994 100.424C299.802 100.872 299.482 101.272 299.034 101.624C298.602 101.976 298.026 102.256 297.306 102.464ZM289.036 98.024V96.512L291.46 95.504H300.028V98.024H289.036ZM294.076 96.56V93.848H296.356V96.56H294.076ZM297.772 96.56V93.848H300.028V96.56H297.772ZM309.368 113.312C307.416 113.312 305.968 112.84 305.024 111.896C304.08 110.936 303.608 109.52 303.608 107.648C303.608 107.328 303.616 106.944 303.632 106.496C303.664 106.032 303.704 105.624 303.752 105.272H309.512V107.552H307.136V107.888C307.136 108.528 307.216 109.056 307.376 109.472C307.536 109.872 307.776 110.168 308.096 110.36C308.432 110.552 308.848 110.648 309.344 110.648C309.888 110.648 310.344 110.528 310.712 110.288C311.096 110.048 311.384 109.64 311.576 109.064C311.784 108.488 311.888 107.696 311.888 106.688C311.888 105.744 311.776 104.96 311.552 104.336C311.344 103.696 310.984 103.216 310.472 102.896C309.976 102.576 309.288 102.416 308.408 102.416C307.928 102.416 307.432 102.472 306.92 102.584C306.408 102.68 305.92 102.808 305.456 102.968C305.008 103.128 304.616 103.304 304.28 103.496V100.496C304.632 100.304 305.064 100.136 305.576 99.992C306.104 99.848 306.672 99.736 307.28 99.656C307.888 99.576 308.488 99.536 309.08 99.536C310.632 99.536 311.88 99.824 312.824 100.4C313.784 100.96 314.48 101.76 314.912 102.8C315.36 103.84 315.584 105.072 315.584 106.496C315.584 107.952 315.368 109.192 314.936 110.216C314.52 111.224 313.856 111.992 312.944 112.52C312.032 113.048 310.84 113.312 309.368 113.312Z" fill="#252525"/>
<path d="M140.642 171V163.88C140.642 163.24 140.469 162.78 140.122 162.5C139.776 162.22 139.242 162.08 138.522 162.08C137.829 162.08 137.149 162.187 136.482 162.4C135.829 162.6 135.262 162.84 134.782 163.12V160.64C135.169 160.453 135.716 160.267 136.422 160.08C137.129 159.88 137.942 159.78 138.862 159.78C139.569 159.78 140.202 159.867 140.762 160.04C141.336 160.213 141.749 160.553 142.002 161.06C142.562 161.233 142.962 161.573 143.202 162.08C143.456 162.573 143.582 163.213 143.582 164V171H140.642ZM137.362 171.2C136.216 171.2 135.329 170.927 134.702 170.38C134.089 169.833 133.782 169.067 133.782 168.08C133.782 167.013 134.162 166.16 134.922 165.52C135.696 164.88 136.909 164.493 138.562 164.36L141.122 164.16V166.32L138.902 166.54C138.102 166.62 137.542 166.78 137.222 167.02C136.916 167.26 136.762 167.58 136.762 167.98C136.762 168.38 136.889 168.68 137.142 168.88C137.409 169.08 137.749 169.18 138.162 169.18C138.322 169.18 138.482 169.167 138.642 169.14C138.802 169.1 138.949 169.06 139.082 169.02L139.342 170.9C139.089 170.993 138.789 171.067 138.442 171.12C138.096 171.173 137.736 171.2 137.362 171.2ZM141.942 162.22L140.302 160.84C140.769 160.68 141.136 160.48 141.402 160.24C141.669 159.987 141.809 159.68 141.822 159.32H144.442C144.442 159.733 144.356 160.133 144.182 160.52C144.022 160.893 143.756 161.227 143.382 161.52C143.022 161.813 142.542 162.047 141.942 162.22ZM142.15 158.96C141.39 158.96 140.784 158.787 140.33 158.44C139.877 158.093 139.65 157.607 139.65 156.98C139.65 156.353 139.877 155.867 140.33 155.52C140.784 155.173 141.39 155 142.15 155C142.91 155 143.524 155.173 143.99 155.52C144.444 155.867 144.67 156.353 144.67 156.98C144.67 157.607 144.444 158.093 143.99 158.44C143.524 158.787 142.91 158.96 142.15 158.96ZM142.15 157.8C142.444 157.8 142.67 157.727 142.83 157.58C142.99 157.433 143.07 157.233 143.07 156.98C143.07 156.727 142.99 156.527 142.83 156.38C142.67 156.233 142.444 156.16 142.15 156.16C141.87 156.16 141.65 156.233 141.49 156.38C141.33 156.527 141.25 156.727 141.25 156.98C141.25 157.233 141.33 157.433 141.49 157.58C141.65 157.727 141.87 157.8 142.15 157.8ZM150.534 171V163.76C150.534 163.2 150.4 162.793 150.134 162.54C149.88 162.287 149.46 162.16 148.874 162.16C148.434 162.16 148.027 162.22 147.654 162.34C147.294 162.46 146.954 162.607 146.634 162.78V160.38C146.927 160.247 147.34 160.113 147.874 159.98C148.407 159.847 149.034 159.78 149.754 159.78C150.487 159.78 151.134 159.887 151.694 160.1C152.267 160.313 152.714 160.673 153.034 161.18C153.367 161.673 153.534 162.353 153.534 163.22V171H150.534ZM157.105 171V160.04H160.065V164.14H160.145L163.545 160.04H166.845V160.14L160.065 167.66V171H157.105ZM163.805 171V167.38C163.805 166.673 163.598 166.167 163.185 165.86C162.785 165.54 162.198 165.38 161.425 165.38L163.185 163.3C163.985 163.3 164.652 163.46 165.185 163.78C165.718 164.1 166.118 164.533 166.385 165.08C166.665 165.613 166.805 166.227 166.805 166.92V171H163.805ZM173.726 171.26C172.94 171.26 172.146 171.173 171.346 171C170.56 170.827 169.86 170.58 169.246 170.26L170.086 167.88C170.353 168.027 170.673 168.18 171.046 168.34C171.42 168.5 171.826 168.633 172.266 168.74C172.706 168.847 173.153 168.9 173.606 168.9C174.14 168.9 174.54 168.827 174.806 168.68C175.086 168.52 175.226 168.28 175.226 167.96C175.226 167.72 175.133 167.527 174.946 167.38C174.773 167.22 174.513 167.073 174.166 166.94C173.82 166.793 173.406 166.64 172.926 166.48C172.22 166.227 171.613 165.953 171.106 165.66C170.6 165.367 170.206 165.007 169.926 164.58C169.66 164.153 169.526 163.62 169.526 162.98C169.526 162.247 169.713 161.647 170.086 161.18C170.46 160.713 170.986 160.367 171.666 160.14C172.346 159.9 173.14 159.78 174.046 159.78C174.793 159.78 175.466 159.84 176.066 159.96C176.666 160.08 177.133 160.233 177.466 160.42V162.78C177.24 162.673 176.94 162.567 176.566 162.46C176.206 162.353 175.813 162.267 175.386 162.2C174.973 162.12 174.573 162.08 174.186 162.08C173.64 162.08 173.226 162.153 172.946 162.3C172.666 162.447 172.526 162.653 172.526 162.92C172.526 163.133 172.62 163.313 172.806 163.46C173.006 163.607 173.293 163.747 173.666 163.88C174.04 164 174.486 164.153 175.006 164.34C175.7 164.58 176.286 164.847 176.766 165.14C177.246 165.433 177.606 165.793 177.846 166.22C178.1 166.647 178.226 167.173 178.226 167.8C178.226 168.4 178.086 168.967 177.806 169.5C177.54 170.02 177.08 170.447 176.426 170.78C175.773 171.1 174.873 171.26 173.726 171.26ZM175.252 158.52C174.626 158.52 174.132 158.427 173.772 158.24C173.412 158.053 173.159 157.82 173.012 157.54C172.852 157.247 172.772 156.94 172.772 156.62C172.772 156.393 172.806 156.153 172.872 155.9C172.939 155.633 173.039 155.387 173.172 155.16L175.352 155.44C175.326 155.533 175.306 155.633 175.292 155.74C175.266 155.833 175.252 155.92 175.252 156C175.252 156.187 175.312 156.333 175.432 156.44C175.539 156.533 175.726 156.58 175.992 156.58H180.292V158.52H175.252ZM186.458 171.26C184.725 171.26 183.465 170.86 182.678 170.06C181.905 169.247 181.518 168.073 181.518 166.54V160.04H184.518V166.7C184.518 167.407 184.671 167.947 184.978 168.32C185.298 168.68 185.791 168.86 186.458 168.86C187.125 168.86 187.611 168.68 187.918 168.32C188.238 167.947 188.398 167.407 188.398 166.7V160.04H191.398V166.54C191.398 168.073 191.005 169.247 190.218 170.06C189.445 170.86 188.191 171.26 186.458 171.26ZM194.974 171V160.04H197.934V164.14H198.014L201.414 160.04H204.714V160.14L197.934 167.66V171H194.974ZM201.674 171V167.38C201.674 166.673 201.467 166.167 201.054 165.86C200.654 165.54 200.067 165.38 199.294 165.38L201.054 163.3C201.854 163.3 202.52 163.46 203.054 163.78C203.587 164.1 203.987 164.533 204.254 165.08C204.534 165.613 204.674 166.227 204.674 166.92V171H201.674ZM211.575 171.2C210.762 171.2 210.075 171.047 209.515 170.74C208.968 170.42 208.548 169.947 208.255 169.32C207.975 168.693 207.835 167.927 207.835 167.02V160.04H210.835V166.5C210.835 167.233 210.982 167.767 211.275 168.1C211.568 168.433 211.995 168.6 212.555 168.6C213.262 168.6 213.808 168.333 214.195 167.8C214.582 167.253 214.775 166.413 214.775 165.28V160.04H217.775V171H215.495L215.175 169.32H214.995C214.768 169.853 214.375 170.3 213.815 170.66C213.268 171.02 212.522 171.2 211.575 171.2ZM215.465 158.52C214.838 158.52 214.345 158.427 213.985 158.24C213.625 158.053 213.372 157.82 213.225 157.54C213.065 157.247 212.985 156.94 212.985 156.62C212.985 156.393 213.018 156.153 213.085 155.9C213.152 155.633 213.252 155.387 213.385 155.16L215.565 155.44C215.538 155.533 215.518 155.633 215.505 155.74C215.478 155.833 215.465 155.92 215.465 156C215.465 156.187 215.525 156.333 215.645 156.44C215.752 156.533 215.938 156.58 216.205 156.58H220.505V158.52H215.465ZM223.845 171L220.665 160.04H223.685L226.105 168.58H226.225C226.438 168.58 226.638 168.52 226.825 168.4C227.012 168.28 227.172 168.12 227.305 167.92C227.572 167.547 227.772 167.107 227.905 166.6C228.038 166.08 228.105 165.567 228.105 165.06C228.105 164.167 227.932 163.48 227.585 163C227.252 162.52 226.785 162.28 226.185 162.28C226.065 162.28 225.952 162.287 225.845 162.3C225.752 162.313 225.665 162.34 225.585 162.38L225.025 160.08C225.332 159.987 225.618 159.933 225.885 159.92C226.165 159.893 226.392 159.88 226.565 159.88C227.272 159.88 227.885 159.973 228.405 160.16C228.925 160.347 229.372 160.627 229.745 161C230.212 161.453 230.558 162.02 230.785 162.7C231.025 163.38 231.145 164.147 231.145 165C231.145 166.08 230.972 167.027 230.625 167.84C230.292 168.64 229.885 169.273 229.405 169.74C229.005 170.127 228.498 170.433 227.885 170.66C227.285 170.887 226.458 171 225.405 171H223.845ZM240.231 171V163.88C240.231 163.24 240.057 162.78 239.711 162.5C239.364 162.22 238.831 162.08 238.111 162.08C237.417 162.08 236.737 162.187 236.071 162.4C235.417 162.6 234.851 162.84 234.371 163.12V160.64C234.757 160.453 235.304 160.267 236.011 160.08C236.717 159.88 237.531 159.78 238.451 159.78C239.157 159.78 239.791 159.867 240.351 160.04C240.924 160.213 241.337 160.553 241.591 161.06C242.151 161.233 242.551 161.573 242.791 162.08C243.044 162.573 243.171 163.213 243.171 164V171H240.231ZM236.951 171.2C235.804 171.2 234.917 170.927 234.291 170.38C233.677 169.833 233.371 169.067 233.371 168.08C233.371 167.013 233.751 166.16 234.511 165.52C235.284 164.88 236.497 164.493 238.151 164.36L240.711 164.16V166.32L238.491 166.54C237.691 166.62 237.131 166.78 236.811 167.02C236.504 167.26 236.351 167.58 236.351 167.98C236.351 168.38 236.477 168.68 236.731 168.88C236.997 169.08 237.337 169.18 237.751 169.18C237.911 169.18 238.071 169.167 238.231 169.14C238.391 169.1 238.537 169.06 238.671 169.02L238.931 170.9C238.677 170.993 238.377 171.067 238.031 171.12C237.684 171.173 237.324 171.2 236.951 171.2ZM241.531 162.22L239.891 160.84C240.357 160.68 240.724 160.48 240.991 160.24C241.257 159.987 241.397 159.68 241.411 159.32H244.031C244.031 159.733 243.944 160.133 243.771 160.52C243.611 160.893 243.344 161.227 242.971 161.52C242.611 161.813 242.131 162.047 241.531 162.22ZM234.639 158.52V157.26L236.659 156.42H243.799V158.52H234.639ZM238.839 157.3V155.04H240.739V157.3H238.839ZM241.919 157.3V155.04H243.799V157.3H241.919ZM251.582 171.26C249.955 171.26 248.749 170.867 247.962 170.08C247.175 169.28 246.782 168.1 246.782 166.54C246.782 166.273 246.789 165.953 246.802 165.58C246.829 165.193 246.862 164.853 246.902 164.56H251.702V166.46H249.722V166.74C249.722 167.273 249.789 167.713 249.922 168.06C250.055 168.393 250.255 168.64 250.522 168.8C250.802 168.96 251.149 169.04 251.562 169.04C252.015 169.04 252.395 168.94 252.702 168.74C253.022 168.54 253.262 168.2 253.422 167.72C253.595 167.24 253.682 166.58 253.682 165.74C253.682 164.953 253.589 164.3 253.402 163.78C253.229 163.247 252.929 162.847 252.502 162.58C252.089 162.313 251.515 162.18 250.782 162.18C250.382 162.18 249.969 162.227 249.542 162.32C249.115 162.4 248.709 162.507 248.322 162.64C247.949 162.773 247.622 162.92 247.342 163.08V160.58C247.635 160.42 247.995 160.28 248.422 160.16C248.862 160.04 249.335 159.947 249.842 159.88C250.349 159.813 250.849 159.78 251.342 159.78C252.635 159.78 253.675 160.02 254.462 160.5C255.262 160.967 255.842 161.633 256.202 162.5C256.575 163.367 256.762 164.393 256.762 165.58C256.762 166.793 256.582 167.827 256.222 168.68C255.875 169.52 255.322 170.16 254.562 170.6C253.802 171.04 252.809 171.26 251.582 171.26ZM260.357 162.04V158.78C260.357 157.98 260.211 157.407 259.917 157.06C259.624 156.713 259.184 156.54 258.597 156.54V155.34L260.617 154.38H265.717V156.54H262.357L262.337 156.62C262.684 156.833 262.937 157.14 263.097 157.54C263.271 157.94 263.357 158.467 263.357 159.12V162.04H260.357ZM263.137 171.2C262.537 171.2 262.031 171.107 261.617 170.92C261.204 170.733 260.891 170.453 260.677 170.08C260.464 169.693 260.357 169.213 260.357 168.64V160.04H263.357V168.28C263.357 168.533 263.411 168.72 263.517 168.84C263.637 168.96 263.817 169.02 264.057 169.02C264.164 169.02 264.277 169.007 264.397 168.98C264.517 168.953 264.631 168.92 264.737 168.88L265.017 170.8C264.764 170.933 264.477 171.033 264.157 171.1C263.837 171.167 263.497 171.2 263.137 171.2ZM268.013 171V166.4H266.873V164.56H270.713V168.72H270.853C271.293 168.72 271.667 168.6 271.973 168.36C272.293 168.12 272.533 167.767 272.693 167.3C272.853 166.82 272.933 166.22 272.933 165.5C272.933 164.673 272.813 164.02 272.573 163.54C272.347 163.047 272.007 162.693 271.553 162.48C271.1 162.267 270.54 162.16 269.873 162.16C269.18 162.16 268.553 162.26 267.993 162.46C267.433 162.647 266.933 162.873 266.493 163.14V160.64C266.933 160.413 267.487 160.213 268.153 160.04C268.82 159.867 269.587 159.78 270.453 159.78C271.747 159.78 272.793 159.987 273.593 160.4C274.407 160.813 275.007 161.44 275.393 162.28C275.78 163.12 275.973 164.173 275.973 165.44C275.973 166.627 275.793 167.64 275.433 168.48C275.087 169.307 274.513 169.933 273.713 170.36C272.927 170.787 271.873 171 270.553 171H268.013ZM279.025 171V160.04H281.225L281.625 161.76H281.785C282.012 161.213 282.405 160.76 282.965 160.4C283.525 160.027 284.252 159.84 285.145 159.84C285.999 159.84 286.705 159.993 287.265 160.3C287.825 160.593 288.245 161.047 288.525 161.66C288.819 162.26 288.965 163.02 288.965 163.94V171H285.965V164.54C285.965 163.793 285.812 163.26 285.505 162.94C285.212 162.607 284.779 162.44 284.205 162.44C283.739 162.44 283.339 162.567 283.005 162.82C282.685 163.073 282.439 163.447 282.265 163.94C282.105 164.42 282.025 165.027 282.025 165.76V171H279.025ZM296.996 171.26C295.796 171.26 294.836 171.12 294.116 170.84C293.396 170.547 292.87 170.14 292.536 169.62C292.216 169.1 292.056 168.5 292.056 167.82C292.056 167.233 292.143 166.76 292.316 166.4C292.503 166.04 292.736 165.767 293.016 165.58C293.31 165.38 293.603 165.247 293.896 165.18V165.06C293.59 164.953 293.296 164.807 293.016 164.62C292.736 164.433 292.503 164.18 292.316 163.86C292.143 163.54 292.056 163.14 292.056 162.66C292.056 162.167 292.17 161.707 292.396 161.28C292.636 160.853 293.016 160.513 293.536 160.26C294.056 159.993 294.743 159.86 295.596 159.86C296.01 159.86 296.41 159.893 296.796 159.96C297.183 160.013 297.483 160.093 297.696 160.2L297.236 162.22C297.13 162.193 296.983 162.167 296.796 162.14C296.623 162.1 296.443 162.08 296.256 162.08C295.843 162.08 295.536 162.18 295.336 162.38C295.136 162.567 295.036 162.813 295.036 163.12C295.036 163.44 295.123 163.687 295.296 163.86C295.47 164.033 295.69 164.153 295.956 164.22C296.236 164.287 296.523 164.32 296.816 164.32H297.236V166.18H296.816C296.243 166.18 295.81 166.28 295.516 166.48C295.236 166.68 295.096 167.007 295.096 167.46C295.096 167.7 295.15 167.94 295.256 168.18C295.376 168.407 295.576 168.6 295.856 168.76C296.136 168.907 296.536 168.98 297.056 168.98C297.55 168.98 297.936 168.907 298.216 168.76C298.496 168.613 298.696 168.42 298.816 168.18C298.936 167.927 298.996 167.647 298.996 167.34V160.04H301.996V167.24C301.996 168.613 301.59 169.627 300.776 170.28C299.976 170.933 298.716 171.26 296.996 171.26ZM298.854 158.96C298.747 158.773 298.661 158.533 298.594 158.24C298.514 157.947 298.474 157.653 298.474 157.36C298.474 156.987 298.547 156.647 298.694 156.34C298.827 156.033 299.074 155.793 299.434 155.62C299.781 155.433 300.261 155.34 300.874 155.34H303.774V157.36H301.854C301.601 157.36 301.407 157.407 301.274 157.5C301.127 157.58 301.054 157.733 301.054 157.96C301.054 158.053 301.067 158.153 301.094 158.26C301.121 158.353 301.161 158.453 301.214 158.56L298.854 158.96Z" fill="#252525"/>
<path d="M168 236C168 230.477 172.477 226 178 226H224V282H168V236Z" fill="#B4B4B4"/>
<path d="M168 282H224V338H178C172.477 338 168 333.523 168 328V282Z" fill="#B4B4B4"/>
<path d="M224 226H270C275.523 226 280 230.477 280 236V282H224V226Z" fill="#B4B4B4"/>
<path d="M224 282H290V338C290 343.523 285.523 348 280 348H224V282Z" fill="#F14F21"/>
<path d="M223.789 216V348.25" stroke="black" stroke-width="3" stroke-linecap="round"/>
<path d="M158 282.46H290.25" stroke="black" stroke-width="3" stroke-linecap="round"/>
<path d="M61 409.864C60.5417 409.864 60.1231 409.752 59.7443 409.528C59.3655 409.301 59.0625 408.998 58.8352 408.619C58.6117 408.241 58.5 407.822 58.5 407.364C58.5 406.902 58.6117 406.483 58.8352 406.108C59.0625 405.729 59.3655 405.428 59.7443 405.205C60.1231 404.977 60.5417 404.864 61 404.864C61.4621 404.864 61.8807 404.977 62.2557 405.205C62.6345 405.428 62.9356 405.729 63.1591 406.108C63.3864 406.483 63.5 406.902 63.5 407.364C63.5 407.822 63.3864 408.241 63.1591 408.619C62.9356 408.998 62.6345 409.301 62.2557 409.528C61.8807 409.752 61.4621 409.864 61 409.864ZM74.424 412V403.232H75.848V407.024H75.896L79.544 403.232H81.208V403.28L75.848 408.704V412H74.424ZM79.864 412V408.912C79.864 408.283 79.672 407.792 79.288 407.44C78.904 407.088 78.2693 406.912 77.384 406.912L78.216 405.872C78.888 405.872 79.448 405.995 79.896 406.24C80.3547 406.475 80.7013 406.816 80.936 407.264C81.1707 407.712 81.288 408.251 81.288 408.88V412H79.864ZM87.1906 412.16C86.5613 412.16 86.0173 412.053 85.5586 411.84C85.1106 411.616 84.764 411.28 84.5186 410.832C84.284 410.384 84.1666 409.803 84.1666 409.088V403.232H85.5906V409.008C85.5906 409.648 85.7506 410.133 86.0706 410.464C86.4013 410.795 86.876 410.96 87.4946 410.96C88.2413 410.96 88.8173 410.72 89.2226 410.24C89.6386 409.76 89.8466 409.115 89.8466 408.304V403.232H91.2706V412H90.0866L90.0226 410.704H89.9426C89.7506 411.131 89.4146 411.483 88.9346 411.76C88.4653 412.027 87.884 412.16 87.1906 412.16ZM89.7071 401.84C89.2591 401.84 88.9018 401.776 88.6351 401.648C88.3685 401.52 88.1765 401.355 88.0591 401.152C87.9311 400.949 87.8671 400.736 87.8671 400.512C87.8671 400.352 87.8938 400.181 87.9471 400C87.9898 399.808 88.0485 399.653 88.1231 399.536L89.3231 399.744C89.3018 399.787 89.2805 399.861 89.2591 399.968C89.2378 400.064 89.2271 400.155 89.2271 400.24C89.2271 400.379 89.2698 400.501 89.3551 400.608C89.4405 400.704 89.5845 400.752 89.7871 400.752H93.8351V401.84H89.7071ZM96.3791 412L93.6431 403.232H95.0831L97.4511 410.768H97.6431C97.8991 410.768 98.1498 410.709 98.3951 410.592C98.6405 410.464 98.8485 410.304 99.0191 410.112C99.3391 409.76 99.5738 409.317 99.7231 408.784C99.8725 408.24 99.9471 407.707 99.9471 407.184C99.9471 406.299 99.7445 405.605 99.3391 405.104C98.9445 404.592 98.3951 404.336 97.6911 404.336C97.5525 404.336 97.4138 404.347 97.2751 404.368C97.1471 404.389 97.0405 404.416 96.9551 404.448L96.6031 403.312C96.8271 403.248 97.0351 403.205 97.2271 403.184C97.4298 403.163 97.6111 403.152 97.7711 403.152C98.3045 403.152 98.7791 403.232 99.1951 403.392C99.6218 403.541 99.9845 403.765 100.283 404.064C100.656 404.427 100.928 404.88 101.099 405.424C101.28 405.968 101.371 406.571 101.371 407.232C101.371 408.064 101.243 408.805 100.987 409.456C100.731 410.096 100.411 410.608 100.027 410.992C99.7178 411.301 99.3391 411.547 98.8911 411.728C98.4431 411.909 97.8725 412 97.1791 412H96.3791ZM109.149 412V406.16C109.149 405.467 108.989 404.976 108.669 404.688C108.36 404.389 107.837 404.24 107.101 404.24C106.568 404.24 106.056 404.315 105.565 404.464C105.085 404.603 104.626 404.8 104.189 405.056V403.728C104.498 403.568 104.914 403.419 105.437 403.28C105.97 403.141 106.568 403.072 107.229 403.072C107.794 403.072 108.274 403.136 108.669 403.264C109.074 403.392 109.373 403.627 109.565 403.968C109.938 404.139 110.194 404.405 110.333 404.768C110.482 405.131 110.557 405.568 110.557 406.08V412H109.149ZM106.397 412.16C105.458 412.16 104.738 411.947 104.237 411.52C103.746 411.083 103.501 410.459 103.501 409.648C103.501 408.763 103.821 408.08 104.461 407.6C105.112 407.12 106.162 406.837 107.613 406.752L109.437 406.64V407.824L107.805 407.936C106.717 408.011 105.965 408.181 105.549 408.448C105.144 408.715 104.941 409.104 104.941 409.616C104.941 410.096 105.09 410.448 105.389 410.672C105.698 410.896 106.125 411.008 106.669 411.008C106.85 411.008 107.016 410.997 107.165 410.976C107.314 410.944 107.458 410.907 107.597 410.864L107.821 411.936C107.618 412.011 107.394 412.064 107.149 412.096C106.914 412.139 106.664 412.16 106.397 412.16ZM109.517 404.464L108.717 403.712C108.994 403.669 109.256 403.563 109.501 403.392C109.746 403.221 109.869 402.976 109.869 402.656H111.261C111.261 402.987 111.181 403.28 111.021 403.536C110.872 403.781 110.664 403.984 110.397 404.144C110.13 404.293 109.837 404.4 109.517 404.464ZM104.239 401.84V401.216L105.407 400.704H111.039V401.84H104.239ZM107.535 401.216V399.408H108.719V401.216H107.535ZM109.871 401.216V399.408H111.039V401.216H109.871ZM117.233 412.16C116.081 412.16 115.217 411.861 114.641 411.264C114.076 410.656 113.793 409.707 113.793 408.416C113.793 408.203 113.798 407.973 113.809 407.728C113.83 407.472 113.852 407.221 113.873 406.976H117.233V408.096H115.217V408.416C115.217 409.088 115.292 409.616 115.441 410C115.59 410.373 115.809 410.635 116.097 410.784C116.396 410.933 116.764 411.008 117.201 411.008C117.681 411.008 118.097 410.917 118.449 410.736C118.801 410.555 119.073 410.224 119.265 409.744C119.457 409.264 119.553 408.576 119.553 407.68C119.553 406.891 119.468 406.245 119.297 405.744C119.126 405.243 118.844 404.869 118.449 404.624C118.065 404.379 117.542 404.256 116.881 404.256C116.54 404.256 116.209 404.288 115.889 404.352C115.569 404.405 115.26 404.491 114.961 404.608C114.662 404.715 114.369 404.853 114.081 405.024V403.696C114.294 403.579 114.556 403.477 114.865 403.392C115.174 403.296 115.516 403.221 115.889 403.168C116.262 403.104 116.652 403.072 117.057 403.072C117.996 403.072 118.753 403.264 119.329 403.648C119.916 404.021 120.342 404.555 120.609 405.248C120.876 405.931 121.009 406.741 121.009 407.68C121.009 408.619 120.886 409.424 120.641 410.096C120.396 410.768 119.996 411.28 119.441 411.632C118.897 411.984 118.161 412.16 117.233 412.16ZM123.845 412V403.232H124.837L125.093 404.624H125.157C125.338 404.144 125.669 403.765 126.149 403.488C126.629 403.211 127.21 403.072 127.893 403.072C128.533 403.072 129.077 403.184 129.525 403.408C129.983 403.621 130.335 403.952 130.581 404.4C130.826 404.848 130.949 405.429 130.949 406.144V412H129.525V406.224C129.525 405.584 129.365 405.099 129.045 404.768C128.725 404.437 128.25 404.272 127.621 404.272C127.119 404.272 126.693 404.389 126.341 404.624C125.989 404.859 125.722 405.179 125.541 405.584C125.359 405.979 125.269 406.427 125.269 406.928V412H123.845ZM124.46 401.84V401.216L125.628 400.704H131.26V401.84H124.46ZM129.932 401.216V399.408H131.276V401.216H129.932ZM130.396 398.464V395.856H131.756V398.464H130.396ZM139.211 412.16C138.528 412.16 137.936 412.027 137.435 411.76C136.944 411.483 136.608 411.099 136.427 410.608H136.363L136.283 412H135.115V403.232H136.539V408.304C136.539 408.837 136.629 409.307 136.811 409.712C137.003 410.107 137.275 410.416 137.627 410.64C137.989 410.853 138.421 410.96 138.923 410.96C139.552 410.96 140.021 410.795 140.331 410.464C140.64 410.133 140.795 409.648 140.795 409.008V403.232H142.219V409.104C142.219 409.808 142.096 410.384 141.851 410.832C141.616 411.28 141.275 411.616 140.827 411.84C140.379 412.053 139.84 412.16 139.211 412.16ZM135.9 401.84V401.216L137.068 400.704H142.7V401.84H135.9ZM141.372 401.216V399.408H142.716V401.216H141.372ZM146.239 404.832V401.696C146.239 401.056 146.084 400.597 145.775 400.32C145.476 400.043 145.092 399.904 144.623 399.904V399.296L145.807 398.784H150.079V399.904H146.831L146.815 399.968C147.049 400.128 147.247 400.373 147.407 400.704C147.577 401.024 147.663 401.445 147.663 401.968V404.832H146.239ZM147.983 412.16C147.695 412.16 147.417 412.112 147.151 412.016C146.884 411.92 146.665 411.749 146.495 411.504C146.324 411.259 146.239 410.917 146.239 410.48V403.232H147.663V410.304C147.663 410.549 147.716 410.725 147.823 410.832C147.929 410.939 148.1 410.992 148.335 410.992C148.431 410.992 148.532 410.981 148.639 410.96C148.745 410.939 148.847 410.912 148.943 410.88L149.135 411.92C148.932 412.016 148.735 412.08 148.543 412.112C148.351 412.144 148.164 412.16 147.983 412.16ZM151.764 412V408.096H150.548V406.976H153.124V410.848H153.332C153.812 410.848 154.212 410.741 154.532 410.528C154.852 410.315 155.092 409.968 155.252 409.488C155.412 409.008 155.492 408.373 155.492 407.584C155.492 406.795 155.401 406.155 155.22 405.664C155.049 405.173 154.767 404.816 154.372 404.592C153.988 404.368 153.465 404.256 152.804 404.256C152.303 404.256 151.817 404.325 151.348 404.464C150.889 404.592 150.447 404.795 150.02 405.072V403.744C150.34 403.552 150.761 403.392 151.284 403.264C151.807 403.136 152.372 403.072 152.98 403.072C153.951 403.072 154.724 403.253 155.3 403.616C155.887 403.968 156.308 404.48 156.564 405.152C156.82 405.824 156.948 406.64 156.948 407.6C156.948 408.528 156.82 409.323 156.564 409.984C156.319 410.635 155.913 411.136 155.348 411.488C154.793 411.829 154.047 412 153.108 412H151.764ZM159.752 412V403.232H160.744L161 404.624H161.064C161.245 404.144 161.576 403.765 162.056 403.488C162.536 403.211 163.117 403.072 163.8 403.072C164.44 403.072 164.984 403.184 165.432 403.408C165.89 403.621 166.242 403.952 166.488 404.4C166.733 404.848 166.856 405.429 166.856 406.144V412H165.432V406.224C165.432 405.584 165.272 405.099 164.952 404.768C164.632 404.437 164.157 404.272 163.528 404.272C163.026 404.272 162.6 404.389 162.248 404.624C161.896 404.859 161.629 405.179 161.448 405.584C161.266 405.979 161.176 406.427 161.176 406.928V412H159.752ZM173.309 412.144C172.445 412.144 171.752 412.032 171.229 411.808C170.717 411.584 170.344 411.269 170.109 410.864C169.885 410.459 169.773 409.979 169.773 409.424C169.773 408.933 169.843 408.544 169.981 408.256C170.131 407.957 170.312 407.739 170.525 407.6C170.749 407.461 170.979 407.371 171.213 407.328V407.264C171 407.2 170.776 407.093 170.541 406.944C170.307 406.795 170.109 406.587 169.949 406.32C169.8 406.053 169.725 405.717 169.725 405.312C169.725 404.939 169.811 404.587 169.981 404.256C170.152 403.925 170.429 403.653 170.813 403.44C171.197 403.227 171.704 403.12 172.333 403.12C172.589 403.12 172.856 403.141 173.133 403.184C173.411 403.216 173.624 403.275 173.773 403.36L173.517 404.464C173.4 404.421 173.245 404.384 173.053 404.352C172.872 404.309 172.68 404.288 172.477 404.288C172.029 404.288 171.699 404.395 171.485 404.608C171.272 404.811 171.165 405.083 171.165 405.424C171.165 405.797 171.256 406.08 171.437 406.272C171.629 406.464 171.869 406.597 172.157 406.672C172.456 406.736 172.765 406.768 173.085 406.768H173.389V407.808H173.085C172.445 407.808 171.971 407.925 171.661 408.16C171.363 408.384 171.213 408.763 171.213 409.296C171.213 409.605 171.272 409.888 171.389 410.144C171.517 410.4 171.731 410.603 172.029 410.752C172.339 410.901 172.765 410.976 173.309 410.976C173.853 410.976 174.275 410.901 174.573 410.752C174.883 410.603 175.101 410.389 175.229 410.112C175.357 409.824 175.421 409.483 175.421 409.088V403.232H176.845V408.992C176.845 410.112 176.557 410.917 175.981 411.408C175.416 411.899 174.525 412.144 173.309 412.144ZM174.694 402.304C174.62 402.187 174.561 402.037 174.518 401.856C174.465 401.664 174.438 401.477 174.438 401.296C174.438 401.072 174.486 400.864 174.582 400.672C174.678 400.469 174.849 400.304 175.094 400.176C175.34 400.048 175.681 399.984 176.118 399.984H178.31V401.088H176.486C176.273 401.088 176.102 401.131 175.974 401.216C175.846 401.291 175.782 401.424 175.782 401.616C175.782 401.691 175.798 401.771 175.83 401.856C175.852 401.941 175.884 402.027 175.926 402.112L174.694 402.304ZM180.858 404.832V401.968C180.858 401.563 180.895 401.237 180.97 400.992C181.044 400.736 181.146 400.528 181.274 400.368C181.402 400.208 181.54 400.075 181.69 399.968L181.674 399.904H178.89L179.258 398.784H183.77V399.904C183.375 399.904 183.028 400.032 182.73 400.288C182.431 400.544 182.282 401.013 182.282 401.696V404.832H180.858ZM182.602 412.16C182.314 412.16 182.036 412.112 181.77 412.016C181.503 411.92 181.284 411.749 181.114 411.504C180.943 411.259 180.858 410.917 180.858 410.48V403.232H182.282V410.304C182.282 410.549 182.335 410.725 182.442 410.832C182.548 410.939 182.719 410.992 182.954 410.992C183.05 410.992 183.151 410.981 183.258 410.96C183.364 410.939 183.466 410.912 183.562 410.88L183.754 411.92C183.551 412.016 183.354 412.08 183.162 412.112C182.97 412.144 182.783 412.16 182.602 412.16ZM189.957 412.16C189.274 412.16 188.682 412.027 188.181 411.76C187.69 411.483 187.354 411.099 187.173 410.608H187.109L187.029 412H185.861V403.232H187.285V408.304C187.285 408.837 187.376 409.307 187.557 409.712C187.749 410.107 188.021 410.416 188.373 410.64C188.736 410.853 189.168 410.96 189.669 410.96C190.298 410.96 190.768 410.795 191.077 410.464C191.386 410.133 191.541 409.648 191.541 409.008V403.232H192.965V409.104C192.965 409.808 192.842 410.384 192.597 410.832C192.362 411.28 192.021 411.616 191.573 411.84C191.125 412.053 190.586 412.16 189.957 412.16ZM192.022 401.84V398.464H193.43V401.84H192.022ZM196.649 412V403.232H198.073V407.024H198.121L201.769 403.232H203.433V403.28L198.073 408.704V412H196.649ZM202.089 412V408.912C202.089 408.283 201.897 407.792 201.513 407.44C201.129 407.088 200.494 406.912 199.609 406.912L200.441 405.872C201.113 405.872 201.673 405.995 202.121 406.24C202.58 406.475 202.926 406.816 203.161 407.264C203.396 407.712 203.513 408.251 203.513 408.88V412H202.089ZM211.528 412V406.16C211.528 405.467 211.368 404.976 211.048 404.688C210.738 404.389 210.216 404.24 209.48 404.24C208.946 404.24 208.434 404.315 207.944 404.464C207.464 404.603 207.005 404.8 206.568 405.056V403.728C206.877 403.568 207.293 403.419 207.816 403.28C208.349 403.141 208.946 403.072 209.608 403.072C210.173 403.072 210.664 403.136 211.08 403.264C211.496 403.381 211.837 403.563 212.104 403.808C212.381 404.053 212.589 404.368 212.728 404.752C212.866 405.125 212.936 405.568 212.936 406.08V412H211.528ZM208.776 412.16C207.837 412.16 207.117 411.947 206.616 411.52C206.125 411.083 205.88 410.459 205.88 409.648C205.88 408.763 206.2 408.08 206.84 407.6C207.49 407.12 208.541 406.837 209.992 406.752L211.816 406.64V407.824L210.184 407.936C209.096 408.011 208.344 408.181 207.928 408.448C207.522 408.715 207.32 409.104 207.32 409.616C207.32 410.096 207.469 410.448 207.768 410.672C208.077 410.896 208.504 411.008 209.048 411.008C209.229 411.008 209.394 410.997 209.544 410.976C209.693 410.944 209.837 410.907 209.976 410.864L210.2 411.936C209.997 412.011 209.773 412.064 209.528 412.096C209.293 412.139 209.042 412.16 208.776 412.16ZM218.492 412V405.776C218.492 405.253 218.37 404.869 218.124 404.624C217.89 404.379 217.49 404.256 216.924 404.256C216.54 404.256 216.178 404.309 215.836 404.416C215.506 404.512 215.186 404.651 214.876 404.832V403.552C215.09 403.445 215.394 403.339 215.788 403.232C216.183 403.125 216.652 403.072 217.196 403.072C217.751 403.072 218.231 403.152 218.636 403.312C219.042 403.472 219.356 403.739 219.58 404.112C219.804 404.475 219.916 404.96 219.916 405.568V412H218.492ZM222.912 412V408.96C222.912 408.288 223.062 407.803 223.36 407.504C223.659 407.195 224.038 406.981 224.496 406.864L224.512 406.816L222.752 406.144V405.616C222.752 405.179 222.896 404.768 223.184 404.384C223.472 403.989 223.883 403.675 224.416 403.44C224.96 403.195 225.606 403.072 226.352 403.072C227.003 403.072 227.606 403.179 228.16 403.392C228.715 403.595 229.158 403.92 229.488 404.368C229.83 404.805 230 405.381 230 406.096V412H228.576V406.24C228.576 405.525 228.358 405.019 227.92 404.72C227.494 404.411 226.966 404.256 226.336 404.256C225.686 404.256 225.168 404.395 224.784 404.672C224.4 404.939 224.208 405.28 224.208 405.696L225.936 406.56L225.808 407.328C225.414 407.328 225.067 407.461 224.768 407.728C224.48 407.984 224.336 408.395 224.336 408.96V412H222.912ZM233.194 412V403.232H234.618V407.024H234.666L238.314 403.232H239.978V403.28L234.618 408.704V412H233.194ZM238.634 412V408.912C238.634 408.283 238.442 407.792 238.058 407.44C237.674 407.088 237.039 406.912 236.154 406.912L236.986 405.872C237.658 405.872 238.218 405.995 238.666 406.24C239.125 406.475 239.471 406.816 239.706 407.264C239.941 407.712 240.058 408.251 240.058 408.88V412H238.634ZM248.073 412V406.16C248.073 405.467 247.913 404.976 247.593 404.688C247.283 404.389 246.761 404.24 246.025 404.24C245.491 404.24 244.979 404.315 244.489 404.464C244.009 404.603 243.55 404.8 243.113 405.056V403.728C243.422 403.568 243.838 403.419 244.361 403.28C244.894 403.141 245.491 403.072 246.153 403.072C246.718 403.072 247.209 403.136 247.625 403.264C248.041 403.381 248.382 403.563 248.649 403.808C248.926 404.053 249.134 404.368 249.273 404.752C249.411 405.125 249.481 405.568 249.481 406.08V412H248.073ZM245.321 412.16C244.382 412.16 243.662 411.947 243.161 411.52C242.67 411.083 242.425 410.459 242.425 409.648C242.425 408.763 242.745 408.08 243.385 407.6C244.035 407.12 245.086 406.837 246.537 406.752L248.361 406.64V407.824L246.729 407.936C245.641 408.011 244.889 408.181 244.473 408.448C244.067 408.715 243.865 409.104 243.865 409.616C243.865 410.096 244.014 410.448 244.313 410.672C244.622 410.896 245.049 411.008 245.593 411.008C245.774 411.008 245.939 410.997 246.089 410.976C246.238 410.944 246.382 410.907 246.521 410.864L246.745 411.936C246.542 412.011 246.318 412.064 246.073 412.096C245.838 412.139 245.587 412.16 245.321 412.16ZM255.037 412V405.776C255.037 405.253 254.915 404.869 254.669 404.624C254.435 404.379 254.035 404.256 253.469 404.256C253.085 404.256 252.723 404.309 252.381 404.416C252.051 404.512 251.731 404.651 251.421 404.832V403.552C251.635 403.445 251.939 403.339 252.333 403.232C252.728 403.125 253.197 403.072 253.741 403.072C254.296 403.072 254.776 403.152 255.181 403.312C255.587 403.472 255.901 403.739 256.125 404.112C256.349 404.475 256.461 404.96 256.461 405.568V412H255.037ZM262.913 412.144C262.049 412.144 261.356 412.032 260.833 411.808C260.321 411.584 259.948 411.269 259.713 410.864C259.489 410.459 259.377 409.979 259.377 409.424C259.377 408.933 259.447 408.544 259.585 408.256C259.735 407.957 259.916 407.739 260.129 407.6C260.353 407.461 260.583 407.371 260.817 407.328V407.264C260.604 407.2 260.38 407.093 260.145 406.944C259.911 406.795 259.713 406.587 259.553 406.32C259.404 406.053 259.329 405.717 259.329 405.312C259.329 404.939 259.415 404.587 259.585 404.256C259.756 403.925 260.033 403.653 260.417 403.44C260.801 403.227 261.308 403.12 261.937 403.12C262.193 403.12 262.46 403.141 262.737 403.184C263.015 403.216 263.228 403.275 263.377 403.36L263.121 404.464C263.004 404.421 262.849 404.384 262.657 404.352C262.476 404.309 262.284 404.288 262.081 404.288C261.633 404.288 261.303 404.395 261.089 404.608C260.876 404.811 260.769 405.083 260.769 405.424C260.769 405.797 260.86 406.08 261.041 406.272C261.233 406.464 261.473 406.597 261.761 406.672C262.06 406.736 262.369 406.768 262.689 406.768H262.993V407.808H262.689C262.049 407.808 261.575 407.925 261.265 408.16C260.967 408.384 260.817 408.763 260.817 409.296C260.817 409.605 260.876 409.888 260.993 410.144C261.121 410.4 261.335 410.603 261.633 410.752C261.943 410.901 262.369 410.976 262.913 410.976C263.457 410.976 263.879 410.901 264.177 410.752C264.487 410.603 264.705 410.389 264.833 410.112C264.961 409.824 265.025 409.483 265.025 409.088V403.232H266.449V408.992C266.449 410.112 266.161 410.917 265.585 411.408C265.02 411.899 264.129 412.144 262.913 412.144ZM271.501 412.16C271.213 412.16 270.936 412.112 270.669 412.016C270.403 411.92 270.184 411.749 270.013 411.504C269.843 411.259 269.757 410.917 269.757 410.48V403.232H271.181V410.304C271.181 410.549 271.235 410.725 271.341 410.832C271.448 410.939 271.619 410.992 271.853 410.992C271.949 410.992 272.051 410.981 272.157 410.96C272.264 410.939 272.365 410.912 272.461 410.88L272.653 411.92C272.451 412.016 272.253 412.08 272.061 412.112C271.869 412.144 271.683 412.16 271.501 412.16ZM275.869 412.16C275.581 412.16 275.304 412.112 275.037 412.016C274.771 411.92 274.552 411.749 274.381 411.504C274.211 411.259 274.125 410.917 274.125 410.48V403.232H275.549V410.304C275.549 410.549 275.603 410.725 275.709 410.832C275.816 410.939 275.987 410.992 276.221 410.992C276.317 410.992 276.419 410.981 276.525 410.96C276.632 410.939 276.733 410.912 276.829 410.88L277.021 411.92C276.819 412.016 276.621 412.08 276.429 412.112C276.237 412.144 276.051 412.16 275.869 412.16ZM284.071 412V406.16C284.071 405.467 283.911 404.976 283.591 404.688C283.281 404.389 282.759 404.24 282.023 404.24C281.489 404.24 280.977 404.315 280.487 404.464C280.007 404.603 279.548 404.8 279.111 405.056V403.728C279.42 403.568 279.836 403.419 280.359 403.28C280.892 403.141 281.489 403.072 282.151 403.072C282.716 403.072 283.207 403.136 283.623 403.264C284.039 403.381 284.38 403.563 284.647 403.808C284.924 404.053 285.132 404.368 285.271 404.752C285.409 405.125 285.479 405.568 285.479 406.08V412H284.071ZM281.319 412.16C280.38 412.16 279.66 411.947 279.159 411.52C278.668 411.083 278.423 410.459 278.423 409.648C278.423 408.763 278.743 408.08 279.383 407.6C280.033 407.12 281.084 406.837 282.535 406.752L284.359 406.64V407.824L282.727 407.936C281.639 408.011 280.887 408.181 280.471 408.448C280.065 408.715 279.863 409.104 279.863 409.616C279.863 410.096 280.012 410.448 280.311 410.672C280.62 410.896 281.047 411.008 281.591 411.008C281.772 411.008 281.937 410.997 282.087 410.976C282.236 410.944 282.38 410.907 282.519 410.864L282.743 411.936C282.54 412.011 282.316 412.064 282.071 412.096C281.836 412.139 281.585 412.16 281.319 412.16ZM289.707 406.496C289.27 406.496 288.913 406.432 288.635 406.304C288.369 406.165 288.177 405.995 288.059 405.792C287.942 405.579 287.883 405.355 287.883 405.12C287.883 404.96 287.905 404.795 287.947 404.624C288.001 404.453 288.065 404.309 288.139 404.192L289.339 404.384C289.318 404.437 289.291 404.512 289.259 404.608C289.238 404.704 289.227 404.8 289.227 404.896C289.227 405.035 289.265 405.152 289.339 405.248C289.414 405.333 289.553 405.376 289.755 405.376H292.043V406.496H289.707ZM289.707 410.976C289.27 410.976 288.913 410.912 288.635 410.784C288.369 410.645 288.177 410.475 288.059 410.272C287.942 410.059 287.883 409.835 287.883 409.6C287.883 409.44 287.905 409.275 287.947 409.104C288.001 408.933 288.065 408.789 288.139 408.672L289.339 408.864C289.318 408.917 289.291 408.992 289.259 409.088C289.238 409.184 289.227 409.28 289.227 409.376C289.227 409.515 289.265 409.632 289.339 409.728C289.414 409.813 289.553 409.856 289.755 409.856H292.043V410.976H289.707ZM297.818 412.144C296.954 412.144 296.26 412.032 295.738 411.808C295.226 411.584 294.852 411.269 294.618 410.864C294.394 410.459 294.282 409.979 294.282 409.424C294.282 408.933 294.351 408.544 294.49 408.256C294.639 407.957 294.82 407.739 295.034 407.6C295.258 407.461 295.487 407.371 295.722 407.328V407.264C295.508 407.2 295.284 407.093 295.05 406.944C294.815 406.795 294.618 406.587 294.458 406.32C294.308 406.053 294.234 405.717 294.234 405.312C294.234 404.939 294.319 404.587 294.49 404.256C294.66 403.925 294.938 403.653 295.322 403.44C295.706 403.227 296.212 403.12 296.842 403.12C297.098 403.12 297.364 403.141 297.642 403.184C297.919 403.216 298.132 403.275 298.282 403.36L298.026 404.464C297.908 404.421 297.754 404.384 297.562 404.352C297.38 404.309 297.188 404.288 296.986 404.288C296.538 404.288 296.207 404.395 295.994 404.608C295.78 404.811 295.674 405.083 295.674 405.424C295.674 405.797 295.764 406.08 295.946 406.272C296.138 406.464 296.378 406.597 296.666 406.672C296.964 406.736 297.274 406.768 297.594 406.768H297.898V407.808H297.594C296.954 407.808 296.479 407.925 296.17 408.16C295.871 408.384 295.722 408.763 295.722 409.296C295.722 409.605 295.78 409.888 295.898 410.144C296.026 410.4 296.239 410.603 296.538 410.752C296.847 410.901 297.274 410.976 297.818 410.976C298.362 410.976 298.783 410.901 299.082 410.752C299.391 410.603 299.61 410.389 299.738 410.112C299.866 409.824 299.93 409.483 299.93 409.088V403.232H301.354V408.992C301.354 410.112 301.066 410.917 300.49 411.408C299.924 411.899 299.034 412.144 297.818 412.144ZM306.902 412V405.776C306.902 405.253 306.779 404.869 306.534 404.624C306.299 404.379 305.899 404.256 305.334 404.256C304.95 404.256 304.587 404.309 304.246 404.416C303.915 404.512 303.595 404.651 303.286 404.832V403.552C303.499 403.445 303.803 403.339 304.198 403.232C304.592 403.125 305.062 403.072 305.606 403.072C306.16 403.072 306.64 403.152 307.046 403.312C307.451 403.472 307.766 403.739 307.99 404.112C308.214 404.475 308.326 404.96 308.326 405.568V412H306.902ZM311.322 412V408.96C311.322 408.288 311.471 407.803 311.77 407.504C312.068 407.195 312.447 406.981 312.906 406.864L312.922 406.816L311.162 406.144V405.616C311.162 405.179 311.306 404.768 311.594 404.384C311.882 403.989 312.292 403.675 312.826 403.44C313.37 403.195 314.015 403.072 314.762 403.072C315.412 403.072 316.015 403.179 316.57 403.392C317.124 403.595 317.567 403.92 317.898 404.368C318.239 404.805 318.41 405.381 318.41 406.096V412H316.986V406.24C316.986 405.525 316.767 405.019 316.33 404.72C315.903 404.411 315.375 404.256 314.746 404.256C314.095 404.256 313.578 404.395 313.194 404.672C312.81 404.939 312.618 405.28 312.618 405.696L314.346 406.56L314.218 407.328C313.823 407.328 313.476 407.461 313.178 407.728C312.89 407.984 312.746 408.395 312.746 408.96V412H311.322ZM61 441.864C60.5417 441.864 60.1231 441.752 59.7443 441.528C59.3655 441.301 59.0625 440.998 58.8352 440.619C58.6117 440.241 58.5 439.822 58.5 439.364C58.5 438.902 58.6117 438.483 58.8352 438.108C59.0625 437.729 59.3655 437.428 59.7443 437.205C60.1231 436.977 60.5417 436.864 61 436.864C61.4621 436.864 61.8807 436.977 62.2557 437.205C62.6345 437.428 62.9356 437.729 63.1591 438.108C63.3864 438.483 63.5 438.902 63.5 439.364C63.5 439.822 63.3864 440.241 63.1591 440.619C62.9356 440.998 62.6345 441.301 62.2557 441.528C61.8807 441.752 61.4621 441.864 61 441.864ZM76.28 444.16C75.992 444.16 75.7147 444.112 75.448 444.016C75.1813 443.92 74.9627 443.749 74.792 443.504C74.6213 443.259 74.536 442.917 74.536 442.48V435.232H75.96V442.304C75.96 442.549 76.0133 442.725 76.12 442.832C76.2267 442.939 76.3973 442.992 76.632 442.992C76.728 442.992 76.8293 442.981 76.936 442.96C77.0427 442.939 77.144 442.912 77.24 442.88L77.432 443.92C77.2293 444.016 77.032 444.08 76.84 444.112C76.648 444.144 76.4613 444.16 76.28 444.16ZM79.6227 444V435.232H81.0467V439.024H81.0947L84.7427 435.232H86.4067V435.28L81.0467 440.704V444H79.6227ZM85.0627 444V440.912C85.0627 440.283 84.8707 439.792 84.4867 439.44C84.1027 439.088 83.4681 438.912 82.5827 438.912L83.4147 437.872C84.0867 437.872 84.6467 437.995 85.0947 438.24C85.5534 438.475 85.9001 438.816 86.1347 439.264C86.3694 439.712 86.4867 440.251 86.4867 440.88V444H85.0627ZM93.5894 444.16C92.9067 444.16 92.3147 444.027 91.8134 443.76C91.3227 443.483 90.9867 443.099 90.8054 442.608H90.7414L90.6614 444H89.4934V435.232H90.9174V440.304C90.9174 440.837 91.008 441.307 91.1894 441.712C91.3814 442.107 91.6534 442.416 92.0054 442.64C92.368 442.853 92.8 442.96 93.3014 442.96C93.9307 442.96 94.4 442.795 94.7094 442.464C95.0187 442.133 95.1734 441.648 95.1734 441.008V435.232H96.5974V441.104C96.5974 441.808 96.4747 442.384 96.2294 442.832C95.9947 443.28 95.6534 443.616 95.2054 443.84C94.7574 444.053 94.2187 444.16 93.5894 444.16ZM102.153 444V437.776C102.153 437.253 102.031 436.869 101.785 436.624C101.551 436.379 101.151 436.256 100.585 436.256C100.201 436.256 99.8388 436.309 99.4975 436.416C99.1668 436.512 98.8468 436.651 98.5375 436.832V435.552C98.7508 435.445 99.0548 435.339 99.4495 435.232C99.8442 435.125 100.313 435.072 100.857 435.072C101.412 435.072 101.892 435.152 102.297 435.312C102.703 435.472 103.017 435.739 103.241 436.112C103.465 436.475 103.577 436.96 103.577 437.568V444H102.153ZM107.805 438.496C107.368 438.496 107.011 438.432 106.733 438.304C106.467 438.165 106.275 437.995 106.157 437.792C106.04 437.579 105.981 437.355 105.981 437.12C105.981 436.96 106.003 436.795 106.045 436.624C106.099 436.453 106.163 436.309 106.237 436.192L107.437 436.384C107.416 436.437 107.389 436.512 107.357 436.608C107.336 436.704 107.325 436.8 107.325 436.896C107.325 437.035 107.363 437.152 107.437 437.248C107.512 437.333 107.651 437.376 107.853 437.376H110.141V438.496H107.805ZM107.805 442.976C107.368 442.976 107.011 442.912 106.733 442.784C106.467 442.645 106.275 442.475 106.157 442.272C106.04 442.059 105.981 441.835 105.981 441.6C105.981 441.44 106.003 441.275 106.045 441.104C106.099 440.933 106.163 440.789 106.237 440.672L107.437 440.864C107.416 440.917 107.389 440.992 107.357 441.088C107.336 441.184 107.325 441.28 107.325 441.376C107.325 441.515 107.363 441.632 107.437 441.728C107.512 441.813 107.651 441.856 107.853 441.856H110.141V442.976H107.805ZM117.676 444V438.16C117.676 437.467 117.516 436.976 117.196 436.688C116.886 436.389 116.364 436.24 115.628 436.24C115.094 436.24 114.582 436.315 114.092 436.464C113.612 436.603 113.153 436.8 112.716 437.056V435.728C113.025 435.568 113.441 435.419 113.964 435.28C114.497 435.141 115.094 435.072 115.756 435.072C116.321 435.072 116.801 435.136 117.196 435.264C117.601 435.392 117.9 435.627 118.092 435.968C118.465 436.139 118.721 436.405 118.86 436.768C119.009 437.131 119.084 437.568 119.084 438.08V444H117.676ZM114.924 444.16C113.985 444.16 113.265 443.947 112.764 443.52C112.273 443.083 112.028 442.459 112.028 441.648C112.028 440.763 112.348 440.08 112.988 439.6C113.638 439.12 114.689 438.837 116.14 438.752L117.964 438.64V439.824L116.332 439.936C115.244 440.011 114.492 440.181 114.076 440.448C113.67 440.715 113.468 441.104 113.468 441.616C113.468 442.096 113.617 442.448 113.916 442.672C114.225 442.896 114.652 443.008 115.196 443.008C115.377 443.008 115.542 442.997 115.692 442.976C115.841 442.944 115.985 442.907 116.124 442.864L116.348 443.936C116.145 444.011 115.921 444.064 115.676 444.096C115.441 444.139 115.19 444.16 114.924 444.16ZM118.044 436.464L117.244 435.712C117.521 435.669 117.782 435.563 118.028 435.392C118.273 435.221 118.396 434.976 118.396 434.656H119.788C119.788 434.987 119.708 435.28 119.548 435.536C119.398 435.781 119.19 435.984 118.924 436.144C118.657 436.293 118.364 436.4 118.044 436.464ZM118.429 434.224C117.896 434.224 117.475 434.101 117.165 433.856C116.856 433.6 116.701 433.243 116.701 432.784C116.701 432.315 116.856 431.957 117.165 431.712C117.475 431.467 117.896 431.344 118.429 431.344C118.963 431.344 119.389 431.467 119.709 431.712C120.029 431.957 120.189 432.315 120.189 432.784C120.189 433.243 120.029 433.6 119.709 433.856C119.389 434.101 118.963 434.224 118.429 434.224ZM118.429 433.472C118.685 433.472 118.883 433.408 119.021 433.28C119.149 433.152 119.213 432.987 119.213 432.784C119.213 432.571 119.149 432.405 119.021 432.288C118.883 432.16 118.685 432.096 118.429 432.096C118.184 432.096 117.997 432.16 117.869 432.288C117.731 432.405 117.661 432.571 117.661 432.784C117.661 432.987 117.731 433.152 117.869 433.28C117.997 433.408 118.184 433.472 118.429 433.472ZM125.136 444V437.776C125.136 437.253 125.013 436.869 124.768 436.624C124.533 436.379 124.133 436.256 123.568 436.256C123.184 436.256 122.821 436.309 122.48 436.416C122.149 436.512 121.829 436.651 121.52 436.832V435.552C121.733 435.445 122.037 435.339 122.432 435.232C122.827 435.125 123.296 435.072 123.84 435.072C124.395 435.072 124.875 435.152 125.28 435.312C125.685 435.472 126 435.739 126.224 436.112C126.448 436.475 126.56 436.96 126.56 437.568V444H125.136ZM129.764 444V435.232H131.188V439.024H131.236L134.884 435.232H136.548V435.28L131.188 440.704V444H129.764ZM135.204 444V440.912C135.204 440.283 135.012 439.792 134.628 439.44C134.244 439.088 133.609 438.912 132.724 438.912L133.556 437.872C134.228 437.872 134.788 437.995 135.236 438.24C135.695 438.475 136.041 438.816 136.276 439.264C136.511 439.712 136.628 440.251 136.628 440.88V444H135.204ZM141.971 444.16C141.341 444.16 140.755 444.101 140.211 443.984C139.677 443.856 139.224 443.707 138.851 443.536L139.267 442.384C139.491 442.469 139.747 442.56 140.035 442.656C140.323 442.752 140.632 442.832 140.963 442.896C141.304 442.949 141.651 442.976 142.003 442.976C142.568 442.976 143.037 442.869 143.411 442.656C143.784 442.443 143.971 442.133 143.971 441.728C143.971 441.483 143.901 441.275 143.763 441.104C143.635 440.923 143.432 440.757 143.155 440.608C142.877 440.459 142.52 440.315 142.083 440.176C141.411 439.963 140.84 439.739 140.371 439.504C139.912 439.259 139.56 438.971 139.315 438.64C139.08 438.299 138.963 437.877 138.963 437.376C138.963 436.928 139.08 436.533 139.315 436.192C139.56 435.84 139.933 435.568 140.435 435.376C140.947 435.173 141.597 435.072 142.387 435.072C142.899 435.072 143.379 435.12 143.827 435.216C144.285 435.301 144.643 435.424 144.899 435.584V436.784C144.717 436.699 144.488 436.613 144.211 436.528C143.944 436.443 143.651 436.373 143.331 436.32C143.011 436.267 142.68 436.24 142.339 436.24C141.624 436.24 141.117 436.352 140.819 436.576C140.531 436.789 140.387 437.035 140.387 437.312C140.387 437.547 140.451 437.744 140.579 437.904C140.717 438.064 140.947 438.219 141.267 438.368C141.597 438.517 142.04 438.688 142.595 438.88C143.107 439.051 143.576 439.248 144.003 439.472C144.429 439.696 144.765 439.979 145.011 440.32C145.267 440.651 145.395 441.077 145.395 441.6C145.395 442.048 145.283 442.469 145.059 442.864C144.845 443.248 144.488 443.563 143.987 443.808C143.485 444.043 142.813 444.16 141.971 444.16ZM143.828 433.84C143.38 433.84 143.023 433.776 142.756 433.648C142.49 433.52 142.298 433.355 142.18 433.152C142.052 432.949 141.988 432.736 141.988 432.512C141.988 432.352 142.015 432.181 142.068 432C142.111 431.808 142.17 431.653 142.244 431.536L143.444 431.744C143.423 431.787 143.402 431.861 143.38 431.968C143.359 432.064 143.348 432.155 143.348 432.24C143.348 432.379 143.391 432.501 143.476 432.608C143.562 432.704 143.706 432.752 143.908 432.752H147.956V433.84H143.828ZM151.799 444.16C150.54 444.16 149.639 443.872 149.095 443.296C148.551 442.72 148.279 441.899 148.279 440.832V435.232H149.703V440.848C149.703 441.563 149.874 442.096 150.215 442.448C150.556 442.8 151.084 442.976 151.799 442.976C152.524 442.976 153.058 442.8 153.399 442.448C153.751 442.096 153.927 441.563 153.927 440.848V435.232H155.351V440.832C155.351 441.899 155.074 442.72 154.519 443.296C153.975 443.872 153.068 444.16 151.799 444.16ZM158.335 444V440.96C158.335 440.288 158.485 439.803 158.783 439.504C159.082 439.195 159.461 438.981 159.919 438.864L159.935 438.816L158.175 438.144V437.616C158.175 437.179 158.319 436.768 158.607 436.384C158.895 435.989 159.306 435.675 159.839 435.44C160.383 435.195 161.029 435.072 161.775 435.072C162.426 435.072 163.029 435.179 163.583 435.392C164.138 435.595 164.581 435.92 164.911 436.368C165.253 436.805 165.423 437.381 165.423 438.096V444H163.999V438.24C163.999 437.525 163.781 437.019 163.343 436.72C162.917 436.411 162.389 436.256 161.759 436.256C161.109 436.256 160.591 436.395 160.207 436.672C159.823 436.939 159.631 437.28 159.631 437.696L161.359 438.56L161.231 439.328C160.837 439.328 160.49 439.461 160.191 439.728C159.903 439.984 159.759 440.395 159.759 440.96V444H158.335ZM170.969 444V437.776C170.969 437.253 170.846 436.869 170.601 436.624C170.366 436.379 169.966 436.256 169.401 436.256C169.017 436.256 168.654 436.309 168.313 436.416C167.982 436.512 167.662 436.651 167.353 436.832V435.552C167.566 435.445 167.87 435.339 168.265 435.232C168.66 435.125 169.129 435.072 169.673 435.072C170.228 435.072 170.708 435.152 171.113 435.312C171.518 435.472 171.833 435.739 172.057 436.112C172.281 436.475 172.393 436.96 172.393 437.568V444H170.969ZM177.933 444.16C177.304 444.16 176.717 444.101 176.173 443.984C175.64 443.856 175.186 443.707 174.813 443.536L175.229 442.384C175.453 442.469 175.709 442.56 175.997 442.656C176.285 442.752 176.594 442.832 176.925 442.896C177.266 442.949 177.613 442.976 177.965 442.976C178.53 442.976 179 442.869 179.373 442.656C179.746 442.443 179.933 442.133 179.933 441.728C179.933 441.483 179.864 441.275 179.725 441.104C179.597 440.923 179.394 440.757 179.117 440.608C178.84 440.459 178.482 440.315 178.045 440.176C177.373 439.963 176.802 439.739 176.333 439.504C175.874 439.259 175.522 438.971 175.277 438.64C175.042 438.299 174.925 437.877 174.925 437.376C174.925 436.928 175.042 436.533 175.277 436.192C175.522 435.84 175.896 435.568 176.397 435.376C176.909 435.173 177.56 435.072 178.349 435.072C178.861 435.072 179.341 435.12 179.789 435.216C180.248 435.301 180.605 435.424 180.861 435.584V436.784C180.68 436.699 180.45 436.613 180.173 436.528C179.906 436.443 179.613 436.373 179.293 436.32C178.973 436.267 178.642 436.24 178.301 436.24C177.586 436.24 177.08 436.352 176.781 436.576C176.493 436.789 176.349 437.035 176.349 437.312C176.349 437.547 176.413 437.744 176.541 437.904C176.68 438.064 176.909 438.219 177.229 438.368C177.56 438.517 178.002 438.688 178.557 438.88C179.069 439.051 179.538 439.248 179.965 439.472C180.392 439.696 180.728 439.979 180.973 440.32C181.229 440.651 181.357 441.077 181.357 441.6C181.357 442.048 181.245 442.469 181.021 442.864C180.808 443.248 180.45 443.563 179.949 443.808C179.448 444.043 178.776 444.16 177.933 444.16ZM185.746 444.16C185.458 444.16 185.18 444.112 184.914 444.016C184.647 443.92 184.428 443.749 184.258 443.504C184.087 443.259 184.002 442.917 184.002 442.48V435.232H185.426V442.304C185.426 442.549 185.479 442.725 185.586 442.832C185.692 442.939 185.863 442.992 186.098 442.992C186.194 442.992 186.295 442.981 186.402 442.96C186.508 442.939 186.61 442.912 186.706 442.88L186.898 443.92C186.695 444.016 186.498 444.08 186.306 444.112C186.114 444.144 185.927 444.16 185.746 444.16ZM191.908 444.16C191.012 444.16 190.319 443.957 189.828 443.552C189.337 443.136 188.996 442.576 188.804 441.872C188.612 441.157 188.516 440.347 188.516 439.44C188.516 438.395 188.612 437.552 188.804 436.912C189.007 436.272 189.3 435.808 189.684 435.52C190.068 435.221 190.537 435.072 191.092 435.072C191.465 435.072 191.78 435.136 192.036 435.264C192.303 435.392 192.489 435.605 192.596 435.904H192.66C192.767 435.595 192.959 435.381 193.236 435.264C193.513 435.136 193.839 435.072 194.212 435.072C194.905 435.072 195.439 435.259 195.812 435.632C196.196 435.995 196.388 436.555 196.388 437.312V444H194.964V437.328C194.964 436.912 194.873 436.629 194.692 436.48C194.511 436.331 194.281 436.256 194.004 436.256C193.695 436.256 193.465 436.331 193.316 436.48C193.177 436.629 193.092 436.875 193.06 437.216H192.164C192.121 436.843 192.009 436.592 191.828 436.464C191.647 436.325 191.444 436.256 191.22 436.256C190.793 436.256 190.473 436.507 190.26 437.008C190.047 437.499 189.94 438.315 189.94 439.456C189.94 440.192 189.993 440.821 190.1 441.344C190.217 441.867 190.431 442.272 190.74 442.56C191.049 442.837 191.497 442.976 192.084 442.976C192.297 442.976 192.473 442.965 192.612 442.944C192.751 442.923 192.884 442.896 193.012 442.864L193.156 443.952C192.996 444.027 192.804 444.08 192.58 444.112C192.356 444.144 192.132 444.16 191.908 444.16ZM201.92 444.16C201.291 444.16 200.704 444.101 200.16 443.984C199.627 443.856 199.173 443.707 198.8 443.536L199.216 442.384C199.44 442.469 199.696 442.56 199.984 442.656C200.272 442.752 200.581 442.832 200.912 442.896C201.253 442.949 201.6 442.976 201.952 442.976C202.517 442.976 202.987 442.869 203.36 442.656C203.733 442.443 203.92 442.133 203.92 441.728C203.92 441.483 203.851 441.275 203.712 441.104C203.584 440.923 203.381 440.757 203.104 440.608C202.827 440.459 202.469 440.315 202.032 440.176C201.36 439.963 200.789 439.739 200.32 439.504C199.861 439.259 199.509 438.971 199.264 438.64C199.029 438.299 198.912 437.877 198.912 437.376C198.912 436.928 199.029 436.533 199.264 436.192C199.509 435.84 199.883 435.568 200.384 435.376C200.896 435.173 201.547 435.072 202.336 435.072C202.848 435.072 203.328 435.12 203.776 435.216C204.235 435.301 204.592 435.424 204.848 435.584V436.784C204.667 436.699 204.437 436.613 204.16 436.528C203.893 436.443 203.6 436.373 203.28 436.32C202.96 436.267 202.629 436.24 202.288 436.24C201.573 436.24 201.067 436.352 200.768 436.576C200.48 436.789 200.336 437.035 200.336 437.312C200.336 437.547 200.4 437.744 200.528 437.904C200.667 438.064 200.896 438.219 201.216 438.368C201.547 438.517 201.989 438.688 202.544 438.88C203.056 439.051 203.525 439.248 203.952 439.472C204.379 439.696 204.715 439.979 204.96 440.32C205.216 440.651 205.344 441.077 205.344 441.6C205.344 442.048 205.232 442.469 205.008 442.864C204.795 443.248 204.437 443.563 203.936 443.808C203.435 444.043 202.763 444.16 201.92 444.16ZM199.01 433.84V433.216L200.178 432.704H205.81V433.84H199.01ZM204.482 433.216V431.408H205.826V433.216H204.482ZM211.604 444.144C210.74 444.144 210.047 444.032 209.524 443.808C209.012 443.584 208.639 443.269 208.404 442.864C208.18 442.459 208.068 441.979 208.068 441.424C208.068 440.933 208.138 440.544 208.276 440.256C208.426 439.957 208.607 439.739 208.82 439.6C209.044 439.461 209.274 439.371 209.508 439.328V439.264C209.295 439.2 209.071 439.093 208.836 438.944C208.602 438.795 208.404 438.587 208.244 438.32C208.095 438.053 208.02 437.717 208.02 437.312C208.02 436.939 208.106 436.587 208.276 436.256C208.447 435.925 208.724 435.653 209.108 435.44C209.492 435.227 209.999 435.12 210.628 435.12C210.884 435.12 211.151 435.141 211.428 435.184C211.706 435.216 211.919 435.275 212.068 435.36L211.812 436.464C211.695 436.421 211.54 436.384 211.348 436.352C211.167 436.309 210.975 436.288 210.772 436.288C210.324 436.288 209.994 436.395 209.78 436.608C209.567 436.811 209.46 437.083 209.46 437.424C209.46 437.797 209.551 438.08 209.732 438.272C209.924 438.464 210.164 438.597 210.452 438.672C210.751 438.736 211.06 438.768 211.38 438.768H211.684V439.808H211.38C210.74 439.808 210.266 439.925 209.956 440.16C209.658 440.384 209.508 440.763 209.508 441.296C209.508 441.605 209.567 441.888 209.684 442.144C209.812 442.4 210.026 442.603 210.324 442.752C210.634 442.901 211.06 442.976 211.604 442.976C212.148 442.976 212.57 442.901 212.868 442.752C213.178 442.603 213.396 442.389 213.524 442.112C213.652 441.824 213.716 441.483 213.716 441.088V435.232H215.14V440.992C215.14 442.112 214.852 442.917 214.276 443.408C213.711 443.899 212.82 444.144 211.604 444.144ZM222.433 444.16C221.75 444.16 221.158 444.027 220.657 443.76C220.166 443.483 219.83 443.099 219.649 442.608H219.585L219.505 444H218.337V435.232H219.761V440.304C219.761 440.837 219.851 441.307 220.033 441.712C220.225 442.107 220.497 442.416 220.849 442.64C221.211 442.853 221.643 442.96 222.145 442.96C222.774 442.96 223.243 442.795 223.553 442.464C223.862 442.133 224.017 441.648 224.017 441.008V435.232H225.441V441.104C225.441 441.808 225.318 442.384 225.073 442.832C224.838 443.28 224.497 443.616 224.049 443.84C223.601 444.053 223.062 444.16 222.433 444.16ZM231.621 444.16C230.725 444.16 230.031 443.957 229.541 443.552C229.05 443.136 228.709 442.576 228.517 441.872C228.325 441.157 228.229 440.347 228.229 439.44C228.229 438.395 228.325 437.552 228.517 436.912C228.719 436.272 229.013 435.808 229.397 435.52C229.781 435.221 230.25 435.072 230.805 435.072C231.178 435.072 231.493 435.136 231.749 435.264C232.015 435.392 232.202 435.605 232.309 435.904H232.373C232.479 435.595 232.671 435.381 232.949 435.264C233.226 435.136 233.551 435.072 233.925 435.072C234.618 435.072 235.151 435.259 235.525 435.632C235.909 435.995 236.101 436.555 236.101 437.312V444H234.677V437.328C234.677 436.912 234.586 436.629 234.405 436.48C234.223 436.331 233.994 436.256 233.717 436.256C233.407 436.256 233.178 436.331 233.029 436.48C232.89 436.629 232.805 436.875 232.773 437.216H231.877C231.834 436.843 231.722 436.592 231.541 436.464C231.359 436.325 231.157 436.256 230.933 436.256C230.506 436.256 230.186 436.507 229.973 437.008C229.759 437.499 229.653 438.315 229.653 439.456C229.653 440.192 229.706 440.821 229.813 441.344C229.93 441.867 230.143 442.272 230.453 442.56C230.762 442.837 231.21 442.976 231.797 442.976C232.01 442.976 232.186 442.965 232.325 442.944C232.463 442.923 232.597 442.896 232.725 442.864L232.869 443.952C232.709 444.027 232.517 444.08 232.293 444.112C232.069 444.144 231.845 444.16 231.621 444.16ZM234.354 433.84C233.906 433.84 233.549 433.776 233.282 433.648C233.015 433.52 232.823 433.355 232.706 433.152C232.578 432.949 232.514 432.736 232.514 432.512C232.514 432.352 232.541 432.181 232.594 432C232.637 431.808 232.695 431.653 232.77 431.536L233.97 431.744C233.949 431.787 233.927 431.861 233.906 431.968C233.885 432.064 233.874 432.155 233.874 432.24C233.874 432.379 233.917 432.501 234.002 432.608C234.087 432.704 234.231 432.752 234.434 432.752H238.482V433.84H234.354ZM241.408 444.16C240.992 444.16 240.587 444.117 240.192 444.032C239.808 443.947 239.398 443.787 238.96 443.552L239.408 442.464C239.643 442.603 239.91 442.725 240.208 442.832C240.507 442.928 240.854 442.976 241.248 442.976C242.038 442.976 242.651 442.688 243.088 442.112C243.536 441.525 243.76 440.683 243.76 439.584C243.76 438.507 243.531 437.685 243.072 437.12C242.624 436.544 241.931 436.256 240.992 436.256C240.651 436.256 240.304 436.293 239.952 436.368C239.6 436.443 239.291 436.555 239.024 436.704V435.504C239.334 435.344 239.67 435.232 240.032 435.168C240.406 435.104 240.779 435.072 241.152 435.072C242.112 435.072 242.891 435.264 243.488 435.648C244.086 436.021 244.523 436.544 244.8 437.216C245.078 437.888 245.216 438.677 245.216 439.584C245.216 440.992 244.896 442.107 244.256 442.928C243.627 443.749 242.678 444.16 241.408 444.16ZM253.14 444V438.16C253.14 437.467 252.98 436.976 252.66 436.688C252.35 436.389 251.828 436.24 251.092 436.24C250.558 436.24 250.046 436.315 249.556 436.464C249.076 436.603 248.617 436.8 248.18 437.056V435.728C248.489 435.568 248.905 435.419 249.428 435.28C249.961 435.141 250.558 435.072 251.22 435.072C251.785 435.072 252.265 435.136 252.66 435.264C253.065 435.392 253.364 435.627 253.556 435.968C253.929 436.139 254.185 436.405 254.324 436.768C254.473 437.131 254.548 437.568 254.548 438.08V444H253.14ZM250.388 444.16C249.449 444.16 248.729 443.947 248.228 443.52C247.737 443.083 247.492 442.459 247.492 441.648C247.492 440.763 247.812 440.08 248.452 439.6C249.102 439.12 250.153 438.837 251.604 438.752L253.428 438.64V439.824L251.796 439.936C250.708 440.011 249.956 440.181 249.54 440.448C249.134 440.715 248.932 441.104 248.932 441.616C248.932 442.096 249.081 442.448 249.38 442.672C249.689 442.896 250.116 443.008 250.66 443.008C250.841 443.008 251.006 442.997 251.156 442.976C251.305 442.944 251.449 442.907 251.588 442.864L251.812 443.936C251.609 444.011 251.385 444.064 251.14 444.096C250.905 444.139 250.654 444.16 250.388 444.16ZM253.508 436.464L252.708 435.712C252.985 435.669 253.246 435.563 253.492 435.392C253.737 435.221 253.86 434.976 253.86 434.656H255.252C255.252 434.987 255.172 435.28 255.012 435.536C254.862 435.781 254.654 435.984 254.388 436.144C254.121 436.293 253.828 436.4 253.508 436.464ZM260.744 444.16C259.592 444.16 258.728 443.861 258.152 443.264C257.586 442.656 257.304 441.707 257.304 440.416C257.304 440.203 257.309 439.973 257.32 439.728C257.341 439.472 257.362 439.221 257.384 438.976H260.744V440.096H258.728V440.416C258.728 441.088 258.802 441.616 258.952 442C259.101 442.373 259.32 442.635 259.608 442.784C259.906 442.933 260.274 443.008 260.712 443.008C261.192 443.008 261.608 442.917 261.96 442.736C262.312 442.555 262.584 442.224 262.776 441.744C262.968 441.264 263.064 440.576 263.064 439.68C263.064 438.891 262.978 438.245 262.808 437.744C262.637 437.243 262.354 436.869 261.96 436.624C261.576 436.379 261.053 436.256 260.392 436.256C260.05 436.256 259.72 436.288 259.4 436.352C259.08 436.405 258.77 436.491 258.472 436.608C258.173 436.715 257.88 436.853 257.592 437.024V435.696C257.805 435.579 258.066 435.477 258.376 435.392C258.685 435.296 259.026 435.221 259.4 435.168C259.773 435.104 260.162 435.072 260.568 435.072C261.506 435.072 262.264 435.264 262.84 435.648C263.426 436.021 263.853 436.555 264.12 437.248C264.386 437.931 264.52 438.741 264.52 439.68C264.52 440.619 264.397 441.424 264.152 442.096C263.906 442.768 263.506 443.28 262.952 443.632C262.408 443.984 261.672 444.16 260.744 444.16ZM270.827 444.16C269.569 444.16 268.667 443.872 268.123 443.296C267.579 442.72 267.307 441.899 267.307 440.832V435.232H268.731V440.848C268.731 441.563 268.902 442.096 269.243 442.448C269.585 442.8 270.113 442.976 270.827 442.976C271.553 442.976 272.086 442.8 272.427 442.448C272.779 442.096 272.955 441.563 272.955 440.848V435.232H274.379V440.832C274.379 441.899 274.102 442.72 273.547 443.296C273.003 443.872 272.097 444.16 270.827 444.16ZM279.428 444.16C279.14 444.16 278.862 444.112 278.596 444.016C278.329 443.92 278.11 443.749 277.94 443.504C277.769 443.259 277.684 442.917 277.684 442.48V435.232H279.108V442.304C279.108 442.549 279.161 442.725 279.268 442.832C279.374 442.939 279.545 442.992 279.78 442.992C279.876 442.992 279.977 442.981 280.084 442.96C280.19 442.939 280.292 442.912 280.388 442.88L280.58 443.92C280.377 444.016 280.18 444.08 279.988 444.112C279.796 444.144 279.609 444.16 279.428 444.16ZM285.414 444.16C284.817 444.16 284.294 444.059 283.846 443.856C283.409 443.643 283.068 443.323 282.822 442.896C282.588 442.459 282.47 441.899 282.47 441.216V438.992H283.878V441.104C283.878 441.691 284.033 442.149 284.342 442.48C284.652 442.8 285.116 442.96 285.734 442.96C286.492 442.96 287.078 442.725 287.494 442.256C287.91 441.776 288.118 441.147 288.118 440.368V438.928C288.118 438.224 288.012 437.68 287.798 437.296C287.596 436.912 287.302 436.645 286.918 436.496C286.534 436.336 286.07 436.256 285.526 436.256C285.014 436.256 284.513 436.32 284.022 436.448C283.542 436.576 283.073 436.784 282.614 437.072V435.744C282.924 435.563 283.35 435.408 283.894 435.28C284.449 435.141 285.052 435.072 285.702 435.072C286.609 435.072 287.345 435.216 287.91 435.504C288.476 435.792 288.886 436.213 289.142 436.768C289.409 437.323 289.542 438.011 289.542 438.832V444H288.374L288.294 442.704H288.23C288.049 443.131 287.713 443.483 287.222 443.76C286.742 444.027 286.14 444.16 285.414 444.16ZM293.551 444L291.967 435.232H293.423L294.047 439.04C294.1 439.349 294.153 439.749 294.207 440.24C294.26 440.731 294.324 441.312 294.399 441.984H294.447C294.543 441.525 294.633 441.115 294.719 440.752C294.815 440.389 294.9 440.064 294.975 439.776C295.06 439.477 295.135 439.216 295.199 438.992L296.271 435.232H297.439L298.527 438.992C298.591 439.216 298.66 439.477 298.735 439.776C298.82 440.064 298.905 440.389 298.991 440.752C299.087 441.115 299.183 441.525 299.279 441.984H299.343C299.407 441.312 299.465 440.731 299.519 440.24C299.572 439.749 299.625 439.349 299.679 439.04L300.319 435.232H301.775L300.191 444H298.799L297.327 439.232C297.252 438.965 297.177 438.688 297.103 438.4C297.039 438.112 296.975 437.733 296.911 437.264H296.847C296.804 437.573 296.756 437.845 296.703 438.08C296.649 438.315 296.596 438.523 296.543 438.704C296.489 438.885 296.436 439.061 296.383 439.232L294.943 444H293.551ZM306.692 444V437.776C306.692 437.253 306.569 436.869 306.324 436.624C306.089 436.379 305.689 436.256 305.124 436.256C304.74 436.256 304.377 436.309 304.036 436.416C303.705 436.512 303.385 436.651 303.076 436.832V435.552C303.289 435.445 303.593 435.339 303.988 435.232C304.382 435.125 304.852 435.072 305.396 435.072C305.95 435.072 306.43 435.152 306.836 435.312C307.241 435.472 307.556 435.739 307.78 436.112C308.004 436.475 308.116 436.96 308.116 437.568V444H306.692ZM312.344 438.496C311.906 438.496 311.549 438.432 311.272 438.304C311.005 438.165 310.813 437.995 310.696 437.792C310.578 437.579 310.52 437.355 310.52 437.12C310.52 436.96 310.541 436.795 310.584 436.624C310.637 436.453 310.701 436.309 310.776 436.192L311.976 436.384C311.954 436.437 311.928 436.512 311.896 436.608C311.874 436.704 311.864 436.8 311.864 436.896C311.864 437.035 311.901 437.152 311.976 437.248C312.05 437.333 312.189 437.376 312.392 437.376H314.68V438.496H312.344ZM312.344 442.976C311.906 442.976 311.549 442.912 311.272 442.784C311.005 442.645 310.813 442.475 310.696 442.272C310.578 442.059 310.52 441.835 310.52 441.6C310.52 441.44 310.541 441.275 310.584 441.104C310.637 440.933 310.701 440.789 310.776 440.672L311.976 440.864C311.954 440.917 311.928 440.992 311.896 441.088C311.874 441.184 311.864 441.28 311.864 441.376C311.864 441.515 311.901 441.632 311.976 441.728C312.05 441.813 312.189 441.856 312.392 441.856H314.68V442.976H312.344ZM322.214 444V438.16C322.214 437.467 322.054 436.976 321.734 436.688C321.425 436.389 320.902 436.24 320.166 436.24C319.633 436.24 319.121 436.315 318.63 436.464C318.15 436.603 317.691 436.8 317.254 437.056V435.728C317.563 435.568 317.979 435.419 318.502 435.28C319.035 435.141 319.633 435.072 320.294 435.072C320.859 435.072 321.339 435.136 321.734 435.264C322.139 435.392 322.438 435.627 322.63 435.968C323.003 436.139 323.259 436.405 323.398 436.768C323.547 437.131 323.622 437.568 323.622 438.08V444H322.214ZM319.462 444.16C318.523 444.16 317.803 443.947 317.302 443.52C316.811 443.083 316.566 442.459 316.566 441.648C316.566 440.763 316.886 440.08 317.526 439.6C318.177 439.12 319.227 438.837 320.678 438.752L322.502 438.64V439.824L320.87 439.936C319.782 440.011 319.03 440.181 318.614 440.448C318.209 440.715 318.006 441.104 318.006 441.616C318.006 442.096 318.155 442.448 318.454 442.672C318.763 442.896 319.19 443.008 319.734 443.008C319.915 443.008 320.081 442.997 320.23 442.976C320.379 442.944 320.523 442.907 320.662 442.864L320.886 443.936C320.683 444.011 320.459 444.064 320.214 444.096C319.979 444.139 319.729 444.16 319.462 444.16ZM322.582 436.464L321.782 435.712C322.059 435.669 322.321 435.563 322.566 435.392C322.811 435.221 322.934 434.976 322.934 434.656H324.326C324.326 434.987 324.246 435.28 324.086 435.536C323.937 435.781 323.729 435.984 323.462 436.144C323.195 436.293 322.902 436.4 322.582 436.464ZM329.738 444.16C329.109 444.16 328.565 444.053 328.106 443.84C327.658 443.616 327.311 443.28 327.066 442.832C326.831 442.384 326.714 441.803 326.714 441.088V435.232H328.138V441.008C328.138 441.648 328.298 442.133 328.618 442.464C328.949 442.795 329.423 442.96 330.042 442.96C330.789 442.96 331.365 442.72 331.77 442.24C332.186 441.76 332.394 441.115 332.394 440.304V435.232H333.818V444H332.634L332.57 442.704H332.49C332.298 443.131 331.962 443.483 331.482 443.76C331.013 444.027 330.431 444.16 329.738 444.16ZM339.487 444V437.776C339.487 437.253 339.364 436.869 339.119 436.624C338.884 436.379 338.484 436.256 337.919 436.256C337.535 436.256 337.172 436.309 336.831 436.416C336.5 436.512 336.18 436.651 335.871 436.832V435.552C336.084 435.445 336.388 435.339 336.783 435.232C337.177 435.125 337.647 435.072 338.191 435.072C338.745 435.072 339.225 435.152 339.631 435.312C340.036 435.472 340.351 435.739 340.575 436.112C340.799 436.475 340.911 436.96 340.911 437.568V444H339.487ZM348.211 444.16C347.528 444.16 346.936 444.027 346.435 443.76C345.944 443.483 345.608 443.099 345.427 442.608H345.363L345.283 444H344.115V435.232H345.539V440.304C345.539 440.837 345.629 441.307 345.811 441.712C346.003 442.107 346.275 442.416 346.627 442.64C346.989 442.853 347.421 442.96 347.923 442.96C348.552 442.96 349.021 442.795 349.331 442.464C349.64 442.133 349.795 441.648 349.795 441.008V435.232H351.219V441.104C351.219 441.808 351.096 442.384 350.851 442.832C350.616 443.28 350.275 443.616 349.827 443.84C349.379 444.053 348.84 444.16 348.211 444.16Z" fill="black"/>
<defs>
<filter id="filter0_d_906_3735" x="0" y="0" width="437" height="599" filterUnits="userSpaceOnUse" color-interpolation-filters="sRGB">
<feFlood flood-opacity="0" result="BackgroundImageFix"/>
<feColorMatrix in="SourceAlpha" type="matrix" values="0 0 0 0 0 0 0 0 0 0 0 0 0 0 0 0 0 0 127 0" result="hardAlpha"/>
<feOffset dy="4"/>
<feGaussianBlur stdDeviation="10"/>
<feComposite in2="hardAlpha" operator="out"/>
<feColorMatrix type="matrix" values="0 0 0 0 0 0 0 0 0 0 0 0 0 0 0 0 0 0 0.25 0"/>
<feBlend mode="normal" in2="BackgroundImageFix" result="effect1_dropShadow_906_3735"/>
<feBlend mode="normal" in="SourceGraphic" in2="effect1_dropShadow_906_3735" result="shape"/>
</filter>
</defs>
</svg>
