<svg width="437" height="599" viewBox="0 0 437 599" fill="none" xmlns="http://www.w3.org/2000/svg">
<g filter="url(#filter0_d_899_3044)">
<rect x="20" y="16" width="397" height="559" rx="55" fill="#FBFBFB"/>
</g>
<path d="M125.645 114.312C123.565 114.312 122.053 113.832 121.109 112.872C120.181 111.896 119.717 110.488 119.717 108.648V100.848H123.317V108.84C123.317 109.688 123.501 110.336 123.869 110.784C124.253 111.216 124.845 111.432 125.645 111.432C126.445 111.432 127.029 111.216 127.397 110.784C127.781 110.336 127.973 109.688 127.973 108.84V96.12H131.573V108.648C131.573 110.488 131.101 111.896 130.157 112.872C129.229 113.832 127.725 114.312 125.645 114.312ZM140.184 114.312C139.24 114.312 138.288 114.208 137.328 114C136.384 113.792 135.544 113.496 134.808 113.112L135.816 110.256C136.136 110.432 136.52 110.616 136.968 110.808C137.416 111 137.904 111.16 138.432 111.288C138.96 111.416 139.496 111.48 140.04 111.48C140.68 111.48 141.16 111.392 141.48 111.216C141.816 111.024 141.984 110.736 141.984 110.352C141.984 110.064 141.872 109.832 141.648 109.656C141.44 109.464 141.128 109.288 140.712 109.128C140.296 108.952 139.8 108.768 139.224 108.576C138.376 108.272 137.648 107.944 137.04 107.592C136.432 107.24 135.96 106.808 135.624 106.296C135.304 105.784 135.144 105.144 135.144 104.376C135.144 103.496 135.368 102.776 135.816 102.216C136.264 101.656 136.896 101.24 137.712 100.968C138.528 100.68 139.48 100.536 140.568 100.536C141.464 100.536 142.272 100.608 142.992 100.752C143.712 100.896 144.272 101.08 144.672 101.304V104.136C144.4 104.008 144.04 103.88 143.592 103.752C143.16 103.624 142.688 103.52 142.176 103.44C141.68 103.344 141.2 103.296 140.736 103.296C140.08 103.296 139.584 103.384 139.248 103.56C138.912 103.736 138.744 103.984 138.744 104.304C138.744 104.56 138.856 104.776 139.08 104.952C139.32 105.128 139.664 105.296 140.112 105.456C140.56 105.6 141.096 105.784 141.72 106.008C142.552 106.296 143.256 106.616 143.832 106.968C144.408 107.32 144.84 107.752 145.128 108.264C145.432 108.776 145.584 109.408 145.584 110.16C145.584 110.88 145.416 111.56 145.08 112.2C144.76 112.824 144.208 113.336 143.424 113.736C142.64 114.12 141.56 114.312 140.184 114.312ZM151.07 106.248C150.334 106.248 149.75 106.136 149.318 105.912C148.886 105.688 148.574 105.392 148.382 105.024C148.19 104.64 148.094 104.24 148.094 103.824C148.094 103.552 148.134 103.272 148.214 102.984C148.294 102.68 148.414 102.384 148.574 102.096L151.19 102.432C151.158 102.544 151.126 102.664 151.094 102.792C151.078 102.92 151.07 103.056 151.07 103.2C151.07 103.408 151.134 103.576 151.262 103.704C151.39 103.816 151.614 103.872 151.934 103.872H154.646V106.248H151.07ZM151.07 112.968C150.334 112.968 149.75 112.856 149.318 112.632C148.886 112.408 148.574 112.112 148.382 111.744C148.19 111.36 148.094 110.96 148.094 110.544C148.094 110.272 148.134 109.992 148.214 109.704C148.294 109.4 148.414 109.104 148.574 108.816L151.19 109.152C151.158 109.264 151.126 109.384 151.094 109.512C151.078 109.64 151.07 109.776 151.07 109.92C151.07 110.128 151.134 110.296 151.262 110.424C151.39 110.536 151.614 110.592 151.934 110.592H154.646V112.968H151.07ZM161.831 114.24C161.111 114.24 160.503 114.128 160.007 113.904C159.511 113.68 159.135 113.344 158.879 112.896C158.623 112.432 158.495 111.856 158.495 111.168V100.848H162.095V110.736C162.095 111.04 162.159 111.264 162.287 111.408C162.431 111.552 162.647 111.624 162.935 111.624C163.063 111.624 163.199 111.608 163.343 111.576C163.487 111.544 163.623 111.504 163.751 111.456L164.087 113.76C163.783 113.92 163.439 114.04 163.055 114.12C162.671 114.2 162.263 114.24 161.831 114.24ZM168.091 114.24C167.643 114.24 167.235 114.192 166.867 114.096C166.499 114.016 166.171 113.896 165.883 113.736L166.219 111.744C166.331 111.776 166.435 111.8 166.531 111.816C166.643 111.832 166.747 111.84 166.843 111.84C167.115 111.84 167.307 111.776 167.419 111.648C167.547 111.504 167.611 111.288 167.611 111V109.248C167.611 108.464 167.771 107.856 168.091 107.424C168.411 106.976 168.899 106.672 169.555 106.512L169.579 106.416L166.963 105.48V104.856C166.963 104.072 167.187 103.352 167.635 102.696C168.083 102.04 168.755 101.52 169.651 101.136C170.547 100.736 171.651 100.536 172.963 100.536C174.195 100.536 175.259 100.728 176.155 101.112C177.051 101.48 177.739 102.04 178.219 102.792C178.715 103.528 178.963 104.464 178.963 105.6V114H175.363V105.816C175.363 105.016 175.147 104.416 174.715 104.016C174.299 103.616 173.699 103.416 172.915 103.416C172.179 103.416 171.627 103.576 171.259 103.896C170.891 104.2 170.691 104.576 170.659 105.024L172.747 105.96L172.483 107.52C172.035 107.52 171.691 107.672 171.451 107.976C171.227 108.264 171.115 108.736 171.115 109.392V111.408C171.115 112.432 170.827 113.16 170.251 113.592C169.691 114.024 168.971 114.24 168.091 114.24ZM183.204 114V100.848H185.844L186.324 102.912H186.516C186.788 102.256 187.26 101.712 187.932 101.28C188.604 100.832 189.476 100.608 190.548 100.608C191.572 100.608 192.42 100.792 193.092 101.16C193.764 101.512 194.268 102.056 194.604 102.792C194.956 103.512 195.132 104.424 195.132 105.528V114H191.532V106.248C191.532 105.352 191.348 104.712 190.98 104.328C190.628 103.928 190.108 103.728 189.42 103.728C188.86 103.728 188.38 103.88 187.98 104.184C187.596 104.488 187.3 104.936 187.092 105.528C186.9 106.104 186.804 106.832 186.804 107.712V114H183.204ZM204.602 114.312C202.81 114.312 201.458 113.912 200.546 113.112C199.634 112.312 199.178 111.144 199.178 109.608V108.648C199.178 107.992 199.266 107.456 199.442 107.04C199.618 106.608 199.834 106.216 200.09 105.864C200.346 105.512 200.554 105.2 200.714 104.928C200.89 104.64 200.978 104.344 200.978 104.04C200.978 103.752 200.906 103.552 200.762 103.44C200.634 103.312 200.458 103.248 200.234 103.248C200.074 103.248 199.906 103.272 199.73 103.32C199.57 103.368 199.386 103.44 199.178 103.536L198.602 101.28C199.05 101.04 199.53 100.88 200.042 100.8C200.57 100.704 201.034 100.656 201.434 100.656C202.138 100.656 202.698 100.768 203.114 100.992C203.546 101.216 203.858 101.536 204.05 101.952C204.242 102.368 204.338 102.864 204.338 103.44C204.338 103.936 204.266 104.376 204.122 104.76C203.978 105.128 203.794 105.512 203.57 105.912C203.362 106.28 203.17 106.624 202.994 106.944C202.834 107.264 202.754 107.728 202.754 108.336V109.296C202.754 109.808 202.826 110.232 202.97 110.568C203.13 110.888 203.346 111.128 203.618 111.288C203.906 111.432 204.242 111.504 204.626 111.504C205.25 111.504 205.714 111.328 206.018 110.976C206.322 110.608 206.474 110.088 206.474 109.416V100.848H210.05V109.512C210.05 111.096 209.586 112.296 208.658 113.112C207.73 113.912 206.378 114.312 204.602 114.312ZM219.357 114.312C217.405 114.312 215.957 113.84 215.013 112.896C214.069 111.936 213.597 110.52 213.597 108.648C213.597 108.328 213.605 107.944 213.621 107.496C213.653 107.032 213.693 106.624 213.741 106.272H219.501V108.552H217.125V108.888C217.125 109.528 217.205 110.056 217.365 110.472C217.525 110.872 217.765 111.168 218.085 111.36C218.421 111.552 218.837 111.648 219.333 111.648C219.877 111.648 220.333 111.528 220.701 111.288C221.085 111.048 221.373 110.64 221.565 110.064C221.773 109.488 221.877 108.696 221.877 107.688C221.877 106.744 221.765 105.96 221.541 105.336C221.333 104.696 220.973 104.216 220.461 103.896C219.965 103.576 219.277 103.416 218.397 103.416C217.917 103.416 217.421 103.472 216.909 103.584C216.397 103.68 215.909 103.808 215.445 103.968C214.997 104.128 214.605 104.304 214.269 104.496V101.496C214.621 101.304 215.053 101.136 215.565 100.992C216.093 100.848 216.661 100.736 217.269 100.656C217.877 100.576 218.477 100.536 219.069 100.536C220.621 100.536 221.869 100.824 222.813 101.4C223.773 101.96 224.469 102.76 224.901 103.8C225.349 104.84 225.573 106.072 225.573 107.496C225.573 108.952 225.357 110.192 224.925 111.216C224.509 112.224 223.845 112.992 222.933 113.52C222.021 114.048 220.829 114.312 219.357 114.312ZM231.327 114L227.511 100.848H231.135L234.039 111.096H234.183C234.439 111.096 234.679 111.024 234.903 110.88C235.127 110.736 235.319 110.544 235.479 110.304C235.799 109.856 236.039 109.328 236.199 108.72C236.359 108.096 236.439 107.48 236.439 106.872C236.439 105.8 236.231 104.976 235.815 104.4C235.415 103.824 234.855 103.536 234.135 103.536C233.991 103.536 233.855 103.544 233.727 103.56C233.615 103.576 233.511 103.608 233.415 103.656L232.743 100.896C233.111 100.784 233.455 100.72 233.775 100.704C234.111 100.672 234.383 100.656 234.591 100.656C235.439 100.656 236.175 100.768 236.799 100.992C237.423 101.216 237.959 101.552 238.407 102C238.967 102.544 239.383 103.224 239.655 104.04C239.943 104.856 240.087 105.776 240.087 106.8C240.087 108.096 239.879 109.232 239.463 110.208C239.063 111.168 238.575 111.928 237.999 112.488C237.519 112.952 236.911 113.32 236.175 113.592C235.455 113.864 234.463 114 233.199 114H231.327ZM243.718 114V100.848H247.27V105.768H247.366L251.446 100.848H255.406V100.968L247.27 109.992V114H243.718ZM251.758 114V109.656C251.758 108.808 251.51 108.2 251.014 107.832C250.534 107.448 249.83 107.256 248.902 107.256L251.014 104.76C251.974 104.76 252.774 104.952 253.414 105.336C254.054 105.72 254.534 106.24 254.854 106.896C255.19 107.536 255.358 108.272 255.358 109.104V114H251.758ZM263.64 114.24C262.664 114.24 261.84 114.056 261.168 113.688C260.512 113.304 260.008 112.736 259.656 111.984C259.32 111.232 259.152 110.312 259.152 109.224V100.848H262.752V108.6C262.752 109.48 262.928 110.12 263.28 110.52C263.632 110.92 264.144 111.12 264.816 111.12C265.664 111.12 266.32 110.8 266.784 110.16C267.248 109.504 267.48 108.496 267.48 107.136V100.848H271.08V114H268.344L267.96 111.984H267.744C267.472 112.624 267 113.16 266.328 113.592C265.672 114.024 264.776 114.24 263.64 114.24ZM268.307 99.024C267.555 99.024 266.963 98.912 266.531 98.688C266.099 98.464 265.795 98.184 265.619 97.848C265.427 97.496 265.331 97.128 265.331 96.744C265.331 96.472 265.371 96.184 265.451 95.88C265.531 95.56 265.651 95.264 265.811 94.992L268.427 95.328C268.395 95.44 268.371 95.56 268.355 95.688C268.323 95.8 268.307 95.904 268.307 96C268.307 96.224 268.379 96.4 268.523 96.528C268.651 96.64 268.875 96.696 269.195 96.696H274.355V99.024H268.307ZM278.363 114L274.547 100.848H278.171L281.075 111.096H281.219C281.475 111.096 281.715 111.024 281.939 110.88C282.163 110.736 282.355 110.544 282.515 110.304C282.835 109.856 283.075 109.328 283.235 108.72C283.395 108.096 283.475 107.48 283.475 106.872C283.475 105.8 283.267 104.976 282.851 104.4C282.451 103.824 281.891 103.536 281.171 103.536C281.027 103.536 280.891 103.544 280.763 103.56C280.651 103.576 280.547 103.608 280.451 103.656L279.779 100.896C280.147 100.784 280.491 100.72 280.811 100.704C281.147 100.672 281.419 100.656 281.627 100.656C282.475 100.656 283.211 100.768 283.835 100.992C284.459 101.216 284.995 101.552 285.443 102C286.003 102.544 286.419 103.224 286.691 104.04C286.979 104.856 287.123 105.776 287.123 106.8C287.123 108.096 286.915 109.232 286.499 110.208C286.099 111.168 285.611 111.928 285.035 112.488C284.555 112.952 283.947 113.32 283.211 113.592C282.491 113.864 281.499 114 280.235 114H278.363ZM298.026 114V105.456C298.026 104.688 297.818 104.136 297.402 103.8C296.986 103.464 296.346 103.296 295.482 103.296C294.65 103.296 293.834 103.424 293.034 103.68C292.25 103.92 291.57 104.208 290.994 104.544V101.568C291.458 101.344 292.114 101.12 292.962 100.896C293.81 100.656 294.786 100.536 295.89 100.536C296.738 100.536 297.498 100.64 298.17 100.848C298.858 101.056 299.354 101.464 299.658 102.072C300.33 102.28 300.81 102.688 301.098 103.296C301.402 103.888 301.554 104.656 301.554 105.6V114H298.026ZM294.09 114.24C292.714 114.24 291.65 113.912 290.898 113.256C290.162 112.6 289.794 111.68 289.794 110.496C289.794 109.216 290.25 108.192 291.162 107.424C292.09 106.656 293.546 106.192 295.53 106.032L298.602 105.792V108.384L295.938 108.648C294.978 108.744 294.306 108.936 293.922 109.224C293.554 109.512 293.37 109.896 293.37 110.376C293.37 110.856 293.522 111.216 293.826 111.456C294.146 111.696 294.554 111.816 295.05 111.816C295.242 111.816 295.434 111.8 295.626 111.768C295.818 111.72 295.994 111.672 296.154 111.624L296.466 113.88C296.162 113.992 295.802 114.08 295.386 114.144C294.97 114.208 294.538 114.24 294.09 114.24ZM299.586 103.464L297.618 101.808C298.178 101.616 298.618 101.376 298.938 101.088C299.258 100.784 299.426 100.416 299.442 99.984H302.586C302.586 100.48 302.482 100.96 302.274 101.424C302.082 101.872 301.762 102.272 301.314 102.624C300.882 102.976 300.306 103.256 299.586 103.464ZM291.316 99.024V97.512L293.74 96.504H302.308V99.024H291.316ZM296.356 97.56V94.848H298.636V97.56H296.356ZM300.052 97.56V94.848H302.308V97.56H300.052ZM311.648 114.312C309.696 114.312 308.248 113.84 307.304 112.896C306.36 111.936 305.888 110.52 305.888 108.648C305.888 108.328 305.896 107.944 305.912 107.496C305.944 107.032 305.984 106.624 306.032 106.272H311.792V108.552H309.416V108.888C309.416 109.528 309.496 110.056 309.656 110.472C309.816 110.872 310.056 111.168 310.376 111.36C310.712 111.552 311.128 111.648 311.624 111.648C312.168 111.648 312.624 111.528 312.992 111.288C313.376 111.048 313.664 110.64 313.856 110.064C314.064 109.488 314.168 108.696 314.168 107.688C314.168 106.744 314.056 105.96 313.832 105.336C313.624 104.696 313.264 104.216 312.752 103.896C312.256 103.576 311.568 103.416 310.688 103.416C310.208 103.416 309.712 103.472 309.2 103.584C308.688 103.68 308.2 103.808 307.736 103.968C307.288 104.128 306.896 104.304 306.56 104.496V101.496C306.912 101.304 307.344 101.136 307.856 100.992C308.384 100.848 308.952 100.736 309.56 100.656C310.168 100.576 310.768 100.536 311.36 100.536C312.912 100.536 314.16 100.824 315.104 101.4C316.064 101.96 316.76 102.76 317.192 103.8C317.64 104.84 317.864 106.072 317.864 107.496C317.864 108.952 317.648 110.192 317.216 111.216C316.8 112.224 316.136 112.992 315.224 113.52C314.312 114.048 313.12 114.312 311.648 114.312Z" fill="#252525"/>
<path d="M144.59 167.2C143.99 167.2 143.483 167.107 143.07 166.92C142.657 166.733 142.343 166.453 142.13 166.08C141.917 165.693 141.81 165.213 141.81 164.64V156.04H144.81V164.28C144.81 164.533 144.863 164.72 144.97 164.84C145.09 164.96 145.27 165.02 145.51 165.02C145.617 165.02 145.73 165.007 145.85 164.98C145.97 164.953 146.083 164.92 146.19 164.88L146.47 166.8C146.217 166.933 145.93 167.033 145.61 167.1C145.29 167.167 144.95 167.2 144.59 167.2ZM150.61 167.2C150.01 167.2 149.503 167.107 149.09 166.92C148.677 166.733 148.363 166.453 148.15 166.08C147.937 165.693 147.83 165.213 147.83 164.64V156.04H150.83V164.28C150.83 164.533 150.883 164.72 150.99 164.84C151.11 164.96 151.29 165.02 151.53 165.02C151.637 165.02 151.75 165.007 151.87 164.98C151.99 164.953 152.103 164.92 152.21 164.88L152.49 166.8C152.237 166.933 151.95 167.033 151.63 167.1C151.31 167.167 150.97 167.2 150.61 167.2ZM159.745 167.26C158.012 167.26 156.752 166.86 155.965 166.06C155.192 165.247 154.805 164.073 154.805 162.54V156.04H157.805V162.7C157.805 163.407 157.959 163.947 158.265 164.32C158.585 164.68 159.079 164.86 159.745 164.86C160.412 164.86 160.899 164.68 161.205 164.32C161.525 163.947 161.685 163.407 161.685 162.7V156.04H164.685V162.54C164.685 164.073 164.292 165.247 163.505 166.06C162.732 166.86 161.479 167.26 159.745 167.26ZM162.417 154.52V149.98H165.177V154.52H162.417ZM170.561 167L167.381 156.04H170.401L172.821 164.58H172.941C173.155 164.58 173.355 164.52 173.541 164.4C173.728 164.28 173.888 164.12 174.021 163.92C174.288 163.547 174.488 163.107 174.621 162.6C174.755 162.08 174.821 161.567 174.821 161.06C174.821 160.167 174.648 159.48 174.301 159C173.968 158.52 173.501 158.28 172.901 158.28C172.781 158.28 172.668 158.287 172.561 158.3C172.468 158.313 172.381 158.34 172.301 158.38L171.741 156.08C172.048 155.987 172.335 155.933 172.601 155.92C172.881 155.893 173.108 155.88 173.281 155.88C173.988 155.88 174.601 155.973 175.121 156.16C175.641 156.347 176.088 156.627 176.461 157C176.928 157.453 177.275 158.02 177.501 158.7C177.741 159.38 177.861 160.147 177.861 161C177.861 162.08 177.688 163.027 177.341 163.84C177.008 164.64 176.601 165.273 176.121 165.74C175.721 166.127 175.215 166.433 174.601 166.66C174.001 166.887 173.175 167 172.121 167H170.561ZM183.787 167.2C183.187 167.2 182.68 167.107 182.267 166.92C181.854 166.733 181.54 166.453 181.327 166.08C181.114 165.693 181.007 165.213 181.007 164.64V156.04H184.007V164.28C184.007 164.533 184.06 164.72 184.167 164.84C184.287 164.96 184.467 165.02 184.707 165.02C184.814 165.02 184.927 165.007 185.047 164.98C185.167 164.953 185.28 164.92 185.387 164.88L185.667 166.8C185.414 166.933 185.127 167.033 184.807 167.1C184.487 167.167 184.147 167.2 183.787 167.2ZM192.927 167.26C191.193 167.26 189.933 166.86 189.147 166.06C188.373 165.247 187.987 164.073 187.987 162.54V156.04H190.987V162.7C190.987 163.407 191.14 163.947 191.447 164.32C191.767 164.68 192.26 164.86 192.927 164.86C193.593 164.86 194.08 164.68 194.387 164.32C194.707 163.947 194.867 163.407 194.867 162.7V152.1H197.867V162.54C197.867 164.073 197.473 165.247 196.687 166.06C195.913 166.86 194.66 167.26 192.927 167.26ZM192.761 154.7C192.401 154.7 192.094 154.627 191.841 154.48C191.574 154.333 191.361 154.107 191.201 153.8L190.421 154.64C189.648 154.64 189.034 154.44 188.581 154.04C188.128 153.627 187.901 153.033 187.901 152.26C187.901 151.447 188.128 150.847 188.581 150.46C189.034 150.06 189.548 149.86 190.121 149.86H194.561V151.32H190.581C190.354 151.32 190.161 151.4 190.001 151.56C189.841 151.72 189.761 151.967 189.761 152.3C189.761 152.54 189.814 152.74 189.921 152.9C190.014 153.06 190.168 153.14 190.381 153.14L191.121 152.28H191.541C191.554 152.56 191.621 152.787 191.741 152.96C191.848 153.12 192.008 153.2 192.221 153.2C192.394 153.2 192.534 153.14 192.641 153.02C192.734 152.887 192.781 152.713 192.781 152.5V152.2H194.581V152.6C194.581 153.32 194.414 153.853 194.081 154.2C193.748 154.533 193.308 154.7 192.761 154.7ZM205.622 167.2C204.809 167.2 204.122 167.047 203.562 166.74C203.015 166.42 202.595 165.947 202.302 165.32C202.022 164.693 201.882 163.927 201.882 163.02V156.04H204.882V162.5C204.882 163.233 205.029 163.767 205.322 164.1C205.615 164.433 206.042 164.6 206.602 164.6C207.309 164.6 207.855 164.333 208.242 163.8C208.629 163.253 208.822 162.413 208.822 161.28V156.04H211.822V167H209.542L209.222 165.32H209.042C208.815 165.853 208.422 166.3 207.862 166.66C207.315 167.02 206.569 167.2 205.622 167.2ZM225.796 167.199C224.735 167.199 223.791 167.017 222.962 166.652C222.138 166.283 221.487 165.776 221.009 165.132C220.536 164.483 220.292 163.735 220.278 162.888H223.374C223.393 163.243 223.509 163.555 223.722 163.825C223.94 164.09 224.229 164.296 224.589 164.443C224.948 164.59 225.353 164.663 225.803 164.663C226.272 164.663 226.686 164.58 227.046 164.415C227.406 164.249 227.688 164.019 227.891 163.726C228.095 163.432 228.197 163.094 228.197 162.71C228.197 162.322 228.088 161.979 227.87 161.68C227.657 161.377 227.349 161.141 226.947 160.97C226.549 160.8 226.075 160.714 225.526 160.714H224.17V158.456H225.526C225.99 158.456 226.4 158.375 226.755 158.214C227.115 158.054 227.394 157.831 227.593 157.547C227.792 157.258 227.891 156.922 227.891 156.538C227.891 156.174 227.804 155.854 227.628 155.58C227.458 155.3 227.216 155.082 226.904 154.926C226.596 154.77 226.236 154.692 225.824 154.692C225.408 154.692 225.027 154.768 224.681 154.919C224.335 155.066 224.058 155.277 223.85 155.551C223.642 155.826 223.53 156.148 223.516 156.517H220.569C220.583 155.679 220.822 154.94 221.286 154.301C221.75 153.662 222.375 153.162 223.161 152.803C223.952 152.438 224.844 152.256 225.839 152.256C226.842 152.256 227.721 152.438 228.474 152.803C229.226 153.167 229.811 153.66 230.228 154.28C230.649 154.895 230.858 155.587 230.853 156.354C230.858 157.168 230.604 157.848 230.093 158.392C229.586 158.937 228.926 159.282 228.111 159.429V159.543C229.181 159.68 229.996 160.052 230.555 160.658C231.118 161.259 231.397 162.012 231.393 162.916C231.397 163.745 231.158 164.481 230.675 165.125C230.197 165.769 229.537 166.276 228.694 166.645C227.851 167.014 226.885 167.199 225.796 167.199ZM244.593 167.26C242.86 167.26 241.6 166.86 240.813 166.06C240.04 165.247 239.653 164.073 239.653 162.54V156.04H242.653V162.7C242.653 163.407 242.806 163.947 243.113 164.32C243.433 164.68 243.926 164.86 244.593 164.86C245.26 164.86 245.746 164.68 246.053 164.32C246.373 163.947 246.533 163.407 246.533 162.7V152.1H249.533V162.54C249.533 164.073 249.14 165.247 248.353 166.06C247.58 166.86 246.326 167.26 244.593 167.26ZM256.708 167.26C255.922 167.26 255.128 167.173 254.328 167C253.542 166.827 252.842 166.58 252.228 166.26L253.068 163.88C253.335 164.027 253.655 164.18 254.028 164.34C254.402 164.5 254.808 164.633 255.248 164.74C255.688 164.847 256.135 164.9 256.588 164.9C257.122 164.9 257.522 164.827 257.788 164.68C258.068 164.52 258.208 164.28 258.208 163.96C258.208 163.72 258.115 163.527 257.928 163.38C257.755 163.22 257.495 163.073 257.148 162.94C256.802 162.793 256.388 162.64 255.908 162.48C255.202 162.227 254.595 161.953 254.088 161.66C253.582 161.367 253.188 161.007 252.908 160.58C252.642 160.153 252.508 159.62 252.508 158.98C252.508 158.247 252.695 157.647 253.068 157.18C253.442 156.713 253.968 156.367 254.648 156.14C255.328 155.9 256.122 155.78 257.028 155.78C257.775 155.78 258.448 155.84 259.048 155.96C259.648 156.08 260.115 156.233 260.448 156.42V158.78C260.222 158.673 259.922 158.567 259.548 158.46C259.188 158.353 258.795 158.267 258.368 158.2C257.955 158.12 257.555 158.08 257.168 158.08C256.622 158.08 256.208 158.153 255.928 158.3C255.648 158.447 255.508 158.653 255.508 158.92C255.508 159.133 255.602 159.313 255.788 159.46C255.988 159.607 256.275 159.747 256.648 159.88C257.022 160 257.468 160.153 257.988 160.34C258.682 160.58 259.268 160.847 259.748 161.14C260.228 161.433 260.588 161.793 260.828 162.22C261.082 162.647 261.208 163.173 261.208 163.8C261.208 164.4 261.068 164.967 260.788 165.5C260.522 166.02 260.062 166.447 259.408 166.78C258.755 167.1 257.855 167.26 256.708 167.26ZM265.78 160.54C265.167 160.54 264.68 160.447 264.32 160.26C263.96 160.073 263.7 159.827 263.54 159.52C263.38 159.2 263.3 158.867 263.3 158.52C263.3 158.293 263.333 158.06 263.4 157.82C263.467 157.567 263.567 157.32 263.7 157.08L265.88 157.36C265.853 157.453 265.827 157.553 265.8 157.66C265.787 157.767 265.78 157.88 265.78 158C265.78 158.173 265.833 158.313 265.94 158.42C266.047 158.513 266.233 158.56 266.5 158.56H268.76V160.54H265.78ZM265.78 166.14C265.167 166.14 264.68 166.047 264.32 165.86C263.96 165.673 263.7 165.427 263.54 165.12C263.38 164.8 263.3 164.467 263.3 164.12C263.3 163.893 263.333 163.66 263.4 163.42C263.467 163.167 263.567 162.92 263.7 162.68L265.88 162.96C265.853 163.053 265.827 163.153 265.8 163.26C265.787 163.367 265.78 163.48 265.78 163.6C265.78 163.773 265.833 163.913 265.94 164.02C266.047 164.113 266.233 164.16 266.5 164.16H268.76V166.14H265.78ZM274.748 167.2C274.148 167.2 273.641 167.107 273.228 166.92C272.815 166.733 272.501 166.453 272.288 166.08C272.075 165.693 271.968 165.213 271.968 164.64V156.04H274.968V164.28C274.968 164.533 275.021 164.72 275.128 164.84C275.248 164.96 275.428 165.02 275.668 165.02C275.775 165.02 275.888 165.007 276.008 164.98C276.128 164.953 276.241 164.92 276.348 164.88L276.628 166.8C276.375 166.933 276.088 167.033 275.768 167.1C275.448 167.167 275.108 167.2 274.748 167.2ZM279.964 167.2C279.591 167.2 279.251 167.16 278.944 167.08C278.638 167.013 278.364 166.913 278.124 166.78L278.404 165.12C278.498 165.147 278.584 165.167 278.664 165.18C278.758 165.193 278.844 165.2 278.924 165.2C279.151 165.2 279.311 165.147 279.404 165.04C279.511 164.92 279.564 164.74 279.564 164.5V163.04C279.564 162.387 279.698 161.88 279.964 161.52C280.231 161.147 280.638 160.893 281.184 160.76L281.204 160.68L279.024 159.9V159.38C279.024 158.727 279.211 158.127 279.584 157.58C279.958 157.033 280.518 156.6 281.264 156.28C282.011 155.947 282.931 155.78 284.024 155.78C285.051 155.78 285.938 155.94 286.684 156.26C287.431 156.567 288.004 157.033 288.404 157.66C288.818 158.273 289.024 159.053 289.024 160V167H286.024V160.18C286.024 159.513 285.844 159.013 285.484 158.68C285.138 158.347 284.638 158.18 283.984 158.18C283.371 158.18 282.911 158.313 282.604 158.58C282.298 158.833 282.131 159.147 282.104 159.52L283.844 160.3L283.624 161.6C283.251 161.6 282.964 161.727 282.764 161.98C282.578 162.22 282.484 162.613 282.484 163.16V164.84C282.484 165.693 282.244 166.3 281.764 166.66C281.298 167.02 280.698 167.2 279.964 167.2ZM292.559 167V156.04H294.759L295.159 157.76H295.319C295.545 157.213 295.939 156.76 296.499 156.4C297.059 156.027 297.785 155.84 298.679 155.84C299.532 155.84 300.239 155.993 300.799 156.3C301.359 156.593 301.779 157.047 302.059 157.66C302.352 158.26 302.499 159.02 302.499 159.94V167H299.499V160.54C299.499 159.793 299.345 159.26 299.039 158.94C298.745 158.607 298.312 158.44 297.739 158.44C297.272 158.44 296.872 158.567 296.539 158.82C296.219 159.073 295.972 159.447 295.799 159.94C295.639 160.42 295.559 161.027 295.559 161.76V167H292.559Z" fill="#252525"/>
<path d="M230.58 283V272.04H233.54V276.14H233.62L237.02 272.04H240.32V272.14L233.54 279.66V283H230.58ZM237.28 283V279.38C237.28 278.673 237.073 278.167 236.66 277.86C236.26 277.54 235.673 277.38 234.9 277.38L236.66 275.3C237.46 275.3 238.127 275.46 238.66 275.78C239.193 276.1 239.593 276.533 239.86 277.08C240.14 277.613 240.28 278.227 240.28 278.92V283H237.28ZM247.181 283.2C246.368 283.2 245.681 283.047 245.121 282.74C244.575 282.42 244.155 281.947 243.861 281.32C243.581 280.693 243.441 279.927 243.441 279.02V272.04H246.441V278.5C246.441 279.233 246.588 279.767 246.881 280.1C247.175 280.433 247.601 280.6 248.161 280.6C248.868 280.6 249.415 280.333 249.801 279.8C250.188 279.253 250.381 278.413 250.381 277.28V272.04H253.381V283H251.101L250.781 281.32H250.601C250.375 281.853 249.981 282.3 249.421 282.66C248.875 283.02 248.128 283.2 247.181 283.2ZM251.071 270.52C250.444 270.52 249.951 270.427 249.591 270.24C249.231 270.053 248.978 269.82 248.831 269.54C248.671 269.247 248.591 268.94 248.591 268.62C248.591 268.393 248.624 268.153 248.691 267.9C248.758 267.633 248.858 267.387 248.991 267.16L251.171 267.44C251.144 267.533 251.124 267.633 251.111 267.74C251.084 267.833 251.071 267.92 251.071 268C251.071 268.187 251.131 268.333 251.251 268.44C251.358 268.533 251.544 268.58 251.811 268.58H256.111V270.52H251.071ZM259.451 283L256.271 272.04H259.291L261.711 280.58H261.831C262.044 280.58 262.244 280.52 262.431 280.4C262.618 280.28 262.778 280.12 262.911 279.92C263.178 279.547 263.378 279.107 263.511 278.6C263.644 278.08 263.711 277.567 263.711 277.06C263.711 276.167 263.538 275.48 263.191 275C262.858 274.52 262.391 274.28 261.791 274.28C261.671 274.28 261.558 274.287 261.451 274.3C261.358 274.313 261.271 274.34 261.191 274.38L260.631 272.08C260.938 271.987 261.224 271.933 261.491 271.92C261.771 271.893 261.998 271.88 262.171 271.88C262.878 271.88 263.491 271.973 264.011 272.16C264.531 272.347 264.978 272.627 265.351 273C265.818 273.453 266.164 274.02 266.391 274.7C266.631 275.38 266.751 276.147 266.751 277C266.751 278.08 266.578 279.027 266.231 279.84C265.898 280.64 265.491 281.273 265.011 281.74C264.611 282.127 264.104 282.433 263.491 282.66C262.891 282.887 262.064 283 261.011 283H259.451ZM275.837 283V275.88C275.837 275.24 275.664 274.78 275.317 274.5C274.97 274.22 274.437 274.08 273.717 274.08C273.024 274.08 272.344 274.187 271.677 274.4C271.024 274.6 270.457 274.84 269.977 275.12V272.64C270.364 272.453 270.91 272.267 271.617 272.08C272.324 271.88 273.137 271.78 274.057 271.78C274.764 271.78 275.397 271.867 275.957 272.04C276.53 272.213 276.944 272.553 277.197 273.06C277.757 273.233 278.157 273.573 278.397 274.08C278.65 274.573 278.777 275.213 278.777 276V283H275.837ZM272.557 283.2C271.41 283.2 270.524 282.927 269.897 282.38C269.284 281.833 268.977 281.067 268.977 280.08C268.977 279.013 269.357 278.16 270.117 277.52C270.89 276.88 272.104 276.493 273.757 276.36L276.317 276.16V278.32L274.097 278.54C273.297 278.62 272.737 278.78 272.417 279.02C272.11 279.26 271.957 279.58 271.957 279.98C271.957 280.38 272.084 280.68 272.337 280.88C272.604 281.08 272.944 281.18 273.357 281.18C273.517 281.18 273.677 281.167 273.837 281.14C273.997 281.1 274.144 281.06 274.277 281.02L274.537 282.9C274.284 282.993 273.984 283.067 273.637 283.12C273.29 283.173 272.93 283.2 272.557 283.2ZM277.137 274.22L275.497 272.84C275.964 272.68 276.33 272.48 276.597 272.24C276.864 271.987 277.004 271.68 277.017 271.32H279.637C279.637 271.733 279.55 272.133 279.377 272.52C279.217 272.893 278.95 273.227 278.577 273.52C278.217 273.813 277.737 274.047 277.137 274.22ZM270.245 270.52V269.26L272.265 268.42H279.405V270.52H270.245ZM274.445 269.3V267.04H276.345V269.3H274.445ZM277.525 269.3V267.04H279.405V269.3H277.525ZM287.188 283.26C285.561 283.26 284.355 282.867 283.568 282.08C282.781 281.28 282.388 280.1 282.388 278.54C282.388 278.273 282.395 277.953 282.408 277.58C282.435 277.193 282.468 276.853 282.508 276.56H287.308V278.46H285.328V278.74C285.328 279.273 285.395 279.713 285.528 280.06C285.661 280.393 285.861 280.64 286.128 280.8C286.408 280.96 286.755 281.04 287.168 281.04C287.621 281.04 288.001 280.94 288.308 280.74C288.628 280.54 288.868 280.2 289.028 279.72C289.201 279.24 289.288 278.58 289.288 277.74C289.288 276.953 289.195 276.3 289.008 275.78C288.835 275.247 288.535 274.847 288.108 274.58C287.695 274.313 287.121 274.18 286.388 274.18C285.988 274.18 285.575 274.227 285.148 274.32C284.721 274.4 284.315 274.507 283.928 274.64C283.555 274.773 283.228 274.92 282.948 275.08V272.58C283.241 272.42 283.601 272.28 284.028 272.16C284.468 272.04 284.941 271.947 285.448 271.88C285.955 271.813 286.455 271.78 286.948 271.78C288.241 271.78 289.281 272.02 290.068 272.5C290.868 272.967 291.448 273.633 291.808 274.5C292.181 275.367 292.368 276.393 292.368 277.58C292.368 278.793 292.188 279.827 291.828 280.68C291.481 281.52 290.928 282.16 290.168 282.6C289.408 283.04 288.415 283.26 287.188 283.26ZM295.964 274.04V270.78C295.964 269.98 295.817 269.407 295.524 269.06C295.23 268.713 294.79 268.54 294.204 268.54V267.34L296.224 266.38H301.324V268.54H297.964L297.944 268.62C298.29 268.833 298.544 269.14 298.704 269.54C298.877 269.94 298.964 270.467 298.964 271.12V274.04H295.964ZM298.744 283.2C298.144 283.2 297.637 283.107 297.224 282.92C296.81 282.733 296.497 282.453 296.284 282.08C296.07 281.693 295.964 281.213 295.964 280.64V272.04H298.964V280.28C298.964 280.533 299.017 280.72 299.124 280.84C299.244 280.96 299.424 281.02 299.664 281.02C299.77 281.02 299.884 281.007 300.004 280.98C300.124 280.953 300.237 280.92 300.344 280.88L300.624 282.8C300.37 282.933 300.084 283.033 299.764 283.1C299.444 283.167 299.104 283.2 298.744 283.2ZM303.62 283V278.4H302.48V276.56H306.32V280.72H306.46C306.9 280.72 307.273 280.6 307.58 280.36C307.9 280.12 308.14 279.767 308.3 279.3C308.46 278.82 308.54 278.22 308.54 277.5C308.54 276.673 308.42 276.02 308.18 275.54C307.953 275.047 307.613 274.693 307.16 274.48C306.706 274.267 306.146 274.16 305.48 274.16C304.786 274.16 304.16 274.26 303.6 274.46C303.04 274.647 302.54 274.873 302.1 275.14V272.64C302.54 272.413 303.093 272.213 303.76 272.04C304.426 271.867 305.193 271.78 306.06 271.78C307.353 271.78 308.4 271.987 309.2 272.4C310.013 272.813 310.613 273.44 311 274.28C311.386 275.12 311.58 276.173 311.58 277.44C311.58 278.627 311.4 279.64 311.04 280.48C310.693 281.307 310.12 281.933 309.32 282.36C308.533 282.787 307.48 283 306.16 283H303.62ZM314.631 283V272.04H316.831L317.231 273.76H317.391C317.618 273.213 318.011 272.76 318.571 272.4C319.131 272.027 319.858 271.84 320.751 271.84C321.605 271.84 322.311 271.993 322.871 272.3C323.431 272.593 323.851 273.047 324.131 273.66C324.425 274.26 324.571 275.02 324.571 275.94V283H321.571V276.54C321.571 275.793 321.418 275.26 321.111 274.94C320.818 274.607 320.385 274.44 319.811 274.44C319.345 274.44 318.945 274.567 318.611 274.82C318.291 275.073 318.045 275.447 317.871 275.94C317.711 276.42 317.631 277.027 317.631 277.76V283H314.631ZM332.603 283.26C331.403 283.26 330.443 283.12 329.723 282.84C329.003 282.547 328.476 282.14 328.143 281.62C327.823 281.1 327.663 280.5 327.663 279.82C327.663 279.233 327.749 278.76 327.923 278.4C328.109 278.04 328.343 277.767 328.623 277.58C328.916 277.38 329.209 277.247 329.502 277.18V277.06C329.196 276.953 328.903 276.807 328.623 276.62C328.343 276.433 328.109 276.18 327.923 275.86C327.749 275.54 327.663 275.14 327.663 274.66C327.663 274.167 327.776 273.707 328.003 273.28C328.243 272.853 328.623 272.513 329.143 272.26C329.663 271.993 330.349 271.86 331.203 271.86C331.616 271.86 332.016 271.893 332.403 271.96C332.789 272.013 333.089 272.093 333.303 272.2L332.843 274.22C332.736 274.193 332.589 274.167 332.403 274.14C332.229 274.1 332.049 274.08 331.863 274.08C331.449 274.08 331.143 274.18 330.943 274.38C330.743 274.567 330.643 274.813 330.643 275.12C330.643 275.44 330.729 275.687 330.903 275.86C331.076 276.033 331.296 276.153 331.562 276.22C331.843 276.287 332.129 276.32 332.423 276.32H332.843V278.18H332.423C331.849 278.18 331.416 278.28 331.123 278.48C330.843 278.68 330.703 279.007 330.703 279.46C330.703 279.7 330.756 279.94 330.863 280.18C330.983 280.407 331.183 280.6 331.463 280.76C331.743 280.907 332.143 280.98 332.663 280.98C333.156 280.98 333.543 280.907 333.823 280.76C334.103 280.613 334.303 280.42 334.423 280.18C334.543 279.927 334.603 279.647 334.603 279.34V272.04H337.603V279.24C337.603 280.613 337.196 281.627 336.383 282.28C335.583 282.933 334.323 283.26 332.603 283.26ZM334.46 270.96C334.353 270.773 334.267 270.533 334.2 270.24C334.12 269.947 334.08 269.653 334.08 269.36C334.08 268.987 334.153 268.647 334.3 268.34C334.433 268.033 334.68 267.793 335.04 267.62C335.387 267.433 335.867 267.34 336.48 267.34H339.38V269.36H337.46C337.207 269.36 337.013 269.407 336.88 269.5C336.733 269.58 336.66 269.733 336.66 269.96C336.66 270.053 336.673 270.153 336.7 270.26C336.727 270.353 336.767 270.453 336.82 270.56L334.46 270.96Z" fill="#6B2DBC"/>
<path d="M233.816 257.16C232.557 257.16 231.656 256.872 231.112 256.296C230.568 255.72 230.296 254.899 230.296 253.832V248.232H231.72V253.848C231.72 254.563 231.891 255.096 232.232 255.448C232.573 255.8 233.101 255.976 233.816 255.976C234.541 255.976 235.075 255.8 235.416 255.448C235.768 255.096 235.944 254.563 235.944 253.848V245.08H237.368V253.832C237.368 254.899 237.091 255.72 236.536 256.296C235.992 256.872 235.085 257.16 233.816 257.16ZM242.927 257.16C242.298 257.16 241.711 257.101 241.167 256.984C240.634 256.856 240.181 256.707 239.807 256.536L240.223 255.384C240.447 255.469 240.703 255.56 240.991 255.656C241.279 255.752 241.589 255.832 241.919 255.896C242.261 255.949 242.607 255.976 242.959 255.976C243.525 255.976 243.994 255.869 244.367 255.656C244.741 255.443 244.927 255.133 244.927 254.728C244.927 254.483 244.858 254.275 244.719 254.104C244.591 253.923 244.389 253.757 244.111 253.608C243.834 253.459 243.477 253.315 243.039 253.176C242.367 252.963 241.797 252.739 241.327 252.504C240.869 252.259 240.517 251.971 240.271 251.64C240.037 251.299 239.919 250.877 239.919 250.376C239.919 249.928 240.037 249.533 240.271 249.192C240.517 248.84 240.89 248.568 241.391 248.376C241.903 248.173 242.554 248.072 243.343 248.072C243.855 248.072 244.335 248.12 244.783 248.216C245.242 248.301 245.599 248.424 245.855 248.584V249.784C245.674 249.699 245.445 249.613 245.168 249.528C244.901 249.443 244.607 249.373 244.287 249.32C243.967 249.267 243.637 249.24 243.295 249.24C242.581 249.24 242.074 249.352 241.775 249.576C241.487 249.789 241.343 250.035 241.343 250.312C241.343 250.547 241.407 250.744 241.535 250.904C241.674 251.064 241.903 251.219 242.223 251.368C242.554 251.517 242.997 251.688 243.551 251.88C244.063 252.051 244.533 252.248 244.959 252.472C245.386 252.696 245.722 252.979 245.967 253.32C246.223 253.651 246.352 254.077 246.352 254.6C246.352 255.048 246.24 255.469 246.016 255.864C245.802 256.248 245.445 256.563 244.944 256.808C244.442 257.043 243.77 257.16 242.927 257.16ZM249.908 251.496C249.471 251.496 249.113 251.432 248.836 251.304C248.569 251.165 248.377 250.995 248.26 250.792C248.143 250.579 248.084 250.355 248.084 250.12C248.084 249.96 248.105 249.795 248.148 249.624C248.201 249.453 248.265 249.309 248.34 249.192L249.54 249.384C249.519 249.437 249.492 249.512 249.46 249.608C249.439 249.704 249.428 249.8 249.428 249.896C249.428 250.035 249.465 250.152 249.54 250.248C249.615 250.333 249.753 250.376 249.956 250.376H252.244V251.496H249.908ZM249.908 255.976C249.471 255.976 249.113 255.912 248.836 255.784C248.569 255.645 248.377 255.475 248.26 255.272C248.143 255.059 248.084 254.835 248.084 254.6C248.084 254.44 248.105 254.275 248.148 254.104C248.201 253.933 248.265 253.789 248.34 253.672L249.54 253.864C249.519 253.917 249.492 253.992 249.46 254.088C249.439 254.184 249.428 254.28 249.428 254.376C249.428 254.515 249.465 254.632 249.54 254.728C249.615 254.813 249.753 254.856 249.956 254.856H252.244V255.976H249.908ZM256.626 257.16C256.338 257.16 256.061 257.112 255.794 257.016C255.528 256.92 255.309 256.749 255.138 256.504C254.968 256.259 254.882 255.917 254.882 255.48V248.232H256.306V255.304C256.306 255.549 256.36 255.725 256.466 255.832C256.573 255.939 256.744 255.992 256.978 255.992C257.074 255.992 257.176 255.981 257.282 255.96C257.389 255.939 257.49 255.912 257.586 255.88L257.778 256.92C257.576 257.016 257.378 257.08 257.186 257.112C256.994 257.144 256.808 257.16 256.626 257.16ZM259.953 257.16C259.761 257.16 259.574 257.139 259.393 257.096C259.212 257.064 259.03 257.005 258.849 256.92L259.009 255.928C259.084 255.949 259.169 255.971 259.265 255.992C259.361 256.013 259.452 256.024 259.537 256.024C259.708 256.024 259.83 255.976 259.905 255.88C259.98 255.773 260.017 255.608 260.017 255.384V253.896C260.017 253.235 260.14 252.76 260.385 252.472C260.63 252.173 260.982 251.971 261.441 251.864L261.457 251.816L259.617 251.144V250.616C259.617 250.179 259.756 249.768 260.033 249.384C260.321 248.989 260.737 248.675 261.281 248.44C261.825 248.195 262.476 248.072 263.233 248.072C263.894 248.072 264.502 248.179 265.057 248.392C265.612 248.595 266.054 248.92 266.385 249.368C266.726 249.805 266.897 250.381 266.897 251.096V257H265.473V251.24C265.473 250.525 265.254 250.019 264.817 249.72C264.38 249.411 263.846 249.256 263.217 249.256C262.556 249.256 262.033 249.395 261.649 249.672C261.265 249.939 261.073 250.28 261.073 250.696L262.897 251.56L262.769 252.328C262.374 252.328 262.054 252.456 261.809 252.712C261.564 252.968 261.441 253.379 261.441 253.944V255.496C261.441 256.147 261.297 256.589 261.009 256.824C260.721 257.048 260.369 257.16 259.953 257.16ZM270.01 257V248.232H271.002L271.258 249.624H271.322C271.503 249.144 271.834 248.765 272.314 248.488C272.794 248.211 273.375 248.072 274.058 248.072C274.698 248.072 275.242 248.184 275.69 248.408C276.148 248.621 276.5 248.952 276.746 249.4C276.991 249.848 277.114 250.429 277.114 251.144V257H275.69V251.224C275.69 250.584 275.53 250.099 275.21 249.768C274.89 249.437 274.415 249.272 273.786 249.272C273.284 249.272 272.858 249.389 272.506 249.624C272.154 249.859 271.887 250.179 271.706 250.584C271.524 250.979 271.434 251.427 271.434 251.928V257H270.01ZM280.24 257V248.232H281.232L281.488 249.624H281.552C281.733 249.144 282.064 248.765 282.544 248.488C283.024 248.211 283.605 248.072 284.288 248.072C284.928 248.072 285.472 248.184 285.92 248.408C286.378 248.621 286.73 248.952 286.976 249.4C287.221 249.848 287.344 250.429 287.344 251.144V257H285.92V251.224C285.92 250.584 285.76 250.099 285.44 249.768C285.12 249.437 284.645 249.272 284.016 249.272C283.514 249.272 283.088 249.389 282.736 249.624C282.384 249.859 282.117 250.179 281.936 250.584C281.754 250.979 281.664 251.427 281.664 251.928V257H280.24ZM280.855 246.84V246.216L282.023 245.704H287.655V246.84H280.855ZM286.327 246.216V244.408H287.671V246.216H286.327ZM286.791 243.464V240.856H288.151V243.464H286.791ZM296.27 257V255.977L300.111 251.773C300.562 251.28 300.933 250.852 301.225 250.489C301.516 250.121 301.732 249.777 301.872 249.455C302.016 249.129 302.088 248.788 302.088 248.432C302.088 248.023 301.99 247.669 301.793 247.369C301.6 247.07 301.335 246.839 300.997 246.676C300.66 246.513 300.282 246.432 299.861 246.432C299.414 246.432 299.024 246.525 298.691 246.71C298.361 246.892 298.105 247.148 297.924 247.477C297.746 247.807 297.657 248.193 297.657 248.636H296.316C296.316 247.955 296.473 247.356 296.787 246.841C297.102 246.326 297.53 245.924 298.071 245.636C298.617 245.348 299.229 245.205 299.907 245.205C300.588 245.205 301.193 245.348 301.719 245.636C302.246 245.924 302.658 246.312 302.958 246.801C303.257 247.29 303.407 247.833 303.407 248.432C303.407 248.86 303.329 249.278 303.174 249.688C303.022 250.093 302.757 250.545 302.378 251.045C302.003 251.542 301.482 252.148 300.816 252.864L298.202 255.659V255.75H303.611V257H296.27Z" fill="#B4B4B4"/>
<path d="M230.602 324V314.136H232.204V318.402H232.258L236.362 314.136H238.234V314.19L232.204 320.292V324H230.602ZM236.722 324V320.526C236.722 319.818 236.506 319.266 236.074 318.87C235.642 318.474 234.928 318.276 233.932 318.276L234.868 317.106C235.624 317.106 236.254 317.244 236.758 317.52C237.274 317.784 237.664 318.168 237.928 318.672C238.192 319.176 238.324 319.782 238.324 320.49V324H236.722ZM244.964 324.18C244.256 324.18 243.644 324.06 243.128 323.82C242.624 323.568 242.234 323.19 241.958 322.686C241.694 322.182 241.562 321.528 241.562 320.724V314.136H243.164V320.634C243.164 321.354 243.344 321.9 243.704 322.272C244.076 322.644 244.61 322.83 245.306 322.83C246.146 322.83 246.794 322.56 247.25 322.02C247.718 321.48 247.952 320.754 247.952 319.842V314.136H249.554V324H248.222L248.15 322.542H248.06C247.844 323.022 247.466 323.418 246.926 323.73C246.398 324.03 245.744 324.18 244.964 324.18ZM247.796 312.57C247.292 312.57 246.89 312.498 246.59 312.354C246.29 312.21 246.074 312.024 245.942 311.796C245.798 311.568 245.726 311.328 245.726 311.076C245.726 310.896 245.756 310.704 245.816 310.5C245.864 310.284 245.93 310.11 246.014 309.978L247.364 310.212C247.34 310.26 247.316 310.344 247.292 310.464C247.268 310.572 247.256 310.674 247.256 310.77C247.256 310.926 247.304 311.064 247.4 311.184C247.496 311.292 247.658 311.346 247.886 311.346H252.44V312.57H247.796ZM255.302 324L252.224 314.136H253.844L256.508 322.614H256.724C257.012 322.614 257.294 322.548 257.57 322.416C257.846 322.272 258.08 322.092 258.272 321.876C258.632 321.48 258.896 320.982 259.064 320.382C259.232 319.77 259.316 319.17 259.316 318.582C259.316 317.586 259.088 316.806 258.632 316.242C258.188 315.666 257.57 315.378 256.778 315.378C256.622 315.378 256.466 315.39 256.31 315.414C256.166 315.438 256.046 315.468 255.95 315.504L255.554 314.226C255.806 314.154 256.04 314.106 256.256 314.082C256.484 314.058 256.688 314.046 256.868 314.046C257.468 314.046 258.002 314.136 258.47 314.316C258.95 314.484 259.358 314.736 259.694 315.072C260.114 315.48 260.42 315.99 260.612 316.602C260.816 317.214 260.918 317.892 260.918 318.636C260.918 319.572 260.774 320.406 260.486 321.138C260.198 321.858 259.838 322.434 259.406 322.866C259.058 323.214 258.632 323.49 258.128 323.694C257.624 323.898 256.982 324 256.202 324H255.302ZM269.667 324V317.43C269.667 316.65 269.487 316.098 269.127 315.774C268.779 315.438 268.191 315.27 267.363 315.27C266.763 315.27 266.187 315.354 265.635 315.522C265.095 315.678 264.579 315.9 264.087 316.188V314.694C264.435 314.514 264.903 314.346 265.491 314.19C266.091 314.034 266.763 313.956 267.507 313.956C268.143 313.956 268.683 314.028 269.127 314.172C269.583 314.316 269.919 314.58 270.135 314.964C270.555 315.156 270.843 315.456 270.999 315.864C271.167 316.272 271.251 316.764 271.251 317.34V324H269.667ZM266.571 324.18C265.515 324.18 264.705 323.94 264.141 323.46C263.589 322.968 263.313 322.266 263.313 321.354C263.313 320.358 263.673 319.59 264.393 319.05C265.125 318.51 266.307 318.192 267.939 318.096L269.991 317.97V319.302L268.155 319.428C266.931 319.512 266.085 319.704 265.617 320.004C265.161 320.304 264.933 320.742 264.933 321.318C264.933 321.858 265.101 322.254 265.437 322.506C265.785 322.758 266.265 322.884 266.877 322.884C267.081 322.884 267.267 322.872 267.435 322.848C267.603 322.812 267.765 322.77 267.921 322.722L268.173 323.928C267.945 324.012 267.693 324.072 267.417 324.108C267.153 324.156 266.871 324.18 266.571 324.18ZM270.081 315.522L269.181 314.676C269.493 314.628 269.787 314.508 270.063 314.316C270.339 314.124 270.477 313.848 270.477 313.488H272.043C272.043 313.86 271.953 314.19 271.773 314.478C271.605 314.754 271.371 314.982 271.071 315.162C270.771 315.33 270.441 315.45 270.081 315.522ZM264.143 312.57V311.868L265.457 311.292H271.793V312.57H264.143ZM267.851 311.868V309.834H269.183V311.868H267.851ZM270.479 311.868V309.834H271.793V311.868H270.479ZM278.762 324.18C277.466 324.18 276.494 323.844 275.846 323.172C275.21 322.488 274.892 321.42 274.892 319.968C274.892 319.728 274.898 319.47 274.91 319.194C274.934 318.906 274.958 318.624 274.982 318.348H278.762V319.608H276.494V319.968C276.494 320.724 276.578 321.318 276.746 321.75C276.914 322.17 277.16 322.464 277.484 322.632C277.82 322.8 278.234 322.884 278.726 322.884C279.266 322.884 279.734 322.782 280.13 322.578C280.526 322.374 280.832 322.002 281.048 321.462C281.264 320.922 281.372 320.148 281.372 319.14C281.372 318.252 281.276 317.526 281.084 316.962C280.892 316.398 280.574 315.978 280.13 315.702C279.698 315.426 279.11 315.288 278.366 315.288C277.982 315.288 277.61 315.324 277.25 315.396C276.89 315.456 276.542 315.552 276.206 315.684C275.87 315.804 275.54 315.96 275.216 316.152V314.658C275.456 314.526 275.75 314.412 276.098 314.316C276.446 314.208 276.83 314.124 277.25 314.064C277.67 313.992 278.108 313.956 278.564 313.956C279.62 313.956 280.472 314.172 281.12 314.604C281.78 315.024 282.26 315.624 282.56 316.404C282.86 317.172 283.01 318.084 283.01 319.14C283.01 320.196 282.872 321.102 282.596 321.858C282.32 322.614 281.87 323.19 281.246 323.586C280.634 323.982 279.806 324.18 278.762 324.18ZM286.2 324V314.136H287.316L287.604 315.702H287.676C287.88 315.162 288.252 314.736 288.792 314.424C289.332 314.112 289.986 313.956 290.754 313.956C291.474 313.956 292.086 314.082 292.59 314.334C293.106 314.574 293.502 314.946 293.778 315.45C294.054 315.954 294.192 316.608 294.192 317.412V324H292.59V317.502C292.59 316.782 292.41 316.236 292.05 315.864C291.69 315.492 291.156 315.306 290.448 315.306C289.884 315.306 289.404 315.438 289.008 315.702C288.612 315.966 288.312 316.326 288.108 316.782C287.904 317.226 287.802 317.73 287.802 318.294V324H286.2ZM286.892 312.57V311.868L288.206 311.292H294.542V312.57H286.892ZM293.048 311.868V309.834H294.56V311.868H293.048ZM293.57 308.772V305.838H295.1V308.772H293.57ZM303.487 324.18C302.719 324.18 302.053 324.03 301.489 323.73C300.937 323.418 300.559 322.986 300.355 322.434H300.283L300.193 324H298.879V314.136H300.481V319.842C300.481 320.442 300.583 320.97 300.787 321.426C301.003 321.87 301.309 322.218 301.705 322.47C302.113 322.71 302.599 322.83 303.163 322.83C303.871 322.83 304.399 322.644 304.747 322.272C305.095 321.9 305.269 321.354 305.269 320.634V314.136H306.871V320.742C306.871 321.534 306.733 322.182 306.457 322.686C306.193 323.19 305.809 323.568 305.305 323.82C304.801 324.06 304.195 324.18 303.487 324.18ZM299.762 312.57V311.868L301.076 311.292H307.412V312.57H299.762ZM305.918 311.868V309.834H307.43V311.868H305.918ZM311.394 315.936V312.408C311.394 311.688 311.22 311.172 310.872 310.86C310.536 310.548 310.104 310.392 309.576 310.392V309.708L310.908 309.132H315.714V310.392H312.06L312.042 310.464C312.306 310.644 312.528 310.92 312.708 311.292C312.9 311.652 312.996 312.126 312.996 312.714V315.936H311.394ZM313.356 324.18C313.032 324.18 312.72 324.126 312.42 324.018C312.12 323.91 311.874 323.718 311.682 323.442C311.49 323.166 311.394 322.782 311.394 322.29V314.136H312.996V322.092C312.996 322.368 313.056 322.566 313.176 322.686C313.296 322.806 313.488 322.866 313.752 322.866C313.86 322.866 313.974 322.854 314.094 322.83C314.214 322.806 314.328 322.776 314.436 322.74L314.652 323.91C314.424 324.018 314.202 324.09 313.986 324.126C313.77 324.162 313.56 324.18 313.356 324.18ZM317.609 324V319.608H316.241V318.348H319.139V322.704H319.373C319.913 322.704 320.363 322.584 320.723 322.344C321.083 322.104 321.353 321.714 321.533 321.174C321.713 320.634 321.803 319.92 321.803 319.032C321.803 318.144 321.701 317.424 321.497 316.872C321.305 316.32 320.987 315.918 320.543 315.666C320.111 315.414 319.523 315.288 318.779 315.288C318.215 315.288 317.669 315.366 317.141 315.522C316.625 315.666 316.127 315.894 315.647 316.206V314.712C316.007 314.496 316.481 314.316 317.069 314.172C317.657 314.028 318.293 313.956 318.977 313.956C320.069 313.956 320.939 314.16 321.587 314.568C322.247 314.964 322.721 315.54 323.009 316.296C323.297 317.052 323.441 317.97 323.441 319.05C323.441 320.094 323.297 320.988 323.009 321.732C322.733 322.464 322.277 323.028 321.641 323.424C321.017 323.808 320.177 324 319.121 324H317.609ZM326.595 324V314.136H327.711L327.999 315.702H328.071C328.275 315.162 328.647 314.736 329.187 314.424C329.727 314.112 330.381 313.956 331.149 313.956C331.869 313.956 332.481 314.082 332.985 314.334C333.501 314.574 333.897 314.946 334.173 315.45C334.449 315.954 334.587 316.608 334.587 317.412V324H332.985V317.502C332.985 316.782 332.805 316.236 332.445 315.864C332.085 315.492 331.551 315.306 330.843 315.306C330.279 315.306 329.799 315.438 329.403 315.702C329.007 315.966 328.707 316.326 328.503 316.782C328.299 317.226 328.197 317.73 328.197 318.294V324H326.595ZM341.848 324.162C340.876 324.162 340.096 324.036 339.508 323.784C338.932 323.532 338.512 323.178 338.248 322.722C337.996 322.266 337.87 321.726 337.87 321.102C337.87 320.55 337.948 320.112 338.104 319.788C338.272 319.452 338.476 319.206 338.716 319.05C338.968 318.894 339.226 318.792 339.49 318.744V318.672C339.25 318.6 338.998 318.48 338.734 318.312C338.47 318.144 338.248 317.91 338.068 317.61C337.9 317.31 337.816 316.932 337.816 316.476C337.816 316.056 337.912 315.66 338.104 315.288C338.296 314.916 338.608 314.61 339.04 314.37C339.472 314.13 340.042 314.01 340.75 314.01C341.038 314.01 341.338 314.034 341.65 314.082C341.962 314.118 342.202 314.184 342.37 314.28L342.082 315.522C341.95 315.474 341.776 315.432 341.56 315.396C341.356 315.348 341.14 315.324 340.912 315.324C340.408 315.324 340.036 315.444 339.796 315.684C339.556 315.912 339.436 316.218 339.436 316.602C339.436 317.022 339.538 317.34 339.742 317.556C339.958 317.772 340.228 317.922 340.552 318.006C340.888 318.078 341.236 318.114 341.596 318.114H341.938V319.284H341.596C340.876 319.284 340.342 319.416 339.994 319.68C339.658 319.932 339.49 320.358 339.49 320.958C339.49 321.306 339.556 321.624 339.688 321.912C339.832 322.2 340.072 322.428 340.408 322.596C340.756 322.764 341.236 322.848 341.848 322.848C342.46 322.848 342.934 322.764 343.27 322.596C343.618 322.428 343.864 322.188 344.008 321.876C344.152 321.552 344.224 321.168 344.224 320.724V314.136H345.826V320.616C345.826 321.876 345.502 322.782 344.854 323.334C344.218 323.886 343.216 324.162 341.848 324.162ZM343.406 313.092C343.322 312.96 343.256 312.792 343.208 312.588C343.148 312.372 343.118 312.162 343.118 311.958C343.118 311.706 343.172 311.472 343.28 311.256C343.388 311.028 343.58 310.842 343.856 310.698C344.132 310.554 344.516 310.482 345.008 310.482H347.474V311.724H345.422C345.182 311.724 344.99 311.772 344.846 311.868C344.702 311.952 344.63 312.102 344.63 312.318C344.63 312.402 344.648 312.492 344.684 312.588C344.708 312.684 344.744 312.78 344.792 312.876L343.406 313.092ZM232.69 346.18C232.366 346.18 232.054 346.126 231.754 346.018C231.454 345.91 231.208 345.718 231.016 345.442C230.824 345.166 230.728 344.782 230.728 344.29V336.136H232.33V344.092C232.33 344.368 232.39 344.566 232.51 344.686C232.63 344.806 232.822 344.866 233.086 344.866C233.194 344.866 233.308 344.854 233.428 344.83C233.548 344.806 233.662 344.776 233.77 344.74L233.986 345.91C233.758 346.018 233.536 346.09 233.32 346.126C233.104 346.162 232.894 346.18 232.69 346.18ZM237.035 346L235.253 336.136H236.891L237.593 340.42C237.653 340.768 237.713 341.218 237.773 341.77C237.833 342.322 237.905 342.976 237.989 343.732H238.043C238.151 343.216 238.253 342.754 238.349 342.346C238.457 341.938 238.553 341.572 238.637 341.248C238.733 340.912 238.817 340.618 238.889 340.366L240.095 336.136H241.409L242.633 340.366C242.705 340.618 242.783 340.912 242.867 341.248C242.963 341.572 243.059 341.938 243.155 342.346C243.263 342.754 243.371 343.216 243.479 343.732H243.551C243.623 342.976 243.689 342.322 243.749 341.77C243.809 341.218 243.869 340.768 243.929 340.42L244.649 336.136H246.287L244.505 346H242.939L241.283 340.636C241.199 340.336 241.115 340.024 241.031 339.7C240.959 339.376 240.887 338.95 240.815 338.422H240.743C240.695 338.77 240.641 339.076 240.581 339.34C240.521 339.604 240.461 339.838 240.401 340.042C240.341 340.246 240.281 340.444 240.221 340.636L238.601 346H237.035ZM238.424 334.57V333.868L239.738 333.292H246.074V334.57H238.424ZM244.58 333.868V331.834H246.092V333.868H244.58ZM253.366 346.162C252.394 346.162 251.614 346.036 251.026 345.784C250.45 345.532 250.03 345.178 249.766 344.722C249.514 344.266 249.388 343.726 249.388 343.102C249.388 342.55 249.466 342.112 249.622 341.788C249.79 341.452 249.994 341.206 250.234 341.05C250.486 340.894 250.744 340.792 251.008 340.744V340.672C250.768 340.6 250.516 340.48 250.252 340.312C249.988 340.144 249.766 339.91 249.586 339.61C249.418 339.31 249.334 338.932 249.334 338.476C249.334 338.056 249.43 337.66 249.622 337.288C249.814 336.916 250.126 336.61 250.558 336.37C250.99 336.13 251.56 336.01 252.268 336.01C252.556 336.01 252.856 336.034 253.168 336.082C253.48 336.118 253.72 336.184 253.888 336.28L253.6 337.522C253.468 337.474 253.294 337.432 253.078 337.396C252.874 337.348 252.658 337.324 252.43 337.324C251.926 337.324 251.554 337.444 251.314 337.684C251.074 337.912 250.954 338.218 250.954 338.602C250.954 339.022 251.056 339.34 251.26 339.556C251.476 339.772 251.746 339.922 252.07 340.006C252.406 340.078 252.754 340.114 253.114 340.114H253.456V341.284H253.114C252.394 341.284 251.86 341.416 251.512 341.68C251.176 341.932 251.008 342.358 251.008 342.958C251.008 343.306 251.074 343.624 251.206 343.912C251.35 344.2 251.59 344.428 251.926 344.596C252.274 344.764 252.754 344.848 253.366 344.848C253.978 344.848 254.452 344.764 254.788 344.596C255.136 344.428 255.382 344.188 255.526 343.876C255.67 343.552 255.742 343.168 255.742 342.724V336.136H257.344V342.616C257.344 343.876 257.02 344.782 256.372 345.334C255.736 345.886 254.734 346.162 253.366 346.162ZM262.416 346L259.338 336.136H260.958L263.622 344.614H263.838C264.126 344.614 264.408 344.548 264.684 344.416C264.96 344.272 265.194 344.092 265.386 343.876C265.746 343.48 266.01 342.982 266.178 342.382C266.346 341.77 266.43 341.17 266.43 340.582C266.43 339.586 266.202 338.806 265.746 338.242C265.302 337.666 264.684 337.378 263.892 337.378C263.736 337.378 263.58 337.39 263.424 337.414C263.28 337.438 263.16 337.468 263.064 337.504L262.668 336.226C262.92 336.154 263.154 336.106 263.37 336.082C263.598 336.058 263.802 336.046 263.982 336.046C264.582 336.046 265.116 336.136 265.584 336.316C266.064 336.484 266.472 336.736 266.808 337.072C267.228 337.48 267.534 337.99 267.726 338.602C267.93 339.214 268.032 339.892 268.032 340.636C268.032 341.572 267.888 342.406 267.6 343.138C267.312 343.858 266.952 344.434 266.52 344.866C266.172 345.214 265.746 345.49 265.242 345.694C264.738 345.898 264.096 346 263.316 346H262.416ZM274.496 346.18C273.2 346.18 272.228 345.844 271.58 345.172C270.944 344.488 270.626 343.42 270.626 341.968C270.626 341.728 270.632 341.47 270.644 341.194C270.668 340.906 270.692 340.624 270.716 340.348H274.496V341.608H272.228V341.968C272.228 342.724 272.312 343.318 272.48 343.75C272.648 344.17 272.894 344.464 273.218 344.632C273.554 344.8 273.968 344.884 274.46 344.884C275 344.884 275.468 344.782 275.864 344.578C276.26 344.374 276.566 344.002 276.782 343.462C276.998 342.922 277.106 342.148 277.106 341.14C277.106 340.252 277.01 339.526 276.818 338.962C276.626 338.398 276.308 337.978 275.864 337.702C275.432 337.426 274.844 337.288 274.1 337.288C273.716 337.288 273.344 337.324 272.984 337.396C272.624 337.456 272.276 337.552 271.94 337.684C271.604 337.804 271.274 337.96 270.95 338.152V336.658C271.19 336.526 271.484 336.412 271.832 336.316C272.18 336.208 272.564 336.124 272.984 336.064C273.404 335.992 273.842 335.956 274.298 335.956C275.354 335.956 276.206 336.172 276.854 336.604C277.514 337.024 277.994 337.624 278.294 338.404C278.594 339.172 278.744 340.084 278.744 341.14C278.744 342.196 278.606 343.102 278.33 343.858C278.054 344.614 277.604 345.19 276.98 345.586C276.368 345.982 275.54 346.18 274.496 346.18ZM285.678 346.162C284.706 346.162 283.926 346.036 283.338 345.784C282.762 345.532 282.342 345.178 282.078 344.722C281.826 344.266 281.7 343.726 281.7 343.102C281.7 342.55 281.778 342.112 281.934 341.788C282.102 341.452 282.306 341.206 282.546 341.05C282.798 340.894 283.056 340.792 283.32 340.744V340.672C283.08 340.6 282.828 340.48 282.564 340.312C282.3 340.144 282.078 339.91 281.898 339.61C281.73 339.31 281.646 338.932 281.646 338.476C281.646 338.056 281.742 337.66 281.934 337.288C282.126 336.916 282.438 336.61 282.87 336.37C283.302 336.13 283.872 336.01 284.58 336.01C284.868 336.01 285.168 336.034 285.48 336.082C285.792 336.118 286.032 336.184 286.2 336.28L285.912 337.522C285.78 337.474 285.606 337.432 285.39 337.396C285.186 337.348 284.97 337.324 284.742 337.324C284.238 337.324 283.866 337.444 283.626 337.684C283.386 337.912 283.266 338.218 283.266 338.602C283.266 339.022 283.368 339.34 283.572 339.556C283.788 339.772 284.058 339.922 284.382 340.006C284.718 340.078 285.066 340.114 285.426 340.114H285.768V341.284H285.426C284.706 341.284 284.172 341.416 283.824 341.68C283.488 341.932 283.32 342.358 283.32 342.958C283.32 343.306 283.386 343.624 283.518 343.912C283.662 344.2 283.902 344.428 284.238 344.596C284.586 344.764 285.066 344.848 285.678 344.848C286.29 344.848 286.764 344.764 287.1 344.596C287.448 344.428 287.694 344.188 287.838 343.876C287.982 343.552 288.054 343.168 288.054 342.724V336.136H289.656V342.616C289.656 343.876 289.332 344.782 288.684 345.334C288.048 345.886 287.046 346.162 285.678 346.162ZM288.586 334.57V330.772H290.17V334.57H288.586ZM296.437 346V338.998C296.437 338.41 296.299 337.978 296.023 337.702C295.759 337.426 295.309 337.288 294.673 337.288C294.241 337.288 293.833 337.348 293.449 337.468C293.077 337.576 292.717 337.732 292.369 337.936V336.496C292.609 336.376 292.951 336.256 293.395 336.136C293.839 336.016 294.367 335.956 294.979 335.956C295.603 335.956 296.143 336.046 296.599 336.226C297.055 336.406 297.409 336.706 297.661 337.126C297.913 337.534 298.039 338.08 298.039 338.764V346H296.437ZM303.12 346L300.042 336.136H301.662L304.326 344.614H304.542C304.83 344.614 305.112 344.548 305.388 344.416C305.664 344.272 305.898 344.092 306.09 343.876C306.45 343.48 306.714 342.982 306.882 342.382C307.05 341.77 307.134 341.17 307.134 340.582C307.134 339.586 306.906 338.806 306.45 338.242C306.006 337.666 305.388 337.378 304.596 337.378C304.44 337.378 304.284 337.39 304.128 337.414C303.984 337.438 303.864 337.468 303.768 337.504L303.372 336.226C303.624 336.154 303.858 336.106 304.074 336.082C304.302 336.058 304.506 336.046 304.686 336.046C305.286 336.046 305.82 336.136 306.288 336.316C306.768 336.484 307.176 336.736 307.512 337.072C307.932 337.48 308.238 337.99 308.43 338.602C308.634 339.214 308.736 339.892 308.736 340.636C308.736 341.572 308.592 342.406 308.304 343.138C308.016 343.858 307.656 344.434 307.224 344.866C306.876 345.214 306.45 345.49 305.946 345.694C305.442 345.898 304.8 346 304.02 346H303.12ZM313.94 346.18C313.616 346.18 313.304 346.126 313.004 346.018C312.704 345.91 312.458 345.718 312.266 345.442C312.074 345.166 311.978 344.782 311.978 344.29V336.136H313.58V344.092C313.58 344.368 313.64 344.566 313.76 344.686C313.88 344.806 314.072 344.866 314.336 344.866C314.444 344.866 314.558 344.854 314.678 344.83C314.798 344.806 314.912 344.776 315.02 344.74L315.236 345.91C315.008 346.018 314.786 346.09 314.57 346.126C314.354 346.162 314.144 346.18 313.94 346.18ZM320.746 346.18C319.786 346.18 319.03 345.958 318.478 345.514C317.938 345.058 317.554 344.446 317.326 343.678C317.11 342.91 317.002 342.064 317.002 341.14C317.002 340.12 317.104 339.28 317.308 338.62C317.524 337.948 317.824 337.42 318.208 337.036C318.604 336.64 319.072 336.364 319.612 336.208C320.164 336.04 320.77 335.956 321.43 335.956C322.39 335.956 323.17 336.1 323.77 336.388C324.382 336.664 324.832 337.06 325.12 337.576C325.408 338.092 325.552 338.71 325.552 339.43V346H323.968V339.574C323.968 338.83 323.782 338.266 323.41 337.882C323.038 337.486 322.396 337.288 321.484 337.288C320.932 337.288 320.434 337.39 319.99 337.594C319.558 337.798 319.216 338.176 318.964 338.728C318.724 339.28 318.604 340.09 318.604 341.158C318.604 341.854 318.67 342.484 318.802 343.048C318.946 343.6 319.192 344.038 319.54 344.362C319.888 344.686 320.374 344.848 320.998 344.848C321.178 344.848 321.346 344.836 321.502 344.812C321.658 344.788 321.808 344.752 321.952 344.704L322.114 345.946C321.922 346.03 321.7 346.09 321.448 346.126C321.208 346.162 320.974 346.18 320.746 346.18ZM318.302 334.57V333.868L319.616 333.292H325.952V334.57H318.302ZM324.458 333.868V331.834H325.97V333.868H324.458ZM333.35 346.162C332.378 346.162 331.598 346.036 331.01 345.784C330.434 345.532 330.014 345.178 329.75 344.722C329.498 344.266 329.372 343.726 329.372 343.102C329.372 342.55 329.45 342.112 329.606 341.788C329.774 341.452 329.978 341.206 330.218 341.05C330.47 340.894 330.728 340.792 330.992 340.744V340.672C330.752 340.6 330.5 340.48 330.236 340.312C329.972 340.144 329.75 339.91 329.57 339.61C329.402 339.31 329.318 338.932 329.318 338.476C329.318 338.056 329.414 337.66 329.606 337.288C329.798 336.916 330.11 336.61 330.542 336.37C330.974 336.13 331.544 336.01 332.252 336.01C332.54 336.01 332.84 336.034 333.152 336.082C333.464 336.118 333.704 336.184 333.872 336.28L333.584 337.522C333.452 337.474 333.278 337.432 333.062 337.396C332.858 337.348 332.642 337.324 332.414 337.324C331.91 337.324 331.538 337.444 331.298 337.684C331.058 337.912 330.938 338.218 330.938 338.602C330.938 339.022 331.04 339.34 331.244 339.556C331.46 339.772 331.73 339.922 332.054 340.006C332.39 340.078 332.738 340.114 333.098 340.114H333.44V341.284H333.098C332.378 341.284 331.844 341.416 331.496 341.68C331.16 341.932 330.992 342.358 330.992 342.958C330.992 343.306 331.058 343.624 331.19 343.912C331.334 344.2 331.574 344.428 331.91 344.596C332.258 344.764 332.738 344.848 333.35 344.848C333.962 344.848 334.436 344.764 334.772 344.596C335.12 344.428 335.366 344.188 335.51 343.876C335.654 343.552 335.726 343.168 335.726 342.724V336.136H337.328V342.616C337.328 343.876 337.004 344.782 336.356 345.334C335.72 345.886 334.718 346.162 333.35 346.162ZM342.76 346.18C342.292 346.18 341.836 346.132 341.392 346.036C340.96 345.94 340.498 345.76 340.006 345.496L340.51 344.272C340.774 344.428 341.074 344.566 341.41 344.686C341.746 344.794 342.136 344.848 342.58 344.848C343.468 344.848 344.158 344.524 344.65 343.876C345.154 343.216 345.406 342.268 345.406 341.032C345.406 339.82 345.148 338.896 344.632 338.26C344.128 337.612 343.348 337.288 342.292 337.288C341.908 337.288 341.518 337.33 341.122 337.414C340.726 337.498 340.378 337.624 340.078 337.792V336.442C340.426 336.262 340.804 336.136 341.212 336.064C341.632 335.992 342.052 335.956 342.472 335.956C343.552 335.956 344.428 336.172 345.1 336.604C345.772 337.024 346.264 337.612 346.576 338.368C346.888 339.124 347.044 340.012 347.044 341.032C347.044 342.616 346.684 343.87 345.964 344.794C345.256 345.718 344.188 346.18 342.76 346.18Z" fill="#252525"/>
<path d="M185.783 245H89.3667V366.938H185.783V245Z" stroke="#AB80E3" stroke-width="7" stroke-linecap="round" stroke-linejoin="round"/>
<rect x="77" y="266" width="121" height="26" rx="1" fill="#AB80E3"/>
<defs>
<filter id="filter0_d_899_3044" x="0" y="0" width="437" height="599" filterUnits="userSpaceOnUse" color-interpolation-filters="sRGB">
<feFlood flood-opacity="0" result="BackgroundImageFix"/>
<feColorMatrix in="SourceAlpha" type="matrix" values="0 0 0 0 0 0 0 0 0 0 0 0 0 0 0 0 0 0 127 0" result="hardAlpha"/>
<feOffset dy="4"/>
<feGaussianBlur stdDeviation="10"/>
<feComposite in2="hardAlpha" operator="out"/>
<feColorMatrix type="matrix" values="0 0 0 0 0 0 0 0 0 0 0 0 0 0 0 0 0 0 0.25 0"/>
<feBlend mode="normal" in2="BackgroundImageFix" result="effect1_dropShadow_899_3044"/>
<feBlend mode="normal" in="SourceGraphic" in2="effect1_dropShadow_899_3044" result="shape"/>
</filter>
</defs>
</svg>
