<svg width="437" height="599" viewBox="0 0 437 599" fill="none" xmlns="http://www.w3.org/2000/svg">
<g filter="url(#filter0_d_899_3087)">
<rect x="20" y="16" width="397" height="559" rx="55" fill="#FBFBFB"/>
</g>
<path d="M125.645 114.312C123.565 114.312 122.053 113.832 121.109 112.872C120.181 111.896 119.717 110.488 119.717 108.648V100.848H123.317V108.84C123.317 109.688 123.501 110.336 123.869 110.784C124.253 111.216 124.845 111.432 125.645 111.432C126.445 111.432 127.029 111.216 127.397 110.784C127.781 110.336 127.973 109.688 127.973 108.84V96.12H131.573V108.648C131.573 110.488 131.101 111.896 130.157 112.872C129.229 113.832 127.725 114.312 125.645 114.312ZM140.184 114.312C139.24 114.312 138.288 114.208 137.328 114C136.384 113.792 135.544 113.496 134.808 113.112L135.816 110.256C136.136 110.432 136.52 110.616 136.968 110.808C137.416 111 137.904 111.16 138.432 111.288C138.96 111.416 139.496 111.48 140.04 111.48C140.68 111.48 141.16 111.392 141.48 111.216C141.816 111.024 141.984 110.736 141.984 110.352C141.984 110.064 141.872 109.832 141.648 109.656C141.44 109.464 141.128 109.288 140.712 109.128C140.296 108.952 139.8 108.768 139.224 108.576C138.376 108.272 137.648 107.944 137.04 107.592C136.432 107.24 135.96 106.808 135.624 106.296C135.304 105.784 135.144 105.144 135.144 104.376C135.144 103.496 135.368 102.776 135.816 102.216C136.264 101.656 136.896 101.24 137.712 100.968C138.528 100.68 139.48 100.536 140.568 100.536C141.464 100.536 142.272 100.608 142.992 100.752C143.712 100.896 144.272 101.08 144.672 101.304V104.136C144.4 104.008 144.04 103.88 143.592 103.752C143.16 103.624 142.688 103.52 142.176 103.44C141.68 103.344 141.2 103.296 140.736 103.296C140.08 103.296 139.584 103.384 139.248 103.56C138.912 103.736 138.744 103.984 138.744 104.304C138.744 104.56 138.856 104.776 139.08 104.952C139.32 105.128 139.664 105.296 140.112 105.456C140.56 105.6 141.096 105.784 141.72 106.008C142.552 106.296 143.256 106.616 143.832 106.968C144.408 107.32 144.84 107.752 145.128 108.264C145.432 108.776 145.584 109.408 145.584 110.16C145.584 110.88 145.416 111.56 145.08 112.2C144.76 112.824 144.208 113.336 143.424 113.736C142.64 114.12 141.56 114.312 140.184 114.312ZM151.07 106.248C150.334 106.248 149.75 106.136 149.318 105.912C148.886 105.688 148.574 105.392 148.382 105.024C148.19 104.64 148.094 104.24 148.094 103.824C148.094 103.552 148.134 103.272 148.214 102.984C148.294 102.68 148.414 102.384 148.574 102.096L151.19 102.432C151.158 102.544 151.126 102.664 151.094 102.792C151.078 102.92 151.07 103.056 151.07 103.2C151.07 103.408 151.134 103.576 151.262 103.704C151.39 103.816 151.614 103.872 151.934 103.872H154.646V106.248H151.07ZM151.07 112.968C150.334 112.968 149.75 112.856 149.318 112.632C148.886 112.408 148.574 112.112 148.382 111.744C148.19 111.36 148.094 110.96 148.094 110.544C148.094 110.272 148.134 109.992 148.214 109.704C148.294 109.4 148.414 109.104 148.574 108.816L151.19 109.152C151.158 109.264 151.126 109.384 151.094 109.512C151.078 109.64 151.07 109.776 151.07 109.92C151.07 110.128 151.134 110.296 151.262 110.424C151.39 110.536 151.614 110.592 151.934 110.592H154.646V112.968H151.07ZM161.831 114.24C161.111 114.24 160.503 114.128 160.007 113.904C159.511 113.68 159.135 113.344 158.879 112.896C158.623 112.432 158.495 111.856 158.495 111.168V100.848H162.095V110.736C162.095 111.04 162.159 111.264 162.287 111.408C162.431 111.552 162.647 111.624 162.935 111.624C163.063 111.624 163.199 111.608 163.343 111.576C163.487 111.544 163.623 111.504 163.751 111.456L164.087 113.76C163.783 113.92 163.439 114.04 163.055 114.12C162.671 114.2 162.263 114.24 161.831 114.24ZM168.091 114.24C167.643 114.24 167.235 114.192 166.867 114.096C166.499 114.016 166.171 113.896 165.883 113.736L166.219 111.744C166.331 111.776 166.435 111.8 166.531 111.816C166.643 111.832 166.747 111.84 166.843 111.84C167.115 111.84 167.307 111.776 167.419 111.648C167.547 111.504 167.611 111.288 167.611 111V109.248C167.611 108.464 167.771 107.856 168.091 107.424C168.411 106.976 168.899 106.672 169.555 106.512L169.579 106.416L166.963 105.48V104.856C166.963 104.072 167.187 103.352 167.635 102.696C168.083 102.04 168.755 101.52 169.651 101.136C170.547 100.736 171.651 100.536 172.963 100.536C174.195 100.536 175.259 100.728 176.155 101.112C177.051 101.48 177.739 102.04 178.219 102.792C178.715 103.528 178.963 104.464 178.963 105.6V114H175.363V105.816C175.363 105.016 175.147 104.416 174.715 104.016C174.299 103.616 173.699 103.416 172.915 103.416C172.179 103.416 171.627 103.576 171.259 103.896C170.891 104.2 170.691 104.576 170.659 105.024L172.747 105.96L172.483 107.52C172.035 107.52 171.691 107.672 171.451 107.976C171.227 108.264 171.115 108.736 171.115 109.392V111.408C171.115 112.432 170.827 113.16 170.251 113.592C169.691 114.024 168.971 114.24 168.091 114.24ZM183.204 114V100.848H185.844L186.324 102.912H186.516C186.788 102.256 187.26 101.712 187.932 101.28C188.604 100.832 189.476 100.608 190.548 100.608C191.572 100.608 192.42 100.792 193.092 101.16C193.764 101.512 194.268 102.056 194.604 102.792C194.956 103.512 195.132 104.424 195.132 105.528V114H191.532V106.248C191.532 105.352 191.348 104.712 190.98 104.328C190.628 103.928 190.108 103.728 189.42 103.728C188.86 103.728 188.38 103.88 187.98 104.184C187.596 104.488 187.3 104.936 187.092 105.528C186.9 106.104 186.804 106.832 186.804 107.712V114H183.204ZM204.602 114.312C202.81 114.312 201.458 113.912 200.546 113.112C199.634 112.312 199.178 111.144 199.178 109.608V108.648C199.178 107.992 199.266 107.456 199.442 107.04C199.618 106.608 199.834 106.216 200.09 105.864C200.346 105.512 200.554 105.2 200.714 104.928C200.89 104.64 200.978 104.344 200.978 104.04C200.978 103.752 200.906 103.552 200.762 103.44C200.634 103.312 200.458 103.248 200.234 103.248C200.074 103.248 199.906 103.272 199.73 103.32C199.57 103.368 199.386 103.44 199.178 103.536L198.602 101.28C199.05 101.04 199.53 100.88 200.042 100.8C200.57 100.704 201.034 100.656 201.434 100.656C202.138 100.656 202.698 100.768 203.114 100.992C203.546 101.216 203.858 101.536 204.05 101.952C204.242 102.368 204.338 102.864 204.338 103.44C204.338 103.936 204.266 104.376 204.122 104.76C203.978 105.128 203.794 105.512 203.57 105.912C203.362 106.28 203.17 106.624 202.994 106.944C202.834 107.264 202.754 107.728 202.754 108.336V109.296C202.754 109.808 202.826 110.232 202.97 110.568C203.13 110.888 203.346 111.128 203.618 111.288C203.906 111.432 204.242 111.504 204.626 111.504C205.25 111.504 205.714 111.328 206.018 110.976C206.322 110.608 206.474 110.088 206.474 109.416V100.848H210.05V109.512C210.05 111.096 209.586 112.296 208.658 113.112C207.73 113.912 206.378 114.312 204.602 114.312ZM219.357 114.312C217.405 114.312 215.957 113.84 215.013 112.896C214.069 111.936 213.597 110.52 213.597 108.648C213.597 108.328 213.605 107.944 213.621 107.496C213.653 107.032 213.693 106.624 213.741 106.272H219.501V108.552H217.125V108.888C217.125 109.528 217.205 110.056 217.365 110.472C217.525 110.872 217.765 111.168 218.085 111.36C218.421 111.552 218.837 111.648 219.333 111.648C219.877 111.648 220.333 111.528 220.701 111.288C221.085 111.048 221.373 110.64 221.565 110.064C221.773 109.488 221.877 108.696 221.877 107.688C221.877 106.744 221.765 105.96 221.541 105.336C221.333 104.696 220.973 104.216 220.461 103.896C219.965 103.576 219.277 103.416 218.397 103.416C217.917 103.416 217.421 103.472 216.909 103.584C216.397 103.68 215.909 103.808 215.445 103.968C214.997 104.128 214.605 104.304 214.269 104.496V101.496C214.621 101.304 215.053 101.136 215.565 100.992C216.093 100.848 216.661 100.736 217.269 100.656C217.877 100.576 218.477 100.536 219.069 100.536C220.621 100.536 221.869 100.824 222.813 101.4C223.773 101.96 224.469 102.76 224.901 103.8C225.349 104.84 225.573 106.072 225.573 107.496C225.573 108.952 225.357 110.192 224.925 111.216C224.509 112.224 223.845 112.992 222.933 113.52C222.021 114.048 220.829 114.312 219.357 114.312ZM231.327 114L227.511 100.848H231.135L234.039 111.096H234.183C234.439 111.096 234.679 111.024 234.903 110.88C235.127 110.736 235.319 110.544 235.479 110.304C235.799 109.856 236.039 109.328 236.199 108.72C236.359 108.096 236.439 107.48 236.439 106.872C236.439 105.8 236.231 104.976 235.815 104.4C235.415 103.824 234.855 103.536 234.135 103.536C233.991 103.536 233.855 103.544 233.727 103.56C233.615 103.576 233.511 103.608 233.415 103.656L232.743 100.896C233.111 100.784 233.455 100.72 233.775 100.704C234.111 100.672 234.383 100.656 234.591 100.656C235.439 100.656 236.175 100.768 236.799 100.992C237.423 101.216 237.959 101.552 238.407 102C238.967 102.544 239.383 103.224 239.655 104.04C239.943 104.856 240.087 105.776 240.087 106.8C240.087 108.096 239.879 109.232 239.463 110.208C239.063 111.168 238.575 111.928 237.999 112.488C237.519 112.952 236.911 113.32 236.175 113.592C235.455 113.864 234.463 114 233.199 114H231.327ZM243.718 114V100.848H247.27V105.768H247.366L251.446 100.848H255.406V100.968L247.27 109.992V114H243.718ZM251.758 114V109.656C251.758 108.808 251.51 108.2 251.014 107.832C250.534 107.448 249.83 107.256 248.902 107.256L251.014 104.76C251.974 104.76 252.774 104.952 253.414 105.336C254.054 105.72 254.534 106.24 254.854 106.896C255.19 107.536 255.358 108.272 255.358 109.104V114H251.758ZM263.64 114.24C262.664 114.24 261.84 114.056 261.168 113.688C260.512 113.304 260.008 112.736 259.656 111.984C259.32 111.232 259.152 110.312 259.152 109.224V100.848H262.752V108.6C262.752 109.48 262.928 110.12 263.28 110.52C263.632 110.92 264.144 111.12 264.816 111.12C265.664 111.12 266.32 110.8 266.784 110.16C267.248 109.504 267.48 108.496 267.48 107.136V100.848H271.08V114H268.344L267.96 111.984H267.744C267.472 112.624 267 113.16 266.328 113.592C265.672 114.024 264.776 114.24 263.64 114.24ZM268.307 99.024C267.555 99.024 266.963 98.912 266.531 98.688C266.099 98.464 265.795 98.184 265.619 97.848C265.427 97.496 265.331 97.128 265.331 96.744C265.331 96.472 265.371 96.184 265.451 95.88C265.531 95.56 265.651 95.264 265.811 94.992L268.427 95.328C268.395 95.44 268.371 95.56 268.355 95.688C268.323 95.8 268.307 95.904 268.307 96C268.307 96.224 268.379 96.4 268.523 96.528C268.651 96.64 268.875 96.696 269.195 96.696H274.355V99.024H268.307ZM278.363 114L274.547 100.848H278.171L281.075 111.096H281.219C281.475 111.096 281.715 111.024 281.939 110.88C282.163 110.736 282.355 110.544 282.515 110.304C282.835 109.856 283.075 109.328 283.235 108.72C283.395 108.096 283.475 107.48 283.475 106.872C283.475 105.8 283.267 104.976 282.851 104.4C282.451 103.824 281.891 103.536 281.171 103.536C281.027 103.536 280.891 103.544 280.763 103.56C280.651 103.576 280.547 103.608 280.451 103.656L279.779 100.896C280.147 100.784 280.491 100.72 280.811 100.704C281.147 100.672 281.419 100.656 281.627 100.656C282.475 100.656 283.211 100.768 283.835 100.992C284.459 101.216 284.995 101.552 285.443 102C286.003 102.544 286.419 103.224 286.691 104.04C286.979 104.856 287.123 105.776 287.123 106.8C287.123 108.096 286.915 109.232 286.499 110.208C286.099 111.168 285.611 111.928 285.035 112.488C284.555 112.952 283.947 113.32 283.211 113.592C282.491 113.864 281.499 114 280.235 114H278.363ZM298.026 114V105.456C298.026 104.688 297.818 104.136 297.402 103.8C296.986 103.464 296.346 103.296 295.482 103.296C294.65 103.296 293.834 103.424 293.034 103.68C292.25 103.92 291.57 104.208 290.994 104.544V101.568C291.458 101.344 292.114 101.12 292.962 100.896C293.81 100.656 294.786 100.536 295.89 100.536C296.738 100.536 297.498 100.64 298.17 100.848C298.858 101.056 299.354 101.464 299.658 102.072C300.33 102.28 300.81 102.688 301.098 103.296C301.402 103.888 301.554 104.656 301.554 105.6V114H298.026ZM294.09 114.24C292.714 114.24 291.65 113.912 290.898 113.256C290.162 112.6 289.794 111.68 289.794 110.496C289.794 109.216 290.25 108.192 291.162 107.424C292.09 106.656 293.546 106.192 295.53 106.032L298.602 105.792V108.384L295.938 108.648C294.978 108.744 294.306 108.936 293.922 109.224C293.554 109.512 293.37 109.896 293.37 110.376C293.37 110.856 293.522 111.216 293.826 111.456C294.146 111.696 294.554 111.816 295.05 111.816C295.242 111.816 295.434 111.8 295.626 111.768C295.818 111.72 295.994 111.672 296.154 111.624L296.466 113.88C296.162 113.992 295.802 114.08 295.386 114.144C294.97 114.208 294.538 114.24 294.09 114.24ZM299.586 103.464L297.618 101.808C298.178 101.616 298.618 101.376 298.938 101.088C299.258 100.784 299.426 100.416 299.442 99.984H302.586C302.586 100.48 302.482 100.96 302.274 101.424C302.082 101.872 301.762 102.272 301.314 102.624C300.882 102.976 300.306 103.256 299.586 103.464ZM291.316 99.024V97.512L293.74 96.504H302.308V99.024H291.316ZM296.356 97.56V94.848H298.636V97.56H296.356ZM300.052 97.56V94.848H302.308V97.56H300.052ZM311.648 114.312C309.696 114.312 308.248 113.84 307.304 112.896C306.36 111.936 305.888 110.52 305.888 108.648C305.888 108.328 305.896 107.944 305.912 107.496C305.944 107.032 305.984 106.624 306.032 106.272H311.792V108.552H309.416V108.888C309.416 109.528 309.496 110.056 309.656 110.472C309.816 110.872 310.056 111.168 310.376 111.36C310.712 111.552 311.128 111.648 311.624 111.648C312.168 111.648 312.624 111.528 312.992 111.288C313.376 111.048 313.664 110.64 313.856 110.064C314.064 109.488 314.168 108.696 314.168 107.688C314.168 106.744 314.056 105.96 313.832 105.336C313.624 104.696 313.264 104.216 312.752 103.896C312.256 103.576 311.568 103.416 310.688 103.416C310.208 103.416 309.712 103.472 309.2 103.584C308.688 103.68 308.2 103.808 307.736 103.968C307.288 104.128 306.896 104.304 306.56 104.496V101.496C306.912 101.304 307.344 101.136 307.856 100.992C308.384 100.848 308.952 100.736 309.56 100.656C310.168 100.576 310.768 100.536 311.36 100.536C312.912 100.536 314.16 100.824 315.104 101.4C316.064 101.96 316.76 102.76 317.192 103.8C317.64 104.84 317.864 106.072 317.864 107.496C317.864 108.952 317.648 110.192 317.216 111.216C316.8 112.224 316.136 112.992 315.224 113.52C314.312 114.048 313.12 114.312 311.648 114.312Z" fill="#252525"/>
<path d="M144.59 167.2C143.99 167.2 143.483 167.107 143.07 166.92C142.657 166.733 142.343 166.453 142.13 166.08C141.917 165.693 141.81 165.213 141.81 164.64V156.04H144.81V164.28C144.81 164.533 144.863 164.72 144.97 164.84C145.09 164.96 145.27 165.02 145.51 165.02C145.617 165.02 145.73 165.007 145.85 164.98C145.97 164.953 146.083 164.92 146.19 164.88L146.47 166.8C146.217 166.933 145.93 167.033 145.61 167.1C145.29 167.167 144.95 167.2 144.59 167.2ZM150.61 167.2C150.01 167.2 149.503 167.107 149.09 166.92C148.677 166.733 148.363 166.453 148.15 166.08C147.937 165.693 147.83 165.213 147.83 164.64V156.04H150.83V164.28C150.83 164.533 150.883 164.72 150.99 164.84C151.11 164.96 151.29 165.02 151.53 165.02C151.637 165.02 151.75 165.007 151.87 164.98C151.99 164.953 152.103 164.92 152.21 164.88L152.49 166.8C152.237 166.933 151.95 167.033 151.63 167.1C151.31 167.167 150.97 167.2 150.61 167.2ZM159.745 167.26C158.012 167.26 156.752 166.86 155.965 166.06C155.192 165.247 154.805 164.073 154.805 162.54V156.04H157.805V162.7C157.805 163.407 157.959 163.947 158.265 164.32C158.585 164.68 159.079 164.86 159.745 164.86C160.412 164.86 160.899 164.68 161.205 164.32C161.525 163.947 161.685 163.407 161.685 162.7V156.04H164.685V162.54C164.685 164.073 164.292 165.247 163.505 166.06C162.732 166.86 161.479 167.26 159.745 167.26ZM162.417 154.52V149.98H165.177V154.52H162.417ZM170.561 167L167.381 156.04H170.401L172.821 164.58H172.941C173.155 164.58 173.355 164.52 173.541 164.4C173.728 164.28 173.888 164.12 174.021 163.92C174.288 163.547 174.488 163.107 174.621 162.6C174.755 162.08 174.821 161.567 174.821 161.06C174.821 160.167 174.648 159.48 174.301 159C173.968 158.52 173.501 158.28 172.901 158.28C172.781 158.28 172.668 158.287 172.561 158.3C172.468 158.313 172.381 158.34 172.301 158.38L171.741 156.08C172.048 155.987 172.335 155.933 172.601 155.92C172.881 155.893 173.108 155.88 173.281 155.88C173.988 155.88 174.601 155.973 175.121 156.16C175.641 156.347 176.088 156.627 176.461 157C176.928 157.453 177.275 158.02 177.501 158.7C177.741 159.38 177.861 160.147 177.861 161C177.861 162.08 177.688 163.027 177.341 163.84C177.008 164.64 176.601 165.273 176.121 165.74C175.721 166.127 175.215 166.433 174.601 166.66C174.001 166.887 173.175 167 172.121 167H170.561ZM183.787 167.2C183.187 167.2 182.68 167.107 182.267 166.92C181.854 166.733 181.54 166.453 181.327 166.08C181.114 165.693 181.007 165.213 181.007 164.64V156.04H184.007V164.28C184.007 164.533 184.06 164.72 184.167 164.84C184.287 164.96 184.467 165.02 184.707 165.02C184.814 165.02 184.927 165.007 185.047 164.98C185.167 164.953 185.28 164.92 185.387 164.88L185.667 166.8C185.414 166.933 185.127 167.033 184.807 167.1C184.487 167.167 184.147 167.2 183.787 167.2ZM192.927 167.26C191.193 167.26 189.933 166.86 189.147 166.06C188.373 165.247 187.987 164.073 187.987 162.54V156.04H190.987V162.7C190.987 163.407 191.14 163.947 191.447 164.32C191.767 164.68 192.26 164.86 192.927 164.86C193.593 164.86 194.08 164.68 194.387 164.32C194.707 163.947 194.867 163.407 194.867 162.7V152.1H197.867V162.54C197.867 164.073 197.473 165.247 196.687 166.06C195.913 166.86 194.66 167.26 192.927 167.26ZM192.761 154.7C192.401 154.7 192.094 154.627 191.841 154.48C191.574 154.333 191.361 154.107 191.201 153.8L190.421 154.64C189.648 154.64 189.034 154.44 188.581 154.04C188.128 153.627 187.901 153.033 187.901 152.26C187.901 151.447 188.128 150.847 188.581 150.46C189.034 150.06 189.548 149.86 190.121 149.86H194.561V151.32H190.581C190.354 151.32 190.161 151.4 190.001 151.56C189.841 151.72 189.761 151.967 189.761 152.3C189.761 152.54 189.814 152.74 189.921 152.9C190.014 153.06 190.168 153.14 190.381 153.14L191.121 152.28H191.541C191.554 152.56 191.621 152.787 191.741 152.96C191.848 153.12 192.008 153.2 192.221 153.2C192.394 153.2 192.534 153.14 192.641 153.02C192.734 152.887 192.781 152.713 192.781 152.5V152.2H194.581V152.6C194.581 153.32 194.414 153.853 194.081 154.2C193.748 154.533 193.308 154.7 192.761 154.7ZM205.622 167.2C204.809 167.2 204.122 167.047 203.562 166.74C203.015 166.42 202.595 165.947 202.302 165.32C202.022 164.693 201.882 163.927 201.882 163.02V156.04H204.882V162.5C204.882 163.233 205.029 163.767 205.322 164.1C205.615 164.433 206.042 164.6 206.602 164.6C207.309 164.6 207.855 164.333 208.242 163.8C208.629 163.253 208.822 162.413 208.822 161.28V156.04H211.822V167H209.542L209.222 165.32H209.042C208.815 165.853 208.422 166.3 207.862 166.66C207.315 167.02 206.569 167.2 205.622 167.2ZM225.796 167.199C224.735 167.199 223.791 167.017 222.962 166.652C222.138 166.283 221.487 165.776 221.009 165.132C220.536 164.483 220.292 163.735 220.278 162.888H223.374C223.393 163.243 223.509 163.555 223.722 163.825C223.94 164.09 224.229 164.296 224.589 164.443C224.948 164.59 225.353 164.663 225.803 164.663C226.272 164.663 226.686 164.58 227.046 164.415C227.406 164.249 227.688 164.019 227.891 163.726C228.095 163.432 228.197 163.094 228.197 162.71C228.197 162.322 228.088 161.979 227.87 161.68C227.657 161.377 227.349 161.141 226.947 160.97C226.549 160.8 226.075 160.714 225.526 160.714H224.17V158.456H225.526C225.99 158.456 226.4 158.375 226.755 158.214C227.115 158.054 227.394 157.831 227.593 157.547C227.792 157.258 227.891 156.922 227.891 156.538C227.891 156.174 227.804 155.854 227.628 155.58C227.458 155.3 227.216 155.082 226.904 154.926C226.596 154.77 226.236 154.692 225.824 154.692C225.408 154.692 225.027 154.768 224.681 154.919C224.335 155.066 224.058 155.277 223.85 155.551C223.642 155.826 223.53 156.148 223.516 156.517H220.569C220.583 155.679 220.822 154.94 221.286 154.301C221.75 153.662 222.375 153.162 223.161 152.803C223.952 152.438 224.844 152.256 225.839 152.256C226.842 152.256 227.721 152.438 228.474 152.803C229.226 153.167 229.811 153.66 230.228 154.28C230.649 154.895 230.858 155.587 230.853 156.354C230.858 157.168 230.604 157.848 230.093 158.392C229.586 158.937 228.926 159.282 228.111 159.429V159.543C229.181 159.68 229.996 160.052 230.555 160.658C231.118 161.259 231.397 162.012 231.393 162.916C231.397 163.745 231.158 164.481 230.675 165.125C230.197 165.769 229.537 166.276 228.694 166.645C227.851 167.014 226.885 167.199 225.796 167.199ZM244.593 167.26C242.86 167.26 241.6 166.86 240.813 166.06C240.04 165.247 239.653 164.073 239.653 162.54V156.04H242.653V162.7C242.653 163.407 242.806 163.947 243.113 164.32C243.433 164.68 243.926 164.86 244.593 164.86C245.26 164.86 245.746 164.68 246.053 164.32C246.373 163.947 246.533 163.407 246.533 162.7V152.1H249.533V162.54C249.533 164.073 249.14 165.247 248.353 166.06C247.58 166.86 246.326 167.26 244.593 167.26ZM256.708 167.26C255.922 167.26 255.128 167.173 254.328 167C253.542 166.827 252.842 166.58 252.228 166.26L253.068 163.88C253.335 164.027 253.655 164.18 254.028 164.34C254.402 164.5 254.808 164.633 255.248 164.74C255.688 164.847 256.135 164.9 256.588 164.9C257.122 164.9 257.522 164.827 257.788 164.68C258.068 164.52 258.208 164.28 258.208 163.96C258.208 163.72 258.115 163.527 257.928 163.38C257.755 163.22 257.495 163.073 257.148 162.94C256.802 162.793 256.388 162.64 255.908 162.48C255.202 162.227 254.595 161.953 254.088 161.66C253.582 161.367 253.188 161.007 252.908 160.58C252.642 160.153 252.508 159.62 252.508 158.98C252.508 158.247 252.695 157.647 253.068 157.18C253.442 156.713 253.968 156.367 254.648 156.14C255.328 155.9 256.122 155.78 257.028 155.78C257.775 155.78 258.448 155.84 259.048 155.96C259.648 156.08 260.115 156.233 260.448 156.42V158.78C260.222 158.673 259.922 158.567 259.548 158.46C259.188 158.353 258.795 158.267 258.368 158.2C257.955 158.12 257.555 158.08 257.168 158.08C256.622 158.08 256.208 158.153 255.928 158.3C255.648 158.447 255.508 158.653 255.508 158.92C255.508 159.133 255.602 159.313 255.788 159.46C255.988 159.607 256.275 159.747 256.648 159.88C257.022 160 257.468 160.153 257.988 160.34C258.682 160.58 259.268 160.847 259.748 161.14C260.228 161.433 260.588 161.793 260.828 162.22C261.082 162.647 261.208 163.173 261.208 163.8C261.208 164.4 261.068 164.967 260.788 165.5C260.522 166.02 260.062 166.447 259.408 166.78C258.755 167.1 257.855 167.26 256.708 167.26ZM265.78 160.54C265.167 160.54 264.68 160.447 264.32 160.26C263.96 160.073 263.7 159.827 263.54 159.52C263.38 159.2 263.3 158.867 263.3 158.52C263.3 158.293 263.333 158.06 263.4 157.82C263.467 157.567 263.567 157.32 263.7 157.08L265.88 157.36C265.853 157.453 265.827 157.553 265.8 157.66C265.787 157.767 265.78 157.88 265.78 158C265.78 158.173 265.833 158.313 265.94 158.42C266.047 158.513 266.233 158.56 266.5 158.56H268.76V160.54H265.78ZM265.78 166.14C265.167 166.14 264.68 166.047 264.32 165.86C263.96 165.673 263.7 165.427 263.54 165.12C263.38 164.8 263.3 164.467 263.3 164.12C263.3 163.893 263.333 163.66 263.4 163.42C263.467 163.167 263.567 162.92 263.7 162.68L265.88 162.96C265.853 163.053 265.827 163.153 265.8 163.26C265.787 163.367 265.78 163.48 265.78 163.6C265.78 163.773 265.833 163.913 265.94 164.02C266.047 164.113 266.233 164.16 266.5 164.16H268.76V166.14H265.78ZM274.748 167.2C274.148 167.2 273.641 167.107 273.228 166.92C272.815 166.733 272.501 166.453 272.288 166.08C272.075 165.693 271.968 165.213 271.968 164.64V156.04H274.968V164.28C274.968 164.533 275.021 164.72 275.128 164.84C275.248 164.96 275.428 165.02 275.668 165.02C275.775 165.02 275.888 165.007 276.008 164.98C276.128 164.953 276.241 164.92 276.348 164.88L276.628 166.8C276.375 166.933 276.088 167.033 275.768 167.1C275.448 167.167 275.108 167.2 274.748 167.2ZM279.964 167.2C279.591 167.2 279.251 167.16 278.944 167.08C278.638 167.013 278.364 166.913 278.124 166.78L278.404 165.12C278.498 165.147 278.584 165.167 278.664 165.18C278.758 165.193 278.844 165.2 278.924 165.2C279.151 165.2 279.311 165.147 279.404 165.04C279.511 164.92 279.564 164.74 279.564 164.5V163.04C279.564 162.387 279.698 161.88 279.964 161.52C280.231 161.147 280.638 160.893 281.184 160.76L281.204 160.68L279.024 159.9V159.38C279.024 158.727 279.211 158.127 279.584 157.58C279.958 157.033 280.518 156.6 281.264 156.28C282.011 155.947 282.931 155.78 284.024 155.78C285.051 155.78 285.938 155.94 286.684 156.26C287.431 156.567 288.004 157.033 288.404 157.66C288.818 158.273 289.024 159.053 289.024 160V167H286.024V160.18C286.024 159.513 285.844 159.013 285.484 158.68C285.138 158.347 284.638 158.18 283.984 158.18C283.371 158.18 282.911 158.313 282.604 158.58C282.298 158.833 282.131 159.147 282.104 159.52L283.844 160.3L283.624 161.6C283.251 161.6 282.964 161.727 282.764 161.98C282.578 162.22 282.484 162.613 282.484 163.16V164.84C282.484 165.693 282.244 166.3 281.764 166.66C281.298 167.02 280.698 167.2 279.964 167.2ZM292.559 167V156.04H294.759L295.159 157.76H295.319C295.545 157.213 295.939 156.76 296.499 156.4C297.059 156.027 297.785 155.84 298.679 155.84C299.532 155.84 300.239 155.993 300.799 156.3C301.359 156.593 301.779 157.047 302.059 157.66C302.352 158.26 302.499 159.02 302.499 159.94V167H299.499V160.54C299.499 159.793 299.345 159.26 299.039 158.94C298.745 158.607 298.312 158.44 297.739 158.44C297.272 158.44 296.872 158.567 296.539 158.82C296.219 159.073 295.972 159.447 295.799 159.94C295.639 160.42 295.559 161.027 295.559 161.76V167H292.559Z" fill="#252525"/>
<path d="M205.58 283V272.04H208.54V276.14H208.62L212.02 272.04H215.32V272.14L208.54 279.66V283H205.58ZM212.28 283V279.38C212.28 278.673 212.073 278.167 211.66 277.86C211.26 277.54 210.673 277.38 209.9 277.38L211.66 275.3C212.46 275.3 213.127 275.46 213.66 275.78C214.193 276.1 214.593 276.533 214.86 277.08C215.14 277.613 215.28 278.227 215.28 278.92V283H212.28ZM222.181 283.2C221.368 283.2 220.681 283.047 220.121 282.74C219.575 282.42 219.155 281.947 218.861 281.32C218.581 280.693 218.441 279.927 218.441 279.02V272.04H221.441V278.5C221.441 279.233 221.588 279.767 221.881 280.1C222.175 280.433 222.601 280.6 223.161 280.6C223.868 280.6 224.415 280.333 224.801 279.8C225.188 279.253 225.381 278.413 225.381 277.28V272.04H228.381V283H226.101L225.781 281.32H225.601C225.375 281.853 224.981 282.3 224.421 282.66C223.875 283.02 223.128 283.2 222.181 283.2ZM226.071 270.52C225.444 270.52 224.951 270.427 224.591 270.24C224.231 270.053 223.978 269.82 223.831 269.54C223.671 269.247 223.591 268.94 223.591 268.62C223.591 268.393 223.624 268.153 223.691 267.9C223.758 267.633 223.858 267.387 223.991 267.16L226.171 267.44C226.144 267.533 226.124 267.633 226.111 267.74C226.084 267.833 226.071 267.92 226.071 268C226.071 268.187 226.131 268.333 226.251 268.44C226.358 268.533 226.544 268.58 226.811 268.58H231.111V270.52H226.071ZM234.451 283L231.271 272.04H234.291L236.711 280.58H236.831C237.044 280.58 237.244 280.52 237.431 280.4C237.618 280.28 237.778 280.12 237.911 279.92C238.178 279.547 238.378 279.107 238.511 278.6C238.644 278.08 238.711 277.567 238.711 277.06C238.711 276.167 238.538 275.48 238.191 275C237.858 274.52 237.391 274.28 236.791 274.28C236.671 274.28 236.558 274.287 236.451 274.3C236.358 274.313 236.271 274.34 236.191 274.38L235.631 272.08C235.938 271.987 236.224 271.933 236.491 271.92C236.771 271.893 236.998 271.88 237.171 271.88C237.878 271.88 238.491 271.973 239.011 272.16C239.531 272.347 239.978 272.627 240.351 273C240.818 273.453 241.164 274.02 241.391 274.7C241.631 275.38 241.751 276.147 241.751 277C241.751 278.08 241.578 279.027 241.231 279.84C240.898 280.64 240.491 281.273 240.011 281.74C239.611 282.127 239.104 282.433 238.491 282.66C237.891 282.887 237.064 283 236.011 283H234.451ZM250.837 283V275.88C250.837 275.24 250.664 274.78 250.317 274.5C249.97 274.22 249.437 274.08 248.717 274.08C248.024 274.08 247.344 274.187 246.677 274.4C246.024 274.6 245.457 274.84 244.977 275.12V272.64C245.364 272.453 245.91 272.267 246.617 272.08C247.324 271.88 248.137 271.78 249.057 271.78C249.764 271.78 250.397 271.867 250.957 272.04C251.53 272.213 251.944 272.553 252.197 273.06C252.757 273.233 253.157 273.573 253.397 274.08C253.65 274.573 253.777 275.213 253.777 276V283H250.837ZM247.557 283.2C246.41 283.2 245.524 282.927 244.897 282.38C244.284 281.833 243.977 281.067 243.977 280.08C243.977 279.013 244.357 278.16 245.117 277.52C245.89 276.88 247.104 276.493 248.757 276.36L251.317 276.16V278.32L249.097 278.54C248.297 278.62 247.737 278.78 247.417 279.02C247.11 279.26 246.957 279.58 246.957 279.98C246.957 280.38 247.084 280.68 247.337 280.88C247.604 281.08 247.944 281.18 248.357 281.18C248.517 281.18 248.677 281.167 248.837 281.14C248.997 281.1 249.144 281.06 249.277 281.02L249.537 282.9C249.284 282.993 248.984 283.067 248.637 283.12C248.29 283.173 247.93 283.2 247.557 283.2ZM252.137 274.22L250.497 272.84C250.964 272.68 251.33 272.48 251.597 272.24C251.864 271.987 252.004 271.68 252.017 271.32H254.637C254.637 271.733 254.55 272.133 254.377 272.52C254.217 272.893 253.95 273.227 253.577 273.52C253.217 273.813 252.737 274.047 252.137 274.22ZM245.245 270.52V269.26L247.265 268.42H254.405V270.52H245.245ZM249.445 269.3V267.04H251.345V269.3H249.445ZM252.525 269.3V267.04H254.405V269.3H252.525ZM262.188 283.26C260.561 283.26 259.355 282.867 258.568 282.08C257.781 281.28 257.388 280.1 257.388 278.54C257.388 278.273 257.395 277.953 257.408 277.58C257.435 277.193 257.468 276.853 257.508 276.56H262.308V278.46H260.328V278.74C260.328 279.273 260.395 279.713 260.528 280.06C260.661 280.393 260.861 280.64 261.128 280.8C261.408 280.96 261.755 281.04 262.168 281.04C262.621 281.04 263.001 280.94 263.308 280.74C263.628 280.54 263.868 280.2 264.028 279.72C264.201 279.24 264.288 278.58 264.288 277.74C264.288 276.953 264.195 276.3 264.008 275.78C263.835 275.247 263.535 274.847 263.108 274.58C262.695 274.313 262.121 274.18 261.388 274.18C260.988 274.18 260.575 274.227 260.148 274.32C259.721 274.4 259.315 274.507 258.928 274.64C258.555 274.773 258.228 274.92 257.948 275.08V272.58C258.241 272.42 258.601 272.28 259.028 272.16C259.468 272.04 259.941 271.947 260.448 271.88C260.955 271.813 261.455 271.78 261.948 271.78C263.241 271.78 264.281 272.02 265.068 272.5C265.868 272.967 266.448 273.633 266.808 274.5C267.181 275.367 267.368 276.393 267.368 277.58C267.368 278.793 267.188 279.827 266.828 280.68C266.481 281.52 265.928 282.16 265.168 282.6C264.408 283.04 263.415 283.26 262.188 283.26ZM273.364 283.2C272.764 283.2 272.257 283.107 271.844 282.92C271.43 282.733 271.117 282.453 270.904 282.08C270.69 281.693 270.584 281.213 270.584 280.64V272.04H273.584V280.28C273.584 280.533 273.637 280.72 273.744 280.84C273.864 280.96 274.044 281.02 274.284 281.02C274.39 281.02 274.504 281.007 274.624 280.98C274.744 280.953 274.857 280.92 274.964 280.88L275.244 282.8C274.99 282.933 274.704 283.033 274.384 283.1C274.064 283.167 273.724 283.2 273.364 283.2ZM281.323 283.2C280.509 283.2 279.823 283.047 279.263 282.74C278.716 282.42 278.296 281.947 278.003 281.32C277.723 280.693 277.583 279.927 277.583 279.02V272.04H280.583V278.5C280.583 279.233 280.729 279.767 281.023 280.1C281.316 280.433 281.743 280.6 282.303 280.6C283.009 280.6 283.556 280.333 283.943 279.8C284.329 279.253 284.523 278.413 284.523 277.28V272.04H287.523V283H285.243L284.923 281.32H284.743C284.516 281.853 284.123 282.3 283.563 282.66C283.016 283.02 282.269 283.2 281.323 283.2ZM278.993 270.52V269.26L281.013 268.42H288.153V270.52H278.993ZM283.193 269.3V267.04H285.093V269.3H283.193ZM286.273 269.3V267.04H288.153V269.3H286.273ZM283.996 265.98V265.16C284.129 265.12 284.296 265.06 284.496 264.98C284.683 264.9 284.849 264.793 284.996 264.66C285.143 264.527 285.216 264.36 285.216 264.16C285.216 264.013 285.176 263.9 285.096 263.82C285.003 263.727 284.889 263.68 284.756 263.68C284.663 263.68 284.563 263.7 284.456 263.74C284.336 263.767 284.243 263.813 284.176 263.88L283.816 262.72C284.056 262.533 284.356 262.413 284.716 262.36C285.063 262.293 285.363 262.26 285.616 262.26C286.123 262.26 286.536 262.367 286.856 262.58C287.163 262.78 287.316 263.113 287.316 263.58C287.316 263.78 287.276 263.987 287.196 264.2C287.103 264.413 286.923 264.587 286.656 264.72L286.516 264.3H289.496V265.98H283.996ZM296.672 283.26C295.046 283.26 293.839 282.867 293.052 282.08C292.266 281.28 291.872 280.1 291.872 278.54C291.872 278.273 291.879 277.953 291.892 277.58C291.919 277.193 291.952 276.853 291.992 276.56H296.792V278.46H294.812V278.74C294.812 279.273 294.879 279.713 295.012 280.06C295.146 280.393 295.346 280.64 295.612 280.8C295.892 280.96 296.239 281.04 296.652 281.04C297.106 281.04 297.486 280.94 297.792 280.74C298.112 280.54 298.352 280.2 298.512 279.72C298.686 279.24 298.772 278.58 298.772 277.74C298.772 276.953 298.679 276.3 298.492 275.78C298.319 275.247 298.019 274.847 297.592 274.58C297.179 274.313 296.606 274.18 295.872 274.18C295.472 274.18 295.059 274.227 294.632 274.32C294.206 274.4 293.799 274.507 293.412 274.64C293.039 274.773 292.712 274.92 292.432 275.08V272.58C292.726 272.42 293.086 272.28 293.512 272.16C293.952 272.04 294.426 271.947 294.932 271.88C295.439 271.813 295.939 271.78 296.432 271.78C297.726 271.78 298.766 272.02 299.552 272.5C300.352 272.967 300.932 273.633 301.292 274.5C301.666 275.367 301.852 276.393 301.852 277.58C301.852 278.793 301.672 279.827 301.312 280.68C300.966 281.52 300.412 282.16 299.652 282.6C298.892 283.04 297.899 283.26 296.672 283.26ZM304.948 283V272.04H307.908V276.14H307.988L311.388 272.04H314.688V272.14L307.908 279.66V283H304.948ZM311.648 283V279.38C311.648 278.673 311.441 278.167 311.028 277.86C310.628 277.54 310.041 277.38 309.268 277.38L311.028 275.3C311.828 275.3 312.495 275.46 313.028 275.78C313.561 276.1 313.961 276.533 314.228 277.08C314.508 277.613 314.648 278.227 314.648 278.92V283H311.648ZM320.709 283V275.76C320.709 275.2 320.576 274.793 320.309 274.54C320.056 274.287 319.636 274.16 319.049 274.16C318.609 274.16 318.203 274.22 317.829 274.34C317.469 274.46 317.129 274.607 316.809 274.78V272.38C317.103 272.247 317.516 272.113 318.049 271.98C318.583 271.847 319.209 271.78 319.929 271.78C320.663 271.78 321.309 271.887 321.869 272.1C322.443 272.313 322.889 272.673 323.209 273.18C323.543 273.673 323.709 274.353 323.709 275.22V283H320.709ZM338.934 275.827V278.227H332.3V275.827H338.934ZM348.214 274.04V270.78C348.214 269.98 348.067 269.407 347.774 269.06C347.48 268.713 347.04 268.54 346.454 268.54V267.34L348.474 266.38H353.574V268.54H350.214L350.194 268.62C350.54 268.833 350.794 269.14 350.954 269.54C351.127 269.94 351.214 270.467 351.214 271.12V274.04H348.214ZM350.994 283.2C350.394 283.2 349.887 283.107 349.474 282.92C349.06 282.733 348.747 282.453 348.534 282.08C348.32 281.693 348.214 281.213 348.214 280.64V272.04H351.214V280.28C351.214 280.533 351.267 280.72 351.374 280.84C351.494 280.96 351.674 281.02 351.914 281.02C352.02 281.02 352.134 281.007 352.254 280.98C352.374 280.953 352.487 280.92 352.594 280.88L352.874 282.8C352.62 282.933 352.334 283.033 352.014 283.1C351.694 283.167 351.354 283.2 350.994 283.2ZM355.87 283V278.4H354.73V276.56H358.57V280.72H358.71C359.15 280.72 359.523 280.6 359.83 280.36C360.15 280.12 360.39 279.767 360.55 279.3C360.71 278.82 360.79 278.22 360.79 277.5C360.79 276.673 360.67 276.02 360.43 275.54C360.203 275.047 359.863 274.693 359.41 274.48C358.956 274.267 358.396 274.16 357.73 274.16C357.036 274.16 356.41 274.26 355.85 274.46C355.29 274.647 354.79 274.873 354.35 275.14V272.64C354.79 272.413 355.343 272.213 356.01 272.04C356.676 271.867 357.443 271.78 358.31 271.78C359.603 271.78 360.65 271.987 361.45 272.4C362.263 272.813 362.863 273.44 363.25 274.28C363.636 275.12 363.83 276.173 363.83 277.44C363.83 278.627 363.65 279.64 363.29 280.48C362.943 281.307 362.37 281.933 361.57 282.36C360.783 282.787 359.73 283 358.41 283H355.87ZM366.881 283V272.04H369.081L369.481 273.76H369.641C369.868 273.213 370.261 272.76 370.821 272.4C371.381 272.027 372.108 271.84 373.001 271.84C373.855 271.84 374.561 271.993 375.121 272.3C375.681 272.593 376.101 273.047 376.381 273.66C376.675 274.26 376.821 275.02 376.821 275.94V283H373.821V276.54C373.821 275.793 373.668 275.26 373.361 274.94C373.068 274.607 372.635 274.44 372.061 274.44C371.595 274.44 371.195 274.567 370.861 274.82C370.541 275.073 370.295 275.447 370.121 275.94C369.961 276.42 369.881 277.027 369.881 277.76V283H366.881ZM384.853 283.26C383.653 283.26 382.693 283.12 381.973 282.84C381.253 282.547 380.726 282.14 380.393 281.62C380.073 281.1 379.913 280.5 379.913 279.82C379.913 279.233 379.999 278.76 380.173 278.4C380.359 278.04 380.593 277.767 380.873 277.58C381.166 277.38 381.459 277.247 381.752 277.18V277.06C381.446 276.953 381.153 276.807 380.873 276.62C380.593 276.433 380.359 276.18 380.173 275.86C379.999 275.54 379.913 275.14 379.913 274.66C379.913 274.167 380.026 273.707 380.253 273.28C380.493 272.853 380.873 272.513 381.393 272.26C381.913 271.993 382.599 271.86 383.453 271.86C383.866 271.86 384.266 271.893 384.653 271.96C385.039 272.013 385.339 272.093 385.553 272.2L385.093 274.22C384.986 274.193 384.839 274.167 384.653 274.14C384.479 274.1 384.299 274.08 384.113 274.08C383.699 274.08 383.393 274.18 383.193 274.38C382.993 274.567 382.893 274.813 382.893 275.12C382.893 275.44 382.979 275.687 383.153 275.86C383.326 276.033 383.546 276.153 383.812 276.22C384.093 276.287 384.379 276.32 384.673 276.32H385.093V278.18H384.673C384.099 278.18 383.666 278.28 383.373 278.48C383.093 278.68 382.953 279.007 382.953 279.46C382.953 279.7 383.006 279.94 383.113 280.18C383.233 280.407 383.433 280.6 383.713 280.76C383.993 280.907 384.393 280.98 384.913 280.98C385.406 280.98 385.793 280.907 386.073 280.76C386.353 280.613 386.553 280.42 386.673 280.18C386.793 279.927 386.853 279.647 386.853 279.34V272.04H389.853V279.24C389.853 280.613 389.446 281.627 388.633 282.28C387.833 282.933 386.573 283.26 384.853 283.26ZM386.71 270.96C386.603 270.773 386.517 270.533 386.45 270.24C386.37 269.947 386.33 269.653 386.33 269.36C386.33 268.987 386.403 268.647 386.55 268.34C386.683 268.033 386.93 267.793 387.29 267.62C387.637 267.433 388.117 267.34 388.73 267.34H391.63V269.36H389.71C389.457 269.36 389.263 269.407 389.13 269.5C388.983 269.58 388.91 269.733 388.91 269.96C388.91 270.053 388.923 270.153 388.95 270.26C388.977 270.353 389.017 270.453 389.07 270.56L386.71 270.96Z" fill="#6B2DBC"/>
<path d="M208.816 257.16C207.557 257.16 206.656 256.872 206.112 256.296C205.568 255.72 205.296 254.899 205.296 253.832V248.232H206.72V253.848C206.72 254.563 206.891 255.096 207.232 255.448C207.573 255.8 208.101 255.976 208.816 255.976C209.541 255.976 210.075 255.8 210.416 255.448C210.768 255.096 210.944 254.563 210.944 253.848V245.08H212.368V253.832C212.368 254.899 212.091 255.72 211.536 256.296C210.992 256.872 210.085 257.16 208.816 257.16ZM217.927 257.16C217.298 257.16 216.711 257.101 216.167 256.984C215.634 256.856 215.181 256.707 214.807 256.536L215.223 255.384C215.447 255.469 215.703 255.56 215.991 255.656C216.279 255.752 216.589 255.832 216.919 255.896C217.261 255.949 217.607 255.976 217.959 255.976C218.525 255.976 218.994 255.869 219.367 255.656C219.741 255.443 219.927 255.133 219.927 254.728C219.927 254.483 219.858 254.275 219.719 254.104C219.591 253.923 219.389 253.757 219.111 253.608C218.834 253.459 218.477 253.315 218.039 253.176C217.367 252.963 216.797 252.739 216.327 252.504C215.869 252.259 215.517 251.971 215.271 251.64C215.037 251.299 214.919 250.877 214.919 250.376C214.919 249.928 215.037 249.533 215.271 249.192C215.517 248.84 215.89 248.568 216.391 248.376C216.903 248.173 217.554 248.072 218.343 248.072C218.855 248.072 219.335 248.12 219.783 248.216C220.242 248.301 220.599 248.424 220.855 248.584V249.784C220.674 249.699 220.445 249.613 220.168 249.528C219.901 249.443 219.607 249.373 219.287 249.32C218.967 249.267 218.637 249.24 218.295 249.24C217.581 249.24 217.074 249.352 216.775 249.576C216.487 249.789 216.343 250.035 216.343 250.312C216.343 250.547 216.407 250.744 216.535 250.904C216.674 251.064 216.903 251.219 217.223 251.368C217.554 251.517 217.997 251.688 218.551 251.88C219.063 252.051 219.533 252.248 219.959 252.472C220.386 252.696 220.722 252.979 220.967 253.32C221.223 253.651 221.352 254.077 221.352 254.6C221.352 255.048 221.24 255.469 221.016 255.864C220.802 256.248 220.445 256.563 219.944 256.808C219.442 257.043 218.77 257.16 217.927 257.16ZM224.908 251.496C224.471 251.496 224.113 251.432 223.836 251.304C223.569 251.165 223.377 250.995 223.26 250.792C223.143 250.579 223.084 250.355 223.084 250.12C223.084 249.96 223.105 249.795 223.148 249.624C223.201 249.453 223.265 249.309 223.34 249.192L224.54 249.384C224.519 249.437 224.492 249.512 224.46 249.608C224.439 249.704 224.428 249.8 224.428 249.896C224.428 250.035 224.465 250.152 224.54 250.248C224.615 250.333 224.753 250.376 224.956 250.376H227.244V251.496H224.908ZM224.908 255.976C224.471 255.976 224.113 255.912 223.836 255.784C223.569 255.645 223.377 255.475 223.26 255.272C223.143 255.059 223.084 254.835 223.084 254.6C223.084 254.44 223.105 254.275 223.148 254.104C223.201 253.933 223.265 253.789 223.34 253.672L224.54 253.864C224.519 253.917 224.492 253.992 224.46 254.088C224.439 254.184 224.428 254.28 224.428 254.376C224.428 254.515 224.465 254.632 224.54 254.728C224.615 254.813 224.753 254.856 224.956 254.856H227.244V255.976H224.908ZM231.626 257.16C231.338 257.16 231.061 257.112 230.794 257.016C230.528 256.92 230.309 256.749 230.138 256.504C229.968 256.259 229.882 255.917 229.882 255.48V248.232H231.306V255.304C231.306 255.549 231.36 255.725 231.466 255.832C231.573 255.939 231.744 255.992 231.978 255.992C232.074 255.992 232.176 255.981 232.282 255.96C232.389 255.939 232.49 255.912 232.586 255.88L232.778 256.92C232.576 257.016 232.378 257.08 232.186 257.112C231.994 257.144 231.808 257.16 231.626 257.16ZM234.953 257.16C234.761 257.16 234.574 257.139 234.393 257.096C234.212 257.064 234.03 257.005 233.849 256.92L234.009 255.928C234.084 255.949 234.169 255.971 234.265 255.992C234.361 256.013 234.452 256.024 234.537 256.024C234.708 256.024 234.83 255.976 234.905 255.88C234.98 255.773 235.017 255.608 235.017 255.384V253.896C235.017 253.235 235.14 252.76 235.385 252.472C235.63 252.173 235.982 251.971 236.441 251.864L236.457 251.816L234.617 251.144V250.616C234.617 250.179 234.756 249.768 235.033 249.384C235.321 248.989 235.737 248.675 236.281 248.44C236.825 248.195 237.476 248.072 238.233 248.072C238.894 248.072 239.502 248.179 240.057 248.392C240.612 248.595 241.054 248.92 241.385 249.368C241.726 249.805 241.897 250.381 241.897 251.096V257H240.473V251.24C240.473 250.525 240.254 250.019 239.817 249.72C239.38 249.411 238.846 249.256 238.217 249.256C237.556 249.256 237.033 249.395 236.649 249.672C236.265 249.939 236.073 250.28 236.073 250.696L237.897 251.56L237.769 252.328C237.374 252.328 237.054 252.456 236.809 252.712C236.564 252.968 236.441 253.379 236.441 253.944V255.496C236.441 256.147 236.297 256.589 236.009 256.824C235.721 257.048 235.369 257.16 234.953 257.16ZM245.01 257V248.232H246.002L246.258 249.624H246.322C246.503 249.144 246.834 248.765 247.314 248.488C247.794 248.211 248.375 248.072 249.058 248.072C249.698 248.072 250.242 248.184 250.69 248.408C251.148 248.621 251.5 248.952 251.746 249.4C251.991 249.848 252.114 250.429 252.114 251.144V257H250.69V251.224C250.69 250.584 250.53 250.099 250.21 249.768C249.89 249.437 249.415 249.272 248.786 249.272C248.284 249.272 247.858 249.389 247.506 249.624C247.154 249.859 246.887 250.179 246.706 250.584C246.524 250.979 246.434 251.427 246.434 251.928V257H245.01ZM255.24 257V248.232H256.232L256.488 249.624H256.552C256.733 249.144 257.064 248.765 257.544 248.488C258.024 248.211 258.605 248.072 259.288 248.072C259.928 248.072 260.472 248.184 260.92 248.408C261.378 248.621 261.73 248.952 261.976 249.4C262.221 249.848 262.344 250.429 262.344 251.144V257H260.92V251.224C260.92 250.584 260.76 250.099 260.44 249.768C260.12 249.437 259.645 249.272 259.016 249.272C258.514 249.272 258.088 249.389 257.736 249.624C257.384 249.859 257.117 250.179 256.936 250.584C256.754 250.979 256.664 251.427 256.664 251.928V257H255.24ZM255.855 246.84V246.216L257.023 245.704H262.655V246.84H255.855ZM261.327 246.216V244.408H262.671V246.216H261.327ZM261.791 243.464V240.856H263.151V243.464H261.791ZM275.202 257.159C274.452 257.159 273.783 257.03 273.196 256.773C272.613 256.515 272.149 256.157 271.804 255.699C271.463 255.237 271.278 254.701 271.247 254.091H272.679C272.71 254.466 272.838 254.79 273.066 255.062C273.293 255.331 273.59 255.54 273.958 255.688C274.325 255.835 274.732 255.909 275.179 255.909C275.679 255.909 276.122 255.822 276.509 255.648C276.895 255.473 277.198 255.231 277.418 254.92C277.638 254.61 277.747 254.25 277.747 253.841C277.747 253.413 277.641 253.036 277.429 252.71C277.217 252.381 276.907 252.123 276.497 251.938C276.088 251.752 275.588 251.659 274.997 251.659H274.066V250.409H274.997C275.46 250.409 275.865 250.326 276.213 250.159C276.566 249.992 276.84 249.758 277.037 249.455C277.238 249.152 277.338 248.795 277.338 248.386C277.338 247.992 277.251 247.65 277.077 247.358C276.903 247.066 276.657 246.839 276.338 246.676C276.024 246.513 275.653 246.432 275.225 246.432C274.823 246.432 274.444 246.506 274.088 246.653C273.736 246.797 273.448 247.008 273.225 247.284C273.001 247.557 272.88 247.886 272.861 248.273H271.497C271.52 247.663 271.704 247.129 272.049 246.67C272.393 246.208 272.844 245.848 273.401 245.591C273.961 245.333 274.577 245.205 275.247 245.205C275.967 245.205 276.585 245.35 277.1 245.642C277.615 245.93 278.011 246.311 278.287 246.784C278.564 247.258 278.702 247.769 278.702 248.318C278.702 248.973 278.53 249.532 278.185 249.994C277.844 250.456 277.38 250.777 276.793 250.955V251.045C277.528 251.167 278.102 251.479 278.514 251.983C278.927 252.483 279.134 253.102 279.134 253.841C279.134 254.473 278.961 255.042 278.617 255.545C278.276 256.045 277.81 256.439 277.219 256.727C276.628 257.015 275.956 257.159 275.202 257.159Z" fill="#B4B4B4"/>
<path d="M205.602 324V314.136H207.204V318.402H207.258L211.362 314.136H213.234V314.19L207.204 320.292V324H205.602ZM211.722 324V320.526C211.722 319.818 211.506 319.266 211.074 318.87C210.642 318.474 209.928 318.276 208.932 318.276L209.868 317.106C210.624 317.106 211.254 317.244 211.758 317.52C212.274 317.784 212.664 318.168 212.928 318.672C213.192 319.176 213.324 319.782 213.324 320.49V324H211.722ZM219.964 324.18C219.256 324.18 218.644 324.06 218.128 323.82C217.624 323.568 217.234 323.19 216.958 322.686C216.694 322.182 216.562 321.528 216.562 320.724V314.136H218.164V320.634C218.164 321.354 218.344 321.9 218.704 322.272C219.076 322.644 219.61 322.83 220.306 322.83C221.146 322.83 221.794 322.56 222.25 322.02C222.718 321.48 222.952 320.754 222.952 319.842V314.136H224.554V324H223.222L223.15 322.542H223.06C222.844 323.022 222.466 323.418 221.926 323.73C221.398 324.03 220.744 324.18 219.964 324.18ZM222.796 312.57C222.292 312.57 221.89 312.498 221.59 312.354C221.29 312.21 221.074 312.024 220.942 311.796C220.798 311.568 220.726 311.328 220.726 311.076C220.726 310.896 220.756 310.704 220.816 310.5C220.864 310.284 220.93 310.11 221.014 309.978L222.364 310.212C222.34 310.26 222.316 310.344 222.292 310.464C222.268 310.572 222.256 310.674 222.256 310.77C222.256 310.926 222.304 311.064 222.4 311.184C222.496 311.292 222.658 311.346 222.886 311.346H227.44V312.57H222.796ZM230.302 324L227.224 314.136H228.844L231.508 322.614H231.724C232.012 322.614 232.294 322.548 232.57 322.416C232.846 322.272 233.08 322.092 233.272 321.876C233.632 321.48 233.896 320.982 234.064 320.382C234.232 319.77 234.316 319.17 234.316 318.582C234.316 317.586 234.088 316.806 233.632 316.242C233.188 315.666 232.57 315.378 231.778 315.378C231.622 315.378 231.466 315.39 231.31 315.414C231.166 315.438 231.046 315.468 230.95 315.504L230.554 314.226C230.806 314.154 231.04 314.106 231.256 314.082C231.484 314.058 231.688 314.046 231.868 314.046C232.468 314.046 233.002 314.136 233.47 314.316C233.95 314.484 234.358 314.736 234.694 315.072C235.114 315.48 235.42 315.99 235.612 316.602C235.816 317.214 235.918 317.892 235.918 318.636C235.918 319.572 235.774 320.406 235.486 321.138C235.198 321.858 234.838 322.434 234.406 322.866C234.058 323.214 233.632 323.49 233.128 323.694C232.624 323.898 231.982 324 231.202 324H230.302ZM244.667 324V317.43C244.667 316.65 244.487 316.098 244.127 315.774C243.779 315.438 243.191 315.27 242.363 315.27C241.763 315.27 241.187 315.354 240.635 315.522C240.095 315.678 239.579 315.9 239.087 316.188V314.694C239.435 314.514 239.903 314.346 240.491 314.19C241.091 314.034 241.763 313.956 242.507 313.956C243.143 313.956 243.683 314.028 244.127 314.172C244.583 314.316 244.919 314.58 245.135 314.964C245.555 315.156 245.843 315.456 245.999 315.864C246.167 316.272 246.251 316.764 246.251 317.34V324H244.667ZM241.571 324.18C240.515 324.18 239.705 323.94 239.141 323.46C238.589 322.968 238.313 322.266 238.313 321.354C238.313 320.358 238.673 319.59 239.393 319.05C240.125 318.51 241.307 318.192 242.939 318.096L244.991 317.97V319.302L243.155 319.428C241.931 319.512 241.085 319.704 240.617 320.004C240.161 320.304 239.933 320.742 239.933 321.318C239.933 321.858 240.101 322.254 240.437 322.506C240.785 322.758 241.265 322.884 241.877 322.884C242.081 322.884 242.267 322.872 242.435 322.848C242.603 322.812 242.765 322.77 242.921 322.722L243.173 323.928C242.945 324.012 242.693 324.072 242.417 324.108C242.153 324.156 241.871 324.18 241.571 324.18ZM245.081 315.522L244.181 314.676C244.493 314.628 244.787 314.508 245.063 314.316C245.339 314.124 245.477 313.848 245.477 313.488H247.043C247.043 313.86 246.953 314.19 246.773 314.478C246.605 314.754 246.371 314.982 246.071 315.162C245.771 315.33 245.441 315.45 245.081 315.522ZM239.143 312.57V311.868L240.457 311.292H246.793V312.57H239.143ZM242.851 311.868V309.834H244.183V311.868H242.851ZM245.479 311.868V309.834H246.793V311.868H245.479ZM253.762 324.18C252.466 324.18 251.494 323.844 250.846 323.172C250.21 322.488 249.892 321.42 249.892 319.968C249.892 319.728 249.898 319.47 249.91 319.194C249.934 318.906 249.958 318.624 249.982 318.348H253.762V319.608H251.494V319.968C251.494 320.724 251.578 321.318 251.746 321.75C251.914 322.17 252.16 322.464 252.484 322.632C252.82 322.8 253.234 322.884 253.726 322.884C254.266 322.884 254.734 322.782 255.13 322.578C255.526 322.374 255.832 322.002 256.048 321.462C256.264 320.922 256.372 320.148 256.372 319.14C256.372 318.252 256.276 317.526 256.084 316.962C255.892 316.398 255.574 315.978 255.13 315.702C254.698 315.426 254.11 315.288 253.366 315.288C252.982 315.288 252.61 315.324 252.25 315.396C251.89 315.456 251.542 315.552 251.206 315.684C250.87 315.804 250.54 315.96 250.216 316.152V314.658C250.456 314.526 250.75 314.412 251.098 314.316C251.446 314.208 251.83 314.124 252.25 314.064C252.67 313.992 253.108 313.956 253.564 313.956C254.62 313.956 255.472 314.172 256.12 314.604C256.78 315.024 257.26 315.624 257.56 316.404C257.86 317.172 258.01 318.084 258.01 319.14C258.01 320.196 257.872 321.102 257.596 321.858C257.32 322.614 256.87 323.19 256.246 323.586C255.634 323.982 254.806 324.18 253.762 324.18ZM261.2 324V314.136H262.316L262.604 315.702H262.676C262.88 315.162 263.252 314.736 263.792 314.424C264.332 314.112 264.986 313.956 265.754 313.956C266.474 313.956 267.086 314.082 267.59 314.334C268.106 314.574 268.502 314.946 268.778 315.45C269.054 315.954 269.192 316.608 269.192 317.412V324H267.59V317.502C267.59 316.782 267.41 316.236 267.05 315.864C266.69 315.492 266.156 315.306 265.448 315.306C264.884 315.306 264.404 315.438 264.008 315.702C263.612 315.966 263.312 316.326 263.108 316.782C262.904 317.226 262.802 317.73 262.802 318.294V324H261.2ZM261.892 312.57V311.868L263.206 311.292H269.542V312.57H261.892ZM268.048 311.868V309.834H269.56V311.868H268.048ZM268.57 308.772V305.838H270.1V308.772H268.57ZM278.487 324.18C277.719 324.18 277.053 324.03 276.489 323.73C275.937 323.418 275.559 322.986 275.355 322.434H275.283L275.193 324H273.879V314.136H275.481V319.842C275.481 320.442 275.583 320.97 275.787 321.426C276.003 321.87 276.309 322.218 276.705 322.47C277.113 322.71 277.599 322.83 278.163 322.83C278.871 322.83 279.399 322.644 279.747 322.272C280.095 321.9 280.269 321.354 280.269 320.634V314.136H281.871V320.742C281.871 321.534 281.733 322.182 281.457 322.686C281.193 323.19 280.809 323.568 280.305 323.82C279.801 324.06 279.195 324.18 278.487 324.18ZM274.762 312.57V311.868L276.076 311.292H282.412V312.57H274.762ZM280.918 311.868V309.834H282.43V311.868H280.918ZM285.926 324V314.136H287.042L287.33 315.702H287.402C287.606 315.162 287.978 314.736 288.518 314.424C289.058 314.112 289.712 313.956 290.48 313.956C291.2 313.956 291.812 314.082 292.316 314.334C292.832 314.574 293.228 314.946 293.504 315.45C293.78 315.954 293.918 316.608 293.918 317.412V324H292.316V317.502C292.316 316.782 292.136 316.236 291.776 315.864C291.416 315.492 290.882 315.306 290.174 315.306C289.61 315.306 289.13 315.438 288.734 315.702C288.338 315.966 288.038 316.326 287.834 316.782C287.63 317.226 287.528 317.73 287.528 318.294V324H285.926ZM291.982 312.57C291.478 312.57 291.076 312.498 290.776 312.354C290.476 312.21 290.26 312.024 290.128 311.796C289.984 311.568 289.912 311.328 289.912 311.076C289.912 310.896 289.942 310.704 290.002 310.5C290.05 310.284 290.116 310.11 290.2 309.978L291.55 310.212C291.526 310.26 291.502 310.344 291.478 310.464C291.454 310.572 291.442 310.674 291.442 310.77C291.442 310.926 291.49 311.064 291.586 311.184C291.682 311.292 291.844 311.346 292.072 311.346H296.626V312.57H291.982ZM292.311 309.772V309.142C292.467 309.106 292.635 309.052 292.815 308.98C292.995 308.908 293.151 308.818 293.283 308.71C293.415 308.59 293.481 308.44 293.481 308.26C293.481 308.128 293.445 308.026 293.373 307.954C293.301 307.882 293.199 307.846 293.067 307.846C292.971 307.846 292.875 307.864 292.779 307.9C292.671 307.924 292.569 307.966 292.473 308.026L292.149 307.198C292.365 307.054 292.611 306.958 292.887 306.91C293.151 306.862 293.361 306.838 293.517 306.838C293.829 306.838 294.111 306.922 294.363 307.09C294.615 307.246 294.741 307.516 294.741 307.9C294.741 308.056 294.711 308.236 294.651 308.44C294.579 308.632 294.435 308.788 294.219 308.908L294.111 308.566H296.847V309.772H292.311ZM300.08 324L297.002 314.136H298.622L301.286 322.614H301.502C301.79 322.614 302.072 322.548 302.348 322.416C302.624 322.272 302.858 322.092 303.05 321.876C303.41 321.48 303.674 320.982 303.842 320.382C304.01 319.77 304.094 319.17 304.094 318.582C304.094 317.586 303.866 316.806 303.41 316.242C302.966 315.666 302.348 315.378 301.556 315.378C301.4 315.378 301.244 315.39 301.088 315.414C300.944 315.438 300.824 315.468 300.728 315.504L300.332 314.226C300.584 314.154 300.818 314.106 301.034 314.082C301.262 314.058 301.466 314.046 301.646 314.046C302.246 314.046 302.78 314.136 303.248 314.316C303.728 314.484 304.136 314.736 304.472 315.072C304.892 315.48 305.198 315.99 305.39 316.602C305.594 317.214 305.696 317.892 305.696 318.636C305.696 319.572 305.552 320.406 305.264 321.138C304.976 321.858 304.616 322.434 304.184 322.866C303.836 323.214 303.41 323.49 302.906 323.694C302.402 323.898 301.76 324 300.98 324H300.08ZM310.9 324.18C310.576 324.18 310.264 324.126 309.964 324.018C309.664 323.91 309.418 323.718 309.226 323.442C309.034 323.166 308.938 322.782 308.938 322.29V314.136H310.54V322.092C310.54 322.368 310.6 322.566 310.72 322.686C310.84 322.806 311.032 322.866 311.296 322.866C311.404 322.866 311.518 322.854 311.638 322.83C311.758 322.806 311.872 322.776 311.98 322.74L312.196 323.91C311.968 324.018 311.746 324.09 311.53 324.126C311.314 324.162 311.104 324.18 310.9 324.18ZM317.813 324.18C317.105 324.18 316.493 324.06 315.977 323.82C315.473 323.568 315.083 323.19 314.807 322.686C314.543 322.182 314.411 321.528 314.411 320.724V314.136H316.013V320.634C316.013 321.354 316.193 321.9 316.553 322.272C316.925 322.644 317.459 322.83 318.155 322.83C318.995 322.83 319.643 322.56 320.099 322.02C320.567 321.48 320.801 320.754 320.801 319.842V314.136H322.403V324H321.071L320.999 322.542H320.909C320.693 323.022 320.315 323.418 319.775 323.73C319.247 324.03 318.593 324.18 317.813 324.18ZM315.281 312.57V311.868L316.595 311.292H322.931V312.57H315.281ZM318.989 311.868V309.834H320.321V311.868H318.989ZM321.617 311.868V309.834H322.931V311.868H321.617ZM319.251 308.772V308.142C319.407 308.106 319.575 308.052 319.755 307.98C319.935 307.908 320.091 307.818 320.223 307.71C320.355 307.59 320.421 307.44 320.421 307.26C320.421 307.128 320.385 307.026 320.313 306.954C320.241 306.882 320.139 306.846 320.007 306.846C319.911 306.846 319.815 306.864 319.719 306.9C319.611 306.924 319.509 306.966 319.413 307.026L319.089 306.198C319.305 306.054 319.551 305.958 319.827 305.91C320.091 305.862 320.301 305.838 320.457 305.838C320.769 305.838 321.051 305.922 321.303 306.09C321.555 306.246 321.681 306.516 321.681 306.9C321.681 307.056 321.651 307.236 321.591 307.44C321.519 307.632 321.375 307.788 321.159 307.908L321.051 307.566H323.787V308.772H319.251ZM330.563 324.18C329.267 324.18 328.295 323.844 327.647 323.172C327.011 322.488 326.693 321.42 326.693 319.968C326.693 319.728 326.699 319.47 326.711 319.194C326.735 318.906 326.759 318.624 326.783 318.348H330.563V319.608H328.295V319.968C328.295 320.724 328.379 321.318 328.547 321.75C328.715 322.17 328.961 322.464 329.285 322.632C329.621 322.8 330.035 322.884 330.527 322.884C331.067 322.884 331.535 322.782 331.931 322.578C332.327 322.374 332.633 322.002 332.849 321.462C333.065 320.922 333.173 320.148 333.173 319.14C333.173 318.252 333.077 317.526 332.885 316.962C332.693 316.398 332.375 315.978 331.931 315.702C331.499 315.426 330.911 315.288 330.167 315.288C329.783 315.288 329.411 315.324 329.051 315.396C328.691 315.456 328.343 315.552 328.007 315.684C327.671 315.804 327.341 315.96 327.017 316.152V314.658C327.257 314.526 327.551 314.412 327.899 314.316C328.247 314.208 328.631 314.124 329.051 314.064C329.471 313.992 329.909 313.956 330.365 313.956C331.421 313.956 332.273 314.172 332.921 314.604C333.581 315.024 334.061 315.624 334.361 316.404C334.661 317.172 334.811 318.084 334.811 319.14C334.811 320.196 334.673 321.102 334.397 321.858C334.121 322.614 333.671 323.19 333.047 323.586C332.435 323.982 331.607 324.18 330.563 324.18ZM338.09 324V314.136H339.692V318.402H339.746L343.85 314.136H345.722V314.19L339.692 320.292V324H338.09ZM344.21 324V320.526C344.21 319.818 343.994 319.266 343.562 318.87C343.13 318.474 342.416 318.276 341.42 318.276L342.356 317.106C343.112 317.106 343.742 317.244 344.246 317.52C344.762 317.784 345.152 318.168 345.416 318.672C345.68 319.176 345.812 319.782 345.812 320.49V324H344.21ZM351.841 324V316.998C351.841 316.41 351.703 315.978 351.427 315.702C351.163 315.426 350.713 315.288 350.077 315.288C349.645 315.288 349.237 315.348 348.853 315.468C348.481 315.576 348.121 315.732 347.773 315.936V314.496C348.013 314.376 348.355 314.256 348.799 314.136C349.243 314.016 349.771 313.956 350.383 313.956C351.007 313.956 351.547 314.046 352.003 314.226C352.459 314.406 352.813 314.706 353.065 315.126C353.317 315.534 353.443 316.08 353.443 316.764V324H351.841ZM207.69 346.18C207.366 346.18 207.054 346.126 206.754 346.018C206.454 345.91 206.208 345.718 206.016 345.442C205.824 345.166 205.728 344.782 205.728 344.29V336.136H207.33V344.092C207.33 344.368 207.39 344.566 207.51 344.686C207.63 344.806 207.822 344.866 208.086 344.866C208.194 344.866 208.308 344.854 208.428 344.83C208.548 344.806 208.662 344.776 208.77 344.74L208.986 345.91C208.758 346.018 208.536 346.09 208.32 346.126C208.104 346.162 207.894 346.18 207.69 346.18ZM212.604 346.18C212.28 346.18 211.968 346.126 211.668 346.018C211.368 345.91 211.122 345.718 210.93 345.442C210.738 345.166 210.642 344.782 210.642 344.29V336.136H212.244V344.092C212.244 344.368 212.304 344.566 212.424 344.686C212.544 344.806 212.736 344.866 213 344.866C213.108 344.866 213.222 344.854 213.342 344.83C213.462 344.806 213.576 344.776 213.684 344.74L213.9 345.91C213.672 346.018 213.45 346.09 213.234 346.126C213.018 346.162 212.808 346.18 212.604 346.18ZM221.831 346V339.43C221.831 338.65 221.651 338.098 221.291 337.774C220.943 337.438 220.355 337.27 219.527 337.27C218.927 337.27 218.351 337.354 217.799 337.522C217.259 337.678 216.743 337.9 216.251 338.188V336.694C216.599 336.514 217.067 336.346 217.655 336.19C218.255 336.034 218.927 335.956 219.671 335.956C220.307 335.956 220.859 336.028 221.327 336.172C221.795 336.304 222.179 336.508 222.479 336.784C222.791 337.06 223.025 337.414 223.181 337.846C223.337 338.266 223.415 338.764 223.415 339.34V346H221.831ZM218.735 346.18C217.679 346.18 216.869 345.94 216.305 345.46C215.753 344.968 215.477 344.266 215.477 343.354C215.477 342.358 215.837 341.59 216.557 341.05C217.289 340.51 218.471 340.192 220.103 340.096L222.155 339.97V341.302L220.319 341.428C219.095 341.512 218.249 341.704 217.781 342.004C217.325 342.304 217.097 342.742 217.097 343.318C217.097 343.858 217.265 344.254 217.601 344.506C217.949 344.758 218.429 344.884 219.041 344.884C219.245 344.884 219.431 344.872 219.599 344.848C219.767 344.812 219.929 344.77 220.085 344.722L220.337 345.928C220.109 346.012 219.857 346.072 219.581 346.108C219.317 346.156 219.035 346.18 218.735 346.18ZM228.172 339.808C227.68 339.808 227.278 339.736 226.966 339.592C226.666 339.436 226.45 339.244 226.318 339.016C226.186 338.776 226.12 338.524 226.12 338.26C226.12 338.08 226.144 337.894 226.192 337.702C226.252 337.51 226.324 337.348 226.408 337.216L227.758 337.432C227.734 337.492 227.704 337.576 227.668 337.684C227.644 337.792 227.632 337.9 227.632 338.008C227.632 338.164 227.674 338.296 227.758 338.404C227.842 338.5 227.998 338.548 228.226 338.548H230.8V339.808H228.172ZM228.172 344.848C227.68 344.848 227.278 344.776 226.966 344.632C226.666 344.476 226.45 344.284 226.318 344.056C226.186 343.816 226.12 343.564 226.12 343.3C226.12 343.12 226.144 342.934 226.192 342.742C226.252 342.55 226.324 342.388 226.408 342.256L227.758 342.472C227.734 342.532 227.704 342.616 227.668 342.724C227.644 342.832 227.632 342.94 227.632 343.048C227.632 343.204 227.674 343.336 227.758 343.444C227.842 343.54 227.998 343.588 228.226 343.588H230.8V344.848H228.172ZM234.02 337.936V334.408C234.02 333.688 233.846 333.172 233.498 332.86C233.162 332.548 232.73 332.392 232.202 332.392V331.708L233.534 331.132H238.34V332.392H234.686L234.668 332.464C234.932 332.644 235.154 332.92 235.334 333.292C235.526 333.652 235.622 334.126 235.622 334.714V337.936H234.02ZM235.982 346.18C235.658 346.18 235.346 346.126 235.046 346.018C234.746 345.91 234.5 345.718 234.308 345.442C234.116 345.166 234.02 344.782 234.02 344.29V336.136H235.622V344.092C235.622 344.368 235.682 344.566 235.802 344.686C235.922 344.806 236.114 344.866 236.378 344.866C236.486 344.866 236.6 344.854 236.72 344.83C236.84 344.806 236.954 344.776 237.062 344.74L237.278 345.91C237.05 346.018 236.828 346.09 236.612 346.126C236.396 346.162 236.186 346.18 235.982 346.18ZM240.236 346V341.608H238.868V340.348H241.766V344.704H242C242.54 344.704 242.99 344.584 243.35 344.344C243.71 344.104 243.98 343.714 244.16 343.174C244.34 342.634 244.43 341.92 244.43 341.032C244.43 340.144 244.328 339.424 244.124 338.872C243.932 338.32 243.614 337.918 243.17 337.666C242.738 337.414 242.15 337.288 241.406 337.288C240.842 337.288 240.296 337.366 239.768 337.522C239.252 337.666 238.754 337.894 238.274 338.206V336.712C238.634 336.496 239.108 336.316 239.696 336.172C240.284 336.028 240.92 335.956 241.604 335.956C242.696 335.956 243.566 336.16 244.214 336.568C244.874 336.964 245.348 337.54 245.636 338.296C245.924 339.052 246.068 339.97 246.068 341.05C246.068 342.094 245.924 342.988 245.636 343.732C245.36 344.464 244.904 345.028 244.268 345.424C243.644 345.808 242.804 346 241.748 346H240.236ZM249.222 346V336.136H250.338L250.626 337.702H250.698C250.902 337.162 251.274 336.736 251.814 336.424C252.354 336.112 253.008 335.956 253.776 335.956C254.496 335.956 255.108 336.082 255.612 336.334C256.128 336.574 256.524 336.946 256.8 337.45C257.076 337.954 257.214 338.608 257.214 339.412V346H255.612V339.502C255.612 338.782 255.432 338.236 255.072 337.864C254.712 337.492 254.178 337.306 253.47 337.306C252.906 337.306 252.426 337.438 252.03 337.702C251.634 337.966 251.334 338.326 251.13 338.782C250.926 339.226 250.824 339.73 250.824 340.294V346H249.222ZM264.475 346.162C263.503 346.162 262.723 346.036 262.135 345.784C261.559 345.532 261.139 345.178 260.875 344.722C260.623 344.266 260.497 343.726 260.497 343.102C260.497 342.55 260.575 342.112 260.731 341.788C260.899 341.452 261.103 341.206 261.343 341.05C261.595 340.894 261.853 340.792 262.117 340.744V340.672C261.877 340.6 261.625 340.48 261.361 340.312C261.097 340.144 260.875 339.91 260.695 339.61C260.527 339.31 260.443 338.932 260.443 338.476C260.443 338.056 260.539 337.66 260.731 337.288C260.923 336.916 261.235 336.61 261.667 336.37C262.099 336.13 262.669 336.01 263.377 336.01C263.665 336.01 263.965 336.034 264.277 336.082C264.589 336.118 264.829 336.184 264.997 336.28L264.709 337.522C264.577 337.474 264.403 337.432 264.187 337.396C263.983 337.348 263.767 337.324 263.539 337.324C263.035 337.324 262.663 337.444 262.423 337.684C262.183 337.912 262.063 338.218 262.063 338.602C262.063 339.022 262.165 339.34 262.369 339.556C262.585 339.772 262.855 339.922 263.179 340.006C263.515 340.078 263.863 340.114 264.223 340.114H264.565V341.284H264.223C263.503 341.284 262.969 341.416 262.621 341.68C262.285 341.932 262.117 342.358 262.117 342.958C262.117 343.306 262.183 343.624 262.315 343.912C262.459 344.2 262.699 344.428 263.035 344.596C263.383 344.764 263.863 344.848 264.475 344.848C265.087 344.848 265.561 344.764 265.897 344.596C266.245 344.428 266.491 344.188 266.635 343.876C266.779 343.552 266.851 343.168 266.851 342.724V336.136H268.453V342.616C268.453 343.876 268.129 344.782 267.481 345.334C266.845 345.886 265.843 346.162 264.475 346.162ZM266.033 335.092C265.949 334.96 265.883 334.792 265.835 334.588C265.775 334.372 265.745 334.162 265.745 333.958C265.745 333.706 265.799 333.472 265.907 333.256C266.015 333.028 266.207 332.842 266.483 332.698C266.759 332.554 267.143 332.482 267.635 332.482H270.101V333.724H268.049C267.809 333.724 267.617 333.772 267.473 333.868C267.329 333.952 267.257 334.102 267.257 334.318C267.257 334.402 267.275 334.492 267.311 334.588C267.335 334.684 267.371 334.78 267.419 334.876L266.033 335.092Z" fill="#252525"/>
<path d="M101.299 336.47C100.474 336.13 100.474 334.962 101.299 334.621L135.106 320.679C135.765 320.408 136.488 320.892 136.488 321.604V349.488C136.488 350.2 135.765 350.684 135.106 350.412L101.299 336.47Z" fill="#AB80E3"/>
<path d="M121.055 334.622C121.88 334.962 121.88 336.13 121.055 336.471L87.2471 350.413C86.5889 350.684 85.8659 350.2 85.8659 349.488V321.604C85.8659 320.892 86.5889 320.408 87.2471 320.68L121.055 334.622Z" fill="#AB80E3"/>
<path d="M102.618 288.504H124.37" stroke="#AB80E3" stroke-width="7" stroke-linecap="round" stroke-linejoin="round"/>
<path d="M161.254 245H64.7891V367H161.254V245Z" stroke="#AB80E3" stroke-width="7" stroke-linecap="round" stroke-linejoin="round"/>
<circle cx="77.5349" cy="291.924" r="25.5349" fill="#AB80E3"/>
<circle cx="145.715" cy="291.923" r="25.5349" fill="#AB80E3"/>
<defs>
<filter id="filter0_d_899_3087" x="0" y="0" width="437" height="599" filterUnits="userSpaceOnUse" color-interpolation-filters="sRGB">
<feFlood flood-opacity="0" result="BackgroundImageFix"/>
<feColorMatrix in="SourceAlpha" type="matrix" values="0 0 0 0 0 0 0 0 0 0 0 0 0 0 0 0 0 0 127 0" result="hardAlpha"/>
<feOffset dy="4"/>
<feGaussianBlur stdDeviation="10"/>
<feComposite in2="hardAlpha" operator="out"/>
<feColorMatrix type="matrix" values="0 0 0 0 0 0 0 0 0 0 0 0 0 0 0 0 0 0 0.25 0"/>
<feBlend mode="normal" in2="BackgroundImageFix" result="effect1_dropShadow_899_3087"/>
<feBlend mode="normal" in="SourceGraphic" in2="effect1_dropShadow_899_3087" result="shape"/>
</filter>
</defs>
</svg>
