<svg width="50" height="20" viewBox="0 0 50 20" fill="none" xmlns="http://www.w3.org/2000/svg">
<path d="M36.52 16.16C35.8373 16.16 35.2453 16.0267 34.744 15.76C34.2533 15.4827 33.9173 15.0987 33.736 14.608H33.672L33.592 16H32.424V7.232H33.848V12.304C33.848 12.8373 33.9387 13.3067 34.12 13.712C34.312 14.1067 34.584 14.416 34.936 14.64C35.2987 14.8533 35.7307 14.96 36.232 14.96C36.8613 14.96 37.3307 14.7947 37.64 14.464C37.9493 14.1333 38.104 13.648 38.104 13.008V7.232H39.528V13.104C39.528 13.808 39.4053 14.384 39.16 14.832C38.9253 15.28 38.584 15.616 38.136 15.84C37.688 16.0533 37.1493 16.16 36.52 16.16ZM41.6281 15.256C41.6281 15.0053 41.7161 14.7893 41.8921 14.608C42.0681 14.4267 42.2895 14.336 42.5561 14.336C42.8228 14.336 43.0495 14.4267 43.2361 14.608C43.4228 14.7893 43.5161 15.0053 43.5161 15.256C43.5161 15.5067 43.4228 15.7173 43.2361 15.888C43.0495 16.0587 42.8228 16.144 42.5561 16.144C42.2895 16.144 42.0681 16.0587 41.8921 15.888C41.7161 15.712 41.6281 15.5013 41.6281 15.256ZM46.9835 5.92H47.9915V16H46.7435V7.392C46.4875 7.568 46.2182 7.704 45.9355 7.8C45.6582 7.89067 45.3782 7.94133 45.0955 7.952V6.736C45.4315 6.688 45.7568 6.6 46.0715 6.472C46.3915 6.344 46.6955 6.16 46.9835 5.92Z" fill="#252525"/>
<circle cx="10" cy="10" r="9.5" stroke="#6B2DBC"/>
</svg>
