<svg width="54" height="20" viewBox="0 0 54 20" fill="none" xmlns="http://www.w3.org/2000/svg">
<path d="M36.52 16.16C35.8373 16.16 35.2453 16.0267 34.744 15.76C34.2533 15.4827 33.9173 15.0987 33.736 14.608H33.672L33.592 16H32.424V7.232H33.848V12.304C33.848 12.8373 33.9387 13.3067 34.12 13.712C34.312 14.1067 34.584 14.416 34.936 14.64C35.2987 14.8533 35.7307 14.96 36.232 14.96C36.8613 14.96 37.3307 14.7947 37.64 14.464C37.9493 14.1333 38.104 13.648 38.104 13.008V7.232H39.528V13.104C39.528 13.808 39.4053 14.384 39.16 14.832C38.9253 15.28 38.584 15.616 38.136 15.84C37.688 16.0533 37.1493 16.16 36.52 16.16ZM41.6281 15.256C41.6281 15.0053 41.7161 14.7893 41.8921 14.608C42.0681 14.4267 42.2895 14.336 42.5561 14.336C42.8228 14.336 43.0495 14.4267 43.2361 14.608C43.4228 14.7893 43.5161 15.0053 43.5161 15.256C43.5161 15.5067 43.4228 15.7173 43.2361 15.888C43.0495 16.0587 42.8228 16.144 42.5561 16.144C42.2895 16.144 42.0681 16.0587 41.8921 15.888C41.7161 15.712 41.6281 15.5013 41.6281 15.256ZM45.3515 16V14.512C45.3515 13.9307 45.4448 13.4453 45.6315 13.056C45.8235 12.6667 46.0902 12.344 46.4315 12.088C46.7782 11.832 47.1862 11.6107 47.6555 11.424L49.6395 10.64C50.1515 10.432 50.5355 10.1653 50.7915 9.84C51.0475 9.51467 51.1755 9.10933 51.1755 8.624C51.1755 8.112 50.9968 7.69333 50.6395 7.368C50.2875 7.04267 49.7942 6.88 49.1595 6.88C48.5302 6.88 48.0128 7.016 47.6075 7.288C47.2075 7.55467 46.9782 7.95733 46.9195 8.496H45.5275C45.5648 7.91467 45.7355 7.42133 46.0395 7.016C46.3488 6.61067 46.7675 6.304 47.2955 6.096C47.8235 5.88267 48.4395 5.776 49.1435 5.776C49.7888 5.776 50.3675 5.90133 50.8795 6.152C51.3915 6.40267 51.7942 6.74933 52.0875 7.192C52.3862 7.62933 52.5355 8.13333 52.5355 8.704C52.5355 9.22133 52.4395 9.672 52.2475 10.056C52.0555 10.44 51.7808 10.7707 51.4235 11.048C51.0715 11.3253 50.6528 11.5627 50.1675 11.76L48.1355 12.576C47.6235 12.7733 47.2395 13.0107 46.9835 13.288C46.7275 13.5653 46.5995 13.9253 46.5995 14.368V14.848H52.4395V16H45.3515Z" fill="#252525"/>
<circle cx="10" cy="10" r="7" stroke="#6B2DBC" stroke-width="6"/>
</svg>
