<svg width="54" height="20" viewBox="0 0 54 20" fill="none" xmlns="http://www.w3.org/2000/svg">
<path d="M36.52 16.16C35.8373 16.16 35.2453 16.0267 34.744 15.76C34.2533 15.4827 33.9173 15.0987 33.736 14.608H33.672L33.592 16H32.424V7.232H33.848V12.304C33.848 12.8373 33.9387 13.3067 34.12 13.712C34.312 14.1067 34.584 14.416 34.936 14.64C35.2987 14.8533 35.7307 14.96 36.232 14.96C36.8613 14.96 37.3307 14.7947 37.64 14.464C37.9493 14.1333 38.104 13.648 38.104 13.008V7.232H39.528V13.104C39.528 13.808 39.4053 14.384 39.16 14.832C38.9253 15.28 38.584 15.616 38.136 15.84C37.688 16.0533 37.1493 16.16 36.52 16.16ZM41.6281 15.256C41.6281 15.0053 41.7161 14.7893 41.8921 14.608C42.0681 14.4267 42.2895 14.336 42.5561 14.336C42.8228 14.336 43.0495 14.4267 43.2361 14.608C43.4228 14.7893 43.5161 15.0053 43.5161 15.256C43.5161 15.5067 43.4228 15.7173 43.2361 15.888C43.0495 16.0587 42.8228 16.144 42.5561 16.144C42.2895 16.144 42.0681 16.0587 41.8921 15.888C41.7161 15.712 41.6281 15.5013 41.6281 15.256ZM49.0795 16.192C48.5782 16.192 48.0928 16.1227 47.6235 15.984C47.1595 15.84 46.7408 15.632 46.3675 15.36C45.9995 15.0827 45.7088 14.7413 45.4955 14.336C45.2822 13.9307 45.1755 13.4613 45.1755 12.928H46.4555C46.4662 13.3867 46.5888 13.7733 46.8235 14.088C47.0582 14.4027 47.3702 14.64 47.7595 14.8C48.1542 14.96 48.5942 15.04 49.0795 15.04C49.8262 15.04 50.4048 14.8587 50.8155 14.496C51.2262 14.1333 51.4315 13.68 51.4315 13.136C51.4315 12.7893 51.3462 12.4827 51.1755 12.216C51.0048 11.9493 50.7328 11.7413 50.3595 11.592C49.9915 11.4373 49.5062 11.36 48.9035 11.36H47.7675V10.368H48.5355C49.3142 10.368 49.9275 10.2133 50.3755 9.904C50.8235 9.59467 51.0475 9.168 51.0475 8.624C51.0475 8.144 50.8662 7.73867 50.5035 7.408C50.1408 7.07733 49.6235 6.912 48.9515 6.912C48.4342 6.912 47.9728 7.01867 47.5675 7.232C47.1622 7.44 46.8875 7.824 46.7435 8.384H45.4635C45.5488 7.76 45.7515 7.256 46.0715 6.872C46.3915 6.488 46.7968 6.21067 47.2875 6.04C47.7782 5.864 48.3222 5.776 48.9195 5.776C49.5862 5.776 50.1808 5.89333 50.7035 6.128C51.2262 6.36267 51.6368 6.68533 51.9355 7.096C52.2395 7.50667 52.3915 7.97867 52.3915 8.512C52.3915 9.04 52.2395 9.49333 51.9355 9.872C51.6368 10.2453 51.2022 10.5333 50.6315 10.736C51.2662 10.9173 51.7835 11.216 52.1835 11.632C52.5888 12.048 52.7915 12.5813 52.7915 13.232C52.7915 13.808 52.6395 14.32 52.3355 14.768C52.0368 15.2107 51.6102 15.56 51.0555 15.816C50.5008 16.0667 49.8422 16.192 49.0795 16.192Z" fill="#252525"/>
<circle cx="10" cy="10" r="7" stroke="#6B2DBC" stroke-width="6"/>
</svg>
