<svg width="54" height="20" viewBox="0 0 54 20" fill="none" xmlns="http://www.w3.org/2000/svg">
<path d="M36.52 16.16C35.8373 16.16 35.2453 16.0267 34.744 15.76C34.2533 15.4827 33.9173 15.0987 33.736 14.608H33.672L33.592 16H32.424V7.232H33.848V12.304C33.848 12.8373 33.9387 13.3067 34.12 13.712C34.312 14.1067 34.584 14.416 34.936 14.64C35.2987 14.8533 35.7307 14.96 36.232 14.96C36.8613 14.96 37.3307 14.7947 37.64 14.464C37.9493 14.1333 38.104 13.648 38.104 13.008V7.232H39.528V13.104C39.528 13.808 39.4053 14.384 39.16 14.832C38.9253 15.28 38.584 15.616 38.136 15.84C37.688 16.0533 37.1493 16.16 36.52 16.16ZM41.6281 15.256C41.6281 15.0053 41.7161 14.7893 41.8921 14.608C42.0681 14.4267 42.2895 14.336 42.5561 14.336C42.8228 14.336 43.0495 14.4267 43.2361 14.608C43.4228 14.7893 43.5161 15.0053 43.5161 15.256C43.5161 15.5067 43.4228 15.7173 43.2361 15.888C43.0495 16.0587 42.8228 16.144 42.5561 16.144C42.2895 16.144 42.0681 16.0587 41.8921 15.888C41.7161 15.712 41.6281 15.5013 41.6281 15.256ZM48.8395 16.192C48.2048 16.192 47.6262 16.0773 47.1035 15.848C46.5808 15.6187 46.1622 15.2827 45.8475 14.84C45.5328 14.392 45.3728 13.8453 45.3675 13.2H46.6155C46.6155 13.808 46.8288 14.2667 47.2555 14.576C47.6875 14.8853 48.2155 15.04 48.8395 15.04C49.5595 15.04 50.1248 14.8213 50.5355 14.384C50.9515 13.9413 51.1595 13.3973 51.1595 12.752C51.1595 11.4613 50.3275 10.816 48.6635 10.816H45.9755L46.4075 5.952H51.9755V7.088H47.4155L47.6715 6.656L47.3355 10.16L47.1755 10.016C47.4315 9.95733 47.7222 9.91733 48.0475 9.896C48.3728 9.86933 48.6635 9.856 48.9195 9.856C50.0075 9.856 50.8688 10.0987 51.5035 10.584C52.1382 11.0693 52.4555 11.792 52.4555 12.752C52.4555 13.4027 52.3088 13.9893 52.0155 14.512C51.7222 15.0293 51.3035 15.44 50.7595 15.744C50.2208 16.0427 49.5808 16.192 48.8395 16.192Z" fill="#252525"/>
<circle cx="10" cy="10" r="9.5" stroke="#6B2DBC"/>
</svg>
