<svg width="54" height="20" viewBox="0 0 54 20" fill="none" xmlns="http://www.w3.org/2000/svg">
<path d="M36.52 16.16C35.8373 16.16 35.2453 16.0267 34.744 15.76C34.2533 15.4827 33.9173 15.0987 33.736 14.608H33.672L33.592 16H32.424V7.232H33.848V12.304C33.848 12.8373 33.9387 13.3067 34.12 13.712C34.312 14.1067 34.584 14.416 34.936 14.64C35.2987 14.8533 35.7307 14.96 36.232 14.96C36.8613 14.96 37.3307 14.7947 37.64 14.464C37.9493 14.1333 38.104 13.648 38.104 13.008V7.232H39.528V13.104C39.528 13.808 39.4053 14.384 39.16 14.832C38.9253 15.28 38.584 15.616 38.136 15.84C37.688 16.0533 37.1493 16.16 36.52 16.16ZM41.6281 15.256C41.6281 15.0053 41.7161 14.7893 41.8921 14.608C42.0681 14.4267 42.2895 14.336 42.5561 14.336C42.8228 14.336 43.0495 14.4267 43.2361 14.608C43.4228 14.7893 43.5161 15.0053 43.5161 15.256C43.5161 15.5067 43.4228 15.7173 43.2361 15.888C43.0495 16.0587 42.8228 16.144 42.5561 16.144C42.2895 16.144 42.0681 16.0587 41.8921 15.888C41.7161 15.712 41.6281 15.5013 41.6281 15.256ZM49.1435 16.192C48.3382 16.192 47.6342 15.9707 47.0315 15.528C46.4342 15.0853 45.9702 14.4853 45.6395 13.728C45.3088 12.9653 45.1435 12.1067 45.1435 11.152C45.1435 10.0267 45.3115 9.064 45.6475 8.264C45.9835 7.45867 46.4635 6.84267 47.0875 6.416C47.7115 5.98933 48.4555 5.776 49.3195 5.776C49.9168 5.776 50.4422 5.89067 50.8955 6.12C51.3542 6.344 51.7195 6.65867 51.9915 7.064C52.2688 7.46933 52.4342 7.94133 52.4875 8.48H51.1275C51.0475 8 50.8662 7.61867 50.5835 7.336C50.3008 7.05333 49.8902 6.912 49.3515 6.912C48.4342 6.912 47.7142 7.30933 47.1915 8.104C46.6688 8.89333 46.4075 9.97333 46.4075 11.344C46.4075 11.5413 46.4128 11.7707 46.4235 12.032C46.4342 12.288 46.4555 12.528 46.4875 12.752C46.5355 12.0427 46.6982 11.4853 46.9755 11.08C47.2582 10.6693 47.6102 10.3787 48.0315 10.208C48.4528 10.0373 48.8982 9.952 49.3675 9.952C49.9755 9.952 50.5195 10.0853 50.9995 10.352C51.4848 10.6187 51.8662 10.9893 52.1435 11.464C52.4262 11.9333 52.5675 12.4747 52.5675 13.088C52.5675 13.7067 52.4235 14.2507 52.1355 14.72C51.8475 15.184 51.4448 15.5467 50.9275 15.808C50.4155 16.064 49.8208 16.192 49.1435 16.192ZM49.1435 15.04C49.7515 15.04 50.2555 14.8613 50.6555 14.504C51.0555 14.1467 51.2555 13.664 51.2555 13.056C51.2555 12.432 51.0555 11.944 50.6555 11.592C50.2555 11.2347 49.7515 11.056 49.1435 11.056C48.7435 11.056 48.3862 11.144 48.0715 11.32C47.7568 11.4907 47.5062 11.728 47.3195 12.032C47.1382 12.3307 47.0475 12.672 47.0475 13.056C47.0475 13.664 47.2475 14.1467 47.6475 14.504C48.0475 14.8613 48.5462 15.04 49.1435 15.04Z" fill="#252525"/>
<circle cx="10" cy="10" r="9.5" stroke="#6B2DBC"/>
</svg>
