<svg width="400" height="546" viewBox="0 0 400 546" fill="none" xmlns="http://www.w3.org/2000/svg">
<g filter="url(#filter0_d_648_1952)">
<circle cx="199.5" cy="130.5" r="114.5" fill="white"/>
<rect x="20" y="149" width="360" height="293" rx="20" fill="white"/>
</g>
<rect x="55" y="483" width="290" height="63" rx="31.5" fill="#AB80E3"/>
<path d="M88.2285 523V514.456C88.2285 513.688 88.0205 513.136 87.6045 512.8C87.1885 512.464 86.5485 512.296 85.6845 512.296C84.8525 512.296 84.0365 512.424 83.2365 512.68C82.4525 512.92 81.7725 513.208 81.1965 513.544V510.568C81.6605 510.344 82.3165 510.12 83.1645 509.896C84.0125 509.656 84.9885 509.536 86.0925 509.536C86.9405 509.536 87.7005 509.64 88.3725 509.848C89.0605 510.056 89.5565 510.464 89.8605 511.072C90.5325 511.28 91.0125 511.688 91.3005 512.296C91.6045 512.888 91.7565 513.656 91.7565 514.6V523H88.2285ZM84.2925 523.24C82.9165 523.24 81.8525 522.912 81.1005 522.256C80.3645 521.6 79.9965 520.68 79.9965 519.496C79.9965 518.216 80.4525 517.192 81.3645 516.424C82.2925 515.656 83.7485 515.192 85.7325 515.032L88.8045 514.792V517.384L86.1405 517.648C85.1805 517.744 84.5085 517.936 84.1245 518.224C83.7565 518.512 83.5725 518.896 83.5725 519.376C83.5725 519.856 83.7245 520.216 84.0285 520.456C84.3485 520.696 84.7565 520.816 85.2525 520.816C85.4445 520.816 85.6365 520.8 85.8285 520.768C86.0205 520.72 86.1965 520.672 86.3565 520.624L86.6685 522.88C86.3645 522.992 86.0045 523.08 85.5885 523.144C85.1725 523.208 84.7405 523.24 84.2925 523.24ZM89.7885 512.464L87.8205 510.808C88.3805 510.616 88.8205 510.376 89.1405 510.088C89.4605 509.784 89.6285 509.416 89.6445 508.984H92.7885C92.7885 509.48 92.6845 509.96 92.4765 510.424C92.2845 510.872 91.9645 511.272 91.5165 511.624C91.0845 511.976 90.5085 512.256 89.7885 512.464ZM89.03 508.024V502.576H92.342V508.024H89.03ZM98.874 523L95.058 509.848H98.682L101.586 520.096H101.73C101.986 520.096 102.226 520.024 102.45 519.88C102.674 519.736 102.866 519.544 103.026 519.304C103.346 518.856 103.586 518.328 103.746 517.72C103.906 517.096 103.986 516.48 103.986 515.872C103.986 514.8 103.778 513.976 103.362 513.4C102.962 512.824 102.402 512.536 101.682 512.536C101.538 512.536 101.402 512.544 101.274 512.56C101.162 512.576 101.058 512.608 100.962 512.656L100.29 509.896C100.658 509.784 101.002 509.72 101.322 509.704C101.658 509.672 101.93 509.656 102.138 509.656C102.986 509.656 103.722 509.768 104.346 509.992C104.97 510.216 105.506 510.552 105.954 511C106.514 511.544 106.93 512.224 107.202 513.04C107.49 513.856 107.634 514.776 107.634 515.8C107.634 517.096 107.426 518.232 107.01 519.208C106.61 520.168 106.122 520.928 105.546 521.488C105.066 521.952 104.458 522.32 103.722 522.592C103.002 522.864 102.01 523 100.746 523H98.874ZM111.049 523V515.2C111.049 513.36 111.537 511.96 112.513 511C113.489 510.024 115.033 509.536 117.145 509.536C119.273 509.536 120.809 510.024 121.753 511C122.713 511.96 123.193 513.36 123.193 515.2V523H119.617V515.152C119.617 514.304 119.417 513.64 119.017 513.16C118.633 512.664 117.993 512.416 117.097 512.416C116.217 512.416 115.577 512.664 115.177 513.16C114.793 513.64 114.601 514.304 114.601 515.152V517.24L114.673 517.264C114.977 516.64 115.337 516.232 115.753 516.04C116.185 515.832 116.769 515.728 117.505 515.728H118.057V518.416H117.505C116.705 518.416 116.097 518.552 115.681 518.824C115.265 519.096 114.977 519.456 114.817 519.904C114.673 520.336 114.601 520.824 114.601 521.368V523H111.049ZM121.096 508.552C120.184 508.552 119.456 508.344 118.912 507.928C118.368 507.512 118.096 506.928 118.096 506.176C118.096 505.424 118.368 504.84 118.912 504.424C119.456 504.008 120.184 503.8 121.096 503.8C122.008 503.8 122.744 504.008 123.304 504.424C123.848 504.84 124.12 505.424 124.12 506.176C124.12 506.928 123.848 507.512 123.304 507.928C122.744 508.344 122.008 508.552 121.096 508.552ZM121.096 507.16C121.448 507.16 121.72 507.072 121.912 506.896C122.104 506.72 122.2 506.48 122.2 506.176C122.2 505.872 122.104 505.632 121.912 505.456C121.72 505.28 121.448 505.192 121.096 505.192C120.76 505.192 120.496 505.28 120.304 505.456C120.112 505.632 120.016 505.872 120.016 506.176C120.016 506.48 120.112 506.72 120.304 506.896C120.496 507.072 120.76 507.16 121.096 507.16ZM131.485 523V514.312C131.485 513.64 131.325 513.152 131.005 512.848C130.701 512.544 130.197 512.392 129.493 512.392C128.965 512.392 128.477 512.464 128.029 512.608C127.597 512.752 127.189 512.928 126.805 513.136V510.256C127.157 510.096 127.653 509.936 128.293 509.776C128.933 509.616 129.685 509.536 130.549 509.536C131.429 509.536 132.205 509.664 132.877 509.92C133.565 510.176 134.101 510.608 134.485 511.216C134.885 511.808 135.085 512.624 135.085 513.664V523H131.485ZM144.554 523.312C142.762 523.312 141.41 522.912 140.498 522.112C139.586 521.312 139.13 520.144 139.13 518.608V517.648C139.13 516.992 139.218 516.456 139.394 516.04C139.57 515.608 139.786 515.216 140.042 514.864C140.298 514.512 140.506 514.2 140.666 513.928C140.842 513.64 140.93 513.344 140.93 513.04C140.93 512.752 140.858 512.552 140.714 512.44C140.586 512.312 140.41 512.248 140.186 512.248C140.026 512.248 139.858 512.272 139.682 512.32C139.522 512.368 139.338 512.44 139.13 512.536L138.554 510.28C139.002 510.04 139.482 509.88 139.994 509.8C140.522 509.704 140.986 509.656 141.386 509.656C142.09 509.656 142.65 509.768 143.066 509.992C143.498 510.216 143.81 510.536 144.002 510.952C144.194 511.368 144.29 511.864 144.29 512.44C144.29 512.936 144.218 513.376 144.074 513.76C143.93 514.128 143.746 514.512 143.522 514.912C143.314 515.28 143.122 515.624 142.946 515.944C142.786 516.264 142.706 516.728 142.706 517.336V518.296C142.706 518.808 142.778 519.232 142.922 519.568C143.082 519.888 143.298 520.128 143.57 520.288C143.858 520.432 144.194 520.504 144.578 520.504C145.202 520.504 145.666 520.328 145.97 519.976C146.274 519.608 146.426 519.088 146.426 518.416V509.848H150.002V518.512C150.002 520.096 149.538 521.296 148.61 522.112C147.682 522.912 146.33 523.312 144.554 523.312ZM159.309 523.312C157.357 523.312 155.909 522.84 154.965 521.896C154.021 520.936 153.549 519.52 153.549 517.648C153.549 517.328 153.557 516.944 153.573 516.496C153.605 516.032 153.645 515.624 153.693 515.272H159.453V517.552H157.077V517.888C157.077 518.528 157.157 519.056 157.317 519.472C157.477 519.872 157.717 520.168 158.037 520.36C158.373 520.552 158.789 520.648 159.285 520.648C159.829 520.648 160.285 520.528 160.653 520.288C161.037 520.048 161.325 519.64 161.517 519.064C161.725 518.488 161.829 517.696 161.829 516.688C161.829 515.744 161.717 514.96 161.493 514.336C161.285 513.696 160.925 513.216 160.413 512.896C159.917 512.576 159.229 512.416 158.349 512.416C157.869 512.416 157.373 512.472 156.861 512.584C156.349 512.68 155.861 512.808 155.397 512.968C154.949 513.128 154.557 513.304 154.221 513.496V510.496C154.573 510.304 155.005 510.136 155.517 509.992C156.045 509.848 156.613 509.736 157.221 509.656C157.829 509.576 158.429 509.536 159.021 509.536C160.573 509.536 161.821 509.824 162.765 510.4C163.725 510.96 164.421 511.76 164.853 512.8C165.301 513.84 165.525 515.072 165.525 516.496C165.525 517.952 165.309 519.192 164.877 520.216C164.461 521.224 163.797 521.992 162.885 522.52C161.973 523.048 160.781 523.312 159.309 523.312ZM172.72 523.24C172 523.24 171.392 523.128 170.896 522.904C170.4 522.68 170.024 522.344 169.768 521.896C169.512 521.432 169.384 520.856 169.384 520.168V509.848H172.984V519.736C172.984 520.04 173.048 520.264 173.176 520.408C173.32 520.552 173.536 520.624 173.824 520.624C173.952 520.624 174.088 520.608 174.232 520.576C174.376 520.544 174.512 520.504 174.64 520.456L174.976 522.76C174.672 522.92 174.328 523.04 173.944 523.12C173.56 523.2 173.152 523.24 172.72 523.24ZM183.688 523.312C181.608 523.312 180.096 522.832 179.152 521.872C178.224 520.896 177.76 519.488 177.76 517.648V509.848H181.36V517.84C181.36 518.688 181.544 519.336 181.912 519.784C182.296 520.216 182.888 520.432 183.688 520.432C184.488 520.432 185.072 520.216 185.44 519.784C185.824 519.336 186.016 518.688 186.016 517.84V505.12H189.616V517.648C189.616 519.488 189.144 520.896 188.2 521.872C187.272 522.832 185.768 523.312 183.688 523.312ZM183.489 508.24C183.057 508.24 182.689 508.152 182.385 507.976C182.065 507.8 181.809 507.528 181.617 507.16L180.681 508.168C179.753 508.168 179.017 507.928 178.473 507.448C177.929 506.952 177.657 506.24 177.657 505.312C177.657 504.336 177.929 503.616 178.473 503.152C179.017 502.672 179.633 502.432 180.321 502.432H185.649V504.184H180.873C180.601 504.184 180.369 504.28 180.177 504.472C179.985 504.664 179.889 504.96 179.889 505.36C179.889 505.648 179.953 505.888 180.081 506.08C180.193 506.272 180.377 506.368 180.633 506.368L181.521 505.336H182.025C182.041 505.672 182.121 505.944 182.265 506.152C182.393 506.344 182.585 506.44 182.841 506.44C183.049 506.44 183.217 506.368 183.345 506.224C183.457 506.064 183.513 505.856 183.513 505.6V505.24H185.673V505.72C185.673 506.584 185.473 507.224 185.073 507.64C184.673 508.04 184.145 508.24 183.489 508.24ZM198.922 523.24C197.946 523.24 197.122 523.056 196.45 522.688C195.794 522.304 195.29 521.736 194.938 520.984C194.602 520.232 194.434 519.312 194.434 518.224V509.848H198.034V517.6C198.034 518.48 198.21 519.12 198.562 519.52C198.914 519.92 199.426 520.12 200.098 520.12C200.946 520.12 201.602 519.8 202.066 519.16C202.53 518.504 202.762 517.496 202.762 516.136V509.848H206.362V523H203.626L203.242 520.984H203.026C202.754 521.624 202.282 522.16 201.61 522.592C200.954 523.024 200.058 523.24 198.922 523.24ZM218.158 523V514.456C218.158 513.688 217.95 513.136 217.534 512.8C217.118 512.464 216.478 512.296 215.614 512.296C214.782 512.296 213.966 512.424 213.166 512.68C212.382 512.92 211.702 513.208 211.126 513.544V510.568C211.59 510.344 212.246 510.12 213.094 509.896C213.942 509.656 214.918 509.536 216.022 509.536C216.87 509.536 217.63 509.64 218.302 509.848C218.99 510.056 219.486 510.464 219.79 511.072C220.462 511.28 220.942 511.688 221.23 512.296C221.534 512.888 221.686 513.656 221.686 514.6V523H218.158ZM214.222 523.24C212.846 523.24 211.782 522.912 211.03 522.256C210.294 521.6 209.926 520.68 209.926 519.496C209.926 518.216 210.382 517.192 211.294 516.424C212.222 515.656 213.678 515.192 215.662 515.032L218.734 514.792V517.384L216.07 517.648C215.11 517.744 214.438 517.936 214.054 518.224C213.686 518.512 213.502 518.896 213.502 519.376C213.502 519.856 213.654 520.216 213.958 520.456C214.278 520.696 214.686 520.816 215.182 520.816C215.374 520.816 215.566 520.8 215.758 520.768C215.95 520.72 216.126 520.672 216.286 520.624L216.598 522.88C216.294 522.992 215.934 523.08 215.518 523.144C215.102 523.208 214.67 523.24 214.222 523.24ZM219.718 512.464L217.75 510.808C218.31 510.616 218.75 510.376 219.07 510.088C219.39 509.784 219.558 509.416 219.574 508.984H222.718C222.718 509.48 222.614 509.96 222.406 510.424C222.214 510.872 221.894 511.272 221.446 511.624C221.014 511.976 220.438 512.256 219.718 512.464ZM219.967 508.552C219.055 508.552 218.327 508.344 217.783 507.928C217.239 507.512 216.967 506.928 216.967 506.176C216.967 505.424 217.239 504.84 217.783 504.424C218.327 504.008 219.055 503.8 219.967 503.8C220.879 503.8 221.615 504.008 222.175 504.424C222.719 504.84 222.991 505.424 222.991 506.176C222.991 506.928 222.719 507.512 222.175 507.928C221.615 508.344 220.879 508.552 219.967 508.552ZM219.967 507.16C220.319 507.16 220.591 507.072 220.783 506.896C220.975 506.72 221.071 506.48 221.071 506.176C221.071 505.872 220.975 505.632 220.783 505.456C220.591 505.28 220.319 505.192 219.967 505.192C219.631 505.192 219.367 505.28 219.175 505.456C218.983 505.632 218.887 505.872 218.887 506.176C218.887 506.48 218.983 506.72 219.175 506.896C219.367 507.072 219.631 507.16 219.967 507.16ZM230.027 523V514.312C230.027 513.64 229.867 513.152 229.547 512.848C229.243 512.544 228.739 512.392 228.035 512.392C227.507 512.392 227.019 512.464 226.571 512.608C226.139 512.752 225.731 512.928 225.347 513.136V510.256C225.699 510.096 226.195 509.936 226.835 509.776C227.475 509.616 228.227 509.536 229.091 509.536C229.971 509.536 230.747 509.664 231.419 509.92C232.107 510.176 232.643 510.608 233.027 511.216C233.427 511.808 233.627 512.624 233.627 513.664V523H230.027ZM242.185 523.24C241.209 523.24 240.385 523.056 239.713 522.688C239.057 522.304 238.553 521.736 238.201 520.984C237.865 520.232 237.697 519.312 237.697 518.224V509.848H241.297V517.6C241.297 518.48 241.473 519.12 241.825 519.52C242.177 519.92 242.689 520.12 243.361 520.12C244.209 520.12 244.865 519.8 245.329 519.16C245.793 518.504 246.025 517.496 246.025 516.136V509.848H249.625V523H246.889L246.505 520.984H246.289C246.017 521.624 245.545 522.16 244.873 522.592C244.217 523.024 243.321 523.24 242.185 523.24ZM246.852 508.024C246.1 508.024 245.508 507.912 245.076 507.688C244.644 507.464 244.34 507.184 244.164 506.848C243.972 506.496 243.876 506.128 243.876 505.744C243.876 505.472 243.916 505.184 243.996 504.88C244.076 504.56 244.196 504.264 244.356 503.992L246.972 504.328C246.94 504.44 246.916 504.56 246.9 504.688C246.868 504.8 246.852 504.904 246.852 505C246.852 505.224 246.924 505.4 247.068 505.528C247.196 505.64 247.42 505.696 247.74 505.696H252.9V508.024H246.852ZM254.532 523V518.992C254.532 517.984 254.732 517.208 255.132 516.664C255.532 516.12 256.1 515.736 256.836 515.512L256.86 515.416L254.292 514.48V513.856C254.292 513.072 254.524 512.352 254.988 511.696C255.452 511.04 256.132 510.52 257.028 510.136C257.94 509.736 259.044 509.536 260.34 509.536C261.556 509.536 262.604 509.728 263.484 510.112C264.364 510.48 265.044 511.04 265.524 511.792C266.02 512.528 266.268 513.464 266.268 514.6V523H262.668V514.816C262.668 514.016 262.452 513.416 262.02 513.016C261.604 512.616 261.012 512.416 260.244 512.416C259.508 512.416 258.956 512.576 258.588 512.896C258.22 513.2 258.02 513.576 257.988 514.024L260.124 515.008L259.86 516.568C259.284 516.6 258.852 516.808 258.564 517.192C258.276 517.576 258.132 518.096 258.132 518.752V523H254.532ZM271.693 523L269.413 509.848H272.917L273.565 514.48C273.613 514.864 273.669 515.392 273.733 516.064C273.813 516.72 273.885 517.488 273.949 518.368H274.021C274.165 517.776 274.293 517.24 274.405 516.76C274.517 516.264 274.621 515.824 274.717 515.44C274.829 515.04 274.925 514.696 275.005 514.408L276.301 509.848H278.485L279.781 514.408C279.861 514.696 279.949 515.04 280.045 515.44C280.157 515.824 280.269 516.264 280.381 516.76C280.509 517.24 280.637 517.776 280.765 518.368H280.837C280.917 517.488 280.981 516.72 281.029 516.064C281.093 515.392 281.157 514.864 281.221 514.48L281.893 509.848H285.373L283.117 523H279.589L278.077 517.648C277.917 517.024 277.789 516.456 277.693 515.944C277.613 515.416 277.533 514.88 277.453 514.336H277.357C277.293 514.704 277.229 515.056 277.165 515.392C277.117 515.728 277.053 516.08 276.973 516.448C276.893 516.8 276.789 517.2 276.661 517.648L275.125 523H271.693ZM274.149 508.024V506.512L276.573 505.504H285.141V508.024H274.149ZM296.978 523.24C295.842 523.24 294.922 523.024 294.218 522.592C293.53 522.16 293.042 521.608 292.754 520.936H292.562L292.178 523H289.442V509.848H293.042V516.136C293.042 517.048 293.146 517.8 293.354 518.392C293.562 518.968 293.866 519.4 294.266 519.688C294.666 519.976 295.146 520.12 295.706 520.12C296.378 520.12 296.89 519.92 297.242 519.52C297.594 519.12 297.77 518.48 297.77 517.6V509.848H301.37V518.392C301.37 519.432 301.202 520.312 300.866 521.032C300.546 521.752 300.058 522.304 299.402 522.688C298.746 523.056 297.938 523.24 296.978 523.24ZM306.806 523L304.526 509.848H308.03L308.678 514.48C308.726 514.864 308.782 515.392 308.846 516.064C308.926 516.72 308.998 517.488 309.062 518.368H309.134C309.278 517.776 309.406 517.24 309.518 516.76C309.63 516.264 309.734 515.824 309.83 515.44C309.942 515.04 310.038 514.696 310.118 514.408L311.414 509.848H313.598L314.894 514.408C314.974 514.696 315.062 515.04 315.158 515.44C315.27 515.824 315.382 516.264 315.494 516.76C315.622 517.24 315.75 517.776 315.878 518.368H315.95C316.03 517.488 316.094 516.72 316.142 516.064C316.206 515.392 316.27 514.864 316.334 514.48L317.006 509.848H320.486L318.23 523H314.702L313.19 517.648C313.03 517.024 312.902 516.456 312.806 515.944C312.726 515.416 312.646 514.88 312.566 514.336H312.47C312.406 514.704 312.342 515.056 312.278 515.392C312.23 515.728 312.166 516.08 312.086 516.448C312.006 516.8 311.902 517.2 311.774 517.648L310.238 523H306.806ZM315.79 508.552C315.662 508.328 315.558 508.04 315.478 507.688C315.382 507.336 315.334 506.984 315.334 506.632C315.334 506.184 315.422 505.776 315.598 505.408C315.758 505.04 316.054 504.752 316.486 504.544C316.902 504.32 317.478 504.208 318.214 504.208H321.694V506.632H319.39C319.086 506.632 318.854 506.688 318.694 506.8C318.518 506.896 318.43 507.08 318.43 507.352C318.43 507.464 318.446 507.584 318.478 507.712C318.51 507.824 318.558 507.944 318.622 508.072L315.79 508.552Z" fill="white"/>
<path d="M78.1165 263.545V281H74.929L67.3352 270.014H67.2074V281H63.517V263.545H66.7557L74.2898 274.523H74.4432V263.545H78.1165ZM85.5503 281.247C84.715 281.247 83.9707 281.102 83.3173 280.812C82.6639 280.517 82.1468 280.082 81.7662 279.509C81.3912 278.929 81.2037 278.207 81.2037 277.344C81.2037 276.616 81.3372 276.006 81.6042 275.511C81.8713 275.017 82.2349 274.619 82.6951 274.318C83.1554 274.017 83.6781 273.79 84.2633 273.636C84.8542 273.483 85.4736 273.375 86.1213 273.312C86.8826 273.233 87.4963 273.159 87.9622 273.091C88.4281 273.017 88.7662 272.909 88.9764 272.767C89.1866 272.625 89.2917 272.415 89.2917 272.136V272.085C89.2917 271.545 89.1213 271.128 88.7804 270.832C88.4451 270.537 87.9679 270.389 87.3486 270.389C86.6951 270.389 86.1753 270.534 85.7889 270.824C85.4025 271.108 85.1468 271.466 85.0218 271.898L81.6639 271.625C81.8343 270.83 82.1696 270.142 82.6696 269.562C83.1696 268.977 83.8145 268.528 84.6042 268.216C85.3997 267.898 86.3201 267.739 87.3656 267.739C88.0929 267.739 88.7889 267.824 89.4537 267.994C90.1241 268.165 90.7179 268.429 91.2349 268.787C91.7576 269.145 92.1696 269.605 92.4707 270.168C92.7718 270.724 92.9224 271.392 92.9224 272.17V281H89.4792V279.185H89.377C89.1667 279.594 88.8855 279.955 88.5332 280.267C88.1809 280.574 87.7576 280.815 87.2633 280.991C86.769 281.162 86.198 281.247 85.5503 281.247ZM86.59 278.741C87.1241 278.741 87.5957 278.636 88.0048 278.426C88.4139 278.21 88.7349 277.92 88.9679 277.557C89.2008 277.193 89.3173 276.781 89.3173 276.321V274.932C89.2037 275.006 89.0474 275.074 88.8486 275.136C88.6554 275.193 88.4366 275.247 88.1923 275.298C87.948 275.344 87.7037 275.386 87.4593 275.426C87.215 275.46 86.9934 275.491 86.7946 275.52C86.3684 275.582 85.9963 275.682 85.6781 275.818C85.3599 275.955 85.1128 276.139 84.9366 276.372C84.7605 276.599 84.6724 276.884 84.6724 277.224C84.6724 277.719 84.8514 278.097 85.2093 278.358C85.573 278.614 86.0332 278.741 86.59 278.741ZM96.4592 281V267.909H99.9194V270.219H100.073C100.346 269.452 100.8 268.847 101.436 268.403C102.073 267.96 102.834 267.739 103.721 267.739C104.618 267.739 105.382 267.963 106.013 268.412C106.644 268.855 107.064 269.457 107.275 270.219H107.411C107.678 269.469 108.161 268.869 108.86 268.42C109.564 267.966 110.397 267.739 111.357 267.739C112.578 267.739 113.57 268.128 114.331 268.906C115.098 269.679 115.482 270.776 115.482 272.196V281H111.86V272.912C111.86 272.185 111.667 271.639 111.28 271.276C110.894 270.912 110.411 270.73 109.831 270.73C109.172 270.73 108.658 270.94 108.289 271.361C107.919 271.776 107.735 272.324 107.735 273.006V281H104.215V272.835C104.215 272.193 104.03 271.682 103.661 271.301C103.297 270.92 102.817 270.73 102.221 270.73C101.817 270.73 101.453 270.832 101.13 271.037C100.811 271.236 100.559 271.517 100.371 271.881C100.184 272.239 100.09 272.659 100.09 273.142V281H96.4592ZM125.036 281.256C123.689 281.256 122.53 280.983 121.558 280.438C120.593 279.886 119.848 279.108 119.325 278.102C118.803 277.091 118.541 275.895 118.541 274.514C118.541 273.168 118.803 271.986 119.325 270.969C119.848 269.952 120.584 269.159 121.533 268.591C122.487 268.023 123.607 267.739 124.891 267.739C125.754 267.739 126.558 267.878 127.303 268.156C128.053 268.429 128.706 268.841 129.263 269.392C129.825 269.943 130.263 270.636 130.575 271.472C130.888 272.301 131.044 273.273 131.044 274.386V275.384H119.99V273.134H127.627C127.627 272.611 127.513 272.148 127.286 271.744C127.058 271.341 126.743 271.026 126.34 270.798C125.942 270.565 125.479 270.449 124.95 270.449C124.399 270.449 123.911 270.577 123.485 270.832C123.064 271.082 122.735 271.42 122.496 271.847C122.257 272.267 122.135 272.736 122.129 273.253V275.392C122.129 276.04 122.249 276.599 122.487 277.071C122.732 277.543 123.075 277.906 123.519 278.162C123.962 278.418 124.487 278.545 125.095 278.545C125.499 278.545 125.868 278.489 126.203 278.375C126.539 278.261 126.825 278.091 127.064 277.864C127.303 277.636 127.485 277.358 127.61 277.028L130.968 277.25C130.797 278.057 130.448 278.761 129.919 279.364C129.397 279.96 128.72 280.426 127.891 280.761C127.067 281.091 126.115 281.256 125.036 281.256ZM136.256 281.222C135.693 281.222 135.21 281.023 134.807 280.625C134.409 280.222 134.21 279.739 134.21 279.176C134.21 278.619 134.409 278.142 134.807 277.744C135.21 277.347 135.693 277.148 136.256 277.148C136.801 277.148 137.278 277.347 137.688 277.744C138.097 278.142 138.301 278.619 138.301 279.176C138.301 279.551 138.205 279.895 138.011 280.207C137.824 280.514 137.577 280.761 137.27 280.949C136.963 281.131 136.625 281.222 136.256 281.222ZM136.256 272.051C135.693 272.051 135.21 271.852 134.807 271.455C134.409 271.057 134.21 270.574 134.21 270.006C134.21 269.449 134.409 268.974 134.807 268.582C135.21 268.185 135.693 267.986 136.256 267.986C136.801 267.986 137.278 268.185 137.688 268.582C138.097 268.974 138.301 269.449 138.301 270.006C138.301 270.386 138.205 270.733 138.011 271.045C137.824 271.352 137.577 271.597 137.27 271.778C136.963 271.96 136.625 272.051 136.256 272.051ZM151.907 273.432V281H148.277V267.909H151.737V270.219H151.89C152.18 269.457 152.666 268.855 153.348 268.412C154.03 267.963 154.856 267.739 155.828 267.739C156.737 267.739 157.53 267.938 158.206 268.335C158.882 268.733 159.407 269.301 159.782 270.04C160.157 270.773 160.345 271.648 160.345 272.665V281H156.714V273.312C156.72 272.511 156.515 271.886 156.101 271.438C155.686 270.983 155.115 270.756 154.387 270.756C153.899 270.756 153.467 270.861 153.092 271.071C152.723 271.281 152.433 271.588 152.223 271.991C152.018 272.389 151.913 272.869 151.907 273.432ZM167.659 281.247C166.824 281.247 166.08 281.102 165.426 280.812C164.773 280.517 164.256 280.082 163.875 279.509C163.5 278.929 163.313 278.207 163.313 277.344C163.313 276.616 163.446 276.006 163.713 275.511C163.98 275.017 164.344 274.619 164.804 274.318C165.264 274.017 165.787 273.79 166.372 273.636C166.963 273.483 167.583 273.375 168.23 273.312C168.992 273.233 169.605 273.159 170.071 273.091C170.537 273.017 170.875 272.909 171.085 272.767C171.296 272.625 171.401 272.415 171.401 272.136V272.085C171.401 271.545 171.23 271.128 170.889 270.832C170.554 270.537 170.077 270.389 169.458 270.389C168.804 270.389 168.284 270.534 167.898 270.824C167.512 271.108 167.256 271.466 167.131 271.898L163.773 271.625C163.943 270.83 164.279 270.142 164.779 269.562C165.279 268.977 165.924 268.528 166.713 268.216C167.509 267.898 168.429 267.739 169.475 267.739C170.202 267.739 170.898 267.824 171.563 267.994C172.233 268.165 172.827 268.429 173.344 268.787C173.867 269.145 174.279 269.605 174.58 270.168C174.881 270.724 175.031 271.392 175.031 272.17V281H171.588V279.185H171.486C171.276 279.594 170.995 279.955 170.642 280.267C170.29 280.574 169.867 280.815 169.372 280.991C168.878 281.162 168.307 281.247 167.659 281.247ZM168.699 278.741C169.233 278.741 169.705 278.636 170.114 278.426C170.523 278.21 170.844 277.92 171.077 277.557C171.31 277.193 171.426 276.781 171.426 276.321V274.932C171.313 275.006 171.156 275.074 170.958 275.136C170.764 275.193 170.546 275.247 170.301 275.298C170.057 275.344 169.813 275.386 169.568 275.426C169.324 275.46 169.103 275.491 168.904 275.52C168.478 275.582 168.105 275.682 167.787 275.818C167.469 275.955 167.222 276.139 167.046 276.372C166.87 276.599 166.781 276.884 166.781 277.224C166.781 277.719 166.96 278.097 167.318 278.358C167.682 278.614 168.142 278.741 168.699 278.741ZM178.568 281V267.909H182.028V270.219H182.182C182.455 269.452 182.909 268.847 183.546 268.403C184.182 267.96 184.943 267.739 185.83 267.739C186.727 267.739 187.492 267.963 188.122 268.412C188.753 268.855 189.173 269.457 189.384 270.219H189.52C189.787 269.469 190.27 268.869 190.969 268.42C191.673 267.966 192.506 267.739 193.466 267.739C194.688 267.739 195.679 268.128 196.44 268.906C197.207 269.679 197.591 270.776 197.591 272.196V281H193.969V272.912C193.969 272.185 193.776 271.639 193.389 271.276C193.003 270.912 192.52 270.73 191.94 270.73C191.281 270.73 190.767 270.94 190.398 271.361C190.028 271.776 189.844 272.324 189.844 273.006V281H186.324V272.835C186.324 272.193 186.139 271.682 185.77 271.301C185.406 270.92 184.926 270.73 184.33 270.73C183.926 270.73 183.563 270.832 183.239 271.037C182.921 271.236 182.668 271.517 182.48 271.881C182.293 272.239 182.199 272.659 182.199 273.142V281H178.568ZM207.145 281.256C205.798 281.256 204.639 280.983 203.667 280.438C202.702 279.886 201.957 279.108 201.435 278.102C200.912 277.091 200.65 275.895 200.65 274.514C200.65 273.168 200.912 271.986 201.435 270.969C201.957 269.952 202.693 269.159 203.642 268.591C204.596 268.023 205.716 267.739 207 267.739C207.864 267.739 208.667 267.878 209.412 268.156C210.162 268.429 210.815 268.841 211.372 269.392C211.935 269.943 212.372 270.636 212.685 271.472C212.997 272.301 213.153 273.273 213.153 274.386V275.384H202.099V273.134H209.736C209.736 272.611 209.622 272.148 209.395 271.744C209.167 271.341 208.852 271.026 208.449 270.798C208.051 270.565 207.588 270.449 207.06 270.449C206.508 270.449 206.02 270.577 205.594 270.832C205.173 271.082 204.844 271.42 204.605 271.847C204.366 272.267 204.244 272.736 204.239 273.253V275.392C204.239 276.04 204.358 276.599 204.596 277.071C204.841 277.543 205.185 277.906 205.628 278.162C206.071 278.418 206.596 278.545 207.204 278.545C207.608 278.545 207.977 278.489 208.312 278.375C208.648 278.261 208.935 278.091 209.173 277.864C209.412 277.636 209.594 277.358 209.719 277.028L213.077 277.25C212.906 278.057 212.557 278.761 212.028 279.364C211.506 279.96 210.829 280.426 210 280.761C209.176 281.091 208.224 281.256 207.145 281.256ZM223.802 263.545V281H220.112V267.048H220.01L216.012 269.554V266.281L220.334 263.545H223.802Z" fill="#252525"/>
<path d="M74.2983 314.545H77.9886V325.881C77.9886 327.153 77.6847 328.267 77.0767 329.222C76.4744 330.176 75.6307 330.92 74.5455 331.455C73.4602 331.983 72.196 332.247 70.7528 332.247C69.304 332.247 68.0369 331.983 66.9517 331.455C65.8665 330.92 65.0227 330.176 64.4205 329.222C63.8182 328.267 63.517 327.153 63.517 325.881V314.545H67.2074V325.565C67.2074 326.23 67.3523 326.821 67.642 327.338C67.9375 327.855 68.3523 328.261 68.8864 328.557C69.4205 328.852 70.0426 329 70.7528 329C71.4688 329 72.0909 328.852 72.6193 328.557C73.1534 328.261 73.5653 327.855 73.8551 327.338C74.1506 326.821 74.2983 326.23 74.2983 325.565V314.545ZM92.5687 322.642L89.2449 322.847C89.188 322.562 89.0659 322.307 88.8784 322.08C88.6909 321.847 88.4437 321.662 88.1369 321.526C87.8358 321.384 87.475 321.312 87.0545 321.312C86.492 321.312 86.0176 321.432 85.6312 321.67C85.2449 321.903 85.0517 322.216 85.0517 322.608C85.0517 322.92 85.1767 323.185 85.4267 323.401C85.6767 323.616 86.1057 323.79 86.7136 323.92L89.0829 324.398C90.3557 324.659 91.3045 325.08 91.9295 325.659C92.5545 326.239 92.867 327 92.867 327.943C92.867 328.801 92.6142 329.554 92.1085 330.202C91.6085 330.849 90.921 331.355 90.046 331.719C89.1767 332.077 88.1738 332.256 87.0375 332.256C85.3045 332.256 83.9238 331.895 82.8954 331.173C81.8727 330.446 81.2733 329.457 81.0971 328.207L84.6682 328.02C84.7761 328.548 85.0375 328.952 85.4522 329.23C85.867 329.503 86.3983 329.639 87.046 329.639C87.6824 329.639 88.1937 329.517 88.5801 329.273C88.9721 329.023 89.171 328.702 89.1767 328.31C89.171 327.98 89.0318 327.71 88.7591 327.5C88.4863 327.284 88.0659 327.119 87.4977 327.006L85.2307 326.554C83.9522 326.298 83.0005 325.855 82.3755 325.224C81.7562 324.594 81.4466 323.79 81.4466 322.812C81.4466 321.972 81.6738 321.247 82.1284 320.639C82.5886 320.031 83.2335 319.562 84.063 319.233C84.8983 318.903 85.8755 318.739 86.9949 318.739C88.6483 318.739 89.9494 319.088 90.8983 319.787C91.8528 320.486 92.4096 321.437 92.5687 322.642ZM101.839 332.256C100.493 332.256 99.3335 331.983 98.3619 331.438C97.396 330.886 96.6516 330.108 96.1289 329.102C95.6062 328.091 95.3448 326.895 95.3448 325.514C95.3448 324.168 95.6062 322.986 96.1289 321.969C96.6516 320.952 97.3874 320.159 98.3363 319.591C99.2909 319.023 100.41 318.739 101.694 318.739C102.558 318.739 103.362 318.878 104.106 319.156C104.856 319.429 105.51 319.841 106.066 320.392C106.629 320.943 107.066 321.636 107.379 322.472C107.691 323.301 107.848 324.273 107.848 325.386V326.384H96.7937V324.134H104.43C104.43 323.611 104.316 323.148 104.089 322.744C103.862 322.341 103.547 322.026 103.143 321.798C102.745 321.565 102.282 321.449 101.754 321.449C101.203 321.449 100.714 321.577 100.288 321.832C99.8676 322.082 99.538 322.42 99.2994 322.847C99.0607 323.267 98.9386 323.736 98.9329 324.253V326.392C98.9329 327.04 99.0522 327.599 99.2909 328.071C99.5352 328.543 99.8789 328.906 100.322 329.162C100.765 329.418 101.291 329.545 101.899 329.545C102.302 329.545 102.672 329.489 103.007 329.375C103.342 329.261 103.629 329.091 103.868 328.864C104.106 328.636 104.288 328.358 104.413 328.028L107.771 328.25C107.601 329.057 107.251 329.761 106.723 330.364C106.2 330.96 105.524 331.426 104.694 331.761C103.87 332.091 102.919 332.256 101.839 332.256ZM110.937 332V318.909H114.457V321.193H114.593C114.832 320.381 115.232 319.767 115.795 319.352C116.357 318.932 117.005 318.722 117.738 318.722C117.92 318.722 118.116 318.733 118.326 318.756C118.536 318.778 118.721 318.81 118.88 318.849V322.071C118.71 322.02 118.474 321.974 118.173 321.935C117.872 321.895 117.596 321.875 117.346 321.875C116.812 321.875 116.335 321.991 115.914 322.224C115.499 322.452 115.17 322.77 114.926 323.179C114.687 323.588 114.568 324.06 114.568 324.594V332H110.937ZM125.108 324.432V332H121.477V318.909H124.938V321.219H125.091C125.381 320.457 125.867 319.855 126.548 319.412C127.23 318.963 128.057 318.739 129.028 318.739C129.938 318.739 130.73 318.938 131.406 319.335C132.082 319.733 132.608 320.301 132.983 321.04C133.358 321.773 133.545 322.648 133.545 323.665V332H129.915V324.312C129.92 323.511 129.716 322.886 129.301 322.438C128.886 321.983 128.315 321.756 127.588 321.756C127.099 321.756 126.668 321.861 126.293 322.071C125.923 322.281 125.634 322.588 125.423 322.991C125.219 323.389 125.114 323.869 125.108 324.432ZM140.86 332.247C140.025 332.247 139.28 332.102 138.627 331.812C137.974 331.517 137.457 331.082 137.076 330.509C136.701 329.929 136.513 329.207 136.513 328.344C136.513 327.616 136.647 327.006 136.914 326.511C137.181 326.017 137.545 325.619 138.005 325.318C138.465 325.017 138.988 324.79 139.573 324.636C140.164 324.483 140.783 324.375 141.431 324.312C142.192 324.233 142.806 324.159 143.272 324.091C143.738 324.017 144.076 323.909 144.286 323.767C144.496 323.625 144.601 323.415 144.601 323.136V323.085C144.601 322.545 144.431 322.128 144.09 321.832C143.755 321.537 143.278 321.389 142.658 321.389C142.005 321.389 141.485 321.534 141.099 321.824C140.712 322.108 140.457 322.466 140.332 322.898L136.974 322.625C137.144 321.83 137.479 321.142 137.979 320.562C138.479 319.977 139.124 319.528 139.914 319.216C140.709 318.898 141.63 318.739 142.675 318.739C143.403 318.739 144.099 318.824 144.763 318.994C145.434 319.165 146.028 319.429 146.545 319.787C147.067 320.145 147.479 320.605 147.78 321.168C148.082 321.724 148.232 322.392 148.232 323.17V332H144.789V330.185H144.687C144.476 330.594 144.195 330.955 143.843 331.267C143.491 331.574 143.067 331.815 142.573 331.991C142.079 332.162 141.508 332.247 140.86 332.247ZM141.9 329.741C142.434 329.741 142.905 329.636 143.314 329.426C143.724 329.21 144.045 328.92 144.278 328.557C144.511 328.193 144.627 327.781 144.627 327.321V325.932C144.513 326.006 144.357 326.074 144.158 326.136C143.965 326.193 143.746 326.247 143.502 326.298C143.258 326.344 143.013 326.386 142.769 326.426C142.525 326.46 142.303 326.491 142.104 326.52C141.678 326.582 141.306 326.682 140.988 326.818C140.67 326.955 140.422 327.139 140.246 327.372C140.07 327.599 139.982 327.884 139.982 328.224C139.982 328.719 140.161 329.097 140.519 329.358C140.883 329.614 141.343 329.741 141.9 329.741ZM151.769 332V318.909H155.229V321.219H155.382C155.655 320.452 156.11 319.847 156.746 319.403C157.382 318.96 158.144 318.739 159.03 318.739C159.928 318.739 160.692 318.963 161.323 319.412C161.954 319.855 162.374 320.457 162.584 321.219H162.721C162.988 320.469 163.471 319.869 164.169 319.42C164.874 318.966 165.706 318.739 166.667 318.739C167.888 318.739 168.88 319.128 169.641 319.906C170.408 320.679 170.792 321.776 170.792 323.196V332H167.169V323.912C167.169 323.185 166.976 322.639 166.59 322.276C166.204 321.912 165.721 321.73 165.141 321.73C164.482 321.73 163.968 321.94 163.598 322.361C163.229 322.776 163.044 323.324 163.044 324.006V332H159.525V323.835C159.525 323.193 159.34 322.682 158.971 322.301C158.607 321.92 158.127 321.73 157.53 321.73C157.127 321.73 156.763 321.832 156.439 322.037C156.121 322.236 155.868 322.517 155.681 322.881C155.493 323.239 155.4 323.659 155.4 324.142V332H151.769ZM180.345 332.256C178.999 332.256 177.84 331.983 176.868 331.438C175.902 330.886 175.158 330.108 174.635 329.102C174.112 328.091 173.851 326.895 173.851 325.514C173.851 324.168 174.112 322.986 174.635 321.969C175.158 320.952 175.894 320.159 176.843 319.591C177.797 319.023 178.916 318.739 180.201 318.739C181.064 318.739 181.868 318.878 182.612 319.156C183.362 319.429 184.016 319.841 184.573 320.392C185.135 320.943 185.573 321.636 185.885 322.472C186.198 323.301 186.354 324.273 186.354 325.386V326.384H175.3V324.134H182.936C182.936 323.611 182.823 323.148 182.595 322.744C182.368 322.341 182.053 322.026 181.649 321.798C181.252 321.565 180.789 321.449 180.26 321.449C179.709 321.449 179.22 321.577 178.794 321.832C178.374 322.082 178.044 322.42 177.806 322.847C177.567 323.267 177.445 323.736 177.439 324.253V326.392C177.439 327.04 177.558 327.599 177.797 328.071C178.041 328.543 178.385 328.906 178.828 329.162C179.272 329.418 179.797 329.545 180.405 329.545C180.808 329.545 181.178 329.489 181.513 329.375C181.848 329.261 182.135 329.091 182.374 328.864C182.612 328.636 182.794 328.358 182.919 328.028L186.277 328.25C186.107 329.057 185.757 329.761 185.229 330.364C184.706 330.96 184.03 331.426 183.201 331.761C182.377 332.091 181.425 332.256 180.345 332.256ZM191.565 332.222C191.003 332.222 190.52 332.023 190.117 331.625C189.719 331.222 189.52 330.739 189.52 330.176C189.52 329.619 189.719 329.142 190.117 328.744C190.52 328.347 191.003 328.148 191.565 328.148C192.111 328.148 192.588 328.347 192.997 328.744C193.406 329.142 193.611 329.619 193.611 330.176C193.611 330.551 193.514 330.895 193.321 331.207C193.134 331.514 192.886 331.761 192.58 331.949C192.273 332.131 191.935 332.222 191.565 332.222ZM191.565 323.051C191.003 323.051 190.52 322.852 190.117 322.455C189.719 322.057 189.52 321.574 189.52 321.006C189.52 320.449 189.719 319.974 190.117 319.582C190.52 319.185 191.003 318.986 191.565 318.986C192.111 318.986 192.588 319.185 192.997 319.582C193.406 319.974 193.611 320.449 193.611 321.006C193.611 321.386 193.514 321.733 193.321 322.045C193.134 322.352 192.886 322.597 192.58 322.778C192.273 322.96 191.935 323.051 191.565 323.051ZM211.981 326.426V318.909H215.612V332H212.126V329.622H211.99C211.694 330.389 211.203 331.006 210.515 331.472C209.834 331.937 209.001 332.17 208.018 332.17C207.143 332.17 206.373 331.972 205.709 331.574C205.044 331.176 204.524 330.611 204.149 329.878C203.78 329.145 203.592 328.267 203.586 327.244V318.909H207.217V326.597C207.223 327.369 207.43 327.98 207.839 328.429C208.248 328.878 208.797 329.102 209.484 329.102C209.922 329.102 210.331 329.003 210.711 328.804C211.092 328.599 211.399 328.298 211.632 327.901C211.87 327.503 211.987 327.011 211.981 326.426ZM230.128 322.642L226.804 322.847C226.747 322.562 226.625 322.307 226.438 322.08C226.25 321.847 226.003 321.662 225.696 321.526C225.395 321.384 225.034 321.312 224.614 321.312C224.051 321.312 223.577 321.432 223.191 321.67C222.804 321.903 222.611 322.216 222.611 322.608C222.611 322.92 222.736 323.185 222.986 323.401C223.236 323.616 223.665 323.79 224.273 323.92L226.642 324.398C227.915 324.659 228.864 325.08 229.489 325.659C230.114 326.239 230.426 327 230.426 327.943C230.426 328.801 230.174 329.554 229.668 330.202C229.168 330.849 228.48 331.355 227.605 331.719C226.736 332.077 225.733 332.256 224.597 332.256C222.864 332.256 221.483 331.895 220.455 331.173C219.432 330.446 218.833 329.457 218.657 328.207L222.228 328.02C222.335 328.548 222.597 328.952 223.012 329.23C223.426 329.503 223.958 329.639 224.605 329.639C225.242 329.639 225.753 329.517 226.139 329.273C226.532 329.023 226.73 328.702 226.736 328.31C226.73 327.98 226.591 327.71 226.318 327.5C226.046 327.284 225.625 327.119 225.057 327.006L222.79 326.554C221.512 326.298 220.56 325.855 219.935 325.224C219.316 324.594 219.006 323.79 219.006 322.812C219.006 321.972 219.233 321.247 219.688 320.639C220.148 320.031 220.793 319.562 221.622 319.233C222.458 318.903 223.435 318.739 224.554 318.739C226.208 318.739 227.509 319.088 228.458 319.787C229.412 320.486 229.969 321.437 230.128 322.642ZM239.399 332.256C238.052 332.256 236.893 331.983 235.921 331.438C234.955 330.886 234.211 330.108 233.688 329.102C233.166 328.091 232.904 326.895 232.904 325.514C232.904 324.168 233.166 322.986 233.688 321.969C234.211 320.952 234.947 320.159 235.896 319.591C236.85 319.023 237.97 318.739 239.254 318.739C240.117 318.739 240.921 318.878 241.666 319.156C242.416 319.429 243.069 319.841 243.626 320.392C244.188 320.943 244.626 321.636 244.938 322.472C245.251 323.301 245.407 324.273 245.407 325.386V326.384H234.353V324.134H241.989C241.989 323.611 241.876 323.148 241.649 322.744C241.421 322.341 241.106 322.026 240.702 321.798C240.305 321.565 239.842 321.449 239.313 321.449C238.762 321.449 238.274 321.577 237.847 321.832C237.427 322.082 237.097 322.42 236.859 322.847C236.62 323.267 236.498 323.736 236.492 324.253V326.392C236.492 327.04 236.612 327.599 236.85 328.071C237.095 328.543 237.438 328.906 237.881 329.162C238.325 329.418 238.85 329.545 239.458 329.545C239.862 329.545 240.231 329.489 240.566 329.375C240.901 329.261 241.188 329.091 241.427 328.864C241.666 328.636 241.847 328.358 241.972 328.028L245.33 328.25C245.16 329.057 244.81 329.761 244.282 330.364C243.759 330.96 243.083 331.426 242.254 331.761C241.43 332.091 240.478 332.256 239.399 332.256ZM248.496 332V318.909H252.016V321.193H252.153C252.391 320.381 252.792 319.767 253.354 319.352C253.917 318.932 254.565 318.722 255.298 318.722C255.479 318.722 255.675 318.733 255.886 318.756C256.096 318.778 256.28 318.81 256.44 318.849V322.071C256.269 322.02 256.033 321.974 255.732 321.935C255.431 321.895 255.155 321.875 254.905 321.875C254.371 321.875 253.894 321.991 253.474 322.224C253.059 322.452 252.729 322.77 252.485 323.179C252.246 323.588 252.127 324.06 252.127 324.594V332H248.496ZM262.667 324.432V332H259.037V318.909H262.497V321.219H262.65C262.94 320.457 263.426 319.855 264.108 319.412C264.79 318.963 265.616 318.739 266.588 318.739C267.497 318.739 268.29 318.938 268.966 319.335C269.642 319.733 270.167 320.301 270.542 321.04C270.917 321.773 271.105 322.648 271.105 323.665V332H267.474V324.312C267.48 323.511 267.275 322.886 266.861 322.438C266.446 321.983 265.875 321.756 265.147 321.756C264.659 321.756 264.227 321.861 263.852 322.071C263.483 322.281 263.193 322.588 262.983 322.991C262.778 323.389 262.673 323.869 262.667 324.432ZM278.419 332.247C277.584 332.247 276.84 332.102 276.186 331.812C275.533 331.517 275.016 331.082 274.635 330.509C274.26 329.929 274.073 329.207 274.073 328.344C274.073 327.616 274.206 327.006 274.473 326.511C274.74 326.017 275.104 325.619 275.564 325.318C276.024 325.017 276.547 324.79 277.132 324.636C277.723 324.483 278.343 324.375 278.99 324.312C279.752 324.233 280.365 324.159 280.831 324.091C281.297 324.017 281.635 323.909 281.845 323.767C282.056 323.625 282.161 323.415 282.161 323.136V323.085C282.161 322.545 281.99 322.128 281.649 321.832C281.314 321.537 280.837 321.389 280.218 321.389C279.564 321.389 279.044 321.534 278.658 321.824C278.272 322.108 278.016 322.466 277.891 322.898L274.533 322.625C274.703 321.83 275.039 321.142 275.539 320.562C276.039 319.977 276.684 319.528 277.473 319.216C278.269 318.898 279.189 318.739 280.235 318.739C280.962 318.739 281.658 318.824 282.323 318.994C282.993 319.165 283.587 319.429 284.104 319.787C284.627 320.145 285.039 320.605 285.34 321.168C285.641 321.724 285.791 322.392 285.791 323.17V332H282.348V330.185H282.246C282.036 330.594 281.755 330.955 281.402 331.267C281.05 331.574 280.627 331.815 280.132 331.991C279.638 332.162 279.067 332.247 278.419 332.247ZM279.459 329.741C279.993 329.741 280.465 329.636 280.874 329.426C281.283 329.21 281.604 328.92 281.837 328.557C282.07 328.193 282.186 327.781 282.186 327.321V325.932C282.073 326.006 281.916 326.074 281.718 326.136C281.524 326.193 281.306 326.247 281.061 326.298C280.817 326.344 280.573 326.386 280.328 326.426C280.084 326.46 279.863 326.491 279.664 326.52C279.238 326.582 278.865 326.682 278.547 326.818C278.229 326.955 277.982 327.139 277.806 327.372C277.63 327.599 277.541 327.884 277.541 328.224C277.541 328.719 277.72 329.097 278.078 329.358C278.442 329.614 278.902 329.741 279.459 329.741ZM289.328 332V318.909H292.788V321.219H292.942C293.215 320.452 293.669 319.847 294.306 319.403C294.942 318.96 295.703 318.739 296.59 318.739C297.487 318.739 298.252 318.963 298.882 319.412C299.513 319.855 299.933 320.457 300.144 321.219H300.28C300.547 320.469 301.03 319.869 301.729 319.42C302.433 318.966 303.266 318.739 304.226 318.739C305.448 318.739 306.439 319.128 307.2 319.906C307.967 320.679 308.351 321.776 308.351 323.196V332H304.729V323.912C304.729 323.185 304.536 322.639 304.149 322.276C303.763 321.912 303.28 321.73 302.7 321.73C302.041 321.73 301.527 321.94 301.158 322.361C300.788 322.776 300.604 323.324 300.604 324.006V332H297.084V323.835C297.084 323.193 296.899 322.682 296.53 322.301C296.166 321.92 295.686 321.73 295.09 321.73C294.686 321.73 294.323 321.832 293.999 322.037C293.681 322.236 293.428 322.517 293.24 322.881C293.053 323.239 292.959 323.659 292.959 324.142V332H289.328ZM317.905 332.256C316.558 332.256 315.399 331.983 314.428 331.438C313.462 330.886 312.717 330.108 312.195 329.102C311.672 328.091 311.41 326.895 311.41 325.514C311.41 324.168 311.672 322.986 312.195 321.969C312.717 320.952 313.453 320.159 314.402 319.591C315.356 319.023 316.476 318.739 317.76 318.739C318.624 318.739 319.428 318.878 320.172 319.156C320.922 319.429 321.575 319.841 322.132 320.392C322.695 320.943 323.132 321.636 323.445 322.472C323.757 323.301 323.913 324.273 323.913 325.386V326.384H312.859V324.134H320.496C320.496 323.611 320.382 323.148 320.155 322.744C319.928 322.341 319.612 322.026 319.209 321.798C318.811 321.565 318.348 321.449 317.82 321.449C317.268 321.449 316.78 321.577 316.354 321.832C315.933 322.082 315.604 322.42 315.365 322.847C315.126 323.267 315.004 323.736 314.999 324.253V326.392C314.999 327.04 315.118 327.599 315.356 328.071C315.601 328.543 315.945 328.906 316.388 329.162C316.831 329.418 317.356 329.545 317.964 329.545C318.368 329.545 318.737 329.489 319.072 329.375C319.408 329.261 319.695 329.091 319.933 328.864C320.172 328.636 320.354 328.358 320.479 328.028L323.837 328.25C323.666 329.057 323.317 329.761 322.788 330.364C322.266 330.96 321.589 331.426 320.76 331.761C319.936 332.091 318.984 332.256 317.905 332.256ZM334.562 314.545V332H330.872V318.048H330.77L326.772 320.554V317.281L331.094 314.545H334.562Z" fill="#252525"/>
<path d="M72.9858 370.565C72.9176 369.878 72.625 369.344 72.108 368.963C71.5909 368.582 70.8892 368.392 70.0028 368.392C69.4006 368.392 68.892 368.477 68.4773 368.648C68.0625 368.812 67.7443 369.043 67.5227 369.338C67.3068 369.634 67.1989 369.969 67.1989 370.344C67.1875 370.656 67.2528 370.929 67.3949 371.162C67.5426 371.395 67.7443 371.597 68 371.767C68.2557 371.932 68.5511 372.077 68.8864 372.202C69.2216 372.321 69.5795 372.423 69.9602 372.509L71.5284 372.884C72.2898 373.054 72.9886 373.281 73.625 373.565C74.2614 373.849 74.8125 374.199 75.2784 374.614C75.7443 375.028 76.1051 375.517 76.3608 376.08C76.6222 376.642 76.7557 377.287 76.7614 378.014C76.7557 379.082 76.483 380.009 75.9432 380.793C75.4091 381.571 74.6364 382.176 73.625 382.608C72.6193 383.034 71.4063 383.247 69.9858 383.247C68.5767 383.247 67.3494 383.031 66.304 382.599C65.2642 382.168 64.4517 381.528 63.8665 380.682C63.2869 379.83 62.983 378.776 62.9545 377.52H66.5256C66.5653 378.105 66.733 378.594 67.0284 378.986C67.3295 379.372 67.7301 379.665 68.2301 379.864C68.7358 380.057 69.3068 380.153 69.9432 380.153C70.5682 380.153 71.1108 380.062 71.571 379.881C72.0369 379.699 72.3977 379.446 72.6534 379.122C72.9091 378.798 73.0369 378.426 73.0369 378.006C73.0369 377.614 72.9205 377.284 72.6875 377.017C72.4602 376.75 72.125 376.523 71.6818 376.335C71.2443 376.148 70.7074 375.977 70.071 375.824L68.1705 375.347C66.6989 374.989 65.5369 374.429 64.6847 373.668C63.8324 372.906 63.4091 371.881 63.4148 370.591C63.4091 369.534 63.6903 368.611 64.2585 367.821C64.8324 367.031 65.6193 366.415 66.6193 365.972C67.6193 365.528 68.7557 365.307 70.0284 365.307C71.3239 365.307 72.4545 365.528 73.4205 365.972C74.392 366.415 75.1477 367.031 75.6875 367.821C76.2273 368.611 76.5057 369.526 76.5227 370.565H72.9858ZM86.8585 369.909V372.636H78.975V369.909H86.8585ZM80.7647 366.773H84.3954V378.977C84.3954 379.312 84.4466 379.574 84.5488 379.761C84.6511 379.943 84.7932 380.071 84.975 380.145C85.1625 380.219 85.3784 380.256 85.6227 380.256C85.7932 380.256 85.9636 380.241 86.1341 380.213C86.3045 380.179 86.4352 380.153 86.5261 380.136L87.0971 382.838C86.9153 382.895 86.6596 382.96 86.3301 383.034C86.0005 383.114 85.6 383.162 85.1284 383.179C84.2534 383.213 83.4863 383.097 82.8272 382.83C82.1738 382.562 81.6653 382.148 81.3017 381.585C80.938 381.023 80.7591 380.312 80.7647 379.455V366.773ZM93.6765 383.247C92.8413 383.247 92.097 383.102 91.4436 382.812C90.7901 382.517 90.2731 382.082 89.8924 381.509C89.5174 380.929 89.3299 380.207 89.3299 379.344C89.3299 378.616 89.4634 378.006 89.7305 377.511C89.9975 377.017 90.3612 376.619 90.8214 376.318C91.2816 376.017 91.8043 375.79 92.3896 375.636C92.9805 375.483 93.5998 375.375 94.2475 375.312C95.0089 375.233 95.6225 375.159 96.0884 375.091C96.5543 375.017 96.8924 374.909 97.1026 374.767C97.3129 374.625 97.418 374.415 97.418 374.136V374.085C97.418 373.545 97.2475 373.128 96.9066 372.832C96.5714 372.537 96.0941 372.389 95.4748 372.389C94.8214 372.389 94.3015 372.534 93.9151 372.824C93.5288 373.108 93.2731 373.466 93.1481 373.898L89.7901 373.625C89.9606 372.83 90.2958 372.142 90.7958 371.562C91.2958 370.977 91.9407 370.528 92.7305 370.216C93.5259 369.898 94.4464 369.739 95.4918 369.739C96.2191 369.739 96.9151 369.824 97.5799 369.994C98.2504 370.165 98.8441 370.429 99.3612 370.787C99.8839 371.145 100.296 371.605 100.597 372.168C100.898 372.724 101.049 373.392 101.049 374.17V383H97.6055V381.185H97.5032C97.293 381.594 97.0117 381.955 96.6595 382.267C96.3072 382.574 95.8839 382.815 95.3896 382.991C94.8953 383.162 94.3242 383.247 93.6765 383.247ZM94.7163 380.741C95.2504 380.741 95.722 380.636 96.1311 380.426C96.5401 380.21 96.8612 379.92 97.0941 379.557C97.3271 379.193 97.4436 378.781 97.4436 378.321V376.932C97.3299 377.006 97.1737 377.074 96.9748 377.136C96.7816 377.193 96.5629 377.247 96.3186 377.298C96.0742 377.344 95.8299 377.386 95.5856 377.426C95.3413 377.46 95.1197 377.491 94.9208 377.52C94.4947 377.582 94.1225 377.682 93.8043 377.818C93.4862 377.955 93.239 378.139 93.0629 378.372C92.8867 378.599 92.7987 378.884 92.7987 379.224C92.7987 379.719 92.9776 380.097 93.3356 380.358C93.6992 380.614 94.1595 380.741 94.7163 380.741ZM111.548 369.909V372.636H103.665V369.909H111.548ZM105.455 366.773H109.085V378.977C109.085 379.312 109.137 379.574 109.239 379.761C109.341 379.943 109.483 380.071 109.665 380.145C109.852 380.219 110.068 380.256 110.313 380.256C110.483 380.256 110.654 380.241 110.824 380.213C110.995 380.179 111.125 380.153 111.216 380.136L111.787 382.838C111.605 382.895 111.35 382.96 111.02 383.034C110.691 383.114 110.29 383.162 109.818 383.179C108.943 383.213 108.176 383.097 107.517 382.83C106.864 382.562 106.355 382.148 105.992 381.585C105.628 381.023 105.449 380.312 105.455 379.455V366.773ZM123.028 377.426V369.909H126.659V383H123.173V380.622H123.037C122.742 381.389 122.25 382.006 121.563 382.472C120.881 382.937 120.048 383.17 119.065 383.17C118.19 383.17 117.42 382.972 116.756 382.574C116.091 382.176 115.571 381.611 115.196 380.878C114.827 380.145 114.639 379.267 114.634 378.244V369.909H118.264V377.597C118.27 378.369 118.477 378.98 118.886 379.429C119.295 379.878 119.844 380.102 120.531 380.102C120.969 380.102 121.378 380.003 121.759 379.804C122.139 379.599 122.446 379.298 122.679 378.901C122.918 378.503 123.034 378.011 123.028 377.426ZM141.175 373.642L137.851 373.847C137.795 373.562 137.672 373.307 137.485 373.08C137.297 372.847 137.05 372.662 136.743 372.526C136.442 372.384 136.082 372.312 135.661 372.312C135.099 372.312 134.624 372.432 134.238 372.67C133.851 372.903 133.658 373.216 133.658 373.608C133.658 373.92 133.783 374.185 134.033 374.401C134.283 374.616 134.712 374.79 135.32 374.92L137.689 375.398C138.962 375.659 139.911 376.08 140.536 376.659C141.161 377.239 141.474 378 141.474 378.943C141.474 379.801 141.221 380.554 140.715 381.202C140.215 381.849 139.528 382.355 138.653 382.719C137.783 383.077 136.78 383.256 135.644 383.256C133.911 383.256 132.53 382.895 131.502 382.173C130.479 381.446 129.88 380.457 129.704 379.207L133.275 379.02C133.383 379.548 133.644 379.952 134.059 380.23C134.474 380.503 135.005 380.639 135.653 380.639C136.289 380.639 136.8 380.517 137.187 380.273C137.579 380.023 137.778 379.702 137.783 379.31C137.778 378.98 137.638 378.71 137.366 378.5C137.093 378.284 136.672 378.119 136.104 378.006L133.837 377.554C132.559 377.298 131.607 376.855 130.982 376.224C130.363 375.594 130.053 374.79 130.053 373.812C130.053 372.972 130.28 372.247 130.735 371.639C131.195 371.031 131.84 370.562 132.67 370.233C133.505 369.903 134.482 369.739 135.601 369.739C137.255 369.739 138.556 370.088 139.505 370.787C140.459 371.486 141.016 372.437 141.175 373.642ZM146.602 383.222C146.039 383.222 145.557 383.023 145.153 382.625C144.755 382.222 144.557 381.739 144.557 381.176C144.557 380.619 144.755 380.142 145.153 379.744C145.557 379.347 146.039 379.148 146.602 379.148C147.147 379.148 147.625 379.347 148.034 379.744C148.443 380.142 148.647 380.619 148.647 381.176C148.647 381.551 148.551 381.895 148.358 382.207C148.17 382.514 147.923 382.761 147.616 382.949C147.309 383.131 146.971 383.222 146.602 383.222ZM146.602 374.051C146.039 374.051 145.557 373.852 145.153 373.455C144.755 373.057 144.557 372.574 144.557 372.006C144.557 371.449 144.755 370.974 145.153 370.582C145.557 370.185 146.039 369.986 146.602 369.986C147.147 369.986 147.625 370.185 148.034 370.582C148.443 370.974 148.647 371.449 148.647 372.006C148.647 372.386 148.551 372.733 148.358 373.045C148.17 373.352 147.923 373.597 147.616 373.778C147.309 373.96 146.971 374.051 146.602 374.051ZM158.974 383V372.776C158.974 371.96 159.11 371.32 159.382 370.856C159.67 370.392 160.062 370.072 160.558 369.896C161.054 369.704 161.622 369.608 162.262 369.608C162.71 369.608 163.11 369.656 163.462 369.752C163.814 369.832 164.102 369.928 164.326 370.04L163.846 372.392C163.718 372.36 163.59 372.336 163.462 372.32C163.334 372.304 163.23 372.296 163.15 372.296C162.846 372.296 162.63 372.376 162.502 372.536C162.39 372.696 162.334 372.928 162.334 373.232V375.464C162.334 375.864 162.318 376.344 162.286 376.904C162.254 377.448 162.198 378.136 162.118 378.968H162.238C162.558 378.216 162.838 377.616 163.078 377.168C163.334 376.704 163.558 376.296 163.75 375.944L164.638 374.336H165.982L166.87 375.944C167.094 376.328 167.286 376.68 167.446 377C167.606 377.304 167.758 377.608 167.902 377.912C168.046 378.216 168.206 378.568 168.382 378.968H168.502C168.422 378.136 168.366 377.448 168.334 376.904C168.302 376.344 168.286 375.864 168.286 375.464V369.848H171.646V383H168.214L165.358 377.768H165.262L162.406 383H158.974ZM168.685 389.36C167.405 389.36 166.469 389.168 165.877 388.784C165.285 388.4 164.989 387.896 164.989 387.272V386.864C164.989 386.592 164.917 386.424 164.773 386.36C164.629 386.312 164.437 386.32 164.197 386.384L164.029 384.776C164.253 384.68 164.541 384.616 164.893 384.584C165.245 384.552 165.533 384.536 165.757 384.536C166.461 384.536 166.973 384.664 167.293 384.92C167.597 385.176 167.749 385.536 167.749 386V386.552C167.749 386.824 167.813 387.032 167.941 387.176C168.053 387.336 168.269 387.416 168.589 387.416C168.925 387.416 169.157 387.336 169.285 387.176C169.413 387.032 169.477 386.824 169.477 386.552V384.608H172.405V386.936C172.405 387.72 172.109 388.32 171.517 388.736C170.925 389.152 169.981 389.36 168.685 389.36ZM165.853 368.048V366.848C166.077 366.784 166.325 366.696 166.597 366.584C166.869 366.472 167.109 366.32 167.317 366.128C167.525 365.936 167.629 365.696 167.629 365.408C167.629 365.184 167.565 365.008 167.437 364.88C167.309 364.752 167.149 364.688 166.957 364.688C166.829 364.688 166.693 364.712 166.549 364.76C166.405 364.808 166.277 364.856 166.165 364.904L165.709 363.296C166.029 363.024 166.429 362.848 166.909 362.768C167.373 362.672 167.765 362.624 168.085 362.624C168.805 362.624 169.373 362.792 169.789 363.128C170.189 363.464 170.389 363.96 170.389 364.616C170.389 364.968 170.301 365.296 170.125 365.6C169.933 365.904 169.645 366.152 169.261 366.344L169.165 365.72H173.701V368.048H165.853ZM181.069 383.24C180.349 383.24 179.741 383.128 179.245 382.904C178.749 382.68 178.373 382.344 178.117 381.896C177.861 381.432 177.733 380.856 177.733 380.168V371.288C177.733 370.872 177.757 370.528 177.805 370.256C177.869 369.984 177.981 369.728 178.141 369.488C178.301 369.232 178.533 368.928 178.837 368.576C179.157 368.208 179.421 367.888 179.629 367.616C179.837 367.344 179.941 367.032 179.941 366.68C179.941 366.312 179.805 366.024 179.533 365.816C179.277 365.592 178.869 365.48 178.309 365.48C177.877 365.48 177.493 365.536 177.157 365.648C176.821 365.76 176.517 365.904 176.245 366.08V363.416C176.469 363.288 176.869 363.144 177.445 362.984C178.037 362.808 178.749 362.72 179.581 362.72C180.845 362.72 181.845 362.984 182.581 363.512C183.317 364.04 183.685 364.832 183.685 365.888C183.685 366.528 183.557 367.088 183.301 367.568C183.061 368.048 182.805 368.472 182.533 368.84C182.277 369.192 182.053 369.488 181.861 369.728C181.685 369.952 181.549 370.184 181.453 370.424C181.373 370.664 181.333 370.984 181.333 371.384V379.736C181.333 380.04 181.397 380.264 181.525 380.408C181.669 380.552 181.877 380.624 182.149 380.624C182.277 380.624 182.413 380.608 182.557 380.576C182.717 380.544 182.861 380.504 182.989 380.456L183.325 382.76C183.021 382.92 182.677 383.04 182.293 383.12C181.909 383.2 181.501 383.24 181.069 383.24ZM191.045 383.312C189.221 383.312 187.837 382.912 186.893 382.112C185.965 381.296 185.501 380.128 185.501 378.608V377.672C185.501 377.016 185.573 376.472 185.717 376.04C185.877 375.608 186.085 375.216 186.341 374.864C186.597 374.512 186.805 374.2 186.965 373.928C187.141 373.64 187.229 373.344 187.229 373.04C187.229 372.752 187.157 372.552 187.013 372.44C186.885 372.312 186.709 372.248 186.485 372.248C186.325 372.248 186.157 372.272 185.981 372.32C185.821 372.368 185.637 372.44 185.429 372.536L184.853 370.28C185.301 370.04 185.781 369.88 186.293 369.8C186.821 369.704 187.285 369.656 187.685 369.656C188.389 369.656 188.949 369.768 189.365 369.992C189.797 370.216 190.109 370.536 190.301 370.952C190.493 371.368 190.589 371.864 190.589 372.44C190.589 372.936 190.517 373.376 190.373 373.76C190.229 374.128 190.045 374.512 189.821 374.912C189.613 375.28 189.429 375.624 189.269 375.944C189.125 376.264 189.053 376.728 189.053 377.336V378.248C189.053 378.776 189.125 379.208 189.269 379.544C189.429 379.88 189.661 380.128 189.965 380.288C190.269 380.432 190.629 380.504 191.045 380.504C191.733 380.504 192.221 380.32 192.509 379.952C192.813 379.568 192.965 379.056 192.965 378.416V376.088C192.965 375.608 192.853 375.232 192.629 374.96C192.421 374.672 192.061 374.528 191.549 374.528H191.429V372.632H191.573C192.069 372.632 192.437 372.496 192.677 372.224C192.917 371.952 193.069 371.608 193.133 371.192C193.213 370.76 193.253 370.312 193.253 369.848H196.829C196.829 370.824 196.701 371.632 196.445 372.272C196.189 372.912 195.741 373.344 195.101 373.568V373.664C195.485 373.776 195.781 373.952 195.989 374.192C196.197 374.416 196.341 374.688 196.421 375.008C196.501 375.328 196.541 375.68 196.541 376.064V378.512C196.541 380.096 196.077 381.296 195.149 382.112C194.221 382.912 192.853 383.312 191.045 383.312ZM190.325 368.048V366.848C190.549 366.784 190.797 366.696 191.069 366.584C191.341 366.472 191.581 366.32 191.789 366.128C191.997 365.936 192.101 365.696 192.101 365.408C192.101 365.184 192.037 365.008 191.909 364.88C191.781 364.752 191.621 364.688 191.429 364.688C191.301 364.688 191.165 364.712 191.021 364.76C190.877 364.808 190.749 364.856 190.637 364.904L190.181 363.296C190.501 363.024 190.901 362.848 191.381 362.768C191.845 362.672 192.237 362.624 192.557 362.624C193.277 362.624 193.845 362.792 194.261 363.128C194.661 363.464 194.861 363.96 194.861 364.616C194.861 364.968 194.773 365.296 194.597 365.6C194.405 365.904 194.117 366.152 193.733 366.344L193.637 365.72H198.173V368.048H190.325ZM203.516 383L199.7 369.848H203.324L206.228 380.096H206.372C206.628 380.096 206.868 380.024 207.092 379.88C207.316 379.736 207.508 379.544 207.668 379.304C207.988 378.856 208.228 378.328 208.388 377.72C208.548 377.096 208.628 376.48 208.628 375.872C208.628 374.8 208.42 373.976 208.004 373.4C207.604 372.824 207.044 372.536 206.324 372.536C206.18 372.536 206.044 372.544 205.916 372.56C205.804 372.576 205.7 372.608 205.604 372.656L204.932 369.896C205.3 369.784 205.644 369.72 205.964 369.704C206.3 369.672 206.572 369.656 206.78 369.656C207.628 369.656 208.364 369.768 208.988 369.992C209.612 370.216 210.148 370.552 210.596 371C211.156 371.544 211.572 372.224 211.844 373.04C212.132 373.856 212.276 374.776 212.276 375.8C212.276 377.096 212.068 378.232 211.652 379.208C211.252 380.168 210.764 380.928 210.188 381.488C209.708 381.952 209.1 382.32 208.364 382.592C207.644 382.864 206.652 383 205.388 383H203.516ZM219.171 383V374.312C219.171 373.64 219.011 373.152 218.691 372.848C218.387 372.544 217.883 372.392 217.179 372.392C216.651 372.392 216.163 372.464 215.715 372.608C215.283 372.752 214.875 372.928 214.491 373.136V370.256C214.843 370.096 215.339 369.936 215.979 369.776C216.619 369.616 217.371 369.536 218.235 369.536C219.115 369.536 219.891 369.664 220.563 369.92C221.251 370.176 221.787 370.608 222.171 371.216C222.571 371.808 222.771 372.624 222.771 373.664V383H219.171ZM231.329 383.24C230.353 383.24 229.529 383.056 228.857 382.688C228.201 382.304 227.697 381.736 227.345 380.984C227.009 380.232 226.841 379.312 226.841 378.224V369.848H230.441V377.6C230.441 378.48 230.617 379.12 230.969 379.52C231.321 379.92 231.833 380.12 232.505 380.12C233.353 380.12 234.009 379.8 234.473 379.16C234.937 378.504 235.169 377.496 235.169 376.136V369.848H238.769V383H236.033L235.649 380.984H235.433C235.161 381.624 234.689 382.16 234.017 382.592C233.361 383.024 232.465 383.24 231.329 383.24ZM243.244 383V369.848H245.884L246.364 371.912H246.556C246.828 371.256 247.3 370.712 247.972 370.28C248.644 369.832 249.516 369.608 250.588 369.608C251.612 369.608 252.46 369.792 253.132 370.16C253.804 370.512 254.308 371.056 254.644 371.792C254.996 372.512 255.172 373.424 255.172 374.528V383H251.572V375.248C251.572 374.352 251.388 373.712 251.02 373.328C250.668 372.928 250.148 372.728 249.46 372.728C248.9 372.728 248.42 372.88 248.02 373.184C247.636 373.488 247.34 373.936 247.132 374.528C246.94 375.104 246.844 375.832 246.844 376.712V383H243.244ZM251.857 368.024C251.105 368.024 250.513 367.912 250.081 367.688C249.649 367.464 249.345 367.184 249.169 366.848C248.977 366.496 248.881 366.128 248.881 365.744C248.881 365.472 248.921 365.184 249.001 364.88C249.081 364.56 249.201 364.264 249.361 363.992L251.977 364.328C251.945 364.44 251.921 364.56 251.905 364.688C251.873 364.8 251.857 364.904 251.857 365C251.857 365.224 251.929 365.4 252.073 365.528C252.201 365.64 252.425 365.696 252.745 365.696H257.905V368.024H251.857ZM253.29 363.576V359.112H256.41V363.576H253.29ZM264.186 383.312C263.37 383.312 262.602 383.216 261.882 383.024C261.162 382.848 260.49 382.592 259.866 382.256L260.826 379.64C261.178 379.848 261.602 380.032 262.098 380.192C262.594 380.352 263.082 380.432 263.562 380.432C264.458 380.432 265.17 380.096 265.698 379.424C266.226 378.736 266.49 377.712 266.49 376.352C266.49 375.072 266.226 374.096 265.698 373.424C265.17 372.752 264.346 372.416 263.226 372.416C262.698 372.416 262.154 372.496 261.594 372.656C261.034 372.8 260.57 372.984 260.202 373.208V370.256C260.698 370.032 261.258 369.856 261.882 369.728C262.506 369.6 263.17 369.536 263.874 369.536C265.346 369.536 266.546 369.808 267.474 370.352C268.402 370.896 269.082 371.68 269.514 372.704C269.946 373.712 270.162 374.928 270.162 376.352C270.162 378.624 269.642 380.352 268.602 381.536C267.562 382.72 266.09 383.312 264.186 383.312ZM274.57 372.248V368.744C274.57 368.136 274.626 367.648 274.738 367.28C274.85 366.896 275.002 366.584 275.194 366.344C275.386 366.104 275.586 365.904 275.794 365.744L275.77 365.648H272.05L272.722 363.056H280.354V365.648C279.762 365.648 279.25 365.84 278.818 366.224C278.386 366.608 278.17 367.312 278.17 368.336V372.248H274.57ZM277.906 383.24C277.186 383.24 276.578 383.128 276.082 382.904C275.586 382.68 275.21 382.344 274.954 381.896C274.698 381.432 274.57 380.856 274.57 380.168V369.848H278.17V379.736C278.17 380.04 278.234 380.264 278.362 380.408C278.506 380.552 278.722 380.624 279.01 380.624C279.138 380.624 279.274 380.608 279.418 380.576C279.562 380.544 279.698 380.504 279.826 380.456L280.162 382.76C279.858 382.92 279.514 383.04 279.13 383.12C278.746 383.2 278.338 383.24 277.906 383.24ZM288.534 383.312C286.454 383.312 284.942 382.832 283.998 381.872C283.07 380.896 282.606 379.488 282.606 377.648V369.848H286.206V377.84C286.206 378.688 286.39 379.336 286.758 379.784C287.142 380.216 287.734 380.432 288.534 380.432C289.334 380.432 289.918 380.216 290.286 379.784C290.67 379.336 290.862 378.688 290.862 377.84V365.12H294.462V377.648C294.462 379.488 293.99 380.896 293.046 381.872C292.118 382.832 290.614 383.312 288.534 383.312Z" fill="#252525"/>
<path d="M199.81 42C150.762 42 111 81.7616 111 130.81C111 179.858 150.762 219.62 199.81 219.62C248.858 219.62 288.62 179.858 288.62 130.81C288.62 81.7616 248.858 42 199.81 42Z" stroke="#252525" stroke-width="6" stroke-linecap="round" stroke-linejoin="round"/>
<path d="M134.368 188.885C134.368 188.885 153.142 148.826 199.465 148.826C245.788 148.826 264.562 188.885 264.562 188.885" stroke="#252525" stroke-width="6" stroke-linecap="round" stroke-linejoin="round"/>
<path d="M199.465 135.472C219.439 135.472 235.63 119.281 235.63 99.3075C235.63 79.3342 219.439 63.1426 199.465 63.1426C179.491 63.1426 163.3 79.3342 163.3 99.3075C163.3 119.281 179.491 135.472 199.465 135.472Z" stroke="#252525" stroke-width="6" stroke-linecap="round" stroke-linejoin="round"/>
<defs>
<filter id="filter0_d_648_1952" x="0" y="0" width="400" height="466" filterUnits="userSpaceOnUse" color-interpolation-filters="sRGB">
<feFlood flood-opacity="0" result="BackgroundImageFix"/>
<feColorMatrix in="SourceAlpha" type="matrix" values="0 0 0 0 0 0 0 0 0 0 0 0 0 0 0 0 0 0 127 0" result="hardAlpha"/>
<feOffset dy="4"/>
<feGaussianBlur stdDeviation="10"/>
<feComposite in2="hardAlpha" operator="out"/>
<feColorMatrix type="matrix" values="0 0 0 0 0 0 0 0 0 0 0 0 0 0 0 0 0 0 0.25 0"/>
<feBlend mode="normal" in2="BackgroundImageFix" result="effect1_dropShadow_648_1952"/>
<feBlend mode="normal" in="SourceGraphic" in2="effect1_dropShadow_648_1952" result="shape"/>
</filter>
</defs>
</svg>
