<svg width="290" height="63" viewBox="0 0 290 63" fill="none" xmlns="http://www.w3.org/2000/svg">
<rect width="290" height="63" rx="31.5" fill="#AB80E3"/>
<path d="M33.2285 40V31.456C33.2285 30.688 33.0205 30.136 32.6045 29.8C32.1885 29.464 31.5485 29.296 30.6845 29.296C29.8525 29.296 29.0365 29.424 28.2365 29.68C27.4525 29.92 26.7725 30.208 26.1965 30.544V27.568C26.6605 27.344 27.3165 27.12 28.1645 26.896C29.0125 26.656 29.9885 26.536 31.0925 26.536C31.9405 26.536 32.7005 26.64 33.3725 26.848C34.0605 27.056 34.5565 27.464 34.8605 28.072C35.5325 28.28 36.0125 28.688 36.3005 29.296C36.6045 29.888 36.7565 30.656 36.7565 31.6V40H33.2285ZM29.2925 40.24C27.9165 40.24 26.8525 39.912 26.1005 39.256C25.3645 38.6 24.9965 37.68 24.9965 36.496C24.9965 35.216 25.4525 34.192 26.3645 33.424C27.2925 32.656 28.7485 32.192 30.7325 32.032L33.8045 31.792V34.384L31.1405 34.648C30.1805 34.744 29.5085 34.936 29.1245 35.224C28.7565 35.512 28.5725 35.896 28.5725 36.376C28.5725 36.856 28.7245 37.216 29.0285 37.456C29.3485 37.696 29.7565 37.816 30.2525 37.816C30.4445 37.816 30.6365 37.8 30.8285 37.768C31.0205 37.72 31.1965 37.672 31.3565 37.624L31.6685 39.88C31.3645 39.992 31.0045 40.08 30.5885 40.144C30.1725 40.208 29.7405 40.24 29.2925 40.24ZM34.7885 29.464L32.8205 27.808C33.3805 27.616 33.8205 27.376 34.1405 27.088C34.4605 26.784 34.6285 26.416 34.6445 25.984H37.7885C37.7885 26.48 37.6845 26.96 37.4765 27.424C37.2845 27.872 36.9645 28.272 36.5165 28.624C36.0845 28.976 35.5085 29.256 34.7885 29.464ZM34.03 25.024V19.576H37.342V25.024H34.03ZM43.874 40L40.058 26.848H43.682L46.586 37.096H46.73C46.986 37.096 47.226 37.024 47.45 36.88C47.674 36.736 47.866 36.544 48.026 36.304C48.346 35.856 48.586 35.328 48.746 34.72C48.906 34.096 48.986 33.48 48.986 32.872C48.986 31.8 48.778 30.976 48.362 30.4C47.962 29.824 47.402 29.536 46.682 29.536C46.538 29.536 46.402 29.544 46.274 29.56C46.162 29.576 46.058 29.608 45.962 29.656L45.29 26.896C45.658 26.784 46.002 26.72 46.322 26.704C46.658 26.672 46.93 26.656 47.138 26.656C47.986 26.656 48.722 26.768 49.346 26.992C49.97 27.216 50.506 27.552 50.954 28C51.514 28.544 51.93 29.224 52.202 30.04C52.49 30.856 52.634 31.776 52.634 32.8C52.634 34.096 52.426 35.232 52.01 36.208C51.61 37.168 51.122 37.928 50.546 38.488C50.066 38.952 49.458 39.32 48.722 39.592C48.002 39.864 47.01 40 45.746 40H43.874ZM56.0489 40V32.2C56.0489 30.36 56.5369 28.96 57.5129 28C58.4889 27.024 60.0329 26.536 62.1449 26.536C64.2729 26.536 65.8089 27.024 66.7529 28C67.7129 28.96 68.1929 30.36 68.1929 32.2V40H64.6169V32.152C64.6169 31.304 64.4169 30.64 64.0169 30.16C63.6329 29.664 62.9929 29.416 62.0969 29.416C61.2169 29.416 60.5769 29.664 60.1769 30.16C59.7929 30.64 59.6009 31.304 59.6009 32.152V34.24L59.6729 34.264C59.9769 33.64 60.3369 33.232 60.7529 33.04C61.1849 32.832 61.7689 32.728 62.5049 32.728H63.0569V35.416H62.5049C61.7049 35.416 61.0969 35.552 60.6809 35.824C60.2649 36.096 59.9769 36.456 59.8169 36.904C59.6729 37.336 59.6009 37.824 59.6009 38.368V40H56.0489ZM66.0965 25.552C65.1845 25.552 64.4565 25.344 63.9125 24.928C63.3685 24.512 63.0965 23.928 63.0965 23.176C63.0965 22.424 63.3685 21.84 63.9125 21.424C64.4565 21.008 65.1845 20.8 66.0965 20.8C67.0085 20.8 67.7445 21.008 68.3045 21.424C68.8485 21.84 69.1205 22.424 69.1205 23.176C69.1205 23.928 68.8485 24.512 68.3045 24.928C67.7445 25.344 67.0085 25.552 66.0965 25.552ZM66.0965 24.16C66.4485 24.16 66.7205 24.072 66.9125 23.896C67.1045 23.72 67.2005 23.48 67.2005 23.176C67.2005 22.872 67.1045 22.632 66.9125 22.456C66.7205 22.28 66.4485 22.192 66.0965 22.192C65.7605 22.192 65.4965 22.28 65.3045 22.456C65.1125 22.632 65.0165 22.872 65.0165 23.176C65.0165 23.48 65.1125 23.72 65.3045 23.896C65.4965 24.072 65.7605 24.16 66.0965 24.16ZM76.4845 40V31.312C76.4845 30.64 76.3245 30.152 76.0045 29.848C75.7005 29.544 75.1965 29.392 74.4925 29.392C73.9645 29.392 73.4765 29.464 73.0285 29.608C72.5965 29.752 72.1885 29.928 71.8045 30.136V27.256C72.1565 27.096 72.6525 26.936 73.2925 26.776C73.9325 26.616 74.6845 26.536 75.5485 26.536C76.4285 26.536 77.2045 26.664 77.8765 26.92C78.5645 27.176 79.1005 27.608 79.4845 28.216C79.8845 28.808 80.0845 29.624 80.0845 30.664V40H76.4845ZM89.5542 40.312C87.7622 40.312 86.4102 39.912 85.4982 39.112C84.5862 38.312 84.1302 37.144 84.1302 35.608V34.648C84.1302 33.992 84.2182 33.456 84.3942 33.04C84.5702 32.608 84.7862 32.216 85.0422 31.864C85.2982 31.512 85.5062 31.2 85.6662 30.928C85.8422 30.64 85.9302 30.344 85.9302 30.04C85.9302 29.752 85.8582 29.552 85.7142 29.44C85.5862 29.312 85.4102 29.248 85.1862 29.248C85.0262 29.248 84.8582 29.272 84.6822 29.32C84.5222 29.368 84.3382 29.44 84.1302 29.536L83.5542 27.28C84.0022 27.04 84.4822 26.88 84.9942 26.8C85.5222 26.704 85.9862 26.656 86.3862 26.656C87.0902 26.656 87.6502 26.768 88.0662 26.992C88.4982 27.216 88.8102 27.536 89.0022 27.952C89.1942 28.368 89.2902 28.864 89.2902 29.44C89.2902 29.936 89.2182 30.376 89.0742 30.76C88.9302 31.128 88.7462 31.512 88.5222 31.912C88.3142 32.28 88.1222 32.624 87.9462 32.944C87.7862 33.264 87.7062 33.728 87.7062 34.336V35.296C87.7062 35.808 87.7782 36.232 87.9222 36.568C88.0822 36.888 88.2982 37.128 88.5702 37.288C88.8582 37.432 89.1942 37.504 89.5782 37.504C90.2022 37.504 90.6662 37.328 90.9702 36.976C91.2742 36.608 91.4262 36.088 91.4262 35.416V26.848H95.0022V35.512C95.0022 37.096 94.5382 38.296 93.6102 39.112C92.6822 39.912 91.3302 40.312 89.5542 40.312ZM104.309 40.312C102.357 40.312 100.909 39.84 99.9653 38.896C99.0213 37.936 98.5493 36.52 98.5493 34.648C98.5493 34.328 98.5573 33.944 98.5733 33.496C98.6053 33.032 98.6453 32.624 98.6933 32.272H104.453V34.552H102.077V34.888C102.077 35.528 102.157 36.056 102.317 36.472C102.477 36.872 102.717 37.168 103.037 37.36C103.373 37.552 103.789 37.648 104.285 37.648C104.829 37.648 105.285 37.528 105.653 37.288C106.037 37.048 106.325 36.64 106.517 36.064C106.725 35.488 106.829 34.696 106.829 33.688C106.829 32.744 106.717 31.96 106.493 31.336C106.285 30.696 105.925 30.216 105.413 29.896C104.917 29.576 104.229 29.416 103.349 29.416C102.869 29.416 102.373 29.472 101.861 29.584C101.349 29.68 100.861 29.808 100.397 29.968C99.9493 30.128 99.5573 30.304 99.2213 30.496V27.496C99.5733 27.304 100.005 27.136 100.517 26.992C101.045 26.848 101.613 26.736 102.221 26.656C102.829 26.576 103.429 26.536 104.021 26.536C105.573 26.536 106.821 26.824 107.765 27.4C108.725 27.96 109.421 28.76 109.853 29.8C110.301 30.84 110.525 32.072 110.525 33.496C110.525 34.952 110.309 36.192 109.877 37.216C109.461 38.224 108.797 38.992 107.885 39.52C106.973 40.048 105.781 40.312 104.309 40.312ZM117.72 40.24C117 40.24 116.392 40.128 115.896 39.904C115.4 39.68 115.024 39.344 114.768 38.896C114.512 38.432 114.384 37.856 114.384 37.168V26.848H117.984V36.736C117.984 37.04 118.048 37.264 118.176 37.408C118.32 37.552 118.536 37.624 118.824 37.624C118.952 37.624 119.088 37.608 119.232 37.576C119.376 37.544 119.512 37.504 119.64 37.456L119.976 39.76C119.672 39.92 119.328 40.04 118.944 40.12C118.56 40.2 118.152 40.24 117.72 40.24ZM128.688 40.312C126.608 40.312 125.096 39.832 124.152 38.872C123.224 37.896 122.76 36.488 122.76 34.648V26.848H126.36V34.84C126.36 35.688 126.544 36.336 126.912 36.784C127.296 37.216 127.888 37.432 128.688 37.432C129.488 37.432 130.072 37.216 130.44 36.784C130.824 36.336 131.016 35.688 131.016 34.84V22.12H134.616V34.648C134.616 36.488 134.144 37.896 133.2 38.872C132.272 39.832 130.768 40.312 128.688 40.312ZM128.489 25.24C128.057 25.24 127.689 25.152 127.385 24.976C127.065 24.8 126.809 24.528 126.617 24.16L125.681 25.168C124.753 25.168 124.017 24.928 123.473 24.448C122.929 23.952 122.657 23.24 122.657 22.312C122.657 21.336 122.929 20.616 123.473 20.152C124.017 19.672 124.633 19.432 125.321 19.432H130.649V21.184H125.873C125.601 21.184 125.369 21.28 125.177 21.472C124.985 21.664 124.889 21.96 124.889 22.36C124.889 22.648 124.953 22.888 125.081 23.08C125.193 23.272 125.377 23.368 125.633 23.368L126.521 22.336H127.025C127.041 22.672 127.121 22.944 127.265 23.152C127.393 23.344 127.585 23.44 127.841 23.44C128.049 23.44 128.217 23.368 128.345 23.224C128.457 23.064 128.513 22.856 128.513 22.6V22.24H130.673V22.72C130.673 23.584 130.473 24.224 130.073 24.64C129.673 25.04 129.145 25.24 128.489 25.24ZM143.922 40.24C142.946 40.24 142.122 40.056 141.45 39.688C140.794 39.304 140.29 38.736 139.938 37.984C139.602 37.232 139.434 36.312 139.434 35.224V26.848H143.034V34.6C143.034 35.48 143.21 36.12 143.562 36.52C143.914 36.92 144.426 37.12 145.098 37.12C145.946 37.12 146.602 36.8 147.066 36.16C147.53 35.504 147.762 34.496 147.762 33.136V26.848H151.362V40H148.626L148.242 37.984H148.026C147.754 38.624 147.282 39.16 146.61 39.592C145.954 40.024 145.058 40.24 143.922 40.24ZM163.158 40V31.456C163.158 30.688 162.95 30.136 162.534 29.8C162.118 29.464 161.478 29.296 160.614 29.296C159.782 29.296 158.966 29.424 158.166 29.68C157.382 29.92 156.702 30.208 156.126 30.544V27.568C156.59 27.344 157.246 27.12 158.094 26.896C158.942 26.656 159.918 26.536 161.022 26.536C161.87 26.536 162.63 26.64 163.302 26.848C163.99 27.056 164.486 27.464 164.79 28.072C165.462 28.28 165.942 28.688 166.23 29.296C166.534 29.888 166.686 30.656 166.686 31.6V40H163.158ZM159.222 40.24C157.846 40.24 156.782 39.912 156.03 39.256C155.294 38.6 154.926 37.68 154.926 36.496C154.926 35.216 155.382 34.192 156.294 33.424C157.222 32.656 158.678 32.192 160.662 32.032L163.734 31.792V34.384L161.07 34.648C160.11 34.744 159.438 34.936 159.054 35.224C158.686 35.512 158.502 35.896 158.502 36.376C158.502 36.856 158.654 37.216 158.958 37.456C159.278 37.696 159.686 37.816 160.182 37.816C160.374 37.816 160.566 37.8 160.758 37.768C160.95 37.72 161.126 37.672 161.286 37.624L161.598 39.88C161.294 39.992 160.934 40.08 160.518 40.144C160.102 40.208 159.67 40.24 159.222 40.24ZM164.718 29.464L162.75 27.808C163.31 27.616 163.75 27.376 164.07 27.088C164.39 26.784 164.558 26.416 164.574 25.984H167.718C167.718 26.48 167.614 26.96 167.406 27.424C167.214 27.872 166.894 28.272 166.446 28.624C166.014 28.976 165.438 29.256 164.718 29.464ZM164.967 25.552C164.055 25.552 163.327 25.344 162.783 24.928C162.239 24.512 161.967 23.928 161.967 23.176C161.967 22.424 162.239 21.84 162.783 21.424C163.327 21.008 164.055 20.8 164.967 20.8C165.879 20.8 166.615 21.008 167.175 21.424C167.719 21.84 167.991 22.424 167.991 23.176C167.991 23.928 167.719 24.512 167.175 24.928C166.615 25.344 165.879 25.552 164.967 25.552ZM164.967 24.16C165.319 24.16 165.591 24.072 165.783 23.896C165.975 23.72 166.071 23.48 166.071 23.176C166.071 22.872 165.975 22.632 165.783 22.456C165.591 22.28 165.319 22.192 164.967 22.192C164.631 22.192 164.367 22.28 164.175 22.456C163.983 22.632 163.887 22.872 163.887 23.176C163.887 23.48 163.983 23.72 164.175 23.896C164.367 24.072 164.631 24.16 164.967 24.16ZM175.027 40V31.312C175.027 30.64 174.867 30.152 174.547 29.848C174.243 29.544 173.739 29.392 173.035 29.392C172.507 29.392 172.019 29.464 171.571 29.608C171.139 29.752 170.731 29.928 170.347 30.136V27.256C170.699 27.096 171.195 26.936 171.835 26.776C172.475 26.616 173.227 26.536 174.091 26.536C174.971 26.536 175.747 26.664 176.419 26.92C177.107 27.176 177.643 27.608 178.027 28.216C178.427 28.808 178.627 29.624 178.627 30.664V40H175.027ZM187.185 40.24C186.209 40.24 185.385 40.056 184.713 39.688C184.057 39.304 183.553 38.736 183.201 37.984C182.865 37.232 182.697 36.312 182.697 35.224V26.848H186.297V34.6C186.297 35.48 186.473 36.12 186.825 36.52C187.177 36.92 187.689 37.12 188.361 37.12C189.209 37.12 189.865 36.8 190.329 36.16C190.793 35.504 191.025 34.496 191.025 33.136V26.848H194.625V40H191.889L191.505 37.984H191.289C191.017 38.624 190.545 39.16 189.873 39.592C189.217 40.024 188.321 40.24 187.185 40.24ZM191.852 25.024C191.1 25.024 190.508 24.912 190.076 24.688C189.644 24.464 189.34 24.184 189.164 23.848C188.972 23.496 188.876 23.128 188.876 22.744C188.876 22.472 188.916 22.184 188.996 21.88C189.076 21.56 189.196 21.264 189.356 20.992L191.972 21.328C191.94 21.44 191.916 21.56 191.9 21.688C191.868 21.8 191.852 21.904 191.852 22C191.852 22.224 191.924 22.4 192.068 22.528C192.196 22.64 192.42 22.696 192.74 22.696H197.9V25.024H191.852ZM199.532 40V35.992C199.532 34.984 199.732 34.208 200.132 33.664C200.532 33.12 201.1 32.736 201.836 32.512L201.86 32.416L199.292 31.48V30.856C199.292 30.072 199.524 29.352 199.988 28.696C200.452 28.04 201.132 27.52 202.028 27.136C202.94 26.736 204.044 26.536 205.34 26.536C206.556 26.536 207.604 26.728 208.484 27.112C209.364 27.48 210.044 28.04 210.524 28.792C211.02 29.528 211.268 30.464 211.268 31.6V40H207.668V31.816C207.668 31.016 207.452 30.416 207.02 30.016C206.604 29.616 206.012 29.416 205.244 29.416C204.508 29.416 203.956 29.576 203.588 29.896C203.22 30.2 203.02 30.576 202.988 31.024L205.124 32.008L204.86 33.568C204.284 33.6 203.852 33.808 203.564 34.192C203.276 34.576 203.132 35.096 203.132 35.752V40H199.532ZM216.693 40L214.413 26.848H217.917L218.565 31.48C218.613 31.864 218.669 32.392 218.733 33.064C218.813 33.72 218.885 34.488 218.949 35.368H219.021C219.165 34.776 219.293 34.24 219.405 33.76C219.517 33.264 219.621 32.824 219.717 32.44C219.829 32.04 219.925 31.696 220.005 31.408L221.301 26.848H223.485L224.781 31.408C224.861 31.696 224.949 32.04 225.045 32.44C225.157 32.824 225.269 33.264 225.381 33.76C225.509 34.24 225.637 34.776 225.765 35.368H225.837C225.917 34.488 225.981 33.72 226.029 33.064C226.093 32.392 226.157 31.864 226.221 31.48L226.893 26.848H230.373L228.117 40H224.589L223.077 34.648C222.917 34.024 222.789 33.456 222.693 32.944C222.613 32.416 222.533 31.88 222.453 31.336H222.357C222.293 31.704 222.229 32.056 222.165 32.392C222.117 32.728 222.053 33.08 221.973 33.448C221.893 33.8 221.789 34.2 221.661 34.648L220.125 40H216.693ZM219.149 25.024V23.512L221.573 22.504H230.141V25.024H219.149ZM241.978 40.24C240.842 40.24 239.922 40.024 239.218 39.592C238.53 39.16 238.042 38.608 237.754 37.936H237.562L237.178 40H234.442V26.848H238.042V33.136C238.042 34.048 238.146 34.8 238.354 35.392C238.562 35.968 238.866 36.4 239.266 36.688C239.666 36.976 240.146 37.12 240.706 37.12C241.378 37.12 241.89 36.92 242.242 36.52C242.594 36.12 242.77 35.48 242.77 34.6V26.848H246.37V35.392C246.37 36.432 246.202 37.312 245.866 38.032C245.546 38.752 245.058 39.304 244.402 39.688C243.746 40.056 242.938 40.24 241.978 40.24ZM251.806 40L249.526 26.848H253.03L253.678 31.48C253.726 31.864 253.782 32.392 253.846 33.064C253.926 33.72 253.998 34.488 254.062 35.368H254.134C254.278 34.776 254.406 34.24 254.518 33.76C254.63 33.264 254.734 32.824 254.83 32.44C254.942 32.04 255.038 31.696 255.118 31.408L256.414 26.848H258.598L259.894 31.408C259.974 31.696 260.062 32.04 260.158 32.44C260.27 32.824 260.382 33.264 260.494 33.76C260.622 34.24 260.75 34.776 260.878 35.368H260.95C261.03 34.488 261.094 33.72 261.142 33.064C261.206 32.392 261.27 31.864 261.334 31.48L262.006 26.848H265.486L263.23 40H259.702L258.19 34.648C258.03 34.024 257.902 33.456 257.806 32.944C257.726 32.416 257.646 31.88 257.566 31.336H257.47C257.406 31.704 257.342 32.056 257.278 32.392C257.23 32.728 257.166 33.08 257.086 33.448C257.006 33.8 256.902 34.2 256.774 34.648L255.238 40H251.806ZM260.79 25.552C260.662 25.328 260.558 25.04 260.478 24.688C260.382 24.336 260.334 23.984 260.334 23.632C260.334 23.184 260.422 22.776 260.598 22.408C260.758 22.04 261.054 21.752 261.486 21.544C261.902 21.32 262.478 21.208 263.214 21.208H266.694V23.632H264.39C264.086 23.632 263.854 23.688 263.694 23.8C263.518 23.896 263.43 24.08 263.43 24.352C263.43 24.464 263.446 24.584 263.478 24.712C263.51 24.824 263.558 24.944 263.622 25.072L260.79 25.552Z" fill="white"/>
</svg>
