<svg width="174" height="247" viewBox="0 0 174 247" fill="none" xmlns="http://www.w3.org/2000/svg">
<g filter="url(#filter0_d_414_550)">
<rect x="4.5" width="165" height="239" rx="5" fill="#E8E0F2"/>
</g>
<g clip-path="url(#clip0_414_550)">
<path d="M76.2227 119.322L76.2227 119.322C76.5959 118.861 77.1371 118.567 77.7271 118.505L77.7732 118.501L77.8197 118.5C78.478 118.492 79.1047 118.782 79.5259 119.288L79.5275 119.289L82.9713 123.446L82.9757 123.451L82.9757 123.451C83.006 123.488 83.0509 123.51 83.0986 123.511C83.1619 123.509 83.2211 123.479 83.2597 123.428L83.263 123.424L83.263 123.424L90.103 114.589L90.1094 114.581L90.1094 114.581C90.5288 114.051 91.1677 113.741 91.8438 113.741C92.5198 113.741 93.1587 114.051 93.5781 114.581L93.5861 114.591L93.5939 114.601L103.688 128.068L103.691 128.073C103.97 128.449 104.122 128.905 104.125 129.373L104.125 129.38L104.125 130.188C104.125 131.396 103.146 132.375 101.938 132.375H71.0625C69.8544 132.375 68.875 131.396 68.875 130.188V129.381V129.38H69.875L76.2227 119.322ZM76.2227 119.322L76.2144 119.333M76.2227 119.322L76.2144 119.333M76.2144 119.333L69.3608 128.036L76.2144 119.333ZM105.5 101.5C107.571 101.5 109.25 103.179 109.25 105.25V133.75C109.25 135.821 107.571 137.5 105.5 137.5H67.5C65.4289 137.5 63.75 135.821 63.75 133.75V105.25C63.75 103.179 65.4289 101.5 67.5 101.5H105.5ZM85.125 111.188C85.125 108.668 83.0823 106.625 80.5625 106.625C78.0427 106.625 76 108.668 76 111.188C76 113.707 78.0427 115.75 80.5625 115.75C83.0823 115.75 85.125 113.707 85.125 111.188Z" stroke="#6B2DBC" stroke-width="2"/>
</g>
<defs>
<filter id="filter0_d_414_550" x="0.5" y="0" width="173" height="247" filterUnits="userSpaceOnUse" color-interpolation-filters="sRGB">
<feFlood flood-opacity="0" result="BackgroundImageFix"/>
<feColorMatrix in="SourceAlpha" type="matrix" values="0 0 0 0 0 0 0 0 0 0 0 0 0 0 0 0 0 0 127 0" result="hardAlpha"/>
<feOffset dy="4"/>
<feGaussianBlur stdDeviation="2"/>
<feComposite in2="hardAlpha" operator="out"/>
<feColorMatrix type="matrix" values="0 0 0 0 0 0 0 0 0 0 0 0 0 0 0 0 0 0 0.25 0"/>
<feBlend mode="normal" in2="BackgroundImageFix" result="effect1_dropShadow_414_550"/>
<feBlend mode="normal" in="SourceGraphic" in2="effect1_dropShadow_414_550" result="shape"/>
</filter>
<clipPath id="clip0_414_550">
<rect width="57" height="57" fill="white" transform="translate(58 91)"/>
</clipPath>
</defs>
</svg>
