<svg width="420" height="98" viewBox="0 0 420 98" fill="none" xmlns="http://www.w3.org/2000/svg">
<g filter="url(#filter0_d_86_1283)">
<rect x="20" y="16" width="380" height="58" rx="29" fill="#FBFBFB"/>
<path d="M67.75 50.75L74 57" stroke="#252525" stroke-width="3.5" stroke-linecap="round" stroke-linejoin="round"/>
<path d="M49 42.7143C49 48.6316 53.7969 53.4286 59.7143 53.4286C62.678 53.4286 65.3609 52.2252 67.3005 50.2804C69.2336 48.3423 70.4286 45.6679 70.4286 42.7143C70.4286 36.7969 65.6316 32 59.7143 32C53.7969 32 49 36.7969 49 42.7143Z" stroke="#252525" stroke-width="3.5" stroke-linecap="round" stroke-linejoin="round"/>
<path d="M107.923 50.234C107.083 50.234 106.375 50.117 105.799 49.883C105.223 49.643 104.782 49.313 104.476 48.893C104.176 48.467 104.02 47.969 104.008 47.399H105.619C105.643 47.897 105.841 48.266 106.213 48.506C106.591 48.746 107.101 48.866 107.743 48.866C108.085 48.866 108.394 48.812 108.67 48.704C108.952 48.596 109.174 48.449 109.336 48.263C109.504 48.077 109.588 47.867 109.588 47.633C109.588 47.339 109.48 47.108 109.264 46.94C109.048 46.766 108.7 46.613 108.22 46.481L106.447 45.878C105.739 45.638 105.196 45.32 104.818 44.924C104.44 44.522 104.251 44.042 104.251 43.484C104.251 42.77 104.569 42.197 105.205 41.765C105.841 41.327 106.684 41.108 107.734 41.108C108.82 41.108 109.657 41.339 110.245 41.801C110.839 42.257 111.148 42.83 111.172 43.52H109.525C109.483 43.178 109.312 42.917 109.012 42.737C108.718 42.551 108.292 42.458 107.734 42.458C107.212 42.458 106.801 42.572 106.501 42.8C106.207 43.028 106.06 43.286 106.06 43.574C106.06 44.09 106.504 44.474 107.392 44.726L109.255 45.383C109.963 45.611 110.509 45.905 110.893 46.265C111.277 46.625 111.469 47.081 111.469 47.633C111.469 48.077 111.322 48.497 111.028 48.893C110.734 49.289 110.32 49.613 109.786 49.865C109.258 50.111 108.637 50.234 107.923 50.234ZM117.695 50.234C116.951 50.234 116.279 50.042 115.679 49.658C115.079 49.274 114.602 48.74 114.248 48.056C113.9 47.372 113.726 46.58 113.726 45.68C113.726 44.726 113.9 43.91 114.248 43.232C114.596 42.548 115.07 42.023 115.67 41.657C116.27 41.291 116.945 41.108 117.695 41.108C118.367 41.108 118.943 41.246 119.423 41.522C119.903 41.792 120.29 42.158 120.584 42.62C120.878 43.076 121.079 43.595 121.187 44.177C121.301 44.759 121.322 45.359 121.25 45.977H115.094V44.987H120.08L119.666 45.257C119.684 44.933 119.666 44.609 119.612 44.285C119.564 43.961 119.468 43.664 119.324 43.394C119.18 43.118 118.976 42.899 118.712 42.737C118.454 42.569 118.124 42.485 117.722 42.485C117.218 42.485 116.795 42.611 116.453 42.863C116.117 43.115 115.862 43.454 115.688 43.88C115.514 44.3 115.427 44.762 115.427 45.266V45.959C115.427 46.517 115.511 47.012 115.679 47.444C115.847 47.876 116.096 48.218 116.426 48.47C116.762 48.716 117.185 48.839 117.695 48.839C118.193 48.839 118.604 48.722 118.928 48.488C119.258 48.254 119.462 47.903 119.54 47.435H121.286C121.196 47.999 120.989 48.491 120.665 48.911C120.341 49.331 119.924 49.658 119.414 49.892C118.91 50.12 118.337 50.234 117.695 50.234ZM129.746 50L129.53 48.011V44.402C129.53 43.694 129.383 43.181 129.089 42.863C128.795 42.539 128.33 42.377 127.694 42.377C127.334 42.377 127.013 42.431 126.731 42.539C126.455 42.641 126.236 42.797 126.074 43.007C125.918 43.217 125.84 43.481 125.84 43.799H123.95C123.95 43.163 124.106 42.647 124.418 42.251C124.73 41.855 125.165 41.567 125.723 41.387C126.287 41.201 126.944 41.108 127.694 41.108C128.396 41.108 129.014 41.225 129.548 41.459C130.082 41.687 130.496 42.047 130.79 42.539C131.09 43.031 131.24 43.667 131.24 44.447V50H129.746ZM126.848 50.234C126.122 50.234 125.519 50.108 125.039 49.856C124.559 49.598 124.199 49.262 123.959 48.848C123.725 48.434 123.608 47.993 123.608 47.525C123.608 46.955 123.752 46.487 124.04 46.121C124.334 45.749 124.739 45.473 125.255 45.293C125.771 45.113 126.365 45.023 127.037 45.023C127.499 45.023 127.949 45.065 128.387 45.149C128.825 45.233 129.257 45.344 129.683 45.482V46.517C129.335 46.391 128.948 46.292 128.522 46.22C128.102 46.142 127.709 46.103 127.343 46.103C126.797 46.103 126.341 46.211 125.975 46.427C125.609 46.643 125.426 47.009 125.426 47.525C125.426 47.903 125.57 48.23 125.858 48.506C126.146 48.776 126.602 48.911 127.226 48.911C127.682 48.911 128.084 48.809 128.432 48.605C128.78 48.395 129.05 48.134 129.242 47.822C129.434 47.51 129.53 47.198 129.53 46.886H129.944C129.944 47.486 129.821 48.041 129.575 48.551C129.335 49.055 128.984 49.463 128.522 49.775C128.06 50.081 127.502 50.234 126.848 50.234ZM134.856 50V41.315H136.566V50H134.856ZM136.098 46.13C136.098 45.02 136.212 44.099 136.44 43.367C136.674 42.629 136.998 42.08 137.412 41.72C137.832 41.36 138.324 41.18 138.888 41.18C139.056 41.18 139.212 41.192 139.356 41.216C139.506 41.24 139.653 41.273 139.797 41.315L139.734 43.016C139.572 42.974 139.395 42.938 139.203 42.908C139.017 42.872 138.846 42.854 138.69 42.854C138.198 42.854 137.796 42.986 137.484 43.25C137.172 43.508 136.941 43.883 136.791 44.375C136.641 44.861 136.566 45.446 136.566 46.13H136.098ZM145.099 50.234C144.391 50.234 143.731 50.045 143.119 49.667C142.507 49.289 142.015 48.758 141.643 48.074C141.271 47.39 141.085 46.586 141.085 45.662C141.085 44.69 141.271 43.868 141.643 43.196C142.015 42.518 142.507 42.002 143.119 41.648C143.731 41.288 144.391 41.108 145.099 41.108C145.621 41.108 146.086 41.192 146.494 41.36C146.902 41.522 147.253 41.744 147.547 42.026C147.841 42.302 148.078 42.614 148.258 42.962C148.444 43.31 148.573 43.67 148.645 44.042L146.908 44.132C146.782 43.682 146.56 43.322 146.242 43.052C145.93 42.776 145.543 42.638 145.081 42.638C144.691 42.638 144.322 42.749 143.974 42.971C143.632 43.187 143.353 43.52 143.137 43.97C142.927 44.414 142.822 44.978 142.822 45.662C142.822 46.298 142.921 46.841 143.119 47.291C143.317 47.741 143.587 48.086 143.929 48.326C144.271 48.566 144.655 48.686 145.081 48.686C145.693 48.686 146.149 48.539 146.449 48.245C146.755 47.945 146.908 47.534 146.908 47.012H148.645C148.645 47.618 148.504 48.164 148.222 48.65C147.94 49.136 147.532 49.523 146.998 49.811C146.47 50.093 145.837 50.234 145.099 50.234ZM157.762 50V44.924C157.762 44.174 157.582 43.607 157.222 43.223C156.868 42.833 156.388 42.638 155.782 42.638C155.302 42.638 154.882 42.77 154.522 43.034C154.168 43.292 153.892 43.673 153.694 44.177C153.502 44.675 153.406 45.284 153.406 46.004H152.794C152.794 44.942 152.929 44.048 153.199 43.322C153.475 42.596 153.868 42.047 154.378 41.675C154.888 41.297 155.5 41.108 156.214 41.108C156.91 41.108 157.498 41.264 157.978 41.576C158.464 41.888 158.833 42.332 159.085 42.908C159.337 43.478 159.463 44.15 159.463 44.924V50H157.762ZM151.696 50V37.697H153.406V50H151.696ZM161.817 48.992C161.817 48.656 161.931 48.371 162.159 48.137C162.393 47.903 162.687 47.786 163.041 47.786C163.395 47.786 163.695 47.903 163.941 48.137C164.187 48.371 164.31 48.656 164.31 48.992C164.31 49.322 164.187 49.601 163.941 49.829C163.695 50.051 163.395 50.162 163.041 50.162C162.687 50.162 162.393 50.048 162.159 49.82C161.931 49.592 161.817 49.316 161.817 48.992ZM165.675 48.992C165.675 48.656 165.789 48.371 166.017 48.137C166.251 47.903 166.545 47.786 166.899 47.786C167.253 47.786 167.553 47.903 167.799 48.137C168.045 48.371 168.168 48.656 168.168 48.992C168.168 49.322 168.045 49.601 167.799 49.829C167.553 50.051 167.253 50.162 166.899 50.162C166.545 50.162 166.251 50.048 166.017 49.82C165.789 49.592 165.675 49.316 165.675 48.992ZM169.533 48.992C169.533 48.656 169.647 48.371 169.875 48.137C170.109 47.903 170.403 47.786 170.757 47.786C171.111 47.786 171.411 47.903 171.657 48.137C171.903 48.371 172.026 48.656 172.026 48.992C172.026 49.322 171.903 49.601 171.657 49.829C171.411 50.051 171.111 50.162 170.757 50.162C170.403 50.162 170.109 50.048 169.875 49.82C169.647 49.592 169.533 49.316 169.533 48.992Z" fill="#B4B4B4"/>
</g>
<defs>
<filter id="filter0_d_86_1283" x="0" y="0" width="420" height="98" filterUnits="userSpaceOnUse" color-interpolation-filters="sRGB">
<feFlood flood-opacity="0" result="BackgroundImageFix"/>
<feColorMatrix in="SourceAlpha" type="matrix" values="0 0 0 0 0 0 0 0 0 0 0 0 0 0 0 0 0 0 127 0" result="hardAlpha"/>
<feOffset dy="4"/>
<feGaussianBlur stdDeviation="10"/>
<feComposite in2="hardAlpha" operator="out"/>
<feColorMatrix type="matrix" values="0 0 0 0 0 0 0 0 0 0 0 0 0 0 0 0 0 0 0.15 0"/>
<feBlend mode="normal" in2="BackgroundImageFix" result="effect1_dropShadow_86_1283"/>
<feBlend mode="normal" in="SourceGraphic" in2="effect1_dropShadow_86_1283" result="shape"/>
</filter>
</defs>
</svg>
