<svg width="380" height="46" viewBox="0 0 380 46" fill="none" xmlns="http://www.w3.org/2000/svg">
<rect width="380" height="46" fill="#EBEBEB"/>
<path d="M69.923 30.234C69.083 30.234 68.375 30.117 67.799 29.883C67.223 29.643 66.782 29.313 66.476 28.893C66.176 28.467 66.02 27.969 66.008 27.399H67.619C67.643 27.897 67.841 28.266 68.213 28.506C68.591 28.746 69.101 28.866 69.743 28.866C70.085 28.866 70.394 28.812 70.67 28.704C70.952 28.596 71.174 28.449 71.336 28.263C71.504 28.077 71.588 27.867 71.588 27.633C71.588 27.339 71.48 27.108 71.264 26.94C71.048 26.766 70.7 26.613 70.22 26.481L68.447 25.878C67.739 25.638 67.196 25.32 66.818 24.924C66.44 24.522 66.251 24.042 66.251 23.484C66.251 22.77 66.569 22.197 67.205 21.765C67.841 21.327 68.684 21.108 69.734 21.108C70.82 21.108 71.657 21.339 72.245 21.801C72.839 22.257 73.148 22.83 73.172 23.52H71.525C71.483 23.178 71.312 22.917 71.012 22.737C70.718 22.551 70.292 22.458 69.734 22.458C69.212 22.458 68.801 22.572 68.501 22.8C68.207 23.028 68.06 23.286 68.06 23.574C68.06 24.09 68.504 24.474 69.392 24.726L71.255 25.383C71.963 25.611 72.509 25.905 72.893 26.265C73.277 26.625 73.469 27.081 73.469 27.633C73.469 28.077 73.322 28.497 73.028 28.893C72.734 29.289 72.32 29.613 71.786 29.865C71.258 30.111 70.637 30.234 69.923 30.234ZM79.6946 30.234C78.9506 30.234 78.2786 30.042 77.6786 29.658C77.0786 29.274 76.6016 28.74 76.2476 28.056C75.8996 27.372 75.7256 26.58 75.7256 25.68C75.7256 24.726 75.8996 23.91 76.2476 23.232C76.5956 22.548 77.0696 22.023 77.6696 21.657C78.2696 21.291 78.9446 21.108 79.6946 21.108C80.3666 21.108 80.9426 21.246 81.4226 21.522C81.9026 21.792 82.2896 22.158 82.5836 22.62C82.8776 23.076 83.0786 23.595 83.1866 24.177C83.3006 24.759 83.3216 25.359 83.2496 25.977H77.0936V24.987H82.0796L81.6656 25.257C81.6836 24.933 81.6656 24.609 81.6116 24.285C81.5636 23.961 81.4676 23.664 81.3236 23.394C81.1796 23.118 80.9756 22.899 80.7116 22.737C80.4536 22.569 80.1236 22.485 79.7216 22.485C79.2176 22.485 78.7946 22.611 78.4526 22.863C78.1166 23.115 77.8616 23.454 77.6876 23.88C77.5136 24.3 77.4266 24.762 77.4266 25.266V25.959C77.4266 26.517 77.5106 27.012 77.6786 27.444C77.8466 27.876 78.0956 28.218 78.4256 28.47C78.7616 28.716 79.1846 28.839 79.6946 28.839C80.1926 28.839 80.6036 28.722 80.9276 28.488C81.2576 28.254 81.4616 27.903 81.5396 27.435H83.2856C83.1956 27.999 82.9886 28.491 82.6646 28.911C82.3406 29.331 81.9236 29.658 81.4136 29.892C80.9096 30.12 80.3366 30.234 79.6946 30.234ZM91.7457 30L91.5297 28.011V24.402C91.5297 23.694 91.3827 23.181 91.0887 22.863C90.7947 22.539 90.3297 22.377 89.6937 22.377C89.3337 22.377 89.0127 22.431 88.7307 22.539C88.4547 22.641 88.2357 22.797 88.0737 23.007C87.9177 23.217 87.8397 23.481 87.8397 23.799H85.9497C85.9497 23.163 86.1057 22.647 86.4177 22.251C86.7297 21.855 87.1647 21.567 87.7227 21.387C88.2867 21.201 88.9437 21.108 89.6937 21.108C90.3957 21.108 91.0137 21.225 91.5477 21.459C92.0817 21.687 92.4957 22.047 92.7897 22.539C93.0897 23.031 93.2397 23.667 93.2397 24.447V30H91.7457ZM88.8477 30.234C88.1217 30.234 87.5187 30.108 87.0387 29.856C86.5587 29.598 86.1987 29.262 85.9587 28.848C85.7247 28.434 85.6077 27.993 85.6077 27.525C85.6077 26.955 85.7517 26.487 86.0397 26.121C86.3337 25.749 86.7387 25.473 87.2547 25.293C87.7707 25.113 88.3647 25.023 89.0367 25.023C89.4987 25.023 89.9487 25.065 90.3867 25.149C90.8247 25.233 91.2567 25.344 91.6827 25.482V26.517C91.3347 26.391 90.9477 26.292 90.5217 26.22C90.1017 26.142 89.7087 26.103 89.3427 26.103C88.7967 26.103 88.3407 26.211 87.9747 26.427C87.6087 26.643 87.4257 27.009 87.4257 27.525C87.4257 27.903 87.5697 28.23 87.8577 28.506C88.1457 28.776 88.6017 28.911 89.2257 28.911C89.6817 28.911 90.0837 28.809 90.4317 28.605C90.7797 28.395 91.0497 28.134 91.2417 27.822C91.4337 27.51 91.5297 27.198 91.5297 26.886H91.9437C91.9437 27.486 91.8207 28.041 91.5747 28.551C91.3347 29.055 90.9837 29.463 90.5217 29.775C90.0597 30.081 89.5017 30.234 88.8477 30.234ZM96.8565 30V21.315H98.5665V30H96.8565ZM98.0985 26.13C98.0985 25.02 98.2125 24.099 98.4405 23.367C98.6745 22.629 98.9985 22.08 99.4125 21.72C99.8325 21.36 100.324 21.18 100.888 21.18C101.056 21.18 101.212 21.192 101.356 21.216C101.506 21.24 101.653 21.273 101.797 21.315L101.734 23.016C101.572 22.974 101.395 22.938 101.203 22.908C101.017 22.872 100.846 22.854 100.69 22.854C100.198 22.854 99.7965 22.986 99.4845 23.25C99.1725 23.508 98.9415 23.883 98.7915 24.375C98.6415 24.861 98.5665 25.446 98.5665 26.13H98.0985ZM107.099 30.234C106.391 30.234 105.731 30.045 105.119 29.667C104.507 29.289 104.015 28.758 103.643 28.074C103.271 27.39 103.085 26.586 103.085 25.662C103.085 24.69 103.271 23.868 103.643 23.196C104.015 22.518 104.507 22.002 105.119 21.648C105.731 21.288 106.391 21.108 107.099 21.108C107.621 21.108 108.086 21.192 108.494 21.36C108.902 21.522 109.253 21.744 109.547 22.026C109.841 22.302 110.078 22.614 110.258 22.962C110.444 23.31 110.573 23.67 110.645 24.042L108.908 24.132C108.782 23.682 108.56 23.322 108.242 23.052C107.93 22.776 107.543 22.638 107.081 22.638C106.691 22.638 106.322 22.749 105.974 22.971C105.632 23.187 105.353 23.52 105.137 23.97C104.927 24.414 104.822 24.978 104.822 25.662C104.822 26.298 104.921 26.841 105.119 27.291C105.317 27.741 105.587 28.086 105.929 28.326C106.271 28.566 106.655 28.686 107.081 28.686C107.693 28.686 108.149 28.539 108.449 28.245C108.755 27.945 108.908 27.534 108.908 27.012H110.645C110.645 27.618 110.504 28.164 110.222 28.65C109.94 29.136 109.532 29.523 108.998 29.811C108.47 30.093 107.837 30.234 107.099 30.234ZM119.762 30V24.924C119.762 24.174 119.582 23.607 119.222 23.223C118.868 22.833 118.388 22.638 117.782 22.638C117.302 22.638 116.882 22.77 116.522 23.034C116.168 23.292 115.892 23.673 115.694 24.177C115.502 24.675 115.406 25.284 115.406 26.004H114.794C114.794 24.942 114.929 24.048 115.199 23.322C115.475 22.596 115.868 22.047 116.378 21.675C116.888 21.297 117.5 21.108 118.214 21.108C118.91 21.108 119.498 21.264 119.978 21.576C120.464 21.888 120.833 22.332 121.085 22.908C121.337 23.478 121.463 24.15 121.463 24.924V30H119.762ZM113.696 30V17.697H115.406V30H113.696ZM129.832 30V21.315H131.542V30H129.832ZM131.074 26.13C131.074 25.02 131.188 24.099 131.416 23.367C131.65 22.629 131.974 22.08 132.388 21.72C132.808 21.36 133.3 21.18 133.864 21.18C134.032 21.18 134.188 21.192 134.332 21.216C134.482 21.24 134.629 21.273 134.773 21.315L134.71 23.016C134.548 22.974 134.371 22.938 134.179 22.908C133.993 22.872 133.822 22.854 133.666 22.854C133.174 22.854 132.772 22.986 132.46 23.25C132.148 23.508 131.917 23.883 131.767 24.375C131.617 24.861 131.542 25.446 131.542 26.13H131.074ZM140.029 30.234C139.285 30.234 138.613 30.042 138.013 29.658C137.413 29.274 136.936 28.74 136.582 28.056C136.234 27.372 136.06 26.58 136.06 25.68C136.06 24.726 136.234 23.91 136.582 23.232C136.93 22.548 137.404 22.023 138.004 21.657C138.604 21.291 139.279 21.108 140.029 21.108C140.701 21.108 141.277 21.246 141.757 21.522C142.237 21.792 142.624 22.158 142.918 22.62C143.212 23.076 143.413 23.595 143.521 24.177C143.635 24.759 143.656 25.359 143.584 25.977H137.428V24.987H142.414L142 25.257C142.018 24.933 142 24.609 141.946 24.285C141.898 23.961 141.802 23.664 141.658 23.394C141.514 23.118 141.31 22.899 141.046 22.737C140.788 22.569 140.458 22.485 140.056 22.485C139.552 22.485 139.129 22.611 138.787 22.863C138.451 23.115 138.196 23.454 138.022 23.88C137.848 24.3 137.761 24.762 137.761 25.266V25.959C137.761 26.517 137.845 27.012 138.013 27.444C138.181 27.876 138.43 28.218 138.76 28.47C139.096 28.716 139.519 28.839 140.029 28.839C140.527 28.839 140.938 28.722 141.262 28.488C141.592 28.254 141.796 27.903 141.874 27.435H143.62C143.53 27.999 143.323 28.491 142.999 28.911C142.675 29.331 142.258 29.658 141.748 29.892C141.244 30.12 140.671 30.234 140.029 30.234ZM149.821 30.234C148.981 30.234 148.273 30.117 147.697 29.883C147.121 29.643 146.68 29.313 146.374 28.893C146.074 28.467 145.918 27.969 145.906 27.399H147.517C147.541 27.897 147.739 28.266 148.111 28.506C148.489 28.746 148.999 28.866 149.641 28.866C149.983 28.866 150.292 28.812 150.568 28.704C150.85 28.596 151.072 28.449 151.234 28.263C151.402 28.077 151.486 27.867 151.486 27.633C151.486 27.339 151.378 27.108 151.162 26.94C150.946 26.766 150.598 26.613 150.118 26.481L148.345 25.878C147.637 25.638 147.094 25.32 146.716 24.924C146.338 24.522 146.149 24.042 146.149 23.484C146.149 22.77 146.467 22.197 147.103 21.765C147.739 21.327 148.582 21.108 149.632 21.108C150.718 21.108 151.555 21.339 152.143 21.801C152.737 22.257 153.046 22.83 153.07 23.52H151.423C151.381 23.178 151.21 22.917 150.91 22.737C150.616 22.551 150.19 22.458 149.632 22.458C149.11 22.458 148.699 22.572 148.399 22.8C148.105 23.028 147.958 23.286 147.958 23.574C147.958 24.09 148.402 24.474 149.29 24.726L151.153 25.383C151.861 25.611 152.407 25.905 152.791 26.265C153.175 26.625 153.367 27.081 153.367 27.633C153.367 28.077 153.22 28.497 152.926 28.893C152.632 29.289 152.218 29.613 151.684 29.865C151.156 30.111 150.535 30.234 149.821 30.234ZM162.32 21.315H164.039V30H162.32V21.315ZM156.272 21.315H157.982V26.679C157.982 27.333 158.141 27.828 158.459 28.164C158.783 28.5 159.236 28.668 159.818 28.668C160.31 28.668 160.742 28.539 161.114 28.281C161.492 28.023 161.786 27.657 161.996 27.183C162.212 26.709 162.32 26.148 162.32 25.5H162.869C162.869 26.514 162.731 27.366 162.455 28.056C162.179 28.746 161.792 29.271 161.294 29.631C160.796 29.985 160.214 30.162 159.548 30.162C158.912 30.162 158.345 30.045 157.847 29.811C157.355 29.577 156.968 29.217 156.686 28.731C156.41 28.239 156.272 27.606 156.272 26.832V21.315ZM167.904 30V17.697H169.614V30H167.904ZM176.266 30.234C175.774 30.234 175.33 30.141 174.934 29.955C174.538 29.769 174.223 29.49 173.989 29.118C173.761 28.74 173.647 28.266 173.647 27.696V18.984H175.348V27.642C175.348 28.458 175.729 28.866 176.491 28.866C176.725 28.866 176.953 28.842 177.175 28.794C177.397 28.74 177.649 28.662 177.931 28.56L178.174 29.775C177.856 29.907 177.541 30.015 177.229 30.099C176.923 30.189 176.602 30.234 176.266 30.234ZM172.324 22.503V21.342H177.913V22.503H172.324ZM186.804 18.489H188.136V30H186.426V20.514C186.126 20.688 185.82 20.823 185.508 20.919C185.196 21.009 184.884 21.06 184.572 21.072V19.416C184.962 19.368 185.34 19.272 185.706 19.128C186.078 18.978 186.444 18.765 186.804 18.489Z" fill="#252525"/>
</svg>
