<svg width="420" height="225" viewBox="0 0 420 225" fill="none" xmlns="http://www.w3.org/2000/svg">
<g filter="url(#filter0_d_414_381)">
<rect x="20" y="16" width="380" height="185" rx="30" fill="#FBFBFB"/>
<path d="M67.75 50.75L74 57" stroke="#252525" stroke-width="3.5" stroke-linecap="round" stroke-linejoin="round"/>
<path d="M49 42.7143C49 48.6316 53.7969 53.4286 59.7143 53.4286C62.678 53.4286 65.3609 52.2252 67.3005 50.2804C69.2336 48.3423 70.4286 45.6679 70.4286 42.7143C70.4286 36.7969 65.6316 32 59.7143 32C53.7969 32 49 36.7969 49 42.7143Z" stroke="#252525" stroke-width="3.5" stroke-linecap="round" stroke-linejoin="round"/>
<path d="M107.923 50.234C107.083 50.234 106.375 50.117 105.799 49.883C105.223 49.643 104.782 49.313 104.476 48.893C104.176 48.467 104.02 47.969 104.008 47.399H105.619C105.643 47.897 105.841 48.266 106.213 48.506C106.591 48.746 107.101 48.866 107.743 48.866C108.085 48.866 108.394 48.812 108.67 48.704C108.952 48.596 109.174 48.449 109.336 48.263C109.504 48.077 109.588 47.867 109.588 47.633C109.588 47.339 109.48 47.108 109.264 46.94C109.048 46.766 108.7 46.613 108.22 46.481L106.447 45.878C105.739 45.638 105.196 45.32 104.818 44.924C104.44 44.522 104.251 44.042 104.251 43.484C104.251 42.77 104.569 42.197 105.205 41.765C105.841 41.327 106.684 41.108 107.734 41.108C108.82 41.108 109.657 41.339 110.245 41.801C110.839 42.257 111.148 42.83 111.172 43.52H109.525C109.483 43.178 109.312 42.917 109.012 42.737C108.718 42.551 108.292 42.458 107.734 42.458C107.212 42.458 106.801 42.572 106.501 42.8C106.207 43.028 106.06 43.286 106.06 43.574C106.06 44.09 106.504 44.474 107.392 44.726L109.255 45.383C109.963 45.611 110.509 45.905 110.893 46.265C111.277 46.625 111.469 47.081 111.469 47.633C111.469 48.077 111.322 48.497 111.028 48.893C110.734 49.289 110.32 49.613 109.786 49.865C109.258 50.111 108.637 50.234 107.923 50.234ZM117.695 50.234C116.951 50.234 116.279 50.042 115.679 49.658C115.079 49.274 114.602 48.74 114.248 48.056C113.9 47.372 113.726 46.58 113.726 45.68C113.726 44.726 113.9 43.91 114.248 43.232C114.596 42.548 115.07 42.023 115.67 41.657C116.27 41.291 116.945 41.108 117.695 41.108C118.367 41.108 118.943 41.246 119.423 41.522C119.903 41.792 120.29 42.158 120.584 42.62C120.878 43.076 121.079 43.595 121.187 44.177C121.301 44.759 121.322 45.359 121.25 45.977H115.094V44.987H120.08L119.666 45.257C119.684 44.933 119.666 44.609 119.612 44.285C119.564 43.961 119.468 43.664 119.324 43.394C119.18 43.118 118.976 42.899 118.712 42.737C118.454 42.569 118.124 42.485 117.722 42.485C117.218 42.485 116.795 42.611 116.453 42.863C116.117 43.115 115.862 43.454 115.688 43.88C115.514 44.3 115.427 44.762 115.427 45.266V45.959C115.427 46.517 115.511 47.012 115.679 47.444C115.847 47.876 116.096 48.218 116.426 48.47C116.762 48.716 117.185 48.839 117.695 48.839C118.193 48.839 118.604 48.722 118.928 48.488C119.258 48.254 119.462 47.903 119.54 47.435H121.286C121.196 47.999 120.989 48.491 120.665 48.911C120.341 49.331 119.924 49.658 119.414 49.892C118.91 50.12 118.337 50.234 117.695 50.234ZM129.746 50L129.53 48.011V44.402C129.53 43.694 129.383 43.181 129.089 42.863C128.795 42.539 128.33 42.377 127.694 42.377C127.334 42.377 127.013 42.431 126.731 42.539C126.455 42.641 126.236 42.797 126.074 43.007C125.918 43.217 125.84 43.481 125.84 43.799H123.95C123.95 43.163 124.106 42.647 124.418 42.251C124.73 41.855 125.165 41.567 125.723 41.387C126.287 41.201 126.944 41.108 127.694 41.108C128.396 41.108 129.014 41.225 129.548 41.459C130.082 41.687 130.496 42.047 130.79 42.539C131.09 43.031 131.24 43.667 131.24 44.447V50H129.746ZM126.848 50.234C126.122 50.234 125.519 50.108 125.039 49.856C124.559 49.598 124.199 49.262 123.959 48.848C123.725 48.434 123.608 47.993 123.608 47.525C123.608 46.955 123.752 46.487 124.04 46.121C124.334 45.749 124.739 45.473 125.255 45.293C125.771 45.113 126.365 45.023 127.037 45.023C127.499 45.023 127.949 45.065 128.387 45.149C128.825 45.233 129.257 45.344 129.683 45.482V46.517C129.335 46.391 128.948 46.292 128.522 46.22C128.102 46.142 127.709 46.103 127.343 46.103C126.797 46.103 126.341 46.211 125.975 46.427C125.609 46.643 125.426 47.009 125.426 47.525C125.426 47.903 125.57 48.23 125.858 48.506C126.146 48.776 126.602 48.911 127.226 48.911C127.682 48.911 128.084 48.809 128.432 48.605C128.78 48.395 129.05 48.134 129.242 47.822C129.434 47.51 129.53 47.198 129.53 46.886H129.944C129.944 47.486 129.821 48.041 129.575 48.551C129.335 49.055 128.984 49.463 128.522 49.775C128.06 50.081 127.502 50.234 126.848 50.234ZM134.856 50V41.315H136.566V50H134.856ZM136.098 46.13C136.098 45.02 136.212 44.099 136.44 43.367C136.674 42.629 136.998 42.08 137.412 41.72C137.832 41.36 138.324 41.18 138.888 41.18C139.056 41.18 139.212 41.192 139.356 41.216C139.506 41.24 139.653 41.273 139.797 41.315L139.734 43.016C139.572 42.974 139.395 42.938 139.203 42.908C139.017 42.872 138.846 42.854 138.69 42.854C138.198 42.854 137.796 42.986 137.484 43.25C137.172 43.508 136.941 43.883 136.791 44.375C136.641 44.861 136.566 45.446 136.566 46.13H136.098ZM145.099 50.234C144.391 50.234 143.731 50.045 143.119 49.667C142.507 49.289 142.015 48.758 141.643 48.074C141.271 47.39 141.085 46.586 141.085 45.662C141.085 44.69 141.271 43.868 141.643 43.196C142.015 42.518 142.507 42.002 143.119 41.648C143.731 41.288 144.391 41.108 145.099 41.108C145.621 41.108 146.086 41.192 146.494 41.36C146.902 41.522 147.253 41.744 147.547 42.026C147.841 42.302 148.078 42.614 148.258 42.962C148.444 43.31 148.573 43.67 148.645 44.042L146.908 44.132C146.782 43.682 146.56 43.322 146.242 43.052C145.93 42.776 145.543 42.638 145.081 42.638C144.691 42.638 144.322 42.749 143.974 42.971C143.632 43.187 143.353 43.52 143.137 43.97C142.927 44.414 142.822 44.978 142.822 45.662C142.822 46.298 142.921 46.841 143.119 47.291C143.317 47.741 143.587 48.086 143.929 48.326C144.271 48.566 144.655 48.686 145.081 48.686C145.693 48.686 146.149 48.539 146.449 48.245C146.755 47.945 146.908 47.534 146.908 47.012H148.645C148.645 47.618 148.504 48.164 148.222 48.65C147.94 49.136 147.532 49.523 146.998 49.811C146.47 50.093 145.837 50.234 145.099 50.234ZM157.762 50V44.924C157.762 44.174 157.582 43.607 157.222 43.223C156.868 42.833 156.388 42.638 155.782 42.638C155.302 42.638 154.882 42.77 154.522 43.034C154.168 43.292 153.892 43.673 153.694 44.177C153.502 44.675 153.406 45.284 153.406 46.004H152.794C152.794 44.942 152.929 44.048 153.199 43.322C153.475 42.596 153.868 42.047 154.378 41.675C154.888 41.297 155.5 41.108 156.214 41.108C156.91 41.108 157.498 41.264 157.978 41.576C158.464 41.888 158.833 42.332 159.085 42.908C159.337 43.478 159.463 44.15 159.463 44.924V50H157.762ZM151.696 50V37.697H153.406V50H151.696ZM167.832 50V41.315H169.542V50H167.832ZM169.074 46.13C169.074 45.02 169.188 44.099 169.416 43.367C169.65 42.629 169.974 42.08 170.388 41.72C170.808 41.36 171.3 41.18 171.864 41.18C172.032 41.18 172.188 41.192 172.332 41.216C172.482 41.24 172.629 41.273 172.773 41.315L172.71 43.016C172.548 42.974 172.371 42.938 172.179 42.908C171.993 42.872 171.822 42.854 171.666 42.854C171.174 42.854 170.772 42.986 170.46 43.25C170.148 43.508 169.917 43.883 169.767 44.375C169.617 44.861 169.542 45.446 169.542 46.13H169.074ZM178.029 50.234C177.285 50.234 176.613 50.042 176.013 49.658C175.413 49.274 174.936 48.74 174.582 48.056C174.234 47.372 174.06 46.58 174.06 45.68C174.06 44.726 174.234 43.91 174.582 43.232C174.93 42.548 175.404 42.023 176.004 41.657C176.604 41.291 177.279 41.108 178.029 41.108C178.701 41.108 179.277 41.246 179.757 41.522C180.237 41.792 180.624 42.158 180.918 42.62C181.212 43.076 181.413 43.595 181.521 44.177C181.635 44.759 181.656 45.359 181.584 45.977H175.428V44.987H180.414L180 45.257C180.018 44.933 180 44.609 179.946 44.285C179.898 43.961 179.802 43.664 179.658 43.394C179.514 43.118 179.31 42.899 179.046 42.737C178.788 42.569 178.458 42.485 178.056 42.485C177.552 42.485 177.129 42.611 176.787 42.863C176.451 43.115 176.196 43.454 176.022 43.88C175.848 44.3 175.761 44.762 175.761 45.266V45.959C175.761 46.517 175.845 47.012 176.013 47.444C176.181 47.876 176.43 48.218 176.76 48.47C177.096 48.716 177.519 48.839 178.029 48.839C178.527 48.839 178.938 48.722 179.262 48.488C179.592 48.254 179.796 47.903 179.874 47.435H181.62C181.53 47.999 181.323 48.491 180.999 48.911C180.675 49.331 180.258 49.658 179.748 49.892C179.244 50.12 178.671 50.234 178.029 50.234ZM187.821 50.234C186.981 50.234 186.273 50.117 185.697 49.883C185.121 49.643 184.68 49.313 184.374 48.893C184.074 48.467 183.918 47.969 183.906 47.399H185.517C185.541 47.897 185.739 48.266 186.111 48.506C186.489 48.746 186.999 48.866 187.641 48.866C187.983 48.866 188.292 48.812 188.568 48.704C188.85 48.596 189.072 48.449 189.234 48.263C189.402 48.077 189.486 47.867 189.486 47.633C189.486 47.339 189.378 47.108 189.162 46.94C188.946 46.766 188.598 46.613 188.118 46.481L186.345 45.878C185.637 45.638 185.094 45.32 184.716 44.924C184.338 44.522 184.149 44.042 184.149 43.484C184.149 42.77 184.467 42.197 185.103 41.765C185.739 41.327 186.582 41.108 187.632 41.108C188.718 41.108 189.555 41.339 190.143 41.801C190.737 42.257 191.046 42.83 191.07 43.52H189.423C189.381 43.178 189.21 42.917 188.91 42.737C188.616 42.551 188.19 42.458 187.632 42.458C187.11 42.458 186.699 42.572 186.399 42.8C186.105 43.028 185.958 43.286 185.958 43.574C185.958 44.09 186.402 44.474 187.29 44.726L189.153 45.383C189.861 45.611 190.407 45.905 190.791 46.265C191.175 46.625 191.367 47.081 191.367 47.633C191.367 48.077 191.22 48.497 190.926 48.893C190.632 49.289 190.218 49.613 189.684 49.865C189.156 50.111 188.535 50.234 187.821 50.234ZM200.32 41.315H202.039V50H200.32V41.315ZM194.272 41.315H195.982V46.679C195.982 47.333 196.141 47.828 196.459 48.164C196.783 48.5 197.236 48.668 197.818 48.668C198.31 48.668 198.742 48.539 199.114 48.281C199.492 48.023 199.786 47.657 199.996 47.183C200.212 46.709 200.32 46.148 200.32 45.5H200.869C200.869 46.514 200.731 47.366 200.455 48.056C200.179 48.746 199.792 49.271 199.294 49.631C198.796 49.985 198.214 50.162 197.548 50.162C196.912 50.162 196.345 50.045 195.847 49.811C195.355 49.577 194.968 49.217 194.686 48.731C194.41 48.239 194.272 47.606 194.272 46.832V41.315Z" fill="#252525"/>
<line x1="205.12" y1="34.3101" x2="205.12" y2="55.3101" stroke="#252525"/>
<line opacity="0.2" x1="85" y1="69.5" x2="335" y2="69.5" stroke="#252525"/>
<rect x="20" y="70" width="380" height="46" fill="#EBEBEB"/>
<path d="M89.923 100.234C89.083 100.234 88.375 100.117 87.799 99.883C87.223 99.643 86.782 99.313 86.476 98.893C86.176 98.467 86.02 97.969 86.008 97.399H87.619C87.643 97.897 87.841 98.266 88.213 98.506C88.591 98.746 89.101 98.866 89.743 98.866C90.085 98.866 90.394 98.812 90.67 98.704C90.952 98.596 91.174 98.449 91.336 98.263C91.504 98.077 91.588 97.867 91.588 97.633C91.588 97.339 91.48 97.108 91.264 96.94C91.048 96.766 90.7 96.613 90.22 96.481L88.447 95.878C87.739 95.638 87.196 95.32 86.818 94.924C86.44 94.522 86.251 94.042 86.251 93.484C86.251 92.77 86.569 92.197 87.205 91.765C87.841 91.327 88.684 91.108 89.734 91.108C90.82 91.108 91.657 91.339 92.245 91.801C92.839 92.257 93.148 92.83 93.172 93.52H91.525C91.483 93.178 91.312 92.917 91.012 92.737C90.718 92.551 90.292 92.458 89.734 92.458C89.212 92.458 88.801 92.572 88.501 92.8C88.207 93.028 88.06 93.286 88.06 93.574C88.06 94.09 88.504 94.474 89.392 94.726L91.255 95.383C91.963 95.611 92.509 95.905 92.893 96.265C93.277 96.625 93.469 97.081 93.469 97.633C93.469 98.077 93.322 98.497 93.028 98.893C92.734 99.289 92.32 99.613 91.786 99.865C91.258 100.111 90.637 100.234 89.923 100.234ZM99.6946 100.234C98.9506 100.234 98.2786 100.042 97.6786 99.658C97.0786 99.274 96.6016 98.74 96.2476 98.056C95.8996 97.372 95.7256 96.58 95.7256 95.68C95.7256 94.726 95.8996 93.91 96.2476 93.232C96.5956 92.548 97.0696 92.023 97.6696 91.657C98.2696 91.291 98.9446 91.108 99.6946 91.108C100.367 91.108 100.943 91.246 101.423 91.522C101.903 91.792 102.29 92.158 102.584 92.62C102.878 93.076 103.079 93.595 103.187 94.177C103.301 94.759 103.322 95.359 103.25 95.977H97.0936V94.987H102.08L101.666 95.257C101.684 94.933 101.666 94.609 101.612 94.285C101.564 93.961 101.468 93.664 101.324 93.394C101.18 93.118 100.976 92.899 100.712 92.737C100.454 92.569 100.124 92.485 99.7216 92.485C99.2176 92.485 98.7946 92.611 98.4526 92.863C98.1166 93.115 97.8616 93.454 97.6876 93.88C97.5136 94.3 97.4266 94.762 97.4266 95.266V95.959C97.4266 96.517 97.5106 97.012 97.6786 97.444C97.8466 97.876 98.0956 98.218 98.4256 98.47C98.7616 98.716 99.1846 98.839 99.6946 98.839C100.193 98.839 100.604 98.722 100.928 98.488C101.258 98.254 101.462 97.903 101.54 97.435H103.286C103.196 97.999 102.989 98.491 102.665 98.911C102.341 99.331 101.924 99.658 101.414 99.892C100.91 100.12 100.337 100.234 99.6946 100.234ZM111.746 100L111.53 98.011V94.402C111.53 93.694 111.383 93.181 111.089 92.863C110.795 92.539 110.33 92.377 109.694 92.377C109.334 92.377 109.013 92.431 108.731 92.539C108.455 92.641 108.236 92.797 108.074 93.007C107.918 93.217 107.84 93.481 107.84 93.799H105.95C105.95 93.163 106.106 92.647 106.418 92.251C106.73 91.855 107.165 91.567 107.723 91.387C108.287 91.201 108.944 91.108 109.694 91.108C110.396 91.108 111.014 91.225 111.548 91.459C112.082 91.687 112.496 92.047 112.79 92.539C113.09 93.031 113.24 93.667 113.24 94.447V100H111.746ZM108.848 100.234C108.122 100.234 107.519 100.108 107.039 99.856C106.559 99.598 106.199 99.262 105.959 98.848C105.725 98.434 105.608 97.993 105.608 97.525C105.608 96.955 105.752 96.487 106.04 96.121C106.334 95.749 106.739 95.473 107.255 95.293C107.771 95.113 108.365 95.023 109.037 95.023C109.499 95.023 109.949 95.065 110.387 95.149C110.825 95.233 111.257 95.344 111.683 95.482V96.517C111.335 96.391 110.948 96.292 110.522 96.22C110.102 96.142 109.709 96.103 109.343 96.103C108.797 96.103 108.341 96.211 107.975 96.427C107.609 96.643 107.426 97.009 107.426 97.525C107.426 97.903 107.57 98.23 107.858 98.506C108.146 98.776 108.602 98.911 109.226 98.911C109.682 98.911 110.084 98.809 110.432 98.605C110.78 98.395 111.05 98.134 111.242 97.822C111.434 97.51 111.53 97.198 111.53 96.886H111.944C111.944 97.486 111.821 98.041 111.575 98.551C111.335 99.055 110.984 99.463 110.522 99.775C110.06 100.081 109.502 100.234 108.848 100.234ZM116.856 100V91.315H118.566V100H116.856ZM118.098 96.13C118.098 95.02 118.212 94.099 118.44 93.367C118.674 92.629 118.998 92.08 119.412 91.72C119.832 91.36 120.324 91.18 120.888 91.18C121.056 91.18 121.212 91.192 121.356 91.216C121.506 91.24 121.653 91.273 121.797 91.315L121.734 93.016C121.572 92.974 121.395 92.938 121.203 92.908C121.017 92.872 120.846 92.854 120.69 92.854C120.198 92.854 119.796 92.986 119.484 93.25C119.172 93.508 118.941 93.883 118.791 94.375C118.641 94.861 118.566 95.446 118.566 96.13H118.098ZM127.099 100.234C126.391 100.234 125.731 100.045 125.119 99.667C124.507 99.289 124.015 98.758 123.643 98.074C123.271 97.39 123.085 96.586 123.085 95.662C123.085 94.69 123.271 93.868 123.643 93.196C124.015 92.518 124.507 92.002 125.119 91.648C125.731 91.288 126.391 91.108 127.099 91.108C127.621 91.108 128.086 91.192 128.494 91.36C128.902 91.522 129.253 91.744 129.547 92.026C129.841 92.302 130.078 92.614 130.258 92.962C130.444 93.31 130.573 93.67 130.645 94.042L128.908 94.132C128.782 93.682 128.56 93.322 128.242 93.052C127.93 92.776 127.543 92.638 127.081 92.638C126.691 92.638 126.322 92.749 125.974 92.971C125.632 93.187 125.353 93.52 125.137 93.97C124.927 94.414 124.822 94.978 124.822 95.662C124.822 96.298 124.921 96.841 125.119 97.291C125.317 97.741 125.587 98.086 125.929 98.326C126.271 98.566 126.655 98.686 127.081 98.686C127.693 98.686 128.149 98.539 128.449 98.245C128.755 97.945 128.908 97.534 128.908 97.012H130.645C130.645 97.618 130.504 98.164 130.222 98.65C129.94 99.136 129.532 99.523 128.998 99.811C128.47 100.093 127.837 100.234 127.099 100.234ZM139.762 100V94.924C139.762 94.174 139.582 93.607 139.222 93.223C138.868 92.833 138.388 92.638 137.782 92.638C137.302 92.638 136.882 92.77 136.522 93.034C136.168 93.292 135.892 93.673 135.694 94.177C135.502 94.675 135.406 95.284 135.406 96.004H134.794C134.794 94.942 134.929 94.048 135.199 93.322C135.475 92.596 135.868 92.047 136.378 91.675C136.888 91.297 137.5 91.108 138.214 91.108C138.91 91.108 139.498 91.264 139.978 91.576C140.464 91.888 140.833 92.332 141.085 92.908C141.337 93.478 141.463 94.15 141.463 94.924V100H139.762ZM133.696 100V87.697H135.406V100H133.696ZM149.832 100V91.315H151.542V100H149.832ZM151.074 96.13C151.074 95.02 151.188 94.099 151.416 93.367C151.65 92.629 151.974 92.08 152.388 91.72C152.808 91.36 153.3 91.18 153.864 91.18C154.032 91.18 154.188 91.192 154.332 91.216C154.482 91.24 154.629 91.273 154.773 91.315L154.71 93.016C154.548 92.974 154.371 92.938 154.179 92.908C153.993 92.872 153.822 92.854 153.666 92.854C153.174 92.854 152.772 92.986 152.46 93.25C152.148 93.508 151.917 93.883 151.767 94.375C151.617 94.861 151.542 95.446 151.542 96.13H151.074ZM160.029 100.234C159.285 100.234 158.613 100.042 158.013 99.658C157.413 99.274 156.936 98.74 156.582 98.056C156.234 97.372 156.06 96.58 156.06 95.68C156.06 94.726 156.234 93.91 156.582 93.232C156.93 92.548 157.404 92.023 158.004 91.657C158.604 91.291 159.279 91.108 160.029 91.108C160.701 91.108 161.277 91.246 161.757 91.522C162.237 91.792 162.624 92.158 162.918 92.62C163.212 93.076 163.413 93.595 163.521 94.177C163.635 94.759 163.656 95.359 163.584 95.977H157.428V94.987H162.414L162 95.257C162.018 94.933 162 94.609 161.946 94.285C161.898 93.961 161.802 93.664 161.658 93.394C161.514 93.118 161.31 92.899 161.046 92.737C160.788 92.569 160.458 92.485 160.056 92.485C159.552 92.485 159.129 92.611 158.787 92.863C158.451 93.115 158.196 93.454 158.022 93.88C157.848 94.3 157.761 94.762 157.761 95.266V95.959C157.761 96.517 157.845 97.012 158.013 97.444C158.181 97.876 158.43 98.218 158.76 98.47C159.096 98.716 159.519 98.839 160.029 98.839C160.527 98.839 160.938 98.722 161.262 98.488C161.592 98.254 161.796 97.903 161.874 97.435H163.62C163.53 97.999 163.323 98.491 162.999 98.911C162.675 99.331 162.258 99.658 161.748 99.892C161.244 100.12 160.671 100.234 160.029 100.234ZM169.821 100.234C168.981 100.234 168.273 100.117 167.697 99.883C167.121 99.643 166.68 99.313 166.374 98.893C166.074 98.467 165.918 97.969 165.906 97.399H167.517C167.541 97.897 167.739 98.266 168.111 98.506C168.489 98.746 168.999 98.866 169.641 98.866C169.983 98.866 170.292 98.812 170.568 98.704C170.85 98.596 171.072 98.449 171.234 98.263C171.402 98.077 171.486 97.867 171.486 97.633C171.486 97.339 171.378 97.108 171.162 96.94C170.946 96.766 170.598 96.613 170.118 96.481L168.345 95.878C167.637 95.638 167.094 95.32 166.716 94.924C166.338 94.522 166.149 94.042 166.149 93.484C166.149 92.77 166.467 92.197 167.103 91.765C167.739 91.327 168.582 91.108 169.632 91.108C170.718 91.108 171.555 91.339 172.143 91.801C172.737 92.257 173.046 92.83 173.07 93.52H171.423C171.381 93.178 171.21 92.917 170.91 92.737C170.616 92.551 170.19 92.458 169.632 92.458C169.11 92.458 168.699 92.572 168.399 92.8C168.105 93.028 167.958 93.286 167.958 93.574C167.958 94.09 168.402 94.474 169.29 94.726L171.153 95.383C171.861 95.611 172.407 95.905 172.791 96.265C173.175 96.625 173.367 97.081 173.367 97.633C173.367 98.077 173.22 98.497 172.926 98.893C172.632 99.289 172.218 99.613 171.684 99.865C171.156 100.111 170.535 100.234 169.821 100.234ZM182.32 91.315H184.039V100H182.32V91.315ZM176.272 91.315H177.982V96.679C177.982 97.333 178.141 97.828 178.459 98.164C178.783 98.5 179.236 98.668 179.818 98.668C180.31 98.668 180.742 98.539 181.114 98.281C181.492 98.023 181.786 97.657 181.996 97.183C182.212 96.709 182.32 96.148 182.32 95.5H182.869C182.869 96.514 182.731 97.366 182.455 98.056C182.179 98.746 181.792 99.271 181.294 99.631C180.796 99.985 180.214 100.162 179.548 100.162C178.912 100.162 178.345 100.045 177.847 99.811C177.355 99.577 176.968 99.217 176.686 98.731C176.41 98.239 176.272 97.606 176.272 96.832V91.315ZM187.904 100V87.697H189.614V100H187.904ZM196.266 100.234C195.774 100.234 195.33 100.141 194.934 99.955C194.538 99.769 194.223 99.49 193.989 99.118C193.761 98.74 193.647 98.266 193.647 97.696V88.984H195.348V97.642C195.348 98.458 195.729 98.866 196.491 98.866C196.725 98.866 196.953 98.842 197.175 98.794C197.397 98.74 197.649 98.662 197.931 98.56L198.174 99.775C197.856 99.907 197.541 100.015 197.229 100.099C196.923 100.189 196.602 100.234 196.266 100.234ZM192.324 92.503V91.342H197.913V92.503H192.324ZM206.804 88.489H208.136V100H206.426V90.514C206.126 90.688 205.82 90.823 205.508 90.919C205.196 91.009 204.884 91.06 204.572 91.072V89.416C204.962 89.368 205.34 89.272 205.706 89.128C206.078 88.978 206.444 88.765 206.804 88.489Z" fill="#252525"/>
<path d="M89.923 140.234C89.083 140.234 88.375 140.117 87.799 139.883C87.223 139.643 86.782 139.313 86.476 138.893C86.176 138.467 86.02 137.969 86.008 137.399H87.619C87.643 137.897 87.841 138.266 88.213 138.506C88.591 138.746 89.101 138.866 89.743 138.866C90.085 138.866 90.394 138.812 90.67 138.704C90.952 138.596 91.174 138.449 91.336 138.263C91.504 138.077 91.588 137.867 91.588 137.633C91.588 137.339 91.48 137.108 91.264 136.94C91.048 136.766 90.7 136.613 90.22 136.481L88.447 135.878C87.739 135.638 87.196 135.32 86.818 134.924C86.44 134.522 86.251 134.042 86.251 133.484C86.251 132.77 86.569 132.197 87.205 131.765C87.841 131.327 88.684 131.108 89.734 131.108C90.82 131.108 91.657 131.339 92.245 131.801C92.839 132.257 93.148 132.83 93.172 133.52H91.525C91.483 133.178 91.312 132.917 91.012 132.737C90.718 132.551 90.292 132.458 89.734 132.458C89.212 132.458 88.801 132.572 88.501 132.8C88.207 133.028 88.06 133.286 88.06 133.574C88.06 134.09 88.504 134.474 89.392 134.726L91.255 135.383C91.963 135.611 92.509 135.905 92.893 136.265C93.277 136.625 93.469 137.081 93.469 137.633C93.469 138.077 93.322 138.497 93.028 138.893C92.734 139.289 92.32 139.613 91.786 139.865C91.258 140.111 90.637 140.234 89.923 140.234ZM99.6946 140.234C98.9506 140.234 98.2786 140.042 97.6786 139.658C97.0786 139.274 96.6016 138.74 96.2476 138.056C95.8996 137.372 95.7256 136.58 95.7256 135.68C95.7256 134.726 95.8996 133.91 96.2476 133.232C96.5956 132.548 97.0696 132.023 97.6696 131.657C98.2696 131.291 98.9446 131.108 99.6946 131.108C100.367 131.108 100.943 131.246 101.423 131.522C101.903 131.792 102.29 132.158 102.584 132.62C102.878 133.076 103.079 133.595 103.187 134.177C103.301 134.759 103.322 135.359 103.25 135.977H97.0936V134.987H102.08L101.666 135.257C101.684 134.933 101.666 134.609 101.612 134.285C101.564 133.961 101.468 133.664 101.324 133.394C101.18 133.118 100.976 132.899 100.712 132.737C100.454 132.569 100.124 132.485 99.7216 132.485C99.2176 132.485 98.7946 132.611 98.4526 132.863C98.1166 133.115 97.8616 133.454 97.6876 133.88C97.5136 134.3 97.4266 134.762 97.4266 135.266V135.959C97.4266 136.517 97.5106 137.012 97.6786 137.444C97.8466 137.876 98.0956 138.218 98.4256 138.47C98.7616 138.716 99.1846 138.839 99.6946 138.839C100.193 138.839 100.604 138.722 100.928 138.488C101.258 138.254 101.462 137.903 101.54 137.435H103.286C103.196 137.999 102.989 138.491 102.665 138.911C102.341 139.331 101.924 139.658 101.414 139.892C100.91 140.12 100.337 140.234 99.6946 140.234ZM111.746 140L111.53 138.011V134.402C111.53 133.694 111.383 133.181 111.089 132.863C110.795 132.539 110.33 132.377 109.694 132.377C109.334 132.377 109.013 132.431 108.731 132.539C108.455 132.641 108.236 132.797 108.074 133.007C107.918 133.217 107.84 133.481 107.84 133.799H105.95C105.95 133.163 106.106 132.647 106.418 132.251C106.73 131.855 107.165 131.567 107.723 131.387C108.287 131.201 108.944 131.108 109.694 131.108C110.396 131.108 111.014 131.225 111.548 131.459C112.082 131.687 112.496 132.047 112.79 132.539C113.09 133.031 113.24 133.667 113.24 134.447V140H111.746ZM108.848 140.234C108.122 140.234 107.519 140.108 107.039 139.856C106.559 139.598 106.199 139.262 105.959 138.848C105.725 138.434 105.608 137.993 105.608 137.525C105.608 136.955 105.752 136.487 106.04 136.121C106.334 135.749 106.739 135.473 107.255 135.293C107.771 135.113 108.365 135.023 109.037 135.023C109.499 135.023 109.949 135.065 110.387 135.149C110.825 135.233 111.257 135.344 111.683 135.482V136.517C111.335 136.391 110.948 136.292 110.522 136.22C110.102 136.142 109.709 136.103 109.343 136.103C108.797 136.103 108.341 136.211 107.975 136.427C107.609 136.643 107.426 137.009 107.426 137.525C107.426 137.903 107.57 138.23 107.858 138.506C108.146 138.776 108.602 138.911 109.226 138.911C109.682 138.911 110.084 138.809 110.432 138.605C110.78 138.395 111.05 138.134 111.242 137.822C111.434 137.51 111.53 137.198 111.53 136.886H111.944C111.944 137.486 111.821 138.041 111.575 138.551C111.335 139.055 110.984 139.463 110.522 139.775C110.06 140.081 109.502 140.234 108.848 140.234ZM116.856 140V131.315H118.566V140H116.856ZM118.098 136.13C118.098 135.02 118.212 134.099 118.44 133.367C118.674 132.629 118.998 132.08 119.412 131.72C119.832 131.36 120.324 131.18 120.888 131.18C121.056 131.18 121.212 131.192 121.356 131.216C121.506 131.24 121.653 131.273 121.797 131.315L121.734 133.016C121.572 132.974 121.395 132.938 121.203 132.908C121.017 132.872 120.846 132.854 120.69 132.854C120.198 132.854 119.796 132.986 119.484 133.25C119.172 133.508 118.941 133.883 118.791 134.375C118.641 134.861 118.566 135.446 118.566 136.13H118.098ZM127.099 140.234C126.391 140.234 125.731 140.045 125.119 139.667C124.507 139.289 124.015 138.758 123.643 138.074C123.271 137.39 123.085 136.586 123.085 135.662C123.085 134.69 123.271 133.868 123.643 133.196C124.015 132.518 124.507 132.002 125.119 131.648C125.731 131.288 126.391 131.108 127.099 131.108C127.621 131.108 128.086 131.192 128.494 131.36C128.902 131.522 129.253 131.744 129.547 132.026C129.841 132.302 130.078 132.614 130.258 132.962C130.444 133.31 130.573 133.67 130.645 134.042L128.908 134.132C128.782 133.682 128.56 133.322 128.242 133.052C127.93 132.776 127.543 132.638 127.081 132.638C126.691 132.638 126.322 132.749 125.974 132.971C125.632 133.187 125.353 133.52 125.137 133.97C124.927 134.414 124.822 134.978 124.822 135.662C124.822 136.298 124.921 136.841 125.119 137.291C125.317 137.741 125.587 138.086 125.929 138.326C126.271 138.566 126.655 138.686 127.081 138.686C127.693 138.686 128.149 138.539 128.449 138.245C128.755 137.945 128.908 137.534 128.908 137.012H130.645C130.645 137.618 130.504 138.164 130.222 138.65C129.94 139.136 129.532 139.523 128.998 139.811C128.47 140.093 127.837 140.234 127.099 140.234ZM139.762 140V134.924C139.762 134.174 139.582 133.607 139.222 133.223C138.868 132.833 138.388 132.638 137.782 132.638C137.302 132.638 136.882 132.77 136.522 133.034C136.168 133.292 135.892 133.673 135.694 134.177C135.502 134.675 135.406 135.284 135.406 136.004H134.794C134.794 134.942 134.929 134.048 135.199 133.322C135.475 132.596 135.868 132.047 136.378 131.675C136.888 131.297 137.5 131.108 138.214 131.108C138.91 131.108 139.498 131.264 139.978 131.576C140.464 131.888 140.833 132.332 141.085 132.908C141.337 133.478 141.463 134.15 141.463 134.924V140H139.762ZM133.696 140V127.697H135.406V140H133.696ZM149.832 140V131.315H151.542V140H149.832ZM151.074 136.13C151.074 135.02 151.188 134.099 151.416 133.367C151.65 132.629 151.974 132.08 152.388 131.72C152.808 131.36 153.3 131.18 153.864 131.18C154.032 131.18 154.188 131.192 154.332 131.216C154.482 131.24 154.629 131.273 154.773 131.315L154.71 133.016C154.548 132.974 154.371 132.938 154.179 132.908C153.993 132.872 153.822 132.854 153.666 132.854C153.174 132.854 152.772 132.986 152.46 133.25C152.148 133.508 151.917 133.883 151.767 134.375C151.617 134.861 151.542 135.446 151.542 136.13H151.074ZM160.029 140.234C159.285 140.234 158.613 140.042 158.013 139.658C157.413 139.274 156.936 138.74 156.582 138.056C156.234 137.372 156.06 136.58 156.06 135.68C156.06 134.726 156.234 133.91 156.582 133.232C156.93 132.548 157.404 132.023 158.004 131.657C158.604 131.291 159.279 131.108 160.029 131.108C160.701 131.108 161.277 131.246 161.757 131.522C162.237 131.792 162.624 132.158 162.918 132.62C163.212 133.076 163.413 133.595 163.521 134.177C163.635 134.759 163.656 135.359 163.584 135.977H157.428V134.987H162.414L162 135.257C162.018 134.933 162 134.609 161.946 134.285C161.898 133.961 161.802 133.664 161.658 133.394C161.514 133.118 161.31 132.899 161.046 132.737C160.788 132.569 160.458 132.485 160.056 132.485C159.552 132.485 159.129 132.611 158.787 132.863C158.451 133.115 158.196 133.454 158.022 133.88C157.848 134.3 157.761 134.762 157.761 135.266V135.959C157.761 136.517 157.845 137.012 158.013 137.444C158.181 137.876 158.43 138.218 158.76 138.47C159.096 138.716 159.519 138.839 160.029 138.839C160.527 138.839 160.938 138.722 161.262 138.488C161.592 138.254 161.796 137.903 161.874 137.435H163.62C163.53 137.999 163.323 138.491 162.999 138.911C162.675 139.331 162.258 139.658 161.748 139.892C161.244 140.12 160.671 140.234 160.029 140.234ZM169.821 140.234C168.981 140.234 168.273 140.117 167.697 139.883C167.121 139.643 166.68 139.313 166.374 138.893C166.074 138.467 165.918 137.969 165.906 137.399H167.517C167.541 137.897 167.739 138.266 168.111 138.506C168.489 138.746 168.999 138.866 169.641 138.866C169.983 138.866 170.292 138.812 170.568 138.704C170.85 138.596 171.072 138.449 171.234 138.263C171.402 138.077 171.486 137.867 171.486 137.633C171.486 137.339 171.378 137.108 171.162 136.94C170.946 136.766 170.598 136.613 170.118 136.481L168.345 135.878C167.637 135.638 167.094 135.32 166.716 134.924C166.338 134.522 166.149 134.042 166.149 133.484C166.149 132.77 166.467 132.197 167.103 131.765C167.739 131.327 168.582 131.108 169.632 131.108C170.718 131.108 171.555 131.339 172.143 131.801C172.737 132.257 173.046 132.83 173.07 133.52H171.423C171.381 133.178 171.21 132.917 170.91 132.737C170.616 132.551 170.19 132.458 169.632 132.458C169.11 132.458 168.699 132.572 168.399 132.8C168.105 133.028 167.958 133.286 167.958 133.574C167.958 134.09 168.402 134.474 169.29 134.726L171.153 135.383C171.861 135.611 172.407 135.905 172.791 136.265C173.175 136.625 173.367 137.081 173.367 137.633C173.367 138.077 173.22 138.497 172.926 138.893C172.632 139.289 172.218 139.613 171.684 139.865C171.156 140.111 170.535 140.234 169.821 140.234ZM182.32 131.315H184.039V140H182.32V131.315ZM176.272 131.315H177.982V136.679C177.982 137.333 178.141 137.828 178.459 138.164C178.783 138.5 179.236 138.668 179.818 138.668C180.31 138.668 180.742 138.539 181.114 138.281C181.492 138.023 181.786 137.657 181.996 137.183C182.212 136.709 182.32 136.148 182.32 135.5H182.869C182.869 136.514 182.731 137.366 182.455 138.056C182.179 138.746 181.792 139.271 181.294 139.631C180.796 139.985 180.214 140.162 179.548 140.162C178.912 140.162 178.345 140.045 177.847 139.811C177.355 139.577 176.968 139.217 176.686 138.731C176.41 138.239 176.272 137.606 176.272 136.832V131.315ZM187.904 140V127.697H189.614V140H187.904ZM196.266 140.234C195.774 140.234 195.33 140.141 194.934 139.955C194.538 139.769 194.223 139.49 193.989 139.118C193.761 138.74 193.647 138.266 193.647 137.696V128.984H195.348V137.642C195.348 138.458 195.729 138.866 196.491 138.866C196.725 138.866 196.953 138.842 197.175 138.794C197.397 138.74 197.649 138.662 197.931 138.56L198.174 139.775C197.856 139.907 197.541 140.015 197.229 140.099C196.923 140.189 196.602 140.234 196.266 140.234ZM192.324 132.503V131.342H197.913V132.503H192.324ZM204.878 140V138.191C204.878 137.537 204.98 136.988 205.184 136.544C205.388 136.094 205.685 135.719 206.075 135.419C206.465 135.119 206.939 134.861 207.497 134.645L209.801 133.745C210.353 133.523 210.764 133.241 211.034 132.899C211.304 132.557 211.439 132.134 211.439 131.63C211.439 131.108 211.256 130.676 210.89 130.334C210.524 129.992 210.005 129.821 209.333 129.821C208.679 129.821 208.136 129.971 207.704 130.271C207.278 130.565 207.035 131.006 206.975 131.594H205.076C205.106 130.88 205.304 130.28 205.67 129.794C206.036 129.308 206.531 128.942 207.155 128.696C207.779 128.45 208.496 128.327 209.306 128.327C210.062 128.327 210.74 128.471 211.34 128.759C211.94 129.047 212.414 129.446 212.762 129.956C213.116 130.466 213.293 131.054 213.293 131.72C213.293 132.314 213.185 132.833 212.969 133.277C212.753 133.715 212.435 134.096 212.015 134.42C211.595 134.744 211.085 135.026 210.485 135.266L208.145 136.193C207.617 136.397 207.224 136.637 206.966 136.913C206.714 137.183 206.588 137.537 206.588 137.975V138.425H213.203V140H204.878Z" fill="#252525"/>
<path d="M89.923 179.234C89.083 179.234 88.375 179.117 87.799 178.883C87.223 178.643 86.782 178.313 86.476 177.893C86.176 177.467 86.02 176.969 86.008 176.399H87.619C87.643 176.897 87.841 177.266 88.213 177.506C88.591 177.746 89.101 177.866 89.743 177.866C90.085 177.866 90.394 177.812 90.67 177.704C90.952 177.596 91.174 177.449 91.336 177.263C91.504 177.077 91.588 176.867 91.588 176.633C91.588 176.339 91.48 176.108 91.264 175.94C91.048 175.766 90.7 175.613 90.22 175.481L88.447 174.878C87.739 174.638 87.196 174.32 86.818 173.924C86.44 173.522 86.251 173.042 86.251 172.484C86.251 171.77 86.569 171.197 87.205 170.765C87.841 170.327 88.684 170.108 89.734 170.108C90.82 170.108 91.657 170.339 92.245 170.801C92.839 171.257 93.148 171.83 93.172 172.52H91.525C91.483 172.178 91.312 171.917 91.012 171.737C90.718 171.551 90.292 171.458 89.734 171.458C89.212 171.458 88.801 171.572 88.501 171.8C88.207 172.028 88.06 172.286 88.06 172.574C88.06 173.09 88.504 173.474 89.392 173.726L91.255 174.383C91.963 174.611 92.509 174.905 92.893 175.265C93.277 175.625 93.469 176.081 93.469 176.633C93.469 177.077 93.322 177.497 93.028 177.893C92.734 178.289 92.32 178.613 91.786 178.865C91.258 179.111 90.637 179.234 89.923 179.234ZM99.6946 179.234C98.9506 179.234 98.2786 179.042 97.6786 178.658C97.0786 178.274 96.6016 177.74 96.2476 177.056C95.8996 176.372 95.7256 175.58 95.7256 174.68C95.7256 173.726 95.8996 172.91 96.2476 172.232C96.5956 171.548 97.0696 171.023 97.6696 170.657C98.2696 170.291 98.9446 170.108 99.6946 170.108C100.367 170.108 100.943 170.246 101.423 170.522C101.903 170.792 102.29 171.158 102.584 171.62C102.878 172.076 103.079 172.595 103.187 173.177C103.301 173.759 103.322 174.359 103.25 174.977H97.0936V173.987H102.08L101.666 174.257C101.684 173.933 101.666 173.609 101.612 173.285C101.564 172.961 101.468 172.664 101.324 172.394C101.18 172.118 100.976 171.899 100.712 171.737C100.454 171.569 100.124 171.485 99.7216 171.485C99.2176 171.485 98.7946 171.611 98.4526 171.863C98.1166 172.115 97.8616 172.454 97.6876 172.88C97.5136 173.3 97.4266 173.762 97.4266 174.266V174.959C97.4266 175.517 97.5106 176.012 97.6786 176.444C97.8466 176.876 98.0956 177.218 98.4256 177.47C98.7616 177.716 99.1846 177.839 99.6946 177.839C100.193 177.839 100.604 177.722 100.928 177.488C101.258 177.254 101.462 176.903 101.54 176.435H103.286C103.196 176.999 102.989 177.491 102.665 177.911C102.341 178.331 101.924 178.658 101.414 178.892C100.91 179.12 100.337 179.234 99.6946 179.234ZM111.746 179L111.53 177.011V173.402C111.53 172.694 111.383 172.181 111.089 171.863C110.795 171.539 110.33 171.377 109.694 171.377C109.334 171.377 109.013 171.431 108.731 171.539C108.455 171.641 108.236 171.797 108.074 172.007C107.918 172.217 107.84 172.481 107.84 172.799H105.95C105.95 172.163 106.106 171.647 106.418 171.251C106.73 170.855 107.165 170.567 107.723 170.387C108.287 170.201 108.944 170.108 109.694 170.108C110.396 170.108 111.014 170.225 111.548 170.459C112.082 170.687 112.496 171.047 112.79 171.539C113.09 172.031 113.24 172.667 113.24 173.447V179H111.746ZM108.848 179.234C108.122 179.234 107.519 179.108 107.039 178.856C106.559 178.598 106.199 178.262 105.959 177.848C105.725 177.434 105.608 176.993 105.608 176.525C105.608 175.955 105.752 175.487 106.04 175.121C106.334 174.749 106.739 174.473 107.255 174.293C107.771 174.113 108.365 174.023 109.037 174.023C109.499 174.023 109.949 174.065 110.387 174.149C110.825 174.233 111.257 174.344 111.683 174.482V175.517C111.335 175.391 110.948 175.292 110.522 175.22C110.102 175.142 109.709 175.103 109.343 175.103C108.797 175.103 108.341 175.211 107.975 175.427C107.609 175.643 107.426 176.009 107.426 176.525C107.426 176.903 107.57 177.23 107.858 177.506C108.146 177.776 108.602 177.911 109.226 177.911C109.682 177.911 110.084 177.809 110.432 177.605C110.78 177.395 111.05 177.134 111.242 176.822C111.434 176.51 111.53 176.198 111.53 175.886H111.944C111.944 176.486 111.821 177.041 111.575 177.551C111.335 178.055 110.984 178.463 110.522 178.775C110.06 179.081 109.502 179.234 108.848 179.234ZM116.856 179V170.315H118.566V179H116.856ZM118.098 175.13C118.098 174.02 118.212 173.099 118.44 172.367C118.674 171.629 118.998 171.08 119.412 170.72C119.832 170.36 120.324 170.18 120.888 170.18C121.056 170.18 121.212 170.192 121.356 170.216C121.506 170.24 121.653 170.273 121.797 170.315L121.734 172.016C121.572 171.974 121.395 171.938 121.203 171.908C121.017 171.872 120.846 171.854 120.69 171.854C120.198 171.854 119.796 171.986 119.484 172.25C119.172 172.508 118.941 172.883 118.791 173.375C118.641 173.861 118.566 174.446 118.566 175.13H118.098ZM127.099 179.234C126.391 179.234 125.731 179.045 125.119 178.667C124.507 178.289 124.015 177.758 123.643 177.074C123.271 176.39 123.085 175.586 123.085 174.662C123.085 173.69 123.271 172.868 123.643 172.196C124.015 171.518 124.507 171.002 125.119 170.648C125.731 170.288 126.391 170.108 127.099 170.108C127.621 170.108 128.086 170.192 128.494 170.36C128.902 170.522 129.253 170.744 129.547 171.026C129.841 171.302 130.078 171.614 130.258 171.962C130.444 172.31 130.573 172.67 130.645 173.042L128.908 173.132C128.782 172.682 128.56 172.322 128.242 172.052C127.93 171.776 127.543 171.638 127.081 171.638C126.691 171.638 126.322 171.749 125.974 171.971C125.632 172.187 125.353 172.52 125.137 172.97C124.927 173.414 124.822 173.978 124.822 174.662C124.822 175.298 124.921 175.841 125.119 176.291C125.317 176.741 125.587 177.086 125.929 177.326C126.271 177.566 126.655 177.686 127.081 177.686C127.693 177.686 128.149 177.539 128.449 177.245C128.755 176.945 128.908 176.534 128.908 176.012H130.645C130.645 176.618 130.504 177.164 130.222 177.65C129.94 178.136 129.532 178.523 128.998 178.811C128.47 179.093 127.837 179.234 127.099 179.234ZM139.762 179V173.924C139.762 173.174 139.582 172.607 139.222 172.223C138.868 171.833 138.388 171.638 137.782 171.638C137.302 171.638 136.882 171.77 136.522 172.034C136.168 172.292 135.892 172.673 135.694 173.177C135.502 173.675 135.406 174.284 135.406 175.004H134.794C134.794 173.942 134.929 173.048 135.199 172.322C135.475 171.596 135.868 171.047 136.378 170.675C136.888 170.297 137.5 170.108 138.214 170.108C138.91 170.108 139.498 170.264 139.978 170.576C140.464 170.888 140.833 171.332 141.085 171.908C141.337 172.478 141.463 173.15 141.463 173.924V179H139.762ZM133.696 179V166.697H135.406V179H133.696ZM149.832 179V170.315H151.542V179H149.832ZM151.074 175.13C151.074 174.02 151.188 173.099 151.416 172.367C151.65 171.629 151.974 171.08 152.388 170.72C152.808 170.36 153.3 170.18 153.864 170.18C154.032 170.18 154.188 170.192 154.332 170.216C154.482 170.24 154.629 170.273 154.773 170.315L154.71 172.016C154.548 171.974 154.371 171.938 154.179 171.908C153.993 171.872 153.822 171.854 153.666 171.854C153.174 171.854 152.772 171.986 152.46 172.25C152.148 172.508 151.917 172.883 151.767 173.375C151.617 173.861 151.542 174.446 151.542 175.13H151.074ZM160.029 179.234C159.285 179.234 158.613 179.042 158.013 178.658C157.413 178.274 156.936 177.74 156.582 177.056C156.234 176.372 156.06 175.58 156.06 174.68C156.06 173.726 156.234 172.91 156.582 172.232C156.93 171.548 157.404 171.023 158.004 170.657C158.604 170.291 159.279 170.108 160.029 170.108C160.701 170.108 161.277 170.246 161.757 170.522C162.237 170.792 162.624 171.158 162.918 171.62C163.212 172.076 163.413 172.595 163.521 173.177C163.635 173.759 163.656 174.359 163.584 174.977H157.428V173.987H162.414L162 174.257C162.018 173.933 162 173.609 161.946 173.285C161.898 172.961 161.802 172.664 161.658 172.394C161.514 172.118 161.31 171.899 161.046 171.737C160.788 171.569 160.458 171.485 160.056 171.485C159.552 171.485 159.129 171.611 158.787 171.863C158.451 172.115 158.196 172.454 158.022 172.88C157.848 173.3 157.761 173.762 157.761 174.266V174.959C157.761 175.517 157.845 176.012 158.013 176.444C158.181 176.876 158.43 177.218 158.76 177.47C159.096 177.716 159.519 177.839 160.029 177.839C160.527 177.839 160.938 177.722 161.262 177.488C161.592 177.254 161.796 176.903 161.874 176.435H163.62C163.53 176.999 163.323 177.491 162.999 177.911C162.675 178.331 162.258 178.658 161.748 178.892C161.244 179.12 160.671 179.234 160.029 179.234ZM169.821 179.234C168.981 179.234 168.273 179.117 167.697 178.883C167.121 178.643 166.68 178.313 166.374 177.893C166.074 177.467 165.918 176.969 165.906 176.399H167.517C167.541 176.897 167.739 177.266 168.111 177.506C168.489 177.746 168.999 177.866 169.641 177.866C169.983 177.866 170.292 177.812 170.568 177.704C170.85 177.596 171.072 177.449 171.234 177.263C171.402 177.077 171.486 176.867 171.486 176.633C171.486 176.339 171.378 176.108 171.162 175.94C170.946 175.766 170.598 175.613 170.118 175.481L168.345 174.878C167.637 174.638 167.094 174.32 166.716 173.924C166.338 173.522 166.149 173.042 166.149 172.484C166.149 171.77 166.467 171.197 167.103 170.765C167.739 170.327 168.582 170.108 169.632 170.108C170.718 170.108 171.555 170.339 172.143 170.801C172.737 171.257 173.046 171.83 173.07 172.52H171.423C171.381 172.178 171.21 171.917 170.91 171.737C170.616 171.551 170.19 171.458 169.632 171.458C169.11 171.458 168.699 171.572 168.399 171.8C168.105 172.028 167.958 172.286 167.958 172.574C167.958 173.09 168.402 173.474 169.29 173.726L171.153 174.383C171.861 174.611 172.407 174.905 172.791 175.265C173.175 175.625 173.367 176.081 173.367 176.633C173.367 177.077 173.22 177.497 172.926 177.893C172.632 178.289 172.218 178.613 171.684 178.865C171.156 179.111 170.535 179.234 169.821 179.234ZM182.32 170.315H184.039V179H182.32V170.315ZM176.272 170.315H177.982V175.679C177.982 176.333 178.141 176.828 178.459 177.164C178.783 177.5 179.236 177.668 179.818 177.668C180.31 177.668 180.742 177.539 181.114 177.281C181.492 177.023 181.786 176.657 181.996 176.183C182.212 175.709 182.32 175.148 182.32 174.5H182.869C182.869 175.514 182.731 176.366 182.455 177.056C182.179 177.746 181.792 178.271 181.294 178.631C180.796 178.985 180.214 179.162 179.548 179.162C178.912 179.162 178.345 179.045 177.847 178.811C177.355 178.577 176.968 178.217 176.686 177.731C176.41 177.239 176.272 176.606 176.272 175.832V170.315ZM187.904 179V166.697H189.614V179H187.904ZM196.266 179.234C195.774 179.234 195.33 179.141 194.934 178.955C194.538 178.769 194.223 178.49 193.989 178.118C193.761 177.74 193.647 177.266 193.647 176.696V167.984H195.348V176.642C195.348 177.458 195.729 177.866 196.491 177.866C196.725 177.866 196.953 177.842 197.175 177.794C197.397 177.74 197.649 177.662 197.931 177.56L198.174 178.775C197.856 178.907 197.541 179.015 197.229 179.099C196.923 179.189 196.602 179.234 196.266 179.234ZM192.324 171.503V170.342H197.913V171.503H192.324ZM209.225 179.234C208.637 179.234 208.07 179.153 207.524 178.991C206.978 178.823 206.486 178.583 206.048 178.271C205.616 177.953 205.274 177.56 205.022 177.092C204.77 176.618 204.644 176.072 204.644 175.454H206.426C206.444 175.922 206.576 176.321 206.822 176.651C207.068 176.981 207.398 177.233 207.812 177.407C208.226 177.575 208.697 177.659 209.225 177.659C210.017 177.659 210.632 177.47 211.07 177.092C211.514 176.714 211.736 176.24 211.736 175.67C211.736 175.304 211.643 174.983 211.457 174.707C211.277 174.431 210.992 174.218 210.602 174.068C210.218 173.912 209.717 173.834 209.099 173.834H207.704V172.484H208.766C209.558 172.484 210.182 172.322 210.638 171.998C211.094 171.668 211.322 171.221 211.322 170.657C211.322 170.153 211.133 169.73 210.755 169.388C210.377 169.046 209.828 168.875 209.108 168.875C208.538 168.875 208.031 168.992 207.587 169.226C207.143 169.454 206.849 169.865 206.705 170.459H204.932C205.022 169.715 205.256 169.112 205.634 168.65C206.012 168.188 206.495 167.852 207.083 167.642C207.671 167.432 208.328 167.327 209.054 167.327C209.84 167.327 210.542 167.462 211.16 167.732C211.784 167.996 212.273 168.365 212.627 168.839C212.981 169.313 213.158 169.859 213.158 170.477C213.158 171.071 212.99 171.584 212.654 172.016C212.324 172.442 211.841 172.769 211.205 172.997C211.913 173.213 212.489 173.558 212.933 174.032C213.377 174.5 213.599 175.094 213.599 175.814C213.599 176.48 213.419 177.071 213.059 177.587C212.699 178.103 212.192 178.508 211.538 178.802C210.884 179.09 210.113 179.234 209.225 179.234Z" fill="#252525"/>
</g>
<defs>
<filter id="filter0_d_414_381" x="0" y="0" width="420" height="225" filterUnits="userSpaceOnUse" color-interpolation-filters="sRGB">
<feFlood flood-opacity="0" result="BackgroundImageFix"/>
<feColorMatrix in="SourceAlpha" type="matrix" values="0 0 0 0 0 0 0 0 0 0 0 0 0 0 0 0 0 0 127 0" result="hardAlpha"/>
<feOffset dy="4"/>
<feGaussianBlur stdDeviation="10"/>
<feComposite in2="hardAlpha" operator="out"/>
<feColorMatrix type="matrix" values="0 0 0 0 0 0 0 0 0 0 0 0 0 0 0 0 0 0 0.1 0"/>
<feBlend mode="normal" in2="BackgroundImageFix" result="effect1_dropShadow_414_381"/>
<feBlend mode="normal" in="SourceGraphic" in2="effect1_dropShadow_414_381" result="shape"/>
</filter>
</defs>
</svg>
