<svg width="285" height="29" viewBox="0 0 285 29" fill="none" xmlns="http://www.w3.org/2000/svg">
<g filter="url(#filter0_b_0_1)">
<rect width="285" height="29" rx="7" fill="#F4F4F4" fill-opacity="0.95"/>
</g>
<path d="M22.571 20.234C21.791 20.234 21.074 20.096 20.42 19.82C19.766 19.538 19.238 19.121 18.836 18.569C18.44 18.017 18.233 17.327 18.215 16.499H19.889C19.889 16.997 20.009 17.405 20.249 17.723C20.495 18.041 20.819 18.278 21.221 18.434C21.623 18.584 22.067 18.659 22.553 18.659C23.045 18.659 23.48 18.584 23.858 18.434C24.236 18.284 24.527 18.083 24.731 17.831C24.941 17.579 25.046 17.291 25.046 16.967C25.046 16.529 24.911 16.178 24.641 15.914C24.371 15.644 23.96 15.416 23.408 15.23L21.275 14.438C20.357 14.096 19.658 13.703 19.178 13.259C18.698 12.809 18.458 12.185 18.458 11.387C18.458 10.481 18.812 9.746 19.52 9.182C20.228 8.612 21.224 8.327 22.508 8.327C23.726 8.327 24.671 8.609 25.343 9.173C26.021 9.737 26.408 10.505 26.504 11.477H24.821C24.737 10.985 24.506 10.595 24.128 10.307C23.756 10.019 23.216 9.875 22.508 9.875C21.824 9.875 21.29 10.025 20.906 10.325C20.522 10.619 20.33 10.991 20.33 11.441C20.33 11.813 20.45 12.11 20.69 12.332C20.936 12.554 21.317 12.755 21.833 12.935L24.263 13.826C25.097 14.12 25.748 14.516 26.216 15.014C26.684 15.512 26.918 16.145 26.918 16.913C26.918 17.561 26.75 18.134 26.414 18.632C26.078 19.13 25.586 19.523 24.938 19.811C24.29 20.093 23.501 20.234 22.571 20.234ZM33.5 20.234C32.714 20.234 32.009 20.063 31.385 19.721C30.767 19.379 30.278 18.869 29.918 18.191C29.558 17.513 29.378 16.676 29.378 15.68C29.378 14.666 29.558 13.823 29.918 13.151C30.278 12.473 30.767 11.963 31.385 11.621C32.009 11.279 32.714 11.108 33.5 11.108C34.274 11.108 34.97 11.279 35.588 11.621C36.206 11.963 36.692 12.473 37.046 13.151C37.406 13.823 37.586 14.666 37.586 15.68C37.586 16.676 37.406 17.513 37.046 18.191C36.692 18.869 36.206 19.379 35.588 19.721C34.97 20.063 34.274 20.234 33.5 20.234ZM33.446 18.74C33.944 18.74 34.373 18.62 34.733 18.38C35.099 18.14 35.378 17.792 35.57 17.336C35.768 16.874 35.867 16.322 35.867 15.68C35.867 14.696 35.666 13.934 35.264 13.394C34.868 12.854 34.295 12.584 33.545 12.584C33.041 12.584 32.606 12.707 32.24 12.953C31.88 13.193 31.601 13.544 31.403 14.006C31.211 14.462 31.115 15.02 31.115 15.68C31.115 16.646 31.316 17.399 31.718 17.939C32.12 18.473 32.696 18.74 33.446 18.74ZM40.5863 20V11.315H42.2963V20H40.5863ZM41.8283 16.13C41.8283 15.02 41.9423 14.099 42.1703 13.367C42.4043 12.629 42.7283 12.08 43.1423 11.72C43.5623 11.36 44.0543 11.18 44.6183 11.18C44.7863 11.18 44.9423 11.192 45.0863 11.216C45.2363 11.24 45.3833 11.273 45.5273 11.315L45.4643 13.016C45.3023 12.974 45.1253 12.938 44.9333 12.908C44.7473 12.872 44.5763 12.854 44.4203 12.854C43.9283 12.854 43.5263 12.986 43.2143 13.25C42.9023 13.508 42.6713 13.883 42.5213 14.375C42.3713 14.861 42.2963 15.446 42.2963 16.13H41.8283ZM50.4597 20.234C49.9678 20.234 49.5238 20.141 49.1277 19.955C48.7318 19.769 48.4168 19.49 48.1828 19.118C47.9548 18.74 47.8408 18.266 47.8408 17.696V8.984H49.5418V17.642C49.5418 18.458 49.9228 18.866 50.6848 18.866C50.9188 18.866 51.1468 18.842 51.3688 18.794C51.5908 18.74 51.8428 18.662 52.1248 18.56L52.3678 19.775C52.0498 19.907 51.7348 20.015 51.4227 20.099C51.1167 20.189 50.7957 20.234 50.4597 20.234ZM46.5177 12.503V11.342H52.1068V12.503H46.5177ZM63.8685 20.234C63.3045 20.234 62.7915 20.084 62.3295 19.784C61.8735 19.478 61.5075 19.028 61.2315 18.434C60.9615 17.84 60.8265 17.111 60.8265 16.247H61.4115C61.4115 16.751 61.5195 17.186 61.7355 17.552C61.9575 17.918 62.2395 18.2 62.5815 18.398C62.9235 18.59 63.2805 18.686 63.6525 18.686C64.0965 18.686 64.4955 18.563 64.8495 18.317C65.2095 18.071 65.4945 17.72 65.7045 17.264C65.9205 16.802 66.0285 16.259 66.0285 15.635C66.0285 15.017 65.9235 14.486 65.7135 14.042C65.5035 13.592 65.2185 13.247 64.8585 13.007C64.4985 12.761 64.0905 12.638 63.6345 12.638C63.2505 12.638 62.8875 12.731 62.5455 12.917C62.2095 13.103 61.9365 13.379 61.7265 13.745C61.5165 14.105 61.4115 14.546 61.4115 15.068H60.8265C60.8265 14.222 60.9585 13.505 61.2225 12.917C61.4865 12.329 61.8525 11.882 62.3205 11.576C62.7945 11.264 63.3495 11.108 63.9855 11.108C64.6755 11.108 65.3055 11.294 65.8755 11.666C66.4515 12.032 66.9105 12.554 67.2525 13.232C67.6005 13.91 67.7745 14.711 67.7745 15.635C67.7745 16.565 67.5975 17.375 67.2435 18.065C66.8895 18.749 66.4155 19.283 65.8215 19.667C65.2335 20.045 64.5825 20.234 63.8685 20.234ZM59.7015 20V7.697H61.4115V17.921L60.8625 20H59.7015ZM69.5126 11.342H71.4296L74.0396 18.506H73.6886L75.7856 11.342H77.5316L74.2466 21.665C73.9466 22.601 73.5596 23.3 73.0856 23.762C72.6176 24.23 72.0296 24.464 71.3216 24.464C70.9256 24.464 70.5446 24.413 70.1786 24.311C69.8186 24.209 69.4496 24.059 69.0716 23.861V22.322C69.3956 22.55 69.7076 22.715 70.0076 22.817C70.3076 22.919 70.6196 22.97 70.9436 22.97C71.2676 22.97 71.5436 22.871 71.7716 22.673C72.0056 22.481 72.2006 22.223 72.3566 21.899C72.5186 21.581 72.6566 21.233 72.7706 20.855L73.0316 20L69.5126 11.342ZM84.5352 20V8.318H88.6572C89.9712 8.318 90.9942 8.642 91.7262 9.29C92.4642 9.938 92.8332 10.856 92.8332 12.044C92.8332 13.22 92.4642 14.132 91.7262 14.78C90.9942 15.428 89.9712 15.752 88.6572 15.752H86.6772V20H84.5352ZM86.6772 13.898H88.6572C89.3172 13.898 89.8152 13.724 90.1512 13.376C90.4872 13.028 90.6552 12.584 90.6552 12.044C90.6552 11.492 90.4872 11.039 90.1512 10.685C89.8152 10.331 89.3172 10.154 88.6572 10.154H86.6772V13.898ZM95.3906 20V11.234H97.5146V20H95.3906ZM96.9926 16.166C96.9926 15.02 97.1216 14.072 97.3796 13.322C97.6376 12.572 97.9826 12.017 98.4146 11.657C98.8526 11.291 99.3386 11.108 99.8726 11.108C100.017 11.108 100.152 11.117 100.278 11.135C100.41 11.153 100.539 11.18 100.665 11.216L100.629 13.34C100.473 13.304 100.305 13.274 100.125 13.25C99.9446 13.226 99.7826 13.214 99.6386 13.214C99.1706 13.214 98.7776 13.328 98.4596 13.556C98.1476 13.778 97.9106 14.108 97.7486 14.546C97.5926 14.984 97.5146 15.524 97.5146 16.166H96.9926ZM104.059 9.668C103.645 9.668 103.321 9.56 103.087 9.344C102.859 9.122 102.745 8.816 102.745 8.426C102.745 8.048 102.859 7.748 103.087 7.526C103.321 7.298 103.645 7.184 104.059 7.184C104.467 7.184 104.788 7.298 105.022 7.526C105.256 7.748 105.373 8.048 105.373 8.426C105.373 8.816 105.256 9.122 105.022 9.344C104.788 9.56 104.467 9.668 104.059 9.668ZM102.997 20V11.234H105.121V20H102.997ZM112.395 20.252C111.663 20.252 110.982 20.063 110.352 19.685C109.728 19.301 109.221 18.764 108.831 18.074C108.447 17.378 108.255 16.562 108.255 15.626C108.255 14.636 108.447 13.799 108.831 13.115C109.221 12.425 109.728 11.903 110.352 11.549C110.982 11.195 111.663 11.018 112.395 11.018C112.965 11.018 113.466 11.111 113.898 11.297C114.336 11.477 114.708 11.723 115.014 12.035C115.32 12.341 115.56 12.683 115.734 13.061C115.908 13.439 116.019 13.82 116.067 14.204L113.925 14.258C113.829 13.874 113.649 13.556 113.385 13.304C113.127 13.052 112.791 12.926 112.377 12.926C112.035 12.926 111.714 13.022 111.414 13.214C111.114 13.4 110.868 13.691 110.676 14.087C110.49 14.483 110.397 14.996 110.397 15.626C110.397 16.226 110.484 16.727 110.658 17.129C110.838 17.525 111.078 17.825 111.378 18.029C111.678 18.227 112.011 18.326 112.377 18.326C112.917 18.326 113.31 18.197 113.556 17.939C113.802 17.675 113.925 17.324 113.925 16.886H116.067C116.067 17.504 115.926 18.068 115.644 18.578C115.362 19.088 114.948 19.496 114.402 19.802C113.856 20.102 113.187 20.252 112.395 20.252ZM122.229 20.252C121.485 20.252 120.804 20.06 120.186 19.676C119.568 19.292 119.073 18.755 118.701 18.065C118.329 17.369 118.143 16.556 118.143 15.626C118.143 14.666 118.326 13.841 118.692 13.151C119.064 12.461 119.559 11.933 120.177 11.567C120.795 11.201 121.479 11.018 122.229 11.018C122.925 11.018 123.525 11.159 124.029 11.441C124.539 11.717 124.947 12.095 125.253 12.575C125.565 13.049 125.775 13.586 125.883 14.186C125.991 14.786 125.997 15.404 125.901 16.04H119.835V14.888H124.398L123.984 15.158C124.002 14.876 123.987 14.591 123.939 14.303C123.897 14.015 123.813 13.751 123.687 13.511C123.561 13.271 123.381 13.079 123.147 12.935C122.919 12.785 122.625 12.71 122.265 12.71C121.833 12.71 121.467 12.818 121.167 13.034C120.867 13.25 120.639 13.544 120.483 13.916C120.327 14.288 120.249 14.708 120.249 15.176V16.022C120.249 16.514 120.321 16.949 120.465 17.327C120.615 17.705 120.834 18.002 121.122 18.218C121.416 18.434 121.785 18.542 122.229 18.542C122.643 18.542 122.991 18.446 123.273 18.254C123.555 18.062 123.735 17.774 123.813 17.39H125.955C125.865 17.954 125.652 18.452 125.316 18.884C124.986 19.31 124.557 19.646 124.029 19.892C123.501 20.132 122.901 20.252 122.229 20.252ZM128.119 18.452C128.119 18.044 128.257 17.702 128.533 17.426C128.809 17.15 129.163 17.012 129.595 17.012C130.027 17.012 130.387 17.15 130.675 17.426C130.963 17.702 131.107 18.044 131.107 18.452C131.107 18.854 130.963 19.19 130.675 19.46C130.387 19.724 130.027 19.856 129.595 19.856C129.163 19.856 128.809 19.721 128.533 19.451C128.257 19.181 128.119 18.848 128.119 18.452ZM128.119 13.088C128.119 12.68 128.257 12.338 128.533 12.062C128.809 11.786 129.163 11.648 129.595 11.648C130.027 11.648 130.387 11.786 130.675 12.062C130.963 12.338 131.107 12.68 131.107 13.088C131.107 13.49 130.963 13.826 130.675 14.096C130.387 14.36 130.027 14.492 129.595 14.492C129.163 14.492 128.809 14.357 128.533 14.087C128.257 13.817 128.119 13.484 128.119 13.088ZM139 20V7.652H141.124V20H139ZM148.282 20.252C147.484 20.252 146.761 20.081 146.113 19.739C145.471 19.397 144.961 18.887 144.583 18.209C144.205 17.525 144.016 16.67 144.016 15.644C144.016 14.6 144.205 13.736 144.583 13.052C144.961 12.368 145.471 11.858 146.113 11.522C146.761 11.186 147.484 11.018 148.282 11.018C149.068 11.018 149.779 11.186 150.415 11.522C151.057 11.858 151.567 12.368 151.945 13.052C152.323 13.736 152.512 14.6 152.512 15.644C152.512 16.67 152.323 17.525 151.945 18.209C151.567 18.887 151.057 19.397 150.415 19.739C149.779 20.081 149.068 20.252 148.282 20.252ZM148.21 18.398C148.63 18.398 149.002 18.296 149.326 18.092C149.656 17.882 149.914 17.573 150.1 17.165C150.292 16.757 150.388 16.25 150.388 15.644C150.388 14.72 150.205 14.024 149.839 13.556C149.479 13.088 148.984 12.854 148.354 12.854C147.928 12.854 147.55 12.959 147.22 13.169C146.89 13.373 146.629 13.682 146.437 14.096C146.251 14.51 146.158 15.026 146.158 15.644C146.158 16.556 146.341 17.243 146.707 17.705C147.079 18.167 147.58 18.398 148.21 18.398ZM153.941 11.27H156.155L158.045 17.894H157.829L159.611 11.738H161.537L163.319 17.912H163.103L164.993 11.27H167.117L164.237 20H162.149L160.367 14.204H160.691L158.945 20H156.839L153.941 11.27ZM177.265 20.252C176.749 20.252 176.275 20.156 175.843 19.964C175.417 19.772 175.075 19.478 174.817 19.082C174.565 18.686 174.439 18.182 174.439 17.57V8.948H176.563V17.498C176.563 18.218 176.905 18.578 177.589 18.578C177.799 18.578 178.009 18.554 178.219 18.506C178.429 18.458 178.669 18.386 178.939 18.29L179.245 19.784C178.909 19.916 178.582 20.027 178.264 20.117C177.946 20.207 177.613 20.252 177.265 20.252ZM173.215 12.674V11.27H178.939V12.674H173.215ZM185.212 20.252C184.414 20.252 183.691 20.081 183.043 19.739C182.401 19.397 181.891 18.887 181.513 18.209C181.135 17.525 180.946 16.67 180.946 15.644C180.946 14.6 181.135 13.736 181.513 13.052C181.891 12.368 182.401 11.858 183.043 11.522C183.691 11.186 184.414 11.018 185.212 11.018C185.998 11.018 186.709 11.186 187.345 11.522C187.987 11.858 188.497 12.368 188.875 13.052C189.253 13.736 189.442 14.6 189.442 15.644C189.442 16.67 189.253 17.525 188.875 18.209C188.497 18.887 187.987 19.397 187.345 19.739C186.709 20.081 185.998 20.252 185.212 20.252ZM185.14 18.398C185.56 18.398 185.932 18.296 186.256 18.092C186.586 17.882 186.844 17.573 187.03 17.165C187.222 16.757 187.318 16.25 187.318 15.644C187.318 14.72 187.135 14.024 186.769 13.556C186.409 13.088 185.914 12.854 185.284 12.854C184.858 12.854 184.48 12.959 184.15 13.169C183.82 13.373 183.559 13.682 183.367 14.096C183.181 14.51 183.088 15.026 183.088 15.644C183.088 16.556 183.271 17.243 183.637 17.705C184.009 18.167 184.51 18.398 185.14 18.398ZM203.236 20V14.888C203.236 14.24 203.08 13.751 202.768 13.421C202.456 13.091 202.048 12.926 201.544 12.926C201.118 12.926 200.74 13.043 200.41 13.277C200.086 13.511 199.831 13.865 199.645 14.339C199.459 14.807 199.366 15.392 199.366 16.094H198.664C198.664 14.96 198.805 14.018 199.087 13.268C199.369 12.512 199.768 11.948 200.284 11.576C200.8 11.204 201.406 11.018 202.102 11.018C202.822 11.018 203.422 11.18 203.902 11.504C204.388 11.822 204.751 12.272 204.991 12.854C205.237 13.436 205.36 14.114 205.36 14.888V20H203.236ZM197.242 20V7.652H199.366V20H197.242ZM210.059 9.668C209.645 9.668 209.321 9.56 209.087 9.344C208.859 9.122 208.745 8.816 208.745 8.426C208.745 8.048 208.859 7.748 209.087 7.526C209.321 7.298 209.645 7.184 210.059 7.184C210.467 7.184 210.788 7.298 211.022 7.526C211.256 7.748 211.373 8.048 211.373 8.426C211.373 8.816 211.256 9.122 211.022 9.344C210.788 9.56 210.467 9.668 210.059 9.668ZM208.997 20V11.234H211.121V20H208.997ZM218.45 24.518C217.448 24.518 216.59 24.38 215.876 24.104C215.168 23.828 214.625 23.465 214.247 23.015C213.869 22.571 213.68 22.088 213.68 21.566C213.68 20.948 213.905 20.468 214.355 20.126C214.805 19.79 215.372 19.622 216.056 19.622L217.604 20.198C217.016 20.198 216.563 20.309 216.245 20.531C215.927 20.753 215.768 21.062 215.768 21.458C215.768 21.872 216.005 22.202 216.479 22.448C216.959 22.7 217.616 22.826 218.45 22.826C219.056 22.826 219.581 22.736 220.025 22.556C220.469 22.376 220.811 22.142 221.051 21.854C221.297 21.566 221.42 21.26 221.42 20.936C221.42 20.72 221.348 20.543 221.204 20.405C221.06 20.267 220.838 20.198 220.538 20.198H217.604C217.016 20.198 216.479 20.105 215.993 19.919C215.513 19.727 215.129 19.472 214.841 19.154C214.559 18.83 214.418 18.47 214.418 18.074C214.418 17.708 214.52 17.393 214.724 17.129C214.928 16.859 215.204 16.652 215.552 16.508C215.906 16.364 216.302 16.292 216.74 16.292L217.28 16.994C217.106 16.994 216.938 17.03 216.776 17.102C216.62 17.168 216.491 17.267 216.389 17.399C216.287 17.531 216.236 17.696 216.236 17.894C216.236 18.134 216.338 18.329 216.542 18.479C216.746 18.629 217.1 18.704 217.604 18.704H220.538C221.468 18.704 222.197 18.875 222.725 19.217C223.259 19.559 223.526 20.084 223.526 20.792C223.526 21.422 223.319 22.019 222.905 22.583C222.491 23.153 221.903 23.618 221.141 23.978C220.385 24.338 219.488 24.518 218.45 24.518ZM218.558 17.3C217.868 17.3 217.235 17.171 216.659 16.913C216.089 16.649 215.633 16.283 215.291 15.815C214.949 15.347 214.778 14.798 214.778 14.168C214.778 13.526 214.949 12.968 215.291 12.494C215.633 12.02 216.089 11.657 216.659 11.405C217.235 11.147 217.868 11.018 218.558 11.018C219.23 11.018 219.851 11.147 220.421 11.405C220.991 11.657 221.45 12.02 221.798 12.494C222.146 12.968 222.32 13.526 222.32 14.168C222.32 14.798 222.146 15.347 221.798 15.815C221.45 16.283 220.991 16.649 220.421 16.913C219.851 17.171 219.23 17.3 218.558 17.3ZM218.576 15.824C219.128 15.824 219.542 15.665 219.818 15.347C220.094 15.029 220.232 14.636 220.232 14.168C220.232 13.664 220.091 13.259 219.809 12.953C219.533 12.647 219.116 12.494 218.558 12.494C218.018 12.494 217.604 12.647 217.316 12.953C217.028 13.259 216.884 13.664 216.884 14.168C216.884 14.636 217.028 15.029 217.316 15.347C217.61 15.665 218.03 15.824 218.576 15.824ZM221.654 12.422L220.682 11.864C220.682 11.342 220.802 10.886 221.042 10.496C221.288 10.1 221.612 9.794 222.014 9.578C222.422 9.362 222.872 9.254 223.364 9.254L223.256 11.288C222.734 11.288 222.335 11.381 222.059 11.567C221.789 11.747 221.654 12.032 221.654 12.422ZM231.914 20V14.888C231.914 14.24 231.758 13.751 231.446 13.421C231.134 13.091 230.726 12.926 230.222 12.926C229.796 12.926 229.418 13.043 229.088 13.277C228.764 13.511 228.509 13.865 228.323 14.339C228.137 14.807 228.044 15.392 228.044 16.094H227.342C227.342 14.96 227.483 14.018 227.765 13.268C228.047 12.512 228.446 11.948 228.962 11.576C229.478 11.204 230.084 11.018 230.78 11.018C231.5 11.018 232.1 11.18 232.58 11.504C233.066 11.822 233.429 12.272 233.669 12.854C233.915 13.436 234.038 14.114 234.038 14.888V20H231.914ZM225.92 20V7.652H228.044V20H225.92Z" fill="#252525"/>
<circle cx="262.5" cy="14.5" r="7" stroke="#6B2DBC"/>
<defs>
<filter id="filter0_b_0_1" x="-15" y="-15" width="315" height="59" filterUnits="userSpaceOnUse" color-interpolation-filters="sRGB">
<feFlood flood-opacity="0" result="BackgroundImageFix"/>
<feGaussianBlur in="BackgroundImageFix" stdDeviation="7.5"/>
<feComposite in2="SourceAlpha" operator="in" result="effect1_backgroundBlur_0_1"/>
<feBlend mode="normal" in="SourceGraphic" in2="effect1_backgroundBlur_0_1" result="shape"/>
</filter>
</defs>
</svg>
