<svg width="19" height="16" viewBox="0 0 19 16" fill="none" xmlns="http://www.w3.org/2000/svg">
<g id="Group 23">
<path id="Vector 12" d="M4.35355 0.646447C4.15829 0.451184 3.84171 0.451184 3.64645 0.646447L0.464466 3.82843C0.269204 4.02369 0.269204 4.34027 0.464466 4.53553C0.659728 4.7308 0.976311 4.7308 1.17157 4.53553L4 1.70711L6.82843 4.53553C7.02369 4.7308 7.34027 4.7308 7.53553 4.53553C7.7308 4.34027 7.7308 4.02369 7.53553 3.82843L4.35355 0.646447ZM3.5 15C3.5 15.2761 3.72386 15.5 4 15.5C4.27614 15.5 4.5 15.2761 4.5 15H3.5ZM3.5 1V15H4.5V1H3.5Z" fill="black"/>
<path id="Vector 13" d="M14.6464 15.3536C14.8417 15.5488 15.1583 15.5488 15.3536 15.3536L18.5355 12.1716C18.7308 11.9763 18.7308 11.6597 18.5355 11.4645C18.3403 11.2692 18.0237 11.2692 17.8284 11.4645L15 14.2929L12.1716 11.4645C11.9763 11.2692 11.6597 11.2692 11.4645 11.4645C11.2692 11.6597 11.2692 11.9763 11.4645 12.1716L14.6464 15.3536ZM15.5 1C15.5 0.723858 15.2761 0.5 15 0.5C14.7239 0.5 14.5 0.723858 14.5 1H15.5ZM15.5 15L15.5 1H14.5L14.5 15H15.5Z" fill="black"/>
</g>
</svg>
