<svg width="285" height="185" viewBox="0 0 285 185" fill="none" xmlns="http://www.w3.org/2000/svg">
<g filter="url(#filter0_b_442_892)">
<rect width="285" height="185" rx="7" fill="#F4F4F4" fill-opacity="0.95"/>
</g>
<path d="M22.571 167.234C21.791 167.234 21.074 167.096 20.42 166.82C19.766 166.538 19.238 166.121 18.836 165.569C18.44 165.017 18.233 164.327 18.215 163.499H19.889C19.889 163.997 20.009 164.405 20.249 164.723C20.495 165.041 20.819 165.278 21.221 165.434C21.623 165.584 22.067 165.659 22.553 165.659C23.045 165.659 23.48 165.584 23.858 165.434C24.236 165.284 24.527 165.083 24.731 164.831C24.941 164.579 25.046 164.291 25.046 163.967C25.046 163.529 24.911 163.178 24.641 162.914C24.371 162.644 23.96 162.416 23.408 162.23L21.275 161.438C20.357 161.096 19.658 160.703 19.178 160.259C18.698 159.809 18.458 159.185 18.458 158.387C18.458 157.481 18.812 156.746 19.52 156.182C20.228 155.612 21.224 155.327 22.508 155.327C23.726 155.327 24.671 155.609 25.343 156.173C26.021 156.737 26.408 157.505 26.504 158.477H24.821C24.737 157.985 24.506 157.595 24.128 157.307C23.756 157.019 23.216 156.875 22.508 156.875C21.824 156.875 21.29 157.025 20.906 157.325C20.522 157.619 20.33 157.991 20.33 158.441C20.33 158.813 20.45 159.11 20.69 159.332C20.936 159.554 21.317 159.755 21.833 159.935L24.263 160.826C25.097 161.12 25.748 161.516 26.216 162.014C26.684 162.512 26.918 163.145 26.918 163.913C26.918 164.561 26.75 165.134 26.414 165.632C26.078 166.13 25.586 166.523 24.938 166.811C24.29 167.093 23.501 167.234 22.571 167.234ZM33.5 167.234C32.714 167.234 32.009 167.063 31.385 166.721C30.767 166.379 30.278 165.869 29.918 165.191C29.558 164.513 29.378 163.676 29.378 162.68C29.378 161.666 29.558 160.823 29.918 160.151C30.278 159.473 30.767 158.963 31.385 158.621C32.009 158.279 32.714 158.108 33.5 158.108C34.274 158.108 34.97 158.279 35.588 158.621C36.206 158.963 36.692 159.473 37.046 160.151C37.406 160.823 37.586 161.666 37.586 162.68C37.586 163.676 37.406 164.513 37.046 165.191C36.692 165.869 36.206 166.379 35.588 166.721C34.97 167.063 34.274 167.234 33.5 167.234ZM33.446 165.74C33.944 165.74 34.373 165.62 34.733 165.38C35.099 165.14 35.378 164.792 35.57 164.336C35.768 163.874 35.867 163.322 35.867 162.68C35.867 161.696 35.666 160.934 35.264 160.394C34.868 159.854 34.295 159.584 33.545 159.584C33.041 159.584 32.606 159.707 32.24 159.953C31.88 160.193 31.601 160.544 31.403 161.006C31.211 161.462 31.115 162.02 31.115 162.68C31.115 163.646 31.316 164.399 31.718 164.939C32.12 165.473 32.696 165.74 33.446 165.74ZM40.5863 167V158.315H42.2963V167H40.5863ZM41.8283 163.13C41.8283 162.02 41.9423 161.099 42.1703 160.367C42.4043 159.629 42.7283 159.08 43.1423 158.72C43.5623 158.36 44.0543 158.18 44.6183 158.18C44.7863 158.18 44.9423 158.192 45.0863 158.216C45.2363 158.24 45.3833 158.273 45.5273 158.315L45.4643 160.016C45.3023 159.974 45.1253 159.938 44.9333 159.908C44.7473 159.872 44.5763 159.854 44.4203 159.854C43.9283 159.854 43.5263 159.986 43.2143 160.25C42.9023 160.508 42.6713 160.883 42.5213 161.375C42.3713 161.861 42.2963 162.446 42.2963 163.13H41.8283ZM50.4597 167.234C49.9678 167.234 49.5238 167.141 49.1277 166.955C48.7318 166.769 48.4168 166.49 48.1828 166.118C47.9548 165.74 47.8408 165.266 47.8408 164.696V155.984H49.5418V164.642C49.5418 165.458 49.9228 165.866 50.6848 165.866C50.9188 165.866 51.1468 165.842 51.3688 165.794C51.5908 165.74 51.8428 165.662 52.1248 165.56L52.3678 166.775C52.0498 166.907 51.7348 167.015 51.4227 167.099C51.1167 167.189 50.7957 167.234 50.4597 167.234ZM46.5177 159.503V158.342H52.1068V159.503H46.5177ZM63.8685 167.234C63.3045 167.234 62.7915 167.084 62.3295 166.784C61.8735 166.478 61.5075 166.028 61.2315 165.434C60.9615 164.84 60.8265 164.111 60.8265 163.247H61.4115C61.4115 163.751 61.5195 164.186 61.7355 164.552C61.9575 164.918 62.2395 165.2 62.5815 165.398C62.9235 165.59 63.2805 165.686 63.6525 165.686C64.0965 165.686 64.4955 165.563 64.8495 165.317C65.2095 165.071 65.4945 164.72 65.7045 164.264C65.9205 163.802 66.0285 163.259 66.0285 162.635C66.0285 162.017 65.9235 161.486 65.7135 161.042C65.5035 160.592 65.2185 160.247 64.8585 160.007C64.4985 159.761 64.0905 159.638 63.6345 159.638C63.2505 159.638 62.8875 159.731 62.5455 159.917C62.2095 160.103 61.9365 160.379 61.7265 160.745C61.5165 161.105 61.4115 161.546 61.4115 162.068H60.8265C60.8265 161.222 60.9585 160.505 61.2225 159.917C61.4865 159.329 61.8525 158.882 62.3205 158.576C62.7945 158.264 63.3495 158.108 63.9855 158.108C64.6755 158.108 65.3055 158.294 65.8755 158.666C66.4515 159.032 66.9105 159.554 67.2525 160.232C67.6005 160.91 67.7745 161.711 67.7745 162.635C67.7745 163.565 67.5975 164.375 67.2435 165.065C66.8895 165.749 66.4155 166.283 65.8215 166.667C65.2335 167.045 64.5825 167.234 63.8685 167.234ZM59.7015 167V154.697H61.4115V164.921L60.8625 167H59.7015ZM69.5126 158.342H71.4296L74.0396 165.506H73.6886L75.7856 158.342H77.5316L74.2466 168.665C73.9466 169.601 73.5596 170.3 73.0856 170.762C72.6176 171.23 72.0296 171.464 71.3216 171.464C70.9256 171.464 70.5446 171.413 70.1786 171.311C69.8186 171.209 69.4496 171.059 69.0716 170.861V169.322C69.3956 169.55 69.7076 169.715 70.0076 169.817C70.3076 169.919 70.6196 169.97 70.9436 169.97C71.2676 169.97 71.5436 169.871 71.7716 169.673C72.0056 169.481 72.2006 169.223 72.3566 168.899C72.5186 168.581 72.6566 168.233 72.7706 167.855L73.0316 167L69.5126 158.342ZM84.5352 167V155.318H88.6572C89.9712 155.318 90.9942 155.642 91.7262 156.29C92.4642 156.938 92.8332 157.856 92.8332 159.044C92.8332 160.22 92.4642 161.132 91.7262 161.78C90.9942 162.428 89.9712 162.752 88.6572 162.752H86.6772V167H84.5352ZM86.6772 160.898H88.6572C89.3172 160.898 89.8152 160.724 90.1512 160.376C90.4872 160.028 90.6552 159.584 90.6552 159.044C90.6552 158.492 90.4872 158.039 90.1512 157.685C89.8152 157.331 89.3172 157.154 88.6572 157.154H86.6772V160.898ZM95.3906 167V158.234H97.5146V167H95.3906ZM96.9926 163.166C96.9926 162.02 97.1216 161.072 97.3796 160.322C97.6376 159.572 97.9826 159.017 98.4146 158.657C98.8526 158.291 99.3386 158.108 99.8726 158.108C100.017 158.108 100.152 158.117 100.278 158.135C100.41 158.153 100.539 158.18 100.665 158.216L100.629 160.34C100.473 160.304 100.305 160.274 100.125 160.25C99.9446 160.226 99.7826 160.214 99.6386 160.214C99.1706 160.214 98.7776 160.328 98.4596 160.556C98.1476 160.778 97.9106 161.108 97.7486 161.546C97.5926 161.984 97.5146 162.524 97.5146 163.166H96.9926ZM104.059 156.668C103.645 156.668 103.321 156.56 103.087 156.344C102.859 156.122 102.745 155.816 102.745 155.426C102.745 155.048 102.859 154.748 103.087 154.526C103.321 154.298 103.645 154.184 104.059 154.184C104.467 154.184 104.788 154.298 105.022 154.526C105.256 154.748 105.373 155.048 105.373 155.426C105.373 155.816 105.256 156.122 105.022 156.344C104.788 156.56 104.467 156.668 104.059 156.668ZM102.997 167V158.234H105.121V167H102.997ZM112.395 167.252C111.663 167.252 110.982 167.063 110.352 166.685C109.728 166.301 109.221 165.764 108.831 165.074C108.447 164.378 108.255 163.562 108.255 162.626C108.255 161.636 108.447 160.799 108.831 160.115C109.221 159.425 109.728 158.903 110.352 158.549C110.982 158.195 111.663 158.018 112.395 158.018C112.965 158.018 113.466 158.111 113.898 158.297C114.336 158.477 114.708 158.723 115.014 159.035C115.32 159.341 115.56 159.683 115.734 160.061C115.908 160.439 116.019 160.82 116.067 161.204L113.925 161.258C113.829 160.874 113.649 160.556 113.385 160.304C113.127 160.052 112.791 159.926 112.377 159.926C112.035 159.926 111.714 160.022 111.414 160.214C111.114 160.4 110.868 160.691 110.676 161.087C110.49 161.483 110.397 161.996 110.397 162.626C110.397 163.226 110.484 163.727 110.658 164.129C110.838 164.525 111.078 164.825 111.378 165.029C111.678 165.227 112.011 165.326 112.377 165.326C112.917 165.326 113.31 165.197 113.556 164.939C113.802 164.675 113.925 164.324 113.925 163.886H116.067C116.067 164.504 115.926 165.068 115.644 165.578C115.362 166.088 114.948 166.496 114.402 166.802C113.856 167.102 113.187 167.252 112.395 167.252ZM122.229 167.252C121.485 167.252 120.804 167.06 120.186 166.676C119.568 166.292 119.073 165.755 118.701 165.065C118.329 164.369 118.143 163.556 118.143 162.626C118.143 161.666 118.326 160.841 118.692 160.151C119.064 159.461 119.559 158.933 120.177 158.567C120.795 158.201 121.479 158.018 122.229 158.018C122.925 158.018 123.525 158.159 124.029 158.441C124.539 158.717 124.947 159.095 125.253 159.575C125.565 160.049 125.775 160.586 125.883 161.186C125.991 161.786 125.997 162.404 125.901 163.04H119.835V161.888H124.398L123.984 162.158C124.002 161.876 123.987 161.591 123.939 161.303C123.897 161.015 123.813 160.751 123.687 160.511C123.561 160.271 123.381 160.079 123.147 159.935C122.919 159.785 122.625 159.71 122.265 159.71C121.833 159.71 121.467 159.818 121.167 160.034C120.867 160.25 120.639 160.544 120.483 160.916C120.327 161.288 120.249 161.708 120.249 162.176V163.022C120.249 163.514 120.321 163.949 120.465 164.327C120.615 164.705 120.834 165.002 121.122 165.218C121.416 165.434 121.785 165.542 122.229 165.542C122.643 165.542 122.991 165.446 123.273 165.254C123.555 165.062 123.735 164.774 123.813 164.39H125.955C125.865 164.954 125.652 165.452 125.316 165.884C124.986 166.31 124.557 166.646 124.029 166.892C123.501 167.132 122.901 167.252 122.229 167.252ZM128.119 165.452C128.119 165.044 128.257 164.702 128.533 164.426C128.809 164.15 129.163 164.012 129.595 164.012C130.027 164.012 130.387 164.15 130.675 164.426C130.963 164.702 131.107 165.044 131.107 165.452C131.107 165.854 130.963 166.19 130.675 166.46C130.387 166.724 130.027 166.856 129.595 166.856C129.163 166.856 128.809 166.721 128.533 166.451C128.257 166.181 128.119 165.848 128.119 165.452ZM128.119 160.088C128.119 159.68 128.257 159.338 128.533 159.062C128.809 158.786 129.163 158.648 129.595 158.648C130.027 158.648 130.387 158.786 130.675 159.062C130.963 159.338 131.107 159.68 131.107 160.088C131.107 160.49 130.963 160.826 130.675 161.096C130.387 161.36 130.027 161.492 129.595 161.492C129.163 161.492 128.809 161.357 128.533 161.087C128.257 160.817 128.119 160.484 128.119 160.088ZM144.994 167V161.888C144.994 161.24 144.838 160.751 144.526 160.421C144.214 160.091 143.806 159.926 143.302 159.926C142.876 159.926 142.498 160.043 142.168 160.277C141.844 160.511 141.589 160.865 141.403 161.339C141.217 161.807 141.124 162.392 141.124 163.094H140.422C140.422 161.96 140.563 161.018 140.845 160.268C141.127 159.512 141.526 158.948 142.042 158.576C142.558 158.204 143.164 158.018 143.86 158.018C144.58 158.018 145.18 158.18 145.66 158.504C146.146 158.822 146.509 159.272 146.749 159.854C146.995 160.436 147.118 161.114 147.118 161.888V167H144.994ZM139 167V154.652H141.124V167H139ZM151.817 156.668C151.403 156.668 151.079 156.56 150.845 156.344C150.617 156.122 150.503 155.816 150.503 155.426C150.503 155.048 150.617 154.748 150.845 154.526C151.079 154.298 151.403 154.184 151.817 154.184C152.225 154.184 152.546 154.298 152.78 154.526C153.014 154.748 153.131 155.048 153.131 155.426C153.131 155.816 153.014 156.122 152.78 156.344C152.546 156.56 152.225 156.668 151.817 156.668ZM150.755 167V158.234H152.879V167H150.755ZM160.207 171.518C159.205 171.518 158.347 171.38 157.633 171.104C156.925 170.828 156.382 170.465 156.004 170.015C155.626 169.571 155.437 169.088 155.437 168.566C155.437 167.948 155.662 167.468 156.112 167.126C156.562 166.79 157.129 166.622 157.813 166.622L159.361 167.198C158.773 167.198 158.32 167.309 158.002 167.531C157.684 167.753 157.525 168.062 157.525 168.458C157.525 168.872 157.762 169.202 158.236 169.448C158.716 169.7 159.373 169.826 160.207 169.826C160.813 169.826 161.338 169.736 161.782 169.556C162.226 169.376 162.568 169.142 162.808 168.854C163.054 168.566 163.177 168.26 163.177 167.936C163.177 167.72 163.105 167.543 162.961 167.405C162.817 167.267 162.595 167.198 162.295 167.198H159.361C158.773 167.198 158.236 167.105 157.75 166.919C157.27 166.727 156.886 166.472 156.598 166.154C156.316 165.83 156.175 165.47 156.175 165.074C156.175 164.708 156.277 164.393 156.481 164.129C156.685 163.859 156.961 163.652 157.309 163.508C157.663 163.364 158.059 163.292 158.497 163.292L159.037 163.994C158.863 163.994 158.695 164.03 158.533 164.102C158.377 164.168 158.248 164.267 158.146 164.399C158.044 164.531 157.993 164.696 157.993 164.894C157.993 165.134 158.095 165.329 158.299 165.479C158.503 165.629 158.857 165.704 159.361 165.704H162.295C163.225 165.704 163.954 165.875 164.482 166.217C165.016 166.559 165.283 167.084 165.283 167.792C165.283 168.422 165.076 169.019 164.662 169.583C164.248 170.153 163.66 170.618 162.898 170.978C162.142 171.338 161.245 171.518 160.207 171.518ZM160.315 164.3C159.625 164.3 158.992 164.171 158.416 163.913C157.846 163.649 157.39 163.283 157.048 162.815C156.706 162.347 156.535 161.798 156.535 161.168C156.535 160.526 156.706 159.968 157.048 159.494C157.39 159.02 157.846 158.657 158.416 158.405C158.992 158.147 159.625 158.018 160.315 158.018C160.987 158.018 161.608 158.147 162.178 158.405C162.748 158.657 163.207 159.02 163.555 159.494C163.903 159.968 164.077 160.526 164.077 161.168C164.077 161.798 163.903 162.347 163.555 162.815C163.207 163.283 162.748 163.649 162.178 163.913C161.608 164.171 160.987 164.3 160.315 164.3ZM160.333 162.824C160.885 162.824 161.299 162.665 161.575 162.347C161.851 162.029 161.989 161.636 161.989 161.168C161.989 160.664 161.848 160.259 161.566 159.953C161.29 159.647 160.873 159.494 160.315 159.494C159.775 159.494 159.361 159.647 159.073 159.953C158.785 160.259 158.641 160.664 158.641 161.168C158.641 161.636 158.785 162.029 159.073 162.347C159.367 162.665 159.787 162.824 160.333 162.824ZM163.411 159.422L162.439 158.864C162.439 158.342 162.559 157.886 162.799 157.496C163.045 157.1 163.369 156.794 163.771 156.578C164.179 156.362 164.629 156.254 165.121 156.254L165.013 158.288C164.491 158.288 164.092 158.381 163.816 158.567C163.546 158.747 163.411 159.032 163.411 159.422ZM173.671 167V161.888C173.671 161.24 173.515 160.751 173.203 160.421C172.891 160.091 172.483 159.926 171.979 159.926C171.553 159.926 171.175 160.043 170.845 160.277C170.521 160.511 170.266 160.865 170.08 161.339C169.894 161.807 169.801 162.392 169.801 163.094H169.099C169.099 161.96 169.24 161.018 169.522 160.268C169.804 159.512 170.203 158.948 170.719 158.576C171.235 158.204 171.841 158.018 172.537 158.018C173.257 158.018 173.857 158.18 174.337 158.504C174.823 158.822 175.186 159.272 175.426 159.854C175.672 160.436 175.795 161.114 175.795 161.888V167H173.671ZM167.677 167V154.652H169.801V167H167.677ZM187.117 167.252C186.601 167.252 186.127 167.156 185.695 166.964C185.269 166.772 184.927 166.478 184.669 166.082C184.417 165.686 184.291 165.182 184.291 164.57V155.948H186.415V164.498C186.415 165.218 186.757 165.578 187.441 165.578C187.651 165.578 187.861 165.554 188.071 165.506C188.281 165.458 188.521 165.386 188.791 165.29L189.097 166.784C188.761 166.916 188.434 167.027 188.116 167.117C187.798 167.207 187.465 167.252 187.117 167.252ZM183.067 159.674V158.27H188.791V159.674H183.067ZM195.065 167.252C194.267 167.252 193.544 167.081 192.896 166.739C192.254 166.397 191.744 165.887 191.366 165.209C190.988 164.525 190.799 163.67 190.799 162.644C190.799 161.6 190.988 160.736 191.366 160.052C191.744 159.368 192.254 158.858 192.896 158.522C193.544 158.186 194.267 158.018 195.065 158.018C195.851 158.018 196.562 158.186 197.198 158.522C197.84 158.858 198.35 159.368 198.728 160.052C199.106 160.736 199.295 161.6 199.295 162.644C199.295 163.67 199.106 164.525 198.728 165.209C198.35 165.887 197.84 166.397 197.198 166.739C196.562 167.081 195.851 167.252 195.065 167.252ZM194.993 165.398C195.413 165.398 195.785 165.296 196.109 165.092C196.439 164.882 196.697 164.573 196.883 164.165C197.075 163.757 197.171 163.25 197.171 162.644C197.171 161.72 196.988 161.024 196.622 160.556C196.262 160.088 195.767 159.854 195.137 159.854C194.711 159.854 194.333 159.959 194.003 160.169C193.673 160.373 193.412 160.682 193.22 161.096C193.034 161.51 192.941 162.026 192.941 162.644C192.941 163.556 193.124 164.243 193.49 164.705C193.862 165.167 194.363 165.398 194.993 165.398ZM207.095 167V154.652H209.219V167H207.095ZM216.377 167.252C215.579 167.252 214.856 167.081 214.208 166.739C213.566 166.397 213.056 165.887 212.678 165.209C212.3 164.525 212.111 163.67 212.111 162.644C212.111 161.6 212.3 160.736 212.678 160.052C213.056 159.368 213.566 158.858 214.208 158.522C214.856 158.186 215.579 158.018 216.377 158.018C217.163 158.018 217.874 158.186 218.51 158.522C219.152 158.858 219.662 159.368 220.04 160.052C220.418 160.736 220.607 161.6 220.607 162.644C220.607 163.67 220.418 164.525 220.04 165.209C219.662 165.887 219.152 166.397 218.51 166.739C217.874 167.081 217.163 167.252 216.377 167.252ZM216.305 165.398C216.725 165.398 217.097 165.296 217.421 165.092C217.751 164.882 218.009 164.573 218.195 164.165C218.387 163.757 218.483 163.25 218.483 162.644C218.483 161.72 218.3 161.024 217.934 160.556C217.574 160.088 217.079 159.854 216.449 159.854C216.023 159.854 215.645 159.959 215.315 160.169C214.985 160.373 214.724 160.682 214.532 161.096C214.346 161.51 214.253 162.026 214.253 162.644C214.253 163.556 214.436 164.243 214.802 164.705C215.174 165.167 215.675 165.398 216.305 165.398ZM222.036 158.27H224.25L226.14 164.894H225.924L227.706 158.738H229.632L231.414 164.912H231.198L233.088 158.27H235.212L232.332 167H230.244L228.462 161.204H228.786L227.04 167H224.934L222.036 158.27Z" fill="#252525"/>
<circle cx="262.5" cy="161.5" r="7" stroke="#6B2DBC"/>
<path d="M22.571 118.234C21.791 118.234 21.074 118.096 20.42 117.82C19.766 117.538 19.238 117.121 18.836 116.569C18.44 116.017 18.233 115.327 18.215 114.499H19.889C19.889 114.997 20.009 115.405 20.249 115.723C20.495 116.041 20.819 116.278 21.221 116.434C21.623 116.584 22.067 116.659 22.553 116.659C23.045 116.659 23.48 116.584 23.858 116.434C24.236 116.284 24.527 116.083 24.731 115.831C24.941 115.579 25.046 115.291 25.046 114.967C25.046 114.529 24.911 114.178 24.641 113.914C24.371 113.644 23.96 113.416 23.408 113.23L21.275 112.438C20.357 112.096 19.658 111.703 19.178 111.259C18.698 110.809 18.458 110.185 18.458 109.387C18.458 108.481 18.812 107.746 19.52 107.182C20.228 106.612 21.224 106.327 22.508 106.327C23.726 106.327 24.671 106.609 25.343 107.173C26.021 107.737 26.408 108.505 26.504 109.477H24.821C24.737 108.985 24.506 108.595 24.128 108.307C23.756 108.019 23.216 107.875 22.508 107.875C21.824 107.875 21.29 108.025 20.906 108.325C20.522 108.619 20.33 108.991 20.33 109.441C20.33 109.813 20.45 110.11 20.69 110.332C20.936 110.554 21.317 110.755 21.833 110.935L24.263 111.826C25.097 112.12 25.748 112.516 26.216 113.014C26.684 113.512 26.918 114.145 26.918 114.913C26.918 115.561 26.75 116.134 26.414 116.632C26.078 117.13 25.586 117.523 24.938 117.811C24.29 118.093 23.501 118.234 22.571 118.234ZM33.5 118.234C32.714 118.234 32.009 118.063 31.385 117.721C30.767 117.379 30.278 116.869 29.918 116.191C29.558 115.513 29.378 114.676 29.378 113.68C29.378 112.666 29.558 111.823 29.918 111.151C30.278 110.473 30.767 109.963 31.385 109.621C32.009 109.279 32.714 109.108 33.5 109.108C34.274 109.108 34.97 109.279 35.588 109.621C36.206 109.963 36.692 110.473 37.046 111.151C37.406 111.823 37.586 112.666 37.586 113.68C37.586 114.676 37.406 115.513 37.046 116.191C36.692 116.869 36.206 117.379 35.588 117.721C34.97 118.063 34.274 118.234 33.5 118.234ZM33.446 116.74C33.944 116.74 34.373 116.62 34.733 116.38C35.099 116.14 35.378 115.792 35.57 115.336C35.768 114.874 35.867 114.322 35.867 113.68C35.867 112.696 35.666 111.934 35.264 111.394C34.868 110.854 34.295 110.584 33.545 110.584C33.041 110.584 32.606 110.707 32.24 110.953C31.88 111.193 31.601 111.544 31.403 112.006C31.211 112.462 31.115 113.02 31.115 113.68C31.115 114.646 31.316 115.399 31.718 115.939C32.12 116.473 32.696 116.74 33.446 116.74ZM40.5863 118V109.315H42.2963V118H40.5863ZM41.8283 114.13C41.8283 113.02 41.9423 112.099 42.1703 111.367C42.4043 110.629 42.7283 110.08 43.1423 109.72C43.5623 109.36 44.0543 109.18 44.6183 109.18C44.7863 109.18 44.9423 109.192 45.0863 109.216C45.2363 109.24 45.3833 109.273 45.5273 109.315L45.4643 111.016C45.3023 110.974 45.1253 110.938 44.9333 110.908C44.7473 110.872 44.5763 110.854 44.4203 110.854C43.9283 110.854 43.5263 110.986 43.2143 111.25C42.9023 111.508 42.6713 111.883 42.5213 112.375C42.3713 112.861 42.2963 113.446 42.2963 114.13H41.8283ZM50.4597 118.234C49.9678 118.234 49.5238 118.141 49.1277 117.955C48.7318 117.769 48.4168 117.49 48.1828 117.118C47.9548 116.74 47.8408 116.266 47.8408 115.696V106.984H49.5418V115.642C49.5418 116.458 49.9228 116.866 50.6848 116.866C50.9188 116.866 51.1468 116.842 51.3688 116.794C51.5908 116.74 51.8428 116.662 52.1248 116.56L52.3678 117.775C52.0498 117.907 51.7348 118.015 51.4227 118.099C51.1167 118.189 50.7957 118.234 50.4597 118.234ZM46.5177 110.503V109.342H52.1068V110.503H46.5177ZM63.8685 118.234C63.3045 118.234 62.7915 118.084 62.3295 117.784C61.8735 117.478 61.5075 117.028 61.2315 116.434C60.9615 115.84 60.8265 115.111 60.8265 114.247H61.4115C61.4115 114.751 61.5195 115.186 61.7355 115.552C61.9575 115.918 62.2395 116.2 62.5815 116.398C62.9235 116.59 63.2805 116.686 63.6525 116.686C64.0965 116.686 64.4955 116.563 64.8495 116.317C65.2095 116.071 65.4945 115.72 65.7045 115.264C65.9205 114.802 66.0285 114.259 66.0285 113.635C66.0285 113.017 65.9235 112.486 65.7135 112.042C65.5035 111.592 65.2185 111.247 64.8585 111.007C64.4985 110.761 64.0905 110.638 63.6345 110.638C63.2505 110.638 62.8875 110.731 62.5455 110.917C62.2095 111.103 61.9365 111.379 61.7265 111.745C61.5165 112.105 61.4115 112.546 61.4115 113.068H60.8265C60.8265 112.222 60.9585 111.505 61.2225 110.917C61.4865 110.329 61.8525 109.882 62.3205 109.576C62.7945 109.264 63.3495 109.108 63.9855 109.108C64.6755 109.108 65.3055 109.294 65.8755 109.666C66.4515 110.032 66.9105 110.554 67.2525 111.232C67.6005 111.91 67.7745 112.711 67.7745 113.635C67.7745 114.565 67.5975 115.375 67.2435 116.065C66.8895 116.749 66.4155 117.283 65.8215 117.667C65.2335 118.045 64.5825 118.234 63.8685 118.234ZM59.7015 118V105.697H61.4115V115.921L60.8625 118H59.7015ZM69.5126 109.342H71.4296L74.0396 116.506H73.6886L75.7856 109.342H77.5316L74.2466 119.665C73.9466 120.601 73.5596 121.3 73.0856 121.762C72.6176 122.23 72.0296 122.464 71.3216 122.464C70.9256 122.464 70.5446 122.413 70.1786 122.311C69.8186 122.209 69.4496 122.059 69.0716 121.861V120.322C69.3956 120.55 69.7076 120.715 70.0076 120.817C70.3076 120.919 70.6196 120.97 70.9436 120.97C71.2676 120.97 71.5436 120.871 71.7716 120.673C72.0056 120.481 72.2006 120.223 72.3566 119.899C72.5186 119.581 72.6566 119.233 72.7706 118.855L73.0316 118L69.5126 109.342ZM84.5352 118V106.318H88.6572C89.9712 106.318 90.9942 106.642 91.7262 107.29C92.4642 107.938 92.8332 108.856 92.8332 110.044C92.8332 111.22 92.4642 112.132 91.7262 112.78C90.9942 113.428 89.9712 113.752 88.6572 113.752H86.6772V118H84.5352ZM86.6772 111.898H88.6572C89.3172 111.898 89.8152 111.724 90.1512 111.376C90.4872 111.028 90.6552 110.584 90.6552 110.044C90.6552 109.492 90.4872 109.039 90.1512 108.685C89.8152 108.331 89.3172 108.154 88.6572 108.154H86.6772V111.898ZM95.3906 118V109.234H97.5146V118H95.3906ZM96.9926 114.166C96.9926 113.02 97.1216 112.072 97.3796 111.322C97.6376 110.572 97.9826 110.017 98.4146 109.657C98.8526 109.291 99.3386 109.108 99.8726 109.108C100.017 109.108 100.152 109.117 100.278 109.135C100.41 109.153 100.539 109.18 100.665 109.216L100.629 111.34C100.473 111.304 100.305 111.274 100.125 111.25C99.9446 111.226 99.7826 111.214 99.6386 111.214C99.1706 111.214 98.7776 111.328 98.4596 111.556C98.1476 111.778 97.9106 112.108 97.7486 112.546C97.5926 112.984 97.5146 113.524 97.5146 114.166H96.9926ZM104.059 107.668C103.645 107.668 103.321 107.56 103.087 107.344C102.859 107.122 102.745 106.816 102.745 106.426C102.745 106.048 102.859 105.748 103.087 105.526C103.321 105.298 103.645 105.184 104.059 105.184C104.467 105.184 104.788 105.298 105.022 105.526C105.256 105.748 105.373 106.048 105.373 106.426C105.373 106.816 105.256 107.122 105.022 107.344C104.788 107.56 104.467 107.668 104.059 107.668ZM102.997 118V109.234H105.121V118H102.997ZM112.395 118.252C111.663 118.252 110.982 118.063 110.352 117.685C109.728 117.301 109.221 116.764 108.831 116.074C108.447 115.378 108.255 114.562 108.255 113.626C108.255 112.636 108.447 111.799 108.831 111.115C109.221 110.425 109.728 109.903 110.352 109.549C110.982 109.195 111.663 109.018 112.395 109.018C112.965 109.018 113.466 109.111 113.898 109.297C114.336 109.477 114.708 109.723 115.014 110.035C115.32 110.341 115.56 110.683 115.734 111.061C115.908 111.439 116.019 111.82 116.067 112.204L113.925 112.258C113.829 111.874 113.649 111.556 113.385 111.304C113.127 111.052 112.791 110.926 112.377 110.926C112.035 110.926 111.714 111.022 111.414 111.214C111.114 111.4 110.868 111.691 110.676 112.087C110.49 112.483 110.397 112.996 110.397 113.626C110.397 114.226 110.484 114.727 110.658 115.129C110.838 115.525 111.078 115.825 111.378 116.029C111.678 116.227 112.011 116.326 112.377 116.326C112.917 116.326 113.31 116.197 113.556 115.939C113.802 115.675 113.925 115.324 113.925 114.886H116.067C116.067 115.504 115.926 116.068 115.644 116.578C115.362 117.088 114.948 117.496 114.402 117.802C113.856 118.102 113.187 118.252 112.395 118.252ZM122.229 118.252C121.485 118.252 120.804 118.06 120.186 117.676C119.568 117.292 119.073 116.755 118.701 116.065C118.329 115.369 118.143 114.556 118.143 113.626C118.143 112.666 118.326 111.841 118.692 111.151C119.064 110.461 119.559 109.933 120.177 109.567C120.795 109.201 121.479 109.018 122.229 109.018C122.925 109.018 123.525 109.159 124.029 109.441C124.539 109.717 124.947 110.095 125.253 110.575C125.565 111.049 125.775 111.586 125.883 112.186C125.991 112.786 125.997 113.404 125.901 114.04H119.835V112.888H124.398L123.984 113.158C124.002 112.876 123.987 112.591 123.939 112.303C123.897 112.015 123.813 111.751 123.687 111.511C123.561 111.271 123.381 111.079 123.147 110.935C122.919 110.785 122.625 110.71 122.265 110.71C121.833 110.71 121.467 110.818 121.167 111.034C120.867 111.25 120.639 111.544 120.483 111.916C120.327 112.288 120.249 112.708 120.249 113.176V114.022C120.249 114.514 120.321 114.949 120.465 115.327C120.615 115.705 120.834 116.002 121.122 116.218C121.416 116.434 121.785 116.542 122.229 116.542C122.643 116.542 122.991 116.446 123.273 116.254C123.555 116.062 123.735 115.774 123.813 115.39H125.955C125.865 115.954 125.652 116.452 125.316 116.884C124.986 117.31 124.557 117.646 124.029 117.892C123.501 118.132 122.901 118.252 122.229 118.252ZM128.119 116.452C128.119 116.044 128.257 115.702 128.533 115.426C128.809 115.15 129.163 115.012 129.595 115.012C130.027 115.012 130.387 115.15 130.675 115.426C130.963 115.702 131.107 116.044 131.107 116.452C131.107 116.854 130.963 117.19 130.675 117.46C130.387 117.724 130.027 117.856 129.595 117.856C129.163 117.856 128.809 117.721 128.533 117.451C128.257 117.181 128.119 116.848 128.119 116.452ZM128.119 111.088C128.119 110.68 128.257 110.338 128.533 110.062C128.809 109.786 129.163 109.648 129.595 109.648C130.027 109.648 130.387 109.786 130.675 110.062C130.963 110.338 131.107 110.68 131.107 111.088C131.107 111.49 130.963 111.826 130.675 112.096C130.387 112.36 130.027 112.492 129.595 112.492C129.163 112.492 128.809 112.357 128.533 112.087C128.257 111.817 128.119 111.484 128.119 111.088ZM139 118V105.652H141.124V118H139ZM148.282 118.252C147.484 118.252 146.761 118.081 146.113 117.739C145.471 117.397 144.961 116.887 144.583 116.209C144.205 115.525 144.016 114.67 144.016 113.644C144.016 112.6 144.205 111.736 144.583 111.052C144.961 110.368 145.471 109.858 146.113 109.522C146.761 109.186 147.484 109.018 148.282 109.018C149.068 109.018 149.779 109.186 150.415 109.522C151.057 109.858 151.567 110.368 151.945 111.052C152.323 111.736 152.512 112.6 152.512 113.644C152.512 114.67 152.323 115.525 151.945 116.209C151.567 116.887 151.057 117.397 150.415 117.739C149.779 118.081 149.068 118.252 148.282 118.252ZM148.21 116.398C148.63 116.398 149.002 116.296 149.326 116.092C149.656 115.882 149.914 115.573 150.1 115.165C150.292 114.757 150.388 114.25 150.388 113.644C150.388 112.72 150.205 112.024 149.839 111.556C149.479 111.088 148.984 110.854 148.354 110.854C147.928 110.854 147.55 110.959 147.22 111.169C146.89 111.373 146.629 111.682 146.437 112.096C146.251 112.51 146.158 113.026 146.158 113.644C146.158 114.556 146.341 115.243 146.707 115.705C147.079 116.167 147.58 116.398 148.21 116.398ZM153.941 109.27H156.155L158.045 115.894H157.829L159.611 109.738H161.537L163.319 115.912H163.103L164.993 109.27H167.117L164.237 118H162.149L160.367 112.204H160.691L158.945 118H156.839L153.941 109.27ZM177.265 118.252C176.749 118.252 176.275 118.156 175.843 117.964C175.417 117.772 175.075 117.478 174.817 117.082C174.565 116.686 174.439 116.182 174.439 115.57V106.948H176.563V115.498C176.563 116.218 176.905 116.578 177.589 116.578C177.799 116.578 178.009 116.554 178.219 116.506C178.429 116.458 178.669 116.386 178.939 116.29L179.245 117.784C178.909 117.916 178.582 118.027 178.264 118.117C177.946 118.207 177.613 118.252 177.265 118.252ZM173.215 110.674V109.27H178.939V110.674H173.215ZM185.212 118.252C184.414 118.252 183.691 118.081 183.043 117.739C182.401 117.397 181.891 116.887 181.513 116.209C181.135 115.525 180.946 114.67 180.946 113.644C180.946 112.6 181.135 111.736 181.513 111.052C181.891 110.368 182.401 109.858 183.043 109.522C183.691 109.186 184.414 109.018 185.212 109.018C185.998 109.018 186.709 109.186 187.345 109.522C187.987 109.858 188.497 110.368 188.875 111.052C189.253 111.736 189.442 112.6 189.442 113.644C189.442 114.67 189.253 115.525 188.875 116.209C188.497 116.887 187.987 117.397 187.345 117.739C186.709 118.081 185.998 118.252 185.212 118.252ZM185.14 116.398C185.56 116.398 185.932 116.296 186.256 116.092C186.586 115.882 186.844 115.573 187.03 115.165C187.222 114.757 187.318 114.25 187.318 113.644C187.318 112.72 187.135 112.024 186.769 111.556C186.409 111.088 185.914 110.854 185.284 110.854C184.858 110.854 184.48 110.959 184.15 111.169C183.82 111.373 183.559 111.682 183.367 112.096C183.181 112.51 183.088 113.026 183.088 113.644C183.088 114.556 183.271 115.243 183.637 115.705C184.009 116.167 184.51 116.398 185.14 116.398ZM203.236 118V112.888C203.236 112.24 203.08 111.751 202.768 111.421C202.456 111.091 202.048 110.926 201.544 110.926C201.118 110.926 200.74 111.043 200.41 111.277C200.086 111.511 199.831 111.865 199.645 112.339C199.459 112.807 199.366 113.392 199.366 114.094H198.664C198.664 112.96 198.805 112.018 199.087 111.268C199.369 110.512 199.768 109.948 200.284 109.576C200.8 109.204 201.406 109.018 202.102 109.018C202.822 109.018 203.422 109.18 203.902 109.504C204.388 109.822 204.751 110.272 204.991 110.854C205.237 111.436 205.36 112.114 205.36 112.888V118H203.236ZM197.242 118V105.652H199.366V118H197.242ZM210.059 107.668C209.645 107.668 209.321 107.56 209.087 107.344C208.859 107.122 208.745 106.816 208.745 106.426C208.745 106.048 208.859 105.748 209.087 105.526C209.321 105.298 209.645 105.184 210.059 105.184C210.467 105.184 210.788 105.298 211.022 105.526C211.256 105.748 211.373 106.048 211.373 106.426C211.373 106.816 211.256 107.122 211.022 107.344C210.788 107.56 210.467 107.668 210.059 107.668ZM208.997 118V109.234H211.121V118H208.997ZM218.45 122.518C217.448 122.518 216.59 122.38 215.876 122.104C215.168 121.828 214.625 121.465 214.247 121.015C213.869 120.571 213.68 120.088 213.68 119.566C213.68 118.948 213.905 118.468 214.355 118.126C214.805 117.79 215.372 117.622 216.056 117.622L217.604 118.198C217.016 118.198 216.563 118.309 216.245 118.531C215.927 118.753 215.768 119.062 215.768 119.458C215.768 119.872 216.005 120.202 216.479 120.448C216.959 120.7 217.616 120.826 218.45 120.826C219.056 120.826 219.581 120.736 220.025 120.556C220.469 120.376 220.811 120.142 221.051 119.854C221.297 119.566 221.42 119.26 221.42 118.936C221.42 118.72 221.348 118.543 221.204 118.405C221.06 118.267 220.838 118.198 220.538 118.198H217.604C217.016 118.198 216.479 118.105 215.993 117.919C215.513 117.727 215.129 117.472 214.841 117.154C214.559 116.83 214.418 116.47 214.418 116.074C214.418 115.708 214.52 115.393 214.724 115.129C214.928 114.859 215.204 114.652 215.552 114.508C215.906 114.364 216.302 114.292 216.74 114.292L217.28 114.994C217.106 114.994 216.938 115.03 216.776 115.102C216.62 115.168 216.491 115.267 216.389 115.399C216.287 115.531 216.236 115.696 216.236 115.894C216.236 116.134 216.338 116.329 216.542 116.479C216.746 116.629 217.1 116.704 217.604 116.704H220.538C221.468 116.704 222.197 116.875 222.725 117.217C223.259 117.559 223.526 118.084 223.526 118.792C223.526 119.422 223.319 120.019 222.905 120.583C222.491 121.153 221.903 121.618 221.141 121.978C220.385 122.338 219.488 122.518 218.45 122.518ZM218.558 115.3C217.868 115.3 217.235 115.171 216.659 114.913C216.089 114.649 215.633 114.283 215.291 113.815C214.949 113.347 214.778 112.798 214.778 112.168C214.778 111.526 214.949 110.968 215.291 110.494C215.633 110.02 216.089 109.657 216.659 109.405C217.235 109.147 217.868 109.018 218.558 109.018C219.23 109.018 219.851 109.147 220.421 109.405C220.991 109.657 221.45 110.02 221.798 110.494C222.146 110.968 222.32 111.526 222.32 112.168C222.32 112.798 222.146 113.347 221.798 113.815C221.45 114.283 220.991 114.649 220.421 114.913C219.851 115.171 219.23 115.3 218.558 115.3ZM218.576 113.824C219.128 113.824 219.542 113.665 219.818 113.347C220.094 113.029 220.232 112.636 220.232 112.168C220.232 111.664 220.091 111.259 219.809 110.953C219.533 110.647 219.116 110.494 218.558 110.494C218.018 110.494 217.604 110.647 217.316 110.953C217.028 111.259 216.884 111.664 216.884 112.168C216.884 112.636 217.028 113.029 217.316 113.347C217.61 113.665 218.03 113.824 218.576 113.824ZM221.654 110.422L220.682 109.864C220.682 109.342 220.802 108.886 221.042 108.496C221.288 108.1 221.612 107.794 222.014 107.578C222.422 107.362 222.872 107.254 223.364 107.254L223.256 109.288C222.734 109.288 222.335 109.381 222.059 109.567C221.789 109.747 221.654 110.032 221.654 110.422ZM231.914 118V112.888C231.914 112.24 231.758 111.751 231.446 111.421C231.134 111.091 230.726 110.926 230.222 110.926C229.796 110.926 229.418 111.043 229.088 111.277C228.764 111.511 228.509 111.865 228.323 112.339C228.137 112.807 228.044 113.392 228.044 114.094H227.342C227.342 112.96 227.483 112.018 227.765 111.268C228.047 110.512 228.446 109.948 228.962 109.576C229.478 109.204 230.084 109.018 230.78 109.018C231.5 109.018 232.1 109.18 232.58 109.504C233.066 109.822 233.429 110.272 233.669 110.854C233.915 111.436 234.038 112.114 234.038 112.888V118H231.914ZM225.92 118V105.652H228.044V118H225.92Z" fill="#252525"/>
<circle cx="262.5" cy="112.5" r="5" stroke="#6B2DBC" stroke-width="5"/>
<path d="M22.571 69.234C21.791 69.234 21.074 69.096 20.42 68.82C19.766 68.538 19.238 68.121 18.836 67.569C18.44 67.017 18.233 66.327 18.215 65.499H19.889C19.889 65.997 20.009 66.405 20.249 66.723C20.495 67.041 20.819 67.278 21.221 67.434C21.623 67.584 22.067 67.659 22.553 67.659C23.045 67.659 23.48 67.584 23.858 67.434C24.236 67.284 24.527 67.083 24.731 66.831C24.941 66.579 25.046 66.291 25.046 65.967C25.046 65.529 24.911 65.178 24.641 64.914C24.371 64.644 23.96 64.416 23.408 64.23L21.275 63.438C20.357 63.096 19.658 62.703 19.178 62.259C18.698 61.809 18.458 61.185 18.458 60.387C18.458 59.481 18.812 58.746 19.52 58.182C20.228 57.612 21.224 57.327 22.508 57.327C23.726 57.327 24.671 57.609 25.343 58.173C26.021 58.737 26.408 59.505 26.504 60.477H24.821C24.737 59.985 24.506 59.595 24.128 59.307C23.756 59.019 23.216 58.875 22.508 58.875C21.824 58.875 21.29 59.025 20.906 59.325C20.522 59.619 20.33 59.991 20.33 60.441C20.33 60.813 20.45 61.11 20.69 61.332C20.936 61.554 21.317 61.755 21.833 61.935L24.263 62.826C25.097 63.12 25.748 63.516 26.216 64.014C26.684 64.512 26.918 65.145 26.918 65.913C26.918 66.561 26.75 67.134 26.414 67.632C26.078 68.13 25.586 68.523 24.938 68.811C24.29 69.093 23.501 69.234 22.571 69.234ZM33.5 69.234C32.714 69.234 32.009 69.063 31.385 68.721C30.767 68.379 30.278 67.869 29.918 67.191C29.558 66.513 29.378 65.676 29.378 64.68C29.378 63.666 29.558 62.823 29.918 62.151C30.278 61.473 30.767 60.963 31.385 60.621C32.009 60.279 32.714 60.108 33.5 60.108C34.274 60.108 34.97 60.279 35.588 60.621C36.206 60.963 36.692 61.473 37.046 62.151C37.406 62.823 37.586 63.666 37.586 64.68C37.586 65.676 37.406 66.513 37.046 67.191C36.692 67.869 36.206 68.379 35.588 68.721C34.97 69.063 34.274 69.234 33.5 69.234ZM33.446 67.74C33.944 67.74 34.373 67.62 34.733 67.38C35.099 67.14 35.378 66.792 35.57 66.336C35.768 65.874 35.867 65.322 35.867 64.68C35.867 63.696 35.666 62.934 35.264 62.394C34.868 61.854 34.295 61.584 33.545 61.584C33.041 61.584 32.606 61.707 32.24 61.953C31.88 62.193 31.601 62.544 31.403 63.006C31.211 63.462 31.115 64.02 31.115 64.68C31.115 65.646 31.316 66.399 31.718 66.939C32.12 67.473 32.696 67.74 33.446 67.74ZM40.5863 69V60.315H42.2963V69H40.5863ZM41.8283 65.13C41.8283 64.02 41.9423 63.099 42.1703 62.367C42.4043 61.629 42.7283 61.08 43.1423 60.72C43.5623 60.36 44.0543 60.18 44.6183 60.18C44.7863 60.18 44.9423 60.192 45.0863 60.216C45.2363 60.24 45.3833 60.273 45.5273 60.315L45.4643 62.016C45.3023 61.974 45.1253 61.938 44.9333 61.908C44.7473 61.872 44.5763 61.854 44.4203 61.854C43.9283 61.854 43.5263 61.986 43.2143 62.25C42.9023 62.508 42.6713 62.883 42.5213 63.375C42.3713 63.861 42.2963 64.446 42.2963 65.13H41.8283ZM50.4597 69.234C49.9678 69.234 49.5238 69.141 49.1277 68.955C48.7318 68.769 48.4168 68.49 48.1828 68.118C47.9548 67.74 47.8408 67.266 47.8408 66.696V57.984H49.5418V66.642C49.5418 67.458 49.9228 67.866 50.6848 67.866C50.9188 67.866 51.1468 67.842 51.3688 67.794C51.5908 67.74 51.8428 67.662 52.1248 67.56L52.3678 68.775C52.0498 68.907 51.7348 69.015 51.4227 69.099C51.1167 69.189 50.7957 69.234 50.4597 69.234ZM46.5177 61.503V60.342H52.1068V61.503H46.5177ZM63.8685 69.234C63.3045 69.234 62.7915 69.084 62.3295 68.784C61.8735 68.478 61.5075 68.028 61.2315 67.434C60.9615 66.84 60.8265 66.111 60.8265 65.247H61.4115C61.4115 65.751 61.5195 66.186 61.7355 66.552C61.9575 66.918 62.2395 67.2 62.5815 67.398C62.9235 67.59 63.2805 67.686 63.6525 67.686C64.0965 67.686 64.4955 67.563 64.8495 67.317C65.2095 67.071 65.4945 66.72 65.7045 66.264C65.9205 65.802 66.0285 65.259 66.0285 64.635C66.0285 64.017 65.9235 63.486 65.7135 63.042C65.5035 62.592 65.2185 62.247 64.8585 62.007C64.4985 61.761 64.0905 61.638 63.6345 61.638C63.2505 61.638 62.8875 61.731 62.5455 61.917C62.2095 62.103 61.9365 62.379 61.7265 62.745C61.5165 63.105 61.4115 63.546 61.4115 64.068H60.8265C60.8265 63.222 60.9585 62.505 61.2225 61.917C61.4865 61.329 61.8525 60.882 62.3205 60.576C62.7945 60.264 63.3495 60.108 63.9855 60.108C64.6755 60.108 65.3055 60.294 65.8755 60.666C66.4515 61.032 66.9105 61.554 67.2525 62.232C67.6005 62.91 67.7745 63.711 67.7745 64.635C67.7745 65.565 67.5975 66.375 67.2435 67.065C66.8895 67.749 66.4155 68.283 65.8215 68.667C65.2335 69.045 64.5825 69.234 63.8685 69.234ZM59.7015 69V56.697H61.4115V66.921L60.8625 69H59.7015ZM69.5126 60.342H71.4296L74.0396 67.506H73.6886L75.7856 60.342H77.5316L74.2466 70.665C73.9466 71.601 73.5596 72.3 73.0856 72.762C72.6176 73.23 72.0296 73.464 71.3216 73.464C70.9256 73.464 70.5446 73.413 70.1786 73.311C69.8186 73.209 69.4496 73.059 69.0716 72.861V71.322C69.3956 71.55 69.7076 71.715 70.0076 71.817C70.3076 71.919 70.6196 71.97 70.9436 71.97C71.2676 71.97 71.5436 71.871 71.7716 71.673C72.0056 71.481 72.2006 71.223 72.3566 70.899C72.5186 70.581 72.6566 70.233 72.7706 69.855L73.0316 69L69.5126 60.342ZM84.5892 57.318H88.3692C89.5572 57.318 90.5982 57.558 91.4922 58.038C92.3862 58.512 93.0822 59.187 93.5802 60.063C94.0782 60.939 94.3272 61.974 94.3272 63.168C94.3272 64.35 94.0782 65.379 93.5802 66.255C93.0822 67.125 92.3862 67.8 91.4922 68.28C90.5982 68.76 89.5572 69 88.3692 69H84.5892V57.318ZM86.7132 59.244V67.092H88.3692C89.1252 67.092 89.7762 66.921 90.3222 66.579C90.8742 66.237 91.2972 65.772 91.5912 65.184C91.8912 64.59 92.0412 63.918 92.0412 63.168C92.0412 62.406 91.8912 61.731 91.5912 61.143C91.2972 60.555 90.8742 60.093 90.3222 59.757C89.7762 59.415 89.1252 59.244 88.3692 59.244H86.7132ZM100.565 69.252C99.8206 69.252 99.1396 69.06 98.5216 68.676C97.9036 68.292 97.4086 67.755 97.0366 67.065C96.6646 66.369 96.4786 65.556 96.4786 64.626C96.4786 63.666 96.6616 62.841 97.0276 62.151C97.3996 61.461 97.8946 60.933 98.5126 60.567C99.1306 60.201 99.8146 60.018 100.565 60.018C101.261 60.018 101.861 60.159 102.365 60.441C102.875 60.717 103.283 61.095 103.589 61.575C103.901 62.049 104.111 62.586 104.219 63.186C104.327 63.786 104.333 64.404 104.237 65.04H98.1706V63.888H102.734L102.32 64.158C102.338 63.876 102.323 63.591 102.275 63.303C102.233 63.015 102.149 62.751 102.023 62.511C101.897 62.271 101.717 62.079 101.483 61.935C101.255 61.785 100.961 61.71 100.601 61.71C100.169 61.71 99.8026 61.818 99.5026 62.034C99.2026 62.25 98.9746 62.544 98.8186 62.916C98.6626 63.288 98.5846 63.708 98.5846 64.176V65.022C98.5846 65.514 98.6566 65.949 98.8006 66.327C98.9506 66.705 99.1696 67.002 99.4576 67.218C99.7516 67.434 100.121 67.542 100.565 67.542C100.979 67.542 101.327 67.446 101.609 67.254C101.891 67.062 102.071 66.774 102.149 66.39H104.291C104.201 66.954 103.988 67.452 103.652 67.884C103.322 68.31 102.893 68.646 102.365 68.892C101.837 69.132 101.237 69.252 100.565 69.252ZM107.715 69V59.208C107.715 58.578 107.838 58.065 108.084 57.669C108.33 57.273 108.654 56.982 109.056 56.796C109.464 56.604 109.905 56.508 110.379 56.508C110.673 56.508 110.976 56.529 111.288 56.571C111.6 56.613 111.903 56.664 112.197 56.724L111.783 58.362C111.633 58.308 111.477 58.266 111.315 58.236C111.153 58.2 110.997 58.182 110.847 58.182C110.679 58.182 110.52 58.215 110.37 58.281C110.22 58.341 110.097 58.449 110.001 58.605C109.905 58.761 109.857 58.974 109.857 59.244V69H107.715ZM106.419 61.674V60.27H111.459V61.674H106.419ZM119.743 69L119.473 66.876V63.366C119.473 62.754 119.347 62.301 119.095 62.007C118.849 61.713 118.429 61.566 117.835 61.566C117.493 61.566 117.196 61.617 116.944 61.719C116.692 61.821 116.497 61.968 116.359 62.16C116.227 62.346 116.161 62.574 116.161 62.844H113.839C113.839 62.184 113.998 61.647 114.316 61.233C114.634 60.813 115.09 60.507 115.684 60.315C116.284 60.117 117.001 60.018 117.835 60.018C118.591 60.018 119.251 60.141 119.815 60.387C120.379 60.627 120.817 60.999 121.129 61.503C121.441 62.007 121.597 62.652 121.597 63.438V69H119.743ZM116.881 69.252C116.131 69.252 115.504 69.123 115 68.865C114.502 68.601 114.127 68.256 113.875 67.83C113.623 67.404 113.497 66.942 113.497 66.444C113.497 65.892 113.641 65.43 113.929 65.058C114.223 64.68 114.637 64.398 115.171 64.212C115.705 64.02 116.335 63.924 117.061 63.924C117.535 63.924 117.982 63.96 118.402 64.032C118.828 64.104 119.251 64.2 119.671 64.32V65.562C119.341 65.454 118.981 65.37 118.591 65.31C118.201 65.25 117.835 65.22 117.493 65.22C116.989 65.22 116.575 65.313 116.251 65.499C115.927 65.685 115.765 66 115.765 66.444C115.765 66.768 115.897 67.047 116.161 67.281C116.425 67.515 116.845 67.632 117.421 67.632C117.859 67.632 118.231 67.536 118.537 67.344C118.843 67.152 119.074 66.912 119.23 66.624C119.392 66.336 119.473 66.048 119.473 65.76H119.977C119.977 66.39 119.86 66.972 119.626 67.506C119.392 68.034 119.044 68.457 118.582 68.775C118.126 69.093 117.559 69.252 116.881 69.252ZM130.884 60.234H133.008V69H130.884V60.234ZM124.89 60.234H127.014V65.598C127.014 66.168 127.155 66.597 127.437 66.885C127.719 67.167 128.106 67.308 128.598 67.308C129.018 67.308 129.399 67.2 129.741 66.984C130.089 66.762 130.365 66.438 130.569 66.012C130.779 65.58 130.884 65.046 130.884 64.41H131.46C131.46 65.478 131.322 66.363 131.046 67.065C130.77 67.767 130.389 68.292 129.903 68.64C129.417 68.988 128.856 69.162 128.22 69.162C127.596 69.162 127.032 69.051 126.528 68.829C126.024 68.607 125.625 68.25 125.331 67.758C125.037 67.266 124.89 66.618 124.89 65.814V60.234ZM136.715 69V56.652H138.839V69H136.715ZM145.512 69.252C144.996 69.252 144.522 69.156 144.09 68.964C143.664 68.772 143.322 68.478 143.064 68.082C142.812 67.686 142.686 67.182 142.686 66.57V57.948H144.81V66.498C144.81 67.218 145.152 67.578 145.836 67.578C146.046 67.578 146.256 67.554 146.466 67.506C146.676 67.458 146.916 67.386 147.186 67.29L147.492 68.784C147.156 68.916 146.829 69.027 146.511 69.117C146.193 69.207 145.86 69.252 145.512 69.252ZM141.462 61.674V60.27H147.186V61.674H141.462Z" fill="#252525"/>
<circle cx="262.5" cy="63.5" r="7" stroke="#6B2DBC"/>
<path d="M22.571 20.234C21.791 20.234 21.074 20.096 20.42 19.82C19.766 19.538 19.238 19.121 18.836 18.569C18.44 18.017 18.233 17.327 18.215 16.499H19.889C19.889 16.997 20.009 17.405 20.249 17.723C20.495 18.041 20.819 18.278 21.221 18.434C21.623 18.584 22.067 18.659 22.553 18.659C23.045 18.659 23.48 18.584 23.858 18.434C24.236 18.284 24.527 18.083 24.731 17.831C24.941 17.579 25.046 17.291 25.046 16.967C25.046 16.529 24.911 16.178 24.641 15.914C24.371 15.644 23.96 15.416 23.408 15.23L21.275 14.438C20.357 14.096 19.658 13.703 19.178 13.259C18.698 12.809 18.458 12.185 18.458 11.387C18.458 10.481 18.812 9.746 19.52 9.182C20.228 8.612 21.224 8.327 22.508 8.327C23.726 8.327 24.671 8.609 25.343 9.173C26.021 9.737 26.408 10.505 26.504 11.477H24.821C24.737 10.985 24.506 10.595 24.128 10.307C23.756 10.019 23.216 9.875 22.508 9.875C21.824 9.875 21.29 10.025 20.906 10.325C20.522 10.619 20.33 10.991 20.33 11.441C20.33 11.813 20.45 12.11 20.69 12.332C20.936 12.554 21.317 12.755 21.833 12.935L24.263 13.826C25.097 14.12 25.748 14.516 26.216 15.014C26.684 15.512 26.918 16.145 26.918 16.913C26.918 17.561 26.75 18.134 26.414 18.632C26.078 19.13 25.586 19.523 24.938 19.811C24.29 20.093 23.501 20.234 22.571 20.234ZM33.5 20.234C32.714 20.234 32.009 20.063 31.385 19.721C30.767 19.379 30.278 18.869 29.918 18.191C29.558 17.513 29.378 16.676 29.378 15.68C29.378 14.666 29.558 13.823 29.918 13.151C30.278 12.473 30.767 11.963 31.385 11.621C32.009 11.279 32.714 11.108 33.5 11.108C34.274 11.108 34.97 11.279 35.588 11.621C36.206 11.963 36.692 12.473 37.046 13.151C37.406 13.823 37.586 14.666 37.586 15.68C37.586 16.676 37.406 17.513 37.046 18.191C36.692 18.869 36.206 19.379 35.588 19.721C34.97 20.063 34.274 20.234 33.5 20.234ZM33.446 18.74C33.944 18.74 34.373 18.62 34.733 18.38C35.099 18.14 35.378 17.792 35.57 17.336C35.768 16.874 35.867 16.322 35.867 15.68C35.867 14.696 35.666 13.934 35.264 13.394C34.868 12.854 34.295 12.584 33.545 12.584C33.041 12.584 32.606 12.707 32.24 12.953C31.88 13.193 31.601 13.544 31.403 14.006C31.211 14.462 31.115 15.02 31.115 15.68C31.115 16.646 31.316 17.399 31.718 17.939C32.12 18.473 32.696 18.74 33.446 18.74ZM40.5863 20V11.315H42.2963V20H40.5863ZM41.8283 16.13C41.8283 15.02 41.9423 14.099 42.1703 13.367C42.4043 12.629 42.7283 12.08 43.1423 11.72C43.5623 11.36 44.0543 11.18 44.6183 11.18C44.7863 11.18 44.9423 11.192 45.0863 11.216C45.2363 11.24 45.3833 11.273 45.5273 11.315L45.4643 13.016C45.3023 12.974 45.1253 12.938 44.9333 12.908C44.7473 12.872 44.5763 12.854 44.4203 12.854C43.9283 12.854 43.5263 12.986 43.2143 13.25C42.9023 13.508 42.6713 13.883 42.5213 14.375C42.3713 14.861 42.2963 15.446 42.2963 16.13H41.8283ZM50.4597 20.234C49.9678 20.234 49.5238 20.141 49.1277 19.955C48.7318 19.769 48.4168 19.49 48.1828 19.118C47.9548 18.74 47.8408 18.266 47.8408 17.696V8.984H49.5418V17.642C49.5418 18.458 49.9228 18.866 50.6848 18.866C50.9188 18.866 51.1468 18.842 51.3688 18.794C51.5908 18.74 51.8428 18.662 52.1248 18.56L52.3678 19.775C52.0498 19.907 51.7348 20.015 51.4227 20.099C51.1167 20.189 50.7957 20.234 50.4597 20.234ZM46.5177 12.503V11.342H52.1068V12.503H46.5177ZM63.8685 20.234C63.3045 20.234 62.7915 20.084 62.3295 19.784C61.8735 19.478 61.5075 19.028 61.2315 18.434C60.9615 17.84 60.8265 17.111 60.8265 16.247H61.4115C61.4115 16.751 61.5195 17.186 61.7355 17.552C61.9575 17.918 62.2395 18.2 62.5815 18.398C62.9235 18.59 63.2805 18.686 63.6525 18.686C64.0965 18.686 64.4955 18.563 64.8495 18.317C65.2095 18.071 65.4945 17.72 65.7045 17.264C65.9205 16.802 66.0285 16.259 66.0285 15.635C66.0285 15.017 65.9235 14.486 65.7135 14.042C65.5035 13.592 65.2185 13.247 64.8585 13.007C64.4985 12.761 64.0905 12.638 63.6345 12.638C63.2505 12.638 62.8875 12.731 62.5455 12.917C62.2095 13.103 61.9365 13.379 61.7265 13.745C61.5165 14.105 61.4115 14.546 61.4115 15.068H60.8265C60.8265 14.222 60.9585 13.505 61.2225 12.917C61.4865 12.329 61.8525 11.882 62.3205 11.576C62.7945 11.264 63.3495 11.108 63.9855 11.108C64.6755 11.108 65.3055 11.294 65.8755 11.666C66.4515 12.032 66.9105 12.554 67.2525 13.232C67.6005 13.91 67.7745 14.711 67.7745 15.635C67.7745 16.565 67.5975 17.375 67.2435 18.065C66.8895 18.749 66.4155 19.283 65.8215 19.667C65.2335 20.045 64.5825 20.234 63.8685 20.234ZM59.7015 20V7.697H61.4115V17.921L60.8625 20H59.7015ZM69.5126 11.342H71.4296L74.0396 18.506H73.6886L75.7856 11.342H77.5316L74.2466 21.665C73.9466 22.601 73.5596 23.3 73.0856 23.762C72.6176 24.23 72.0296 24.464 71.3216 24.464C70.9256 24.464 70.5446 24.413 70.1786 24.311C69.8186 24.209 69.4496 24.059 69.0716 23.861V22.322C69.3956 22.55 69.7076 22.715 70.0076 22.817C70.3076 22.919 70.6196 22.97 70.9436 22.97C71.2676 22.97 71.5436 22.871 71.7716 22.673C72.0056 22.481 72.2006 22.223 72.3566 21.899C72.5186 21.581 72.6566 21.233 72.7706 20.855L73.0316 20L69.5126 11.342Z" fill="#252525"/>
<path d="M257.354 6.64645C257.158 6.45118 256.842 6.45118 256.646 6.64645L253.464 9.82843C253.269 10.0237 253.269 10.3403 253.464 10.5355C253.66 10.7308 253.976 10.7308 254.172 10.5355L257 7.70711L259.828 10.5355C260.024 10.7308 260.34 10.7308 260.536 10.5355C260.731 10.3403 260.731 10.0237 260.536 9.82843L257.354 6.64645ZM256.5 21C256.5 21.2761 256.724 21.5 257 21.5C257.276 21.5 257.5 21.2761 257.5 21H256.5ZM256.5 7V21H257.5V7H256.5Z" fill="black"/>
<path d="M267.646 21.3536C267.842 21.5488 268.158 21.5488 268.354 21.3536L271.536 18.1716C271.731 17.9763 271.731 17.6597 271.536 17.4645C271.34 17.2692 271.024 17.2692 270.828 17.4645L268 20.2929L265.172 17.4645C264.976 17.2692 264.66 17.2692 264.464 17.4645C264.269 17.6597 264.269 17.9763 264.464 18.1716L267.646 21.3536ZM268.5 7C268.5 6.72386 268.276 6.5 268 6.5C267.724 6.5 267.5 6.72386 267.5 7H268.5ZM268.5 21V7H267.5V21H268.5Z" fill="black"/>
<defs>
<filter id="filter0_b_442_892" x="-15" y="-15" width="315" height="215" filterUnits="userSpaceOnUse" color-interpolation-filters="sRGB">
<feFlood flood-opacity="0" result="BackgroundImageFix"/>
<feGaussianBlur in="BackgroundImageFix" stdDeviation="7.5"/>
<feComposite in2="SourceAlpha" operator="in" result="effect1_backgroundBlur_442_892"/>
<feBlend mode="normal" in="SourceGraphic" in2="effect1_backgroundBlur_442_892" result="shape"/>
</filter>
</defs>
</svg>
