<svg width="285" height="29" viewBox="0 0 285 29" fill="none" xmlns="http://www.w3.org/2000/svg">
<g filter="url(#filter0_b_442_895)">
<rect width="285" height="29" rx="7" fill="#F4F4F4" fill-opacity="0.95"/>
</g>
<path d="M22.571 20.234C21.791 20.234 21.074 20.096 20.42 19.82C19.766 19.538 19.238 19.121 18.836 18.569C18.44 18.017 18.233 17.327 18.215 16.499H19.889C19.889 16.997 20.009 17.405 20.249 17.723C20.495 18.041 20.819 18.278 21.221 18.434C21.623 18.584 22.067 18.659 22.553 18.659C23.045 18.659 23.48 18.584 23.858 18.434C24.236 18.284 24.527 18.083 24.731 17.831C24.941 17.579 25.046 17.291 25.046 16.967C25.046 16.529 24.911 16.178 24.641 15.914C24.371 15.644 23.96 15.416 23.408 15.23L21.275 14.438C20.357 14.096 19.658 13.703 19.178 13.259C18.698 12.809 18.458 12.185 18.458 11.387C18.458 10.481 18.812 9.746 19.52 9.182C20.228 8.612 21.224 8.327 22.508 8.327C23.726 8.327 24.671 8.609 25.343 9.173C26.021 9.737 26.408 10.505 26.504 11.477H24.821C24.737 10.985 24.506 10.595 24.128 10.307C23.756 10.019 23.216 9.875 22.508 9.875C21.824 9.875 21.29 10.025 20.906 10.325C20.522 10.619 20.33 10.991 20.33 11.441C20.33 11.813 20.45 12.11 20.69 12.332C20.936 12.554 21.317 12.755 21.833 12.935L24.263 13.826C25.097 14.12 25.748 14.516 26.216 15.014C26.684 15.512 26.918 16.145 26.918 16.913C26.918 17.561 26.75 18.134 26.414 18.632C26.078 19.13 25.586 19.523 24.938 19.811C24.29 20.093 23.501 20.234 22.571 20.234ZM33.5 20.234C32.714 20.234 32.009 20.063 31.385 19.721C30.767 19.379 30.278 18.869 29.918 18.191C29.558 17.513 29.378 16.676 29.378 15.68C29.378 14.666 29.558 13.823 29.918 13.151C30.278 12.473 30.767 11.963 31.385 11.621C32.009 11.279 32.714 11.108 33.5 11.108C34.274 11.108 34.97 11.279 35.588 11.621C36.206 11.963 36.692 12.473 37.046 13.151C37.406 13.823 37.586 14.666 37.586 15.68C37.586 16.676 37.406 17.513 37.046 18.191C36.692 18.869 36.206 19.379 35.588 19.721C34.97 20.063 34.274 20.234 33.5 20.234ZM33.446 18.74C33.944 18.74 34.373 18.62 34.733 18.38C35.099 18.14 35.378 17.792 35.57 17.336C35.768 16.874 35.867 16.322 35.867 15.68C35.867 14.696 35.666 13.934 35.264 13.394C34.868 12.854 34.295 12.584 33.545 12.584C33.041 12.584 32.606 12.707 32.24 12.953C31.88 13.193 31.601 13.544 31.403 14.006C31.211 14.462 31.115 15.02 31.115 15.68C31.115 16.646 31.316 17.399 31.718 17.939C32.12 18.473 32.696 18.74 33.446 18.74ZM40.5863 20V11.315H42.2963V20H40.5863ZM41.8283 16.13C41.8283 15.02 41.9423 14.099 42.1703 13.367C42.4043 12.629 42.7283 12.08 43.1423 11.72C43.5623 11.36 44.0543 11.18 44.6183 11.18C44.7863 11.18 44.9423 11.192 45.0863 11.216C45.2363 11.24 45.3833 11.273 45.5273 11.315L45.4643 13.016C45.3023 12.974 45.1253 12.938 44.9333 12.908C44.7473 12.872 44.5763 12.854 44.4203 12.854C43.9283 12.854 43.5263 12.986 43.2143 13.25C42.9023 13.508 42.6713 13.883 42.5213 14.375C42.3713 14.861 42.2963 15.446 42.2963 16.13H41.8283ZM50.4597 20.234C49.9678 20.234 49.5238 20.141 49.1277 19.955C48.7318 19.769 48.4168 19.49 48.1828 19.118C47.9548 18.74 47.8408 18.266 47.8408 17.696V8.984H49.5418V17.642C49.5418 18.458 49.9228 18.866 50.6848 18.866C50.9188 18.866 51.1468 18.842 51.3688 18.794C51.5908 18.74 51.8428 18.662 52.1248 18.56L52.3678 19.775C52.0498 19.907 51.7348 20.015 51.4227 20.099C51.1167 20.189 50.7957 20.234 50.4597 20.234ZM46.5177 12.503V11.342H52.1068V12.503H46.5177ZM63.8685 20.234C63.3045 20.234 62.7915 20.084 62.3295 19.784C61.8735 19.478 61.5075 19.028 61.2315 18.434C60.9615 17.84 60.8265 17.111 60.8265 16.247H61.4115C61.4115 16.751 61.5195 17.186 61.7355 17.552C61.9575 17.918 62.2395 18.2 62.5815 18.398C62.9235 18.59 63.2805 18.686 63.6525 18.686C64.0965 18.686 64.4955 18.563 64.8495 18.317C65.2095 18.071 65.4945 17.72 65.7045 17.264C65.9205 16.802 66.0285 16.259 66.0285 15.635C66.0285 15.017 65.9235 14.486 65.7135 14.042C65.5035 13.592 65.2185 13.247 64.8585 13.007C64.4985 12.761 64.0905 12.638 63.6345 12.638C63.2505 12.638 62.8875 12.731 62.5455 12.917C62.2095 13.103 61.9365 13.379 61.7265 13.745C61.5165 14.105 61.4115 14.546 61.4115 15.068H60.8265C60.8265 14.222 60.9585 13.505 61.2225 12.917C61.4865 12.329 61.8525 11.882 62.3205 11.576C62.7945 11.264 63.3495 11.108 63.9855 11.108C64.6755 11.108 65.3055 11.294 65.8755 11.666C66.4515 12.032 66.9105 12.554 67.2525 13.232C67.6005 13.91 67.7745 14.711 67.7745 15.635C67.7745 16.565 67.5975 17.375 67.2435 18.065C66.8895 18.749 66.4155 19.283 65.8215 19.667C65.2335 20.045 64.5825 20.234 63.8685 20.234ZM59.7015 20V7.697H61.4115V17.921L60.8625 20H59.7015ZM69.5126 11.342H71.4296L74.0396 18.506H73.6886L75.7856 11.342H77.5316L74.2466 21.665C73.9466 22.601 73.5596 23.3 73.0856 23.762C72.6176 24.23 72.0296 24.464 71.3216 24.464C70.9256 24.464 70.5446 24.413 70.1786 24.311C69.8186 24.209 69.4496 24.059 69.0716 23.861V22.322C69.3956 22.55 69.7076 22.715 70.0076 22.817C70.3076 22.919 70.6196 22.97 70.9436 22.97C71.2676 22.97 71.5436 22.871 71.7716 22.673C72.0056 22.481 72.2006 22.223 72.3566 21.899C72.5186 21.581 72.6566 21.233 72.7706 20.855L73.0316 20L69.5126 11.342ZM84.5352 20V8.318H88.6572C89.9712 8.318 90.9942 8.642 91.7262 9.29C92.4642 9.938 92.8332 10.856 92.8332 12.044C92.8332 13.22 92.4642 14.132 91.7262 14.78C90.9942 15.428 89.9712 15.752 88.6572 15.752H86.6772V20H84.5352ZM86.6772 13.898H88.6572C89.3172 13.898 89.8152 13.724 90.1512 13.376C90.4872 13.028 90.6552 12.584 90.6552 12.044C90.6552 11.492 90.4872 11.039 90.1512 10.685C89.8152 10.331 89.3172 10.154 88.6572 10.154H86.6772V13.898ZM95.3906 20V11.234H97.5146V20H95.3906ZM96.9926 16.166C96.9926 15.02 97.1216 14.072 97.3796 13.322C97.6376 12.572 97.9826 12.017 98.4146 11.657C98.8526 11.291 99.3386 11.108 99.8726 11.108C100.017 11.108 100.152 11.117 100.278 11.135C100.41 11.153 100.539 11.18 100.665 11.216L100.629 13.34C100.473 13.304 100.305 13.274 100.125 13.25C99.9446 13.226 99.7826 13.214 99.6386 13.214C99.1706 13.214 98.7776 13.328 98.4596 13.556C98.1476 13.778 97.9106 14.108 97.7486 14.546C97.5926 14.984 97.5146 15.524 97.5146 16.166H96.9926ZM104.059 9.668C103.645 9.668 103.321 9.56 103.087 9.344C102.859 9.122 102.745 8.816 102.745 8.426C102.745 8.048 102.859 7.748 103.087 7.526C103.321 7.298 103.645 7.184 104.059 7.184C104.467 7.184 104.788 7.298 105.022 7.526C105.256 7.748 105.373 8.048 105.373 8.426C105.373 8.816 105.256 9.122 105.022 9.344C104.788 9.56 104.467 9.668 104.059 9.668ZM102.997 20V11.234H105.121V20H102.997ZM112.395 20.252C111.663 20.252 110.982 20.063 110.352 19.685C109.728 19.301 109.221 18.764 108.831 18.074C108.447 17.378 108.255 16.562 108.255 15.626C108.255 14.636 108.447 13.799 108.831 13.115C109.221 12.425 109.728 11.903 110.352 11.549C110.982 11.195 111.663 11.018 112.395 11.018C112.965 11.018 113.466 11.111 113.898 11.297C114.336 11.477 114.708 11.723 115.014 12.035C115.32 12.341 115.56 12.683 115.734 13.061C115.908 13.439 116.019 13.82 116.067 14.204L113.925 14.258C113.829 13.874 113.649 13.556 113.385 13.304C113.127 13.052 112.791 12.926 112.377 12.926C112.035 12.926 111.714 13.022 111.414 13.214C111.114 13.4 110.868 13.691 110.676 14.087C110.49 14.483 110.397 14.996 110.397 15.626C110.397 16.226 110.484 16.727 110.658 17.129C110.838 17.525 111.078 17.825 111.378 18.029C111.678 18.227 112.011 18.326 112.377 18.326C112.917 18.326 113.31 18.197 113.556 17.939C113.802 17.675 113.925 17.324 113.925 16.886H116.067C116.067 17.504 115.926 18.068 115.644 18.578C115.362 19.088 114.948 19.496 114.402 19.802C113.856 20.102 113.187 20.252 112.395 20.252ZM122.229 20.252C121.485 20.252 120.804 20.06 120.186 19.676C119.568 19.292 119.073 18.755 118.701 18.065C118.329 17.369 118.143 16.556 118.143 15.626C118.143 14.666 118.326 13.841 118.692 13.151C119.064 12.461 119.559 11.933 120.177 11.567C120.795 11.201 121.479 11.018 122.229 11.018C122.925 11.018 123.525 11.159 124.029 11.441C124.539 11.717 124.947 12.095 125.253 12.575C125.565 13.049 125.775 13.586 125.883 14.186C125.991 14.786 125.997 15.404 125.901 16.04H119.835V14.888H124.398L123.984 15.158C124.002 14.876 123.987 14.591 123.939 14.303C123.897 14.015 123.813 13.751 123.687 13.511C123.561 13.271 123.381 13.079 123.147 12.935C122.919 12.785 122.625 12.71 122.265 12.71C121.833 12.71 121.467 12.818 121.167 13.034C120.867 13.25 120.639 13.544 120.483 13.916C120.327 14.288 120.249 14.708 120.249 15.176V16.022C120.249 16.514 120.321 16.949 120.465 17.327C120.615 17.705 120.834 18.002 121.122 18.218C121.416 18.434 121.785 18.542 122.229 18.542C122.643 18.542 122.991 18.446 123.273 18.254C123.555 18.062 123.735 17.774 123.813 17.39H125.955C125.865 17.954 125.652 18.452 125.316 18.884C124.986 19.31 124.557 19.646 124.029 19.892C123.501 20.132 122.901 20.252 122.229 20.252ZM128.119 18.452C128.119 18.044 128.257 17.702 128.533 17.426C128.809 17.15 129.163 17.012 129.595 17.012C130.027 17.012 130.387 17.15 130.675 17.426C130.963 17.702 131.107 18.044 131.107 18.452C131.107 18.854 130.963 19.19 130.675 19.46C130.387 19.724 130.027 19.856 129.595 19.856C129.163 19.856 128.809 19.721 128.533 19.451C128.257 19.181 128.119 18.848 128.119 18.452ZM128.119 13.088C128.119 12.68 128.257 12.338 128.533 12.062C128.809 11.786 129.163 11.648 129.595 11.648C130.027 11.648 130.387 11.786 130.675 12.062C130.963 12.338 131.107 12.68 131.107 13.088C131.107 13.49 130.963 13.826 130.675 14.096C130.387 14.36 130.027 14.492 129.595 14.492C129.163 14.492 128.809 14.357 128.533 14.087C128.257 13.817 128.119 13.484 128.119 13.088ZM144.994 20V14.888C144.994 14.24 144.838 13.751 144.526 13.421C144.214 13.091 143.806 12.926 143.302 12.926C142.876 12.926 142.498 13.043 142.168 13.277C141.844 13.511 141.589 13.865 141.403 14.339C141.217 14.807 141.124 15.392 141.124 16.094H140.422C140.422 14.96 140.563 14.018 140.845 13.268C141.127 12.512 141.526 11.948 142.042 11.576C142.558 11.204 143.164 11.018 143.86 11.018C144.58 11.018 145.18 11.18 145.66 11.504C146.146 11.822 146.509 12.272 146.749 12.854C146.995 13.436 147.118 14.114 147.118 14.888V20H144.994ZM139 20V7.652H141.124V20H139ZM151.817 9.668C151.403 9.668 151.079 9.56 150.845 9.344C150.617 9.122 150.503 8.816 150.503 8.426C150.503 8.048 150.617 7.748 150.845 7.526C151.079 7.298 151.403 7.184 151.817 7.184C152.225 7.184 152.546 7.298 152.78 7.526C153.014 7.748 153.131 8.048 153.131 8.426C153.131 8.816 153.014 9.122 152.78 9.344C152.546 9.56 152.225 9.668 151.817 9.668ZM150.755 20V11.234H152.879V20H150.755ZM160.207 24.518C159.205 24.518 158.347 24.38 157.633 24.104C156.925 23.828 156.382 23.465 156.004 23.015C155.626 22.571 155.437 22.088 155.437 21.566C155.437 20.948 155.662 20.468 156.112 20.126C156.562 19.79 157.129 19.622 157.813 19.622L159.361 20.198C158.773 20.198 158.32 20.309 158.002 20.531C157.684 20.753 157.525 21.062 157.525 21.458C157.525 21.872 157.762 22.202 158.236 22.448C158.716 22.7 159.373 22.826 160.207 22.826C160.813 22.826 161.338 22.736 161.782 22.556C162.226 22.376 162.568 22.142 162.808 21.854C163.054 21.566 163.177 21.26 163.177 20.936C163.177 20.72 163.105 20.543 162.961 20.405C162.817 20.267 162.595 20.198 162.295 20.198H159.361C158.773 20.198 158.236 20.105 157.75 19.919C157.27 19.727 156.886 19.472 156.598 19.154C156.316 18.83 156.175 18.47 156.175 18.074C156.175 17.708 156.277 17.393 156.481 17.129C156.685 16.859 156.961 16.652 157.309 16.508C157.663 16.364 158.059 16.292 158.497 16.292L159.037 16.994C158.863 16.994 158.695 17.03 158.533 17.102C158.377 17.168 158.248 17.267 158.146 17.399C158.044 17.531 157.993 17.696 157.993 17.894C157.993 18.134 158.095 18.329 158.299 18.479C158.503 18.629 158.857 18.704 159.361 18.704H162.295C163.225 18.704 163.954 18.875 164.482 19.217C165.016 19.559 165.283 20.084 165.283 20.792C165.283 21.422 165.076 22.019 164.662 22.583C164.248 23.153 163.66 23.618 162.898 23.978C162.142 24.338 161.245 24.518 160.207 24.518ZM160.315 17.3C159.625 17.3 158.992 17.171 158.416 16.913C157.846 16.649 157.39 16.283 157.048 15.815C156.706 15.347 156.535 14.798 156.535 14.168C156.535 13.526 156.706 12.968 157.048 12.494C157.39 12.02 157.846 11.657 158.416 11.405C158.992 11.147 159.625 11.018 160.315 11.018C160.987 11.018 161.608 11.147 162.178 11.405C162.748 11.657 163.207 12.02 163.555 12.494C163.903 12.968 164.077 13.526 164.077 14.168C164.077 14.798 163.903 15.347 163.555 15.815C163.207 16.283 162.748 16.649 162.178 16.913C161.608 17.171 160.987 17.3 160.315 17.3ZM160.333 15.824C160.885 15.824 161.299 15.665 161.575 15.347C161.851 15.029 161.989 14.636 161.989 14.168C161.989 13.664 161.848 13.259 161.566 12.953C161.29 12.647 160.873 12.494 160.315 12.494C159.775 12.494 159.361 12.647 159.073 12.953C158.785 13.259 158.641 13.664 158.641 14.168C158.641 14.636 158.785 15.029 159.073 15.347C159.367 15.665 159.787 15.824 160.333 15.824ZM163.411 12.422L162.439 11.864C162.439 11.342 162.559 10.886 162.799 10.496C163.045 10.1 163.369 9.794 163.771 9.578C164.179 9.362 164.629 9.254 165.121 9.254L165.013 11.288C164.491 11.288 164.092 11.381 163.816 11.567C163.546 11.747 163.411 12.032 163.411 12.422ZM173.671 20V14.888C173.671 14.24 173.515 13.751 173.203 13.421C172.891 13.091 172.483 12.926 171.979 12.926C171.553 12.926 171.175 13.043 170.845 13.277C170.521 13.511 170.266 13.865 170.08 14.339C169.894 14.807 169.801 15.392 169.801 16.094H169.099C169.099 14.96 169.24 14.018 169.522 13.268C169.804 12.512 170.203 11.948 170.719 11.576C171.235 11.204 171.841 11.018 172.537 11.018C173.257 11.018 173.857 11.18 174.337 11.504C174.823 11.822 175.186 12.272 175.426 12.854C175.672 13.436 175.795 14.114 175.795 14.888V20H173.671ZM167.677 20V7.652H169.801V20H167.677ZM187.117 20.252C186.601 20.252 186.127 20.156 185.695 19.964C185.269 19.772 184.927 19.478 184.669 19.082C184.417 18.686 184.291 18.182 184.291 17.57V8.948H186.415V17.498C186.415 18.218 186.757 18.578 187.441 18.578C187.651 18.578 187.861 18.554 188.071 18.506C188.281 18.458 188.521 18.386 188.791 18.29L189.097 19.784C188.761 19.916 188.434 20.027 188.116 20.117C187.798 20.207 187.465 20.252 187.117 20.252ZM183.067 12.674V11.27H188.791V12.674H183.067ZM195.065 20.252C194.267 20.252 193.544 20.081 192.896 19.739C192.254 19.397 191.744 18.887 191.366 18.209C190.988 17.525 190.799 16.67 190.799 15.644C190.799 14.6 190.988 13.736 191.366 13.052C191.744 12.368 192.254 11.858 192.896 11.522C193.544 11.186 194.267 11.018 195.065 11.018C195.851 11.018 196.562 11.186 197.198 11.522C197.84 11.858 198.35 12.368 198.728 13.052C199.106 13.736 199.295 14.6 199.295 15.644C199.295 16.67 199.106 17.525 198.728 18.209C198.35 18.887 197.84 19.397 197.198 19.739C196.562 20.081 195.851 20.252 195.065 20.252ZM194.993 18.398C195.413 18.398 195.785 18.296 196.109 18.092C196.439 17.882 196.697 17.573 196.883 17.165C197.075 16.757 197.171 16.25 197.171 15.644C197.171 14.72 196.988 14.024 196.622 13.556C196.262 13.088 195.767 12.854 195.137 12.854C194.711 12.854 194.333 12.959 194.003 13.169C193.673 13.373 193.412 13.682 193.22 14.096C193.034 14.51 192.941 15.026 192.941 15.644C192.941 16.556 193.124 17.243 193.49 17.705C193.862 18.167 194.363 18.398 194.993 18.398ZM207.095 20V7.652H209.219V20H207.095ZM216.377 20.252C215.579 20.252 214.856 20.081 214.208 19.739C213.566 19.397 213.056 18.887 212.678 18.209C212.3 17.525 212.111 16.67 212.111 15.644C212.111 14.6 212.3 13.736 212.678 13.052C213.056 12.368 213.566 11.858 214.208 11.522C214.856 11.186 215.579 11.018 216.377 11.018C217.163 11.018 217.874 11.186 218.51 11.522C219.152 11.858 219.662 12.368 220.04 13.052C220.418 13.736 220.607 14.6 220.607 15.644C220.607 16.67 220.418 17.525 220.04 18.209C219.662 18.887 219.152 19.397 218.51 19.739C217.874 20.081 217.163 20.252 216.377 20.252ZM216.305 18.398C216.725 18.398 217.097 18.296 217.421 18.092C217.751 17.882 218.009 17.573 218.195 17.165C218.387 16.757 218.483 16.25 218.483 15.644C218.483 14.72 218.3 14.024 217.934 13.556C217.574 13.088 217.079 12.854 216.449 12.854C216.023 12.854 215.645 12.959 215.315 13.169C214.985 13.373 214.724 13.682 214.532 14.096C214.346 14.51 214.253 15.026 214.253 15.644C214.253 16.556 214.436 17.243 214.802 17.705C215.174 18.167 215.675 18.398 216.305 18.398ZM222.036 11.27H224.25L226.14 17.894H225.924L227.706 11.738H229.632L231.414 17.912H231.198L233.088 11.27H235.212L232.332 20H230.244L228.462 14.204H228.786L227.04 20H224.934L222.036 11.27Z" fill="#252525"/>
<path d="M257.354 6.64645C257.158 6.45118 256.842 6.45118 256.646 6.64645L253.464 9.82843C253.269 10.0237 253.269 10.3403 253.464 10.5355C253.66 10.7308 253.976 10.7308 254.172 10.5355L257 7.70711L259.828 10.5355C260.024 10.7308 260.34 10.7308 260.536 10.5355C260.731 10.3403 260.731 10.0237 260.536 9.82843L257.354 6.64645ZM256.5 21C256.5 21.2761 256.724 21.5 257 21.5C257.276 21.5 257.5 21.2761 257.5 21H256.5ZM256.5 7V21H257.5V7H256.5Z" fill="black"/>
<path d="M267.646 21.3536C267.842 21.5488 268.158 21.5488 268.354 21.3536L271.536 18.1716C271.731 17.9763 271.731 17.6597 271.536 17.4645C271.34 17.2692 271.024 17.2692 270.828 17.4645L268 20.2929L265.172 17.4645C264.976 17.2692 264.66 17.2692 264.464 17.4645C264.269 17.6597 264.269 17.9763 264.464 18.1716L267.646 21.3536ZM268.5 7C268.5 6.72386 268.276 6.5 268 6.5C267.724 6.5 267.5 6.72386 267.5 7H268.5ZM268.5 21V7H267.5V21H268.5Z" fill="black"/>
<defs>
<filter id="filter0_b_442_895" x="-15" y="-15" width="315" height="59" filterUnits="userSpaceOnUse" color-interpolation-filters="sRGB">
<feFlood flood-opacity="0" result="BackgroundImageFix"/>
<feGaussianBlur in="BackgroundImageFix" stdDeviation="7.5"/>
<feComposite in2="SourceAlpha" operator="in" result="effect1_backgroundBlur_442_895"/>
<feBlend mode="normal" in="SourceGraphic" in2="effect1_backgroundBlur_442_895" result="shape"/>
</filter>
</defs>
</svg>
