<svg width="285" height="29" viewBox="0 0 285 29" fill="none" xmlns="http://www.w3.org/2000/svg">
<g filter="url(#filter0_b_0_1)">
<rect width="285" height="29" rx="7" fill="#F4F4F4" fill-opacity="0.95"/>
</g>
<path d="M22.571 20.234C21.791 20.234 21.074 20.096 20.42 19.82C19.766 19.538 19.238 19.121 18.836 18.569C18.44 18.017 18.233 17.327 18.215 16.499H19.889C19.889 16.997 20.009 17.405 20.249 17.723C20.495 18.041 20.819 18.278 21.221 18.434C21.623 18.584 22.067 18.659 22.553 18.659C23.045 18.659 23.48 18.584 23.858 18.434C24.236 18.284 24.527 18.083 24.731 17.831C24.941 17.579 25.046 17.291 25.046 16.967C25.046 16.529 24.911 16.178 24.641 15.914C24.371 15.644 23.96 15.416 23.408 15.23L21.275 14.438C20.357 14.096 19.658 13.703 19.178 13.259C18.698 12.809 18.458 12.185 18.458 11.387C18.458 10.481 18.812 9.746 19.52 9.182C20.228 8.612 21.224 8.327 22.508 8.327C23.726 8.327 24.671 8.609 25.343 9.173C26.021 9.737 26.408 10.505 26.504 11.477H24.821C24.737 10.985 24.506 10.595 24.128 10.307C23.756 10.019 23.216 9.875 22.508 9.875C21.824 9.875 21.29 10.025 20.906 10.325C20.522 10.619 20.33 10.991 20.33 11.441C20.33 11.813 20.45 12.11 20.69 12.332C20.936 12.554 21.317 12.755 21.833 12.935L24.263 13.826C25.097 14.12 25.748 14.516 26.216 15.014C26.684 15.512 26.918 16.145 26.918 16.913C26.918 17.561 26.75 18.134 26.414 18.632C26.078 19.13 25.586 19.523 24.938 19.811C24.29 20.093 23.501 20.234 22.571 20.234ZM33.5 20.234C32.714 20.234 32.009 20.063 31.385 19.721C30.767 19.379 30.278 18.869 29.918 18.191C29.558 17.513 29.378 16.676 29.378 15.68C29.378 14.666 29.558 13.823 29.918 13.151C30.278 12.473 30.767 11.963 31.385 11.621C32.009 11.279 32.714 11.108 33.5 11.108C34.274 11.108 34.97 11.279 35.588 11.621C36.206 11.963 36.692 12.473 37.046 13.151C37.406 13.823 37.586 14.666 37.586 15.68C37.586 16.676 37.406 17.513 37.046 18.191C36.692 18.869 36.206 19.379 35.588 19.721C34.97 20.063 34.274 20.234 33.5 20.234ZM33.446 18.74C33.944 18.74 34.373 18.62 34.733 18.38C35.099 18.14 35.378 17.792 35.57 17.336C35.768 16.874 35.867 16.322 35.867 15.68C35.867 14.696 35.666 13.934 35.264 13.394C34.868 12.854 34.295 12.584 33.545 12.584C33.041 12.584 32.606 12.707 32.24 12.953C31.88 13.193 31.601 13.544 31.403 14.006C31.211 14.462 31.115 15.02 31.115 15.68C31.115 16.646 31.316 17.399 31.718 17.939C32.12 18.473 32.696 18.74 33.446 18.74ZM40.5863 20V11.315H42.2963V20H40.5863ZM41.8283 16.13C41.8283 15.02 41.9423 14.099 42.1703 13.367C42.4043 12.629 42.7283 12.08 43.1423 11.72C43.5623 11.36 44.0543 11.18 44.6183 11.18C44.7863 11.18 44.9423 11.192 45.0863 11.216C45.2363 11.24 45.3833 11.273 45.5273 11.315L45.4643 13.016C45.3023 12.974 45.1253 12.938 44.9333 12.908C44.7473 12.872 44.5763 12.854 44.4203 12.854C43.9283 12.854 43.5263 12.986 43.2143 13.25C42.9023 13.508 42.6713 13.883 42.5213 14.375C42.3713 14.861 42.2963 15.446 42.2963 16.13H41.8283ZM50.4597 20.234C49.9678 20.234 49.5238 20.141 49.1277 19.955C48.7318 19.769 48.4168 19.49 48.1828 19.118C47.9548 18.74 47.8408 18.266 47.8408 17.696V8.984H49.5418V17.642C49.5418 18.458 49.9228 18.866 50.6848 18.866C50.9188 18.866 51.1468 18.842 51.3688 18.794C51.5908 18.74 51.8428 18.662 52.1248 18.56L52.3678 19.775C52.0498 19.907 51.7348 20.015 51.4227 20.099C51.1167 20.189 50.7957 20.234 50.4597 20.234ZM46.5177 12.503V11.342H52.1068V12.503H46.5177ZM63.8685 20.234C63.3045 20.234 62.7915 20.084 62.3295 19.784C61.8735 19.478 61.5075 19.028 61.2315 18.434C60.9615 17.84 60.8265 17.111 60.8265 16.247H61.4115C61.4115 16.751 61.5195 17.186 61.7355 17.552C61.9575 17.918 62.2395 18.2 62.5815 18.398C62.9235 18.59 63.2805 18.686 63.6525 18.686C64.0965 18.686 64.4955 18.563 64.8495 18.317C65.2095 18.071 65.4945 17.72 65.7045 17.264C65.9205 16.802 66.0285 16.259 66.0285 15.635C66.0285 15.017 65.9235 14.486 65.7135 14.042C65.5035 13.592 65.2185 13.247 64.8585 13.007C64.4985 12.761 64.0905 12.638 63.6345 12.638C63.2505 12.638 62.8875 12.731 62.5455 12.917C62.2095 13.103 61.9365 13.379 61.7265 13.745C61.5165 14.105 61.4115 14.546 61.4115 15.068H60.8265C60.8265 14.222 60.9585 13.505 61.2225 12.917C61.4865 12.329 61.8525 11.882 62.3205 11.576C62.7945 11.264 63.3495 11.108 63.9855 11.108C64.6755 11.108 65.3055 11.294 65.8755 11.666C66.4515 12.032 66.9105 12.554 67.2525 13.232C67.6005 13.91 67.7745 14.711 67.7745 15.635C67.7745 16.565 67.5975 17.375 67.2435 18.065C66.8895 18.749 66.4155 19.283 65.8215 19.667C65.2335 20.045 64.5825 20.234 63.8685 20.234ZM59.7015 20V7.697H61.4115V17.921L60.8625 20H59.7015ZM69.5126 11.342H71.4296L74.0396 18.506H73.6886L75.7856 11.342H77.5316L74.2466 21.665C73.9466 22.601 73.5596 23.3 73.0856 23.762C72.6176 24.23 72.0296 24.464 71.3216 24.464C70.9256 24.464 70.5446 24.413 70.1786 24.311C69.8186 24.209 69.4496 24.059 69.0716 23.861V22.322C69.3956 22.55 69.7076 22.715 70.0076 22.817C70.3076 22.919 70.6196 22.97 70.9436 22.97C71.2676 22.97 71.5436 22.871 71.7716 22.673C72.0056 22.481 72.2006 22.223 72.3566 21.899C72.5186 21.581 72.6566 21.233 72.7706 20.855L73.0316 20L69.5126 11.342ZM84.5892 8.318H88.3692C89.5572 8.318 90.5982 8.558 91.4922 9.038C92.3862 9.512 93.0822 10.187 93.5802 11.063C94.0782 11.939 94.3272 12.974 94.3272 14.168C94.3272 15.35 94.0782 16.379 93.5802 17.255C93.0822 18.125 92.3862 18.8 91.4922 19.28C90.5982 19.76 89.5572 20 88.3692 20H84.5892V8.318ZM86.7132 10.244V18.092H88.3692C89.1252 18.092 89.7762 17.921 90.3222 17.579C90.8742 17.237 91.2972 16.772 91.5912 16.184C91.8912 15.59 92.0412 14.918 92.0412 14.168C92.0412 13.406 91.8912 12.731 91.5912 12.143C91.2972 11.555 90.8742 11.093 90.3222 10.757C89.7762 10.415 89.1252 10.244 88.3692 10.244H86.7132ZM100.565 20.252C99.8206 20.252 99.1396 20.06 98.5216 19.676C97.9036 19.292 97.4086 18.755 97.0366 18.065C96.6646 17.369 96.4786 16.556 96.4786 15.626C96.4786 14.666 96.6616 13.841 97.0276 13.151C97.3996 12.461 97.8946 11.933 98.5126 11.567C99.1306 11.201 99.8146 11.018 100.565 11.018C101.261 11.018 101.861 11.159 102.365 11.441C102.875 11.717 103.283 12.095 103.589 12.575C103.901 13.049 104.111 13.586 104.219 14.186C104.327 14.786 104.333 15.404 104.237 16.04H98.1706V14.888H102.734L102.32 15.158C102.338 14.876 102.323 14.591 102.275 14.303C102.233 14.015 102.149 13.751 102.023 13.511C101.897 13.271 101.717 13.079 101.483 12.935C101.255 12.785 100.961 12.71 100.601 12.71C100.169 12.71 99.8026 12.818 99.5026 13.034C99.2026 13.25 98.9746 13.544 98.8186 13.916C98.6626 14.288 98.5846 14.708 98.5846 15.176V16.022C98.5846 16.514 98.6566 16.949 98.8006 17.327C98.9506 17.705 99.1696 18.002 99.4576 18.218C99.7516 18.434 100.121 18.542 100.565 18.542C100.979 18.542 101.327 18.446 101.609 18.254C101.891 18.062 102.071 17.774 102.149 17.39H104.291C104.201 17.954 103.988 18.452 103.652 18.884C103.322 19.31 102.893 19.646 102.365 19.892C101.837 20.132 101.237 20.252 100.565 20.252ZM107.715 20V10.208C107.715 9.578 107.838 9.065 108.084 8.669C108.33 8.273 108.654 7.982 109.056 7.796C109.464 7.604 109.905 7.508 110.379 7.508C110.673 7.508 110.976 7.529 111.288 7.571C111.6 7.613 111.903 7.664 112.197 7.724L111.783 9.362C111.633 9.308 111.477 9.266 111.315 9.236C111.153 9.2 110.997 9.182 110.847 9.182C110.679 9.182 110.52 9.215 110.37 9.281C110.22 9.341 110.097 9.449 110.001 9.605C109.905 9.761 109.857 9.974 109.857 10.244V20H107.715ZM106.419 12.674V11.27H111.459V12.674H106.419ZM119.743 20L119.473 17.876V14.366C119.473 13.754 119.347 13.301 119.095 13.007C118.849 12.713 118.429 12.566 117.835 12.566C117.493 12.566 117.196 12.617 116.944 12.719C116.692 12.821 116.497 12.968 116.359 13.16C116.227 13.346 116.161 13.574 116.161 13.844H113.839C113.839 13.184 113.998 12.647 114.316 12.233C114.634 11.813 115.09 11.507 115.684 11.315C116.284 11.117 117.001 11.018 117.835 11.018C118.591 11.018 119.251 11.141 119.815 11.387C120.379 11.627 120.817 11.999 121.129 12.503C121.441 13.007 121.597 13.652 121.597 14.438V20H119.743ZM116.881 20.252C116.131 20.252 115.504 20.123 115 19.865C114.502 19.601 114.127 19.256 113.875 18.83C113.623 18.404 113.497 17.942 113.497 17.444C113.497 16.892 113.641 16.43 113.929 16.058C114.223 15.68 114.637 15.398 115.171 15.212C115.705 15.02 116.335 14.924 117.061 14.924C117.535 14.924 117.982 14.96 118.402 15.032C118.828 15.104 119.251 15.2 119.671 15.32V16.562C119.341 16.454 118.981 16.37 118.591 16.31C118.201 16.25 117.835 16.22 117.493 16.22C116.989 16.22 116.575 16.313 116.251 16.499C115.927 16.685 115.765 17 115.765 17.444C115.765 17.768 115.897 18.047 116.161 18.281C116.425 18.515 116.845 18.632 117.421 18.632C117.859 18.632 118.231 18.536 118.537 18.344C118.843 18.152 119.074 17.912 119.23 17.624C119.392 17.336 119.473 17.048 119.473 16.76H119.977C119.977 17.39 119.86 17.972 119.626 18.506C119.392 19.034 119.044 19.457 118.582 19.775C118.126 20.093 117.559 20.252 116.881 20.252ZM130.884 11.234H133.008V20H130.884V11.234ZM124.89 11.234H127.014V16.598C127.014 17.168 127.155 17.597 127.437 17.885C127.719 18.167 128.106 18.308 128.598 18.308C129.018 18.308 129.399 18.2 129.741 17.984C130.089 17.762 130.365 17.438 130.569 17.012C130.779 16.58 130.884 16.046 130.884 15.41H131.46C131.46 16.478 131.322 17.363 131.046 18.065C130.77 18.767 130.389 19.292 129.903 19.64C129.417 19.988 128.856 20.162 128.22 20.162C127.596 20.162 127.032 20.051 126.528 19.829C126.024 19.607 125.625 19.25 125.331 18.758C125.037 18.266 124.89 17.618 124.89 16.814V11.234ZM136.715 20V7.652H138.839V20H136.715ZM145.512 20.252C144.996 20.252 144.522 20.156 144.09 19.964C143.664 19.772 143.322 19.478 143.064 19.082C142.812 18.686 142.686 18.182 142.686 17.57V8.948H144.81V17.498C144.81 18.218 145.152 18.578 145.836 18.578C146.046 18.578 146.256 18.554 146.466 18.506C146.676 18.458 146.916 18.386 147.186 18.29L147.492 19.784C147.156 19.916 146.829 20.027 146.511 20.117C146.193 20.207 145.86 20.252 145.512 20.252ZM141.462 12.674V11.27H147.186V12.674H141.462Z" fill="#252525"/>
<circle cx="262.5" cy="14.5" r="7" stroke="#6B2DBC"/>
<defs>
<filter id="filter0_b_0_1" x="-15" y="-15" width="315" height="59" filterUnits="userSpaceOnUse" color-interpolation-filters="sRGB">
<feFlood flood-opacity="0" result="BackgroundImageFix"/>
<feGaussianBlur in="BackgroundImageFix" stdDeviation="7.5"/>
<feComposite in2="SourceAlpha" operator="in" result="effect1_backgroundBlur_0_1"/>
<feBlend mode="normal" in="SourceGraphic" in2="effect1_backgroundBlur_0_1" result="shape"/>
</filter>
</defs>
</svg>
