<svg width="193" height="246" viewBox="0 0 193 246" fill="none" xmlns="http://www.w3.org/2000/svg">
<g filter="url(#filter0_d_0_1)">
<rect x="20" y="16" width="153" height="206" rx="21" fill="#FBFBFB"/>
</g>
<rect x="41" y="64" width="112" height="28" rx="14" fill="#E7ACF1"/>
<rect x="41" y="110" width="112" height="28" rx="14" fill="#A9A7F9"/>
<rect x="41" y="156" width="112" height="28" rx="14" fill="#A8D0FF"/>
<path d="M72.8316 74.7734V73.5455H80.1487V74.7734H77.1988V83H75.7769V74.7734H72.8316ZM87.3047 81.8274C87.0524 81.8274 86.8354 81.7382 86.6538 81.5597C86.4722 81.3781 86.3814 81.1596 86.3814 80.9041C86.3814 80.6518 86.4722 80.4363 86.6538 80.2578C86.8354 80.0762 87.0524 79.9854 87.3047 79.9854C87.5571 79.9854 87.7741 80.0762 87.9557 80.2578C88.1372 80.4363 88.228 80.6518 88.228 80.9041C88.228 81.0734 88.1849 81.2288 88.0988 81.3704C88.0157 81.5089 87.9049 81.6197 87.7664 81.7028C87.6279 81.7859 87.474 81.8274 87.3047 81.8274ZM87.3047 77.0909C87.0524 77.0909 86.8354 77.0017 86.6538 76.8232C86.4722 76.6416 86.3814 76.4231 86.3814 76.1676C86.3814 75.9152 86.4722 75.6998 86.6538 75.5213C86.8354 75.3397 87.0524 75.2489 87.3047 75.2489C87.5571 75.2489 87.7741 75.3397 87.9557 75.5213C88.1372 75.6998 88.228 75.9152 88.228 76.1676C88.228 76.3369 88.1849 76.4923 88.0988 76.6339C88.0157 76.7724 87.9049 76.8832 87.7664 76.9663C87.6279 77.0494 87.474 77.0909 87.3047 77.0909ZM94.4619 74.7734V73.5455H101.779V74.7734H98.8291V83H97.4072V74.7734H94.4619ZM105.963 83.1431C105.264 83.1431 104.663 82.9938 104.158 82.6953C103.656 82.3937 103.268 81.9705 102.995 81.4258C102.724 80.878 102.588 80.2363 102.588 79.5007C102.588 78.7744 102.724 78.1342 102.995 77.5803C103.268 77.0263 103.65 76.5939 104.139 76.283C104.632 75.9722 105.207 75.8168 105.866 75.8168C106.266 75.8168 106.654 75.8829 107.029 76.0153C107.405 76.1476 107.742 76.3554 108.04 76.6385C108.339 76.9216 108.574 77.2894 108.747 77.7418C108.919 78.1912 109.005 78.7375 109.005 79.3807V79.87H103.368V78.8359H107.653C107.653 78.4728 107.579 78.1512 107.431 77.8711C107.283 77.5879 107.075 77.3648 106.808 77.2017C106.543 77.0386 106.232 76.957 105.875 76.957C105.487 76.957 105.149 77.0524 104.86 77.2433C104.573 77.431 104.352 77.6772 104.195 77.9819C104.041 78.2835 103.964 78.6113 103.964 78.9652V79.7731C103.964 80.247 104.047 80.6502 104.213 80.9826C104.383 81.315 104.618 81.5689 104.92 81.7443C105.221 81.9167 105.574 82.0028 105.977 82.0028C106.238 82.0028 106.477 81.9659 106.692 81.892C106.908 81.8151 107.094 81.7012 107.251 81.5504C107.408 81.3996 107.528 81.2134 107.611 80.9918L108.917 81.2273C108.813 81.612 108.625 81.949 108.354 82.2383C108.087 82.5245 107.75 82.7476 107.343 82.9077C106.94 83.0646 106.48 83.1431 105.963 83.1431ZM112.111 75.9091L113.676 78.6697L115.255 75.9091H116.765L114.553 79.4545L116.783 83H115.273L113.676 80.3501L112.083 83H110.569L112.776 79.4545L110.597 75.9091H112.111ZM122.142 75.9091V77.017H118.269V75.9091H122.142ZM119.307 74.2102H120.688V80.918C120.688 81.1857 120.728 81.3873 120.808 81.5227C120.888 81.6551 120.991 81.7459 121.117 81.7951C121.246 81.8413 121.386 81.8643 121.537 81.8643C121.648 81.8643 121.745 81.8567 121.828 81.8413C121.911 81.8259 121.976 81.8136 122.022 81.8043L122.271 82.9446C122.191 82.9754 122.077 83.0062 121.929 83.0369C121.782 83.0708 121.597 83.0893 121.375 83.0923C121.012 83.0985 120.674 83.0339 120.36 82.8984C120.046 82.763 119.792 82.5537 119.598 82.2706C119.404 81.9875 119.307 81.632 119.307 81.2042V74.2102Z" fill="#5616A9" fill-opacity="0.75"/>
<path d="M62.4471 129H59.3864V119.545H62.544C63.4704 119.545 64.266 119.735 64.9308 120.113C65.5955 120.489 66.1049 121.029 66.4588 121.734C66.8158 122.435 66.9943 123.277 66.9943 124.259C66.9943 125.244 66.8143 126.09 66.4542 126.798C66.0972 127.506 65.5801 128.051 64.9031 128.432C64.226 128.811 63.4073 129 62.4471 129ZM60.8129 127.754H62.3686C63.0888 127.754 63.6874 127.618 64.1644 127.347C64.6415 127.073 64.9985 126.678 65.2354 126.161C65.4724 125.641 65.5909 125.007 65.5909 124.259C65.5909 123.517 65.4724 122.888 65.2354 122.371C65.0015 121.854 64.6522 121.461 64.1875 121.194C63.7228 120.926 63.1457 120.792 62.4563 120.792H60.8129V127.754ZM74.3073 127.827C74.0549 127.827 73.8379 127.738 73.6564 127.56C73.4748 127.378 73.384 127.16 73.384 126.904C73.384 126.652 73.4748 126.436 73.6564 126.258C73.8379 126.076 74.0549 125.985 74.3073 125.985C74.5596 125.985 74.7766 126.076 74.9582 126.258C75.1398 126.436 75.2306 126.652 75.2306 126.904C75.2306 127.073 75.1875 127.229 75.1013 127.37C75.0182 127.509 74.9074 127.62 74.7689 127.703C74.6304 127.786 74.4766 127.827 74.3073 127.827ZM74.3073 123.091C74.0549 123.091 73.8379 123.002 73.6564 122.823C73.4748 122.642 73.384 122.423 73.384 122.168C73.384 121.915 73.4748 121.7 73.6564 121.521C73.8379 121.34 74.0549 121.249 74.3073 121.249C74.5596 121.249 74.7766 121.34 74.9582 121.521C75.1398 121.7 75.2306 121.915 75.2306 122.168C75.2306 122.337 75.1875 122.492 75.1013 122.634C75.0182 122.772 74.9074 122.883 74.7689 122.966C74.6304 123.049 74.4766 123.091 74.3073 123.091ZM84.9914 129H81.9307V119.545H85.0884C86.0147 119.545 86.8103 119.735 87.4751 120.113C88.1399 120.489 88.6492 121.029 89.0031 121.734C89.3602 122.435 89.5387 123.277 89.5387 124.259C89.5387 125.244 89.3586 126.09 88.9985 126.798C88.6415 127.506 88.1245 128.051 87.4474 128.432C86.7703 128.811 85.9517 129 84.9914 129ZM83.3572 127.754H84.9129C85.6331 127.754 86.2317 127.618 86.7088 127.347C87.1858 127.073 87.5428 126.678 87.7798 126.161C88.0168 125.641 88.1352 125.007 88.1352 124.259C88.1352 123.517 88.0168 122.888 87.7798 122.371C87.5459 121.854 87.1966 121.461 86.7318 121.194C86.2671 120.926 85.6901 120.792 85.0007 120.792H83.3572V127.754ZM91.8517 129V121.909H93.2321V129H91.8517ZM92.5488 120.815C92.3088 120.815 92.1026 120.735 91.9302 120.575C91.7609 120.412 91.6763 120.218 91.6763 119.993C91.6763 119.766 91.7609 119.572 91.9302 119.412C92.1026 119.248 92.3088 119.167 92.5488 119.167C92.7889 119.167 92.9935 119.248 93.1628 119.412C93.3352 119.572 93.4213 119.766 93.4213 119.993C93.4213 120.218 93.3352 120.412 93.1628 120.575C92.9935 120.735 92.7889 120.815 92.5488 120.815ZM97.8026 129.157C97.3533 129.157 96.947 129.074 96.5839 128.908C96.2207 128.738 95.9329 128.494 95.7206 128.174C95.5113 127.854 95.4067 127.461 95.4067 126.996C95.4067 126.596 95.4836 126.267 95.6375 126.009C95.7914 125.75 95.9991 125.545 96.2607 125.395C96.5223 125.244 96.8147 125.13 97.1378 125.053C97.461 124.976 97.7903 124.917 98.1258 124.877C98.5505 124.828 98.8952 124.788 99.1599 124.757C99.4245 124.724 99.6169 124.67 99.7369 124.596C99.8569 124.522 99.917 124.402 99.917 124.236V124.203C99.917 123.8 99.8031 123.488 99.5753 123.266C99.3507 123.045 99.0152 122.934 98.5689 122.934C98.1042 122.934 97.738 123.037 97.4702 123.243C97.2055 123.446 97.0224 123.673 96.9209 123.922L95.6236 123.626C95.7775 123.196 96.0022 122.848 96.2976 122.583C96.5962 122.315 96.9393 122.121 97.3271 122.001C97.7149 121.878 98.1227 121.817 98.5505 121.817C98.8336 121.817 99.1337 121.851 99.4507 121.918C99.7708 121.983 100.069 122.103 100.346 122.278C100.626 122.454 100.856 122.705 101.034 123.031C101.213 123.354 101.302 123.774 101.302 124.291V129H99.9539V128.031H99.8985C99.8092 128.209 99.6754 128.384 99.4969 128.557C99.3184 128.729 99.0891 128.872 98.809 128.986C98.5289 129.1 98.1935 129.157 97.8026 129.157ZM98.1027 128.049C98.4843 128.049 98.8105 127.974 99.0814 127.823C99.3553 127.672 99.563 127.475 99.7046 127.232C99.8493 126.986 99.9216 126.723 99.9216 126.442V125.528C99.8723 125.578 99.7769 125.624 99.6354 125.667C99.4969 125.707 99.3384 125.742 99.1599 125.773C98.9814 125.801 98.8075 125.827 98.6382 125.852C98.4689 125.873 98.3274 125.892 98.2135 125.907C97.9457 125.941 97.701 125.998 97.4795 126.078C97.2609 126.158 97.0855 126.273 96.9532 126.424C96.8239 126.572 96.7593 126.769 96.7593 127.015C96.7593 127.357 96.8855 127.615 97.1378 127.79C97.3902 127.963 97.7118 128.049 98.1027 128.049ZM106.763 131.807C106.2 131.807 105.715 131.733 105.309 131.585C104.906 131.438 104.577 131.242 104.321 130.999C104.066 130.756 103.875 130.49 103.749 130.2L104.935 129.711C105.018 129.846 105.129 129.989 105.268 130.14C105.409 130.294 105.6 130.425 105.84 130.533C106.083 130.64 106.396 130.694 106.777 130.694C107.3 130.694 107.733 130.567 108.075 130.311C108.416 130.059 108.587 129.656 108.587 129.102V127.707H108.499C108.416 127.858 108.296 128.026 108.139 128.211C107.985 128.395 107.773 128.555 107.502 128.691C107.231 128.826 106.879 128.894 106.445 128.894C105.885 128.894 105.38 128.763 104.931 128.501C104.484 128.237 104.13 127.847 103.869 127.333C103.61 126.816 103.481 126.181 103.481 125.427C103.481 124.673 103.609 124.027 103.864 123.488C104.123 122.949 104.477 122.537 104.926 122.251C105.375 121.961 105.885 121.817 106.454 121.817C106.894 121.817 107.25 121.891 107.521 122.038C107.791 122.183 108.002 122.352 108.153 122.546C108.307 122.74 108.425 122.911 108.508 123.059H108.61V121.909H109.963V129.157C109.963 129.766 109.821 130.266 109.538 130.657C109.255 131.048 108.872 131.337 108.388 131.525C107.908 131.713 107.367 131.807 106.763 131.807ZM106.75 127.749C107.147 127.749 107.482 127.657 107.756 127.472C108.033 127.284 108.242 127.016 108.384 126.669C108.528 126.318 108.601 125.898 108.601 125.408C108.601 124.931 108.53 124.511 108.388 124.148C108.247 123.785 108.039 123.502 107.765 123.299C107.491 123.092 107.153 122.989 106.75 122.989C106.334 122.989 105.988 123.097 105.711 123.312C105.434 123.525 105.225 123.814 105.083 124.18C104.945 124.547 104.875 124.956 104.875 125.408C104.875 125.873 104.946 126.281 105.088 126.632C105.229 126.983 105.438 127.257 105.715 127.453C105.996 127.65 106.34 127.749 106.75 127.749ZM112.464 129V121.909H113.798V123.036H113.872C114.001 122.654 114.229 122.354 114.555 122.135C114.884 121.914 115.257 121.803 115.672 121.803C115.758 121.803 115.86 121.806 115.977 121.812C116.097 121.818 116.191 121.826 116.259 121.835V123.156C116.203 123.14 116.105 123.123 115.963 123.105C115.822 123.083 115.68 123.072 115.538 123.072C115.212 123.072 114.921 123.142 114.666 123.28C114.414 123.416 114.213 123.605 114.066 123.848C113.918 124.088 113.844 124.362 113.844 124.67V129H112.464ZM120.103 129.157C119.654 129.157 119.248 129.074 118.884 128.908C118.521 128.738 118.234 128.494 118.021 128.174C117.812 127.854 117.707 127.461 117.707 126.996C117.707 126.596 117.784 126.267 117.938 126.009C118.092 125.75 118.3 125.545 118.561 125.395C118.823 125.244 119.115 125.13 119.438 125.053C119.762 124.976 120.091 124.917 120.426 124.877C120.851 124.828 121.196 124.788 121.46 124.757C121.725 124.724 121.917 124.67 122.037 124.596C122.158 124.522 122.218 124.402 122.218 124.236V124.203C122.218 123.8 122.104 123.488 121.876 123.266C121.651 123.045 121.316 122.934 120.87 122.934C120.405 122.934 120.039 123.037 119.771 123.243C119.506 123.446 119.323 123.673 119.221 123.922L117.924 123.626C118.078 123.196 118.303 122.848 118.598 122.583C118.897 122.315 119.24 122.121 119.628 122.001C120.015 121.878 120.423 121.817 120.851 121.817C121.134 121.817 121.434 121.851 121.751 121.918C122.071 121.983 122.37 122.103 122.647 122.278C122.927 122.454 123.156 122.705 123.335 123.031C123.513 123.354 123.602 123.774 123.602 124.291V129H122.254V128.031H122.199C122.11 128.209 121.976 128.384 121.797 128.557C121.619 128.729 121.39 128.872 121.11 128.986C120.83 129.1 120.494 129.157 120.103 129.157ZM120.403 128.049C120.785 128.049 121.111 127.974 121.382 127.823C121.656 127.672 121.864 127.475 122.005 127.232C122.15 126.986 122.222 126.723 122.222 126.442V125.528C122.173 125.578 122.078 125.624 121.936 125.667C121.797 125.707 121.639 125.742 121.46 125.773C121.282 125.801 121.108 125.827 120.939 125.852C120.77 125.873 120.628 125.892 120.514 125.907C120.246 125.941 120.002 125.998 119.78 126.078C119.562 126.158 119.386 126.273 119.254 126.424C119.125 126.572 119.06 126.769 119.06 127.015C119.06 127.357 119.186 127.615 119.438 127.79C119.691 127.963 120.012 128.049 120.403 128.049ZM126.091 129V121.909H127.416V123.063H127.504C127.651 122.672 127.893 122.368 128.228 122.149C128.564 121.928 128.966 121.817 129.433 121.817C129.907 121.817 130.304 121.928 130.624 122.149C130.948 122.371 131.186 122.675 131.34 123.063H131.414C131.583 122.685 131.852 122.383 132.222 122.158C132.591 121.931 133.031 121.817 133.542 121.817C134.185 121.817 134.71 122.018 135.116 122.422C135.526 122.825 135.73 123.433 135.73 124.245V129H134.35V124.374C134.35 123.894 134.219 123.546 133.957 123.331C133.696 123.116 133.383 123.008 133.02 123.008C132.571 123.008 132.222 123.146 131.972 123.423C131.723 123.697 131.598 124.05 131.598 124.48V129H130.223V124.287C130.223 123.902 130.103 123.593 129.863 123.359C129.623 123.125 129.31 123.008 128.926 123.008C128.664 123.008 128.422 123.077 128.201 123.216C127.982 123.351 127.805 123.54 127.67 123.783C127.537 124.027 127.471 124.308 127.471 124.628V129H126.091Z" fill="#5616A9" fill-opacity="0.75"/>
<path d="M63.4186 175V165.545H66.7886C67.5242 165.545 68.1336 165.679 68.6167 165.947C69.0999 166.215 69.4616 166.581 69.7016 167.046C69.9417 167.507 70.0617 168.028 70.0617 168.606C70.0617 169.188 69.9401 169.711 69.697 170.176C69.4569 170.637 69.0938 171.004 68.6075 171.275C68.1243 171.542 67.5165 171.676 66.784 171.676H64.4665V170.467H66.6547C67.1195 170.467 67.4965 170.387 67.7858 170.227C68.0751 170.063 68.2874 169.842 68.4229 169.562C68.5583 169.282 68.626 168.963 68.626 168.606C68.626 168.249 68.5583 167.932 68.4229 167.655C68.2874 167.378 68.0735 167.161 67.7812 167.004C67.4919 166.847 67.1102 166.769 66.6363 166.769H64.8451V175H63.4186ZM77.2731 173.827C77.0207 173.827 76.8038 173.738 76.6222 173.56C76.4406 173.378 76.3498 173.16 76.3498 172.904C76.3498 172.652 76.4406 172.436 76.6222 172.258C76.8038 172.076 77.0207 171.985 77.2731 171.985C77.5255 171.985 77.7424 172.076 77.924 172.258C78.1056 172.436 78.1964 172.652 78.1964 172.904C78.1964 173.073 78.1533 173.229 78.0671 173.37C77.984 173.509 77.8732 173.62 77.7347 173.703C77.5963 173.786 77.4424 173.827 77.2731 173.827ZM77.2731 169.091C77.0207 169.091 76.8038 169.002 76.6222 168.823C76.4406 168.642 76.3498 168.423 76.3498 168.168C76.3498 167.915 76.4406 167.7 76.6222 167.521C76.8038 167.34 77.0207 167.249 77.2731 167.249C77.5255 167.249 77.7424 167.34 77.924 167.521C78.1056 167.7 78.1964 167.915 78.1964 168.168C78.1964 168.337 78.1533 168.492 78.0671 168.634C77.984 168.772 77.8732 168.883 77.7347 168.966C77.5963 169.049 77.4424 169.091 77.2731 169.091ZM84.8965 175V165.545H88.2665C89.0021 165.545 89.6115 165.679 90.0947 165.947C90.5779 166.215 90.9395 166.581 91.1795 167.046C91.4196 167.507 91.5396 168.028 91.5396 168.606C91.5396 169.188 91.4181 169.711 91.1749 170.176C90.9349 170.637 90.5717 171.004 90.0854 171.275C89.6022 171.542 88.9944 171.676 88.2619 171.676H85.9445V170.467H88.1327C88.5974 170.467 88.9744 170.387 89.2637 170.227C89.553 170.063 89.7654 169.842 89.9008 169.562C90.0362 169.282 90.1039 168.963 90.1039 168.606C90.1039 168.249 90.0362 167.932 89.9008 167.655C89.7654 167.378 89.5515 167.161 89.2591 167.004C88.9698 166.847 88.5882 166.769 88.1142 166.769H86.323V175H84.8965ZM93.7512 175V167.909H95.1315V175H93.7512ZM94.4482 166.815C94.2082 166.815 94.002 166.735 93.8296 166.575C93.6604 166.412 93.5757 166.218 93.5757 165.993C93.5757 165.766 93.6604 165.572 93.8296 165.412C94.002 165.248 94.2082 165.167 94.4482 165.167C94.6883 165.167 94.893 165.248 95.0622 165.412C95.2346 165.572 95.3208 165.766 95.3208 165.993C95.3208 166.218 95.2346 166.412 95.0622 166.575C94.893 166.735 94.6883 166.815 94.4482 166.815ZM100.625 175.143C99.939 175.143 99.3481 174.988 98.8526 174.677C98.3602 174.363 97.9816 173.931 97.7169 173.38C97.4523 172.829 97.3199 172.198 97.3199 171.487C97.3199 170.767 97.4553 170.131 97.7262 169.58C97.997 169.026 98.3786 168.594 98.8711 168.283C99.3635 167.972 99.9436 167.817 100.611 167.817C101.15 167.817 101.63 167.917 102.052 168.117C102.473 168.314 102.814 168.591 103.072 168.948C103.334 169.305 103.489 169.722 103.538 170.199H102.195C102.121 169.866 101.952 169.58 101.687 169.34C101.426 169.1 101.075 168.98 100.635 168.98C100.25 168.98 99.9128 169.082 99.6235 169.285C99.3373 169.485 99.1142 169.771 98.9542 170.143C98.7941 170.513 98.7141 170.95 98.7141 171.455C98.7141 171.972 98.7926 172.418 98.9495 172.793C99.1065 173.169 99.3281 173.46 99.6143 173.666C99.9036 173.872 100.244 173.975 100.635 173.975C100.896 173.975 101.133 173.927 101.345 173.832C101.561 173.734 101.741 173.594 101.886 173.412C102.033 173.23 102.136 173.012 102.195 172.756H103.538C103.489 173.215 103.34 173.624 103.091 173.984C102.841 174.344 102.507 174.628 102.089 174.834C101.673 175.04 101.185 175.143 100.625 175.143ZM108.974 167.909V169.017H105.101V167.909H108.974ZM106.14 166.21H107.52V172.918C107.52 173.186 107.56 173.387 107.64 173.523C107.72 173.655 107.823 173.746 107.95 173.795C108.079 173.841 108.219 173.864 108.37 173.864C108.48 173.864 108.577 173.857 108.661 173.841C108.744 173.826 108.808 173.814 108.854 173.804L109.104 174.945C109.024 174.975 108.91 175.006 108.762 175.037C108.614 175.071 108.43 175.089 108.208 175.092C107.845 175.098 107.506 175.034 107.192 174.898C106.879 174.763 106.625 174.554 106.431 174.271C106.237 173.987 106.14 173.632 106.14 173.204V166.21ZM115.643 172.059V167.909H117.028V175H115.671V173.772H115.597C115.434 174.151 115.172 174.466 114.812 174.718C114.455 174.968 114.01 175.092 113.478 175.092C113.023 175.092 112.619 174.992 112.269 174.792C111.921 174.589 111.647 174.289 111.447 173.892C111.25 173.495 111.151 173.004 111.151 172.419V167.909H112.532V172.253C112.532 172.736 112.666 173.121 112.933 173.407C113.201 173.694 113.549 173.837 113.977 173.837C114.235 173.837 114.492 173.772 114.748 173.643C115.006 173.513 115.22 173.318 115.389 173.056C115.562 172.795 115.646 172.462 115.643 172.059ZM119.533 175V167.909H120.867V169.036H120.941C121.07 168.654 121.298 168.354 121.624 168.135C121.953 167.914 122.326 167.803 122.741 167.803C122.827 167.803 122.929 167.806 123.046 167.812C123.166 167.818 123.26 167.826 123.328 167.835V169.156C123.272 169.14 123.174 169.123 123.032 169.105C122.891 169.083 122.749 169.072 122.607 169.072C122.281 169.072 121.99 169.142 121.735 169.28C121.482 169.416 121.282 169.605 121.135 169.848C120.987 170.088 120.913 170.362 120.913 170.67V175H119.533ZM127.974 175.143C127.276 175.143 126.674 174.994 126.169 174.695C125.668 174.394 125.28 173.971 125.006 173.426C124.735 172.878 124.6 172.236 124.6 171.501C124.6 170.774 124.735 170.134 125.006 169.58C125.28 169.026 125.661 168.594 126.151 168.283C126.643 167.972 127.219 167.817 127.877 167.817C128.277 167.817 128.665 167.883 129.041 168.015C129.416 168.148 129.753 168.355 130.052 168.638C130.35 168.922 130.586 169.289 130.758 169.742C130.93 170.191 131.017 170.737 131.017 171.381V171.87H125.38V170.836H129.664C129.664 170.473 129.59 170.151 129.442 169.871C129.295 169.588 129.087 169.365 128.819 169.202C128.554 169.039 128.244 168.957 127.887 168.957C127.499 168.957 127.16 169.052 126.871 169.243C126.585 169.431 126.363 169.677 126.206 169.982C126.052 170.283 125.975 170.611 125.975 170.965V171.773C125.975 172.247 126.058 172.65 126.225 172.983C126.394 173.315 126.629 173.569 126.931 173.744C127.233 173.917 127.585 174.003 127.988 174.003C128.25 174.003 128.488 173.966 128.704 173.892C128.919 173.815 129.105 173.701 129.262 173.55C129.419 173.4 129.539 173.213 129.622 172.992L130.929 173.227C130.824 173.612 130.636 173.949 130.366 174.238C130.098 174.525 129.761 174.748 129.355 174.908C128.951 175.065 128.491 175.143 127.974 175.143Z" fill="#5616A9" fill-opacity="0.75"/>
<defs>
<filter id="filter0_d_0_1" x="0" y="0" width="193" height="246" filterUnits="userSpaceOnUse" color-interpolation-filters="sRGB">
<feFlood flood-opacity="0" result="BackgroundImageFix"/>
<feColorMatrix in="SourceAlpha" type="matrix" values="0 0 0 0 0 0 0 0 0 0 0 0 0 0 0 0 0 0 127 0" result="hardAlpha"/>
<feOffset dy="4"/>
<feGaussianBlur stdDeviation="10"/>
<feComposite in2="hardAlpha" operator="out"/>
<feColorMatrix type="matrix" values="0 0 0 0 0 0 0 0 0 0 0 0 0 0 0 0 0 0 0.25 0"/>
<feBlend mode="normal" in2="BackgroundImageFix" result="effect1_dropShadow_0_1"/>
<feBlend mode="normal" in="SourceGraphic" in2="effect1_dropShadow_0_1" result="shape"/>
</filter>
</defs>
</svg>
